<svg id="레이어_1" data-name="레이어 1" xmlns="http://www.w3.org/2000/svg" viewBox="0 0 48 48"><defs><style>.cls-1{fill:#606060;}.cls-2{fill:none;stroke:#606060;stroke-miterlimit:10;stroke-width:3px;}</style></defs><title>aboutModalX</title><path class="cls-1" d="M34.6,4A11.41,11.41,0,0,1,46,15.4V34.6A11.41,11.41,0,0,1,34.6,46H15.4A11.41,11.41,0,0,1,4,34.6V15.4A11.41,11.41,0,0,1,15.4,4H34.6m0-3H15.4A14.4,14.4,0,0,0,1,15.4V34.6A14.4,14.4,0,0,0,15.4,49H34.6A14.4,14.4,0,0,0,49,34.6V15.4A14.4,14.4,0,0,0,34.6,1Z" transform="translate(-1 -1)"/><line class="cls-2" x1="4.43" y1="4.43" x2="43.29" y2="43.29"/><line class="cls-2" x1="43.29" y1="4.43" x2="4.43" y2="43.29"/></svg>