<svg id="레이어_1" data-name="레이어 1" xmlns="http://www.w3.org/2000/svg" viewBox="0 0 63.38 11.38"><defs><style>.cls-1{fill:#fbffd3;}</style></defs><title>ABOUT_hover</title><path class="cls-1" d="M165.86,89.2V81.08h1.63V79.45h1.62V77.83H174v1.62h1.62v1.63h1.63V89.2H174V86h-4.88V89.2Zm3.25-4.87H174V81.08h-1.63V79.45h-1.62v1.63h-1.63Z" transform="translate(-165.86 -77.83)"/><path class="cls-1" d="M178.86,89.2V77.83h9.75v1.62h1.63V82.7h-1.63v1.63h1.63v3.25h-1.63V89.2Zm3.25-6.5H187V79.45h-4.88Zm0,4.88H187V84.33h-4.88Z" transform="translate(-165.86 -77.83)"/><path class="cls-1" d="M193.49,89.2V87.58h-1.63V79.45h1.63V77.83h8.12v1.62h1.63v8.13h-1.63V89.2Zm1.62-1.62H200V79.45h-4.88Z" transform="translate(-165.86 -77.83)"/><path class="cls-1" d="M206.49,89.2V87.58h-1.63V77.83h3.25v9.75H213V77.83h3.25v9.75h-1.63V89.2Z" transform="translate(-165.86 -77.83)"/><path class="cls-1" d="M222.74,89.2V79.45h-3.25V77.83h9.75v1.62H226V89.2Z" transform="translate(-165.86 -77.83)"/></svg>