<svg id="레이어_1" data-name="레이어 1" xmlns="http://www.w3.org/2000/svg" viewBox="0 0 45 19.5"><defs><style>.cls-1{fill:#606060;}.cls-2{fill:#ffd8b0;}</style></defs><title>copied</title><rect class="cls-1" width="45" height="13.5" rx="2.7"/><polygon class="cls-1" points="16.5 12 22.5 19.5 28.5 12 16.5 12"/><path class="cls-2" d="M16.4,37.24H15.15c-.79,0-1.19-.35-1.19-1.07V34.68c0-.71.4-1.07,1.19-1.07H16.4c.79,0,1.19.36,1.19,1.07v.37h-1.2v-.24a.21.21,0,0,0-.24-.24H15.4a.21.21,0,0,0-.24.24V36a.21.21,0,0,0,.24.24h.75a.21.21,0,0,0,.24-.24v-.23h1.2v.36C17.59,36.89,17.19,37.24,16.4,37.24Z" transform="translate(-2.5 -28.5)"/><path class="cls-2" d="M21.68,34.65v1.56c0,.71-.4,1.06-1.19,1.06H19.24c-.79,0-1.18-.35-1.18-1.06V34.65c0-.71.39-1.07,1.18-1.07h1.25C21.28,33.58,21.68,33.94,21.68,34.65Zm-1.2,1.42V34.78a.21.21,0,0,0-.24-.24H19.5a.21.21,0,0,0-.24.24v1.29a.21.21,0,0,0,.24.24h.74A.21.21,0,0,0,20.48,36.07Z" transform="translate(-2.5 -28.5)"/><path class="cls-2" d="M22.15,38.56v-5h1.14v.14a1.16,1.16,0,0,1,.6-.14h.69c.8,0,1.19.36,1.19,1.07v1.49c0,.72-.39,1.07-1.19,1.07h-.69a1.13,1.13,0,0,1-.54-.11v1.43Zm1.2-2.49q0,.26.24.24h.74a.21.21,0,0,0,.24-.24V34.78a.21.21,0,0,0-.24-.24h-.74c-.16,0-.24.09-.24.23Z" transform="translate(-2.5 -28.5)"/><path class="cls-2" d="M27.47,32.37v.88H26.24v-.88Zm0,1.24v3.63H26.24V33.61Z" transform="translate(-2.5 -28.5)"/><path class="cls-2" d="M29.11,35.77v.36a.16.16,0,0,0,.18.18h.89a.16.16,0,0,0,.18-.18v0h1.2v.18c0,.64-.35,1-1.07,1H29c-.72,0-1.07-.31-1.07-1V34.56c0-.63.35-1,1.07-1h1.48c.72,0,1.07.32,1.07,1v.54c0,.51-.24.77-.74.77H29.53A.77.77,0,0,1,29.11,35.77Zm0-.89a.16.16,0,0,0,.18.18h.86a.16.16,0,0,0,.18-.18v-.16a.16.16,0,0,0-.18-.18h-.86a.16.16,0,0,0-.18.18Z" transform="translate(-2.5 -28.5)"/><path class="cls-2" d="M35.63,32.37v4.87H34.48v-.13a1.16,1.16,0,0,1-.6.13h-.69c-.79,0-1.19-.35-1.19-1.07V34.68c0-.71.4-1.07,1.19-1.07h.69a1.2,1.2,0,0,1,.54.11V32.37Zm-1.21,3.7V34.78a.21.21,0,0,0-.24-.24h-.74a.21.21,0,0,0-.24.24v1.29a.21.21,0,0,0,.24.24h.74A.21.21,0,0,0,34.42,36.07Z" transform="translate(-2.5 -28.5)"/><path class="cls-2" d="M37.39,32.31v3.48H36.12V32.31Zm0,5.17H36.12V36.21h1.27Z" transform="translate(-2.5 -28.5)"/></svg>