<svg id="레이어_1" data-name="레이어 1" xmlns="http://www.w3.org/2000/svg" xmlns:xlink="http://www.w3.org/1999/xlink" viewBox="0 0 189 189"><defs><style>.cls-1{fill:none;}.cls-2{fill:#5cc8d7;}.cls-3{fill:#5cd3d7;}.cls-4{fill:#97ee9a;}.cls-5{fill:#ffd8b0;}.cls-6{clip-path:url(#clip-path);}</style><clipPath id="clip-path" transform="translate(154 -3)"><circle class="cls-1" cx="-58" cy="96" r="90"/></clipPath></defs><title>earth</title><path class="cls-2" d="M-57.83,6a90,90,0,0,0-90,90,90,90,0,0,0,90,90,90,90,0,0,0,90-90A90,90,0,0,0-57.83,6Zm-21,34.5c-4.5,1.5-7.5,4.5-12,3C-86.33,45-83.33,42-78.83,40.5ZM-14.33,96c-31.5,3-63-1.5-94.5,4.5,31.5-6,63-1.5,94.5-4.5,6,0,10.5-3,15-7.5C-3.83,93-8.33,96-14.33,96Zm-22.5-45c12,7.5,30-1.5,39,12C-6.83,49.5-24.83,58.5-36.83,51Z" transform="translate(154 -3)"/><path class="cls-3" d="M-146.66,78.87c2.7,5.48,2.94,11.65,4.86,17.38,1.22,3.63,2.42,6.62,5.65,8.79,5.08,3.41,8.38,7,5.73,14.29-1.73,4.71-1,10.43,1.3,15.44.62,1.31,2,3.15.85,4.09-4,3.22-1.24,6.93-1.24,10.43-9.54-11.68-14.11-25.49-16.78-40A87,87,0,0,1-146.66,78.87Z" transform="translate(154 -3)"/><path class="cls-3" d="M-3.86,144.28a53.18,53.18,0,0,1-7.43,19.06,2.56,2.56,0,0,1-3.42.72c-1.85-1-1.28-2.8-.81-4.18,1-3,5.1-5,2.83-9.33-.54-1,1.62-1.6,2.77-2C-7.58,147.77-4.85,147.58-3.86,144.28Z" transform="translate(154 -3)"/><path class="cls-3" d="M29.23,79.56a23.61,23.61,0,0,1,.29-13.63C21.13,45.76,7.27,30.28-11.28,19-20,13.69-29.06,8.91-39.52,7.85c-.73,3.69-4.62,5-8.36,2.56-3.56-2.31-7.44-3.5-11.25-1.68-4.21,2-8,4.9-13.32,5.74,7.45,4.78,7.72,4.79,11.83,0,.94-1.1,1.93-1.36,2.91-.34s2.77,1.79,1.71,3.62c-.84,1.44-.68,4.22-3.17,3.78-3.3-.58-6.94,2-10-1.14a1.48,1.48,0,0,0-2.2.29c-3.44,3.94-8.25,4.54-13,5.46-1.39.27-3.62.53-2.83,2.51,2.82,7.11-1.84,5.48-5.67,5.22-6.13-.43-8.39,2.33-7.88,8.26.43,4.94,4.34,2.41,6.87,3.45-2,2.4-5.47,1.47-6.75,4.21-1.92,4.1-5.64,6.88-8.08,10.48s-6.55,4.78-9.19,7.8c-6.08,6.93-4.5,15.85-6,24-.66,3.73,4,3.92,5.41,6.47.62,1.17,1.07,2.42,1.69,3.58,1.94,3.72,4.78,6.65,9.13,6.61,4.89,0,9.9.57,14.68-1.43,2.28-1,4.83-.93,7.33-1,4.92-.06,7.28,4.2,10.85,6.37,2.41,1.47.17,4,.16,6,0,4.86,1.12,9.25,4.89,12.49,5,4.3,5.57,9.27,3.27,15.18-1.31,3.35-2.84,7.4-.21,10.42,2.84,3.25,3.6,6.89,4.39,10.76a26.8,26.8,0,0,0,5.65,11.95c4,4.89,12.78,5.22,17.35.8C-33.74,175-30.8,167.76-25,162.77c2.19-1.89,4.7-4.3,3.44-8.13-.44-1.36,1.37-1.54,2.23-2.21C-14.26,148.5-11,143-12.82,137c-3.35-10.9,2-17.47,9.15-24A27.44,27.44,0,0,0,4.76,97.08c.55-3.16-.49-4.28-3.85-2.93-3.13,1.25-6.32,2.24-8.65.48A16.38,16.38,0,0,1-14.33,96c-31.5,3-63-1.5-94.5,4.5,31.5-6,63-1.5,94.5-4.5a16.38,16.38,0,0,0,6.59-1.37,7.66,7.66,0,0,1-2.47-4c-.26-.85-1.23-1.54-2-2.15C-20,82.29-22.5,72.54-28,64.84a3.28,3.28,0,0,1-.07-4.33c2.79,1.54,4.62,4.12,6.93,6.15C-14.47,72.59-12,81.39-6.45,88.1c1.25,1.51,1.83,3.41,4,1.35C.94,86.12,4.58,82.94,7.57,79.23c2.13-2.64,2.2-6.25.94-9.44-.83-2.1-3.9-3.85-5-3.29-5.89,2.88-7.06-2.08-9.41-5-.74-.93-2.11-2.26-.55-3.38,1.24-.9,2.47.22,3.46,1.13A23.28,23.28,0,0,0,2,62.82c-7.72-11.3-21.9-6.48-33.32-9.49a8.69,8.69,0,0,1-6.31,2.27c-4-.12-7.75-1.51-11.43-3-1.83-.76-3.72-1.84-5.18.62a1.85,1.85,0,0,1-.62.75c-1.34.68-15.25-3.76-16-5.06-2.3-4.2-5.71-5.62-10.37-4.1-2.33.76-4.57,1.61-7.08.7.2-.57.42-1.1.65-1.61a7.45,7.45,0,0,1-3.24-.36,7.45,7.45,0,0,0,3.24.36c3.12-6.7,9.84-7.87,15.89-10,1.87-.64,3,.86,4.15,2.1,1.31,1.47,2.49,3.07,3.88,4.47.63.63,1.13,2.69,2.5,1A2.22,2.22,0,0,0-61.88,38a29.4,29.4,0,0,0-3.49-1.89c-1.17-.54-2.14-1.16-1.45-2.58.53-1.1,1.56-.95,2.57-.61,4.67,1.54,9.85,2.38,10.29,8.93.09,1.31.62,3.32,2.5,3.16s.54-1.86.73-2.84a2.5,2.5,0,0,1,2.15-2.35c1.54-.21,3.18-.19,3.94,1.36,1.13,2.29,3.14,3.22,5.23,4.28,2.42,1.23,4.59,1.8,6.66-.59a2.45,2.45,0,0,1,3.11-.79c1.28.65,1.1,1.92,1.05,3.06a8.76,8.76,0,0,1-2.69,6.17c11.42,3,25.6-1.81,33.32,9.49a15.66,15.66,0,0,0,12.1,1.06c1.49-.44,2.49.36,3.33,1.52,4.66,6.45,8.94,13.08,10.61,21,.24,1.15,0,2.81,2.27,2.71C31.24,85.81,30,82.7,29.23,79.56Z" transform="translate(154 -3)"/><path class="cls-4" d="M28.62,75.82a22.51,22.51,0,0,1,.28-13C20.91,43.63,7.7,28.89-10,18.15c-8.31-5.06-16.93-9.61-26.89-10.62-.7,3.51-4.41,4.74-8,2.43-3.39-2.19-7.09-3.33-10.71-1.6-4,1.92-7.61,4.67-12.69,5.48,7.1,4.55,7.35,4.55,11.26,0,.9-1.05,1.84-1.3,2.78-.32s2.64,1.7,1.63,3.45c-.8,1.37-.65,4-3,3.6-3.15-.55-6.61,1.89-9.48-1.09a1.42,1.42,0,0,0-2.1.28c-3.28,3.75-7.86,4.32-12.34,5.2-1.32.26-3.44.5-2.69,2.39,2.69,6.77-1.75,5.22-5.4,5-5.84-.41-8,2.22-7.5,7.87.4,4.71,4.13,2.29,6.54,3.28a3.81,3.81,0,0,1-.46.44c2.22.18,4.13-.68,6.2-1.67,2.88-6.72,9.42-7.84,15.3-9.86,1.78-.62,2.9.82,3.94,2,1.26,1.41,2.38,2.93,3.71,4.27.59.6,1.07,2.56,2.37.91a2.11,2.11,0,0,0-.68-3.26,27.87,27.87,0,0,0-3.31-1.8c-1.12-.51-2-1.11-1.39-2.46.51-1.05,1.49-.9,2.45-.58,4.45,1.47,9.38,2.27,9.8,8.51.09,1.25.59,3.16,2.38,3s.52-1.77.7-2.71A2.36,2.36,0,0,1-45.48,38c1.46-.2,3-.18,3.75,1.29,1.07,2.18,3,3.07,5,4.08,2.31,1.17,4.37,1.71,6.34-.57a2.35,2.35,0,0,1,3-.75c1.21.62,1,1.83,1,2.92A8,8,0,0,1-33,52.81c8.45,2.94,18.77.65,26.91,3.66a1.31,1.31,0,0,1,.66-1.11c1.19-.86,2.36.21,3.3,1.08,4.69,4.3,10,6.35,16.35,4.45,1.43-.42,2.38.34,3.18,1.45,4.44,6.14,8.51,12.45,10.1,20,.23,1.1,0,2.69,2.17,2.59C30.54,81.78,29.36,78.81,28.62,75.82Z" transform="translate(154 -3)"/><path class="cls-4" d="M-108.2,100.39a8.39,8.39,0,0,0,6.57,3.15c4.66,0,9.43.54,14-1.36,2.18-.91,4.6-.89,7-.92,4.69-.05,6.94,4,10.34,6.07,2.29,1.39.16,3.77.15,5.69,0,4.63,1.06,8.82,4.65,11.9,4.77,4.1,5.32,8.83,3.12,14.45-1.24,3.2-2.71,7-.2,9.93,2.7,3.1,3.43,6.56,4.18,10.25A25.6,25.6,0,0,0-53,170.93c3.84,4.66,12.18,5,16.52.76,5.17-5,8-11.86,13.5-16.62,2.09-1.8,4.48-4.09,3.28-7.74-.42-1.29,1.3-1.47,2.13-2.11,4.82-3.74,8-9,6.2-14.7-3.2-10.38,1.93-16.64,8.71-22.88a26.13,26.13,0,0,0,8-15.13c.52-3-.47-4.08-3.67-2.8a21.75,21.75,0,0,1-3.56,1.17C-5.6,94-9.47,96-14.33,96-45.62,99-76.91,94.57-108.2,100.39Z" transform="translate(154 -3)"/><path class="cls-5" d="M-19.39,63.54c6.39,5.64,8.75,14,14,20.42,1.19,1.44,1.74,3.24,3.76,1.29C1.67,82.07,5.15,79,8,75.51c2-2.52,2.1-6,.9-9-.79-2-3.72-3.67-4.82-3.13-5.61,2.74-6.72-2-9-4.81-.46-.59-1.18-1.35-1.18-2.11-8.14-3-18.46-.72-26.91-3.66A9.06,9.06,0,0,1-35,53c-3.85-.11-7.38-1.43-10.88-2.89-1.74-.73-3.54-1.76-4.94.59a1.72,1.72,0,0,1-.59.71c-1.27.65-14.53-3.58-15.21-4.82-2.19-4-5.44-5.35-9.87-3.9-2.22.72-4.36,1.54-6.74.67.13-.4.29-.78.45-1.15-2.07,1-4,1.85-6.2,1.67-1.92,1.7-4.84,1.16-6,3.57-1.83,3.91-5.37,6.56-7.7,10s-6.23,4.55-8.75,7.43c-5.79,6.6-4.29,15.09-5.66,22.81-.64,3.55,3.85,3.74,5.14,6.17.59,1.1,1,2.29,1.61,3.4a16.11,16.11,0,0,0,2.13,3.15C-76.91,94.57-45.62,99-14.33,96c4.86,0,8.73-2,12.42-5.12-3,.63-5.62,0-7-4.5-.25-.81-1.18-1.47-1.91-2-7.42-5.91-9.79-15.19-15.07-22.53A3.13,3.13,0,0,1-26,57.68C-23.33,59.15-21.59,61.6-19.39,63.54Z" transform="translate(154 -3)"/><path class="cls-4" d="M-2.65,144.76a50.35,50.35,0,0,1-7.08,18.15,2.42,2.42,0,0,1-3.25.68c-1.76-.91-1.22-2.66-.77-4,1-2.9,4.85-4.79,2.69-8.88-.51-.95,1.54-1.52,2.64-1.89C-6.19,148.08-3.59,147.9-2.65,144.76Z" transform="translate(154 -3)"/><path class="cls-4" d="M-147.74,82.05c2.57,5.21,2.8,11.09,4.63,16.55,1.16,3.46,2.31,6.31,5.38,8.37,4.84,3.24,8,6.71,5.46,13.61-1.65,4.49-1,9.94,1.24,14.7.58,1.26,1.92,3,.8,3.9-3.81,3.07-1.18,6.6-1.17,9.93-9.1-11.12-13.45-24.27-16-38.1A82.62,82.62,0,0,1-147.74,82.05Z" transform="translate(154 -3)"/><g class="cls-6"><image width="420" height="420" transform="scale(0.45)" xlink:href="../../../../../../../../../Downloads/clean-textile.png"/></g></svg>