<svg id="레이어_1" data-name="레이어 1" xmlns="http://www.w3.org/2000/svg" viewBox="0 0 115.13 10.38"><defs><style>.cls-1{fill:#606060;}</style></defs><title>email</title><path class="cls-1" d="M25.6,77.82l-.82.23L24,76.27l.82-.21Zm-1.08,5.25V78.78h.83v4.34Z" transform="translate(-24.03 -74.87)"/><path class="cls-1" d="M29.56,79.23H27.29V83l-.59.07V78l.57-.12v.59L30,78.31l.35.71.35,3.82-.75.21Z" transform="translate(-24.03 -74.87)"/><path class="cls-1" d="M32.28,82.79V79.24H31.09l.07-.86h1.29V76h.79v2.44h1.93v.84h-2v3L34.93,82l.12.8-2.35.49Z" transform="translate(-24.03 -74.87)"/><path class="cls-1" d="M37.63,78.13a2.13,2.13,0,0,1,1,.21,1.72,1.72,0,0,1,.67.58,2.54,2.54,0,0,1,.38.85,5,5,0,0,1,.11,1,3.27,3.27,0,0,1-.2,1.1,2.25,2.25,0,0,1-.48.76,1.62,1.62,0,0,1-.66.45,2,2,0,0,1-.77.15,2,2,0,0,1-.92-.21,1.88,1.88,0,0,1-.65-.57,2.51,2.51,0,0,1-.4-.82,3.46,3.46,0,0,1-.14-1,3.35,3.35,0,0,1,.15-1,2.52,2.52,0,0,1,.41-.82,1.88,1.88,0,0,1,.65-.54A1.84,1.84,0,0,1,37.63,78.13Zm.07.79a1.32,1.32,0,0,0-1,.4,1.88,1.88,0,0,0-.37,1.28,2.59,2.59,0,0,0,.1.67,2.1,2.1,0,0,0,.27.61,1.56,1.56,0,0,0,.42.43.9.9,0,0,0,.55.17,1.1,1.1,0,0,0,.57-.15,1.38,1.38,0,0,0,.44-.39,2,2,0,0,0,.27-.54,1.73,1.73,0,0,0,.1-.58,2.21,2.21,0,0,0-.37-1.46A1.19,1.19,0,0,0,37.7,78.92Z" transform="translate(-24.03 -74.87)"/><path class="cls-1" d="M41.33,82.79V79.24h-1.2l.07-.86h1.29V76h.8v2.44h1.92v.84h-2v3L44,82l.12.8-2.35.49Z" transform="translate(-24.03 -74.87)"/><path class="cls-1" d="M47.94,79.27H45.71v3.78l-.72.07V75.73h.7v2.79H48.1l.54.26.47,4.27-.75,0Z" transform="translate(-24.03 -74.87)"/><path class="cls-1" d="M49.77,80.63A2.83,2.83,0,0,1,50,79.55a2.06,2.06,0,0,1,.48-.7,1.56,1.56,0,0,1,.64-.38,2.35,2.35,0,0,1,.68-.11,2.47,2.47,0,0,1,.84.13,1.5,1.5,0,0,1,.64.45,2,2,0,0,1,.4.83A4.56,4.56,0,0,1,53.77,81l-3.25.32a1.16,1.16,0,0,0,.18.55,1.09,1.09,0,0,0,.37.37,1.44,1.44,0,0,0,.48.2,2.33,2.33,0,0,0,.53.06,2.7,2.7,0,0,0,.85-.13,1.57,1.57,0,0,0,.61-.31l.21.56a1.06,1.06,0,0,1-.24.23,1.79,1.79,0,0,1-.39.21,3.29,3.29,0,0,1-.5.14,3.45,3.45,0,0,1-.57,0,2.65,2.65,0,0,1-.82-.13,1.92,1.92,0,0,1-.74-.43A2.1,2.1,0,0,1,50,81.9,3.35,3.35,0,0,1,49.77,80.63Zm.68,0L53,80.38a1.34,1.34,0,0,0-.3-.92,1.21,1.21,0,0,0-1-.35,1.26,1.26,0,0,0-.57.14,1.46,1.46,0,0,0-.41.32,1.26,1.26,0,0,0-.24.44,1.47,1.47,0,0,0-.08.51A.53.53,0,0,0,50.45,80.66Z" transform="translate(-24.03 -74.87)"/><path class="cls-1" d="M54.22,84.27l.26-.94,1.87.49V78.73h.85v5.75l-.45.4Zm3.09-6.47-.56.21-1-1.76.82-.21Z" transform="translate(-24.03 -74.87)"/><path class="cls-1" d="M60.27,78.13a2.13,2.13,0,0,1,1,.21,1.72,1.72,0,0,1,.67.58,2.54,2.54,0,0,1,.38.85,5,5,0,0,1,.11,1,3.27,3.27,0,0,1-.2,1.1,2.25,2.25,0,0,1-.48.76,1.62,1.62,0,0,1-.66.45,2,2,0,0,1-.77.15,2,2,0,0,1-.92-.21,1.88,1.88,0,0,1-.65-.57,2.51,2.51,0,0,1-.4-.82,3.46,3.46,0,0,1-.14-1,3.35,3.35,0,0,1,.15-1,2.74,2.74,0,0,1,.41-.82,1.88,1.88,0,0,1,.65-.54A1.84,1.84,0,0,1,60.27,78.13Zm.07.79a1.32,1.32,0,0,0-1,.4A1.88,1.88,0,0,0,59,80.6a2.59,2.59,0,0,0,.1.67,2.1,2.1,0,0,0,.27.61,1.72,1.72,0,0,0,.42.43.9.9,0,0,0,.55.17,1.1,1.1,0,0,0,.57-.15,1.38,1.38,0,0,0,.44-.39,2,2,0,0,0,.37-1.12,2.21,2.21,0,0,0-.37-1.46A1.19,1.19,0,0,0,60.34,78.92Z" transform="translate(-24.03 -74.87)"/><path class="cls-1" d="M63.17,78.13l.66.16c-.07.4-.13.78-.17,1.15a9.43,9.43,0,0,0-.06,1,4.9,4.9,0,0,0,0,.8,1.89,1.89,0,0,0,.18.61,1,1,0,0,0,.35.39,1,1,0,0,0,.54.13.85.85,0,0,0,.43-.12,1.21,1.21,0,0,0,.37-.4,2.4,2.4,0,0,0,.28-.75A6.56,6.56,0,0,0,65.94,80l0-1.67.65,0V83l-.58.07,0-.89a1.36,1.36,0,0,1-.55.81,1.59,1.59,0,0,1-.92.28,1.4,1.4,0,0,1-.75-.2,1.58,1.58,0,0,1-.53-.53,2.92,2.92,0,0,1-.3-.82,5,5,0,0,1-.1-1.06A9.83,9.83,0,0,1,63,79.49C63,79.07,63.08,78.62,63.17,78.13Z" transform="translate(-24.03 -74.87)"/><path class="cls-1" d="M68.12,83.3l-.4-5.15.73-.1.16,2.28,2.51-1.69.33.66-2.72,2v2Z" transform="translate(-24.03 -74.87)"/><path class="cls-1" d="M75.17,79.23H72.9V83l-.59.07V78l.57-.12v.59l2.72-.17L76,79l.35,3.82-.75.21Z" transform="translate(-24.03 -74.87)"/><path class="cls-1" d="M76.93,80.63a2.64,2.64,0,0,1,.19-1.08,1.91,1.91,0,0,1,.47-.7,1.63,1.63,0,0,1,.64-.38,2.41,2.41,0,0,1,.68-.11,2.53,2.53,0,0,1,.85.13,1.41,1.41,0,0,1,.63.45,2.15,2.15,0,0,1,.41.83A5,5,0,0,1,80.94,81l-3.26.32a1.28,1.28,0,0,0,.18.55,1.09,1.09,0,0,0,.37.37,1.44,1.44,0,0,0,.48.2,2.33,2.33,0,0,0,.53.06,2.76,2.76,0,0,0,.86-.13,1.52,1.52,0,0,0,.6-.31l.22.56a1.14,1.14,0,0,1-.25.23,1.79,1.79,0,0,1-.39.21,3,3,0,0,1-.5.14,3.43,3.43,0,0,1-.56,0,2.56,2.56,0,0,1-.82-.13,1.85,1.85,0,0,1-.74-.43,2.12,2.12,0,0,1-.53-.82A3.56,3.56,0,0,1,76.93,80.63Zm.68,0,2.58-.28a1.3,1.3,0,0,0-.31-.92,1.21,1.21,0,0,0-1-.35,1.26,1.26,0,0,0-.57.14,1.41,1.41,0,0,0-.4.32,1.48,1.48,0,0,0-.25.44,1.75,1.75,0,0,0-.08.51A.53.53,0,0,0,77.61,80.66Z" transform="translate(-24.03 -74.87)"/><path class="cls-1" d="M83.47,82.32l-2-3.54.63-.49,1.73,3.1L84.92,78l.66.35-2.3,6.75-.63-.4Z" transform="translate(-24.03 -74.87)"/><path class="cls-1" d="M89.47,78.57l-.16.7-.26-.1-.35-.1L88.29,79l-.4,0a1.59,1.59,0,0,0-.61.1.39.39,0,0,0-.25.38.4.4,0,0,0,.21.34,2.59,2.59,0,0,0,.5.24,3.83,3.83,0,0,0,.58.16l.45.09a1.69,1.69,0,0,1,.57.28,1.64,1.64,0,0,1,.34.36,1.55,1.55,0,0,1,.17.4,2,2,0,0,1,0,.41,1.21,1.21,0,0,1-.19.71,1.57,1.57,0,0,1-.49.47,2.48,2.48,0,0,1-.67.27,3.71,3.71,0,0,1-.73.08,3.81,3.81,0,0,1-1.08-.15,2.3,2.3,0,0,1-.8-.41l.28-.8a2.22,2.22,0,0,0,.34.22,4.08,4.08,0,0,0,.42.17,3.66,3.66,0,0,0,.5.12,2.89,2.89,0,0,0,.5,0,1.8,1.8,0,0,0,.75-.16.76.76,0,0,0,.4-.58,1.41,1.41,0,0,0,0-.18.65.65,0,0,0-.08-.22.75.75,0,0,0-.2-.2,1.05,1.05,0,0,0-.38-.13,5.6,5.6,0,0,1-.89-.18,2.76,2.76,0,0,1-.69-.3,1.48,1.48,0,0,1-.47-.42,1.08,1.08,0,0,1-.17-.6,1,1,0,0,1,.44-.94,2.24,2.24,0,0,1,1.28-.3,3.55,3.55,0,0,1,.86.1A2.74,2.74,0,0,1,89.47,78.57Z" transform="translate(-24.03 -74.87)"/><path class="cls-1" d="M96.33,81.5l-.45-2a3.48,3.48,0,0,1-.23.66,2.74,2.74,0,0,1-.41.67,2.46,2.46,0,0,1-.6.51,1.68,1.68,0,0,1-.81.2,1.52,1.52,0,0,1-1.21-.49,2,2,0,0,1-.44-1.4,3.67,3.67,0,0,1,.16-1.08,3.5,3.5,0,0,1,.48-1,2.51,2.51,0,0,1,.79-.73,2.07,2.07,0,0,1,1.06-.28,1.19,1.19,0,0,1,.64.16,1.47,1.47,0,0,1,.46.39,1.66,1.66,0,0,1,.3.49,2.32,2.32,0,0,1,.16.49l.71,2.9a.79.79,0,0,0,.33-.26,1.93,1.93,0,0,0,.27-.47,3,3,0,0,0,.17-.59,3.71,3.71,0,0,0,.06-.67,5.25,5.25,0,0,0-.07-.91A2.8,2.8,0,0,0,97,76.57a4.18,4.18,0,0,0-.8-.65,3.55,3.55,0,0,0-.65-.21,4.13,4.13,0,0,0-.78-.08,3.71,3.71,0,0,0-1.15.17,3.22,3.22,0,0,0-.9.48A3.32,3.32,0,0,0,92,77a4,4,0,0,0-.47.79,4.37,4.37,0,0,0-.27.82,4.17,4.17,0,0,0-.08.75,3.65,3.65,0,0,0,.29,1.52A3.13,3.13,0,0,0,92.32,82a3.56,3.56,0,0,0,1.22.69,5,5,0,0,0,1.53.23,5.43,5.43,0,0,0,.57,0l.57-.07.07.7-.36,0h-.38a9.67,9.67,0,0,1-1.88-.19,4.31,4.31,0,0,1-1.61-.68,3.49,3.49,0,0,1-1.11-1.31,4.47,4.47,0,0,1-.43-2.09A4.85,4.85,0,0,1,90.67,78a4.07,4.07,0,0,1,.5-1.18,4.17,4.17,0,0,1,.92-1,4.78,4.78,0,0,1,1.4-.76c.2-.06.39-.1.59-.14a4.08,4.08,0,0,1,.61,0,3.73,3.73,0,0,1,1.66.35,3.6,3.6,0,0,1,1.17.93,4.28,4.28,0,0,1,.69,1.28,4.62,4.62,0,0,1,.23,1.41,5,5,0,0,1-.11,1,4.57,4.57,0,0,1-.31,1,2.49,2.49,0,0,1-.52.76,1,1,0,0,1-.74.32.45.45,0,0,1-.28-.09A.43.43,0,0,1,96.33,81.5Zm-1.52-4a1.06,1.06,0,0,0-.29,0,1,1,0,0,0-.64.23,2.1,2.1,0,0,0-.48.58,3.27,3.27,0,0,0-.3.75,2.75,2.75,0,0,0-.1.71,1.16,1.16,0,0,0,.23.77.76.76,0,0,0,.63.29.85.85,0,0,0,.58-.23,1.79,1.79,0,0,0,.43-.57,3.31,3.31,0,0,0,.38-1.46,1.71,1.71,0,0,0-.11-.62A.73.73,0,0,0,94.81,77.52Z" transform="translate(-24.03 -74.87)"/><path class="cls-1" d="M102.68,85.25H99.07v-.91h3.19l.49-.43,0-2.08a1.91,1.91,0,0,1-.84.65,2.86,2.86,0,0,1-1.1.23,1.67,1.67,0,0,1-1.21-.47,1.81,1.81,0,0,1-.47-1.35,2.14,2.14,0,0,1,.24-1,2.49,2.49,0,0,1,.64-.8,3.15,3.15,0,0,1,.89-.52,3.07,3.07,0,0,1,1-.19,1.83,1.83,0,0,1,1,.28,1.32,1.32,0,0,1,.61.87v4.83Zm-2.79-4a.8.8,0,0,0,.31.52,1,1,0,0,0,.53.15,1.78,1.78,0,0,0,.68-.15,2.69,2.69,0,0,0,.66-.41,2.36,2.36,0,0,0,.51-.58,1.31,1.31,0,0,0,.2-.68,1,1,0,0,0-.26-.7.87.87,0,0,0-.66-.28,1.92,1.92,0,0,0-.67.16,2.67,2.67,0,0,0-.65.39,2.1,2.1,0,0,0-.5.57,1.32,1.32,0,0,0-.2.7A1,1,0,0,0,99.89,81.24Z" transform="translate(-24.03 -74.87)"/><path class="cls-1" d="M104.35,78.13l.73-.17.06.52h4.3l.54.61v3.65l-.49.07V79.72l-.47-.63h-1.2v3.82h-.68V79.18h-1.92l.4,3.84-.75.1Z" transform="translate(-24.03 -74.87)"/><path class="cls-1" d="M115.18,79.58l.75,3.19-.7.25-.42-2a3.37,3.37,0,0,1-.26.68,2.53,2.53,0,0,1-.42.64,2.08,2.08,0,0,1-.59.47,1.72,1.72,0,0,1-.78.18,1.43,1.43,0,0,1-1.18-.5,2.11,2.11,0,0,1-.41-1.37,3.57,3.57,0,0,1,.16-1,3.2,3.2,0,0,1,.45-1,2.59,2.59,0,0,1,.77-.74,2,2,0,0,1,1.08-.3,1.29,1.29,0,0,1,.64.16,1.66,1.66,0,0,1,.47.4,2,2,0,0,1,.29.49A3.2,3.2,0,0,1,115.18,79.58Zm-1.43-.68-.16,0h-.15a1,1,0,0,0-.65.22,1.7,1.7,0,0,0-.49.54,3.29,3.29,0,0,0-.29.72,3.19,3.19,0,0,0-.1.71,1.52,1.52,0,0,0,.22.84.81.81,0,0,0,.71.31,1,1,0,0,0,.61-.22,2.11,2.11,0,0,0,.48-.54,3.33,3.33,0,0,0,.31-.72,2.88,2.88,0,0,0,.11-.73,1.47,1.47,0,0,0-.15-.67A.79.79,0,0,0,113.75,78.9Z" transform="translate(-24.03 -74.87)"/><path class="cls-1" d="M118.18,77.82l-.82.23-.75-1.78.82-.21Zm-1.08,5.25V78.78h.82v4.34Z" transform="translate(-24.03 -74.87)"/><path class="cls-1" d="M119.05,82.41V75.34l.77,0v6.82l.78.19-.07.84-1.29-.26Z" transform="translate(-24.03 -74.87)"/><path class="cls-1" d="M122.87,81.9l-.63.87-1-1,.66-.8Z" transform="translate(-24.03 -74.87)"/><path class="cls-1" d="M127.72,78.76l-.21.75a2.1,2.1,0,0,0-.73-.45,2.06,2.06,0,0,0-.76-.15,1.73,1.73,0,0,0-.6.11,1.43,1.43,0,0,0-.5.34,1.5,1.5,0,0,0-.33.55,2,2,0,0,0-.13.75,2.3,2.3,0,0,0,.14.84,1.46,1.46,0,0,0,.36.55,1.36,1.36,0,0,0,.5.31,2,2,0,0,0,.6.09,2,2,0,0,0,.53-.11,1.58,1.58,0,0,0,.47-.28,1.54,1.54,0,0,0,.36-.44,1.41,1.41,0,0,0,.16-.57l.66.33a1.89,1.89,0,0,1-.71,1.41,2,2,0,0,1-.69.35,2.67,2.67,0,0,1-.8.12,2.33,2.33,0,0,1-.85-.16,2.26,2.26,0,0,1-.75-.47,2.33,2.33,0,0,1-.53-.81,3,3,0,0,1-.2-1.14,2.93,2.93,0,0,1,.17-1,2.49,2.49,0,0,1,.45-.8,2.1,2.1,0,0,1,.7-.52,2,2,0,0,1,.89-.19,2.73,2.73,0,0,1,.86.15A3.81,3.81,0,0,1,127.72,78.76Z" transform="translate(-24.03 -74.87)"/><path class="cls-1" d="M130.79,78.13a2.2,2.2,0,0,1,1,.21,1.87,1.87,0,0,1,.67.58,2.52,2.52,0,0,1,.37.85,4.44,4.44,0,0,1,.12,1,3.53,3.53,0,0,1-.21,1.1,2.39,2.39,0,0,1-.47.76,1.77,1.77,0,0,1-.66.45,2.07,2.07,0,0,1-.77.15,1.92,1.92,0,0,1-.92-.21,2,2,0,0,1-.66-.57,2.72,2.72,0,0,1-.4-.82,3.46,3.46,0,0,1-.13-1,3.35,3.35,0,0,1,.15-1,2.34,2.34,0,0,1,.41-.82,1.79,1.79,0,0,1,1.5-.73Zm.07.79a1.28,1.28,0,0,0-1,.4,1.83,1.83,0,0,0-.37,1.28,2.57,2.57,0,0,0,.09.67,2.1,2.1,0,0,0,.27.61,1.72,1.72,0,0,0,.42.43.92.92,0,0,0,.55.17,1.11,1.11,0,0,0,.58-.15,1.34,1.34,0,0,0,.43-.39,2,2,0,0,0,.28-.54,2,2,0,0,0,.1-.58,2.27,2.27,0,0,0-.37-1.46A1.22,1.22,0,0,0,130.86,78.92Z" transform="translate(-24.03 -74.87)"/><path class="cls-1" d="M133.53,78.13l.73-.17.06.52h4.3l.54.61v3.65l-.49.07V79.72l-.47-.63H137v3.82h-.68V79.18H134.4l.4,3.84-.75.1Z" transform="translate(-24.03 -74.87)"/></svg>