<svg id="레이어_1" data-name="레이어 1" xmlns="http://www.w3.org/2000/svg" xmlns:xlink="http://www.w3.org/1999/xlink" viewBox="0 0 40 41.4"><defs><style>.cls-1{fill:#878787;}.cls-2{fill:#f2f3f4;}.cls-3{fill:#dbdbdb;}</style></defs><title>emailButton</title><rect class="cls-1" y="1.4" width="40" height="40" rx="8.21"/><rect class="cls-2" x="1" width="38" height="40" rx="8"/><path class="cls-3" d="M81.55,110.45A8.42,8.42,0,0,0,85,115.89a8.28,8.28,0,0,0,4.56,1.37c6.88,0,13.76-.15,20.63,0,4.79.13,8.24-2.27,9.23-6.84a6.88,6.88,0,0,1-.35,3.42,9.49,9.49,0,0,1-3,3.76c-.48.33-1.1.39-1.51.83a3.94,3.94,0,0,1-2,.39H88.44a3.94,3.94,0,0,1-2-.39,9.32,9.32,0,0,1-3.72-3.07c-.33-.49-.39-1.11-.82-1.52A6.88,6.88,0,0,1,81.55,110.45Z" transform="translate(-80.5 -78.65)"/><image width="3000" height="2288" transform="translate(5.5 8.35) scale(0.01)" xlink:href="../../../../../../../../../Downloads/Gmail-logo-design-on-transparent-background-PNG.png"/></svg>