<svg id="레이어_1" data-name="레이어 1" xmlns="http://www.w3.org/2000/svg" viewBox="0 0 175 79.72"><defs><style>.cls-1{fill:#85b3d1;}.cls-2{fill:#606060;}</style></defs><title>etc_bubble</title><rect class="cls-1" width="175" height="70" rx="3.59"/><path class="cls-2" d="M24.17,41.29l-.22.47a.41.41,0,0,0-.15-.11,1.28,1.28,0,0,0-.26-.1l-.33-.09-.35,0a1.66,1.66,0,0,0-.32,0,.85.85,0,0,0-.27.12.55.55,0,0,0-.19.21.76.76,0,0,0-.06.32.8.8,0,0,0,.19.5,1.19,1.19,0,0,0,.59.38,3.74,3.74,0,0,1,.81.43,1.66,1.66,0,0,1,.43.46,1.2,1.2,0,0,1,.19.44,3.15,3.15,0,0,1,0,.41,1.36,1.36,0,0,1-.42,1,1.63,1.63,0,0,1-1.15.36A4.39,4.39,0,0,1,22,46c-.25-.05-.51-.12-.81-.21l.18-.55a4,4,0,0,0,.6.18,3.53,3.53,0,0,0,.72.08,1.7,1.7,0,0,0,.4,0,.82.82,0,0,0,.33-.13.69.69,0,0,0,.22-.23.72.72,0,0,0,.08-.37,1,1,0,0,0-.17-.6,1.4,1.4,0,0,0-.42-.38,3.36,3.36,0,0,0-.54-.26,3,3,0,0,1-.53-.29,1.24,1.24,0,0,1-.41-.41,1.2,1.2,0,0,1-.17-.66,1.53,1.53,0,0,1,.1-.57.94.94,0,0,1,.29-.38,1,1,0,0,1,.43-.21,1.79,1.79,0,0,1,.53-.07,2.52,2.52,0,0,1,.73.1A2.05,2.05,0,0,1,24.17,41.29Z" transform="translate(-13 -27)"/><path class="cls-2" d="M28.13,46l-.47-.52a1.94,1.94,0,0,1-.52.44,1.43,1.43,0,0,1-1.37,0,1.54,1.54,0,0,1-.56-.52,2.51,2.51,0,0,1-.35-.81,4.33,4.33,0,0,1-.13-1.06,3.73,3.73,0,0,1,.12-.94,2.68,2.68,0,0,1,.34-.83,2,2,0,0,1,.56-.59,1.43,1.43,0,0,1,.78-.22,1.45,1.45,0,0,1,.85.25,1.8,1.8,0,0,1,.54.65,2.88,2.88,0,0,1,.29.84,4.59,4.59,0,0,1,.09.87,3.33,3.33,0,0,1-.09.78,3.15,3.15,0,0,1-.26.71l.53.59Zm-.82-.91-.89-1,.39-.35.78.86a3.39,3.39,0,0,0,.13-.55,3.5,3.5,0,0,0,.05-.54,4.12,4.12,0,0,0-.08-.81,2.15,2.15,0,0,0-.24-.66,1.19,1.19,0,0,0-.39-.44.89.89,0,0,0-.54-.17,1,1,0,0,0-.53.16,1.38,1.38,0,0,0-.4.43,2.31,2.31,0,0,0-.26.62,2.84,2.84,0,0,0-.09.72,5,5,0,0,0,.06.77,2.51,2.51,0,0,0,.19.69,1.3,1.3,0,0,0,.37.49.94.94,0,0,0,.59.18,1,1,0,0,0,.49-.11A1.2,1.2,0,0,0,27.31,45.13Z" transform="translate(-13 -27)"/><path class="cls-2" d="M29.16,45.6V41h.54v4.42h2.82V46H29.47Z" transform="translate(-13 -27)"/><path class="cls-2" d="M37.34,44.77V46.3h-.51V44.77H35.16v-.42h3.72v.33Zm.93-3.56v2.41h-.63V42.46h-2.2v-.58h2.25v-.42H35.48v-.62h2.6Zm2.21,4.67h-.39V43.23H38.77v-.5H40V40.55h.46Z" transform="translate(-13 -27)"/><path class="cls-2" d="M41.89,41.57v-.48h2.59L44.64,43l-2.36.27v1.23H45L45,45H42l-.3-.16V42.8l2.42-.23-.07-1Zm4.16,4V40.23h.64v5.34Z" transform="translate(-13 -27)"/><path class="cls-2" d="M51.36,44.29V45.9h-.5V44.29H48.09l0-.44h5.45v.38Zm-1.91,2.86-.34-.27V45.13h.48v1.49l3.55.08v.24a.82.82,0,0,1,0,.14v.07a.07.07,0,0,1,0,.05Zm3-4.19H49.61l-.31-.28V40.34h3.11Zm-2.58-2.12v1.64h2.06V40.91Z" transform="translate(-13 -27)"/><path class="cls-2" d="M60,43.68h-5.5l0-.44H60Zm-4.48.75h3.72v1.72H55.8v.69h3.93v.4H55.55l-.27-.15V45.65h3.45v-.77H55.55Zm.22-3a1.14,1.14,0,0,1,.12-.52,1.06,1.06,0,0,1,.33-.37,1.54,1.54,0,0,1,.48-.24,2.25,2.25,0,0,1,.58-.07,1.85,1.85,0,0,1,.58.09,1.51,1.51,0,0,1,.47.25,1.44,1.44,0,0,1,.32.38,1,1,0,0,1,.12.48,1.11,1.11,0,0,1-.14.56,1.24,1.24,0,0,1-.34.38,1.3,1.3,0,0,1-.48.21,1.88,1.88,0,0,1-.53.07,2.35,2.35,0,0,1-.6-.08,1.57,1.57,0,0,1-.48-.25,1.18,1.18,0,0,1-.32-.38A1.06,1.06,0,0,1,55.77,41.43Zm2.5,0a.56.56,0,0,0-.08-.27.79.79,0,0,0-.21-.24.92.92,0,0,0-.31-.17,1.05,1.05,0,0,0-.4-.07,1.51,1.51,0,0,0-.47.09.8.8,0,0,0-.48.41.59.59,0,0,0,0,.25.59.59,0,0,0,.09.34.63.63,0,0,0,.23.23,1,1,0,0,0,.32.14,1.55,1.55,0,0,0,.37,0,1.1,1.1,0,0,0,.37-.06A1,1,0,0,0,58,42a.71.71,0,0,0,.22-.24A.52.52,0,0,0,58.27,41.43Z" transform="translate(-13 -27)"/><path class="cls-2" d="M65.72,40.82v.5H64.64v.83l1.55,1.58-.31.4-1.5-1.42-1.25,1.58-.4-.41,1.33-1.72v-.84H62.81V40.8Zm2.19,6.53h-.57V45.59H63.5v-.52h4.13l.28.33Zm-.93-7h.54V42h1.21v.53H67.52v2H67Z" transform="translate(-13 -27)"/><path class="cls-2" d="M69.17,44.18l1.31-2.13V40.63l.47,0V42l1.72,1.68-.28.41-1.56-1.52-1.22,1.91Zm2.16,1.94a1,1,0,0,1,.1-.45,1,1,0,0,1,.29-.37,1.51,1.51,0,0,1,.49-.25,2.29,2.29,0,0,1,.68-.09,2.33,2.33,0,0,1,.68.09,1.42,1.42,0,0,1,.49.25,1.17,1.17,0,0,1,.3.37,1.13,1.13,0,0,1,.09.45,1.18,1.18,0,0,1-.09.46,1.17,1.17,0,0,1-.3.37,1.42,1.42,0,0,1-.49.25,2.33,2.33,0,0,1-.68.09,2.29,2.29,0,0,1-.68-.09,1.51,1.51,0,0,1-.49-.25,1,1,0,0,1-.29-.37A1,1,0,0,1,71.33,46.12Zm2.58,0a.58.58,0,0,0-.27-.49,1.26,1.26,0,0,0-.75-.2,1.22,1.22,0,0,0-.75.2.57.57,0,0,0-.26.49.6.6,0,0,0,.26.5,1.22,1.22,0,0,0,.75.2,1.26,1.26,0,0,0,.75-.2A.61.61,0,0,0,73.91,46.12Zm.54-5.72v4.06l-.5,0V42.23H72.08v-.5h1.84V40.41Z" transform="translate(-13 -27)"/><path class="cls-2" d="M76.45,44.62l.64.62-1,1.53-.39-.29.69-1.1L76.09,45Z" transform="translate(-13 -27)"/><path class="cls-2" d="M84.56,43.84H83v1.61h2.44V46H80V45.4h2.51V43.83H81.08l-.24-.26V40.93h3.54v.58h-1.3v1.83h1.48Zm-2-2.38H81.39V43.3h1.13Z" transform="translate(-13 -27)"/><path class="cls-2" d="M86.53,42.88a1.66,1.66,0,0,1,.1-.46.74.74,0,0,1,.26-.38L86,42l.07-.49,1.68.17.09-1.06.52,0L88.3,41.7l1.42.14,0,.5-.78-.07a.9.9,0,0,1,.17.37,2.08,2.08,0,0,1,0,.4,1.54,1.54,0,0,1-.13.49,1.91,1.91,0,0,1-.28.4,1.22,1.22,0,0,1-.38.26,1.07,1.07,0,0,1-.43.09,1.44,1.44,0,0,1-.71-.15,1.26,1.26,0,0,1-.41-.38,1.22,1.22,0,0,1-.19-.46A2.38,2.38,0,0,1,86.53,42.88Zm.5,0s0,0,0,.07a.66.66,0,0,0,.06.27,1,1,0,0,0,.15.26,1.12,1.12,0,0,0,.24.19.72.72,0,0,0,.33.07.74.74,0,0,0,.34-.07.76.76,0,0,0,.25-.18.72.72,0,0,0,.15-.27.81.81,0,0,0,0-.31.75.75,0,0,0-.21-.56.81.81,0,0,0-.58-.21.72.72,0,0,0-.53.21A.82.82,0,0,0,87,42.88Zm1,4.19V45.15h.55v1.64H91.3v.48h-3Zm2.35-6.3.53.07v1.81h1.25v.53H90.94v2.23l-.56,0Z" transform="translate(-13 -27)"/><path class="cls-2" d="M97.56,41.29l-.22.47a.45.45,0,0,0-.14-.11,1.39,1.39,0,0,0-.27-.1l-.33-.09-.35,0a1.66,1.66,0,0,0-.32,0,.85.85,0,0,0-.27.12.55.55,0,0,0-.19.21.76.76,0,0,0-.06.32.8.8,0,0,0,.19.5,1.24,1.24,0,0,0,.59.38,3.74,3.74,0,0,1,.81.43,1.66,1.66,0,0,1,.43.46,1.2,1.2,0,0,1,.19.44,3.15,3.15,0,0,1,0,.41,1.36,1.36,0,0,1-.42,1,1.63,1.63,0,0,1-1.15.36A4.39,4.39,0,0,1,95.4,46q-.36-.08-.81-.21l.18-.55a4,4,0,0,0,.6.18,3.53,3.53,0,0,0,.72.08,1.7,1.7,0,0,0,.4,0,.82.82,0,0,0,.33-.13.69.69,0,0,0,.22-.23.72.72,0,0,0,.09-.37,1.07,1.07,0,0,0-.18-.6,1.4,1.4,0,0,0-.42-.38,3.36,3.36,0,0,0-.54-.26,3,3,0,0,1-.53-.29,1.24,1.24,0,0,1-.41-.41,1.2,1.2,0,0,1-.17-.66,1.53,1.53,0,0,1,.1-.57.94.94,0,0,1,.29-.38A1.08,1.08,0,0,1,95.7,41a1.79,1.79,0,0,1,.53-.07A2.52,2.52,0,0,1,97,41,1.84,1.84,0,0,1,97.56,41.29Z" transform="translate(-13 -27)"/><path class="cls-2" d="M98.13,44.4a1.87,1.87,0,0,1,.12-.72,1.18,1.18,0,0,1,.32-.47A1.07,1.07,0,0,1,99,43a1.54,1.54,0,0,1,.46-.08A1.69,1.69,0,0,1,100,43a1,1,0,0,1,.42.3,1.35,1.35,0,0,1,.27.55,2.93,2.93,0,0,1,.1.84l-2.17.22a.77.77,0,0,0,.12.37.69.69,0,0,0,.24.24,1.3,1.3,0,0,0,.32.14,2.07,2.07,0,0,0,.35,0,1.79,1.79,0,0,0,.57-.08,1.11,1.11,0,0,0,.41-.21l.14.37a.6.6,0,0,1-.16.16,1.59,1.59,0,0,1-.26.14,2.62,2.62,0,0,1-.33.09,2.34,2.34,0,0,1-.38,0,1.75,1.75,0,0,1-.55-.08,1.36,1.36,0,0,1-.49-.29,1.49,1.49,0,0,1-.35-.54A2.34,2.34,0,0,1,98.13,44.4Zm.45,0,1.72-.18a.9.9,0,0,0-.21-.62.83.83,0,0,0-.65-.23.89.89,0,0,0-.38.1.82.82,0,0,0-.27.21.92.92,0,0,0-.16.29,1,1,0,0,0-.06.34A.22.22,0,0,0,98.58,44.41Z" transform="translate(-13 -27)"/><path class="cls-2" d="M101.19,44.16a1.53,1.53,0,0,1,.44-1.11,1.6,1.6,0,0,1,1.11-.37,2.56,2.56,0,0,1,.47,0,3.72,3.72,0,0,1,.51.12l.23.37v4.25l-.67-.05.06-1.75a.87.87,0,0,1-.32.15,1.64,1.64,0,0,1-.46.07,1.72,1.72,0,0,1-.48-.08,1.14,1.14,0,0,1-.44-.25,1.21,1.21,0,0,1-.33-.48,1.7,1.7,0,0,1-.13-.73v-.08A.31.31,0,0,0,101.19,44.16Zm2.2.82,0-1.63a1,1,0,0,0-.3-.14,1.26,1.26,0,0,0-.33-.05,1.29,1.29,0,0,0-.4.07.9.9,0,0,0-.34.2.92.92,0,0,0-.24.31,1,1,0,0,0-.09.44,1.71,1.71,0,0,0,.08.56,1,1,0,0,0,.22.35.58.58,0,0,0,.3.18,1.27,1.27,0,0,0,.34,0,1.12,1.12,0,0,0,.27,0,1,1,0,0,0,.23-.08.57.57,0,0,0,.17-.12A.17.17,0,0,0,103.39,45Z" transform="translate(-13 -27)"/><path class="cls-2" d="M104.61,42.73l.44.11c0,.26-.09.52-.12.76s0,.48,0,.69a2.86,2.86,0,0,0,0,.53,1.23,1.23,0,0,0,.12.41.58.58,0,0,0,.23.26.66.66,0,0,0,.36.09.63.63,0,0,0,.29-.08.94.94,0,0,0,.25-.27,2,2,0,0,0,.18-.5,3.88,3.88,0,0,0,.09-.77l0-1.11.44,0V46l-.39,0v-.6a1,1,0,0,1-.37.55,1.08,1.08,0,0,1-.62.18A.91.91,0,0,1,105,46a1,1,0,0,1-.35-.35,1.7,1.7,0,0,1-.2-.55,3.77,3.77,0,0,1-.07-.7,7.25,7.25,0,0,1,0-.77C104.5,43.36,104.55,43.05,104.61,42.73Z" transform="translate(-13 -27)"/><path class="cls-2" d="M107.52,44.4a1.87,1.87,0,0,1,.12-.72,1.18,1.18,0,0,1,.32-.47,1.07,1.07,0,0,1,.42-.25,1.54,1.54,0,0,1,.46-.08,1.69,1.69,0,0,1,.56.09.91.91,0,0,1,.42.3,1.35,1.35,0,0,1,.27.55,2.93,2.93,0,0,1,.1.84l-2.17.22a.77.77,0,0,0,.12.37.69.69,0,0,0,.24.24,1.3,1.3,0,0,0,.32.14,2.07,2.07,0,0,0,.35,0,1.89,1.89,0,0,0,.58-.08,1.14,1.14,0,0,0,.4-.21l.14.37a.6.6,0,0,1-.16.16,1.59,1.59,0,0,1-.26.14,2.62,2.62,0,0,1-.33.09,2.34,2.34,0,0,1-.38,0,1.75,1.75,0,0,1-.55-.08,1.44,1.44,0,0,1-.49-.29,1.49,1.49,0,0,1-.35-.54A2.34,2.34,0,0,1,107.52,44.4Zm.45,0,1.72-.18a.9.9,0,0,0-.21-.62.83.83,0,0,0-.65-.23.89.89,0,0,0-.38.1.82.82,0,0,0-.27.21A.92.92,0,0,0,108,44a1,1,0,0,0-.06.34A.22.22,0,0,0,108,44.41Z" transform="translate(-13 -27)"/><path class="cls-2" d="M110.75,45.59V40.87l.52,0v4.54l.51.13,0,.56-.85-.17Z" transform="translate(-13 -27)"/><path class="cls-2" d="M113.2,42.52l-.54.16-.5-1.19.54-.14Zm-.72,3.5V43.16H113v2.89Z" transform="translate(-13 -27)"/><path class="cls-2" d="M114.36,45.55h2l0,.54H114l-.29-.44,1.86-2.41h-1.63v-.42h2.2l.14.36Z" transform="translate(-13 -27)"/><path class="cls-2" d="M116.86,44.4a1.87,1.87,0,0,1,.12-.72,1.3,1.3,0,0,1,.32-.47,1.1,1.1,0,0,1,.43-.25,1.42,1.42,0,0,1,.45-.08,1.6,1.6,0,0,1,.56.09,1,1,0,0,1,.43.3,1.35,1.35,0,0,1,.27.55,3.37,3.37,0,0,1,.09.84l-2.17.22a1.07,1.07,0,0,0,.12.37.82.82,0,0,0,.25.24,1.15,1.15,0,0,0,.32.14,2,2,0,0,0,.35,0,1.79,1.79,0,0,0,.57-.08,1.2,1.2,0,0,0,.41-.21l.14.37a.88.88,0,0,1-.17.16,1.26,1.26,0,0,1-.26.14,2.22,2.22,0,0,1-.33.09,2.34,2.34,0,0,1-.38,0,1.68,1.68,0,0,1-.54-.08,1.4,1.4,0,0,1-.5-.29,1.63,1.63,0,0,1-.35-.54A2.34,2.34,0,0,1,116.86,44.4Zm.45,0,1.72-.18a.94.94,0,0,0-.2-.62.87.87,0,0,0-.66-.23.93.93,0,0,0-.38.1,1.09,1.09,0,0,0-.27.21,1.18,1.18,0,0,0-.16.29,1,1,0,0,0-.06.34S117.31,44.39,117.31,44.41Z" transform="translate(-13 -27)"/><path class="cls-2" d="M125.73,43.84h-5.5l0-.44h5.45Zm-4.48.73H125V46.3H121.5V47h3.94v.41h-4.19l-.27-.16V45.8h3.46V45h-3.19Zm.22-4.73h3.16v1.67h-3v.73h3.3v.46h-3.46l-.37-.29V41.05h3v-.73h-2.65Z" transform="translate(-13 -27)"/><path class="cls-2" d="M133.19,42.77v.52h-1.42v.83h2.43v.54h-5.47v-.59h2.52v-.82H130.2l-.29-.35V40.46h3v.41h-2.47v.68h2.5V42h-2.5v.7ZM130,46.2a1.13,1.13,0,0,1,.09-.45,1.17,1.17,0,0,1,.3-.37,1.42,1.42,0,0,1,.49-.25,2.29,2.29,0,0,1,.68-.09,2.26,2.26,0,0,1,.67.09,1.47,1.47,0,0,1,.5.25,1,1,0,0,1,.29.37,1,1,0,0,1,.1.45,1,1,0,0,1-.1.46,1,1,0,0,1-.29.37,1.67,1.67,0,0,1-.5.25,2.26,2.26,0,0,1-.67.09,2.29,2.29,0,0,1-.68-.09,1.61,1.61,0,0,1-.49-.25,1.17,1.17,0,0,1-.3-.37A1.18,1.18,0,0,1,130,46.2Zm2.57,0a.58.58,0,0,0-.27-.49,1.16,1.16,0,0,0-.74-.2,1.21,1.21,0,0,0-.76.2.59.59,0,0,0-.26.49.64.64,0,0,0,.26.5,1.27,1.27,0,0,0,.76.2,1.23,1.23,0,0,0,.74-.2A.62.62,0,0,0,132.59,46.2Z" transform="translate(-13 -27)"/><path class="cls-2" d="M138.25,42.38l0,.49-3.39-.25v-.5l1.42.09V40.87h.53v1.4Zm-.61,2.38a1.42,1.42,0,0,1-.4.87,1.06,1.06,0,0,1-.79.32,1.08,1.08,0,0,1-.56-.13,1,1,0,0,1-.38-.33,1.38,1.38,0,0,1-.21-.44,2,2,0,0,1-.07-.47,1.48,1.48,0,0,1,.07-.44,1.69,1.69,0,0,1,.2-.46,1.27,1.27,0,0,1,.37-.36,1,1,0,0,1,.58-.15,1.15,1.15,0,0,1,.89.37,1.44,1.44,0,0,1,.32,1,.62.62,0,0,1,0,.13A.57.57,0,0,1,137.64,44.76Zm-1.89-.33a.3.3,0,0,0,0,.1v.1a.85.85,0,0,0,.06.31.82.82,0,0,0,.14.26.91.91,0,0,0,.21.18.73.73,0,0,0,.3.07.65.65,0,0,0,.26-.06.54.54,0,0,0,.24-.16.85.85,0,0,0,.18-.3,1.42,1.42,0,0,0,.07-.45,1,1,0,0,0-.17-.57.65.65,0,0,0-.54-.23.61.61,0,0,0-.5.2A1.21,1.21,0,0,0,135.75,44.43Zm4.59-3h.54v5.2h-.54V44.15h-.86v2.39h-.59V41.41h.59V43.6h.86Z" transform="translate(-13 -27)"/><path class="cls-2" d="M21.94,51.56v4h-.61V50.69l.75-.11,1.2,3.12,1.41-3,.59,0,.38,5h-.53l-.29-4.11-1.42,2.91-.34-.05Z" transform="translate(-13 -27)"/><path class="cls-2" d="M27.36,55.12,26,52.76l.42-.32,1.15,2.07.76-2.25.44.24L27.23,57l-.42-.27Z" transform="translate(-13 -27)"/><path class="cls-2" d="M32.05,50.89l-.22.47a.73.73,0,0,0-.15-.11,1.28,1.28,0,0,0-.26-.1l-.33-.09a2.19,2.19,0,0,0-.36,0,1.66,1.66,0,0,0-.32,0,1.11,1.11,0,0,0-.27.12.46.46,0,0,0-.18.21.63.63,0,0,0-.07.32.8.8,0,0,0,.19.5,1.29,1.29,0,0,0,.59.38,3.32,3.32,0,0,1,.81.43,1.85,1.85,0,0,1,.44.45,1.29,1.29,0,0,1,.18.45,2,2,0,0,1,0,.41,1.34,1.34,0,0,1-.41,1,1.66,1.66,0,0,1-1.16.36,4.18,4.18,0,0,1-.68-.06,8.13,8.13,0,0,1-.81-.21l.17-.55a3.81,3.81,0,0,0,.61.18,3.53,3.53,0,0,0,.72.08,1.75,1.75,0,0,0,.4,0A.83.83,0,0,0,31.3,55a.66.66,0,0,0,.23-.24.77.77,0,0,0,.08-.36,1,1,0,0,0-.18-.6,1.35,1.35,0,0,0-.41-.38,3.36,3.36,0,0,0-.54-.26,3.09,3.09,0,0,1-.54-.29,1.46,1.46,0,0,1-.41-.41,1.2,1.2,0,0,1-.16-.66,1.35,1.35,0,0,1,.1-.57.92.92,0,0,1,.28-.38,1.15,1.15,0,0,1,.43-.21,1.9,1.9,0,0,1,.54-.07,2.57,2.57,0,0,1,.73.1A2.05,2.05,0,0,1,32.05,50.89Z" transform="translate(-13 -27)"/><path class="cls-2" d="M36,55.64l-.47-.52a1.76,1.76,0,0,1-.51.44,1.45,1.45,0,0,1-1.38,0,1.51,1.51,0,0,1-.55-.52,2.52,2.52,0,0,1-.36-.81,4.35,4.35,0,0,1-.12-1.06,4.24,4.24,0,0,1,.11-.94,3,3,0,0,1,.34-.83,1.89,1.89,0,0,1,.57-.59,1.35,1.35,0,0,1,.78-.22,1.4,1.4,0,0,1,.84.25,1.93,1.93,0,0,1,.55.65,3.21,3.21,0,0,1,.29.84,5.52,5.52,0,0,1,.08.87,3.33,3.33,0,0,1-.09.78,3.13,3.13,0,0,1-.25.71l.53.59Zm-.81-.91-.89-1,.39-.35.77.86a3.17,3.17,0,0,0,.18-1.09,4.12,4.12,0,0,0-.08-.81,2.44,2.44,0,0,0-.23-.66,1.4,1.4,0,0,0-.39-.44.94.94,0,0,0-.54-.17,1,1,0,0,0-.54.16,1.38,1.38,0,0,0-.4.43,2.3,2.3,0,0,0-.25.62,2.84,2.84,0,0,0-.09.72,6.64,6.64,0,0,0,.05.77,2.7,2.7,0,0,0,.19.68,1.36,1.36,0,0,0,.37.5,1,1,0,0,0,.6.18,1,1,0,0,0,.48-.11A1.24,1.24,0,0,0,35.19,54.73Z" transform="translate(-13 -27)"/><path class="cls-2" d="M37,55.2V50.59h.55V55h2.81v.57h-3Z" transform="translate(-13 -27)"/><path class="cls-2" d="M40.83,52.64a2.49,2.49,0,0,1,.07-.59,1.86,1.86,0,0,1,.24-.56,1.41,1.41,0,0,1,.43-.41,1.21,1.21,0,0,1,.65-.16,1.25,1.25,0,0,1,.53.12,1.35,1.35,0,0,1,.4.3,1.73,1.73,0,0,1,.27.43,2.13,2.13,0,0,1,.15.49h1.06V50.5h.51V55l-.48,0V52.78h-1a2.36,2.36,0,0,1-.11.61,1.56,1.56,0,0,1-.27.51,1.31,1.31,0,0,1-.42.35,1.25,1.25,0,0,1-.59.13,1.17,1.17,0,0,1-.64-.16,1.47,1.47,0,0,1-.44-.42,1.7,1.7,0,0,1-.24-.55A2.58,2.58,0,0,1,40.83,52.64Zm.51,0a1.48,1.48,0,0,0,.08.49,1.35,1.35,0,0,0,.19.38.91.91,0,0,0,.27.25.81.81,0,0,0,.34.08.73.73,0,0,0,.62-.32,1.38,1.38,0,0,0,.25-.88A1.65,1.65,0,0,0,43,52.2a1,1,0,0,0-.16-.39.79.79,0,0,0-.68-.39.67.67,0,0,0-.38.1.81.81,0,0,0-.26.26,1.14,1.14,0,0,0-.16.39A1.73,1.73,0,0,0,41.34,52.64ZM46,55.23v-4.9h.54v4.86Z" transform="translate(-13 -27)"/><path class="cls-2" d="M52.41,53.89v.51H49.67l-.23-.29V50.92h2.62v.58H50v2.34Zm-1-1.67h1.75V50.47h.54V54.4h-.51V52.72H51.44Zm3-1.82H55v4.36h-.53Z" transform="translate(-13 -27)"/><path class="cls-2" d="M56,52.45a3.19,3.19,0,0,1,.06-.59,2,2,0,0,1,.23-.59,1.42,1.42,0,0,1,.43-.45,1.25,1.25,0,0,1,.7-.18,1.2,1.2,0,0,1,.67.18,1.45,1.45,0,0,1,.44.45,2,2,0,0,1,.24.59,2.55,2.55,0,0,1,.07.59,2.66,2.66,0,0,1-.07.61,2,2,0,0,1-.24.58,1.42,1.42,0,0,1-.44.44,1.28,1.28,0,0,1-.67.17,1.26,1.26,0,0,1-.67-.17,1.45,1.45,0,0,1-.45-.44,1.72,1.72,0,0,1-.23-.58A2.66,2.66,0,0,1,56,52.45Zm.51,0a2.12,2.12,0,0,0,0,.42,1.39,1.39,0,0,0,.14.42,1,1,0,0,0,.28.33.71.71,0,0,0,.45.13.72.72,0,0,0,.44-.13,1,1,0,0,0,.28-.33,1.16,1.16,0,0,0,.14-.42,2.22,2.22,0,0,0,0-.84,1.88,1.88,0,0,0-.14-.42,1,1,0,0,0-.28-.33.79.79,0,0,0-.44-.13.81.81,0,0,0-.46.13,1,1,0,0,0-.28.33,1.47,1.47,0,0,0-.13.42A2.12,2.12,0,0,0,56.53,52.45Zm3.83,2.72V49.83H61v5.34Z" transform="translate(-13 -27)"/><path class="cls-2" d="M65.39,54.14v.51H62.56l-.29-.39V50.84H65v.41H62.78v1.08H65v.59H62.78v1.16Zm2.27,1.19h-.43v-2.5h-1.9v-.47h1.84V50h.49Z" transform="translate(-13 -27)"/><path class="cls-2" d="M74.34,53.44h-5.5l0-.44h5.45Zm-4.48.73h3.72V55.9H70.11v.69h3.94V57H69.86l-.27-.16V55.4h3.46v-.76H69.86Zm.22-4.73h3.15v1.67h-3v.73h3.3v.45H70.09L69.72,52V50.65h3v-.73H70.09Z" transform="translate(-13 -27)"/><path class="cls-2" d="M80.22,51.56H79.13v1.23l1.57,1.9-.31.39-1.56-1.72-1.25,1.81-.39-.41,1.36-1.95V51.56H77.3v-.5h2.9Zm2.42,4.23h-.42V52.92H80V52.4h2.16V50.47h.48Z" transform="translate(-13 -27)"/><path class="cls-2" d="M86.47,50.42v.5H85.39v.83l1.55,1.58-.31.4-1.5-1.42-1.25,1.58-.4-.41,1.33-1.72v-.84H83.56V50.4Zm-1.25,5.3a1,1,0,0,1,.1-.45,1,1,0,0,1,.29-.37,1.51,1.51,0,0,1,.49-.25,2.29,2.29,0,0,1,.68-.09,2.33,2.33,0,0,1,.68.09,1.42,1.42,0,0,1,.49.25,1.17,1.17,0,0,1,.3.37,1.13,1.13,0,0,1,.09.45,1.18,1.18,0,0,1-.09.46,1.17,1.17,0,0,1-.3.37,1.42,1.42,0,0,1-.49.25,2.33,2.33,0,0,1-.68.09,2.29,2.29,0,0,1-.68-.09,1.51,1.51,0,0,1-.49-.25,1,1,0,0,1-.29-.37A1,1,0,0,1,85.22,55.72Zm2.58,0a.58.58,0,0,0-.27-.49,1.26,1.26,0,0,0-.75-.2,1.22,1.22,0,0,0-.75.2.57.57,0,0,0-.26.49.6.6,0,0,0,.26.5,1.22,1.22,0,0,0,.75.2,1.26,1.26,0,0,0,.75-.2A.61.61,0,0,0,87.8,55.72ZM87.73,50h.54v1.67h1.21v.53H88.27v2H87.7Z" transform="translate(-13 -27)"/><path class="cls-2" d="M90.77,54.22l.64.62-1,1.53-.39-.29.69-1.1-.34-.37Z" transform="translate(-13 -27)"/><path class="cls-2" d="M96.92,54.44H94.31v-.57h5.5v.6H97.47v1.92h-.55ZM95.16,52.7l1.56-1.78V49.69h.56v1.23l1.66,1.52-.28.4L97,51.4l-1.47,1.68Z" transform="translate(-13 -27)"/><path class="cls-2" d="M103.52,50.26v.5h-1.18v.94l1.58,1.63-.31.4-1.5-1.47-1.25,1.63-.39-.41,1.33-1.76v-1h-1.25v-.51Zm-.89,5.46a1.13,1.13,0,0,1,.09-.45,1.17,1.17,0,0,1,.3-.37,1.42,1.42,0,0,1,.49-.25,2.29,2.29,0,0,1,.68-.09,2.26,2.26,0,0,1,.67.09,1.47,1.47,0,0,1,.5.25,1,1,0,0,1,.29.37,1,1,0,0,1,.1.45,1,1,0,0,1-.1.46,1,1,0,0,1-.29.37,1.47,1.47,0,0,1-.5.25,2.26,2.26,0,0,1-.67.09,2.29,2.29,0,0,1-.68-.09,1.42,1.42,0,0,1-.49-.25,1.17,1.17,0,0,1-.3-.37A1.18,1.18,0,0,1,102.63,55.72Zm2.57,0a.58.58,0,0,0-.27-.49,1.25,1.25,0,0,0-.74-.2,1.27,1.27,0,0,0-.76.2.59.59,0,0,0-.26.49.63.63,0,0,0,.26.5,1.27,1.27,0,0,0,.76.2,1.25,1.25,0,0,0,.74-.2A.61.61,0,0,0,105.2,55.72Zm.55-5.72v4.11h-.5V51.83h-1.87v-.5h1.84V50Z" transform="translate(-13 -27)"/><path class="cls-2" d="M109.48,50.09h2.61v3.2h-2.37l-.25-.29Zm2.1.52H110V52.7h1.55Zm2.84,4.47h-1.37v.45l1.33,1-.3.38-1.3-.94-1.3.92-.35-.39,1.39-.94v-.43h-1.47v-.49h1.48V53.7h.53v.92h1.36Zm-.23-5.21v3.52h-.56v-3.5Z" transform="translate(-13 -27)"/><path class="cls-2" d="M117.41,53.7l1.31-2.12V50.15l.47,0V51.5l1.72,1.69-.28.4-1.57-1.51L117.84,54ZM122.58,57H122V55.19h-3.85v-.52h4.13l.28.33Zm-.92-7h.53v1.67h1.22v.53h-1.22v2h-.56Z" transform="translate(-13 -27)"/><path class="cls-2" d="M126.86,51.45h-1.09v1.24l1.57,1.89L127,55l-1.53-1.74L124.36,55l-.45-.29,1.28-2V51.45h-1.11V51h2.76Zm-.45,1.33v-.53h1.47V50.51h.54v4.91l-.51,0V52.78Zm2.78-2.45h.53v5.29h-.53Z" transform="translate(-13 -27)"/><path class="cls-2" d="M130.69,51.94a1.39,1.39,0,0,1,.09-.47.88.88,0,0,1,.27-.38l-.88-.09.08-.49,1.67.18.1-1.07.51.05-.08,1.08,1.43.14,0,.5-.78-.06a.8.8,0,0,1,.17.36,2.08,2.08,0,0,1,.05.4,1.32,1.32,0,0,1-.14.49,1.28,1.28,0,0,1-.27.4,1.35,1.35,0,0,1-.38.26,1.11,1.11,0,0,1-.43.09,1.41,1.41,0,0,1-.71-.15,1.16,1.16,0,0,1-.41-.38,1.34,1.34,0,0,1-.2-.46A2.23,2.23,0,0,1,130.69,51.94Zm.5,0s0,0,0,.07a.74.74,0,0,0,.21.52.65.65,0,0,0,.24.19.68.68,0,0,0,.32.07.78.78,0,0,0,.35-.07.64.64,0,0,0,.25-.18.74.74,0,0,0,.15-.26,1.19,1.19,0,0,0,.05-.32.72.72,0,0,0-.22-.56.77.77,0,0,0-.57-.21.72.72,0,0,0-.53.21A.76.76,0,0,0,131.19,51.94Zm1.28,2.39v-.52h2.76l.15,1.77-2.74.18v.78h3.55l0,.47h-3.94l-.26-.15.11-1.6h2.68v-.93ZM134.53,50h.53v1.3h1.22v.53h-1.23v1.55h-.55Z" transform="translate(-13 -27)"/><path class="cls-2" d="M141.64,54.44H139v-.57h5.5v.6h-2.34v1.92h-.55Zm-1.76-1.74,1.56-1.78V49.69H142v1.23l1.66,1.52-.28.4-1.63-1.44-1.47,1.68Z" transform="translate(-13 -27)"/><path class="cls-2" d="M147.56,52.11a2.35,2.35,0,0,1,.08-.6,1.42,1.42,0,0,1,.25-.49,1.14,1.14,0,0,1,.44-.33,1.38,1.38,0,0,1,.64-.13,1.24,1.24,0,0,1,.66.17,1.49,1.49,0,0,1,.42.41,1.67,1.67,0,0,1,.23.51,2.08,2.08,0,0,1,.06.46,3,3,0,0,1-.05.47,1.44,1.44,0,0,1-.22.51,1.24,1.24,0,0,1-.42.4,1.32,1.32,0,0,1-.7.16,1.46,1.46,0,0,1-.66-.14,1.32,1.32,0,0,1-.43-.38,1.75,1.75,0,0,1-.23-.5A2.49,2.49,0,0,1,147.56,52.11Zm.5,0a1.5,1.5,0,0,0,.07.44,1,1,0,0,0,.2.32.94.94,0,0,0,.28.21.69.69,0,0,0,.34.09.86.86,0,0,0,.36-.08.89.89,0,0,0,.28-.23,1.32,1.32,0,0,0,.18-.33,1.42,1.42,0,0,0,.06-.42,1.29,1.29,0,0,0-.24-.75A.85.85,0,0,0,149,51a.87.87,0,0,0-.36.09.92.92,0,0,0-.28.24,1,1,0,0,0-.18.34A1.67,1.67,0,0,0,148.06,52.11Zm.49,4.73-.35-.39,1.22-1.25v-.86H150v.83l1,.7.48-.54.06-.89h.5v.87l1.24,1.23-.35.36-1.18-1.15L150.48,57l-.32-.35.39-.44-.85-.61ZM152.47,50v4.1h-.56V50Z" transform="translate(-13 -27)"/><path class="cls-2" d="M159.42,53.9h-5.5l0-.43h5.46Zm-4.67.64v0h.5l.06.85h3l-.08-.86.48,0,.19,2.48h-3.63l-.32-.16Zm.16-2.23,1.48-1.69V49.56h.53v1.06l1.63,1.47-.3.41-1.56-1.42-1.39,1.57Zm3.43,4.22,0-.78h-2.94v.78Z" transform="translate(-13 -27)"/><path class="cls-2" d="M163.77,53.58v.5h-3.1l-.22-.33V50.54H161v3Zm1,1.59V49.83h.64v5.34Z" transform="translate(-13 -27)"/><path class="cls-2" d="M169.69,53.89v.51H166.8l-.24-.29V50.92h2.71v.58h-2.16v2.34Zm1.56,1.59h-.58V50.14h.61v2.4h1.35v.52h-1.38Z" transform="translate(-13 -27)"/><path class="cls-2" d="M174,54.84l-.42.58-.66-.67.44-.53Z" transform="translate(-13 -27)"/><path class="cls-2" d="M24.58,60.25,23.5,63.66,23,63.55l1-3.08H21.66l0-.61h2.63Zm-1.19,5.5,1.31-1,.11-1.08h.53l-.09,1.06,1.39,1.1-.31.39-1.35-1-1.2,1Zm3.09-6.14v4.1h-.56V59.6Z" transform="translate(-13 -27)"/><path class="cls-2" d="M28,61.85a1.71,1.71,0,0,1,.08-.45.9.9,0,0,1,.28-.44l-.68-.1.07-.42,1.48.17.09-1.15.49,0-.08,1.15,1.27.14,0,.43-.65-.06a1.15,1.15,0,0,1,.19.41,2,2,0,0,1,0,.43,1.27,1.27,0,0,1-.11.54,1.35,1.35,0,0,1-.3.4,1.47,1.47,0,0,1-.88.33,1.47,1.47,0,0,1-.61-.16,1.45,1.45,0,0,1-.39-.34,1.2,1.2,0,0,1-.2-.41A1.55,1.55,0,0,1,28,62,.31.31,0,0,1,28,61.85Zm.48,0s0,0,0,.06v0a.93.93,0,0,0,.05.29,1.17,1.17,0,0,0,.15.27.88.88,0,0,0,.24.19.66.66,0,0,0,.32.07.86.86,0,0,0,.61-.23.72.72,0,0,0,.18-.25.94.94,0,0,0,.05-.3.9.9,0,0,0-.23-.69.89.89,0,0,0-.63-.23.66.66,0,0,0-.49.2A.94.94,0,0,0,28.5,61.82Zm.89,2.45h.49V65h2.87v-.71l.5,0v2.33H29.72l-.33-.15Zm3.41,1.81-.25-.72H29.88v.77Zm.28-6v3.64h-.5V62.05H31.13v-.5h1.42V60.08Z" transform="translate(-13 -27)"/><path class="cls-2" d="M38.61,63.9v.64h-4.2V63.9Zm-.84-2.22a1.9,1.9,0,0,1-.11.66,1.37,1.37,0,0,1-.28.47,1.26,1.26,0,0,1-.42.27,1.39,1.39,0,0,1-.5.09,1.79,1.79,0,0,1-.64-.11,1.29,1.29,0,0,1-.44-.31,1.34,1.34,0,0,1-.27-.44,1.61,1.61,0,0,1-.09-.54,2.09,2.09,0,0,1,.06-.47,1.39,1.39,0,0,1,.22-.5,1.28,1.28,0,0,1,1.14-.55,1.38,1.38,0,0,1,.49.1,1.52,1.52,0,0,1,.43.28,1.39,1.39,0,0,1,.29.45A1.78,1.78,0,0,1,37.77,61.68Zm-2.22,0v.08a.83.83,0,0,0,.86.94.79.79,0,0,0,.62-.25,1.06,1.06,0,0,0,.22-.74,1.33,1.33,0,0,0,0-.34,1.08,1.08,0,0,0-.16-.3.79.79,0,0,0-.27-.21.69.69,0,0,0-.36-.09.82.82,0,0,0-.35.08.9.9,0,0,0-.27.21,1.05,1.05,0,0,0-.17.29A1,1,0,0,0,35.55,61.66ZM39.72,60v5.39h-.64V60Z" transform="translate(-13 -27)"/><path class="cls-2" d="M45.56,60v.5H44.48v.83L46,62.93l-.31.4-1.5-1.42L43,63.49l-.39-.41,1.33-1.72v-.84H42.66V60Zm2.19,6.53h-.56V64.79H43.34v-.52h4.13l.28.33Zm-.92-7h.53v1.67h1.22v.53H47.36v2H46.8Z" transform="translate(-13 -27)"/><path class="cls-2" d="M50.75,62.32l-.33-.3V59.74h3.13v.51H50.92V61.8H53.7v.53H52.34v.88h2.44v.54H49.31v-.59h2.52v-.83Zm-.16,3.08a1.14,1.14,0,0,1,.1-.45,1.17,1.17,0,0,1,.3-.37,1.33,1.33,0,0,1,.49-.25,2.29,2.29,0,0,1,.68-.09,2.26,2.26,0,0,1,.67.09,1.33,1.33,0,0,1,.49.25,1,1,0,0,1,.3.37,1,1,0,0,1,.1.45,1,1,0,0,1-.1.46,1,1,0,0,1-.3.37,1.5,1.5,0,0,1-.49.25,2.26,2.26,0,0,1-.67.09,2.29,2.29,0,0,1-.68-.09,1.5,1.5,0,0,1-.49-.25,1.17,1.17,0,0,1-.3-.37A1.19,1.19,0,0,1,50.59,65.4Zm2.58,0a.58.58,0,0,0-.27-.49,1.18,1.18,0,0,0-.74-.2,1.21,1.21,0,0,0-.76.2.59.59,0,0,0-.26.49.64.64,0,0,0,.26.5,1.27,1.27,0,0,0,.76.2,1.25,1.25,0,0,0,.74-.2A.62.62,0,0,0,53.17,65.4Z" transform="translate(-13 -27)"/><path class="cls-2" d="M60.16,63V64.5H59.7V63h-2V62.5h4v.41Zm.53-2.33a1.32,1.32,0,0,1-.1.53,1.46,1.46,0,0,1-.27.41,1.14,1.14,0,0,1-.39.27,1.12,1.12,0,0,1-.48.1,1.2,1.2,0,0,1-.59-.13,1.22,1.22,0,0,1-.58-.77,1.62,1.62,0,0,1-.06-.41,1.3,1.3,0,0,1,.07-.4,1.32,1.32,0,0,1,.21-.43,1.15,1.15,0,0,1,.38-.34,1,1,0,0,1,.57-.14,1.1,1.1,0,0,1,.47.1,1.16,1.16,0,0,1,.39.26,1.34,1.34,0,0,1,.28.42A1.51,1.51,0,0,1,60.69,60.63Zm-2,0a.84.84,0,0,0,.2.57.8.8,0,0,0,.6.21.65.65,0,0,0,.5-.22.79.79,0,0,0,.2-.56.87.87,0,0,0-.06-.32.71.71,0,0,0-.16-.26.66.66,0,0,0-.23-.17.73.73,0,0,0-.3-.06.66.66,0,0,0-.32.07.63.63,0,0,0-.24.18.82.82,0,0,0-.14.26A1,1,0,0,0,58.7,60.63Zm0,5.64V64.35h.55V66H63.2v.48H58.94Zm4.2-1.81h-.48V61.15H61.06v-.5h1.33V59.32h.47Z" transform="translate(-13 -27)"/><path class="cls-2" d="M64.42,60.77v-.48H67l.15,1.93-2.36.27v1.23h2.72l0,.49H64.5l-.3-.16V62l2.43-.23-.08-1Zm4.16,4V59.43h.64v5.34Z" transform="translate(-13 -27)"/><path class="cls-2" d="M76.13,63h-5.5l0-.44h5.45Zm-4.49.73h3.72V65.5H71.89v.69h3.94v.41H71.64l-.26-.16V65h3.45v-.76H71.64ZM71.86,59H75v1.67H72v.73h3.3v.46H71.88l-.38-.29V60.25h3v-.73H71.88Z" transform="translate(-13 -27)"/><path class="cls-2" d="M79.14,62.05a2.55,2.55,0,0,1,.07-.59,2,2,0,0,1,.22-.59,1.35,1.35,0,0,1,.44-.45,1.22,1.22,0,0,1,.69-.18,1.17,1.17,0,0,1,.67.18,1.49,1.49,0,0,1,.45.45,1.77,1.77,0,0,1,.23.59,2.55,2.55,0,0,1,.07.59,2.66,2.66,0,0,1-.07.61,1.72,1.72,0,0,1-.23.58,1.45,1.45,0,0,1-.45.44,1.26,1.26,0,0,1-.67.17,1.28,1.28,0,0,1-.67-.17,1.42,1.42,0,0,1-.44-.44,2,2,0,0,1-.24-.58A2.66,2.66,0,0,1,79.14,62.05Zm.52,0a2.12,2.12,0,0,0,0,.42,1.21,1.21,0,0,0,.14.43.92.92,0,0,0,.27.32.73.73,0,0,0,.45.13.68.68,0,0,0,.44-.13,1.11,1.11,0,0,0,.29-.32,1.45,1.45,0,0,0,.14-.43,2.12,2.12,0,0,0,0-.42,3.29,3.29,0,0,0,0-.42,1.5,1.5,0,0,0-.15-.42,1,1,0,0,0-.28-.33.74.74,0,0,0-.44-.13.77.77,0,0,0-.45.13,1,1,0,0,0-.28.33,1.23,1.23,0,0,0-.14.42A3.19,3.19,0,0,0,79.66,62.05Zm3.82,2.72V59.43h.65v5.34Z" transform="translate(-13 -27)"/><path class="cls-2" d="M88.64,61.58l0,.49-3.39-.25v-.5l1.42.09V60.07h.53v1.4ZM88,64a1.42,1.42,0,0,1-.4.87,1.06,1.06,0,0,1-.79.32,1.08,1.08,0,0,1-.56-.13,1,1,0,0,1-.38-.33,1.63,1.63,0,0,1-.21-.44,2,2,0,0,1-.06-.47,1.85,1.85,0,0,1,.06-.44,1.69,1.69,0,0,1,.2-.46,1.27,1.27,0,0,1,.37-.36,1.06,1.06,0,0,1,.58-.15,1.15,1.15,0,0,1,.89.37,1.44,1.44,0,0,1,.32,1A1230566858699.41,1230566858699.41,0,0,1,88,64Zm-1.89-.33a.31.31,0,0,0,0,.1v.1a.84.84,0,0,0,.05.31.82.82,0,0,0,.14.26.65.65,0,0,0,.22.18.62.62,0,0,0,.55,0,.54.54,0,0,0,.24-.16.85.85,0,0,0,.18-.3,1.42,1.42,0,0,0,.07-.45,1,1,0,0,0-.17-.57.65.65,0,0,0-.54-.23.61.61,0,0,0-.5.2A1.21,1.21,0,0,0,86.14,63.63Zm4.59-3h.54v5.2h-.54V63.35h-.85v2.39h-.6V60.61h.6V62.8h.85Z" transform="translate(-13 -27)"/><path class="cls-2" d="M95.13,61.47l0,.47-3.39-.26v-.49l1.44.1V59.93l.53,0v1.39Zm-.57,2.41a1.39,1.39,0,0,1-.15.5,1.78,1.78,0,0,1-.28.38,1.16,1.16,0,0,1-.39.26,1.18,1.18,0,0,1-.46.09,1.33,1.33,0,0,1-.6-.13,1.35,1.35,0,0,1-.41-.33,1.22,1.22,0,0,1-.22-.44,1.51,1.51,0,0,1-.07-.46,1.63,1.63,0,0,1,.08-.55,1.34,1.34,0,0,1,.24-.46,1.17,1.17,0,0,1,.41-.32,1.37,1.37,0,0,1,1.51.26,1.44,1.44,0,0,1,.35,1v.1A.28.28,0,0,1,94.56,63.88Zm-2-.39a.87.87,0,0,0,0,.25,1.55,1.55,0,0,0,0,.29.82.82,0,0,0,.38.49.8.8,0,0,0,.36.08.68.68,0,0,0,.31-.08.86.86,0,0,0,.26-.21A.87.87,0,0,0,94,64a1,1,0,0,0,.06-.36.91.91,0,0,0-.2-.6.67.67,0,0,0-.57-.25.76.76,0,0,0-.51.19A1,1,0,0,0,92.52,63.49Zm3.87,2.23-.58,0V60.07h.64v2.4h1.19V63H96.39Z" transform="translate(-13 -27)"/><path class="cls-2" d="M100.58,64.43h2.7V65H98.59v-.64h1.54V62.32h.45Zm2.11-.74h-.53V60.83h-3l.06-.65h3.21l.32.47Z" transform="translate(-13 -27)"/><path class="cls-2" d="M108.56,64h-1.67v-.55h5.5v.6h-1.56V66h-.55V64h-1.17V66h-.55ZM108,61.54v-.11a1.1,1.1,0,0,1,.11-.5,1.39,1.39,0,0,1,.3-.43,1.57,1.57,0,0,1,.49-.28,1.73,1.73,0,0,1,.63-.11,2.2,2.2,0,0,1,.76.12,1.41,1.41,0,0,1,.54.3,1.1,1.1,0,0,1,.33.42,1.23,1.23,0,0,1,.1.49,1.16,1.16,0,0,1-.14.6,1.21,1.21,0,0,1-.37.41,1.32,1.32,0,0,1-.52.25,2,2,0,0,1-1.12,0,1.93,1.93,0,0,1-.52-.2,1.48,1.48,0,0,1-.4-.39A1.18,1.18,0,0,1,108,61.54Zm1.63-.94a1.84,1.84,0,0,0-.41,0,1,1,0,0,0-.35.16.78.78,0,0,0-.24.27.8.8,0,0,0-.09.39.63.63,0,0,0,.1.38.67.67,0,0,0,.25.25,1.09,1.09,0,0,0,.37.14,2.14,2.14,0,0,0,.45,0,1.5,1.5,0,0,0,.44-.07,1,1,0,0,0,.32-.19.67.67,0,0,0,.19-.28.71.71,0,0,0,.07-.32.69.69,0,0,0-.3-.6A1.38,1.38,0,0,0,109.61,60.6Z" transform="translate(-13 -27)"/><path class="cls-2" d="M114.52,61a1.19,1.19,0,0,1,.12-.54,1.13,1.13,0,0,1,.33-.39,1.32,1.32,0,0,1,.49-.24,2.21,2.21,0,0,1,.59-.08,1.74,1.74,0,0,1,.61.1,1.59,1.59,0,0,1,.48.26,1.35,1.35,0,0,1,.32.4,1,1,0,0,1,.12.49,1.12,1.12,0,0,1-.12.53,1.07,1.07,0,0,1-.3.36l.07,1.33h1.58v.51h-5.47v-.59H115V61.93h0a1.23,1.23,0,0,1-.33-.39A1.1,1.1,0,0,1,114.52,61Zm.11,4.38a1.13,1.13,0,0,1,.09-.45,1.17,1.17,0,0,1,.3-.37,1.42,1.42,0,0,1,.49-.25,2.29,2.29,0,0,1,.68-.09,2.26,2.26,0,0,1,.67.09,1.47,1.47,0,0,1,.5.25,1,1,0,0,1,.29.37,1,1,0,0,1,.1.45,1,1,0,0,1-.1.46,1,1,0,0,1-.29.37,1.67,1.67,0,0,1-.5.25,2.26,2.26,0,0,1-.67.09,2.29,2.29,0,0,1-.68-.09,1.61,1.61,0,0,1-.49-.25,1.17,1.17,0,0,1-.3-.37A1.18,1.18,0,0,1,114.63,65.4ZM117.08,61a.72.72,0,0,0-.07-.28,1,1,0,0,0-.2-.25.87.87,0,0,0-.31-.18,1,1,0,0,0-.39-.07,1.45,1.45,0,0,0-.49.07,1,1,0,0,0-.34.17.76.76,0,0,0-.2.24A.66.66,0,0,0,115,61a.65.65,0,0,0,.08.35.76.76,0,0,0,.23.24.94.94,0,0,0,.34.14,1.84,1.84,0,0,0,.41.05,1.51,1.51,0,0,0,.37-.06,1.35,1.35,0,0,0,.32-.15.87.87,0,0,0,.23-.24A.61.61,0,0,0,117.08,61Zm.12,4.38a.58.58,0,0,0-.27-.49,1.18,1.18,0,0,0-.74-.2,1.21,1.21,0,0,0-.76.2.59.59,0,0,0-.26.49.64.64,0,0,0,.26.5,1.27,1.27,0,0,0,.76.2,1.25,1.25,0,0,0,.74-.2A.62.62,0,0,0,117.2,65.4Zm-.55-3.22a1.45,1.45,0,0,1-.3.06h-.59a1,1,0,0,1-.26-.06l0,1h1.13Z" transform="translate(-13 -27)"/><path class="cls-2" d="M122.91,61.47l0,.47-3.39-.26v-.49l1.44.1V59.93l.53,0v1.39Zm-.57,2.41a1.39,1.39,0,0,1-.15.5,1.49,1.49,0,0,1-.28.38,1.16,1.16,0,0,1-.39.26,1.18,1.18,0,0,1-.46.09,1.33,1.33,0,0,1-.6-.13,1.35,1.35,0,0,1-.41-.33,1.4,1.4,0,0,1-.22-.44,1.51,1.51,0,0,1-.07-.46,1.92,1.92,0,0,1,.08-.55,1.21,1.21,0,0,1,.25-.46,1.13,1.13,0,0,1,.4-.32,1.37,1.37,0,0,1,1.51.26,1.44,1.44,0,0,1,.35,1v.1A.28.28,0,0,1,122.34,63.88Zm-2-.39a.9.9,0,0,0,0,.25,1.5,1.5,0,0,0,0,.29,1,1,0,0,0,.14.28.83.83,0,0,0,.24.21.8.8,0,0,0,.36.08.68.68,0,0,0,.31-.08.75.75,0,0,0,.26-.21.87.87,0,0,0,.17-.3,1,1,0,0,0,.06-.36.91.91,0,0,0-.2-.6.67.67,0,0,0-.57-.25.76.76,0,0,0-.51.19A1,1,0,0,0,120.3,63.49Zm3.87,2.23-.58,0V60.07h.64v2.4h1.19V63h-1.25Z" transform="translate(-13 -27)"/><path class="cls-2" d="M127.41,64.65l-.49-.13L128,60.75h-2v-.59h2.33l.2.49-.35,1.2h1.52V60h.52V64.6l-.49,0V62.38h-1.7Zm3.7.18v-5h.53v4.94Z" transform="translate(-13 -27)"/><path class="cls-2" d="M135.22,60.88a1.41,1.41,0,0,1,.08-.4.78.78,0,0,1,.28-.38l-.64-.08.06-.44,1.36.16.11-.84L137,59l-.09.85,1.16.12,0,.42-.6-.06a1.6,1.6,0,0,1,.13.3,1.15,1.15,0,0,1,0,.33,1.17,1.17,0,0,1-.24.74,1,1,0,0,1-.67.37l0,.79h1.44v.53h-3.41V62.8h1.44l0-.77a1.22,1.22,0,0,1-.5-.17,1,1,0,0,1-.28-.29.79.79,0,0,1-.13-.35A2,2,0,0,1,135.22,60.88Zm.66,3.36v-.49h3.39l.14,1.55H136v.88h4.32l0,.47h-4.69l-.27-.16.11-1.47h3.31v-.78Zm-.16-3.36v0a.61.61,0,0,0,.69.65.65.65,0,0,0,.54-.21.84.84,0,0,0,.18-.54.57.57,0,0,0-.21-.48.8.8,0,0,0-.51-.17.67.67,0,0,0-.47.18A.67.67,0,0,0,135.72,60.88Zm3,2.45V59.6h.5v1.58h1.11v.51h-1.1v1.66Z" transform="translate(-13 -27)"/><path class="cls-2" d="M142.3,61a1.19,1.19,0,0,1,.12-.54,1.13,1.13,0,0,1,.33-.39,1.32,1.32,0,0,1,.49-.24,2.21,2.21,0,0,1,.59-.08,1.74,1.74,0,0,1,.61.1,1.38,1.38,0,0,1,.48.26,1.35,1.35,0,0,1,.32.4,1,1,0,0,1,.12.49,1.12,1.12,0,0,1-.12.53,1,1,0,0,1-.29.36l.06,1.33h1.58v.51h-5.46v-.59h1.65V61.93h0a1.07,1.07,0,0,1-.44-.91Zm.11,4.38a1.13,1.13,0,0,1,.09-.45,1.17,1.17,0,0,1,.3-.37,1.42,1.42,0,0,1,.49-.25,2.29,2.29,0,0,1,.68-.09,2.26,2.26,0,0,1,.67.09,1.47,1.47,0,0,1,.5.25,1,1,0,0,1,.29.37,1,1,0,0,1,.1.45,1,1,0,0,1-.1.46,1,1,0,0,1-.29.37,1.67,1.67,0,0,1-.5.25,2.26,2.26,0,0,1-.67.09,2.29,2.29,0,0,1-.68-.09,1.61,1.61,0,0,1-.49-.25,1.17,1.17,0,0,1-.3-.37A1.18,1.18,0,0,1,142.41,65.4ZM144.86,61a.58.58,0,0,0-.07-.28.79.79,0,0,0-.2-.25.92.92,0,0,0-.3-.18,1,1,0,0,0-.4-.07,1.45,1.45,0,0,0-.49.07,1,1,0,0,0-.34.17.76.76,0,0,0-.2.24.66.66,0,0,0-.06.27.65.65,0,0,0,.31.59.94.94,0,0,0,.34.14,1.84,1.84,0,0,0,.41.05,1.51,1.51,0,0,0,.37-.06,1.35,1.35,0,0,0,.32-.15.87.87,0,0,0,.23-.24A.61.61,0,0,0,144.86,61ZM145,65.4a.58.58,0,0,0-.27-.49,1.14,1.14,0,0,0-.74-.2,1.21,1.21,0,0,0-.76.2.59.59,0,0,0-.26.49.64.64,0,0,0,.26.5,1.27,1.27,0,0,0,.76.2,1.21,1.21,0,0,0,.74-.2A.62.62,0,0,0,145,65.4Zm-.55-3.22a1.33,1.33,0,0,1-.3.06h-.59a1.1,1.1,0,0,1-.26-.06l.05,1h1.13Z" transform="translate(-13 -27)"/><path class="cls-2" d="M147.67,61.54a1.59,1.59,0,0,1,.1-.46.77.77,0,0,1,.26-.39l-.87-.09.07-.49,1.68.18.09-1.07.52.05-.08,1.08,1.42.14-.05.5-.78-.06a.86.86,0,0,1,.17.36,2.08,2.08,0,0,1,.05.4,1.54,1.54,0,0,1-.13.49,1.5,1.5,0,0,1-.28.4,1.22,1.22,0,0,1-.38.26,1.07,1.07,0,0,1-.43.09,1.44,1.44,0,0,1-.71-.15,1.26,1.26,0,0,1-.41-.38,1.15,1.15,0,0,1-.19-.46A2.28,2.28,0,0,1,147.67,61.54Zm.5,0a.56.56,0,0,0,0,.07.66.66,0,0,0,.06.27.92.92,0,0,0,.15.25.88.88,0,0,0,.24.19.73.73,0,0,0,.33.08.89.89,0,0,0,.34-.07.79.79,0,0,0,.25-.19.61.61,0,0,0,.15-.26.89.89,0,0,0,0-.32.76.76,0,0,0-.21-.56.8.8,0,0,0-.57-.21.73.73,0,0,0-.54.21A.84.84,0,0,0,148.17,61.54Zm1.28,2.39v-.52h2.77l.14,1.77-2.73.18v.79h3.54l0,.46h-3.93l-.27-.15.11-1.6h2.69v-.93Zm2.07-4.32h.53v1.3h1.22v.53H152V63h-.55Z" transform="translate(-13 -27)"/><path class="cls-2" d="M158.63,64H156v-.57h5.5v.6h-2.35V66h-.54Zm-1.77-1.74,1.56-1.78V59.29H159v1.23L160.64,62l-.28.4L158.73,61l-1.46,1.68Z" transform="translate(-13 -27)"/><path class="cls-2" d="M164.55,61.71a2,2,0,0,1,.08-.6,1.27,1.27,0,0,1,.25-.49,1.18,1.18,0,0,1,.43-.33,1.41,1.41,0,0,1,.64-.13,1.2,1.2,0,0,1,.66.17,1.41,1.41,0,0,1,.43.41,1.64,1.64,0,0,1,.22.51,1.66,1.66,0,0,1,.07.46,2.23,2.23,0,0,1-.06.47,1.62,1.62,0,0,1-.21.51,1.24,1.24,0,0,1-.42.4,1.34,1.34,0,0,1-.7.16,1.36,1.36,0,0,1-.67-.14,1.29,1.29,0,0,1-.42-.38,1.34,1.34,0,0,1-.23-.5A1.91,1.91,0,0,1,164.55,61.71Zm.5,0a1.2,1.2,0,0,0,.07.44.85.85,0,0,0,.19.32,1,1,0,0,0,.29.21.67.67,0,0,0,.34.09.86.86,0,0,0,.36-.08.75.75,0,0,0,.27-.23,1,1,0,0,0,.18-.33,1.42,1.42,0,0,0,.06-.42,1.29,1.29,0,0,0-.24-.75.78.78,0,0,0-.63-.31.75.75,0,0,0-.37.09.83.83,0,0,0-.27.23,1,1,0,0,0-.18.34A1.29,1.29,0,0,0,165.05,61.71Zm.48,4.73-.34-.39,1.22-1.25v-.86h.53v.83l.95.7.49-.54.06-.89h.5v.87l1.23,1.24-.34.35-1.19-1.15-1.17,1.3-.33-.36.39-.44-.84-.61Zm3.92-6.83v4.1h-.56V59.6Z" transform="translate(-13 -27)"/><path class="cls-2" d="M176.22,65.33h-5.13v-.51h5.13ZM172,62.18v-.09a1.61,1.61,0,0,1,.09-.54,1.34,1.34,0,0,1,.29-.45,1.47,1.47,0,0,1,.48-.31,1.9,1.9,0,0,1,.66-.11,2.24,2.24,0,0,1,.77.11,1.56,1.56,0,0,1,.54.31,1.14,1.14,0,0,1,.31.45,1.44,1.44,0,0,1,0,1.15,1.38,1.38,0,0,1-.87.71,2,2,0,0,1-.61.09,2,2,0,0,1-.57-.08,1.92,1.92,0,0,1-.52-.25,1.42,1.42,0,0,1-.39-.42A1,1,0,0,1,172,62.18Zm1.62-1h-.07a1,1,0,0,0-.76.27.92.92,0,0,0-.26.68.8.8,0,0,0,.09.39.77.77,0,0,0,.26.28,1.4,1.4,0,0,0,.37.17,1.64,1.64,0,0,0,.45,0,1.16,1.16,0,0,0,.42-.07,1.13,1.13,0,0,0,.32-.19.87.87,0,0,0,.22-.26.62.62,0,0,0,.07-.29.94.94,0,0,0-.29-.74A1.24,1.24,0,0,0,173.64,61.16Z" transform="translate(-13 -27)"/><path class="cls-2" d="M177.55,60.94H180v.52h2.11V60.22h.48v5.33h-.42V63.61H180v.85h-2.18l-.25-.3Zm1.9.52h-1.39v2.4h1.39Zm.53.5V63.1h2.15V62Z" transform="translate(-13 -27)"/><path class="cls-2" d="M22.91,72.49l-.38-.32V69.65h.53V72h2.86v.48H24.55v1.77H27v.56H21.53V74.2h2.52V72.49Z" transform="translate(-13 -27)"/><path class="cls-2" d="M27.67,73,29,70.85V69.43l.47,0v1.38l1.72,1.68-.28.41-1.56-1.52-1.22,1.91Zm2.38,2.73V73.79h.54v1.64h2.69v.49h-3ZM33,69.2v4.89h-.5V71.73H30.89v-.5h1.54v-.67H30.89v-.5h1.53v-.85Z" transform="translate(-13 -27)"/><path class="cls-2" d="M35,73.42l.64.62-1,1.53-.39-.29.69-1.1-.35-.37Z" transform="translate(-13 -27)"/><path class="cls-2" d="M38.47,69.76h2.45v3.52H38.7l-.25-.3Zm1.92.53H39v2.39h1.36Zm2.49,4.08V69h.64v5.34Z" transform="translate(-13 -27)"/><path class="cls-2" d="M46.19,69.43h3.09v1.92H46.47v1.1h3.12v.42H48v1.52h2.44V75H45v-.64h2.52v-1.4H46.3l-.38-.3V70.85h2.83v-.93H46.19Z" transform="translate(-13 -27)"/><path class="cls-2" d="M51.94,73.42l.64.62-.95,1.53-.4-.29.69-1.1-.34-.37Z" transform="translate(-13 -27)"/><path class="cls-2" d="M61,72.48h-5.5l0-.44H61Zm-4.49.75H60.2V75H56.73v.69h3.94V76H56.48l-.26-.15V74.45h3.45v-.77H56.48ZM56.42,71l1.5-1.69V68.5h.55v.79l1.61,1.47-.3.41L58.2,69.76l-1.39,1.56Z" transform="translate(-13 -27)"/><path class="cls-2" d="M62,69.9v-.48h2.3l.16,1.86-2.06.26v1H64.8l0,.49H62.06l-.29-.16V71.06l2.12-.24-.08-.9Zm5.33,6.25h-.48V74.39H62.91v-.52H67l.28.33Zm-.48-6.78h.53v4h-.53V71.42h-.89v1.72h-.56V69.39h.56V70.9h.89Z" transform="translate(-13 -27)"/><path class="cls-2" d="M75.88,73.1h-5.5l0-.43h5.45Zm-4-1.29-.32-.3V69.39h3.12v.51H72v1.39H74.8v.53ZM71.69,75a1,1,0,0,1,.1-.45,1,1,0,0,1,.29-.37,1.42,1.42,0,0,1,.49-.25,2.29,2.29,0,0,1,.68-.09,2.38,2.38,0,0,1,.68.09,1.42,1.42,0,0,1,.49.25,1,1,0,0,1,.29.37,1,1,0,0,1,.1.45,1,1,0,0,1-.1.46,1,1,0,0,1-.29.37,1.61,1.61,0,0,1-.49.25,2.38,2.38,0,0,1-.68.09,2.29,2.29,0,0,1-.68-.09,1.61,1.61,0,0,1-.49-.25,1,1,0,0,1-.29-.37A1,1,0,0,1,71.69,75Zm2.58,0a.58.58,0,0,0-.27-.49,1.19,1.19,0,0,0-.75-.2,1.16,1.16,0,0,0-.75.2.58.58,0,0,0-.27.49.62.62,0,0,0,.27.5,1.22,1.22,0,0,0,.75.2,1.26,1.26,0,0,0,.75-.2A.62.62,0,0,0,74.27,75Z" transform="translate(-13 -27)"/><path class="cls-2" d="M81.73,73.09v.51H78.84l-.23-.29V70.12h2.7v.58H79.16V73Zm1.57,1.59h-.58V69.34h.61v2.41h1.34v.51H83.3Z" transform="translate(-13 -27)"/><path class="cls-2" d="M85.09,71.28a2.35,2.35,0,0,1,.08-.6,1.42,1.42,0,0,1,.25-.49,1.37,1.37,0,0,1,.44-.34,1.56,1.56,0,0,1,.64-.12,1.16,1.16,0,0,1,.66.18,1.3,1.3,0,0,1,.42.42,1.67,1.67,0,0,1,.23.51,2.18,2.18,0,0,1,.07.44,2.24,2.24,0,0,1-.06.48,1.48,1.48,0,0,1-.21.5,1.41,1.41,0,0,1-.43.41,1.32,1.32,0,0,1-.7.17,1.34,1.34,0,0,1-.66-.15,1.32,1.32,0,0,1-.43-.38,1.69,1.69,0,0,1-.23-.51A2.49,2.49,0,0,1,85.09,71.28Zm.5,0a1.5,1.5,0,0,0,.07.44,1,1,0,0,0,.2.32.94.94,0,0,0,.28.21,1,1,0,0,0,.34.09.76.76,0,0,0,.64-.31,1.29,1.29,0,0,0,.24-.82,1.15,1.15,0,0,0-.06-.37,1.2,1.2,0,0,0-.18-.31,1,1,0,0,0-.28-.22.88.88,0,0,0-.36-.1.74.74,0,0,0-.36.09.92.92,0,0,0-.28.24,1.48,1.48,0,0,0-.18.33A1.85,1.85,0,0,0,85.59,71.28Zm1.16,3.64a1,1,0,0,1,.1-.45,1,1,0,0,1,.29-.37,1.51,1.51,0,0,1,.49-.25,2.61,2.61,0,0,1,1.36,0,1.42,1.42,0,0,1,.49.25,1.17,1.17,0,0,1,.3.37,1.14,1.14,0,0,1,.1.45,1.19,1.19,0,0,1-.1.46,1.17,1.17,0,0,1-.3.37A1.42,1.42,0,0,1,89,76a2.61,2.61,0,0,1-1.36,0,1.51,1.51,0,0,1-.49-.25,1,1,0,0,1-.29-.37A1,1,0,0,1,86.75,74.92Zm2.58,0a.58.58,0,0,0-.27-.49,1.26,1.26,0,0,0-.75-.2,1.22,1.22,0,0,0-.75.2.57.57,0,0,0-.26.49.6.6,0,0,0,.26.5,1.22,1.22,0,0,0,.75.2,1.26,1.26,0,0,0,.75-.2A.61.61,0,0,0,89.33,74.92Zm-.06-5.77h.53v.95H91v.54H89.8v1H91v.53H89.78v1.11h-.55Z" transform="translate(-13 -27)"/><path class="cls-2" d="M91.83,71.68a1.34,1.34,0,0,1,.09-.46.83.83,0,0,1,.27-.38l-.88-.09.08-.49,1.67.17.1-1.06.51,0-.08,1.08,1.43.14,0,.5-.78-.07a.84.84,0,0,1,.17.37,2.08,2.08,0,0,1,0,.4,1.32,1.32,0,0,1-.14.49,1.56,1.56,0,0,1-.27.4,1.6,1.6,0,0,1-.38.26,1.11,1.11,0,0,1-.43.09,1.31,1.31,0,0,1-.71-.16,1.06,1.06,0,0,1-.41-.37,1.22,1.22,0,0,1-.19-.46A1.68,1.68,0,0,1,91.83,71.68Zm.5,0a.15.15,0,0,0,0,.07.66.66,0,0,0,.06.27.76.76,0,0,0,.15.26.78.78,0,0,0,.24.19.68.68,0,0,0,.32.07.78.78,0,0,0,.35-.07.94.94,0,0,0,.25-.18.89.89,0,0,0,.15-.27,1.06,1.06,0,0,0,0-.31.72.72,0,0,0-.22-.56.77.77,0,0,0-.57-.21.72.72,0,0,0-.53.21A.73.73,0,0,0,92.33,71.68Zm1,4.19V74h.55v1.64h2.68v.48h-3Zm2.34-6.3.53.07v1.81h1.25V72H96.23v2.23l-.56,0Z" transform="translate(-13 -27)"/><path class="cls-2" d="M100.27,71.45a1.65,1.65,0,0,1,.08-.45.9.9,0,0,1,.28-.44l-.68-.1L100,70l1.48.17.09-1.15.49,0L102,70.25l1.27.14,0,.43-.65-.06a1.15,1.15,0,0,1,.19.41,2,2,0,0,1,0,.43,1.27,1.27,0,0,1-.11.54,1.35,1.35,0,0,1-.3.4,1.47,1.47,0,0,1-.88.33,1.47,1.47,0,0,1-.61-.16,1.45,1.45,0,0,1-.39-.34,1.2,1.2,0,0,1-.2-.41,1.55,1.55,0,0,1-.06-.4A.31.31,0,0,1,100.27,71.45Zm.48,0s0,0,0,.06v0a1,1,0,0,0,.05.29,1.17,1.17,0,0,0,.15.27.88.88,0,0,0,.24.19.66.66,0,0,0,.32.07.86.86,0,0,0,.61-.23.72.72,0,0,0,.18-.25.94.94,0,0,0,0-.3.9.9,0,0,0-.23-.69.89.89,0,0,0-.63-.23.66.66,0,0,0-.49.2A.94.94,0,0,0,100.75,71.42Zm.89,2.45h.49v.69H105v-.71l.5,0v2.33H102l-.33-.15Zm3.41,1.81-.19-.72h-2.73v.77Zm.34-6.48v4.11h-.5v-1h-1.44v-.5h1.42v-.67h-1.39v-.5h1.38V69.21Z" transform="translate(-13 -27)"/><path class="cls-2" d="M106.59,71.37a2.21,2.21,0,0,1,.08-.59,1.38,1.38,0,0,1,.25-.5,1.22,1.22,0,0,1,.44-.33,1.55,1.55,0,0,1,.64-.13,1.48,1.48,0,0,1,.5.1,1.37,1.37,0,0,1,.62.57,1.81,1.81,0,0,1,.16.35l1.83,0V69.21h.53v4.1h-.5v-2h-1.76v0a2.24,2.24,0,0,1-.06.48,1.62,1.62,0,0,1-.21.51,1.38,1.38,0,0,1-.43.4,1.23,1.23,0,0,1-.7.17,1.34,1.34,0,0,1-.66-.15,1.19,1.19,0,0,1-.43-.37,2,2,0,0,1-.23-.51A2.58,2.58,0,0,1,106.59,71.37Zm.5,0a1.45,1.45,0,0,0,.07.44,1.08,1.08,0,0,0,.2.33,1.46,1.46,0,0,0,.28.21.81.81,0,0,0,.34.08.77.77,0,0,0,.64-.3,1.32,1.32,0,0,0,.24-.83,1,1,0,0,0-.06-.36,1.11,1.11,0,0,0-.18-.32,1,1,0,0,0-.28-.22.76.76,0,0,0-.72,0,1,1,0,0,0-.28.23,1.56,1.56,0,0,0-.18.34A1.76,1.76,0,0,0,107.09,71.37Zm.85,2.5h.48v.67h2.88v-.69l.5,0v2.33h-3.53l-.33-.15Zm3.4,1.81V75h-2.92v.78Z" transform="translate(-13 -27)"/><path class="cls-2" d="M118.2,72.57v.66h1.63V75h-3.47v.76h3.94v.41h-4.19l-.27-.16V74.53h3.46v-.85h-3.19v-.45h1.53v-.61h-2.55l0-.48h5.45v.43Zm1.36-1.72v.52h-3l-.29-.31V68.82h3v.41h-2.46v.64h2.49v.45h-2.49v.55Z" transform="translate(-13 -27)"/><path class="cls-2" d="M123.56,74.25l-.37-.38,1.34-1.94.11-1.7h.5v1.69l1.5,1.87-.28.38-1.56-1.72ZM128,75.32l-.57,0V69.67h.64v2.4h1.18v.5H128Z" transform="translate(-13 -27)"/><path class="cls-2" d="M131.2,70.62a1.19,1.19,0,0,1,.12-.54,1.17,1.17,0,0,1,.34-.39,1.35,1.35,0,0,1,.48-.24,2.33,2.33,0,0,1,.59-.08,1.7,1.7,0,0,1,.61.1,1.32,1.32,0,0,1,.81.66,1,1,0,0,1,.12.49,1.12,1.12,0,0,1-.12.53,1.07,1.07,0,0,1-.3.36l.06,1.33h1.59v.51H130v-.59h1.66V71.53h0a1.23,1.23,0,0,1-.33-.39A1.11,1.11,0,0,1,131.2,70.62Zm.11,4.38a1,1,0,0,1,.1-.45,1,1,0,0,1,.3-.37,1.33,1.33,0,0,1,.49-.25,2.24,2.24,0,0,1,.68-.09,2.26,2.26,0,0,1,.67.09,1.33,1.33,0,0,1,.49.25,1,1,0,0,1,.3.37,1,1,0,0,1,.1.45,1,1,0,0,1-.1.46,1,1,0,0,1-.3.37,1.5,1.5,0,0,1-.49.25,2.26,2.26,0,0,1-.67.09,2.24,2.24,0,0,1-.68-.09,1.5,1.5,0,0,1-.49-.25,1,1,0,0,1-.3-.37A1,1,0,0,1,131.31,75Zm2.46-4.38a.72.72,0,0,0-.07-.28,1.21,1.21,0,0,0-.2-.26,1,1,0,0,0-.31-.17,1,1,0,0,0-.39-.07,1.45,1.45,0,0,0-.49.07,1,1,0,0,0-.34.17.64.64,0,0,0-.2.24.64.64,0,0,0,0,.62.66.66,0,0,0,.23.24.94.94,0,0,0,.34.14,1.84,1.84,0,0,0,.41.05,1.51,1.51,0,0,0,.37-.06,1.35,1.35,0,0,0,.32-.15.83.83,0,0,0,.22-.24A.53.53,0,0,0,133.77,70.62Zm.12,4.38a.58.58,0,0,0-.27-.49,1.18,1.18,0,0,0-.74-.2,1.21,1.21,0,0,0-.76.2.59.59,0,0,0-.26.49.64.64,0,0,0,.26.5,1.27,1.27,0,0,0,.76.2,1.25,1.25,0,0,0,.74-.2A.62.62,0,0,0,133.89,75Zm-.55-3.22a1.59,1.59,0,0,1-.3.06h-.59a1,1,0,0,1-.26-.06l0,1h1.14Z" transform="translate(-13 -27)"/><path class="cls-2" d="M136.2,71.84a2.53,2.53,0,0,1,.08-.59,1.86,1.86,0,0,1,.24-.56,1.41,1.41,0,0,1,.43-.41,1.17,1.17,0,0,1,.64-.16,1.43,1.43,0,0,1,.54.12,1.5,1.5,0,0,1,.4.3,1.73,1.73,0,0,1,.27.43,4,4,0,0,1,.15.49H140V69.7h.52v4.5l-.49,0V72H139a2.36,2.36,0,0,1-.1.61,2.06,2.06,0,0,1-.27.51,1.35,1.35,0,0,1-.43.35,1.22,1.22,0,0,1-.59.13,1.19,1.19,0,0,1-.64-.16,1.53,1.53,0,0,1-.43-.41,1.86,1.86,0,0,1-.24-.56A2.61,2.61,0,0,1,136.2,71.84Zm.52,0a1.49,1.49,0,0,0,.07.49,1.68,1.68,0,0,0,.19.38.83.83,0,0,0,.28.25.73.73,0,0,0,.33.08.76.76,0,0,0,.63-.32,1.38,1.38,0,0,0,.25-.88,2.2,2.2,0,0,0-.05-.44,1.52,1.52,0,0,0-.16-.39.93.93,0,0,0-.28-.28.78.78,0,0,0-.41-.11.66.66,0,0,0-.37.1.75.75,0,0,0-.27.26,1.38,1.38,0,0,0-.16.39A2.26,2.26,0,0,0,136.72,71.84Zm4.64,2.59v-4.9h.53v4.86Z" transform="translate(-13 -27)"/><path class="cls-2" d="M145,71.31a2.35,2.35,0,0,1,.08-.6,1.42,1.42,0,0,1,.25-.49,1.22,1.22,0,0,1,.44-.33,1.41,1.41,0,0,1,.64-.13,1.2,1.2,0,0,1,.66.17,1.27,1.27,0,0,1,.42.41,1.46,1.46,0,0,1,.23.51,2.15,2.15,0,0,1,.07.46,2.23,2.23,0,0,1-.06.47,1.62,1.62,0,0,1-.21.51,1.38,1.38,0,0,1-.43.4,1.31,1.31,0,0,1-.69.16,1.48,1.48,0,0,1-.67-.14,1.19,1.19,0,0,1-.42-.38,1.54,1.54,0,0,1-.24-.5A2.49,2.49,0,0,1,145,71.31Zm.5,0a1.5,1.5,0,0,0,.07.44,1,1,0,0,0,.2.32.86.86,0,0,0,.29.21.64.64,0,0,0,.34.09.82.82,0,0,0,.35-.08.79.79,0,0,0,.28-.23,1.06,1.06,0,0,0,.18-.33,1.42,1.42,0,0,0,.06-.42,1.29,1.29,0,0,0-.24-.75.78.78,0,0,0-.63-.31.87.87,0,0,0-.37.08,1.05,1.05,0,0,0-.28.24,1.56,1.56,0,0,0-.18.34A1.67,1.67,0,0,0,145.48,71.31ZM150,76.15h-.67l.12-1.76h-3.86v-.52h4.13l.28.33Zm-.11-6.94v4.1h-.56V69.2Z" transform="translate(-13 -27)"/><path class="cls-2" d="M154.45,72.87V74H156l.28.32v1.88h-.56V74.56H152V74h1.86v-1.1h-2.55l0-.5h5.45v.44Zm-2.17-1.36,1.49-1.69V68.76h.53v1.06l1.62,1.47-.29.41-1.57-1.42-1.39,1.57Z" transform="translate(-13 -27)"/><path class="cls-2" d="M157.89,71.68a2.07,2.07,0,0,1,.09-.46.83.83,0,0,1,.27-.38l-.87-.09.07-.49,1.68.17.09-1.06.51,0-.07,1.08,1.42.14-.05.5-.78-.07a.84.84,0,0,1,.17.37,2.08,2.08,0,0,1,.05.4,1.54,1.54,0,0,1-.13.49,1.91,1.91,0,0,1-.28.4,1.42,1.42,0,0,1-.38.26,1.07,1.07,0,0,1-.43.09,1.33,1.33,0,0,1-.71-.16,1.14,1.14,0,0,1-.41-.37,1.22,1.22,0,0,1-.19-.46A2.38,2.38,0,0,1,157.89,71.68Zm.5,0s0,0,0,.07a.66.66,0,0,0,.06.27.76.76,0,0,0,.15.26,1.12,1.12,0,0,0,.24.19.72.72,0,0,0,.33.07.74.74,0,0,0,.34-.07.94.94,0,0,0,.25-.18.72.72,0,0,0,.15-.27.81.81,0,0,0,0-.31.72.72,0,0,0-.22-.56.77.77,0,0,0-.57-.21.72.72,0,0,0-.53.21A.82.82,0,0,0,158.39,71.68Zm.2,2.19h.49v.66H162v-.68l.5,0v2.33h-3.53l-.33-.15ZM162,75.68v-.75h-2.92v.8Zm-.23-6.06h.53v1.67h1.22v.53H162.3v1.49h-.57Z" transform="translate(-13 -27)"/><path class="cls-2" d="M167.63,72.78v.5h-3.1l-.22-.33v-3.2h.53v3Zm1,1.59V69h.64v5.34Z" transform="translate(-13 -27)"/><path class="cls-2" d="M173.55,73.09v.51h-2.89l-.24-.29V70.12h2.71v.58H171V73Zm1.56,1.59h-.58V69.34h.61v2.41h1.34v.51h-1.37Z" transform="translate(-13 -27)"/><path class="cls-2" d="M177.89,74l-.42.58-.66-.67.44-.53Z" transform="translate(-13 -27)"/><path class="cls-2" d="M21.47,81a2.21,2.21,0,0,1,.08-.59,1.31,1.31,0,0,1,.25-.5,1.18,1.18,0,0,1,.43-.33,1.6,1.6,0,0,1,.65-.13,1.14,1.14,0,0,1,.63.17,1.72,1.72,0,0,1,.42.38H26V78.81h.54v4.1H26v-1H24a1.44,1.44,0,0,1-.43.46,1.32,1.32,0,0,1-.73.18,1.29,1.29,0,0,1-.66-.15,1.19,1.19,0,0,1-.43-.37,1.67,1.67,0,0,1-.23-.51A2,2,0,0,1,21.47,81Zm.5,0a1.2,1.2,0,0,0,.07.44,1.06,1.06,0,0,0,.19.33,1,1,0,0,0,.29.21.81.81,0,0,0,.34.08.77.77,0,0,0,.63-.3,1.3,1.3,0,0,0,.24-.83,1.09,1.09,0,0,0-.06-.36.93.93,0,0,0-.46-.54.68.68,0,0,0-.35-.09.69.69,0,0,0-.36.09,1,1,0,0,0-.28.23,1,1,0,0,0-.18.34A1.34,1.34,0,0,0,22,81Zm1.42,3.55a1,1,0,0,1,.1-.45,1,1,0,0,1,.3-.37,1.37,1.37,0,0,1,.48-.25,2.61,2.61,0,0,1,1.36,0,1.42,1.42,0,0,1,.49.25,1.17,1.17,0,0,1,.3.37,1.14,1.14,0,0,1,.1.45,1.19,1.19,0,0,1-.1.46,1.17,1.17,0,0,1-.3.37,1.42,1.42,0,0,1-.49.25,2.61,2.61,0,0,1-1.36,0,1.37,1.37,0,0,1-.48-.25,1,1,0,0,1-.3-.37A1,1,0,0,1,23.39,84.52Zm2.58,0A.59.59,0,0,0,25.7,84a1.26,1.26,0,0,0-.75-.2,1.24,1.24,0,0,0-.75.2.58.58,0,0,0-.26.49.6.6,0,0,0,.26.5,1.24,1.24,0,0,0,.75.2,1.26,1.26,0,0,0,.75-.2A.61.61,0,0,0,26,84.52Zm-1.8-4a1.38,1.38,0,0,1,.06.26,2,2,0,0,1,0,.22,1.41,1.41,0,0,1,0,.2.88.88,0,0,1,0,.21l1.78,0v-.89Z" transform="translate(-13 -27)"/><path class="cls-2" d="M27.84,81.83a3.25,3.25,0,0,1,.07-.59,1.8,1.8,0,0,1,.23-.58,1.32,1.32,0,0,1,.43-.45,1.23,1.23,0,0,1,.7-.18,1.18,1.18,0,0,1,.55.12,1.27,1.27,0,0,1,.41.31,1.49,1.49,0,0,1,.26.42,2.21,2.21,0,0,1,.15.48H32.7V79.42h.49v5.33h-.42V81.88l-2.08,0a3.09,3.09,0,0,1-.08.59,2.06,2.06,0,0,1-.23.57,1.36,1.36,0,0,1-.44.42,1.22,1.22,0,0,1-.67.17,1.26,1.26,0,0,1-1.12-.6,2,2,0,0,1-.24-.58A3.26,3.26,0,0,1,27.84,81.83Zm.52,0a2.12,2.12,0,0,0,0,.42,1.23,1.23,0,0,0,.14.42,1,1,0,0,0,.28.33.75.75,0,0,0,.45.13.74.74,0,0,0,.44-.13,1,1,0,0,0,.28-.33,1.23,1.23,0,0,0,.14-.42,2.23,2.23,0,0,0,0-.84A1.5,1.5,0,0,0,30,81a1,1,0,0,0-.27-.33.79.79,0,0,0-.44-.13.81.81,0,0,0-.46.13,1,1,0,0,0-.28.33,1.48,1.48,0,0,0-.14.42A3.19,3.19,0,0,0,28.36,81.83Z" transform="translate(-13 -27)"/><path class="cls-2" d="M35.64,79h3.09V81H35.92v1.09h3.13v.42H37.43V84h2.45v.57H34.41v-.64h2.51V82.53H35.75l-.37-.31V80.46H38.2v-.94H35.64Z" transform="translate(-13 -27)"/><path class="cls-2" d="M47.08,83.1v.64h-4.2V83.1Zm-.85-2.22a1.91,1.91,0,0,1-.1.66,1.39,1.39,0,0,1-.29.47,1.13,1.13,0,0,1-.41.27,1.39,1.39,0,0,1-.5.09,1.75,1.75,0,0,1-.64-.11,1.2,1.2,0,0,1-.44-.31,1.34,1.34,0,0,1-.27-.44,1.61,1.61,0,0,1-.09-.54,2.09,2.09,0,0,1,.06-.47,1.39,1.39,0,0,1,.22-.5,1.48,1.48,0,0,1,.43-.39,1.49,1.49,0,0,1,.71-.15,1.37,1.37,0,0,1,.49.09,1.34,1.34,0,0,1,.42.28,1.42,1.42,0,0,1,.3.45A1.57,1.57,0,0,1,46.23,80.88Zm-2.21,0v.08a.83.83,0,0,0,.86.94.8.8,0,0,0,.62-.25,1.22,1.22,0,0,0,.16-1.08.87.87,0,0,0-.16-.3.67.67,0,0,0-.26-.21.68.68,0,0,0-.36-.08.81.81,0,0,0-.35.07.9.9,0,0,0-.27.21,1.05,1.05,0,0,0-.17.29A.78.78,0,0,0,44,80.86Zm4.17-1.64v5.39h-.64V79.22Z" transform="translate(-13 -27)"/><path class="cls-2" d="M49.28,83.85l-.37-.38,1.34-1.94.11-1.7h.5v1.69l1.5,1.87-.28.38-1.56-1.72Zm4.42,1.07-.57,0V79.27h.64v2.4H55v.5H53.7Z" transform="translate(-13 -27)"/><path class="cls-2" d="M60.8,84h2.45v.56H57.78V84H60.3V82.38l.5,0Zm-2.24-1.9,1.57-1.79V79.08h.56v1.23l1.65,1.52-.28.41L60.44,80.8,59,82.47Z" transform="translate(-13 -27)"/><path class="cls-2" d="M68.67,81.17v.52H67.26v.83h2.43v.54H64.22v-.59h2.51v-.82h-1l-.3-.35V78.86h3v.41H65.91V80h2.5v.45h-2.5v.7ZM65.5,84.6a1,1,0,0,1,.1-.45,1,1,0,0,1,.29-.37,1.51,1.51,0,0,1,.49-.25,2.61,2.61,0,0,1,1.36,0,1.42,1.42,0,0,1,.49.25,1.17,1.17,0,0,1,.3.37,1.14,1.14,0,0,1,.1.45,1.19,1.19,0,0,1-.1.46,1.17,1.17,0,0,1-.3.37,1.61,1.61,0,0,1-.49.25,2.61,2.61,0,0,1-1.36,0,1.74,1.74,0,0,1-.49-.25,1,1,0,0,1-.29-.37A1,1,0,0,1,65.5,84.6Zm2.58,0a.58.58,0,0,0-.27-.49,1.19,1.19,0,0,0-.75-.2,1.16,1.16,0,0,0-.75.2.57.57,0,0,0-.26.49.61.61,0,0,0,.26.5,1.22,1.22,0,0,0,.75.2,1.26,1.26,0,0,0,.75-.2A.62.62,0,0,0,68.08,84.6Z" transform="translate(-13 -27)"/><path class="cls-2" d="M72.94,78.89h2.61V82.1H73.17l-.25-.3Zm2.09.52H73.45V81.5H75Zm2.85,4.47H76.5v.45l1.33,1-.3.38-1.3-.94-1.29.92-.36-.39L76,84.35v-.44H74.5v-.49H76V82.5h.54v.92h1.36Zm-.24-5.21v3.52h-.56v-3.5Z" transform="translate(-13 -27)"/><path class="cls-2" d="M81.06,79.66h2.33v1.39h1.3V79.3h.51v4.5l-.48,0V81.58H83.37v1.59H81.3l-.25-.29Zm1.78.55H81.61v2.35h1.2ZM86.05,84v-4.9h.53V84Z" transform="translate(-13 -27)"/><path class="cls-2" d="M87.56,80.46a2.35,2.35,0,0,1,.08-.6,1.32,1.32,0,0,1,.24-.49A1.19,1.19,0,0,1,88.3,79a1.56,1.56,0,0,1,.64-.12,1.24,1.24,0,0,1,.66.16,1.42,1.42,0,0,1,.41.4,1.62,1.62,0,0,1,.21.51,2.17,2.17,0,0,1,.06.48,3.19,3.19,0,0,1-.08.46,1.39,1.39,0,0,1-.2.51,1.18,1.18,0,0,1-.4.4,1.16,1.16,0,0,1-.68.17,1.39,1.39,0,0,1-.65-.14,1.26,1.26,0,0,1-.42-.37,1.59,1.59,0,0,1-.22-.5A2,2,0,0,1,87.56,80.46Zm.5,0a1.07,1.07,0,0,0,.25.76.89.89,0,0,0,.61.3.6.6,0,0,0,.35-.1.78.78,0,0,0,.27-.24,1.27,1.27,0,0,0,.17-.35,1.45,1.45,0,0,0,.06-.41,1.15,1.15,0,0,0-.06-.37,1.29,1.29,0,0,0-.17-.33.87.87,0,0,0-.27-.23.79.79,0,0,0-.35-.1.74.74,0,0,0-.36.09.85.85,0,0,0-.26.24,1,1,0,0,0-.17.34A1.76,1.76,0,0,0,88.06,80.46Zm1.5,2.67v-.49h2.77l.14,1.74-2.77.18v.79h3.58l0,.46H89.38l-.27-.15.11-1.56h2.69v-1Zm3-4.46v3.52H92v-3.5Z" transform="translate(-13 -27)"/><path class="cls-2" d="M98.75,79.22v.5H97.67v.83l1.55,1.58-.31.4-1.5-1.42-1.25,1.58-.39-.41,1.32-1.72v-.84H95.84v-.51Zm2.19,6.53h-.56V84H96.53v-.52h4.13l.28.33Zm-.92-7h.53v1.67h1.22V81h-1.22v2H100Z" transform="translate(-13 -27)"/><path class="cls-2" d="M102.2,82.58l1.32-2.12V79l.46,0v1.38l1.72,1.68-.28.41L103.86,81l-1.22,1.9Zm2.16,1.94a1,1,0,0,1,.1-.45,1,1,0,0,1,.29-.37,1.51,1.51,0,0,1,.49-.25,2.29,2.29,0,0,1,.68-.09,2.33,2.33,0,0,1,.68.09,1.42,1.42,0,0,1,.49.25,1.17,1.17,0,0,1,.3.37,1.13,1.13,0,0,1,.09.45,1.18,1.18,0,0,1-.09.46,1.17,1.17,0,0,1-.3.37,1.42,1.42,0,0,1-.49.25,2.33,2.33,0,0,1-.68.09,2.29,2.29,0,0,1-.68-.09,1.51,1.51,0,0,1-.49-.25,1,1,0,0,1-.29-.37A1,1,0,0,1,104.36,84.52Zm2.58,0a.59.59,0,0,0-.27-.49,1.26,1.26,0,0,0-.75-.2,1.22,1.22,0,0,0-.75.2.58.58,0,0,0-.26.49.6.6,0,0,0,.26.5,1.22,1.22,0,0,0,.75.2,1.26,1.26,0,0,0,.75-.2A.61.61,0,0,0,106.94,84.52Zm.54-5.72v4.06l-.5,0V80.63h-1.87v-.5H107V78.81Z" transform="translate(-13 -27)"/><path class="cls-2" d="M113.86,79.46l-.16.48h1.74V78.77H116v4.09h-.48V81.72h-2.33l-.36,1.14-.53-.11,1-3.08h-2.28l0-.61h2.63Zm-1,5.06a1,1,0,0,1,.1-.45,1,1,0,0,1,.29-.37,1.51,1.51,0,0,1,.49-.25,2.29,2.29,0,0,1,.68-.09,2.33,2.33,0,0,1,.68.09,1.42,1.42,0,0,1,.49.25,1.17,1.17,0,0,1,.3.37,1.13,1.13,0,0,1,.09.45,1.18,1.18,0,0,1-.09.46,1.17,1.17,0,0,1-.3.37,1.42,1.42,0,0,1-.49.25,2.33,2.33,0,0,1-.68.09,2.29,2.29,0,0,1-.68-.09,1.51,1.51,0,0,1-.49-.25,1,1,0,0,1-.29-.37A1,1,0,0,1,112.83,84.52Zm.72-4.1-.25.8h2.15v-.78Zm1.86,4.1a.59.59,0,0,0-.27-.49,1.26,1.26,0,0,0-.75-.2,1.22,1.22,0,0,0-.75.2.58.58,0,0,0-.26.49.6.6,0,0,0,.26.5,1.22,1.22,0,0,0,.75.2,1.26,1.26,0,0,0,.75-.2A.61.61,0,0,0,115.41,84.52Z" transform="translate(-13 -27)"/><path class="cls-2" d="M117.45,81.05a2.37,2.37,0,0,1,.09-.45.88.88,0,0,1,.27-.44l-.67-.1.06-.42,1.49.17.09-1.15.49,0-.08,1.14,1.26.14,0,.43-.65-.06a1.36,1.36,0,0,1,.19.41,2,2,0,0,1,0,.44,1.25,1.25,0,0,1-.11.53,1.35,1.35,0,0,1-.3.4,1.1,1.1,0,0,1-.42.24,1.27,1.27,0,0,1-.47.09,1.37,1.37,0,0,1-.61-.16,1.27,1.27,0,0,1-.38-.34,1.23,1.23,0,0,1-.21-.41,1.51,1.51,0,0,1,0-.4Zm.18,2.42H123v2.34h-5.08l-.23-.21Zm.31-2.45a.13.13,0,0,0,0,.06v0a.93.93,0,0,0,0,.29.72.72,0,0,0,.15.27.75.75,0,0,0,.56.27.94.94,0,0,0,.34-.07.89.89,0,0,0,.27-.17.7.7,0,0,0,.17-.25.73.73,0,0,0,.06-.3.94.94,0,0,0-.23-.69.9.9,0,0,0-.64-.23.64.64,0,0,0-.48.2A.94.94,0,0,0,117.94,81Zm.29,3v1.38h4.27V84Zm4.29-4.7v3.64H122V81.25h-1.46v-.5H122V79.28Z" transform="translate(-13 -27)"/><path class="cls-2" d="M123.86,81.25a2.55,2.55,0,0,1,.07-.59,2,2,0,0,1,.22-.59,1.35,1.35,0,0,1,.44-.45,1.22,1.22,0,0,1,.69-.18,1.17,1.17,0,0,1,.67.18,1.35,1.35,0,0,1,.44.45,1.6,1.6,0,0,1,.24.59,2.55,2.55,0,0,1,.07.59,2.66,2.66,0,0,1-.07.61,1.55,1.55,0,0,1-.24.58,1.32,1.32,0,0,1-.44.44,1.26,1.26,0,0,1-.67.17,1.28,1.28,0,0,1-.67-.17,1.42,1.42,0,0,1-.44-.44,2,2,0,0,1-.24-.58A2.66,2.66,0,0,1,123.86,81.25Zm.52,0a3.19,3.19,0,0,0,0,.42,1.81,1.81,0,0,0,.14.43,1,1,0,0,0,.28.32.73.73,0,0,0,.45.13.68.68,0,0,0,.44-.13,1,1,0,0,0,.28-.32,1.46,1.46,0,0,0,.15-.43,3.29,3.29,0,0,0,0-.42,2.18,2.18,0,0,0,0-.42,1.23,1.23,0,0,0-.14-.42,1,1,0,0,0-.28-.33.74.74,0,0,0-.44-.12.81.81,0,0,0-.46.12,1,1,0,0,0-.27.33,1.23,1.23,0,0,0-.14.42A3.19,3.19,0,0,0,124.38,81.25ZM128.2,84V78.63h.64V84Z" transform="translate(-13 -27)"/><path class="cls-2" d="M132.22,84.92V82.85h.58v1.82h1.87v.46h-2.23Zm0-6h2.61V82.1h-2.38l-.25-.3Zm2.09.52h-1.57V81.5h1.54Zm3.22,4.33h-2.95v-.46h1.3V82.5h.51v.77h1.16Zm-1.56.2h.21a1.42,1.42,0,0,1,.48.08,1.33,1.33,0,0,1,.33.21.89.89,0,0,1,.2.29.78.78,0,0,1,.07.33.81.81,0,0,1-.11.41,1.14,1.14,0,0,1-.27.31,1.43,1.43,0,0,1-.37.19,1.4,1.4,0,0,1-.41.06,1.16,1.16,0,0,1-.42-.07,1.39,1.39,0,0,1-.36-.2,1.18,1.18,0,0,1-.25-.3.81.81,0,0,1-.09-.37.71.71,0,0,1,.05-.27.88.88,0,0,1,.17-.29,1.06,1.06,0,0,1,.3-.24A1.24,1.24,0,0,1,136,83.94Zm.81.8a.44.44,0,0,0-.17-.27.6.6,0,0,0-.36-.09.84.84,0,0,0-.58.16.45.45,0,0,0-.18.34.44.44,0,0,0,.16.33.61.61,0,0,0,.44.14.75.75,0,0,0,.53-.17.55.55,0,0,0,.17-.37v0A0,0,0,0,1,136.81,84.74Zm-.54-6.24h.53v1.61H138v.53h-1.24v1.55h-.55Z" transform="translate(-13 -27)"/><path class="cls-2" d="M144.22,82.71h-5.5l0-.44h5.45Zm-4.67.64v0h.5l.06.85h2.95L143,83.3l.49,0,.19,2.48H140l-.33-.15Zm.15-2.24,1.49-1.69V78.36h.53v1.06l1.62,1.47-.29.41-1.57-1.42-1.39,1.58Zm3.44,4.22,0-.78h-2.93v.78Z" transform="translate(-13 -27)"/><path class="cls-2" d="M148.56,82.38v.5h-3.09l-.22-.33v-3.2h.53v3Zm1,1.59V78.63h.64V84Z" transform="translate(-13 -27)"/><path class="cls-2" d="M154.48,82.69v.52h-2.89l-.23-.3V79.72h2.7v.58h-2.15v2.34Zm1.57,1.59h-.58V78.94h.61v2.41h1.34v.51h-1.37Z" transform="translate(-13 -27)"/><path class="cls-2" d="M158.83,83.64l-.42.58-.66-.67.44-.53Z" transform="translate(-13 -27)"/><polygon class="cls-1" points="86.22 79.72 79.02 69.42 93.98 68.63 86.22 79.72"/></svg>