<svg id="레이어_1" data-name="레이어 1" xmlns="http://www.w3.org/2000/svg" viewBox="0 0 556.16 21.01"><defs><style>.cls-1{fill:#fcf6f5;}</style></defs><title>footer</title><path class="cls-1" d="M7,115.32a3.29,3.29,0,0,1-1.44,1.36,5,5,0,0,1-2.38.56,6.15,6.15,0,0,1-2.11-.34,4.69,4.69,0,0,1-1.61-1,4.34,4.34,0,0,1-1-1.52,5.59,5.59,0,0,1,.09-4.17A5.17,5.17,0,0,1-.3,108.56a5.24,5.24,0,0,1,1.73-1.09,5.53,5.53,0,0,1,2.05-.39,4,4,0,0,1,2.41.61A2.85,2.85,0,0,1,6.94,109a1.07,1.07,0,0,1-.12.92.86.86,0,0,1-.74.34.93.93,0,0,1-.82-.38,1.91,1.91,0,0,1-.32-.76,1.15,1.15,0,0,0-.13-.37.87.87,0,0,0-.27-.27,2,2,0,0,0-.58-.25,3.35,3.35,0,0,0-.78-.07,2.48,2.48,0,0,0-1.24.31,3.17,3.17,0,0,0-1,.83,3.91,3.91,0,0,0-.63,1.22A4.53,4.53,0,0,0,.14,112a4.31,4.31,0,0,0,.27,1.55,4,4,0,0,0,.73,1.23,3.32,3.32,0,0,0,1.12.81,3.38,3.38,0,0,0,1.38.29,5.38,5.38,0,0,0,1.47-.2,2.89,2.89,0,0,0,1.17-.64.79.79,0,0,1,.32-.23.45.45,0,0,1,.34,0,.27.27,0,0,1,.11.21A.56.56,0,0,1,7,115.32Z" transform="translate(1.96 -101.31)"/><path class="cls-1" d="M13.52,106.24a4.1,4.1,0,0,1,1.83.42,4.7,4.7,0,0,1,1.48,1.14,5.14,5.14,0,0,1,1,1.69,6.19,6.19,0,0,1,.35,2.09,6.88,6.88,0,0,1-.19,1.64,6.19,6.19,0,0,1-.56,1.49,4.9,4.9,0,0,1-.94,1.23,3.86,3.86,0,0,1-1.33.82,3.35,3.35,0,0,1-1.58.57,3.68,3.68,0,0,1-1.58-.15,5.22,5.22,0,0,1-1.88-1,5.1,5.1,0,0,1-1.16-1.48,5.63,5.63,0,0,1-.56-1.74,8.73,8.73,0,0,1-.08-1.84,4.67,4.67,0,0,1,.29-1.34,6.74,6.74,0,0,1,.63-1.26,6.16,6.16,0,0,1,.84-1,3.74,3.74,0,0,1,.92-.7,3.58,3.58,0,0,1,1-.41,1.5,1.5,0,0,1,.73,0A2.71,2.71,0,0,1,13.52,106.24Zm-1,2.38a3.76,3.76,0,0,0-1.28,3.14,4.17,4.17,0,0,0,.39,1.57,2.83,2.83,0,0,0,1,1.17h.16a2.45,2.45,0,0,0,1.08-.23,2,2,0,0,0,.76-.63,2.87,2.87,0,0,0,.45-.93,4,4,0,0,0,.15-1.11,3.61,3.61,0,0,0-.19-1.21,2.79,2.79,0,0,0-.54-.94,2.5,2.5,0,0,0-.85-.61,2.64,2.64,0,0,0-1.1-.22Z" transform="translate(1.96 -101.31)"/><path class="cls-1" d="M24,106.52a5.51,5.51,0,0,1,1.9.46,6,6,0,0,1,1.63,1,5.39,5.39,0,0,1,1.14,1.47,3.78,3.78,0,0,1,.43,1.79,4.49,4.49,0,0,1-.45,2,4.79,4.79,0,0,1-1.26,1.58,6.36,6.36,0,0,1-1.94,1.07,8.89,8.89,0,0,1-2.53.48v2.16c0,.39,0,.76-.05,1.13a3.15,3.15,0,0,1-.83,1.89,5,5,0,0,1-.88.72c-.12-.27-.28-.58-.47-.94s-.34-.66-.45-.9a4.57,4.57,0,0,1-.34-1.68c0-.61,0-1.2,0-1.76,0-.28,0-.53,0-.76s0-.45,0-.66,0-.43,0-.66v-.76c0-.49,0-1,0-1.52s0-1,0-1.48,0-.9,0-1.29,0-.72,0-1a1.44,1.44,0,0,1-.21-.34c-.07-.15-.13-.27-.17-.38s-.11-.28-.16-.44a2,2,0,0,1-.09-.47.89.89,0,0,1,.08-.43.69.69,0,0,1,.35-.32.46.46,0,0,1,.4,0,1,1,0,0,0,.5,0c.6-.07,1.17-.1,1.71-.11S23.44,106.48,24,106.52Zm2,4.94a1.83,1.83,0,0,0-.17-.87,2.32,2.32,0,0,0-.53-.72,2.69,2.69,0,0,0-.82-.5,2.9,2.9,0,0,0-1-.21h-.58v2.2c0,.83,0,1.66,0,2.5a8.4,8.4,0,0,0,1.15-.28,3.79,3.79,0,0,0,1-.46,2.35,2.35,0,0,0,.68-.69A2.13,2.13,0,0,0,26.06,111.46Z" transform="translate(1.96 -101.31)"/><path class="cls-1" d="M40.12,106.68a1.15,1.15,0,0,1,.38.49,1.23,1.23,0,0,1,0,.67,10.88,10.88,0,0,1-.31,1.08c-.17.52-.37,1.13-.62,1.83s-.53,1.45-.84,2.26-.64,1.6-1,2.37c-.16.39-.3.73-.43,1s-.26.58-.39.85-.27.54-.42.83-.33.61-.54,1-.47.75-.72,1.1a4.88,4.88,0,0,1-.84.91,4,4,0,0,1-1,.62,2.91,2.91,0,0,1-1.15.23,3,3,0,0,1-.57,0,1.45,1.45,0,0,1-.4-.13,1.08,1.08,0,0,1-.31-.26l-.32-.41a5.59,5.59,0,0,0-.78-.87,7.59,7.59,0,0,0-1.08-.85,3.9,3.9,0,0,0,1.8,0,6.9,6.9,0,0,0,1.28-.38,3.24,3.24,0,0,0,1.24-1l.54-.68c-.12-.37-.26-.8-.43-1.27s-.35-1-.54-1.48L32.14,113c-.2-.53-.39-1-.58-1.5s-.36-.91-.53-1.3-.31-.71-.43-.95a9.49,9.49,0,0,0-.58-1,3.13,3.13,0,0,0-.62-.69c-.28-.23-.25-.47.08-.72a1.61,1.61,0,0,1,.28-.15l.44-.18.48-.17.42-.12a5.2,5.2,0,0,1,.61-.07,1,1,0,0,1,.5.09,1.27,1.27,0,0,1,.43.32,2.46,2.46,0,0,1,.38.62q.23.5.54,1.29c.21.53.43,1.09.66,1.69s.45,1.22.68,1.85.43,1.23.62,1.79c.36-.88.67-1.75.94-2.6s.51-1.6.74-2.24a4.87,4.87,0,0,0,.27-1.14,5.82,5.82,0,0,0,0-1.1.67.67,0,0,1,.12-.39.55.55,0,0,1,.48-.25,2.86,2.86,0,0,1,.53.06,6,6,0,0,1,.61.15,3.93,3.93,0,0,1,.55.21A3.5,3.5,0,0,1,40.12,106.68Z" transform="translate(1.96 -101.31)"/><path class="cls-1" d="M49.9,107.8a1.48,1.48,0,0,1,.19.35.53.53,0,0,1,0,.37,2.6,2.6,0,0,1-.16.35,4,4,0,0,1-.24.38c-.09.13-.19.25-.28.36a1.75,1.75,0,0,1-.28.27c-.25.2-.46.26-.61.18a2.56,2.56,0,0,1-.57-.48,2.53,2.53,0,0,0-.5-.42,1.06,1.06,0,0,0-.7-.14,1.53,1.53,0,0,0-.93.46,4.17,4.17,0,0,0-.73,1v2.82c0,.57,0,1.1-.06,1.57a2.8,2.8,0,0,1-.28,1.11c-.13.25-.27.53-.41.84a3.42,3.42,0,0,0-.27.8,5.52,5.52,0,0,1-.85-.62,4.05,4.05,0,0,1-.79-1,2.37,2.37,0,0,1-.31-.79,5.64,5.64,0,0,1-.09-1.11c0-.79,0-1.58,0-2.38s0-1.62,0-2.46a6.19,6.19,0,0,0-.08-.88,3.12,3.12,0,0,0-.26-.76.57.57,0,0,1-.07-.37.73.73,0,0,1,.14-.31,1.05,1.05,0,0,1,.27-.24,2.58,2.58,0,0,1,.32-.18c.25-.13.47-.24.66-.32a1.59,1.59,0,0,1,.51-.13.83.83,0,0,1,.45.11,1.75,1.75,0,0,1,.48.42,2.38,2.38,0,0,1,.5.88,3.07,3.07,0,0,1,2.22-1.08,2.77,2.77,0,0,1,1.49.35A3.56,3.56,0,0,1,49.9,107.8Z" transform="translate(1.96 -101.31)"/><path class="cls-1" d="M52.16,104.74l-.37,0a1.21,1.21,0,0,1-.44-.15,1,1,0,0,1-.35-.33,1,1,0,0,1-.14-.57,1.43,1.43,0,0,1,.35-1,2.72,2.72,0,0,1,.87-.59,2.14,2.14,0,0,1,1-.23,2,2,0,0,1,.74.19.86.86,0,0,1,.48.53,2.71,2.71,0,0,1,.12.61.94.94,0,0,1-.15.55,1.71,1.71,0,0,1-.48.49,2.7,2.7,0,0,1-.72.36A3.13,3.13,0,0,1,52.16,104.74Zm.68,12.88c-.07-.11-.16-.24-.29-.41l-.4-.55a5.88,5.88,0,0,1-.39-.65,2.12,2.12,0,0,1-.22-.73,13,13,0,0,1-.1-1.81c0-.73,0-1.45,0-2.17,0-.32,0-.66,0-1s0-.72,0-1-.06-.66-.1-.93a2.61,2.61,0,0,0-.22-.75.46.46,0,0,1,0-.43,1,1,0,0,1,.35-.31,1.43,1.43,0,0,1,.22-.11l.35-.15.39-.15.34-.11a1.36,1.36,0,0,1,.53,0,.63.63,0,0,1,.41.27,6.19,6.19,0,0,1,.5.85,2.14,2.14,0,0,1,.18.91v2.3c0,.4,0,.77,0,1.1s0,.59,0,.76c0,.73,0,1.37,0,1.91a5.29,5.29,0,0,1-.32,1.57,2.93,2.93,0,0,1-.53.9A9.15,9.15,0,0,1,52.84,117.62Z" transform="translate(1.96 -101.31)"/><path class="cls-1" d="M65.88,106.5a.71.71,0,0,1,.1.39,1.91,1.91,0,0,1-.06.33,3.62,3.62,0,0,0-.12.52,5,5,0,0,0,0,.74c0,.35,0,.77,0,1.28s0,1.06,0,1.65,0,1.21,0,1.84,0,1.25,0,1.85,0,1.16,0,1.67,0,.94-.09,1.29a4.47,4.47,0,0,1-1,2.46,4.13,4.13,0,0,1-2,1.34,5.29,5.29,0,0,1-2.1.15,9.25,9.25,0,0,1-2.06-.49,1.6,1.6,0,0,1-.82-.56,2.88,2.88,0,0,1-.36-.88,9.1,9.1,0,0,0-.34-1,3,3,0,0,0-.58-.88,6.63,6.63,0,0,1,1.56.27c.44.14.92.32,1.44.53a5.05,5.05,0,0,0,1,.32,3.69,3.69,0,0,0,.78.06,1.49,1.49,0,0,0,1.06-.46,2,2,0,0,0,.48-1q.07-.49.12-1.5c-.31.07-.62.12-.93.17a4.84,4.84,0,0,1-.93,0,4.5,4.5,0,0,1-1.87-.41,4.43,4.43,0,0,1-1.41-1,4.52,4.52,0,0,1-.89-1.5,5.31,5.31,0,0,1-.31-1.84,6.62,6.62,0,0,1,.06-.84,6,6,0,0,1,.19-.92,5.46,5.46,0,0,1,.32-.86,2.3,2.3,0,0,1,.43-.64A3.43,3.43,0,0,1,59,107.17a5.55,5.55,0,0,1,2.05-.45,3.69,3.69,0,0,1,.95.09,4.11,4.11,0,0,1,.85.31,1.08,1.08,0,0,1,.15-.38.74.74,0,0,1,.39-.26,4.91,4.91,0,0,1,.78-.2,5.24,5.24,0,0,1,.88-.08,2.21,2.21,0,0,1,.52,0A.51.51,0,0,1,65.88,106.5ZM62,114.1a2.28,2.28,0,0,0,.45,0l.45-.1c0-.76,0-1.51,0-2.25s0-1.4,0-2a2.26,2.26,0,0,0-1.26-.38,2.51,2.51,0,0,0-.84.12,2.62,2.62,0,0,0-.78.4,2.84,2.84,0,0,0-.49.85,2.67,2.67,0,0,0,.15,2.17,2.23,2.23,0,0,0,.6.69,2.56,2.56,0,0,0,.81.4A3.22,3.22,0,0,0,62,114.1Z" transform="translate(1.96 -101.31)"/><path class="cls-1" d="M77.18,109.5c0,.6,0,1.26,0,2v2.22a6.81,6.81,0,0,1-.12,1.36,3.79,3.79,0,0,1-.36,1,2.93,2.93,0,0,1-.61.79,5.44,5.44,0,0,1-.87.64,8.58,8.58,0,0,0-.64-1.32,2.39,2.39,0,0,1-.34-1,6.39,6.39,0,0,1,0-1.17c0-.27,0-.55,0-.85s0-.59,0-.88,0-.56,0-.83,0-.5,0-.7a1.88,1.88,0,0,0-.39-1.18,1.43,1.43,0,0,0-1.09-.5,1.69,1.69,0,0,0-.91.17,6.12,6.12,0,0,0-.91.55c0,.48,0,.94,0,1.39s0,.86,0,1.23,0,.7,0,1V114a6,6,0,0,1-.14,1.33,2.27,2.27,0,0,1-.52,1c-.19.2-.36.4-.53.61a7.68,7.68,0,0,0-.47.65,3,3,0,0,1-1-1.38,5.89,5.89,0,0,1-.36-2.16v-7.43c0-.67,0-1.26,0-1.75s0-.81,0-1a3.6,3.6,0,0,0-.08-.56,2.51,2.51,0,0,0-.2-.56,2.49,2.49,0,0,1-.18-.52c0-.15.07-.29.3-.44a3.88,3.88,0,0,1,.61-.31,3.19,3.19,0,0,1,.67-.19.85.85,0,0,1,.45,0,1.07,1.07,0,0,1,.35.2,2.84,2.84,0,0,1,.71.84,2.6,2.6,0,0,1,.25,1.14c0,.23,0,.67,0,1.32s0,1.4,0,2.24a7.91,7.91,0,0,1,1.41-.59,4.82,4.82,0,0,1,1.27-.21,3.45,3.45,0,0,1,1.3.22,3.73,3.73,0,0,1,1.13.66,3.47,3.47,0,0,1,.81,1A3.1,3.1,0,0,1,77.18,109.5Z" transform="translate(1.96 -101.31)"/><path class="cls-1" d="M84.94,113.84a8,8,0,0,1,1-.38,5.65,5.65,0,0,1,1-.22,5.9,5.9,0,0,0-.63.89,7,7,0,0,0-.47,1,6.14,6.14,0,0,1-.59,1.14,1.62,1.62,0,0,1-.81.68,5.07,5.07,0,0,1-1,.23c-.33.05-.65.08-1,.11a1.51,1.51,0,0,1-.67-.13,2.11,2.11,0,0,1-.65-.45,1.52,1.52,0,0,1-.42-.63,4,4,0,0,1-.2-.81,8.83,8.83,0,0,1-.07-.91c0-.31,0-.63,0-1s0-.81,0-1.39,0-1.29.05-2.13l-.45,0a2.3,2.3,0,0,0-.39,0,4,4,0,0,1-.56,0,.51.51,0,0,1-.4-.2,1.86,1.86,0,0,1-.18-.23,2.59,2.59,0,0,1-.19-.33,2.75,2.75,0,0,1-.15-.36,1.65,1.65,0,0,1-.08-.32.83.83,0,0,1,0-.27,1.18,1.18,0,0,1,.1-.3,1.27,1.27,0,0,1,.18-.27.53.53,0,0,1,.27-.16,5,5,0,0,1,.85-.16l1.09-.1.06-1a2.72,2.72,0,0,0,0-.57,1.41,1.41,0,0,0-.2-.55.6.6,0,0,1-.11-.54,1.09,1.09,0,0,1,.37-.46,2.44,2.44,0,0,1,.55-.38,3.41,3.41,0,0,1,.55-.24.9.9,0,0,1,.46,0,1,1,0,0,1,.42.22,2.74,2.74,0,0,1,.66.77,2.29,2.29,0,0,1,.26.93,5.66,5.66,0,0,1,0,.83c0,.29,0,.58,0,.89l.8,0a5.76,5.76,0,0,1,.66.06,1.66,1.66,0,0,1,.77.25,2.58,2.58,0,0,1,.59.65.75.75,0,0,1,.13.37.46.46,0,0,1-.09.33,4.66,4.66,0,0,1-.59.75.78.78,0,0,1-.67.27c-.23,0-.48-.05-.77-.06l-.91,0-.06,2.36v1c0,.2,0,.4,0,.6s0,.37,0,.52l.74-.2A4.18,4.18,0,0,0,84.94,113.84Z" transform="translate(1.96 -101.31)"/><path class="cls-1" d="M103.12,115.32a6,6,0,0,1-1,1.07,3,3,0,0,1-1,.59,4.93,4.93,0,0,1-1,.71,8.26,8.26,0,0,1-1.25.54,10.2,10.2,0,0,1-1.37.36,8.31,8.31,0,0,1-1.37.15,8.74,8.74,0,0,1-3.37-.55,7.45,7.45,0,0,1-2.64-1.7,7.56,7.56,0,0,1-1.71-2.67,9.35,9.35,0,0,1-.58-3.46,10.9,10.9,0,0,1,.08-1.25,7.52,7.52,0,0,1,.27-1.3,8.57,8.57,0,0,1,.5-1.29,6.57,6.57,0,0,1,.77-1.22A4.09,4.09,0,0,1,91,104a3.87,3.87,0,0,1,1-.83,6.8,6.8,0,0,1,1.3-.63,8.72,8.72,0,0,1,1.46-.4,9.69,9.69,0,0,1,1.48-.16,8.29,8.29,0,0,1,3.3.62,8.63,8.63,0,0,1,2.7,1.76,8.4,8.4,0,0,1,1.84,2.65,8.63,8.63,0,0,1,.72,3.29,6,6,0,0,1-.1,1.25,9.37,9.37,0,0,1-.34,1.31,11.08,11.08,0,0,1-.53,1.3A8.92,8.92,0,0,1,103.12,115.32Zm-7,1.5a10,10,0,0,0,2.09-.22,4.86,4.86,0,0,0,1.91-.86,3.46,3.46,0,0,1,.22-.31,3.73,3.73,0,0,1,.28-.31,7.31,7.31,0,0,0,1.54-2.05,6.16,6.16,0,0,0,.58-2.57,6.06,6.06,0,0,0-.45-2.54,6.47,6.47,0,0,0-3.48-3.54,7.13,7.13,0,0,0-2.67-.58,7.52,7.52,0,0,0-1.16.06,7.72,7.72,0,0,0-2.21.66,4.81,4.81,0,0,0-.91.56c-.11.25-.23.5-.37.75s-.34.56-.61.95a4.8,4.8,0,0,0-.72,1.71,10.09,10.09,0,0,0-.22,1.93,6.78,6.78,0,0,0,.44,2.64,5.77,5.77,0,0,0,1.28,2,5.53,5.53,0,0,0,2,1.27A7,7,0,0,0,96.12,116.82Zm.22-2.06a4.14,4.14,0,0,1-1.73-.33,3.23,3.23,0,0,1-1.22-.93,3.92,3.92,0,0,1-.73-1.44,6.76,6.76,0,0,1-.24-1.86,4.84,4.84,0,0,1,.3-1.73,4,4,0,0,1,.86-1.37,3.77,3.77,0,0,1,1.34-.9,4.61,4.61,0,0,1,1.74-.32,3.23,3.23,0,0,1,.88.1,3.67,3.67,0,0,1,.6.22.75.75,0,0,1,.26.2,1.91,1.91,0,0,1,.2.34c.11.23.21.46.31.71a4.89,4.89,0,0,1,.23.77c0,.11,0,.17,0,.18s-.17-.05-.39-.2a2.71,2.71,0,0,0-.94-.36,3.37,3.37,0,0,0-1-.06,1.68,1.68,0,0,0-.75.26,2.23,2.23,0,0,0-.6.54,2.6,2.6,0,0,0-.4.71,2.49,2.49,0,0,0-.17.81,2.78,2.78,0,0,0,.11,1,2.34,2.34,0,0,0,.39.79,1.8,1.8,0,0,0,.65.54,2,2,0,0,0,.89.2,3.79,3.79,0,0,0,1.67-.38,9.72,9.72,0,0,0,1.41-.84,4.14,4.14,0,0,0-.42,1c-.11.36-.22.73-.32,1.12a1.66,1.66,0,0,1-.13.38.88.88,0,0,1-.19.24,1,1,0,0,1-.31.17l-.51.19a5.9,5.9,0,0,1-.81.21A5.21,5.21,0,0,1,96.34,114.76Z" transform="translate(1.96 -101.31)"/><path class="cls-1" d="M120,114.14a6,6,0,0,0,1.13-.14l.53-.16a3.56,3.56,0,0,1-.1.49c-.06.18-.14.4-.24.65l-.24.57a3,3,0,0,1-.35.6,2.11,2.11,0,0,1-.53.5,1.85,1.85,0,0,1-.8.27c-.22,0-.53,0-1,0L117,117H112.2a.65.65,0,0,1-.58-.36,1.78,1.78,0,0,1-.26-.92,1.15,1.15,0,0,1,.62-1.18c.66-.88,1.34-1.71,2-2.49a30,30,0,0,1,2.23-2.31,4.44,4.44,0,0,0,1.72-3.12,1.59,1.59,0,0,0-.45-1.16,1.49,1.49,0,0,0-1.15-.44,2.1,2.1,0,0,0-1.32.47c-.38.3-.75.62-1.12,1a.57.57,0,0,1-.74.11,4.62,4.62,0,0,1-1-1.07,1.36,1.36,0,0,1-.25-.44.62.62,0,0,1,0-.33.5.5,0,0,1,.17-.27l.29-.28a7.34,7.34,0,0,1,1.18-.88,5.69,5.69,0,0,1,3.18-.88,3.85,3.85,0,0,1,4.14,4,5.56,5.56,0,0,1-.47,2.45,7.12,7.12,0,0,1-1.67,2.21c-.64.57-1.22,1.12-1.73,1.64a19.87,19.87,0,0,0-1.41,1.56l1,0h1.16l1.16,0Q119.48,114.19,120,114.14Z" transform="translate(1.96 -101.31)"/><path class="cls-1" d="M133.36,108.36a13.78,13.78,0,0,1,0,2.88,9.83,9.83,0,0,1-.59,2.43,7,7,0,0,1-1.1,1.89,4.73,4.73,0,0,1-1.55,1.22,2.29,2.29,0,0,1-.94.24,2.2,2.2,0,0,1-1.38.38,4,4,0,0,1-2.16-.65A5.7,5.7,0,0,1,124,115.1a7.59,7.59,0,0,1-1-2.31,8.25,8.25,0,0,1-.29-2.61,9.56,9.56,0,0,1,.29-2,11,11,0,0,1,.67-1.93,9.27,9.27,0,0,1,1-1.66,5.48,5.48,0,0,1,1.19-1.21.42.42,0,0,1,.1-.2,2.41,2.41,0,0,1,.86-.59,3,3,0,0,1,1-.15,4.59,4.59,0,0,1,2,.48,6.24,6.24,0,0,1,1.75,1.29,7.09,7.09,0,0,1,1.27,1.9A7,7,0,0,1,133.36,108.36Zm-5,6.22a2.2,2.2,0,0,0,1-.63,4.1,4.1,0,0,0,.72-1.15,7.17,7.17,0,0,0,.43-1.54,9.76,9.76,0,0,0,.1-1.82,6.62,6.62,0,0,0-.26-1.51,5.45,5.45,0,0,0-.6-1.29,4.08,4.08,0,0,0-.9-1,3.7,3.7,0,0,0-1.14-.61,3.9,3.9,0,0,0-.66.74,8,8,0,0,0-.69,1.18,8.09,8.09,0,0,0-.55,1.48,6.53,6.53,0,0,0-.24,1.66q-.06,3.6,2.36,4.32a2.41,2.41,0,0,1,.42.18h0S128.34,114.58,128.36,114.58Z" transform="translate(1.96 -101.31)"/><path class="cls-1" d="M143.28,114.14a5.88,5.88,0,0,0,1.13-.14l.53-.16a3.56,3.56,0,0,1-.1.49,5,5,0,0,1-.24.65l-.24.57a3,3,0,0,1-.35.6,2.11,2.11,0,0,1-.53.5,1.85,1.85,0,0,1-.8.27c-.22,0-.53,0-1,0l-1.39,0h-4.82a.65.65,0,0,1-.58-.36,1.78,1.78,0,0,1-.26-.92,1.16,1.16,0,0,1,.62-1.18c.66-.88,1.34-1.71,2-2.49a30,30,0,0,1,2.23-2.31,4.44,4.44,0,0,0,1.72-3.12,1.59,1.59,0,0,0-.45-1.16,1.47,1.47,0,0,0-1.15-.44,2.1,2.1,0,0,0-1.32.47c-.38.3-.75.62-1.12,1a.57.57,0,0,1-.74.11,4.85,4.85,0,0,1-1-1.07,1.36,1.36,0,0,1-.25-.44.62.62,0,0,1,0-.33.56.56,0,0,1,.17-.27l.29-.28a7.34,7.34,0,0,1,1.18-.88,5.71,5.71,0,0,1,3.18-.88,3.85,3.85,0,0,1,4.14,4,5.42,5.42,0,0,1-.47,2.45A7.12,7.12,0,0,1,142,111c-.64.57-1.22,1.12-1.73,1.64s-1,1-1.41,1.56l1,0h1.16l1.16,0Q142.8,114.19,143.28,114.14Z" transform="translate(1.96 -101.31)"/><path class="cls-1" d="M154,115.32a2.41,2.41,0,0,1,.28.65.67.67,0,0,1,0,.53c-.23.39-.75.57-1.58.56l-2.5-.1c-.32,0-.6,0-.85,0l-.71,0-.7,0-.84.07a.73.73,0,0,1-.35,0,.72.72,0,0,1-.27-.26,3.59,3.59,0,0,1-.34-.61,1.79,1.79,0,0,1-.18-.75,1,1,0,0,1,.21-.64,1,1,0,0,1,.55-.34,5.28,5.28,0,0,1,1-.12l1.14,0a3.69,3.69,0,0,1,0-.58V108a8.85,8.85,0,0,0,0-1c0-.36,0-.71,0-1a1.23,1.23,0,0,1-.26.12l-.45.19a2.64,2.64,0,0,1-.46.13,1,1,0,0,1-.43,0,.79.79,0,0,1-.38-.22,3.42,3.42,0,0,1-.4-.52c-.12-.19-.23-.39-.34-.6-.19-.36-.13-.61.18-.74l.77-.35,1.05-.48,1-.48.67-.33a1.73,1.73,0,0,1,.69-.23.8.8,0,0,1,.55.23,3.55,3.55,0,0,1,.42.47,2.17,2.17,0,0,1,.34.63.6.6,0,0,1-.12.54,2.78,2.78,0,0,1,.06.58c0,.35,0,.7,0,1.06s0,.71,0,1.06c0,.64,0,1.23,0,1.76s0,1.12,0,1.76,0,1.24,0,1.89a7.2,7.2,0,0,1-.2,1.87h1a1.2,1.2,0,0,1,.84.28A4.13,4.13,0,0,1,154,115.32Z" transform="translate(1.96 -101.31)"/><path class="cls-1" d="M171.78,114.38a4.73,4.73,0,0,1,.15,1,2.88,2.88,0,0,1-.1.78,3,3,0,0,1-.34.72c-.16.23-.34.48-.55.73l-.42-.52a3.53,3.53,0,0,0-.58-.54,2.56,2.56,0,0,1-.61-.77,10.42,10.42,0,0,1-.47-1,4.05,4.05,0,0,1-.22-.55l-.36-.91a3.59,3.59,0,0,1-.48.62.76.76,0,0,1-.54.28,5.35,5.35,0,0,1-.78,0l-.61,0h-.72l-.74,0-.69,0q-.24.66-.42,1.08a5.14,5.14,0,0,1-.36.66,2.91,2.91,0,0,1-.5.56,6.24,6.24,0,0,1-.71.52c-.27.17-.59.35-.95.54a6.46,6.46,0,0,0-.19-.65,4.63,4.63,0,0,1-.19-.56,2.05,2.05,0,0,1-.1-.55,1.73,1.73,0,0,1,.1-.64c.13-.4.31-.88.52-1.45l.68-1.82c.24-.65.49-1.31.75-2s.5-1.34.74-2,.44-1.23.63-1.78.33-1,.44-1.4a3.73,3.73,0,0,0,.05-.5.85.85,0,0,0-.17-.56.36.36,0,0,1,0-.46,1.67,1.67,0,0,1,.24-.32c.09-.11.19-.21.3-.32a1,1,0,0,1,.53-.33,1,1,0,0,1,.63.19l.31.22.27.22a1.63,1.63,0,0,1,.38.56.87.87,0,0,1,.36.13,1.14,1.14,0,0,1,.34.35q.25.42.66,1.26c.27.56.55,1.19.85,1.9s.6,1.44.92,2.21.6,1.49.88,2.17.5,1.28.69,1.8ZM167,111.46l.28,0a1.87,1.87,0,0,1,.3.05l-1.6-4.12c-.19.61-.4,1.26-.62,2s-.46,1.37-.68,2a11.72,11.72,0,0,1,1.2,0C166.31,111.4,166.68,111.42,167,111.46Z" transform="translate(1.96 -101.31)"/><path class="cls-1" d="M174.72,117.62a3.44,3.44,0,0,1-1-1.58,7.23,7.23,0,0,1-.27-2.18v-2.28c0-.49,0-1,0-1.54s0-1,0-1.5,0-.88,0-1.23v-3.09a5,5,0,0,0,0-.59,1.76,1.76,0,0,0-.21-.59,1,1,0,0,1-.16-.47.66.66,0,0,1,.22-.43l.26-.21a3.73,3.73,0,0,1,.39-.25,4.11,4.11,0,0,1,.42-.21,2.78,2.78,0,0,1,.37-.13.88.88,0,0,1,.9.34,4.22,4.22,0,0,1,.64.87,2,2,0,0,1,.22,1c0,.36,0,.72,0,1.07s0,.71,0,1.07v4.24c0,.87,0,1.72,0,2.57s0,1.57,0,2.17a2.7,2.7,0,0,1-.26,1.25,3.87,3.87,0,0,1-.8,1l-.34.33A1.74,1.74,0,0,0,174.72,117.62Z" transform="translate(1.96 -101.31)"/><path class="cls-1" d="M180.1,117.62a3.44,3.44,0,0,1-1-1.58,7.23,7.23,0,0,1-.27-2.18v-2.28c0-.49,0-1,0-1.54s0-1,0-1.5,0-.88,0-1.23v-3.09a5,5,0,0,0,0-.59,1.76,1.76,0,0,0-.21-.59,1,1,0,0,1-.16-.47.66.66,0,0,1,.22-.43l.26-.21a3.73,3.73,0,0,1,.39-.25,4.11,4.11,0,0,1,.42-.21,2.78,2.78,0,0,1,.37-.13.88.88,0,0,1,.9.34,4.22,4.22,0,0,1,.64.87,2,2,0,0,1,.22,1c0,.36,0,.72,0,1.07s0,.71,0,1.07v4.24c0,.87,0,1.72,0,2.57s0,1.57,0,2.17a2.7,2.7,0,0,1-.26,1.25,3.87,3.87,0,0,1-.8,1l-.34.33A1.74,1.74,0,0,0,180.1,117.62Z" transform="translate(1.96 -101.31)"/><path class="cls-1" d="M197.4,107.8a1.48,1.48,0,0,1,.19.35.59.59,0,0,1,0,.37c0,.11-.1.22-.16.35a4,4,0,0,1-.24.38l-.28.36a2.3,2.3,0,0,1-.28.27c-.26.2-.46.26-.61.18a2.18,2.18,0,0,1-.57-.48,2.86,2.86,0,0,0-.5-.42,1.06,1.06,0,0,0-.7-.14,1.53,1.53,0,0,0-.93.46,3.91,3.91,0,0,0-.73,1v2.82c0,.57,0,1.1-.06,1.57a3,3,0,0,1-.28,1.11c-.14.25-.27.53-.41.84a3.42,3.42,0,0,0-.27.8,5.08,5.08,0,0,1-.85-.62,4.05,4.05,0,0,1-.79-1,2.37,2.37,0,0,1-.31-.79,5.64,5.64,0,0,1-.09-1.11c0-.79,0-1.58,0-2.38s0-1.62,0-2.46a8.12,8.12,0,0,0-.08-.88,3.12,3.12,0,0,0-.26-.76.57.57,0,0,1-.07-.37.62.62,0,0,1,.14-.31,1.05,1.05,0,0,1,.27-.24,2,2,0,0,1,.32-.18c.25-.13.47-.24.66-.32a1.48,1.48,0,0,1,.51-.13.83.83,0,0,1,.45.11,2.1,2.1,0,0,1,.48.42,2.52,2.52,0,0,1,.5.88,3,3,0,0,1,1-.75,3.13,3.13,0,0,1,1.27-.33,2.8,2.8,0,0,1,1.49.35A3.65,3.65,0,0,1,197.4,107.8Z" transform="translate(1.96 -101.31)"/><path class="cls-1" d="M199.66,104.74l-.37,0a1.15,1.15,0,0,1-.44-.15,1,1,0,0,1-.35-.33,1,1,0,0,1-.14-.57,1.43,1.43,0,0,1,.35-1,2.72,2.72,0,0,1,.87-.59,2.12,2.12,0,0,1,1-.23,2.07,2.07,0,0,1,.74.19.86.86,0,0,1,.48.53,4.63,4.63,0,0,1,.12.61.94.94,0,0,1-.15.55,2,2,0,0,1-.48.49,2.7,2.7,0,0,1-.72.36A3.19,3.19,0,0,1,199.66,104.74Zm.68,12.88c-.07-.11-.17-.24-.29-.41l-.4-.55a5.88,5.88,0,0,1-.39-.65,1.93,1.93,0,0,1-.22-.73,13,13,0,0,1-.1-1.81c0-.73,0-1.45,0-2.17,0-.32,0-.66,0-1s0-.72,0-1-.06-.66-.1-.93a3,3,0,0,0-.22-.75.43.43,0,0,1,0-.43,1,1,0,0,1,.35-.31,1.43,1.43,0,0,1,.22-.11l.35-.15.39-.15.34-.11a1.35,1.35,0,0,1,.53,0,.65.65,0,0,1,.41.27,6.19,6.19,0,0,1,.5.85,2.14,2.14,0,0,1,.18.91v2.3c0,.4,0,.77,0,1.1s0,.59,0,.76c0,.73,0,1.37,0,1.91a5.62,5.62,0,0,1-.32,1.57,2.93,2.93,0,0,1-.53.9Q200.73,117.25,200.34,117.62Z" transform="translate(1.96 -101.31)"/><path class="cls-1" d="M213.38,106.5a.71.71,0,0,1,.1.39l-.06.33a2.08,2.08,0,0,0-.12.52,5,5,0,0,0,0,.74c0,.35,0,.77,0,1.28s0,1.06,0,1.65,0,1.21,0,1.84,0,1.25,0,1.85,0,1.16,0,1.67-.05.94-.09,1.29a4.54,4.54,0,0,1-1,2.46,4.17,4.17,0,0,1-2,1.34,5.29,5.29,0,0,1-2.1.15,9.25,9.25,0,0,1-2.06-.49,1.56,1.56,0,0,1-.82-.56,2.88,2.88,0,0,1-.36-.88,9.1,9.1,0,0,0-.34-1,3.18,3.18,0,0,0-.58-.88,6.63,6.63,0,0,1,1.56.27c.44.14.92.32,1.44.53a4.69,4.69,0,0,0,1,.32,3.69,3.69,0,0,0,.78.06,1.51,1.51,0,0,0,1.06-.46,2,2,0,0,0,.48-1q.08-.49.12-1.5c-.31.07-.62.12-.93.17a4.92,4.92,0,0,1-.93,0,4.47,4.47,0,0,1-1.87-.41,4.22,4.22,0,0,1-1.41-1,4.36,4.36,0,0,1-.89-1.5,5.31,5.31,0,0,1-.31-1.84A6.62,6.62,0,0,1,204,111a6,6,0,0,1,.19-.92,4.63,4.63,0,0,1,.32-.86,2.1,2.1,0,0,1,.43-.64,3.43,3.43,0,0,1,1.53-1.43,5.51,5.51,0,0,1,2.05-.45,3.69,3.69,0,0,1,.95.09,4.11,4.11,0,0,1,.85.31.8.8,0,0,1,.15-.38.74.74,0,0,1,.39-.26,4.41,4.41,0,0,1,.78-.2,5.14,5.14,0,0,1,.88-.08,2.27,2.27,0,0,1,.52,0A.51.51,0,0,1,213.38,106.5Zm-3.9,7.6a2.42,2.42,0,0,0,.45,0l.45-.1c0-.76,0-1.51,0-2.25s0-1.4,0-2a2.26,2.26,0,0,0-1.26-.38,2.51,2.51,0,0,0-.84.12,2.4,2.4,0,0,0-.78.4,2.84,2.84,0,0,0-.49.85,2.67,2.67,0,0,0,.15,2.17,2.23,2.23,0,0,0,.6.69,2.56,2.56,0,0,0,.81.4A3.22,3.22,0,0,0,209.48,114.1Z" transform="translate(1.96 -101.31)"/><path class="cls-1" d="M224.68,109.5c0,.6,0,1.26,0,2v2.22a6.81,6.81,0,0,1-.12,1.36,3.79,3.79,0,0,1-.36,1,3.15,3.15,0,0,1-.61.79,5.44,5.44,0,0,1-.87.64,9.63,9.63,0,0,0-.64-1.32,2.39,2.39,0,0,1-.34-1,6.39,6.39,0,0,1,0-1.17c0-.27,0-.55,0-.85v-.88c0-.29,0-.56,0-.83s0-.5,0-.7a2,2,0,0,0-.39-1.18,1.43,1.43,0,0,0-1.09-.5,1.67,1.67,0,0,0-.91.17,6.12,6.12,0,0,0-.91.55c0,.48,0,.94,0,1.39s0,.86,0,1.23,0,.7,0,1V114a6,6,0,0,1-.14,1.33,2.38,2.38,0,0,1-.52,1,7.46,7.46,0,0,0-.53.61,6,6,0,0,0-.47.65,3,3,0,0,1-1-1.38,5.89,5.89,0,0,1-.36-2.16v-7.43c0-.67,0-1.26,0-1.75s0-.81,0-1a5.39,5.39,0,0,0-.08-.56,2.51,2.51,0,0,0-.2-.56,1.7,1.7,0,0,1-.18-.52c0-.15.07-.29.3-.44a3.48,3.48,0,0,1,.61-.31,3.19,3.19,0,0,1,.67-.19.85.85,0,0,1,.45,0,1.19,1.19,0,0,1,.35.2,3,3,0,0,1,.71.84,2.75,2.75,0,0,1,.25,1.14c0,.23,0,.67,0,1.32s0,1.4,0,2.24a7.35,7.35,0,0,1,1.41-.59,4.75,4.75,0,0,1,1.27-.21,3.45,3.45,0,0,1,1.3.22,3.57,3.57,0,0,1,1.94,1.67A3.1,3.1,0,0,1,224.68,109.5Z" transform="translate(1.96 -101.31)"/><path class="cls-1" d="M232.44,113.84a8,8,0,0,1,1-.38,5.45,5.45,0,0,1,1-.22,5.9,5.9,0,0,0-.63.89,6,6,0,0,0-.47,1,6.14,6.14,0,0,1-.59,1.14,1.71,1.71,0,0,1-.81.68,5.26,5.26,0,0,1-.95.23c-.33.05-.65.08-1,.11a1.48,1.48,0,0,1-.67-.13,2,2,0,0,1-.65-.45,1.52,1.52,0,0,1-.42-.63,3.43,3.43,0,0,1-.2-.81,6.71,6.71,0,0,1-.07-.91c0-.31,0-.63,0-1s0-.81,0-1.39,0-1.29,0-2.13l-.45,0a2.3,2.3,0,0,0-.39,0,4.07,4.07,0,0,1-.56,0,.49.49,0,0,1-.4-.2.92.92,0,0,1-.18-.23,2.59,2.59,0,0,1-.19-.33,2.75,2.75,0,0,1-.15-.36,1.65,1.65,0,0,1-.08-.32.63.63,0,0,1,0-.27,1.18,1.18,0,0,1,.1-.3.8.8,0,0,1,.18-.27.53.53,0,0,1,.27-.16,4.79,4.79,0,0,1,.85-.16l1.09-.1.06-1a3.62,3.62,0,0,0,0-.57,1.59,1.59,0,0,0-.2-.55.57.57,0,0,1-.11-.54,1.09,1.09,0,0,1,.37-.46,2.44,2.44,0,0,1,.55-.38,3.07,3.07,0,0,1,.55-.24.9.9,0,0,1,.46,0,1,1,0,0,1,.42.22,2.74,2.74,0,0,1,.66.77,2.46,2.46,0,0,1,.26.93c0,.27,0,.54,0,.83s0,.58,0,.89l.8,0a5.76,5.76,0,0,1,.66.06,1.66,1.66,0,0,1,.77.25,2.78,2.78,0,0,1,.59.65.75.75,0,0,1,.13.37.58.58,0,0,1-.09.33,5.3,5.3,0,0,1-.59.75.78.78,0,0,1-.67.27c-.23,0-.49-.05-.77-.06l-.91,0-.06,2.36v1c0,.2,0,.4,0,.6a3.94,3.94,0,0,0,0,.52l.74-.2A4.18,4.18,0,0,0,232.44,113.84Z" transform="translate(1.96 -101.31)"/><path class="cls-1" d="M239.74,117.38a6.14,6.14,0,0,1-1.83-.27,5.82,5.82,0,0,1-1.43-.63,3.31,3.31,0,0,1-.69-.58,1.63,1.63,0,0,1-.39-.88,6.56,6.56,0,0,0-.27-1,2.21,2.21,0,0,0-.49-.75,6.48,6.48,0,0,1,1.14.16,3.48,3.48,0,0,1,1.08.42,8.12,8.12,0,0,0,1.42.69,4.53,4.53,0,0,0,1.52.31c1,0,1.48-.24,1.5-.8a.7.7,0,0,0-.26-.58,3,3,0,0,0-.94-.46c-.27-.08-.66-.18-1.16-.29a7,7,0,0,1-1.4-.45A3.7,3.7,0,0,1,236,111a3,3,0,0,1-.54-1.91,2.25,2.25,0,0,1,.37-1.22,3,3,0,0,1,.91-.91,4.21,4.21,0,0,1,1.29-.57,6.3,6.3,0,0,1,3.07,0,6.29,6.29,0,0,1,1,.34,5.05,5.05,0,0,1,.6.32.72.72,0,0,1,.24.54q0,.17.06.42c0,.17.06.36.1.56s.08.4.13.61a2.94,2.94,0,0,0,.17.57c-.22-.13-.47-.27-.76-.42a8.85,8.85,0,0,0-.94-.4,9.83,9.83,0,0,0-1-.3,4.47,4.47,0,0,0-1-.12,2.53,2.53,0,0,0-1,.17c-.27.11-.4.28-.38.51a.67.67,0,0,0,.26.5,1.82,1.82,0,0,0,.64.32,7.83,7.83,0,0,0,1,.25,11.15,11.15,0,0,1,1.13.29,9.19,9.19,0,0,1,1,.4,3.78,3.78,0,0,1,.91.6,3.1,3.1,0,0,1,.65.86,3,3,0,0,1,.27,1.18,3.48,3.48,0,0,1-1.14,2.86A5,5,0,0,1,239.74,117.38Z" transform="translate(1.96 -101.31)"/><path class="cls-1" d="M259.06,107.8a1.48,1.48,0,0,1,.19.35.59.59,0,0,1,0,.37c0,.11-.1.22-.16.35a4,4,0,0,1-.24.38l-.28.36a2.3,2.3,0,0,1-.28.27c-.26.2-.46.26-.61.18a2.18,2.18,0,0,1-.57-.48,2.86,2.86,0,0,0-.5-.42,1.06,1.06,0,0,0-.7-.14,1.53,1.53,0,0,0-.93.46,3.91,3.91,0,0,0-.73,1v2.82c0,.57,0,1.1-.06,1.57a3,3,0,0,1-.28,1.11c-.14.25-.27.53-.41.84a3.42,3.42,0,0,0-.27.8,5.08,5.08,0,0,1-.85-.62,4.05,4.05,0,0,1-.79-1,2.37,2.37,0,0,1-.31-.79,5.64,5.64,0,0,1-.09-1.11c0-.79,0-1.58,0-2.38s0-1.62,0-2.46a8.12,8.12,0,0,0-.08-.88,3.12,3.12,0,0,0-.26-.76.57.57,0,0,1-.07-.37A.62.62,0,0,1,251,107a1.05,1.05,0,0,1,.27-.24,2,2,0,0,1,.32-.18c.25-.13.47-.24.66-.32a1.48,1.48,0,0,1,.51-.13.83.83,0,0,1,.45.11,2.1,2.1,0,0,1,.48.42,2.52,2.52,0,0,1,.5.88,3,3,0,0,1,1-.75,3.13,3.13,0,0,1,1.27-.33,2.8,2.8,0,0,1,1.49.35A3.65,3.65,0,0,1,259.06,107.8Z" transform="translate(1.96 -101.31)"/><path class="cls-1" d="M265.44,114.8a6.07,6.07,0,0,0,1.41-.2,5.83,5.83,0,0,0,1.13-.4l.86-.43a8.32,8.32,0,0,1,.78-.35,4.65,4.65,0,0,0-.55,1.14c-.16.44-.3.85-.43,1.24a1.25,1.25,0,0,1-.39.58,3.13,3.13,0,0,1-.61.38,6.77,6.77,0,0,1-1.42.44,7.39,7.39,0,0,1-1.62.14,4.81,4.81,0,0,1-1.92-.41,4.53,4.53,0,0,1-1.53-1.1,5,5,0,0,1-1-1.69,6.27,6.27,0,0,1-.39-2.18c0-.16,0-.34,0-.55a4.36,4.36,0,0,1,.07-.62,3.29,3.29,0,0,1,.13-.58,1.91,1.91,0,0,1,.18-.45,3.75,3.75,0,0,1,.48-1.28,4.06,4.06,0,0,1,.93-1.06,4.67,4.67,0,0,1,1.31-.75,5.82,5.82,0,0,1,1.62-.37,4.83,4.83,0,0,1,2.93.55,4.46,4.46,0,0,1,1.87,2.27,7.5,7.5,0,0,1,.29,1,6.78,6.78,0,0,1,.13,1.23,1.24,1.24,0,0,1-.29.94,1.67,1.67,0,0,1-1.07.26l-.29,0a1.61,1.61,0,0,1-.33-.06h-.52c-.19,0-.39,0-.6,0l-3.24.06h-.58a3,3,0,0,0,.94,1.67A2.37,2.37,0,0,0,265.44,114.8Zm-.78-6.14a2.23,2.23,0,0,0-1.35.61,2.42,2.42,0,0,0-.65,1.37l1-.1c.32,0,.55,0,.7,0h1.11l1.29,0-.06-.3a5.59,5.59,0,0,0-.26-.63,2,2,0,0,0-.4-.53,1.68,1.68,0,0,0-.58-.34A1.79,1.79,0,0,0,264.66,108.66Z" transform="translate(1.96 -101.31)"/><path class="cls-1" d="M275.44,117.38a6.14,6.14,0,0,1-1.83-.27,5.82,5.82,0,0,1-1.43-.63,3.31,3.31,0,0,1-.69-.58,1.63,1.63,0,0,1-.39-.88,6.56,6.56,0,0,0-.27-1,2.21,2.21,0,0,0-.49-.75,6.48,6.48,0,0,1,1.14.16,3.48,3.48,0,0,1,1.08.42,8.12,8.12,0,0,0,1.42.69,4.53,4.53,0,0,0,1.52.31c1,0,1.48-.24,1.5-.8a.7.7,0,0,0-.26-.58,3,3,0,0,0-.94-.46c-.27-.08-.66-.18-1.16-.29a7,7,0,0,1-1.4-.45A3.7,3.7,0,0,1,271.7,111a3,3,0,0,1-.54-1.91,2.25,2.25,0,0,1,.37-1.22,3,3,0,0,1,.91-.91,4.21,4.21,0,0,1,1.29-.57,6.3,6.3,0,0,1,3.07,0,6.29,6.29,0,0,1,1,.34,5.05,5.05,0,0,1,.6.32.72.72,0,0,1,.24.54q0,.17.06.42c0,.17.06.36.1.56s.08.4.13.61a2.94,2.94,0,0,0,.17.57c-.22-.13-.47-.27-.76-.42a8.85,8.85,0,0,0-.94-.4,9.83,9.83,0,0,0-1-.3,4.47,4.47,0,0,0-1-.12,2.53,2.53,0,0,0-1,.17c-.27.11-.4.28-.38.51a.67.67,0,0,0,.26.5,1.82,1.82,0,0,0,.64.32,7.83,7.83,0,0,0,1,.25,11.15,11.15,0,0,1,1.13.29,9.19,9.19,0,0,1,1,.4,3.78,3.78,0,0,1,.91.6,3.1,3.1,0,0,1,.65.86,3,3,0,0,1,.27,1.18,3.48,3.48,0,0,1-1.14,2.86A5,5,0,0,1,275.44,117.38Z" transform="translate(1.96 -101.31)"/><path class="cls-1" d="M286.62,114.8a6.07,6.07,0,0,0,1.41-.2,5.83,5.83,0,0,0,1.13-.4l.86-.43a8.32,8.32,0,0,1,.78-.35,4.65,4.65,0,0,0-.55,1.14c-.16.44-.3.85-.43,1.24a1.25,1.25,0,0,1-.39.58,3.13,3.13,0,0,1-.61.38,6.77,6.77,0,0,1-1.42.44,7.39,7.39,0,0,1-1.62.14,4.81,4.81,0,0,1-1.92-.41,4.53,4.53,0,0,1-1.53-1.1,5,5,0,0,1-1-1.69,6.27,6.27,0,0,1-.39-2.18c0-.16,0-.34,0-.55a4.36,4.36,0,0,1,.07-.62,3.29,3.29,0,0,1,.13-.58,1.91,1.91,0,0,1,.18-.45,3.75,3.75,0,0,1,.48-1.28,4.06,4.06,0,0,1,.93-1.06,4.67,4.67,0,0,1,1.31-.75,5.82,5.82,0,0,1,1.62-.37,4.83,4.83,0,0,1,2.93.55,4.46,4.46,0,0,1,1.87,2.27,7.5,7.5,0,0,1,.29,1,6.78,6.78,0,0,1,.13,1.23,1.24,1.24,0,0,1-.29.94,1.67,1.67,0,0,1-1.07.26l-.29,0a1.61,1.61,0,0,1-.33-.06h-.52c-.19,0-.39,0-.6,0l-3.24.06H284a3,3,0,0,0,.94,1.67A2.37,2.37,0,0,0,286.62,114.8Zm-.78-6.14a2.23,2.23,0,0,0-1.35.61,2.42,2.42,0,0,0-.65,1.37l1-.1c.32,0,.55,0,.7,0h1.11l1.29,0-.06-.3a5.59,5.59,0,0,0-.26-.63,2,2,0,0,0-.4-.53,1.68,1.68,0,0,0-.58-.34A1.79,1.79,0,0,0,285.84,108.66Z" transform="translate(1.96 -101.31)"/><path class="cls-1" d="M300.44,107.8a1.48,1.48,0,0,1,.19.35.59.59,0,0,1,0,.37c0,.11-.1.22-.16.35a4,4,0,0,1-.24.38l-.28.36a2.3,2.3,0,0,1-.28.27c-.26.2-.46.26-.61.18a2.18,2.18,0,0,1-.57-.48,2.86,2.86,0,0,0-.5-.42,1.06,1.06,0,0,0-.7-.14,1.53,1.53,0,0,0-.93.46,3.91,3.91,0,0,0-.73,1v2.82c0,.57,0,1.1-.06,1.57a3,3,0,0,1-.28,1.11c-.14.25-.27.53-.41.84a3.42,3.42,0,0,0-.27.8,5.08,5.08,0,0,1-.85-.62,4.05,4.05,0,0,1-.79-1,2.37,2.37,0,0,1-.31-.79,5.64,5.64,0,0,1-.09-1.11c0-.79,0-1.58,0-2.38s0-1.62,0-2.46a8.12,8.12,0,0,0-.08-.88,3.12,3.12,0,0,0-.26-.76.57.57,0,0,1-.07-.37.62.62,0,0,1,.14-.31,1.05,1.05,0,0,1,.27-.24,2,2,0,0,1,.32-.18c.25-.13.47-.24.66-.32a1.48,1.48,0,0,1,.51-.13.83.83,0,0,1,.45.11,2.1,2.1,0,0,1,.48.42,2.52,2.52,0,0,1,.5.88,3,3,0,0,1,1-.75,3.13,3.13,0,0,1,1.27-.33,2.8,2.8,0,0,1,1.49.35A3.65,3.65,0,0,1,300.44,107.8Z" transform="translate(1.96 -101.31)"/><path class="cls-1" d="M310.92,106.68a1.22,1.22,0,0,1,.51.63,1,1,0,0,1,0,.81c-.12.31-.26.69-.43,1.15s-.34,1-.54,1.49-.39,1.08-.59,1.65-.41,1.11-.62,1.62l-.55,1.42c-.18.43-.33.78-.46,1a1.54,1.54,0,0,1-.81.74,1.45,1.45,0,0,1-1.12,0l-.15-.06-.24.06a1.14,1.14,0,0,1-1-.16,2.41,2.41,0,0,1-.63-1.06c0-.09-.11-.31-.23-.64s-.25-.73-.42-1.19-.34-1-.54-1.49l-.56-1.55c-.17-.5-.34-1-.49-1.37s-.25-.73-.31-.94a2.28,2.28,0,0,0-.31-.61,1.67,1.67,0,0,0-.38-.37.44.44,0,0,1-.16-.33.48.48,0,0,1,.24-.37l.55-.38a4.42,4.42,0,0,1,.52-.3,2.37,2.37,0,0,1,.8-.2,1.35,1.35,0,0,1,.71.26,1.51,1.51,0,0,1,.5.51,6.32,6.32,0,0,1,.26.63l.21.6c.11.28.22.61.36,1l.42,1.22c.16.43.3.86.45,1.27s.26.8.38,1.16.2.65.26.86c.18-.49.36-1,.53-1.56l.51-1.57.45-1.38c.13-.42.23-.75.29-1a5.45,5.45,0,0,0,.21-.91,3.31,3.31,0,0,0,0-.61.54.54,0,0,1,.19-.43.6.6,0,0,1,.55-.17,4.2,4.2,0,0,1,.89.21A4.34,4.34,0,0,1,310.92,106.68Z" transform="translate(1.96 -101.31)"/><path class="cls-1" d="M317.93,114.8a6,6,0,0,0,1.41-.2,5.6,5.6,0,0,0,1.13-.4l.86-.43c.29-.14.55-.26.79-.35a5,5,0,0,0-.56,1.14c-.15.44-.29.85-.43,1.24a1.31,1.31,0,0,1-.38.58,3.21,3.21,0,0,1-.62.38,6.42,6.42,0,0,1-1.42.44,7.29,7.29,0,0,1-1.62.14,4.89,4.89,0,0,1-1.92-.41,4.74,4.74,0,0,1-1.53-1.1,5.1,5.1,0,0,1-1-1.69,6.5,6.5,0,0,1-.4-2.18c0-.16,0-.34,0-.55s0-.41.08-.62a3.29,3.29,0,0,1,.13-.58,2.51,2.51,0,0,1,.17-.45,3.77,3.77,0,0,1,.49-1.28,4,4,0,0,1,.92-1.06,4.81,4.81,0,0,1,1.31-.75,6,6,0,0,1,1.62-.37,4.86,4.86,0,0,1,2.94.55,4.44,4.44,0,0,1,1.86,2.27,5.49,5.49,0,0,1,.29,1,6,6,0,0,1,.13,1.23,1.24,1.24,0,0,1-.28.94,1.7,1.7,0,0,1-1.08.26l-.29,0a1.91,1.91,0,0,1-.33-.06h-.52c-.18,0-.38,0-.6,0l-3.24.06h-.58a3.15,3.15,0,0,0,.94,1.67A2.4,2.4,0,0,0,317.93,114.8Zm-.77-6.14a2.23,2.23,0,0,0-1.36.61,2.41,2.41,0,0,0-.64,1.37l1-.1c.33,0,.56,0,.7,0h1.11l1.29,0-.06-.3a4.12,4.12,0,0,0-.25-.63,2,2,0,0,0-.41-.53,1.59,1.59,0,0,0-.58-.34A1.73,1.73,0,0,0,317.16,108.66Z" transform="translate(1.96 -101.31)"/><path class="cls-1" d="M332.38,104.22c0,1.33,0,2.73.05,4.2s0,2.86,0,4.18c0,.56,0,1.07,0,1.52a7.88,7.88,0,0,1-.21,1.26,4.75,4.75,0,0,1-.46,1.08,5.22,5.22,0,0,1-.78,1,3.92,3.92,0,0,0-.46-.45l-.49-.43,0,0a3.93,3.93,0,0,1-2.18.7,4.84,4.84,0,0,1-1.9-.36,3.91,3.91,0,0,1-1.43-1,4.52,4.52,0,0,1-.88-1.67,6.46,6.46,0,0,1-.25-2.22,2.68,2.68,0,0,1,.05-.82,6.44,6.44,0,0,1,.2-.72,5,5,0,0,1,1.83-2.55,4.83,4.83,0,0,1,1.33-.7,4.33,4.33,0,0,1,1.47-.25l.67,0c.24,0,.47,0,.7.06,0-.52,0-1,0-1.55V103.9c0-.15,0-.32,0-.51a1.6,1.6,0,0,0-.12-.49,2.5,2.5,0,0,1-.19-.43.35.35,0,0,1,.11-.41,2.73,2.73,0,0,1,.63-.4,3.84,3.84,0,0,1,.7-.26.86.86,0,0,1,.71.1,1.74,1.74,0,0,1,.54.54,2.13,2.13,0,0,1,.34,1C332.34,103.42,332.36,103.81,332.38,104.22Zm-4.22,10.34a3.14,3.14,0,0,0,.68,0,4.25,4.25,0,0,0,.66-.16c0-1.59,0-3.23.05-4.94a5.81,5.81,0,0,0-.59,0l-.65,0a2,2,0,0,0-.84.22,2.24,2.24,0,0,0-.66.53,2.4,2.4,0,0,0-.43.79,3.23,3.23,0,0,0-.18,1C326.16,113.65,326.81,114.51,328.16,114.56Z" transform="translate(1.96 -101.31)"/><path class="cls-1" d="M349.35,111.44a5.86,5.86,0,0,1-.31,2.21,5.26,5.26,0,0,1-1,1.74,4.24,4.24,0,0,1-1.48,1.14,4.4,4.4,0,0,1-1.84.43,8.3,8.3,0,0,1-1.4-.09,4.26,4.26,0,0,1-1.22-.37l-.56.48a2.25,2.25,0,0,0-.42.48,5.46,5.46,0,0,1-.67-.85,2.85,2.85,0,0,1-.32-.8,4,4,0,0,1-.09-.86c0-.3,0-.64,0-1s0-.8,0-1.32,0-1.08,0-1.68,0-1.22,0-1.87,0-1.27,0-1.87,0-1.17,0-1.7,0-1-.05-1.36q0-.3-.06-.66a2.28,2.28,0,0,0-.16-.66,3.76,3.76,0,0,1-.17-.55c0-.17.07-.3.29-.41a3.67,3.67,0,0,1,.69-.28,6.43,6.43,0,0,1,.73-.18.85.85,0,0,1,.82.22,2.75,2.75,0,0,1,.58.88,3.29,3.29,0,0,1,.24,1.18c0,.23,0,.64,0,1.25s0,1.31,0,2.11a5,5,0,0,1,1.32-.18,5.77,5.77,0,0,1,2,.29,4.31,4.31,0,0,1,1.56.91,4.09,4.09,0,0,1,1,1.46A5.16,5.16,0,0,1,349.35,111.44Zm-4.9,2.92a1.79,1.79,0,0,0,1.43-.82,3,3,0,0,0,.45-1.86,2.6,2.6,0,0,0-.55-1.66,1.91,1.91,0,0,0-1.55-.6,4.73,4.73,0,0,0-1.16.16v2.68c0,.39,0,.72,0,1s0,.5,0,.63v.38a5.86,5.86,0,0,0,.66.09A3.67,3.67,0,0,0,344.45,114.36Z" transform="translate(1.96 -101.31)"/><path class="cls-1" d="M360.65,106.68a1.08,1.08,0,0,1,.38.49,1.14,1.14,0,0,1,0,.67,10.88,10.88,0,0,1-.31,1.08c-.16.52-.37,1.13-.62,1.83s-.52,1.45-.84,2.26-.63,1.6-1,2.37c-.16.39-.3.73-.43,1s-.25.58-.39.85-.27.54-.42.83-.32.61-.54,1a10.41,10.41,0,0,1-.72,1.1,4.88,4.88,0,0,1-.84.91,3.66,3.66,0,0,1-1,.62,2.88,2.88,0,0,1-1.15.23,3.18,3.18,0,0,1-.57,0,1.57,1.57,0,0,1-.4-.13,1.23,1.23,0,0,1-.31-.26l-.32-.41a5.59,5.59,0,0,0-.78-.87,6.61,6.61,0,0,0-1.08-.85,3.9,3.9,0,0,0,1.8,0,6.68,6.68,0,0,0,1.28-.38,3.24,3.24,0,0,0,1.24-1l.54-.68c-.12-.37-.26-.8-.43-1.27s-.34-1-.54-1.48l-.59-1.56c-.2-.53-.39-1-.58-1.5s-.36-.91-.53-1.3-.31-.71-.43-.95a8.06,8.06,0,0,0-.58-1,3.13,3.13,0,0,0-.62-.69c-.28-.23-.25-.47.08-.72l.28-.15.44-.18.48-.17.42-.12a5.2,5.2,0,0,1,.61-.07,1,1,0,0,1,.5.09,1.18,1.18,0,0,1,.43.32,2.21,2.21,0,0,1,.38.62q.22.5.54,1.29c.22.53.44,1.09.66,1.69s.46,1.22.68,1.85.44,1.23.62,1.79c.36-.88.68-1.75.94-2.6s.52-1.6.74-2.24a4.87,4.87,0,0,0,.27-1.14,5.09,5.09,0,0,0,0-1.1.67.67,0,0,1,.12-.39.58.58,0,0,1,.48-.25,2.77,2.77,0,0,1,.53.06,6,6,0,0,1,.61.15,3.86,3.86,0,0,1,.92.41Z" transform="translate(1.96 -101.31)"/><path class="cls-1" d="M375.41,114.08a5.18,5.18,0,0,0,.68-.06l.42-.09a1.42,1.42,0,0,0,.26-.1l.2-.09a1.06,1.06,0,0,1,0,.2,3,3,0,0,1-.08.32c0,.12-.06.24-.1.37a2.89,2.89,0,0,1-.11.35c0,.11-.1.27-.19.49a3,3,0,0,1-.35.66,2.47,2.47,0,0,1-.53.59,1.12,1.12,0,0,1-.75.26l-6,0a.63.63,0,0,1-.46-.18,1.53,1.53,0,0,1-.29-.44,2.38,2.38,0,0,1-.15-.57,3.79,3.79,0,0,1,0-.57,1,1,0,0,1,.32-.7c0-.33,0-.67-.05-1s0-.68,0-1v-1.4c0-.56,0-1.17,0-1.82s0-1.33,0-2,0-1.38,0-2a.83.83,0,0,1-.13-.18c0-.07-.07-.15-.11-.26a7.81,7.81,0,0,1-.21-.77,3.26,3.26,0,0,1-.09-.69.44.44,0,0,1,.12-.3,1.25,1.25,0,0,1,.3-.25,1.84,1.84,0,0,1,.38-.17,1.34,1.34,0,0,1,.36-.06l.77,0q.45,0,.81.06c.31,0,.66,0,1,.05h1.18l1.18,0,1.06-.07a1.25,1.25,0,0,1,.53,0,.87.87,0,0,1,.41.36,4.6,4.6,0,0,1,.37.6,4.49,4.49,0,0,1,.27.54,1.68,1.68,0,0,1,.14.38.45.45,0,0,1,0,.38,1.06,1.06,0,0,1-.77.52,3.65,3.65,0,0,1-1.09.08c-.48,0-1,0-1.61-.06l-1.81,0c0,.43,0,.88,0,1.36s0,1,0,1.44l.78,0,.93,0,.91,0h.72a1.89,1.89,0,0,1,.51.07,2,2,0,0,1,.52.22,1.94,1.94,0,0,1,.44.35.93.93,0,0,1,.25.44c.08.27-.11.65-.58,1.16a1.34,1.34,0,0,1-.76.46,5.32,5.32,0,0,1-.94.08H372.8l-.83,0-.78,0c0,.36,0,.69,0,1s0,.56,0,.77,0,.55,0,.8,0,.49,0,.72h2l1.13,0C374.72,114.12,375.08,114.11,375.41,114.08Z" transform="translate(1.96 -101.31)"/><path class="cls-1" d="M387.79,108.06c0,.35,0,.64,0,.87s0,.52,0,.87v4.88a2.21,2.21,0,0,1-.16.82,3.87,3.87,0,0,1-.39.79,3.82,3.82,0,0,1-.51.67,2.45,2.45,0,0,1-.54.46c-.14-.19-.27-.36-.37-.51l-.31-.45a5.91,5.91,0,0,1-1.38.58,6.56,6.56,0,0,1-1.8.26,3.38,3.38,0,0,1-2.72-1.13,5,5,0,0,1-1.08-3.13c0-.41,0-.84,0-1.29s0-.87,0-1.28,0-.78,0-1.13,0-.63,0-.86a2.85,2.85,0,0,0-.11-.79,4.87,4.87,0,0,0-.17-.47.29.29,0,0,1,.1-.35,1.69,1.69,0,0,1,.44-.25l.55-.22.65-.22a2.48,2.48,0,0,1,.54-.06.72.72,0,0,1,.54.32,1.56,1.56,0,0,1,.34.73,6.82,6.82,0,0,1,.08.87v3.83c0,.41,0,.68,0,.83a2.63,2.63,0,0,0,.39,1.38,1.23,1.23,0,0,0,1.07.5,2.84,2.84,0,0,0,1-.16,6,6,0,0,0,.9-.4c0-1,0-1.9,0-2.77s0-1.61,0-2.21a4.75,4.75,0,0,0-.09-1,2.15,2.15,0,0,0-.29-.76.67.67,0,0,1-.14-.55,1.23,1.23,0,0,1,.36-.43,2.41,2.41,0,0,1,.6-.32,5,5,0,0,1,.64-.2,2,2,0,0,1,.5,0,.81.81,0,0,1,.34.09.68.68,0,0,1,.25.23c.08.1.16.22.25.35a3.68,3.68,0,0,1,.4.76A2.23,2.23,0,0,1,387.79,108.06Z" transform="translate(1.96 -101.31)"/><path class="cls-1" d="M399.19,109.86a12.1,12.1,0,0,1,.15,2.18c0,.81,0,1.61,0,2.38a10.19,10.19,0,0,1-.12,1.35,3.15,3.15,0,0,1-.23.84,2,2,0,0,1-.35.55,6.6,6.6,0,0,1-.46.48,2.13,2.13,0,0,0-.49-.53,7.63,7.63,0,0,0-.67-.49,1.21,1.21,0,0,1-.46-.78,8.58,8.58,0,0,1-.16-1.1c0-.43,0-.92,0-1.49s0-1.12,0-1.65c0-.21,0-.44,0-.67a2.65,2.65,0,0,0-.14-.68,2.1,2.1,0,0,0-.32-.61,1.41,1.41,0,0,0-1.67-.44,6,6,0,0,0-1.1.56c0,.23,0,.43,0,.61a3.68,3.68,0,0,1,0,.49c0,.63,0,1.33,0,2.1a17.87,17.87,0,0,1-.08,2.22,1.83,1.83,0,0,1-.24.74,4.68,4.68,0,0,1-.47.72,3.68,3.68,0,0,1-.58.6,3,3,0,0,1-.57.4,10,10,0,0,0-.68-1.3,2.76,2.76,0,0,1-.35-1.07c0-.41-.07-.78-.07-1.13s0-.55,0-1,0-.87,0-1.36v-1.45c0-.48,0-.9,0-1.26a4.18,4.18,0,0,0-.09-.71,2.88,2.88,0,0,0-.25-.73.68.68,0,0,1-.07-.37.77.77,0,0,1,.23-.35,3.59,3.59,0,0,1,.6-.46,2.08,2.08,0,0,1,.76-.3,1.2,1.2,0,0,1,1,.32l.33.31a1.09,1.09,0,0,1,.25.39,12.18,12.18,0,0,1,1.81-.72,3.57,3.57,0,0,1,1.83-.08,2.94,2.94,0,0,1,2,1.19A5.41,5.41,0,0,1,399.19,109.86Z" transform="translate(1.96 -101.31)"/><path class="cls-1" d="M404.33,107.7a1.92,1.92,0,0,1,.28.91c0,.3,0,.7,0,1.21,0,.35,0,.72,0,1.11s0,.79,0,1.2,0,.81,0,1.22v1.15c0,.28,0,.63,0,1.06s0,.87-.05,1.32-.06.89-.1,1.31a9.68,9.68,0,0,1-.14,1,3.4,3.4,0,0,1-.54,1.32,3.23,3.23,0,0,1-.84.88,3.42,3.42,0,0,1-2.56.54,2.8,2.8,0,0,1-1.15-.45,1.71,1.71,0,0,1-.49-1c-.08-.4-.17-.8-.28-1.2a3.87,3.87,0,0,0-.52-1.16,5.84,5.84,0,0,1,.83.47c.25.17.49.31.71.43a2.73,2.73,0,0,0,.47.21.94.94,0,0,0,.47,0,1,1,0,0,0,.84-.38,1.62,1.62,0,0,0,.28-.84q0-.42.06-1t0-1.17c0-.4,0-.79,0-1.16v-3c0-.35,0-.7,0-1s0-.61,0-.84,0-.49,0-.68a4,4,0,0,0,0-.51,1.5,1.5,0,0,0-.09-.43,1.92,1.92,0,0,0-.21-.44,1.61,1.61,0,0,1-.21-.52.61.61,0,0,1,.21-.38,2.9,2.9,0,0,1,.45-.33c.22-.14.4-.24.53-.31a1.21,1.21,0,0,1,.58-.15.82.82,0,0,1,.52.29,5.48,5.48,0,0,1,.51.6A5.21,5.21,0,0,1,404.33,107.7Zm-2.42-5.32a2.27,2.27,0,0,1,.5-.35,1.21,1.21,0,0,1,.56-.13,1.4,1.4,0,0,1,.51.1,1.91,1.91,0,0,1,.49.26,1.56,1.56,0,0,1,.38.39,1,1,0,0,1,.2.49.58.58,0,0,1-.07.35,1.62,1.62,0,0,1-.23.37,1.57,1.57,0,0,1-.31.32,3.19,3.19,0,0,1-.29.22,3.46,3.46,0,0,1-1.54.36,1.6,1.6,0,0,1-.74-.14.67.67,0,0,1-.42-.52,1.86,1.86,0,0,1,0-.57,1.05,1.05,0,0,1,.28-.53l.34-.33Z" transform="translate(1.96 -101.31)"/><path class="cls-1" d="M412.13,114.8a6.07,6.07,0,0,0,1.41-.2,5.6,5.6,0,0,0,1.13-.4l.86-.43a8.32,8.32,0,0,1,.78-.35,5.5,5.5,0,0,0-.55,1.14c-.15.44-.29.85-.43,1.24a1.25,1.25,0,0,1-.39.58,2.86,2.86,0,0,1-.61.38,6.42,6.42,0,0,1-1.42.44,7.29,7.29,0,0,1-1.62.14,4.89,4.89,0,0,1-1.92-.41,4.74,4.74,0,0,1-1.53-1.1,5.3,5.3,0,0,1-1-1.69,6.76,6.76,0,0,1-.39-2.18c0-.16,0-.34,0-.55s0-.41.07-.62.08-.4.13-.58a3.49,3.49,0,0,1,.18-.45,3.75,3.75,0,0,1,.48-1.28,4.06,4.06,0,0,1,.93-1.06,4.81,4.81,0,0,1,1.31-.75,6,6,0,0,1,1.62-.37,4.81,4.81,0,0,1,2.93.55,4.41,4.41,0,0,1,1.87,2.27,5.49,5.49,0,0,1,.29,1,6,6,0,0,1,.13,1.23,1.2,1.2,0,0,1-.29.94,1.65,1.65,0,0,1-1.07.26l-.29,0a1.91,1.91,0,0,1-.33-.06h-.52c-.18,0-.38,0-.6,0l-3.24.06h-.58a3.15,3.15,0,0,0,.94,1.67A2.4,2.4,0,0,0,412.13,114.8Zm-.78-6.14a2.23,2.23,0,0,0-1.35.61,2.48,2.48,0,0,0-.65,1.37l1-.1c.32,0,.56,0,.7,0h1.11l1.29,0-.06-.3a3.36,3.36,0,0,0-.26-.63,1.76,1.76,0,0,0-.4-.53,1.59,1.59,0,0,0-.58-.34A1.76,1.76,0,0,0,411.35,108.66Z" transform="translate(1.96 -101.31)"/><path class="cls-1" d="M422.75,106.24a4,4,0,0,1,1.83.42,4.7,4.7,0,0,1,1.48,1.14,5.14,5.14,0,0,1,1,1.69,6,6,0,0,1,.35,2.09,6.88,6.88,0,0,1-.19,1.64,5.8,5.8,0,0,1-.56,1.49,4.68,4.68,0,0,1-.94,1.23,3.86,3.86,0,0,1-1.33.82,3.31,3.31,0,0,1-1.58.57,3.7,3.7,0,0,1-1.58-.15,5.31,5.31,0,0,1-1.88-1,5.1,5.1,0,0,1-1.16-1.48,5.91,5.91,0,0,1-.56-1.74,8.73,8.73,0,0,1-.08-1.84,5,5,0,0,1,.29-1.34,6.74,6.74,0,0,1,.63-1.26,7.33,7.33,0,0,1,.84-1,3.94,3.94,0,0,1,.92-.7,3.84,3.84,0,0,1,1-.41,1.5,1.5,0,0,1,.73,0A2.76,2.76,0,0,1,422.75,106.24Zm-1,2.38a3.76,3.76,0,0,0-1.28,3.14,4.17,4.17,0,0,0,.39,1.57,3,3,0,0,0,1,1.17H422a2.39,2.39,0,0,0,1.08-.23,2,2,0,0,0,.76-.63,2.87,2.87,0,0,0,.45-.93,4,4,0,0,0,.15-1.11,3.61,3.61,0,0,0-.19-1.21,2.49,2.49,0,0,0-.54-.94,2.4,2.4,0,0,0-.85-.61,2.64,2.64,0,0,0-1.1-.22Z" transform="translate(1.96 -101.31)"/><path class="cls-1" d="M438.39,109.86a12.1,12.1,0,0,1,.15,2.18c0,.81,0,1.61-.05,2.38a10.19,10.19,0,0,1-.12,1.35,3.15,3.15,0,0,1-.23.84,2,2,0,0,1-.35.55,6.6,6.6,0,0,1-.46.48,2.13,2.13,0,0,0-.49-.53,7.63,7.63,0,0,0-.67-.49,1.21,1.21,0,0,1-.46-.78,8.58,8.58,0,0,1-.16-1.1c0-.43,0-.92,0-1.49s0-1.12,0-1.65c0-.21,0-.44,0-.67a2.65,2.65,0,0,0-.14-.68,2.1,2.1,0,0,0-.32-.61,1.41,1.41,0,0,0-1.67-.44,6,6,0,0,0-1.1.56c0,.23,0,.43,0,.61a3.68,3.68,0,0,1,0,.49c0,.63,0,1.33,0,2.1a17.87,17.87,0,0,1-.08,2.22,1.83,1.83,0,0,1-.24.74,4.68,4.68,0,0,1-.47.72,3.68,3.68,0,0,1-.58.6,3,3,0,0,1-.57.4,10,10,0,0,0-.68-1.3,2.76,2.76,0,0,1-.35-1.07c0-.41-.07-.78-.07-1.13s0-.55,0-1,0-.87,0-1.36v-1.45c0-.48,0-.9,0-1.26a4.18,4.18,0,0,0-.09-.71,2.88,2.88,0,0,0-.25-.73.68.68,0,0,1-.07-.37.77.77,0,0,1,.23-.35,3.59,3.59,0,0,1,.6-.46,2.08,2.08,0,0,1,.76-.3,1.2,1.2,0,0,1,1,.32l.33.31a1.09,1.09,0,0,1,.25.39,12.18,12.18,0,0,1,1.81-.72,3.57,3.57,0,0,1,1.83-.08,2.94,2.94,0,0,1,2,1.19A5.41,5.41,0,0,1,438.39,109.86Z" transform="translate(1.96 -101.31)"/><path class="cls-1" d="M449.53,106.5a.63.63,0,0,1,.1.39,1.91,1.91,0,0,1-.06.33,3.62,3.62,0,0,0-.12.52,6.83,6.83,0,0,0,0,.74c0,.35,0,.77,0,1.28s0,1.06,0,1.65,0,1.21,0,1.84,0,1.25,0,1.85,0,1.16,0,1.67,0,.94-.09,1.29a4.4,4.4,0,0,1-1,2.46,4.08,4.08,0,0,1-2,1.34,5.29,5.29,0,0,1-2.1.15,9.38,9.38,0,0,1-2.06-.49,1.6,1.6,0,0,1-.82-.56,3.49,3.49,0,0,1-.36-.88,7.48,7.48,0,0,0-.34-1,3,3,0,0,0-.58-.88,6.63,6.63,0,0,1,1.56.27c.44.14.92.32,1.44.53a5.05,5.05,0,0,0,1,.32,3.79,3.79,0,0,0,.78.06,1.48,1.48,0,0,0,1.06-.46,1.83,1.83,0,0,0,.48-1,11,11,0,0,0,.12-1.5c-.3.07-.61.12-.93.17a4.84,4.84,0,0,1-.93,0,4.54,4.54,0,0,1-1.87-.41,4.43,4.43,0,0,1-1.41-1,4.7,4.7,0,0,1-.89-1.5,5.55,5.55,0,0,1-.31-1.84,6.62,6.62,0,0,1,.06-.84,7.52,7.52,0,0,1,.19-.92,6.68,6.68,0,0,1,.32-.86,2.3,2.3,0,0,1,.43-.64,3.53,3.53,0,0,1,1.53-1.43,5.55,5.55,0,0,1,2-.45,3.65,3.65,0,0,1,1,.09,3.91,3.91,0,0,1,.85.31,1.08,1.08,0,0,1,.15-.38.83.83,0,0,1,.39-.26,4.91,4.91,0,0,1,.78-.2,5.33,5.33,0,0,1,.88-.08,2.21,2.21,0,0,1,.52,0A.51.51,0,0,1,449.53,106.5Zm-3.9,7.6a2.28,2.28,0,0,0,.45,0l.45-.1c0-.76,0-1.51,0-2.25s0-1.4,0-2a2.21,2.21,0,0,0-1.26-.38,2.58,2.58,0,0,0-.84.12,2.62,2.62,0,0,0-.78.4,3.07,3.07,0,0,0-.49.85,2.67,2.67,0,0,0,.15,2.17,2.23,2.23,0,0,0,.6.69,2.56,2.56,0,0,0,.81.4A3.22,3.22,0,0,0,445.63,114.1Z" transform="translate(1.96 -101.31)"/><path class="cls-1" d="M464.45,114.08a5.18,5.18,0,0,0,.68-.06l.42-.09a1.42,1.42,0,0,0,.26-.1l.2-.09a1.06,1.06,0,0,1,0,.2,3,3,0,0,1-.08.32c0,.12-.07.24-.1.37a2.89,2.89,0,0,1-.11.35c0,.11-.1.27-.19.49a3,3,0,0,1-.35.66,2.7,2.7,0,0,1-.53.59,1.12,1.12,0,0,1-.75.26l-6,0a.63.63,0,0,1-.46-.18,1.53,1.53,0,0,1-.29-.44,2.38,2.38,0,0,1-.15-.57,3.79,3.79,0,0,1,0-.57.93.93,0,0,1,.32-.7c0-.33,0-.67-.05-1s0-.68,0-1v-1.4c0-.56,0-1.17,0-1.82s0-1.33,0-2,0-1.38,0-2a.83.83,0,0,1-.13-.18c0-.07-.07-.15-.11-.26a7.81,7.81,0,0,1-.21-.77,3.26,3.26,0,0,1-.09-.69.44.44,0,0,1,.12-.3,1.25,1.25,0,0,1,.3-.25,1.84,1.84,0,0,1,.38-.17,1.34,1.34,0,0,1,.36-.06l.77,0q.45,0,.81.06c.31,0,.66,0,1,.05h1.18l1.18,0,1.06-.07a1.25,1.25,0,0,1,.53,0,.87.87,0,0,1,.41.36,4.6,4.6,0,0,1,.37.6q.16.32.27.54a2.35,2.35,0,0,1,.14.38.45.45,0,0,1,0,.38,1.06,1.06,0,0,1-.77.52,3.65,3.65,0,0,1-1.09.08c-.48,0-1,0-1.61-.06l-1.81,0c0,.43,0,.88,0,1.36s0,1,0,1.44l.78,0,.93,0,.91,0h.72a1.89,1.89,0,0,1,.51.07,2,2,0,0,1,.52.22,1.94,1.94,0,0,1,.44.35.93.93,0,0,1,.25.44c.08.27-.11.65-.58,1.16a1.34,1.34,0,0,1-.76.46,5.32,5.32,0,0,1-.94.08h-1.21l-.83,0-.78,0c0,.36,0,.69,0,1s0,.56,0,.77,0,.55,0,.8,0,.49,0,.72h2l1.13,0C463.76,114.12,464.12,114.11,464.45,114.08Z" transform="translate(1.96 -101.31)"/><path class="cls-1" d="M468.83,117.62a3.61,3.61,0,0,1-1-1.58,7.23,7.23,0,0,1-.27-2.18v-2.28c0-.49,0-1,0-1.54s0-1,0-1.5,0-.88,0-1.23v-3.09a5,5,0,0,0,0-.59,1.76,1.76,0,0,0-.21-.59,1.09,1.09,0,0,1-.16-.47.71.71,0,0,1,.22-.43l.26-.21a3.73,3.73,0,0,1,.39-.25,4.11,4.11,0,0,1,.42-.21,3.38,3.38,0,0,1,.37-.13.88.88,0,0,1,.9.34,3.88,3.88,0,0,1,.64.87,1.9,1.9,0,0,1,.22,1l0,1.07c0,.35,0,.71,0,1.07v4.24c0,.87,0,1.72,0,2.57s0,1.57,0,2.17a2.58,2.58,0,0,1-.26,1.25,3.66,3.66,0,0,1-.8,1c-.1.11-.22.22-.34.33A1.74,1.74,0,0,0,468.83,117.62Z" transform="translate(1.96 -101.31)"/><path class="cls-1" d="M474.21,117.62a3.61,3.61,0,0,1-1-1.58,7.23,7.23,0,0,1-.27-2.18v-2.28c0-.49,0-1,0-1.54s0-1,0-1.5,0-.88,0-1.23v-3.09a5,5,0,0,0,0-.59,1.76,1.76,0,0,0-.21-.59,1.09,1.09,0,0,1-.16-.47.71.71,0,0,1,.22-.43l.26-.21a3.73,3.73,0,0,1,.39-.25,4.11,4.11,0,0,1,.42-.21,3.38,3.38,0,0,1,.37-.13.88.88,0,0,1,.9.34,3.88,3.88,0,0,1,.64.87,1.9,1.9,0,0,1,.22,1l0,1.07c0,.35,0,.71,0,1.07v4.24c0,.87,0,1.72,0,2.57s0,1.57,0,2.17a2.58,2.58,0,0,1-.26,1.25,3.66,3.66,0,0,1-.8,1c-.1.11-.22.22-.34.33A1.74,1.74,0,0,0,474.21,117.62Z" transform="translate(1.96 -101.31)"/><path class="cls-1" d="M483.37,114.8a6.07,6.07,0,0,0,1.41-.2,5.6,5.6,0,0,0,1.13-.4l.86-.43a8.32,8.32,0,0,1,.78-.35,5.5,5.5,0,0,0-.55,1.14c-.15.44-.29.85-.43,1.24a1.25,1.25,0,0,1-.39.58,2.86,2.86,0,0,1-.61.38,6.42,6.42,0,0,1-1.42.44,7.29,7.29,0,0,1-1.62.14,4.89,4.89,0,0,1-1.92-.41,4.74,4.74,0,0,1-1.53-1.1,5.3,5.3,0,0,1-1-1.69,6.76,6.76,0,0,1-.39-2.18c0-.16,0-.34,0-.55s0-.41.07-.62.08-.4.13-.58a3.49,3.49,0,0,1,.18-.45,3.75,3.75,0,0,1,.48-1.28,4.06,4.06,0,0,1,.93-1.06,4.81,4.81,0,0,1,1.31-.75,6,6,0,0,1,1.62-.37,4.81,4.81,0,0,1,2.93.55,4.41,4.41,0,0,1,1.87,2.27,5.49,5.49,0,0,1,.29,1,6,6,0,0,1,.13,1.23,1.2,1.2,0,0,1-.29.94,1.65,1.65,0,0,1-1.07.26l-.29,0a1.91,1.91,0,0,1-.33-.06h-.52c-.18,0-.38,0-.6,0l-3.24.06h-.58a3.15,3.15,0,0,0,.94,1.67A2.4,2.4,0,0,0,483.37,114.8Zm-.78-6.14a2.23,2.23,0,0,0-1.35.61,2.48,2.48,0,0,0-.65,1.37l1-.1c.32,0,.56,0,.7,0h1.11l1.29,0-.06-.3a3.36,3.36,0,0,0-.26-.63,1.76,1.76,0,0,0-.4-.53,1.59,1.59,0,0,0-.58-.34A1.76,1.76,0,0,0,482.59,108.66Z" transform="translate(1.96 -101.31)"/><path class="cls-1" d="M498.61,109.86a12.1,12.1,0,0,1,.15,2.18c0,.81,0,1.61-.05,2.38q0,.84-.12,1.35a3.15,3.15,0,0,1-.23.84,2.26,2.26,0,0,1-.35.55c-.13.15-.29.31-.46.48a2.34,2.34,0,0,0-.49-.53,7.63,7.63,0,0,0-.67-.49,1.17,1.17,0,0,1-.46-.78,8.58,8.58,0,0,1-.16-1.1c0-.43,0-.92,0-1.49s0-1.12,0-1.65c0-.21,0-.44,0-.67a3.16,3.16,0,0,0-.14-.68,2.1,2.1,0,0,0-.32-.61,1.41,1.41,0,0,0-1.67-.44,5.7,5.7,0,0,0-1.1.56c0,.23,0,.43,0,.61s0,.34,0,.49c0,.63,0,1.33,0,2.1a20,20,0,0,1-.08,2.22,2.21,2.21,0,0,1-.24.74,4.68,4.68,0,0,1-.47.72,3.68,3.68,0,0,1-.58.6,3.78,3.78,0,0,1-.57.4,11.43,11.43,0,0,0-.68-1.3,2.6,2.6,0,0,1-.35-1.07,9.24,9.24,0,0,1-.07-1.13c0-.23,0-.55,0-1s0-.87,0-1.36v-1.45c0-.48,0-.9,0-1.26a4.18,4.18,0,0,0-.09-.71,3.33,3.33,0,0,0-.25-.73.6.6,0,0,1-.07-.37.77.77,0,0,1,.23-.35,3.59,3.59,0,0,1,.6-.46,2,2,0,0,1,.76-.3,1.21,1.21,0,0,1,1,.32l.33.31a1.25,1.25,0,0,1,.25.39,12.18,12.18,0,0,1,1.81-.72,3.57,3.57,0,0,1,1.83-.08,3,3,0,0,1,2,1.19A5.55,5.55,0,0,1,498.61,109.86Z" transform="translate(1.96 -101.31)"/><path class="cls-1" d="M515.23,114.42c.39.49.73.9,1,1.21a3.22,3.22,0,0,0,1,.71,6,6,0,0,1-.79.46,3.3,3.3,0,0,1-1.25.34,3.41,3.41,0,0,1-1.35-.14,2.34,2.34,0,0,1-1.09-.84c-.12-.16-.3-.43-.53-.81l-.77-1.27-.85-1.45c-.29-.5-.55-.94-.79-1.33l-.31.3-.31.28c0,.23,0,.45,0,.68s0,.45,0,.66c0,.43,0,.8,0,1.13s-.06.7-.11,1.11a2,2,0,0,1-.16.55c-.08.17-.17.33-.26.49l-.27.49a2.41,2.41,0,0,0-.21.55c-.17-.12-.35-.26-.53-.41a5.9,5.9,0,0,1-.51-.49,6.57,6.57,0,0,1-.43-.52,1.69,1.69,0,0,1-.27-.48,2,2,0,0,1-.1-.43c0-.19-.05-.45-.07-.78s0-.73-.05-1.2,0-1,0-1.69c0-.32,0-.6,0-.83s0-.46,0-.68,0-.45,0-.68,0-.51,0-.83c0-.52,0-1.07.07-1.64s0-1.11,0-1.62c0-.19,0-.34,0-.45s0-.21,0-.29a1.42,1.42,0,0,0-.05-.22c0-.07,0-.14-.07-.22s-.08-.22-.12-.31a.51.51,0,0,1,0-.33.73.73,0,0,1,.2-.33l.28-.27a2.07,2.07,0,0,1,.54-.34,1.79,1.79,0,0,1,.6-.16.63.63,0,0,1,.51.21l.39.41a1.91,1.91,0,0,1,.45.72,3.63,3.63,0,0,1,.19.84,10,10,0,0,1,.05,1.22c0,.4,0,.77,0,1.12v1.44l.93-1c.31-.33.61-.66.89-1l.78-.89c.24-.27.43-.5.58-.69s.37-.53.55-.82a4,4,0,0,0,.39-.78l.2-.48a.4.4,0,0,1,.36-.26l.38,0a3.35,3.35,0,0,1,.44.07l.41.1a1,1,0,0,1,.29.11,1.1,1.1,0,0,1,.45.43,1,1,0,0,1,.09.67,3.49,3.49,0,0,1-.63,1.44c-.34.48-.68.93-1,1.36s-.56.68-1,1.15-.92,1-1.44,1.51l.88,1.41.9,1.42c.29.46.58.89.85,1.29S515,114.14,515.23,114.42Z" transform="translate(1.96 -101.31)"/><path class="cls-1" d="M532.19,106.82c.23.13.33.28.3.43s-.08.41-.16.77-.19.77-.32,1.26-.28,1-.45,1.57-.35,1.12-.54,1.7-.38,1.13-.57,1.64-.36,1-.53,1.39a7.06,7.06,0,0,1-.45.94,1.77,1.77,0,0,1-.77.74,1.45,1.45,0,0,1-1.07.08l-.61.07a.89.89,0,0,1-.44,0,.8.8,0,0,1-.35-.34,4.2,4.2,0,0,1-.36-.8c-.08-.21-.17-.49-.27-.83s-.21-.72-.32-1.14-.23-.87-.36-1.34-.25-.94-.37-1.41q-.18.72-.39,1.47l-.39,1.4c-.12.43-.23.81-.34,1.14s-.19.56-.24.69a2.14,2.14,0,0,1-.68.94,1.36,1.36,0,0,1-1.18.06l-.14-.06a1.2,1.2,0,0,1-1.44-.25,4.15,4.15,0,0,1-.74-1.79c-.09-.4-.22-.89-.37-1.48s-.32-1.18-.49-1.78-.35-1.17-.52-1.72-.33-1-.46-1.34a2.91,2.91,0,0,0-.26-.53,3,3,0,0,0-.32-.41.6.6,0,0,1-.16-.43.53.53,0,0,1,.22-.43c.11-.08.28-.19.52-.33a3,3,0,0,1,.56-.27,1.17,1.17,0,0,1,.74-.07,1.9,1.9,0,0,1,.62.37A3.26,3.26,0,0,1,520,108c.09.27.2.61.32,1s.24.87.37,1.36.25,1,.38,1.53.25,1.05.37,1.56c.15-.56.31-1.14.48-1.73s.34-1.16.51-1.7.32-1,.47-1.47.27-.79.38-1a.85.85,0,0,1,.22-.28.79.79,0,0,1,0-.45.61.61,0,0,1,.38-.27,3.62,3.62,0,0,1,.61-.16l.61-.1a.74.74,0,0,1,.58.11,1.16,1.16,0,0,1,.26.57l.31,1.19.47,1.75c.17.64.35,1.3.54,2s.35,1.32.5,1.91c.16-.47.32-1,.48-1.46s.31-1,.45-1.48.26-.93.37-1.34a9,9,0,0,0,.22-1c.07-.37.12-.67.16-.9s.07-.45.1-.68a1,1,0,0,1,.19-.47.6.6,0,0,1,.57-.15l.47.07a4.54,4.54,0,0,1,.53.12l.48.15A2.1,2.1,0,0,1,532.19,106.82Z" transform="translate(1.96 -101.31)"/><path class="cls-1" d="M538.41,106.24a4.1,4.1,0,0,1,1.83.42,4.7,4.7,0,0,1,1.48,1.14,5.14,5.14,0,0,1,1,1.69,6.19,6.19,0,0,1,.35,2.09,6.88,6.88,0,0,1-.19,1.64,6.19,6.19,0,0,1-.56,1.49,4.9,4.9,0,0,1-.94,1.23,3.86,3.86,0,0,1-1.33.82,3.35,3.35,0,0,1-1.58.57,3.68,3.68,0,0,1-1.58-.15,5.22,5.22,0,0,1-1.88-1,5.1,5.1,0,0,1-1.16-1.48,5.63,5.63,0,0,1-.56-1.74,8.73,8.73,0,0,1-.08-1.84,4.67,4.67,0,0,1,.29-1.34,6.74,6.74,0,0,1,.63-1.26,6.16,6.16,0,0,1,.84-1,3.74,3.74,0,0,1,.92-.7,3.58,3.58,0,0,1,1-.41,1.5,1.5,0,0,1,.73,0A2.71,2.71,0,0,1,538.41,106.24Zm-1,2.38a3.76,3.76,0,0,0-1.28,3.14,4.17,4.17,0,0,0,.39,1.57,2.83,2.83,0,0,0,1,1.17h.16a2.45,2.45,0,0,0,1.08-.23,2,2,0,0,0,.76-.63,2.87,2.87,0,0,0,.45-.93,4,4,0,0,0,.15-1.11,3.61,3.61,0,0,0-.19-1.21,2.79,2.79,0,0,0-.54-.94,2.5,2.5,0,0,0-.85-.61,2.64,2.64,0,0,0-1.1-.22Z" transform="translate(1.96 -101.31)"/><path class="cls-1" d="M554.05,109.86a12.1,12.1,0,0,1,.15,2.18c0,.81,0,1.61-.05,2.38q0,.84-.12,1.35a3.15,3.15,0,0,1-.23.84,2.26,2.26,0,0,1-.35.55c-.13.15-.29.31-.46.48a2.34,2.34,0,0,0-.49-.53,7.63,7.63,0,0,0-.67-.49,1.17,1.17,0,0,1-.46-.78,8.58,8.58,0,0,1-.16-1.1c0-.43,0-.92,0-1.49s0-1.12,0-1.65c0-.21,0-.44,0-.67a3.16,3.16,0,0,0-.14-.68,2.1,2.1,0,0,0-.32-.61,1.41,1.41,0,0,0-1.67-.44,5.7,5.7,0,0,0-1.1.56c0,.23,0,.43,0,.61s0,.34,0,.49c0,.63,0,1.33,0,2.1a20,20,0,0,1-.08,2.22,2.21,2.21,0,0,1-.24.74,4.68,4.68,0,0,1-.47.72,3.68,3.68,0,0,1-.58.6,3.78,3.78,0,0,1-.57.4,11.43,11.43,0,0,0-.68-1.3,2.6,2.6,0,0,1-.35-1.07,9.24,9.24,0,0,1-.07-1.13c0-.23,0-.55,0-1s0-.87,0-1.36v-1.45c0-.48,0-.9,0-1.26a4.18,4.18,0,0,0-.09-.71,3.33,3.33,0,0,0-.25-.73.6.6,0,0,1-.07-.37.77.77,0,0,1,.23-.35,3.59,3.59,0,0,1,.6-.46,2,2,0,0,1,.76-.3,1.21,1.21,0,0,1,1,.32l.33.31a1.25,1.25,0,0,1,.25.39,12.18,12.18,0,0,1,1.81-.72,3.57,3.57,0,0,1,1.83-.08,3,3,0,0,1,2,1.19A5.55,5.55,0,0,1,554.05,109.86Z" transform="translate(1.96 -101.31)"/></svg>