<svg id="레이어_1" data-name="레이어 1" xmlns="http://www.w3.org/2000/svg" viewBox="0 0 187.8 61.55"><defs><style>.cls-1{fill:#606060;opacity:0.3;}.cls-2{fill:#9cc3d5;}.cls-3{fill:#fcf6f5;stroke:#fcf6f5;stroke-miterlimit:10;}.cls-4{fill:#ffda67;}</style></defs><title>lightMode_hover</title><rect class="cls-1" x="7.8" y="6.55" width="180" height="55" rx="13.37"/><rect class="cls-2" width="183.6" height="56.1" rx="13.64"/><path class="cls-3" d="M59.29,213.26V198H61.1v14.66h9.33v1.86H60.32Z" transform="translate(0.8 -177.45)"/><path class="cls-3" d="M75,203.05l-1.81.52-1.66-3.93,1.82-.47ZM72.6,214.66v-9.48h1.81v9.58Z" transform="translate(0.8 -177.45)"/><path class="cls-3" d="M84.23,219.47h-8v-2h7l1.08-.93-.1-4.61a4.37,4.37,0,0,1-1.86,1.44,6.16,6.16,0,0,1-2.44.5,3.64,3.64,0,0,1-2.65-1,4,4,0,0,1-1-3,4.77,4.77,0,0,1,.53-2.21,5.63,5.63,0,0,1,1.41-1.77,7,7,0,0,1,2-1.15,6.55,6.55,0,0,1,2.27-.41,4.19,4.19,0,0,1,2.24.61A3,3,0,0,1,86,206.84v10.67Zm-6.16-8.85a1.78,1.78,0,0,0,.69,1.14,2.15,2.15,0,0,0,1.17.33,3.87,3.87,0,0,0,1.49-.33,6.11,6.11,0,0,0,1.46-.9A5.28,5.28,0,0,0,84,209.58a2.79,2.79,0,0,0,.45-1.5,2.2,2.2,0,0,0-.58-1.56,1.94,1.94,0,0,0-1.46-.62,4.47,4.47,0,0,0-1.48.35,5.88,5.88,0,0,0-1.44.87,5.09,5.09,0,0,0-1.1,1.26,2.9,2.9,0,0,0-.44,1.54A2.19,2.19,0,0,0,78.07,210.62Z" transform="translate(0.8 -177.45)"/><path class="cls-3" d="M94.92,206.27H90v8.34l-1.6.15V198.44H90v6.17h5.34l1.19.57,1,9.43-1.65.1Z" transform="translate(0.8 -177.45)"/><path class="cls-3" d="M101.09,214v-7.85H98.45l.15-1.89h2.85V199h1.76v5.39h4.25v1.87H103V213l3.91-.73.26,1.77L102,215.12Z" transform="translate(0.8 -177.45)"/><path class="cls-3" d="M117.61,201.19v13.42h-2V198.29l2.49-.36,4,10.36,4.66-10,2,.15L129.94,215h-1.76l-.93-13.62L122.53,211l-1.14-.15Z" transform="translate(0.8 -177.45)"/><path class="cls-3" d="M135.79,203.73a4.74,4.74,0,0,1,2.2.46,3.93,3.93,0,0,1,1.48,1.29,5.41,5.41,0,0,1,.83,1.89,10,10,0,0,1,.26,2.31,7.79,7.79,0,0,1-.45,2.43,5.17,5.17,0,0,1-1.05,1.69,4.23,4.23,0,0,1-1.47,1,4.65,4.65,0,0,1-1.69.32,4.26,4.26,0,0,1-2-.46,4.38,4.38,0,0,1-1.45-1.26,5.75,5.75,0,0,1-.88-1.81,7.62,7.62,0,0,1-.3-2.16,7.5,7.5,0,0,1,.33-2.27,5.79,5.79,0,0,1,.9-1.81,4.08,4.08,0,0,1,3.33-1.62Zm.16,1.76a2.89,2.89,0,0,0-2.24.88,4,4,0,0,0-.82,2.82,5.42,5.42,0,0,0,.21,1.49,4.94,4.94,0,0,0,.6,1.34,3.31,3.31,0,0,0,.93,1,2.08,2.08,0,0,0,1.21.37,2.48,2.48,0,0,0,1.27-.33,3.33,3.33,0,0,0,1-.87,4.46,4.46,0,0,0,.61-1.19,4,4,0,0,0,.22-1.29,5,5,0,0,0-.82-3.23A2.65,2.65,0,0,0,136,205.49Z" transform="translate(0.8 -177.45)"/><path class="cls-3" d="M150.92,196.94v16.68l-.68.83a10.9,10.9,0,0,1-1.6.36,10.4,10.4,0,0,1-1.43.11,6.33,6.33,0,0,1-2.65-.5,4.84,4.84,0,0,1-1.75-1.29,5,5,0,0,1-1-1.79,6.76,6.76,0,0,1-.3-2,6,6,0,0,1,.44-2.42,4.92,4.92,0,0,1,1.15-1.65,4.61,4.61,0,0,1,1.61-.94,5.75,5.75,0,0,1,1.83-.3,5.56,5.56,0,0,1,2.74.67l-.05-7.82ZM149.21,207a4.38,4.38,0,0,0-1.3-.82,3.89,3.89,0,0,0-1.42-.27,3.45,3.45,0,0,0-1.2.22,3.16,3.16,0,0,0-1,.65,3.34,3.34,0,0,0-.71,1.06,3.81,3.81,0,0,0-.27,1.49,3.87,3.87,0,0,0,.33,1.68,3.21,3.21,0,0,0,.9,1.14,3.59,3.59,0,0,0,1.29.66,5.27,5.27,0,0,0,1.54.23,4.34,4.34,0,0,0,1.87-.39Z" transform="translate(0.8 -177.45)"/><path class="cls-3" d="M152.89,209.27a6.08,6.08,0,0,1,.41-2.4,4.6,4.6,0,0,1,1-1.55,3.76,3.76,0,0,1,1.41-.83,5.09,5.09,0,0,1,1.5-.24,5.52,5.52,0,0,1,1.87.29,3.3,3.3,0,0,1,1.41,1,4.69,4.69,0,0,1,.89,1.82,10.72,10.72,0,0,1,.31,2.8l-7.2.7a2.88,2.88,0,0,0,.4,1.23,2.67,2.67,0,0,0,.82.82,3.66,3.66,0,0,0,1.06.44,5.67,5.67,0,0,0,1.17.13,6.32,6.32,0,0,0,1.89-.29,3.41,3.41,0,0,0,1.34-.7l.47,1.24a2.08,2.08,0,0,1-.54.52,3.67,3.67,0,0,1-.86.46,6.24,6.24,0,0,1-1.1.31,7.27,7.27,0,0,1-1.25.11,6.05,6.05,0,0,1-1.82-.28,4.24,4.24,0,0,1-1.63-1,4.79,4.79,0,0,1-1.16-1.8A7.64,7.64,0,0,1,152.89,209.27Zm1.5,0,5.69-.62a2.94,2.94,0,0,0-.67-2,2.75,2.75,0,0,0-2.17-.77,2.86,2.86,0,0,0-1.26.31,3,3,0,0,0-.89.72,2.75,2.75,0,0,0-.55,1,3.49,3.49,0,0,0-.18,1.11A1.19,1.19,0,0,0,154.39,209.32Z" transform="translate(0.8 -177.45)"/><path class="cls-4" d="M41.4,206.75a9.86,9.86,0,1,1-9.82-9.88A9.83,9.83,0,0,1,41.4,206.75Z" transform="translate(0.8 -177.45)"/><path class="cls-4" d="M42.6,219.07a.79.79,0,0,1-.37.62.56.56,0,0,1-.75-.11q-1.26-1.47-2.49-3a.57.57,0,0,1,.09-.81.52.52,0,0,1,.8-.06,30.25,30.25,0,0,1,2.63,3.13A.72.72,0,0,1,42.6,219.07Z" transform="translate(0.8 -177.45)"/><path class="cls-4" d="M43.86,205.23a.66.66,0,0,1-.7-.57.6.6,0,0,1,.48-.73c1.24-.24,2.49-.45,3.73-.65a.6.6,0,0,1,.72.51.56.56,0,0,1-.45.73C46.38,204.78,45.11,205,43.86,205.23Z" transform="translate(0.8 -177.45)"/><path class="cls-4" d="M15.84,203.29c1.09.19,2.34.39,3.58.64a.58.58,0,0,1,.49.72.64.64,0,0,1-.75.57c-1.22-.21-2.44-.42-3.65-.66a.63.63,0,0,1-.55-.69C15,203.49,15.25,203.24,15.84,203.29Z" transform="translate(0.8 -177.45)"/><path class="cls-4" d="M21.22,219.77c-.55,0-.92-.55-.63-.94a30.27,30.27,0,0,1,2.58-3.08.52.52,0,0,1,.74,0c.27.21.42.53.21.79-.85,1.07-1.74,2.1-2.63,3.13C21.42,219.74,21.27,219.75,21.22,219.77Z" transform="translate(0.8 -177.45)"/><path class="cls-4" d="M16,210.14c-.63.09-.9-.11-1-.5a.63.63,0,0,1,.55-.76c1.22-.23,2.43-.45,3.66-.65a.63.63,0,0,1,.73.58.61.61,0,0,1-.51.72C18.19,209.76,17,210,16,210.14Z" transform="translate(0.8 -177.45)"/><path class="cls-4" d="M47.13,210.14c-1-.18-2.23-.37-3.45-.61a.6.6,0,0,1-.51-.78.64.64,0,0,1,.78-.52c1.2.21,2.39.42,3.58.65a.63.63,0,0,1,.57.75C48,210,47.76,210.23,47.13,210.14Z" transform="translate(0.8 -177.45)"/><path class="cls-4" d="M42.61,194.4a4.13,4.13,0,0,1-.28.47c-.73.88-1.48,1.75-2.21,2.63-.3.35-.64.52-1,.17s-.25-.69,0-1c.75-.86,1.48-1.75,2.21-2.63a.64.64,0,0,1,.78-.27A.77.77,0,0,1,42.61,194.4Z" transform="translate(0.8 -177.45)"/><path class="cls-4" d="M24.19,197.18a.68.68,0,0,1-.39.6.48.48,0,0,1-.61-.07,30.35,30.35,0,0,1-2.64-3.13c-.2-.28,0-.53.17-.73a.51.51,0,0,1,.75-.06A33.88,33.88,0,0,1,24.15,197C24.19,197,24.18,197.12,24.19,197.18Z" transform="translate(0.8 -177.45)"/><path class="cls-4" d="M27.21,217.8a.62.62,0,0,1,.67.85c-.4,1.17-.84,2.32-1.27,3.48a.64.64,0,1,1-1.21-.39c.41-1.21.86-2.42,1.31-3.62A.51.51,0,0,1,27.21,217.8Z" transform="translate(0.8 -177.45)"/><path class="cls-4" d="M17.58,215.48a.71.71,0,0,1-.67-.45.55.55,0,0,1,.23-.72c1.13-.68,2.27-1.34,3.42-2,.26-.14.48,0,.66.21a.54.54,0,0,1,.06.75A26.53,26.53,0,0,1,17.58,215.48Z" transform="translate(0.8 -177.45)"/><path class="cls-4" d="M37.74,221.83a.7.7,0,0,1-.48.72.59.59,0,0,1-.78-.39c-.46-1.17-.89-2.36-1.31-3.54a.58.58,0,0,1,.32-.75c.31-.15.7-.14.84.22C36.83,219.33,37.27,220.58,37.74,221.83Z" transform="translate(0.8 -177.45)"/><path class="cls-4" d="M17.71,198a2.84,2.84,0,0,1,.32.14c.95.55,1.89,1.1,2.85,1.64.43.24.66.59.4,1s-.65.36-1,.12l-2.91-1.69c-.31-.19-.57-.43-.42-.85S17.27,198,17.71,198Z" transform="translate(0.8 -177.45)"/><path class="cls-4" d="M37.69,191.44a2.62,2.62,0,0,1-.28,1c-.32.88-.63,1.77-.94,2.66a.66.66,0,0,1-.93.48c-.39-.16-.48-.5-.31-.93.41-1.08.79-2.18,1.19-3.27a.65.65,0,0,1,.79-.51A.54.54,0,0,1,37.69,191.44Z" transform="translate(0.8 -177.45)"/><path class="cls-4" d="M25.31,191.57a.72.72,0,0,1,.55-.68.55.55,0,0,1,.69.31c.48,1.24.94,2.5,1.37,3.76a.53.53,0,0,1-.39.64c-.26.1-.62.12-.74-.16C26.27,194.16,25.8,192.86,25.31,191.57Z" transform="translate(0.8 -177.45)"/><path class="cls-4" d="M45.29,215.38a1,1,0,0,1-.23-.1c-1-.54-1.9-1.1-2.85-1.63-.43-.24-.68-.58-.43-1s.69-.36,1.1-.11c1,.57,1.94,1.12,2.9,1.69a.64.64,0,0,1,.39.8C46.05,215.31,45.83,215.49,45.29,215.38Z" transform="translate(0.8 -177.45)"/><path class="cls-4" d="M45.56,198a.58.58,0,0,1,.58.39.52.52,0,0,1-.19.72c-1.13.69-2.28,1.34-3.42,2-.3.18-.55,0-.71-.23a.55.55,0,0,1,0-.81,27.25,27.25,0,0,1,3.55-2S45.51,198,45.56,198Z" transform="translate(0.8 -177.45)"/><path class="cls-4" d="M32.16,192.41v1.72c0,.42-.1.75-.6.76s-.65-.28-.65-.71c0-1.18,0-2.35,0-3.52,0-.43.14-.74.64-.73s.61.34.61.76v1.72Z" transform="translate(0.8 -177.45)"/><path class="cls-4" d="M32.16,221.1c0,.57,0,1.14,0,1.72,0,.39-.14.68-.59.7s-.66-.28-.66-.71v-3.59c0-.42.19-.66.63-.66s.62.26.62.67v1.87Z" transform="translate(0.8 -177.45)"/></svg>