<svg id="레이어_1" data-name="레이어 1" xmlns="http://www.w3.org/2000/svg" xmlns:xlink="http://www.w3.org/1999/xlink" viewBox="0 0 56.33 39.43"><defs><style>.cls-1{fill:none;}.cls-2{fill:#c0dee5;}.cls-3{fill:#ebede7;}.cls-4{clip-path:url(#clip-path);}</style><clipPath id="clip-path" transform="translate(3.24 -18.18)"><rect class="cls-1" x="25.88" y="26.58" width="13.75" height="20.62" rx="6.87" transform="translate(-14.06 21.32) rotate(-30)"/></clipPath></defs><title>mouse</title><rect class="cls-2" x="27.68" y="32.32" width="13.75" height="15.38" rx="3.93" transform="translate(-12.13 4.46) rotate(-30)"/><rect class="cls-2" x="25.88" y="26.58" width="13.75" height="20.62" rx="6.87" transform="translate(-10.81 3.14) rotate(-30)"/><rect class="cls-3" x="29.54" y="29.47" width="1.64" height="5.89" rx="0.82" transform="translate(-8.9 1.34) rotate(-30)"/><g class="cls-4"><image width="420" height="420" transform="translate(16.9 14.43) rotate(-30) scale(0.07)" xlink:href="../../../../../../../../../Downloads/clean-textile.png"/></g><path class="cls-2" d="M27.33,28.63a10.18,10.18,0,0,0-12.15,1.09,12.34,12.34,0,0,0-3.39,5.11c-.66,1.77-.74,3.7-1.38,5.48a9.49,9.49,0,0,1-4,5.33q-7.56,1.15-8.91-4.71c-.18-.44-.9-.25-.73.2,1.78,4.63,5.67,8.11,10.59,4.75a10.74,10.74,0,0,0,4-6.29c.82-2.83,1.13-5.5,3-7.89A9.66,9.66,0,0,1,27,29.28c.42.23.8-.42.38-.65Z" transform="translate(3.24 -18.18)"/></svg>