<svg id="레이어_1" data-name="레이어 1" xmlns="http://www.w3.org/2000/svg" viewBox="0 0 175 131"><defs><style>.cls-1{fill:#b3c7d6;}.cls-2{fill:#606060;}</style></defs><title>react_bubble</title><polygon class="cls-1" points="151.76 33 161 131 161 33 151.76 33"/><rect class="cls-1" width="175" height="70" rx="3.59"/><path class="cls-2" d="M21.73,40.57v-.48h2.6L24.48,42l-2.35.27v1.23h2.71l0,.49H21.81l-.29-.16V41.8l2.42-.23-.08-1Zm4.16,4V39.23h.64v5.34Z" transform="translate(-13 -27)"/><path class="cls-2" d="M27.77,41.49q0-.16,0-.45a1.93,1.93,0,0,1,.18-.56A1.47,1.47,0,0,1,28.4,40a1.25,1.25,0,0,1,.74-.2,1.14,1.14,0,0,1,.68.2,1.47,1.47,0,0,1,.42.48,2,2,0,0,1,.21.56,1.83,1.83,0,0,1,.07.45,3.28,3.28,0,0,1-.05.47,2,2,0,0,1-.18.56,1.21,1.21,0,0,1-1.15.66,1.14,1.14,0,0,1-.7-.2,1.41,1.41,0,0,1-.42-.46,1.8,1.8,0,0,1-.2-.56A2.28,2.28,0,0,1,27.77,41.49Zm.51,0a1.73,1.73,0,0,0,0,.37,1,1,0,0,0,.13.38.83.83,0,0,0,.26.3.75.75,0,0,0,.43.12.7.7,0,0,0,.42-.12.83.83,0,0,0,.26-.3,1.24,1.24,0,0,0,.14-.38,1.73,1.73,0,0,0,0-.37,1.75,1.75,0,0,0-.17-.74.83.83,0,0,0-.26-.3.69.69,0,0,0-.43-.13.65.65,0,0,0-.43.13.75.75,0,0,0-.26.3,1.07,1.07,0,0,0-.13.38A1.71,1.71,0,0,0,28.28,41.49Zm5.06,4.88h-.48V44.7H29.09v-.54h4l.28.33Zm-.48-6.88h.53v4h-.53V41.63H32v1.71h-.56V39.51H32v1.61h.89Z" transform="translate(-13 -27)"/><path class="cls-2" d="M39.84,45.29H34.41v-.52h5.43ZM38.92,43v.51H35.63l-.3-.39V40.29H38.5v.41H35.84v.89h2.82V42H35.84V43Z" transform="translate(-13 -27)"/><path class="cls-2" d="M41.39,43.62l.64.62-1,1.53-.39-.29.69-1.1L41,44Z" transform="translate(-13 -27)"/><path class="cls-2" d="M45.16,40.57v-.48h2.59L47.91,42l-2.36.27v1.23h2.72l0,.49H45.23l-.29-.16V41.8l2.42-.23-.08-1Zm4.15,4V39.23H50v5.34Z" transform="translate(-13 -27)"/><path class="cls-2" d="M51.19,41.49a2.93,2.93,0,0,1,0-.45,1.47,1.47,0,0,1,.18-.56,1.33,1.33,0,0,1,.41-.48,1.25,1.25,0,0,1,.74-.2,1.14,1.14,0,0,1,.68.2,1.47,1.47,0,0,1,.42.48,2.41,2.41,0,0,1,.22.56,2.32,2.32,0,0,1,.06.45,3.28,3.28,0,0,1,0,.47,1.74,1.74,0,0,1-.18.56,1.21,1.21,0,0,1-1.15.66,1.16,1.16,0,0,1-.7-.2,1.41,1.41,0,0,1-.42-.46,1.8,1.8,0,0,1-.2-.56A2.28,2.28,0,0,1,51.19,41.49Zm.51,0a1.73,1.73,0,0,0,0,.37,1.22,1.22,0,0,0,.13.38.86.86,0,0,0,.27.3.7.7,0,0,0,.42.12.68.68,0,0,0,.42-.12,1,1,0,0,0,.27-.3,1.22,1.22,0,0,0,.13-.38,1.73,1.73,0,0,0,0-.37,1.71,1.71,0,0,0,0-.36,1.32,1.32,0,0,0-.13-.38.83.83,0,0,0-.26-.3.78.78,0,0,0-.86,0,.83.83,0,0,0-.26.3,1.07,1.07,0,0,0-.13.38A1.71,1.71,0,0,0,51.7,41.49Zm5.07,4.88h-.49V44.7H52.52v-.54h4l.29.33Zm-.49-6.88h.53v4h-.53V41.63h-.89v1.71h-.56V39.51h.56v1.61h.89Z" transform="translate(-13 -27)"/><path class="cls-2" d="M63.27,45.29H57.83v-.52h5.44ZM62.34,43v.51H59.05l-.3-.39V40.29h3.17v.41H59.27v.89h2.81V42H59.27V43Z" transform="translate(-13 -27)"/><path class="cls-2" d="M69.42,43.21v1h1.5l.28.32v1.88h-.56V44.76H67v-.53h1.91v-1H66.27l0-.49h5.45v.44ZM67.73,41a1.65,1.65,0,0,1,.13-.47.88.88,0,0,1,.3-.36l-.83-.1.08-.48,1.59.16.09-.91.49,0-.08.93,1.38.16-.07.49-.72-.07a.77.77,0,0,1,.18.32,1.35,1.35,0,0,1,.06.37,1.93,1.93,0,0,1-.12.5A1.7,1.7,0,0,1,70,42a1.23,1.23,0,0,1-.87.32,1.42,1.42,0,0,1-.57-.1,1.25,1.25,0,0,1-.42-.26,1.1,1.1,0,0,1-.27-.38,1.15,1.15,0,0,1-.09-.44Zm.55,0V41a.67.67,0,0,0,.06.28.61.61,0,0,0,.15.24.74.74,0,0,0,.25.17.66.66,0,0,0,.32.07.67.67,0,0,0,.54-.22.77.77,0,0,0,.2-.55.72.72,0,0,0-.23-.57.75.75,0,0,0-.79-.16,1.14,1.14,0,0,0-.23.15.7.7,0,0,0-.17.24A1,1,0,0,0,68.28,41Z" transform="translate(-13 -27)"/><path class="cls-2" d="M78,45.13H72.89v-.51H78Zm-4.47-2,1.56-1.79V40.07h.56V41.3l1.66,1.52-.28.41-1.63-1.44L74,43.46Z" transform="translate(-13 -27)"/><path class="cls-2" d="M84.64,42.84h-5.5l0-.44h5.46Zm-4.48.73h3.72V45.3H80.41V46h3.93v.41H80.16l-.27-.16V44.8h3.45V44H80.16Zm.22-4.73h3.15v1.67h-3v.73h3.29v.46H80.39L80,41.41V40.05h3v-.73H80.39Z" transform="translate(-13 -27)"/><path class="cls-2" d="M88.17,40.68a1.17,1.17,0,0,1,.09-.4.83.83,0,0,1,.27-.38l-.64-.08.06-.44,1.36.16.11-.84.52.07-.1.85,1.16.12,0,.42-.59-.06a1.57,1.57,0,0,1,.12.3,1.17,1.17,0,0,1-.2,1.06,1,1,0,0,1-.67.38l0,.79h1.44v.53H87.7V42.6h1.44l0-.77a1.27,1.27,0,0,1-.51-.17,1.09,1.09,0,0,1-.28-.29A.93.93,0,0,1,88.2,41,2,2,0,0,1,88.17,40.68ZM88.83,44v-.49h3.39l.14,1.55H89V46H93.3l0,.47H88.64l-.26-.16.1-1.47H91.8V44Zm-.16-3.36v0a.66.66,0,0,0,.18.47.82.82,0,0,0,1.06,0,.89.89,0,0,0,.17-.54.57.57,0,0,0-.21-.48.78.78,0,0,0-.5-.17.7.7,0,0,0-.48.18A.67.67,0,0,0,88.67,40.68Zm3,2.45V39.4h.5V41h1.11v.51H92.19v1.66Z" transform="translate(-13 -27)"/><path class="cls-2" d="M95.25,40.82a1.19,1.19,0,0,1,.12-.54,1.13,1.13,0,0,1,.33-.39,1.4,1.4,0,0,1,.49-.24,2.27,2.27,0,0,1,.59-.08,1.74,1.74,0,0,1,.61.1,1.32,1.32,0,0,1,.81.66,1.14,1.14,0,0,1,.11.49,1.25,1.25,0,0,1-.11.53,1.07,1.07,0,0,1-.3.36L98,43h1.59v.51H94.08V43h1.65V41.73h0a1.11,1.11,0,0,1-.45-.91Zm.11,4.38a1,1,0,0,1,.1-.45,1,1,0,0,1,.29-.37,1.51,1.51,0,0,1,.49-.25,2.29,2.29,0,0,1,.68-.09,2.33,2.33,0,0,1,.68.09,1.42,1.42,0,0,1,.49.25,1.17,1.17,0,0,1,.3.37,1.13,1.13,0,0,1,.09.45,1.18,1.18,0,0,1-.09.46,1.17,1.17,0,0,1-.3.37,1.61,1.61,0,0,1-.49.25,2.33,2.33,0,0,1-.68.09,2.29,2.29,0,0,1-.68-.09,1.74,1.74,0,0,1-.49-.25,1,1,0,0,1-.29-.37A1,1,0,0,1,95.36,45.2Zm2.45-4.38a.58.58,0,0,0-.07-.28.67.67,0,0,0-.2-.25.75.75,0,0,0-.3-.18,1,1,0,0,0-.4-.07,1.39,1.39,0,0,0-.48.07.9.9,0,0,0-.34.17.73.73,0,0,0-.2.24.54.54,0,0,0-.07.27.68.68,0,0,0,.09.35.59.59,0,0,0,.23.24.87.87,0,0,0,.34.14,1.75,1.75,0,0,0,.4,0,1.59,1.59,0,0,0,.38-.06,1.57,1.57,0,0,0,.32-.15.83.83,0,0,0,.22-.24A.52.52,0,0,0,97.81,40.82Zm.13,4.38a.58.58,0,0,0-.27-.49,1.19,1.19,0,0,0-.75-.2,1.16,1.16,0,0,0-.75.2.57.57,0,0,0-.26.49.61.61,0,0,0,.26.5,1.22,1.22,0,0,0,.75.2,1.26,1.26,0,0,0,.75-.2A.62.62,0,0,0,97.94,45.2ZM97.38,42a1.36,1.36,0,0,1-.29.06h-.6a1.1,1.1,0,0,1-.26-.06l0,1h1.13Z" transform="translate(-13 -27)"/><path class="cls-2" d="M103.64,41.27l0,.47-3.39-.26V41l1.44.1V39.73l.53,0v1.39Zm-.56,2.41a1.94,1.94,0,0,1-.15.5,1.53,1.53,0,0,1-.29.38,1.15,1.15,0,0,1-.84.35,1.41,1.41,0,0,1-.61-.13,1.31,1.31,0,0,1-.4-.33,1.24,1.24,0,0,1-.23-.44,1.9,1.9,0,0,1-.07-.46,1.92,1.92,0,0,1,.08-.55,1.36,1.36,0,0,1,.25-.46,1.17,1.17,0,0,1,.41-.32,1.25,1.25,0,0,1,.56-.12,1.23,1.23,0,0,1,.94.38,1.4,1.4,0,0,1,.36,1v.1S103.08,43.65,103.08,43.68Zm-2-.39a.9.9,0,0,0,0,.25,1,1,0,0,0,.17.57,1,1,0,0,0,.24.21.8.8,0,0,0,.36.08.72.72,0,0,0,.32-.08.82.82,0,0,0,.25-.21.89.89,0,0,0,.18-.3,1,1,0,0,0,.06-.36,1,1,0,0,0-.2-.6.78.78,0,0,0-1.08-.06A.91.91,0,0,0,101,43.29Zm3.88,2.23-.58,0V39.87H105v2.4h1.19v.5h-1.25Z" transform="translate(-13 -27)"/><path class="cls-2" d="M106.83,42.43a3.19,3.19,0,0,1,.06-.59,2.07,2.07,0,0,1,.23-.58,1.42,1.42,0,0,1,.43-.45,1.28,1.28,0,0,1,.7-.18,1.14,1.14,0,0,1,.68.19,1.38,1.38,0,0,1,.45.45l2.31,0V40h.48v5.33h-.42V43.41h-2.27A1.68,1.68,0,0,1,109,44a1.16,1.16,0,0,1-.77.24,1.29,1.29,0,0,1-.68-.17,1.51,1.51,0,0,1-.44-.43,2,2,0,0,1-.23-.58A2.58,2.58,0,0,1,106.83,42.43Zm.51,0a3.29,3.29,0,0,0,0,.42,1.88,1.88,0,0,0,.14.42,1,1,0,0,0,.28.33.84.84,0,0,0,.9,0,1,1,0,0,0,.28-.33,1.88,1.88,0,0,0,.14-.42,3.29,3.29,0,0,0,0-.42,2.18,2.18,0,0,0,0-.42,1.48,1.48,0,0,0-.14-.42,1,1,0,0,0-.28-.33.76.76,0,0,0-.44-.13.81.81,0,0,0-.46.13,1,1,0,0,0-.27.33,1.23,1.23,0,0,0-.14.42A3.29,3.29,0,0,0,107.34,42.43Zm2.25-.67a2,2,0,0,1,.06.34,1.94,1.94,0,0,1,0,.33,1.69,1.69,0,0,1,0,.23l0,.24,2.07,0V41.77Z" transform="translate(-13 -27)"/><path class="cls-2" d="M27,52.9H21.5l0-.43H27ZM26.44,56h-.56V54.29H22.19v-.53h4l.28.33ZM26,51.2v.52H23l-.3-.33V49h3v.41H23.22V50h2.5v.46h-2.5v.7Z" transform="translate(-13 -27)"/><path class="cls-2" d="M30.72,49.26v.5H29.55v.94l1.58,1.63-.32.4-1.5-1.47-1.25,1.63-.39-.41L29,50.72v-1H27.75v-.51Zm-.89,5.46a1,1,0,0,1,.1-.45,1,1,0,0,1,.29-.37,1.51,1.51,0,0,1,.49-.25,2.29,2.29,0,0,1,.68-.09,2.33,2.33,0,0,1,.68.09,1.42,1.42,0,0,1,.49.25,1.17,1.17,0,0,1,.3.37,1.13,1.13,0,0,1,.09.45,1.18,1.18,0,0,1-.09.46,1.17,1.17,0,0,1-.3.37,1.42,1.42,0,0,1-.49.25,2.33,2.33,0,0,1-.68.09,2.29,2.29,0,0,1-.68-.09,1.51,1.51,0,0,1-.49-.25,1,1,0,0,1-.29-.37A1,1,0,0,1,29.83,54.72Zm2.58,0a.58.58,0,0,0-.27-.49,1.26,1.26,0,0,0-.75-.2,1.22,1.22,0,0,0-.75.2.57.57,0,0,0-.26.49.6.6,0,0,0,.26.5,1.22,1.22,0,0,0,.75.2,1.26,1.26,0,0,0,.75-.2A.61.61,0,0,0,32.41,54.72ZM33,49v4.11h-.5V50.83H30.58v-.5h1.84V49Z" transform="translate(-13 -27)"/><path class="cls-2" d="M39.31,50l-1.17,4L37.61,54l1.08-3.7H36.48l.05-.61h2.53Zm1.49,4.14V48.83h.64v5.34Z" transform="translate(-13 -27)"/><path class="cls-2" d="M48.34,52.9h-5.5l0-.43h5.45Zm-4-1.21L44,51.36V49.08h.53v2.11h2.67v.48Zm-.23,3.1a1.12,1.12,0,0,1,.09-.44,1.07,1.07,0,0,1,.3-.37,1.42,1.42,0,0,1,.49-.25,2.29,2.29,0,0,1,.68-.09,2.26,2.26,0,0,1,.67.09,1.47,1.47,0,0,1,.5.25.94.94,0,0,1,.29.37,1,1,0,0,1,.1.44,1,1,0,0,1-.1.47,1,1,0,0,1-.29.37,1.67,1.67,0,0,1-.5.25,2.26,2.26,0,0,1-.67.09,2.29,2.29,0,0,1-.68-.09,1.61,1.61,0,0,1-.49-.25,1.17,1.17,0,0,1-.3-.37A1.19,1.19,0,0,1,44.16,54.79Zm2.57,0a.58.58,0,0,0-.27-.48,1.14,1.14,0,0,0-.74-.2,1.21,1.21,0,0,0-.76.2.59.59,0,0,0-.26.48.61.61,0,0,0,.26.5,1.21,1.21,0,0,0,.76.21,1.14,1.14,0,0,0,.74-.21A.6.6,0,0,0,46.73,54.79Z" transform="translate(-13 -27)"/><path class="cls-2" d="M53.94,53.44H51.33v-.57h5.5v.6H54.48v1.92h-.54Zm1.65-1.29h-.53V50H52.38l.06-.65h2.84l.33.46Z" transform="translate(-13 -27)"/><path class="cls-2" d="M57.83,51.25a1.65,1.65,0,0,1,.08-.45.9.9,0,0,1,.28-.44l-.67-.1.06-.42,1.48.17.1-1.15.48,0L59.56,50l1.27.15,0,.43-.66-.06a1.15,1.15,0,0,1,.19.41,2,2,0,0,1,.05.43,1.13,1.13,0,0,1-.12.54,1.08,1.08,0,0,1-.3.4,1.3,1.3,0,0,1-.41.24,1.35,1.35,0,0,1-.47.09,1.47,1.47,0,0,1-.61-.16,1.45,1.45,0,0,1-.39-.34,1.42,1.42,0,0,1-.2-.41,1.55,1.55,0,0,1-.06-.4A.31.31,0,0,1,57.83,51.25Zm.48,0s0,0,0,.06v0a.79.79,0,0,0,.06.29.87.87,0,0,0,.14.27.88.88,0,0,0,.24.19.68.68,0,0,0,.32.07,1,1,0,0,0,.35-.06,1.24,1.24,0,0,0,.27-.17.85.85,0,0,0,.17-.25.73.73,0,0,0,.06-.3.9.9,0,0,0-.24-.69.87.87,0,0,0-.63-.23.66.66,0,0,0-.49.2A.94.94,0,0,0,58.31,51.22Zm1.55,4.29V53.59h.55v1.64h2.68v.49h-3ZM63,49v4.89h-.5v-1.7H61.06v-.5h1.37V51H61.05v-.5h1.37V49Z" transform="translate(-13 -27)"/><path class="cls-2" d="M69.69,52.28h-5.5l0-.44h5.45ZM65.2,53h3.72v1.72H65.45v.69h3.94v.4H65.2l-.26-.15V54.25h3.45v-.77H65.2Zm.22-3a1.14,1.14,0,0,1,.12-.52,1.11,1.11,0,0,1,.34-.38,1.78,1.78,0,0,1,.48-.23,2.15,2.15,0,0,1,.58-.07,1.79,1.79,0,0,1,.57.09,1.41,1.41,0,0,1,.47.25,1.14,1.14,0,0,1,.32.38,1,1,0,0,1,.12.48,1.1,1.1,0,0,1-.13.56A1.24,1.24,0,0,1,68,51a1.38,1.38,0,0,1-.48.21,2,2,0,0,1-.53.07,2.23,2.23,0,0,1-.6-.08,1.57,1.57,0,0,1-.48-.25,1.1,1.1,0,0,1-.44-.89Zm2.5,0a.52.52,0,0,0-.07-.27.79.79,0,0,0-.21-.24,1,1,0,0,0-.32-.17,1,1,0,0,0-.4-.07,1.44,1.44,0,0,0-.46.09.83.83,0,0,0-.31.17.71.71,0,0,0-.17.24.61.61,0,0,0-.06.25.59.59,0,0,0,.09.34.72.72,0,0,0,.23.23,1.1,1.1,0,0,0,.33.14,2.21,2.21,0,0,0,.37,0,1.15,1.15,0,0,0,.37-.06,1,1,0,0,0,.31-.16.83.83,0,0,0,.22-.24A.6.6,0,0,0,67.92,50Z" transform="translate(-13 -27)"/><path class="cls-2" d="M72.64,53.37V53h4.17v.36h-1.9v1.75h-.53V53.37Zm3.11-2.47a1.66,1.66,0,0,1-.12.61,1.5,1.5,0,0,1-.3.43,1.3,1.3,0,0,1-.43.27,1.7,1.7,0,0,1-.51.08,1.37,1.37,0,0,1-.68-.14,1.23,1.23,0,0,1-.41-.37,1.32,1.32,0,0,1-.21-.45A1.84,1.84,0,0,1,73,50.9a1.41,1.41,0,0,1,.07-.42,1.49,1.49,0,0,1,.22-.46,1.42,1.42,0,0,1,.43-.37,1.38,1.38,0,0,1,.67-.15,1.33,1.33,0,0,1,.54.1,1.19,1.19,0,0,1,.43.3,1.48,1.48,0,0,1,.27.44A1.69,1.69,0,0,1,75.75,50.9Zm-2.2,0V51a.91.91,0,0,0,.21.62.84.84,0,0,0,.63.23.8.8,0,0,0,.34-.07,1,1,0,0,0,.28-.2,1.12,1.12,0,0,0,.19-.29,1,1,0,0,0,.07-.35,1.16,1.16,0,0,0-.07-.37.79.79,0,0,0-.18-.29.76.76,0,0,0-.25-.19.71.71,0,0,0-.32-.07,1,1,0,0,0-.4.08,1,1,0,0,0-.27.22.77.77,0,0,0-.17.29A1,1,0,0,0,73.55,50.9Zm3.81,4V49.15h.42v5.72Z" transform="translate(-13 -27)"/><path class="cls-2" d="M82.2,51l0,.49-3.39-.25v-.5l1.42.09V49.47h.53v1.4Zm-.61,2.38a1.41,1.41,0,0,1-.39.87,1.16,1.16,0,0,1-1.74-.14,1.63,1.63,0,0,1-.21-.44,2,2,0,0,1-.06-.47,1.85,1.85,0,0,1,.06-.44,1.69,1.69,0,0,1,.2-.46,1.41,1.41,0,0,1,.37-.36,1.06,1.06,0,0,1,.58-.15,1.13,1.13,0,0,1,.89.37,1.44,1.44,0,0,1,.32,1v.13S81.6,53.32,81.59,53.36ZM79.7,53a.31.31,0,0,0,0,.1v.09a.86.86,0,0,0,0,.32.82.82,0,0,0,.14.26.79.79,0,0,0,.22.18.65.65,0,0,0,.29.06.63.63,0,0,0,.26,0,.54.54,0,0,0,.24-.16,1,1,0,0,0,.18-.3,1.18,1.18,0,0,0,.07-.45,1,1,0,0,0-.17-.57.65.65,0,0,0-.54-.23.63.63,0,0,0-.5.2A1.32,1.32,0,0,0,79.7,53Zm4.6-3h.53v5.2H84.3V52.75h-.86v2.39h-.6V50h.6V52.2h.86Z" transform="translate(-13 -27)"/><path class="cls-2" d="M91.05,51.54l0,.49H87.48V51.4h.63l.27-2h-.77l.06-.54h3.14v.7H90.2V51.5Zm-2.17-2.07-.19,2h.94v-2Zm.71,3.86v-.49h2.77l.14,1.74-2.77.18v.78h3.65l0,.47h-4l-.27-.15.11-1.57h2.69v-1Zm3-4.46v3.52H92v-3.5Z" transform="translate(-13 -27)"/><path class="cls-2" d="M95.08,51.09a.13.13,0,0,1,0-.06V51a1.35,1.35,0,0,1,.11-.55A1.13,1.13,0,0,1,95.5,50a1.64,1.64,0,0,1,.49-.27,2.1,2.1,0,0,1,.64-.1,2.28,2.28,0,0,1,.78.12A1.45,1.45,0,0,1,98,50a1.31,1.31,0,0,1,.33.45,1.34,1.34,0,0,1,.1.52,1.19,1.19,0,0,1-.16.64,1.4,1.4,0,0,1-.4.44l0,2H99.5v.54H94V54H95.8l0-1.88a1.6,1.6,0,0,1-.46-.4A1.16,1.16,0,0,1,95.08,51.09Zm1.65-1a2,2,0,0,0-.42,0,1,1,0,0,0-.35.17.88.88,0,0,0-.25.29,1,1,0,0,0-.08.41.64.64,0,0,0,.1.37.68.68,0,0,0,.27.26,1.16,1.16,0,0,0,.38.15,2.3,2.3,0,0,0,.45,0,1.25,1.25,0,0,0,.45-.08.91.91,0,0,0,.32-.19.87.87,0,0,0,.19-.28,1,1,0,0,0,.06-.33.73.73,0,0,0-.3-.63A1.4,1.4,0,0,0,96.73,50.11Zm.56,2.22a2.1,2.1,0,0,1-.48.06,2.35,2.35,0,0,1-.51-.06l0,1.71h1Z" transform="translate(-13 -27)"/><path class="cls-2" d="M100.55,51.48a1.34,1.34,0,0,1,.09-.46.83.83,0,0,1,.27-.38l-.88-.1.08-.48,1.67.17.1-1.06.51,0-.08,1.07,1.42.15,0,.5-.78-.07a.84.84,0,0,1,.17.37,2.08,2.08,0,0,1,0,.4,1.32,1.32,0,0,1-.14.49,1.36,1.36,0,0,1-.65.66,1.11,1.11,0,0,1-.43.09,1.31,1.31,0,0,1-.71-.16,1.06,1.06,0,0,1-.41-.37,1.43,1.43,0,0,1-.2-.46A2.25,2.25,0,0,1,100.55,51.48Zm.5,0a.15.15,0,0,0,0,.07.86.86,0,0,0,0,.27,1,1,0,0,0,.16.26.78.78,0,0,0,.24.19.66.66,0,0,0,.32.07.78.78,0,0,0,.35-.07,1.14,1.14,0,0,0,.25-.18,1.17,1.17,0,0,0,.15-.27,1.06,1.06,0,0,0,0-.31.7.7,0,0,0-.22-.56.79.79,0,0,0-.57-.21.72.72,0,0,0-.53.21A.72.72,0,0,0,101.05,51.48Zm1,4.19V53.75h.55v1.64h2.68v.48h-3Zm2.34-6.3.53.07v1.81h1.25v.53H105V54l-.56,0Z" transform="translate(-13 -27)"/><path class="cls-2" d="M110.17,49.23h3.1v1.92h-2.82v1.1h3.13v.42H112v1.52h2.45v.57h-5.47v-.64h2.51v-1.4h-1.17l-.37-.3V50.65h2.82v-.93h-2.56Z" transform="translate(-13 -27)"/><path class="cls-2" d="M118.22,49.58v.5h-1.08v1l1.55,1.42-.31.41-1.5-1.27L115.63,53l-.4-.4,1.33-1.56v-1h-1.25v-.52ZM120.44,56h-.67l.12-1.76H116v-.52h4.13l.28.33ZM120.33,49v4.1h-.56V49Z" transform="translate(-13 -27)"/><path class="cls-2" d="M127.28,52.28h-5.5l0-.44h5.46ZM122.8,53h3.72v1.72h-3.47v.69H127v.4H122.8l-.27-.15V54.25H126v-.77H122.8Zm.22-3a1.14,1.14,0,0,1,.12-.52,1.19,1.19,0,0,1,.33-.38,1.78,1.78,0,0,1,.48-.23,2.25,2.25,0,0,1,.58-.07,1.85,1.85,0,0,1,.58.09,1.51,1.51,0,0,1,.47.25,1.44,1.44,0,0,1,.32.38A1,1,0,0,1,126,50a1.11,1.11,0,0,1-.14.56,1.24,1.24,0,0,1-.34.38,1.3,1.3,0,0,1-.48.21,1.88,1.88,0,0,1-.53.07,2.35,2.35,0,0,1-.6-.08,1.57,1.57,0,0,1-.48-.25,1.18,1.18,0,0,1-.32-.38A1.06,1.06,0,0,1,123,50Zm2.5,0a.53.53,0,0,0-.08-.27.79.79,0,0,0-.21-.24.92.92,0,0,0-.31-.17,1.05,1.05,0,0,0-.4-.07,1.51,1.51,0,0,0-.47.09.83.83,0,0,0-.31.17.89.89,0,0,0-.17.24.59.59,0,0,0,0,.25.59.59,0,0,0,.09.34.63.63,0,0,0,.23.23,1,1,0,0,0,.32.14,2.33,2.33,0,0,0,.37,0,1.1,1.1,0,0,0,.37-.06,1,1,0,0,0,.31-.16.71.71,0,0,0,.22-.24A.52.52,0,0,0,125.52,50Z" transform="translate(-13 -27)"/><path class="cls-2" d="M130,52.23l1.32-2.12V48.84l.47,0,.07,1.22,1.64,1.69-.28.4-1.56-1.56-1.22,1.95Zm2.44,1.1v-.49h2.77l.14,1.74-2.77.18v.78H136l0,.47h-3.79l-.26-.15.11-1.57h2.69v-1Zm3-4.68v3.86l-.5-.12v-2h-2v-.51h2V48.67Z" transform="translate(-13 -27)"/><path class="cls-2" d="M137.91,54l-.49-.12,1.08-3.77h-1.95v-.59h2.33l.2.48-.13.44h1.3v-.89h.55V54h-.52V52.56h-1.94Zm.89-3-.3,1h1.78V51Zm2.81-1.61h.53v4.83h-.53Z" transform="translate(-13 -27)"/><path class="cls-2" d="M146.28,50.87l-.05.47-3.39-.26v-.49l1.44.1V49.33l.53,0v1.39Zm-.56,2.41a1.94,1.94,0,0,1-.15.5,1.78,1.78,0,0,1-.28.38,1.4,1.4,0,0,1-.39.26,1.22,1.22,0,0,1-.46.09,1.41,1.41,0,0,1-.61-.13,1.31,1.31,0,0,1-.4-.33,1.42,1.42,0,0,1-.23-.44,1.9,1.9,0,0,1-.07-.46,1.92,1.92,0,0,1,.08-.55,1.51,1.51,0,0,1,.25-.47,1.27,1.27,0,0,1,.41-.31,1.37,1.37,0,0,1,1.51.26,1.44,1.44,0,0,1,.35,1v.1S145.72,53.25,145.72,53.28Zm-2.05-.39a.9.9,0,0,0,0,.25,1,1,0,0,0,.17.57,1.21,1.21,0,0,0,.24.21.8.8,0,0,0,.36.08.73.73,0,0,0,.57-.29.89.89,0,0,0,.18-.3,1,1,0,0,0,.06-.36,1,1,0,0,0-.2-.6.67.67,0,0,0-.57-.25.69.69,0,0,0-.51.19A.91.91,0,0,0,143.67,52.89Zm3.88,2.23-.58,0V49.47h.64v2.4h1.19v.5h-1.25Z" transform="translate(-13 -27)"/><path class="cls-2" d="M151.73,53.83h2.71v.59h-4.69v-.64h1.53V51.72h.45Zm2.11-.74h-.53V50.23h-3l.06-.65h3.2l.33.46Z" transform="translate(-13 -27)"/><path class="cls-2" d="M21.61,61.08a1.62,1.62,0,0,1,.09-.46.83.83,0,0,1,.27-.38l-.88-.09.08-.49,1.67.17.1-1.06.51,0-.07,1.08L24.8,60l-.05.5L24,60.47a.9.9,0,0,1,.17.37,2.08,2.08,0,0,1,.05.4,1.32,1.32,0,0,1-.14.49,1.56,1.56,0,0,1-.27.4,1.22,1.22,0,0,1-.38.26,1.11,1.11,0,0,1-.43.09,1.41,1.41,0,0,1-.71-.15,1.16,1.16,0,0,1-.41-.38,1.22,1.22,0,0,1-.19-.46A2.38,2.38,0,0,1,21.61,61.08Zm.17,2.17h5.35v2.36H22.05l-.24-.21Zm.33-2.17a.15.15,0,0,0,0,.07.66.66,0,0,0,.06.27.76.76,0,0,0,.15.26.78.78,0,0,0,.24.19.7.7,0,0,0,.33.07.78.78,0,0,0,.59-.25.72.72,0,0,0,.15-.27.81.81,0,0,0,.05-.31.72.72,0,0,0-.22-.56.77.77,0,0,0-.57-.21.72.72,0,0,0-.53.21A.77.77,0,0,0,22.11,61.08Zm.28,2.69v1.38h4.24V63.77ZM25.48,59H26v1.67h1.21v.53H26v1.49h-.57Z" transform="translate(-13 -27)"/><path class="cls-2" d="M30.56,63H28v-.57h5.5v.6H31.11V65h-.55ZM28.8,61.3l1.56-1.78V58.29h.56v1.23L32.58,61l-.28.4L30.67,60,29.2,61.68Z" transform="translate(-13 -27)"/><path class="cls-2" d="M39.88,62h-5.5l0-.44h5.45Zm-4.49.59h3.72v1.72H35.64V65h3.94v.4H35.39l-.26-.15V63.85h3.45v-.77H35.39Zm.45-1.83-.32-.3V58.44h3V59H36v1.33h2.62v.53Z" transform="translate(-13 -27)"/><path class="cls-2" d="M46.31,61.88h-5.5l0-.44H46.3Zm-4.48.75h3.72v1.72H42.08V65H46v.4H41.83l-.27-.15V63.85H45v-.77H41.83Zm.22-3a1.14,1.14,0,0,1,.12-.52,1.06,1.06,0,0,1,.33-.37A1.54,1.54,0,0,1,43,58.5a2.25,2.25,0,0,1,.58-.07,1.81,1.81,0,0,1,.58.09,1.51,1.51,0,0,1,.47.25,1.27,1.27,0,0,1,.32.38,1,1,0,0,1,.12.48,1.08,1.08,0,0,1-.14.56,1.12,1.12,0,0,1-.34.38,1.3,1.3,0,0,1-.48.21,1.88,1.88,0,0,1-.53.07,2.35,2.35,0,0,1-.6-.08,1.57,1.57,0,0,1-.48-.25,1.18,1.18,0,0,1-.32-.38A1.19,1.19,0,0,1,42.05,59.63Zm2.5,0a.56.56,0,0,0-.08-.27.91.91,0,0,0-.2-.24A1.09,1.09,0,0,0,44,59a1.05,1.05,0,0,0-.4-.07,1.51,1.51,0,0,0-.47.09.73.73,0,0,0-.31.18.91.91,0,0,0-.17.23.79.79,0,0,0-.05.25.59.59,0,0,0,.09.34.63.63,0,0,0,.23.23,1,1,0,0,0,.32.14,1.55,1.55,0,0,0,.37,0,1.1,1.1,0,0,0,.37-.06,1.07,1.07,0,0,0,.32-.16.79.79,0,0,0,.21-.24A.52.52,0,0,0,44.55,59.63Z" transform="translate(-13 -27)"/><path class="cls-2" d="M49,62.3l1.25-2.12V58.75l.45,0V60.1l1.66,1.69-.28.4-1.47-1.51-1.16,1.9Zm2.51,2a1.14,1.14,0,0,1,.1-.45,1.17,1.17,0,0,1,.3-.37,1.33,1.33,0,0,1,.49-.25,2.29,2.29,0,0,1,.68-.09,2.26,2.26,0,0,1,.67.09,1.33,1.33,0,0,1,.49.25,1,1,0,0,1,.3.37,1,1,0,0,1,.1.45,1,1,0,0,1-.1.46,1,1,0,0,1-.3.37,1.33,1.33,0,0,1-.49.25,2.26,2.26,0,0,1-.67.09,2.29,2.29,0,0,1-.68-.09,1.33,1.33,0,0,1-.49-.25,1.17,1.17,0,0,1-.3-.37A1.19,1.19,0,0,1,51.48,64.32Zm2.58,0a.59.59,0,0,0-.27-.49,1.25,1.25,0,0,0-.74-.2,1.27,1.27,0,0,0-.76.2.61.61,0,0,0-.26.49.63.63,0,0,0,.26.5,1.27,1.27,0,0,0,.76.2,1.25,1.25,0,0,0,.74-.2A.61.61,0,0,0,54.06,64.32Zm.14-5.63h.53v4.05H54.2V60.83h-.89v1.71h-.56V58.71h.56v1.61h.89Z" transform="translate(-13 -27)"/><path class="cls-2" d="M55.45,62.38l1.32-2.13V58.83l.46,0v1.38L59,61.86l-.28.41-1.56-1.52-1.22,1.91Zm2.16,1.94a1,1,0,0,1,.1-.45A1,1,0,0,1,58,63.5a1.51,1.51,0,0,1,.49-.25,2.29,2.29,0,0,1,.68-.09,2.33,2.33,0,0,1,.68.09,1.42,1.42,0,0,1,.49.25,1.17,1.17,0,0,1,.3.37,1.13,1.13,0,0,1,.09.45,1.18,1.18,0,0,1-.09.46,1.17,1.17,0,0,1-.3.37,1.42,1.42,0,0,1-.49.25,2.33,2.33,0,0,1-.68.09,2.29,2.29,0,0,1-.68-.09,1.51,1.51,0,0,1-.49-.25,1,1,0,0,1-.29-.37A1,1,0,0,1,57.61,64.32Zm2.58,0a.59.59,0,0,0-.27-.49,1.26,1.26,0,0,0-.75-.2,1.22,1.22,0,0,0-.75.2.58.58,0,0,0-.26.49.6.6,0,0,0,.26.5,1.22,1.22,0,0,0,.75.2,1.26,1.26,0,0,0,.75-.2A.61.61,0,0,0,60.19,64.32Zm.54-5.72v4.06l-.5.05V60.43H58.36v-.5H60.2V58.61Z" transform="translate(-13 -27)"/><path class="cls-2" d="M65.31,60.47l0,.47-3.39-.26v-.49l1.43.1V58.93l.53,0v1.39Zm-.56,2.41a1.94,1.94,0,0,1-.15.5,1.78,1.78,0,0,1-.28.38,1.27,1.27,0,0,1-.39.26,1.22,1.22,0,0,1-.46.09,1.41,1.41,0,0,1-.61-.13,1.44,1.44,0,0,1-.4-.33,1.42,1.42,0,0,1-.23-.44,1.9,1.9,0,0,1-.07-.46,1.63,1.63,0,0,1,.09-.55,1.19,1.19,0,0,1,.24-.46,1.17,1.17,0,0,1,.41-.32,1.37,1.37,0,0,1,1.51.26,1.44,1.44,0,0,1,.35,1v.1S64.75,62.85,64.75,62.88Zm-2-.39a.9.9,0,0,0,0,.25,1,1,0,0,0,.17.57,1,1,0,0,0,.25.21.74.74,0,0,0,.36.08.71.71,0,0,0,.31-.08.86.86,0,0,0,.26-.21.87.87,0,0,0,.17-.3,1,1,0,0,0,.06-.36,1,1,0,0,0-.2-.6.67.67,0,0,0-.57-.25A.73.73,0,0,0,63,62,1,1,0,0,0,62.7,62.49Zm3.88,2.23-.58,0V59.07h.64v2.4h1.19V62H66.58Z" transform="translate(-13 -27)"/><path class="cls-2" d="M68.8,59.94h2.45v.52h2.11V59.22h.48v5.33h-.42V62.61H71.21v.85H69l-.25-.3Zm1.9.52H69.31v2.4H70.7Zm.53.5V62.1h2.15V61Z" transform="translate(-13 -27)"/><path class="cls-2" d="M75.61,62.82l.64.62L75.3,65l-.39-.29.68-1.1-.34-.37Z" transform="translate(-13 -27)"/><path class="cls-2" d="M21.55,70.65a3.19,3.19,0,0,1,.06-.59,2,2,0,0,1,.23-.59,1.42,1.42,0,0,1,.43-.45,1.28,1.28,0,0,1,.7-.18,1.2,1.2,0,0,1,.67.18,1.45,1.45,0,0,1,.44.45,2,2,0,0,1,.24.59,2.55,2.55,0,0,1,.07.59,2.66,2.66,0,0,1-.07.61,2,2,0,0,1-.24.58,1.42,1.42,0,0,1-.44.44,1.28,1.28,0,0,1-.67.17,1.26,1.26,0,0,1-.67-.17,1.32,1.32,0,0,1-.44-.44,1.55,1.55,0,0,1-.24-.58A2.66,2.66,0,0,1,21.55,70.65Zm.51,0a3.29,3.29,0,0,0,0,.42,1.55,1.55,0,0,0,.14.43,1,1,0,0,0,.28.32A.73.73,0,0,0,23,72a.7.7,0,0,0,.44-.13,1,1,0,0,0,.28-.32,1.57,1.57,0,0,0,.15-.43,3.29,3.29,0,0,0,0-.42,2.18,2.18,0,0,0-.05-.42,1.88,1.88,0,0,0-.14-.42,1,1,0,0,0-.28-.33.76.76,0,0,0-.44-.13.81.81,0,0,0-.46.13,1,1,0,0,0-.28.33,1.47,1.47,0,0,0-.13.42A2.12,2.12,0,0,0,22.06,70.65Zm3.83,2.72V68h.64v5.34Z" transform="translate(-13 -27)"/><path class="cls-2" d="M27.8,68.6h.51L28.44,70l1.34-.1-.11-1.26.52,0,.09,1.3h1.33V68.53h.52v4.4h-.5V70.34H30.32l.13,1.8H28.3L28.05,72Zm2.12,3-.11-1.25-1.36.11.11,1.21Zm-.65,3.11V72.64h.54v1.79h3.63v.49h-4Zm3.59-6.26h.53V73h-.53Z" transform="translate(-13 -27)"/><path class="cls-2" d="M39.84,74.09H34.41v-.52h5.43Zm-.92-2.25v.51H35.63l-.3-.39V69.09H38.5v.41H35.84v.89h2.82v.45H35.84v.94Z" transform="translate(-13 -27)"/><path class="cls-2" d="M43.13,68.29h2.6V71.5H43.36l-.25-.3Zm2.09.52H43.64V70.9h1.55Zm2.84,4.47H46.69v.45l1.33,1-.3.38-1.3-.94-1.29.92-.36-.39,1.39-.93v-.44H44.69v-.49h1.48V71.9h.53v.92h1.36Zm-.23-5.21v3.52h-.56v-3.5Z" transform="translate(-13 -27)"/><path class="cls-2" d="M51.05,71.9l1.31-2.12V68.35l.47,0V69.7l1.72,1.69-.28.4L52.7,70.28l-1.22,1.9Zm1.73,2a1,1,0,0,1,.1-.45,1,1,0,0,1,.3-.37,1.37,1.37,0,0,1,.48-.25,2.61,2.61,0,0,1,1.36,0,1.42,1.42,0,0,1,.49.25,1.17,1.17,0,0,1,.3.37,1.14,1.14,0,0,1,.1.45,1.19,1.19,0,0,1-.1.46,1.17,1.17,0,0,1-.3.37A1.42,1.42,0,0,1,55,75a2.61,2.61,0,0,1-1.36,0,1.37,1.37,0,0,1-.48-.25,1,1,0,0,1-.3-.37A1,1,0,0,1,52.78,73.92Zm2.58,0a.58.58,0,0,0-.27-.49,1.26,1.26,0,0,0-.75-.2,1.24,1.24,0,0,0-.75.2.59.59,0,0,0-.26.49.63.63,0,0,0,.26.5,1.24,1.24,0,0,0,.75.2,1.26,1.26,0,0,0,.75-.2A.61.61,0,0,0,55.36,73.92Zm-.06-5.77h.53v1.67h1.22v.53H55.83v2h-.56Z" transform="translate(-13 -27)"/><path class="cls-2" d="M60.58,72.34v.51H57.91l-.3-.39V69h2.55v.41h-2v1.08h2v.59h-2v1.16Zm2.09-3.58h.53v4.66h-.53V71.1h-.79v2.27h-.57V68.78h.57v1.79h.79Z" transform="translate(-13 -27)"/><path class="cls-2" d="M67.53,71.71h2v.52H66v-.55h1V70.1h.48Zm1.66-.5h-.53V69.09H66.3l.06-.66h2.52l.32.47Zm-2.1,3.66V73h.55v1.64h3.47v.48h-3.8Zm3.19-1.75V68.2h.5v1.89h1.11v.51H70.8v2.54Z" transform="translate(-13 -27)"/><path class="cls-2" d="M72.89,69.37v-.48h2.59l.16,1.93-2.36.27v1.23H76l0,.49H73l-.3-.16V70.6l2.42-.23-.07-1Zm4.16,4V68h.64v5.34Z" transform="translate(-13 -27)"/><path class="cls-2" d="M84.59,71.64h-5.5l0-.44h5.45Zm-4.48.73h3.72V74.1H80.36v.69H84.3v.41H80.11L79.84,75V73.6H83.3v-.76H80.11Zm.22-4.73h3.15v1.67h-3V70h3.3v.46H80.34L80,70.21V68.85h3v-.73H80.34Z" transform="translate(-13 -27)"/><path class="cls-2" d="M87.47,71.23a2.55,2.55,0,0,1,.07-.59,2,2,0,0,1,.22-.58,1.35,1.35,0,0,1,.44-.45,1.22,1.22,0,0,1,.69-.18,1.25,1.25,0,0,1,.56.12,1.35,1.35,0,0,1,.4.3,1.73,1.73,0,0,1,.27.43,4.42,4.42,0,0,1,.15.48h2.06V68.82h.48v5.33h-.42V71.28l-2.08,0a2.53,2.53,0,0,1-.08.59,1.59,1.59,0,0,1-.23.57,1.27,1.27,0,0,1-.44.42,1.17,1.17,0,0,1-.67.17,1.29,1.29,0,0,1-.68-.17,1.51,1.51,0,0,1-.44-.43,2,2,0,0,1-.23-.58A2.58,2.58,0,0,1,87.47,71.23Zm.51,0a3.29,3.29,0,0,0,0,.42,1.88,1.88,0,0,0,.14.42,1,1,0,0,0,.28.33.84.84,0,0,0,.9,0,1,1,0,0,0,.28-.33,1.88,1.88,0,0,0,.14-.42,3.29,3.29,0,0,0,0-.42,2.18,2.18,0,0,0,0-.42,1.23,1.23,0,0,0-.14-.42,1,1,0,0,0-.28-.33.76.76,0,0,0-.44-.13.81.81,0,0,0-.46.13,1,1,0,0,0-.27.33,1.23,1.23,0,0,0-.14.42A3.29,3.29,0,0,0,88,71.23Z" transform="translate(-13 -27)"/><path class="cls-2" d="M94.08,69.06v-.49h2.48l.16,1.85-2.25.26v.86h2.61l0,.49h-3l-.3-.16V70.2L96.17,70l-.08-.89Zm1.37,3.81h.49v.69h2.87v-.71l.5,0v2.33H95.78L95.45,75Zm3.41,1.81L98.64,74h-2.7v.77Zm.31-6.48v4.11h-.5V71.12H97.09v-.5h1.56v-.7H97.11v-.5h1.53V68.21Z" transform="translate(-13 -27)"/><path class="cls-2" d="M103.5,70h-1.09V71.2L104,73.09l-.31.39-1.56-1.72-1.25,1.81-.39-.4,1.36-2V70h-1.25v-.5h2.9Zm1.69,4.21V68.82h.64v5.35Z" transform="translate(-13 -27)"/><path class="cls-2" d="M108.72,69.82a2.33,2.33,0,0,1,.08-.59,1.29,1.29,0,0,1,.68-.83,1.6,1.6,0,0,1,.65-.12,1.13,1.13,0,0,1,.65.17,1.57,1.57,0,0,1,.43.42,1.81,1.81,0,0,1,.22.52,1.58,1.58,0,0,1,.07.43,2.24,2.24,0,0,1-.06.48,1.62,1.62,0,0,1-.21.51,1.27,1.27,0,0,1-.42.41,1.32,1.32,0,0,1-.7.17,1.29,1.29,0,0,1-.66-.15,1.32,1.32,0,0,1-.43-.38,1.48,1.48,0,0,1-.23-.51A2,2,0,0,1,108.72,69.82Zm.12,4.5V72.25h.58v1.82h1.88v.46h-2.24Zm.38-4.5a1.16,1.16,0,0,0,.07.44,1.06,1.06,0,0,0,.19.33,1,1,0,0,0,.29.21,1,1,0,0,0,.34.09.78.78,0,0,0,.63-.31,1.3,1.3,0,0,0,.24-.83,1.13,1.13,0,0,0-.06-.36.87.87,0,0,0-.18-.31,1,1,0,0,0-.28-.23,1,1,0,0,0-.35-.09.69.69,0,0,0-.36.09,1,1,0,0,0-.28.23,1,1,0,0,0-.18.34A1.34,1.34,0,0,0,109.22,69.82Zm5,3.32h-3v-.46h1.3V71.9h.52v.77h1.15Zm-1.56.2h.21a1.32,1.32,0,0,1,.47.08,1.23,1.23,0,0,1,.34.21,1.08,1.08,0,0,1,.2.29,1,1,0,0,1,.06.33.8.8,0,0,1-.1.41,1.14,1.14,0,0,1-.27.31,1.43,1.43,0,0,1-.37.19,1.52,1.52,0,0,1-.42.06,1.16,1.16,0,0,1-.42-.07,1.33,1.33,0,0,1-.35-.2,1,1,0,0,1-.25-.3.71.71,0,0,1-.1-.37,1,1,0,0,1,.05-.27,1.1,1.1,0,0,1,.17-.29,1.11,1.11,0,0,1,.31-.24A1,1,0,0,1,112.63,73.34Zm.81.8a.48.48,0,0,0-.17-.27.64.64,0,0,0-.36-.09.87.87,0,0,0-.59.16.45.45,0,0,0-.18.34.47.47,0,0,0,.16.33.63.63,0,0,0,.44.14.73.73,0,0,0,.53-.17.52.52,0,0,0,.18-.37s0,0,0,0Zm-.55-6.24h.53v1.61h1.22V70h-1.23v1.55h-.55Z" transform="translate(-13 -27)"/><path class="cls-2" d="M116.56,73.25l-.48-.13,1.08-3.77h-2v-.59h2.33l.2.49-.35,1.2h1.53V68.62h.51V73.2l-.48,0V71h-1.71Zm3.71.18v-5h.53v4.94Z" transform="translate(-13 -27)"/><path class="cls-2" d="M124,70.14a1.72,1.72,0,0,1,.1-.47.79.79,0,0,1,.26-.38l-.87-.09.08-.49,1.67.18.09-1.07.52.05L125.72,69l1.42.14,0,.5-.78-.06a.75.75,0,0,1,.17.36,1.51,1.51,0,0,1,0,.4,1.42,1.42,0,0,1-.41.89,1.22,1.22,0,0,1-.38.26,1.07,1.07,0,0,1-.43.09,1.47,1.47,0,0,1-.71-.15,1.26,1.26,0,0,1-.41-.38,1.15,1.15,0,0,1-.19-.46A2.28,2.28,0,0,1,124,70.14Zm.5,0v.07a.71.71,0,0,0,0,.27,1.28,1.28,0,0,0,.15.25.88.88,0,0,0,.24.19.73.73,0,0,0,.33.08.74.74,0,0,0,.34-.08.58.58,0,0,0,.25-.18.61.61,0,0,0,.15-.26.91.91,0,0,0,.06-.32.75.75,0,0,0-.22-.56.8.8,0,0,0-.57-.21.73.73,0,0,0-.54.21A.84.84,0,0,0,124.45,70.14Zm1.28,2.39V72h2.77l.14,1.77-2.73.18v.79h3.54l0,.46h-3.93l-.27-.15.11-1.6h2.69v-.93Zm2.07-4.32h.53v1.3h1.22V70h-1.24v1.55h-.54Z" transform="translate(-13 -27)"/><path class="cls-2" d="M134.91,72.64H132.3v-.57h5.5v.6h-2.35v1.92h-.54Zm-1.77-1.74,1.56-1.78V67.89h.57v1.23l1.65,1.52-.28.4L135,69.6l-1.47,1.68Z" transform="translate(-13 -27)"/><path class="cls-2" d="M140.83,70.31a2,2,0,0,1,.08-.6,1.27,1.27,0,0,1,.25-.49,1.18,1.18,0,0,1,.43-.33,1.41,1.41,0,0,1,.64-.13,1.2,1.2,0,0,1,.66.17,1.41,1.41,0,0,1,.43.41,1.64,1.64,0,0,1,.22.51,1.66,1.66,0,0,1,.07.46,2.23,2.23,0,0,1-.06.47,1.62,1.62,0,0,1-.21.51,1.24,1.24,0,0,1-.42.4,1.34,1.34,0,0,1-.7.16,1.48,1.48,0,0,1-.67-.14,1.4,1.4,0,0,1-.42-.38,1.52,1.52,0,0,1-.23-.5A2,2,0,0,1,140.83,70.31Zm.5,0a1.23,1.23,0,0,0,.07.44,1,1,0,0,0,.19.32,1,1,0,0,0,.29.21.69.69,0,0,0,.34.09.86.86,0,0,0,.36-.08.89.89,0,0,0,.28-.23,1.29,1.29,0,0,0,.17-.33,1.42,1.42,0,0,0,.06-.42,1.29,1.29,0,0,0-.24-.75.78.78,0,0,0-.63-.31.8.8,0,0,0-.36.08.92.92,0,0,0-.28.24,1,1,0,0,0-.18.34A1.29,1.29,0,0,0,141.33,70.31Zm.48,4.73-.34-.39,1.22-1.25v-.86h.53v.83l.95.7.49-.54.06-.89h.5v.87l1.23,1.24-.34.35L144.92,74l-1.17,1.3-.33-.36.39-.44-.84-.61Zm3.92-6.83v4.1h-.56V68.2Z" transform="translate(-13 -27)"/><path class="cls-2" d="M152.69,72.1h-5.5l0-.43h5.45Zm-4.67.65v0h.5l.06.85h2.95l-.08-.86.49,0,.19,2.48H148.5l-.33-.15Zm.15-2.24,1.49-1.69V67.76h.53v1.06l1.62,1.47-.29.41L150,69.28l-1.39,1.57Zm3.44,4.22-.05-.78h-2.93v.78Z" transform="translate(-13 -27)"/><path class="cls-2" d="M157,71.78v.5h-3.09l-.22-.33v-3.2h.53v3Zm1,1.59V68h.64v5.34Z" transform="translate(-13 -27)"/><path class="cls-2" d="M163,72.09v.51h-2.89l-.23-.29V69.12h2.7v.58h-2.15V72Zm1.57,1.59h-.58V68.34h.61v2.41h1.34v.51h-1.37Z" transform="translate(-13 -27)"/><path class="cls-2" d="M167.3,73l-.42.58-.66-.67.44-.53Z" transform="translate(-13 -27)"/><path class="cls-2" d="M23.06,83.31v-2H21.38l0-.51H23V79.53l.45,0v1.33h1.9l.07.48H23.47v2Z" transform="translate(-13 -27)"/><path class="cls-2" d="M28.55,81.25v2.63H28v-5l.37-.34.37,0,.36,0a3.68,3.68,0,0,1,.82.09,2.48,2.48,0,0,1,.71.25,1.59,1.59,0,0,1,.51.45,1.23,1.23,0,0,1,.19.67,1.32,1.32,0,0,1-.13.59,1.08,1.08,0,0,1-.33.4,1.57,1.57,0,0,1-.48.25,3.35,3.35,0,0,1-.55.11l1.24,2-.41.28-1.37-2.22H28.9A1,1,0,0,1,28.55,81.25Zm0-.47a2.48,2.48,0,0,0,.7.09,4.55,4.55,0,0,0,.52,0,1.87,1.87,0,0,0,.49-.15,1,1,0,0,0,.34-.29.72.72,0,0,0,.14-.44.73.73,0,0,0-.12-.41,1,1,0,0,0-.33-.3,1.92,1.92,0,0,0-.48-.19,2.77,2.77,0,0,0-.6-.06H29l-.31,0c0,.28,0,.57-.05.87S28.58,80.52,28.58,80.78Z" transform="translate(-13 -27)"/><path class="cls-2" d="M31.84,81.8a1.85,1.85,0,0,1,.13-.72,1.18,1.18,0,0,1,.32-.47,1,1,0,0,1,.42-.25,1.53,1.53,0,0,1,.45-.08,1.7,1.7,0,0,1,.57.09,1,1,0,0,1,.42.3,1.35,1.35,0,0,1,.27.55,3.33,3.33,0,0,1,.1.84l-2.18.22a1.07,1.07,0,0,0,.12.37.82.82,0,0,0,.25.24A1,1,0,0,0,33,83a2.07,2.07,0,0,0,.35,0A1.79,1.79,0,0,0,34,83a1.11,1.11,0,0,0,.41-.21l.14.37a.8.8,0,0,1-.16.16,1.59,1.59,0,0,1-.26.14,2.62,2.62,0,0,1-.33.09,2.43,2.43,0,0,1-.38,0,1.7,1.7,0,0,1-.55-.08,1.23,1.23,0,0,1-.49-.29,1.49,1.49,0,0,1-.35-.54A2.32,2.32,0,0,1,31.84,81.8Zm.46,0L34,81.63a.9.9,0,0,0-.21-.62.83.83,0,0,0-.65-.23.85.85,0,0,0-.38.1.82.82,0,0,0-.27.21,1,1,0,0,0-.17.29,1.33,1.33,0,0,0-.05.34A.22.22,0,0,0,32.3,81.81Z" transform="translate(-13 -27)"/><path class="cls-2" d="M37.73,78.08v5l-.2.25a3.26,3.26,0,0,1-.48.11l-.43,0a1.87,1.87,0,0,1-.8-.15,1.44,1.44,0,0,1-.53-.39,1.42,1.42,0,0,1-.29-.54,2,2,0,0,1-.09-.6,1.8,1.8,0,0,1,.13-.73,1.37,1.37,0,0,1,.35-.49,1.32,1.32,0,0,1,.48-.29,1.71,1.71,0,0,1,.55-.09,1.76,1.76,0,0,1,.83.2l0-2.36Zm-.51,3a1.15,1.15,0,0,0-.39-.24,1.11,1.11,0,0,0-.43-.09,1,1,0,0,0-.36.07.89.89,0,0,0-.31.19,1.12,1.12,0,0,0-.22.33,1.15,1.15,0,0,0-.08.44,1.13,1.13,0,0,0,.1.51,1.06,1.06,0,0,0,.27.35,1.43,1.43,0,0,0,.39.2,1.84,1.84,0,0,0,.47.06,1.31,1.31,0,0,0,.56-.12Z" transform="translate(-13 -27)"/><path class="cls-2" d="M38.44,80.13l.44.11c-.05.26-.09.52-.12.76a5.76,5.76,0,0,0,0,.69,4.22,4.22,0,0,0,0,.53,1.52,1.52,0,0,0,.13.41.58.58,0,0,0,.23.26.64.64,0,0,0,.36.09.57.57,0,0,0,.28-.08.82.82,0,0,0,.25-.27,1.69,1.69,0,0,0,.19-.5,4.8,4.8,0,0,0,.09-.77l0-1.11.44,0v3.08l-.39,0,0-.6a.94.94,0,0,1-.36.55,1.1,1.1,0,0,1-.62.18.91.91,0,0,1-.5-.13,1,1,0,0,1-.35-.35,1.7,1.7,0,0,1-.2-.55,3.08,3.08,0,0,1-.07-.7,7.25,7.25,0,0,1,0-.77C38.33,80.76,38.38,80.46,38.44,80.13Z" transform="translate(-13 -27)"/><path class="cls-2" d="M41.23,83.11l1.11-1.33-1-1.37.36-.31,1,1.31,1-1.22.36.37L43,81.83l1,1.31-.36.32-.94-1.25-1.07,1.28Z" transform="translate(-13 -27)"/><path class="cls-2" d="M47.08,77.89h2.61V81.1H47.31l-.25-.3Zm2.09.52H47.59V80.5h1.55ZM52,82.88H50.64v.45l1.33,1-.3.38-1.29-.94-1.3.92-.36-.39,1.39-.93v-.44H48.64v-.49h1.49V81.5h.53v.92H52Zm-.24-5.21v3.52h-.56v-3.5Z" transform="translate(-13 -27)"/><path class="cls-2" d="M56.58,81.31h2v.52H55v-.55h1V79.71h.48Zm1.65-.5H57.7V78.69H55.34l.07-.66h2.51l.33.47Zm-2.09,3.66V82.55h.55v1.64h3.47v.48h-3.8Zm3.19-1.75V77.8h.5v1.89h1.11v.52h-1.1v2.53Z" transform="translate(-13 -27)"/><path class="cls-2" d="M61.78,78.66v-.49h2.49L64.42,80l-2.25.26v.86h2.61l0,.49h-3l-.3-.16V79.8l2.32-.24-.08-.89Zm2,5.65V82.39h.55V84h2.69v.49H64Zm3.07-6.51v4.89h-.5v-2h-1.6v-.5h1.57v-.77H64.81V79h1.53V77.81Z" transform="translate(-13 -27)"/><path class="cls-2" d="M70.16,78.36h2.45v3.52H70.39l-.25-.3Zm1.92.53H70.69v2.39h1.36ZM74.56,83V77.63h.64V83Z" transform="translate(-13 -27)"/><path class="cls-2" d="M82.11,81.24h-5.5l0-.44h5.45Zm-4.48.59h3.71v1.72H77.88v.69h3.93v.4H77.63l-.27-.15V83.05h3.45v-.77H77.63ZM78.08,80l-.33-.29V77.64h3v.52H78.25v1.33h2.63V80Z" transform="translate(-13 -27)"/><path class="cls-2" d="M84.7,82.17v1.54h-.51V82.17H82.83v-.42H86v.33Zm.86-2.5a1.43,1.43,0,0,1-.1.56,1.33,1.33,0,0,1-.28.44,1.07,1.07,0,0,1-.41.28,1.24,1.24,0,0,1-.5.1,1.22,1.22,0,0,1-.63-.15,1.27,1.27,0,0,1-.4-.36,1.32,1.32,0,0,1-.21-.45,1.76,1.76,0,0,1-.06-.42,1.35,1.35,0,0,1,.07-.41,1.32,1.32,0,0,1,.21-.45,1.54,1.54,0,0,1,.4-.36,1.19,1.19,0,0,1,.62-.15,1.24,1.24,0,0,1,.5.1,1.28,1.28,0,0,1,.41.29,1.45,1.45,0,0,1,.28.43A1.42,1.42,0,0,1,85.56,79.67Zm-2.08,0a.93.93,0,0,0,.21.62.75.75,0,0,0,.61.24.67.67,0,0,0,.55-.25.9.9,0,0,0,.21-.61,1,1,0,0,0-.06-.34.83.83,0,0,0-.17-.27.79.79,0,0,0-.25-.19.64.64,0,0,0-.31-.07.78.78,0,0,0-.35.08.68.68,0,0,0-.24.2.72.72,0,0,0-.15.27A1.19,1.19,0,0,0,83.48,79.67Zm4.08,3.61H87v-3H85.86v-.5H87V78.25h.52ZM88.13,78h.53v5.28h-.53Z" transform="translate(-13 -27)"/><path class="cls-2" d="M89.39,80.83a2.55,2.55,0,0,1,.07-.59,2,2,0,0,1,.22-.58,1.35,1.35,0,0,1,.44-.45,1.28,1.28,0,0,1,1.65.25,1.51,1.51,0,0,1,.27.42,2.21,2.21,0,0,1,.15.48h2.06V78.42h.48v5.33h-.42V80.88l-2.08,0a3.06,3.06,0,0,1-.07.59,1.81,1.81,0,0,1-.24.57,1.27,1.27,0,0,1-.44.42,1.17,1.17,0,0,1-.67.17,1.32,1.32,0,0,1-.68-.17A1.26,1.26,0,0,1,89.7,82a2,2,0,0,1-.24-.58A2.58,2.58,0,0,1,89.39,80.83Zm.52,0a2.12,2.12,0,0,0,0,.42,1.23,1.23,0,0,0,.14.42,1,1,0,0,0,.27.33.8.8,0,0,0,.45.13.77.77,0,0,0,.45-.13,1,1,0,0,0,.28-.33,1.48,1.48,0,0,0,.14-.42,2.12,2.12,0,0,0,0-.42,3.29,3.29,0,0,0,0-.42,1.5,1.5,0,0,0-.15-.42,1,1,0,0,0-.28-.33.74.74,0,0,0-.44-.13.77.77,0,0,0-.45.13,1,1,0,0,0-.28.33,1.23,1.23,0,0,0-.14.42A3.19,3.19,0,0,0,89.91,80.83Z" transform="translate(-13 -27)"/><path class="cls-2" d="M101.42,81.24h-5.5l0-.44h5.46ZM96.94,82h3.72v1.74H97.19v.68h3.94v.41H96.94l-.27-.16V83.21h3.46v-.77H96.94Zm.22-4.73h3.15v1.67h-3v.73h3.3v.46H97.17l-.37-.29V78.46h3v-.74H97.17Z" transform="translate(-13 -27)"/><path class="cls-2" d="M106.84,81.41h3V82h-5.47v-.6h1.89V79.91h.47Zm1.83-.6h-.5v-2h-2.61l.07-.6h2.73l.33.41Zm-3,2.79a1.14,1.14,0,0,1,.1-.45,1,1,0,0,1,.3-.37,1.33,1.33,0,0,1,.49-.25,2.24,2.24,0,0,1,.68-.09,2.26,2.26,0,0,1,.67.09,1.33,1.33,0,0,1,.49.25,1,1,0,0,1,.3.37,1,1,0,0,1,.1.45,1,1,0,0,1-.1.46,1,1,0,0,1-.3.37,1.5,1.5,0,0,1-.49.25,2.26,2.26,0,0,1-.67.09,2.24,2.24,0,0,1-.68-.09,1.5,1.5,0,0,1-.49-.25,1,1,0,0,1-.3-.37A1.19,1.19,0,0,1,105.7,83.6Zm2.58,0a.58.58,0,0,0-.27-.49,1.18,1.18,0,0,0-.74-.2,1.21,1.21,0,0,0-.76.2.59.59,0,0,0-.26.49.64.64,0,0,0,.26.5,1.27,1.27,0,0,0,.76.2,1.25,1.25,0,0,0,.74-.2A.62.62,0,0,0,108.28,83.6Z" transform="translate(-13 -27)"/><path class="cls-2" d="M113.45,82.38h-2.61v-.57h5.5v.6H114v1.78h-.55Zm-1.72-4.58v-.06h.52l.09,1.23h2.21l-.08-1.25.51,0v3.23h-2.71l-.35-.17Zm2.9,2.59v-1h-2.27l.08,1.06Z" transform="translate(-13 -27)"/><path class="cls-2" d="M122.41,81.53l0,1a1.67,1.67,0,0,1,1,.39,1,1,0,0,1,.34.76,1,1,0,0,1-.1.46.88.88,0,0,1-.3.37,1.2,1.2,0,0,1-.49.25,2.26,2.26,0,0,1-.67.09,2.29,2.29,0,0,1-.68-.09,1.2,1.2,0,0,1-.49-.25,1.07,1.07,0,0,1-.3-.37,1.15,1.15,0,0,1-.1-.46,1.05,1.05,0,0,1,.31-.74,1.49,1.49,0,0,1,.94-.4v-1H119.3l0-.5h5.45v.44Zm-2.22-1.45,1.59-1.36,0-.62H120.3v-.47h3.45v.47h-1.37l0,.64L123.91,80l-.32.39-1.53-1.22-1.5,1.3Zm3,3.56a.61.61,0,0,0-.27-.49,1.25,1.25,0,0,0-.74-.19,1.28,1.28,0,0,0-.76.19.62.62,0,0,0-.26.49.61.61,0,0,0,.26.5,1.21,1.21,0,0,0,.76.21,1.18,1.18,0,0,0,.74-.21A.6.6,0,0,0,123.17,83.64Z" transform="translate(-13 -27)"/><path class="cls-2" d="M125.81,79.91a2.35,2.35,0,0,1,.08-.6,1.42,1.42,0,0,1,.25-.49,1.14,1.14,0,0,1,.44-.33,1.38,1.38,0,0,1,.64-.13,1.24,1.24,0,0,1,.66.17,1.49,1.49,0,0,1,.42.41,1.67,1.67,0,0,1,.23.51,2.08,2.08,0,0,1,.06.46,3,3,0,0,1-.05.47,1.44,1.44,0,0,1-.22.51,1.24,1.24,0,0,1-.42.4,1.32,1.32,0,0,1-.7.17,1.34,1.34,0,0,1-.66-.15,1.32,1.32,0,0,1-.43-.38,1.75,1.75,0,0,1-.23-.5A2.4,2.4,0,0,1,125.81,79.91Zm.5,0a1.45,1.45,0,0,0,.07.44,1,1,0,0,0,.2.32.94.94,0,0,0,.28.21.69.69,0,0,0,.34.09.86.86,0,0,0,.36-.08.89.89,0,0,0,.28-.23,1.16,1.16,0,0,0,.18-.33,1.42,1.42,0,0,0,.06-.42,1.29,1.29,0,0,0-.24-.75.81.81,0,0,0-.64-.31.74.74,0,0,0-.36.09.89.89,0,0,0-.28.23,1,1,0,0,0-.18.34A1.67,1.67,0,0,0,126.31,79.91Zm.46,2.59v0h.51v.66h2.91v-.67l.5,0v2.33h-3.53l-.33-.15Zm3.46,1.83v-.8h-2.92v.8Zm.49-6.52v4.1h-.56V77.8Z" transform="translate(-13 -27)"/><path class="cls-2" d="M135.58,81.38v.5h-3.1l-.21-.33v-3.2h.53v3Zm1,1.59V77.63h.64V83Z" transform="translate(-13 -27)"/><path class="cls-2" d="M141.5,81.69v.52h-2.89l-.23-.3V78.72h2.7v.58h-2.16v2.34Zm1.56,1.59h-.58V77.94h.61v2.41h1.35v.51h-1.38Z" transform="translate(-13 -27)"/><path class="cls-2" d="M145.84,82.64l-.42.58-.65-.67.43-.53Z" transform="translate(-13 -27)"/></svg>