<svg id="레이어_1" data-name="레이어 1" xmlns="http://www.w3.org/2000/svg" xmlns:xlink="http://www.w3.org/1999/xlink" viewBox="0 0 52.68 76.97"><defs><style>.cls-1,.cls-8{fill:none;}.cls-2{fill:#669db3;}.cls-3{fill:#606060;opacity:0.1;}.cls-4{fill:#a89c94;}.cls-5{fill:#f4f4f4;}.cls-6{fill:#ff4f58;}.cls-7{fill:#95dbe5;}.cls-7,.cls-8{opacity:0.5;}.cls-8{stroke:#95dbe5;stroke-miterlimit:10;}.cls-9{clip-path:url(#clip-path);}.cls-10{fill:#fe9402;}.cls-11{fill:#f59f24;}.cls-12{fill:#f19f26;}.cls-13{fill:#f7a038;}.cls-14{fill:#f3a033;}.cls-15{fill:#f4a543;}.cls-16{fill:#fdc100;}.cls-17{fill:#f79b00;}.cls-18{fill:#f79919;}.cls-19{fill:#f6b35d;}.cls-20{fill:#e2b05f;}.cls-21{fill:#fdec01;}.cls-22{fill:#feb906;}.cls-23{fill:#fee606;}.cls-24{clip-path:url(#clip-path-2);}</style><clipPath id="clip-path" transform="translate(-94.2 -103.93)"><path class="cls-1" d="M111.08,155v-9.18c0-1.16-.08-1.31-1.08-1.24a3.47,3.47,0,0,1-3.61-2.4c-.78-1.73-1.63-3.42-2.43-5.13-.55-1.17-.14-2,1.07-2.1s2.47-.06,3.7-.07c.27,0,.54,0,.81,0,1.2,0,1.57.22,1.59-1.56a1.61,1.61,0,0,1,1.76-1.83q1.69,0,3.39,0c.61,0,.85-.19.79-.94-.18-2.17-.07-2.27,1.88-2.27h5.89c1.15,0,1.44.34,1.35,1.59-.11,1.62-.11,1.62,1.34,1.62h2.82c1.31,0,1.78.5,1.94,1.95s.16,1.43,1.44,1.43,2.58,0,3.88,0a2.27,2.27,0,0,1,1.24.29c.77.48.88.86.47,1.73l-2.58,5.45a3.31,3.31,0,0,1-3.29,2.23c-1-.05-1.11.09-1.12,1.3,0,5.71,0,11.41,0,17.12a10.24,10.24,0,0,1-.59,3.65,44.38,44.38,0,0,1-5,10.53c-1.21,1.71-2.73,2.65-4.76,2.28a1.29,1.29,0,0,0-.48,0c-2.06.36-3.63-.56-4.84-2.32a45.83,45.83,0,0,1-5.43-11.89,4.69,4.69,0,0,1-.13-1.5Z"/></clipPath><clipPath id="clip-path-2" transform="translate(-94.2 -103.93)"><path class="cls-1" d="M122.73,114a14,14,0,0,1,.75,1.93c0,.15.08.35.25.38s.27-.15.36-.27c.29-.38.56-.77.84-1.16.07-.09.14-.22.27-.2s.15.16.17.28a30,30,0,0,1,.27,7,18.81,18.81,0,0,1-.63,3.57c-.34,1.18-.36,1.17-1.56,1.17-1.78,0-3.56,0-5.34,0a.52.52,0,0,1-.59-.4,14,14,0,0,1-.92-4,27.56,27.56,0,0,1-.09-4.06c0-1.09.22-2.17.34-3.26,0-.12,0-.26.17-.28s.2.1.27.2c.29.4.58.81.88,1.21s.42.28.56-.1c.25-.67.51-1.33.76-2a6.91,6.91,0,0,0,1.08-2c.07-.29.17-.55.5-.59s.48.23.58.5A9.14,9.14,0,0,0,122.73,114Z"/></clipPath><image id="image" width="420" height="420" xlink:href="../../../../../../../../../Downloads/clean-textile.png"/></defs><title>rocket</title><path class="cls-2" d="M122,179.4c2,.37,3.55-.57,4.76-2.28a27.2,27.2,0,0,0,1.57-2.52H115.12c.47.85,1,1.68,1.52,2.48,1.21,1.76,2.78,2.68,4.84,2.32A1.29,1.29,0,0,1,122,179.4Z" transform="translate(-94.2 -103.93)"/><path class="cls-3" d="M118,176.4c2,.37,3.55-.57,4.76-2.28a27.2,27.2,0,0,0,1.57-2.52H111.12c.47.85,1,1.68,1.52,2.48,1.21,1.76,2.78,2.68,4.84,2.32A1.29,1.29,0,0,1,118,176.4Z" transform="translate(-94.2 -103.93)"/><path class="cls-3" d="M129.89,141.52a3.31,3.31,0,0,0,3.29-2.23l2.58-5.45c.41-.87.3-1.25-.47-1.73a2.29,2.29,0,0,0-1.25-.29q-1.93,0-3.87,0a4.56,4.56,0,0,1-.83,0v9.75A3.15,3.15,0,0,1,129.89,141.52Z" transform="translate(-94.2 -103.93)"/><path class="cls-3" d="M127.75,163.59a10.24,10.24,0,0,0,.59-3.65c0-5.71,0-11.41,0-17.12,0-.94.06-1.23.57-1.29v-9.75c-.46-.09-.5-.39-.61-1.39-.16-1.45-.63-1.93-1.94-1.95h-2.82c-1.16,0-1.39,0-1.38-.84h-9.08c0,.65-.21.85-.79.84q-1.69,0-3.39,0a1.61,1.61,0,0,0-1.76,1.83c0,1.78-.39,1.53-1.59,1.55h-.81c-1.23,0-2.47,0-3.7.07s-1.62.93-1.07,2.1c.8,1.71,1.65,3.4,2.43,5.13a3.47,3.47,0,0,0,3.61,2.4c1-.07,1.07.08,1.08,1.24v17.92a4.69,4.69,0,0,0,.13,1.5,52.09,52.09,0,0,0,3.91,9.41h13.17A56.08,56.08,0,0,0,127.75,163.59Z" transform="translate(-94.2 -103.93)"/><path class="cls-4" d="M126.19,129.82c.09-1.25-.2-1.59-1.35-1.59H119c-2,0-2.06.1-1.88,2.27a.34.34,0,0,0,0,.1h9.08C126.15,130.39,126.17,130.14,126.19,129.82Z" transform="translate(-94.2 -103.93)"/><path class="cls-5" d="M131.75,166.59a10.24,10.24,0,0,0,.59-3.65c0-5.71,0-11.41,0-17.12,0-.94.06-1.23.57-1.29v-9.75c-.46-.09-.5-.39-.61-1.39-.16-1.45-.63-1.93-1.94-1.95h-2.82c-1.16,0-1.39,0-1.38-.84h-9.08c0,.65-.21.85-.79.84q-1.69,0-3.39,0a1.61,1.61,0,0,0-1.76,1.83c0,1.78-.39,1.53-1.59,1.55h-.81c-1.23,0-2.47,0-3.7.07s-1.62.93-1.07,2.1c.8,1.71,1.65,3.4,2.43,5.13a3.47,3.47,0,0,0,3.61,2.4c1-.07,1.07.08,1.08,1.24v17.92a4.69,4.69,0,0,0,.13,1.5,52.09,52.09,0,0,0,3.91,9.41h13.17A56.08,56.08,0,0,0,131.75,166.59Z" transform="translate(-94.2 -103.93)"/><path class="cls-6" d="M133.45,144.52a3.31,3.31,0,0,0,3.29-2.23l2.58-5.45c.41-.87.3-1.25-.47-1.73a2.29,2.29,0,0,0-1.25-.29q-1.93,0-3.87,0a4.56,4.56,0,0,1-.83,0v9.75A3.15,3.15,0,0,1,133.45,144.52Z" transform="translate(-94.2 -103.93)"/><path class="cls-7" d="M121.21,167.64H123a3.39,3.39,0,0,0,3.32-3.45v-7.63a3.6,3.6,0,0,0-.17-1.09,35,35,0,0,0-6.06,11.94A3.2,3.2,0,0,0,121.21,167.64Z" transform="translate(-94.2 -103.93)"/><rect class="cls-8" x="116.24" y="150.61" width="10.75" height="17.92" rx="4.25" transform="translate(149.04 215.21) rotate(-180)"/><path class="cls-7" d="M119.36,167.39a38.92,38.92,0,0,1,6.73-13.27,3.73,3.73,0,0,0-3.49-2.61h-2a3.77,3.77,0,0,0-3.68,3.82v8.48A3.84,3.84,0,0,0,119.36,167.39Z" transform="translate(-94.2 -103.93)"/><path class="cls-6" d="M121.7,132.61a5,5,0,0,1,1.43.19c.49.19.62.35.55.87-.25,2-.52,4.06-.78,6.09a.4.4,0,0,1-.46.39c-.5,0-1,0-1.51,0s-.5-.16-.54-.5c-.17-1.36-.35-2.72-.53-4.09-.08-.62-.17-1.25-.24-1.87s.06-.7.54-.88A4.66,4.66,0,0,1,121.7,132.61Z" transform="translate(-94.2 -103.93)"/><path class="cls-6" d="M109.79,144.52a3.31,3.31,0,0,1-3.29-2.23l-2.58-5.45c-.41-.87-.3-1.25.47-1.73a2.29,2.29,0,0,1,1.25-.29q1.94,0,3.87,0a4.75,4.75,0,0,0,.84,0v9.75A3.3,3.3,0,0,0,109.79,144.52Z" transform="translate(-94.2 -103.93)"/><g class="cls-9"><use transform="translate(52.68 76.97) rotate(180) scale(0.13)" xlink:href="#image"/></g><path class="cls-10" d="M116,125.19c-.23-.85-.49-1.68-.64-2.55a19.27,19.27,0,0,1,.19-7.26,3.69,3.69,0,0,1,.2-.81,1.37,1.37,0,0,0,.13-.52.23.23,0,0,1,0-.11,3.89,3.89,0,0,1,.25-.82c.06-.15.12-.31.33-.22a.23.23,0,0,1,.12.12,1.36,1.36,0,0,0,.31.69,4.82,4.82,0,0,1,.35.63h0a.41.41,0,0,1,.17.24c.06.45.51.54.75.83.1.11.23,0,.29-.11a6.63,6.63,0,0,0,.25-.67c.33-.91.57-1.84.88-2.75.26-.5.38-1.06.63-1.57.12-.24.06-.52.16-.77s.16-.53.28-.79.21-.72.39-1.06a.37.37,0,0,1,.13-.12.29.29,0,0,1,.24,0,2.64,2.64,0,0,1,.23.35c.26.66.53,1.32.73,2h0a9.49,9.49,0,0,1,.66,1.7c.36,1.1.75,2.2,1.11,3.31.11.35.19.35.43.06a4.61,4.61,0,0,0,.58-.74c.31-.44.53-.94.82-1.4a.54.54,0,0,0,.07-.13c0-.09.06-.19.17-.19s.15.13.19.21,0,.16,0,.23h0a6.45,6.45,0,0,1,.5,1.71,9.13,9.13,0,0,0,.29,1.56,16.05,16.05,0,0,1,.22,2.76,8.58,8.58,0,0,0,0,.88,11.28,11.28,0,0,1-.16,2,11.65,11.65,0,0,1-.39,2.09,24.54,24.54,0,0,1-.9,2.62c0,.09,0,.19-.06.25a2.81,2.81,0,0,1-1.29,0c-.14-.11,0-.21,0-.31a11.44,11.44,0,0,0,.93-2.79,20.17,20.17,0,0,0,0-7.49c0-.11,0-.27-.14-.3s-.21.1-.29.18a8.93,8.93,0,0,1-.87.87,1,1,0,0,0-.36.25c-.29.23-.45.2-.63-.13a9,9,0,0,1-.5-1.43c-.37-1.1-.66-2.23-1.13-3.29a2.25,2.25,0,0,1-.13-.42.23.23,0,0,0-.26-.19.21.21,0,0,0-.22.19,10.13,10.13,0,0,1-.64,1.8c-.37,1-.6,2-1,3a.36.36,0,0,1,0,.11c-.22.52-.42.63-.83.21a.8.8,0,0,0-.24-.13,8.6,8.6,0,0,1-.91-.9c-.07-.08-.14-.19-.26-.16s-.12.16-.13.26a20.68,20.68,0,0,0-.32,5.55,14.09,14.09,0,0,0,1.16,4.74c.05.1.12.22,0,.33a2.76,2.76,0,0,1-1.18,0A10.38,10.38,0,0,1,116,125.19Z" transform="translate(-94.2 -103.93)"/><path class="cls-11" d="M126.88,114.63a12.75,12.75,0,0,1,.47,2.29c.06.37.1.74.15,1.11a28.73,28.73,0,0,1,0,3.47c0,.14-.06.28-.09.43s0,0-.08,0c-.12-.38.11-.72.13-1.08a19.28,19.28,0,0,0-.08-3.22c-.09-.66-.17-1.33-.3-2A2.51,2.51,0,0,1,126.88,114.63Z" transform="translate(-94.2 -103.93)"/><path class="cls-12" d="M120.47,109.52a2.48,2.48,0,0,1-.34,1.19c-.2.39-.22.84-.46,1.22a.06.06,0,0,1-.1,0,.5.5,0,0,1,.11-.39l.56-1.59C120.33,109.81,120.21,109.56,120.47,109.52Z" transform="translate(-94.2 -103.93)"/><path class="cls-13" d="M126,126.57c.13-.61.45-1.15.63-1.73.08-.28.17-.56.26-.83,0,0,.05,0,.08,0-.1.57-.36,1.1-.49,1.66a3.61,3.61,0,0,1-.24.57h0c-.06.11,0,.25-.17.32h0S126,126.6,126,126.57Z" transform="translate(-94.2 -103.93)"/><path class="cls-14" d="M127,124h-.08c.12-.7.35-1.37.4-2.08h.08A8.7,8.7,0,0,1,127,124Z" transform="translate(-94.2 -103.93)"/><path class="cls-15" d="M115.84,114h.06a.56.56,0,0,1-.15.57C115.7,114.37,115.86,114.21,115.84,114Z" transform="translate(-94.2 -103.93)"/><path class="cls-16" d="M124.64,126.8l-5.54,0c-.4,0-.8,0-1.19,0a13.38,13.38,0,0,1-1.29-4.85,25,25,0,0,1-.06-2.59A20.37,20.37,0,0,1,117,116c.05-.24.15-.33.36-.11.35.38.72.75,1.07,1.12a3.1,3.1,0,0,1,.51.44c.19.15.27.1.34-.09.23-.58.39-1.18.59-1.77a4.39,4.39,0,0,1,.4-1,.27.27,0,0,0,.21-.25,14.12,14.12,0,0,1,.61-1.8.27.27,0,0,1,.28-.24c.14,0,.2.12.23.24a9.73,9.73,0,0,1,.62,1.79c0,.22.23.29.3.46a21.37,21.37,0,0,1,.85,2.36c.18.46.21.43.58.12a2.14,2.14,0,0,1,.32-.28c.36-.37.72-.74,1.07-1.12.2-.21.33-.15.36.11.12.85.28,1.69.35,2.55a22.82,22.82,0,0,1,0,2.74,13.54,13.54,0,0,1-1.17,5.2A.94.94,0,0,1,124.64,126.8Z" transform="translate(-94.2 -103.93)"/><path class="cls-17" d="M124.23,117c-.19.2-.37.41-.57.61s-.24.09-.3-.1l-.89-2.67a7.7,7.7,0,0,1-.64-1.58c-.19-.38-.29-.8-.52-1.22-.31.64-.52,1.28-.76,1.91a1.78,1.78,0,0,1-.32.73l-1.08,3.13-.76-.81c.21,0,.26.15.38.24s.3.23.45-.08c.23-.49.33-1,.52-1.52.09-.25.27-.53.24-.74-.09-.59.43-.92.48-1.44s.48-1,.53-1.56c0-.16.16-.19.31-.18s.31.06.35.21c.2.78.59,1.48.8,2.24s.57,1.75.82,2.63a1.87,1.87,0,0,0,.07.22c.22.45.28.46.62.1A.31.31,0,0,1,124.23,117Z" transform="translate(-94.2 -103.93)"/><path class="cls-18" d="M119.53,111.94l0,0h.09a11.44,11.44,0,0,1-.47,1.67,12.08,12.08,0,0,1-.65,1.77c-.07.13-.17.3-.34.18a9.58,9.58,0,0,1-.77-.66.4.4,0,0,1-.08-.34,7.69,7.69,0,0,0,.76.75c.13.09.27.18.33,0,.15-.57.42-1.11.52-1.7A9,9,0,0,0,119.53,111.94Z" transform="translate(-94.2 -103.93)"/><path class="cls-15" d="M115.9,114a5.26,5.26,0,0,1,.43-1.38c.17.07.14.22.17.33-.42,0-.26.47-.41.68S116.05,113.92,115.9,114Z" transform="translate(-94.2 -103.93)"/><path class="cls-19" d="M116.56,113l.33.72A.74.74,0,0,1,116.56,113Z" transform="translate(-94.2 -103.93)"/><path class="cls-20" d="M121.42,107.62l-.23,0c-.08-.13,0-.21.09-.31h0c.18,0,.17.15.19.27Z" transform="translate(-94.2 -103.93)"/><path class="cls-20" d="M121.5,107.62l.08.31a.33.33,0,0,1-.16-.31l0,0S121.5,107.59,121.5,107.62Z" transform="translate(-94.2 -103.93)"/><path class="cls-21" d="M122.39,118.25a9.57,9.57,0,0,1,.5,1.29c0,.09,0,.23.17.25s.18-.1.24-.18c.19-.25.37-.51.56-.77,0-.07.09-.15.18-.14s.1.11.11.19a19.8,19.8,0,0,1,.18,4.68,12,12,0,0,1-.42,2.38c-.22.78-.24.78-1,.78-1.18,0-2.37,0-3.55,0a.35.35,0,0,1-.4-.26,10.09,10.09,0,0,1-.62-2.7,18.87,18.87,0,0,1,0-2.71c0-.72.14-1.45.22-2.17,0-.08,0-.17.11-.19s.14.07.19.14l.58.8c.16.22.28.19.38-.06.16-.45.33-.89.5-1.33a4.4,4.4,0,0,0,.72-1.35c0-.19.12-.37.34-.39s.32.15.38.34A6.87,6.87,0,0,0,122.39,118.25Z" transform="translate(-94.2 -103.93)"/><path class="cls-22" d="M120.23,114.65c.16-.65.45-1.24.66-1.87a5.32,5.32,0,0,1,.26-.66c0-.09,0-.21.15-.22s.14.11.17.19c.34.91.67,1.81,1,2.72a.73.73,0,0,1-.42-.64,15.2,15.2,0,0,0-.62-1.71.12.12,0,0,0-.13-.12.16.16,0,0,0-.13.14c-.12.65-.59,1.19-.61,1.87C120.55,114.57,120.45,114.66,120.23,114.65Z" transform="translate(-94.2 -103.93)"/><path class="cls-23" d="M122.39,118.25c-.08,0-.18,0-.2-.11-.09-.43-.52-.7-.56-1.16,0-.18-.09-.4-.32-.39s-.27.2-.28.41c0,.47-.48.74-.58,1.18,0,.08-.14.06-.22.07.25-.68.59-1.31.9-2,.11-.21.25-.22.37,0A17.15,17.15,0,0,1,122.39,118.25Z" transform="translate(-94.2 -103.93)"/><g class="cls-24"><use transform="translate(136.12 129.13) rotate(180) scale(0.06)" xlink:href="#image"/></g></svg>