<svg id="레이어_1" data-name="레이어 1" xmlns="http://www.w3.org/2000/svg" xmlns:xlink="http://www.w3.org/1999/xlink" viewBox="0 0 76.97 52.68"><defs><style>.cls-1,.cls-8{fill:none;}.cls-2{fill:#669db3;}.cls-3{fill:#606060;opacity:0.1;}.cls-4{fill:#a89c94;}.cls-5{fill:#f4f4f4;}.cls-6{fill:#ff4f58;}.cls-7{fill:#95dbe5;}.cls-7,.cls-8{opacity:0.5;}.cls-8{stroke:#95dbe5;stroke-miterlimit:10;}.cls-9{clip-path:url(#clip-path);}.cls-10{fill:#fe9402;}.cls-11{fill:#f59f24;}.cls-12{fill:#f19f26;}.cls-13{fill:#f7a038;}.cls-14{fill:#f3a033;}.cls-15{fill:#f4a543;}.cls-16{fill:#fdc100;}.cls-17{fill:#f79b00;}.cls-18{fill:#f79919;}.cls-19{fill:#f6b35d;}.cls-20{fill:#e2b05f;}.cls-21{fill:#fdec01;}.cls-22{fill:#feb906;}.cls-23{fill:#fee606;}.cls-24{clip-path:url(#clip-path-2);}</style><clipPath id="clip-path" transform="translate(-80.18 -116.14)"><path class="cls-1" d="M131.21,151.94H122c-1.16,0-1.3.08-1.24,1.08a3.47,3.47,0,0,1-2.4,3.6c-1.73.78-3.42,1.63-5.13,2.43-1.16.55-2,.14-2.1-1.07s-.05-2.47-.07-3.7v-.81c0-1.2.22-1.57-1.56-1.58a1.6,1.6,0,0,1-1.82-1.77c0-1.13,0-2.26,0-3.39,0-.61-.19-.85-.94-.79-2.17.19-2.27.08-2.27-1.88v-5.89c0-1.15.35-1.43,1.59-1.35,1.62.11,1.62.11,1.62-1.34,0-.94,0-1.88,0-2.82,0-1.3.5-1.77,2-1.93s1.43-.16,1.43-1.45,0-2.58,0-3.87a2.2,2.2,0,0,1,.29-1.25c.47-.77.85-.88,1.72-.47l5.45,2.59a3.27,3.27,0,0,1,2.23,3.28c0,1,.1,1.12,1.3,1.12,5.71,0,11.42,0,17.12,0a10.47,10.47,0,0,1,3.65.59,44.77,44.77,0,0,1,10.53,5c1.71,1.21,2.65,2.73,2.28,4.77a1.55,1.55,0,0,0,0,.48c.36,2-.56,3.62-2.32,4.83a45.11,45.11,0,0,1-11.88,5.43,4.78,4.78,0,0,1-1.51.13Z"/></clipPath><clipPath id="clip-path-2" transform="translate(-80.18 -116.14)"><path class="cls-1" d="M90.26,140.29a15,15,0,0,1,1.93-.74c.15,0,.35-.08.38-.25s-.15-.27-.27-.37c-.38-.29-.77-.56-1.15-.84-.1-.07-.23-.14-.21-.27s.16-.15.28-.17a30.52,30.52,0,0,1,7-.27,18.81,18.81,0,0,1,3.57.63c1.18.34,1.17.37,1.17,1.56v5.34a.53.53,0,0,1-.39.6,14.43,14.43,0,0,1-4,.91,26.22,26.22,0,0,1-4.06.09c-1.09,0-2.17-.22-3.26-.34-.12,0-.26,0-.28-.16s.11-.21.2-.28l1.21-.87c.33-.25.28-.43-.1-.57l-2-.76a6.54,6.54,0,0,0-2-1.07c-.29-.08-.55-.18-.58-.51s.23-.48.5-.58A9.27,9.27,0,0,0,90.26,140.29Z"/></clipPath><image id="image" width="420" height="420" xlink:href="../../../../../../../../../Downloads/clean-textile.png"/></defs><title>rocket</title><path class="cls-2" d="M155.65,141.07c.37-2-.57-3.56-2.28-4.77a28.44,28.44,0,0,0-2.51-1.57V147.9c.84-.47,1.67-1,2.47-1.52,1.76-1.21,2.68-2.78,2.32-4.83A1.55,1.55,0,0,1,155.65,141.07Z" transform="translate(-80.18 -116.14)"/><path class="cls-3" d="M152.65,145.07c.37-2-.57-3.56-2.28-4.77a28.44,28.44,0,0,0-2.51-1.57V151.9c.84-.47,1.67-1,2.47-1.52,1.76-1.21,2.68-2.78,2.32-4.83A1.55,1.55,0,0,1,152.65,145.07Z" transform="translate(-80.18 -116.14)"/><path class="cls-3" d="M117.77,133.13a3.27,3.27,0,0,0-2.23-3.28c-1.82-.86-3.63-1.73-5.45-2.58-.87-.42-1.25-.31-1.72.46a2.2,2.2,0,0,0-.29,1.25c0,1.29,0,2.58,0,3.87a4.75,4.75,0,0,1,0,.84h9.75A4.83,4.83,0,0,1,117.77,133.13Z" transform="translate(-80.18 -116.14)"/><path class="cls-3" d="M139.84,135.27a10.47,10.47,0,0,0-3.65-.59c-5.7,0-11.41,0-17.12,0-.93,0-1.22-.06-1.29-.56H108c-.09.45-.39.49-1.39.61-1.45.16-1.93.63-2,1.93,0,.94,0,1.88,0,2.82,0,1.16,0,1.39-.84,1.38V150c.66,0,.85.2.84.78,0,1.13,0,2.26,0,3.39a1.6,1.6,0,0,0,1.82,1.77c1.78,0,1.53.38,1.56,1.58v.81c0,1.23,0,2.47.07,3.7s.94,1.62,2.1,1.07c1.71-.8,3.4-1.65,5.13-2.43a3.47,3.47,0,0,0,2.4-3.6c-.06-1,.08-1.08,1.24-1.08h17.92a4.78,4.78,0,0,0,1.51-.13,52.69,52.69,0,0,0,9.41-3.91V138.73A57.87,57.87,0,0,0,139.84,135.27Z" transform="translate(-80.18 -116.14)"/><path class="cls-4" d="M106.07,136.83c-1.24-.08-1.58.2-1.59,1.35v5.89c0,2,.1,2.07,2.27,1.88h.1v-9.09C106.64,136.87,106.4,136.86,106.07,136.83Z" transform="translate(-80.18 -116.14)"/><path class="cls-5" d="M142.84,131.27a10.47,10.47,0,0,0-3.65-.59c-5.7,0-11.41,0-17.12,0-.93,0-1.22-.06-1.29-.56H111c-.09.45-.39.49-1.39.61-1.45.16-1.93.63-2,1.93,0,.94,0,1.88,0,2.82,0,1.16,0,1.39-.84,1.38V146c.66,0,.85.2.84.78,0,1.13,0,2.26,0,3.39a1.6,1.6,0,0,0,1.82,1.77c1.78,0,1.53.38,1.56,1.58v.81c0,1.23,0,2.47.07,3.7s.94,1.62,2.1,1.07c1.71-.8,3.4-1.65,5.13-2.43a3.47,3.47,0,0,0,2.4-3.6c-.06-1,.08-1.08,1.24-1.08h17.92a4.78,4.78,0,0,0,1.51-.13,52.69,52.69,0,0,0,9.41-3.91V134.73A57.87,57.87,0,0,0,142.84,131.27Z" transform="translate(-80.18 -116.14)"/><path class="cls-6" d="M120.77,129.57a3.27,3.27,0,0,0-2.23-3.28l-5.45-2.59c-.87-.41-1.25-.3-1.72.47a2.2,2.2,0,0,0-.29,1.25c0,1.29,0,2.58,0,3.87a4.75,4.75,0,0,1,0,.84h9.75A4.83,4.83,0,0,1,120.77,129.57Z" transform="translate(-80.18 -116.14)"/><path class="cls-7" d="M143.89,141.82v-1.76a3.4,3.4,0,0,0-3.45-3.32h-7.63a3.61,3.61,0,0,0-1.09.18A35.4,35.4,0,0,0,143.66,143,3.08,3.08,0,0,0,143.89,141.82Z" transform="translate(-80.18 -116.14)"/><rect class="cls-8" x="130.45" y="132.44" width="10.75" height="17.92" rx="4.25" transform="translate(197.05 -110.56) rotate(90)"/><path class="cls-7" d="M143.64,143.67a39.19,39.19,0,0,1-13.27-6.73,3.71,3.71,0,0,0-2.61,3.49v1.95a3.77,3.77,0,0,0,3.82,3.68h8.48A3.85,3.85,0,0,0,143.64,143.67Z" transform="translate(-80.18 -116.14)"/><path class="cls-6" d="M108.86,141.32a4.6,4.6,0,0,1,.2-1.42c.18-.5.34-.62.86-.56l6.09.78a.41.41,0,0,1,.39.47c0,.5,0,1,0,1.5s-.17.51-.51.55c-1.36.16-2.72.35-4.09.52l-1.87.25c-.51.06-.7-.07-.88-.55A4.94,4.94,0,0,1,108.86,141.32Z" transform="translate(-80.18 -116.14)"/><path class="cls-6" d="M120.77,153.24a3.28,3.28,0,0,1-2.23,3.28l-5.45,2.58c-.87.41-1.25.3-1.72-.47a2.19,2.19,0,0,1-.29-1.24c0-1.29,0-2.58,0-3.87a4.63,4.63,0,0,0,0-.84h9.75A4.72,4.72,0,0,0,120.77,153.24Z" transform="translate(-80.18 -116.14)"/><g class="cls-9"><use transform="translate(76.97 0) rotate(90) scale(0.13)" xlink:href="#image"/></g><path class="cls-10" d="M101.44,147a25,25,0,0,1-2.55.64,19.28,19.28,0,0,1-7.26-.19,3.2,3.2,0,0,1-.81-.2,1.17,1.17,0,0,0-.52-.12l-.1,0a4,4,0,0,1-.83-.26c-.15-.06-.31-.11-.22-.33a.34.34,0,0,1,.12-.12,1.25,1.25,0,0,0,.69-.31,5.49,5.49,0,0,1,.63-.34h0a.39.39,0,0,1,.23-.17c.45-.05.55-.51.83-.75.12-.1,0-.22-.11-.28a4.9,4.9,0,0,0-.67-.26c-.9-.32-1.84-.56-2.75-.88-.5-.26-1.06-.38-1.57-.62-.24-.12-.52-.06-.76-.17s-.54-.16-.8-.28-.72-.2-1-.38a.27.27,0,0,1-.12-.14.26.26,0,0,1,0-.24,2,2,0,0,1,.34-.23c.67-.25,1.32-.53,2-.72h0a9.88,9.88,0,0,1,1.69-.66c1.11-.36,2.2-.75,3.31-1.1.35-.12.35-.19.06-.43a4.67,4.67,0,0,0-.74-.59c-.44-.31-.94-.53-1.39-.82L89,137c-.09,0-.19-.06-.19-.17s.13-.15.21-.19.16,0,.23-.05h0a6.73,6.73,0,0,1,1.71-.5,10.29,10.29,0,0,0,1.55-.28,17.16,17.16,0,0,1,2.77-.23c.29,0,.58,0,.87,0a11.28,11.28,0,0,1,2,.16,12.21,12.21,0,0,1,2.09.38,24.71,24.71,0,0,1,2.63.9c.08,0,.18,0,.25.07a3.07,3.07,0,0,1,0,1.28c-.12.14-.22,0-.32,0a11,11,0,0,0-2.79-.92,17.88,17.88,0,0,0-4.56-.32,20.73,20.73,0,0,0-2.93.35c-.11,0-.27,0-.3.15s.1.2.18.28a10.44,10.44,0,0,1,.88.88,1,1,0,0,0,.24.36c.23.29.2.44-.13.62a8.08,8.08,0,0,1-1.43.5c-1.1.37-2.22.66-3.29,1.14a2,2,0,0,1-.42.12.24.24,0,0,0-.19.27c0,.13.08.19.2.21a11.21,11.21,0,0,1,1.79.64c1,.37,2,.6,3,1l.12,0c.51.22.63.42.2.84a.7.7,0,0,0-.13.24,9.56,9.56,0,0,1-.9.9c-.07.07-.19.14-.16.26s.16.12.26.14a21.15,21.15,0,0,0,5.56.31,14.1,14.1,0,0,0,4.73-1.16c.11,0,.22-.11.33,0a2.61,2.61,0,0,1,0,1.18A10.38,10.38,0,0,1,101.44,147Z" transform="translate(-80.18 -116.14)"/><path class="cls-11" d="M90.88,136.14a12.93,12.93,0,0,1,2.29-.47l1.11-.15a30.87,30.87,0,0,1,3.47,0c.15,0,.29.06.43.09s0,.06,0,.09c-.38.11-.72-.12-1.08-.13a18.26,18.26,0,0,0-3.22.07c-.66.1-1.33.17-2,.31A2.48,2.48,0,0,1,90.88,136.14Z" transform="translate(-80.18 -116.14)"/><path class="cls-12" d="M85.77,142.56a2.44,2.44,0,0,1,1.19.33,12.75,12.75,0,0,1,1.22.46s0,.07,0,.1a.55.55,0,0,1-.39-.1l-1.59-.57C86.06,142.69,85.81,142.82,85.77,142.56Z" transform="translate(-80.18 -116.14)"/><path class="cls-13" d="M102.82,137c-.61-.13-1.14-.45-1.73-.63l-.83-.25a.06.06,0,0,1,0-.09c.58.1,1.1.36,1.67.5a2.31,2.31,0,0,1,.56.24h0c.11,0,.25,0,.32.16h0S102.86,137,102.82,137Z" transform="translate(-80.18 -116.14)"/><path class="cls-14" d="M100.26,136.06v.09a16.58,16.58,0,0,0-2.08-.4v-.09A9.22,9.22,0,0,1,100.26,136.06Z" transform="translate(-80.18 -116.14)"/><path class="cls-15" d="M90.27,147.19a.25.25,0,0,1,0-.07.59.59,0,0,1,.57.15C90.62,147.32,90.46,147.17,90.27,147.19Z" transform="translate(-80.18 -116.14)"/><path class="cls-16" d="M103.05,138.38c0,1.85,0,3.7,0,5.54,0,.4,0,.8,0,1.2a13.57,13.57,0,0,1-4.85,1.28,24.88,24.88,0,0,1-2.59.06,20.37,20.37,0,0,1-3.39-.4c-.24-.05-.33-.15-.11-.36.38-.35.75-.71,1.12-1.07a4.23,4.23,0,0,1,.44-.51c.15-.18.1-.26-.09-.34-.58-.23-1.18-.38-1.77-.59a4.39,4.39,0,0,1-1-.4.27.27,0,0,0-.25-.21,14.12,14.12,0,0,1-1.8-.61.27.27,0,0,1-.24-.28c0-.14.12-.2.24-.23a11.49,11.49,0,0,1,1.79-.62c.22,0,.29-.23.46-.3.74-.39,1.59-.53,2.36-.85.46-.18.44-.21.12-.57a2.22,2.22,0,0,1-.28-.33l-1.11-1.07c-.22-.2-.15-.32.1-.36.85-.12,1.69-.28,2.55-.35a23,23,0,0,1,2.75,0,13.91,13.91,0,0,1,5.19,1.17A1.07,1.07,0,0,1,103.05,138.38Z" transform="translate(-80.18 -116.14)"/><path class="cls-17" d="M93.22,138.79l.61.57c.15.16.09.24-.1.31l-2.67.88a8.08,8.08,0,0,1-1.58.65c-.38.19-.8.29-1.22.51a19.12,19.12,0,0,0,1.92.76,1.94,1.94,0,0,1,.72.32L94,143.87l-.81.76c0-.21.16-.25.24-.37s.24-.31-.07-.45c-.5-.23-1-.34-1.53-.52-.25-.1-.53-.28-.74-.25-.58.09-.91-.43-1.44-.47s-1-.48-1.56-.54c-.15,0-.19-.16-.18-.31a.31.31,0,0,1,.22-.34c.77-.21,1.47-.6,2.23-.81s1.75-.56,2.63-.82l.22-.07c.45-.22.46-.28.1-.62A.33.33,0,0,1,93.22,138.79Z" transform="translate(-80.18 -116.14)"/><path class="cls-18" d="M88.19,143.5a.14.14,0,0,0,0-.06v-.09a14.81,14.81,0,0,1,1.68.47,13,13,0,0,1,1.77.66c.12.06.29.16.17.33a8.11,8.11,0,0,1-.66.77.34.34,0,0,1-.34.08,7.69,7.69,0,0,0,.75-.76c.09-.12.18-.27,0-.33-.58-.14-1.12-.41-1.71-.51A7.68,7.68,0,0,0,88.19,143.5Z" transform="translate(-80.18 -116.14)"/><path class="cls-15" d="M90.25,147.12a5.26,5.26,0,0,1-1.38-.43c.07-.17.22-.13.33-.17,0,.43.47.26.69.42S90.17,147,90.25,147.12Z" transform="translate(-80.18 -116.14)"/><path class="cls-19" d="M89.3,146.47l.71-.34A.74.74,0,0,1,89.3,146.47Z" transform="translate(-80.18 -116.14)"/><path class="cls-20" d="M83.87,141.6v.23c-.14.09-.22,0-.32-.09h0c0-.18.15-.17.28-.19Z" transform="translate(-80.18 -116.14)"/><path class="cls-20" d="M83.87,141.52l.31-.08c-.06.14-.19.15-.31.16l0,0S83.84,141.53,83.87,141.52Z" transform="translate(-80.18 -116.14)"/><path class="cls-21" d="M94.5,140.63a9.57,9.57,0,0,1,1.29-.5c.1,0,.23,0,.25-.16s-.1-.18-.18-.25l-.77-.56c-.06,0-.15-.09-.14-.18s.11-.1.19-.11a20.35,20.35,0,0,1,4.68-.18,12,12,0,0,1,2.38.42c.78.23.78.24.78,1v3.56a.36.36,0,0,1-.26.4,9.7,9.7,0,0,1-2.7.61,18.87,18.87,0,0,1-2.71.06c-.72,0-1.44-.15-2.17-.23-.08,0-.17,0-.19-.11s.07-.14.14-.18l.8-.59c.22-.16.19-.28-.06-.37l-1.33-.51a4.4,4.4,0,0,0-1.35-.72c-.19,0-.36-.12-.39-.34s.16-.31.34-.38A6.18,6.18,0,0,0,94.5,140.63Z" transform="translate(-80.18 -116.14)"/><path class="cls-22" d="M90.9,142.79c-.64-.16-1.24-.44-1.87-.65l-.66-.26c-.08,0-.2,0-.22-.16s.11-.14.19-.17l2.72-1a.72.72,0,0,1-.64.43,13.4,13.4,0,0,0-1.71.61c-.07,0-.12,0-.11.13a.15.15,0,0,0,.13.14c.65.11,1.19.58,1.87.61C90.82,142.48,90.91,142.58,90.9,142.79Z" transform="translate(-80.18 -116.14)"/><path class="cls-23" d="M94.5,140.63c0,.08,0,.18-.11.2-.43.09-.69.52-1.16.56-.17,0-.4.09-.39.32s.2.27.41.29c.47,0,.74.47,1.18.57.08,0,.07.14.07.22a20,20,0,0,1-1.94-.9c-.22-.1-.23-.25,0-.36A18.06,18.06,0,0,1,94.5,140.63Z" transform="translate(-80.18 -116.14)"/><g class="cls-24"><use transform="translate(105.38 126.91) rotate(90) scale(0.06)" xlink:href="#image"/></g></svg>