<svg id="레이어_1" data-name="레이어 1" xmlns="http://www.w3.org/2000/svg" viewBox="0 0 76.38 11.38"><defs><style>.cls-1{fill:#fbffd3;}</style></defs><title>SKILLS_hover</title><path class="cls-1" d="M167.49,89.2V87.58h-1.63V86h3.25v1.63H174V84.33h-6.5V82.7h-1.63V79.45h1.63V77.83h8.12v1.62h1.63v1.63H174V79.45h-4.88V82.7h6.5v1.63h1.63v3.25h-1.63V89.2Z" transform="translate(-165.86 -77.83)"/><path class="cls-1" d="M178.86,89.2V77.83h3.25V82.7h1.63V81.08h1.62V79.45H187V77.83h3.25v1.62h-1.63v1.63H187V82.7h-1.63v1.63H187V86h1.62v1.63h1.63V89.2h-4.88V87.58h-1.62V86h-1.63V89.2Z" transform="translate(-165.86 -77.83)"/><path class="cls-1" d="M193.49,89.2V87.58h3.25V79.45h-3.25V77.83h9.75v1.62H200v8.13h3.25V89.2Z" transform="translate(-165.86 -77.83)"/><path class="cls-1" d="M206.49,89.2V77.83h3.25v9.75h6.5V89.2Z" transform="translate(-165.86 -77.83)"/><path class="cls-1" d="M219.49,89.2V77.83h3.25v9.75h6.5V89.2Z" transform="translate(-165.86 -77.83)"/><path class="cls-1" d="M232.49,89.2V87.58h-1.63V86h3.25v1.63H239V84.33h-6.5V82.7h-1.63V79.45h1.63V77.83h8.12v1.62h1.63v1.63H239V79.45h-4.88V82.7h6.5v1.63h1.63v3.25h-1.63V89.2Z" transform="translate(-165.86 -77.83)"/></svg>