<svg id="레이어_1" data-name="레이어 1" xmlns="http://www.w3.org/2000/svg" viewBox="0 0 66 18"><defs><style>.cls-1{fill:#fcf6f5;}.cls-2{fill:none;stroke:#f10058;stroke-miterlimit:10;}</style></defs><title>start</title><path class="cls-1" d="M-3,15.66v-1.5H-4.5v-1.5h3v1.5H3v-3H-3V9.66H-4.5v-3H-3V5.16H4.5v1.5H6v1.5H3V6.66H-1.5v3h6v1.5H6v3H4.5v1.5Z" transform="translate(8 -1.4)"/><path class="cls-1" d="M12,15.66v-9H9V5.16h9v1.5H15v9Z" transform="translate(8 -1.4)"/><path class="cls-1" d="M19.5,15.66V8.16H21V6.66h1.5V5.16H27v1.5h1.5v1.5H30v7.5H27v-3H22.5v3Zm3-4.5H27v-3H25.5V6.66H24v1.5H22.5Z" transform="translate(8 -1.4)"/><path class="cls-1" d="M31.5,15.66V5.16h9v1.5H42v4.5H39v1.5h1.5v1.5H42v1.5H37.5v-1.5H36v-1.5H34.5v3Zm3-4.5h3V9.66H39v-3H34.5Z" transform="translate(8 -1.4)"/><path class="cls-1" d="M48,15.66v-9H45V5.16h9v1.5H51v9Z" transform="translate(8 -1.4)"/><rect class="cls-2" x="0.5" y="0.5" width="65" height="17" rx="4"/></svg>