<svg id="레이어_1" data-name="레이어 1" xmlns="http://www.w3.org/2000/svg" viewBox="0 0 339.75 18"><defs><style>.cls-1{fill:#fbffd3;}</style></defs><title>welcomeToY1</title><path class="cls-1" d="M80.11,103.58v-2.25H77.86V87.83h4.5v9h2.25v-9h2.25v9h2.25v-9h4.5v13.5H91.36v2.25H89.11v-2.25H86.86V99.08H84.61v2.25H82.36v2.25Z" transform="translate(-77.86 -87.83)"/><path class="cls-1" d="M98.11,103.58v-2.25H95.86V94.58h2.25V92.33h11.25v2.25h2.25v4.5H100.36v2.25h9v2.25Zm2.25-6.75h6.75V94.58h-6.75Z" transform="translate(-77.86 -87.83)"/><path class="cls-1" d="M116.11,103.58v-2.25h4.5V90.08h-2.25V87.83h6.75v13.5h4.5v2.25Z" transform="translate(-77.86 -87.83)"/><path class="cls-1" d="M134.11,103.58v-2.25h-2.25V94.58h2.25V92.33h13.5v2.25H136.36v6.75h11.25v2.25Z" transform="translate(-77.86 -87.83)"/><path class="cls-1" d="M152.11,103.58v-2.25h-2.25V94.58h2.25V92.33h11.25v2.25h2.25v6.75h-2.25v2.25Zm2.25-2.25h6.75V94.58h-6.75Z" transform="translate(-77.86 -87.83)"/><path class="cls-1" d="M167.86,103.58V92.33h13.5v2.25h2.25v9h-4.5v-9h-2.25v9h-4.5v-9h-2.25v9Z" transform="translate(-77.86 -87.83)"/><path class="cls-1" d="M188.11,103.58v-2.25h-2.25V94.58h2.25V92.33h11.25v2.25h2.25v4.5H190.36v2.25h9v2.25Zm2.25-6.75h6.75V94.58h-6.75Z" transform="translate(-77.86 -87.83)"/><path class="cls-1" d="M228.61,103.58v-9h-4.5V92.33h4.5v-4.5h4.5v4.5h4.5v2.25h-4.5v9Z" transform="translate(-77.86 -87.83)"/><path class="cls-1" d="M242.11,103.58v-2.25h-2.25V94.58h2.25V92.33h11.25v2.25h2.25v6.75h-2.25v2.25Zm2.25-2.25h6.75V94.58h-6.75Z" transform="translate(-77.86 -87.83)"/><path class="cls-1" d="M275.86,103.58V87.83h4.5v2.25h2.25v2.25h2.25V90.08h2.25V87.83h4.5v15.75h-4.5v-9h-2.25v4.5h-2.25v-4.5h-2.25v9Z" transform="translate(-77.86 -87.83)"/><path class="cls-1" d="M296.11,105.83v-2.25h9v-2.25h-9V99.08h-2.25V92.33h4.5v6.75h6.75V92.33h4.5v11.25h-2.25v2.25Z" transform="translate(-77.86 -87.83)"/><path class="cls-1" d="M332.11,103.58v-2.25h-2.25V99.08h4.5v2.25h6.75v-4.5h-9V94.58h-2.25v-4.5h2.25V87.83h11.25v2.25h2.25v2.25h-4.5V90.08h-6.75v4.5h9v2.25h2.25v4.5h-2.25v2.25Z" transform="translate(-77.86 -87.83)"/><path class="cls-1" d="M347.86,105.83V92.33h13.5v2.25h2.25v4.5h-2.25v2.25h-9v4.5Zm4.5-6.75h6.75v-4.5h-6.75Z" transform="translate(-77.86 -87.83)"/><path class="cls-1" d="M368.11,103.58v-2.25h-2.25V99.08h2.25V96.83h9V94.58h-9V92.33h11.25v2.25h2.25v9Zm2.25-2.25h6.75V99.08h-6.75Z" transform="translate(-77.86 -87.83)"/><path class="cls-1" d="M386.11,103.58v-2.25h-2.25V94.58h2.25V92.33h13.5v2.25H388.36v6.75h11.25v2.25Z" transform="translate(-77.86 -87.83)"/><path class="cls-1" d="M404.11,103.58v-2.25h-2.25V94.58h2.25V92.33h11.25v2.25h2.25v4.5H406.36v2.25h9v2.25Zm2.25-6.75h6.75V94.58h-6.75Z" transform="translate(-77.86 -87.83)"/></svg>