<svg id="레이어_1" data-name="레이어 1" xmlns="http://www.w3.org/2000/svg" viewBox="0 0 381.22 127.26"><defs><style>.cls-1{fill:#5a5858;}.cls-2{fill:#6f6f6f;}.cls-2,.cls-4,.cls-5,.cls-8{opacity:0.6;}.cls-3{fill:#fcf6f5;}.cls-4{fill:#f08d9d;}.cls-5{fill:#89abe2;}.cls-6{fill:#97e9ff;}.cls-6,.cls-7{opacity:0.8;}.cls-7{fill:#ffcbef;}.cls-8{fill:#343434;}</style></defs><title>works_devmap</title><path class="cls-1" d="M98.51,55.87V43.62h8.75v1.75H109v1.75h1.75v5.25H109v1.75h-1.75v1.75Zm3.5-1.75h3.5V52.37h1.75V47.12h-1.75V45.37H102Z" transform="translate(-97 -43.62)"/><path class="cls-1" d="M114.26,55.87V54.12h-1.75V48.87h1.75V47.12H123v1.75h1.75v3.5H116v1.75h7v1.75ZM116,50.62h5.25V48.87H116Z" transform="translate(-97 -43.62)"/><path class="cls-1" d="M131.76,55.87V54.12H130V52.37h-1.75V47.12h3.5v5.25h3.5V47.12h3.5v5.25H137v1.75h-1.75v1.75Z" transform="translate(-97 -43.62)"/><path class="cls-1" d="M140.51,55.87V47.12H151v1.75h1.75v7h-3.5v-7h-1.75v7H144v-7h-1.75v7Z" transform="translate(-97 -43.62)"/><path class="cls-1" d="M156.26,55.87V54.12h-1.75V52.37h1.75V50.62h7V48.87h-7V47.12H165v1.75h1.75v7ZM158,54.12h5.25V52.37H158Z" transform="translate(-97 -43.62)"/><path class="cls-1" d="M168.51,57.62V47.12H179v1.75h1.75v3.5H179v1.75h-7v3.5Zm3.5-5.25h5.25v-3.5H172Z" transform="translate(-97 -43.62)"/><rect class="cls-2" y="23.38" width="95" height="18" rx="3"/><path class="cls-3" d="M106.08,78.34h3.38v.74H103.6v-.8h1.92V75.7h.56Zm2.74-5v4H108V75.06h-3.83v-.78h3.89v-.67h-3.83v-.84h4.31Z" transform="translate(-97 -43.62)"/><path class="cls-3" d="M118.25,79.67h-6.8V79h6.8ZM113,77.23l-.41-.37v-3h4.29v.64h-3.67v2.13h3.87v.67Z" transform="translate(-97 -43.62)"/><path class="cls-3" d="M126.1,79.47h-6.4v-.64h6.4Zm-5.58-2.55,2-2.23V73.15h.7v1.54l2.07,1.89-.35.51-2-1.8L121,77.38Z" transform="translate(-97 -43.62)"/><path class="cls-3" d="M130.93,77.48v.65H127.7l-.37-.49V73.36h3.07v.51H128v1.35h2v.64h-2V77.4Zm1.27-1.58h-1.68v-.65h1.64V73.13h.64v5.43l-.6,0Zm1.46,2.95V72.91h.67v5.88Z" transform="translate(-97 -43.62)"/><path class="cls-3" d="M135.61,75.37a3.39,3.39,0,0,1,.09-.74,2.4,2.4,0,0,1,.28-.73,1.63,1.63,0,0,1,.54-.57,1.56,1.56,0,0,1,.87-.22,1.5,1.5,0,0,1,.84.22,1.76,1.76,0,0,1,.55.57,2.45,2.45,0,0,1,.3.73,3.17,3.17,0,0,1,0,1.5,2.34,2.34,0,0,1-.3.73,1.67,1.67,0,0,1-.55.54,1.71,1.71,0,0,1-1.68,0,1.67,1.67,0,0,1-.55-.54,2.34,2.34,0,0,1-.3-.73A3.42,3.42,0,0,1,135.61,75.37Zm.65,0a3.49,3.49,0,0,0,.05.53,1.93,1.93,0,0,0,.17.53,1.22,1.22,0,0,0,.35.4.91.91,0,0,0,.56.16.88.88,0,0,0,.55-.16,1.25,1.25,0,0,0,.36-.4,2.37,2.37,0,0,0,.18-.53,3.4,3.4,0,0,0,0-.53,2.55,2.55,0,0,0-.05-.53,1.61,1.61,0,0,0-.18-.52,1.07,1.07,0,0,0-.35-.41.88.88,0,0,0-.55-.16.94.94,0,0,0-.57.16,1.16,1.16,0,0,0-.35.41,1.87,1.87,0,0,0-.17.52A3.4,3.4,0,0,0,136.26,75.37Zm4.78,3.4V72.09h.81v6.68Z" transform="translate(-97 -43.62)"/><path class="cls-3" d="M150.24,79.47h-6.4v-.64h6.4Zm-1-5.09h-1.94v.93l2.21,1.88-.43.43L147,75.92l-2,1.7-.49-.47,2.09-1.82v-1h-1.88v-.63h1.84V72.31h.66v1.44h2Z" transform="translate(-97 -43.62)"/><path class="cls-3" d="M161,79.67h-6.79V79H161Zm-.66-2.58.06.61H155v-.78h.8l.27-2.78-.91-.08.07-.64h4.87v.9h-.78V77Zm-3.59-2.91L156.53,77h2V74.26Z" transform="translate(-97 -43.62)"/><path class="cls-3" d="M163.82,72.6h3.87V75h-3.52v1.37h3.91v.53h-2v1.89h3.06v.72h-6.84v-.8h3.15V77H164l-.46-.38v-2.2H167V73.2h-3.2Z" transform="translate(-97 -43.62)"/><path class="cls-3" d="M173.74,72.93v.63h-1.35v1.23l1.94,2-.41.45-1.86-1.86L170.5,77.4,170,77l1.66-2.14V73.56h-1.56v-.65ZM177,81h-.6V78.93h-4.71v-.67h5l.35.41Zm-1.29-8.32v4.74h-.62V75h-1.76v-.62h1.74V72.72Zm.69-.08.66.1v4.74h-.66Z" transform="translate(-97 -43.62)"/><path class="cls-3" d="M185.17,79.67h-6.8V79h6.8ZM184,76.86v.64h-4.12l-.37-.49V73.42h4v.51h-3.32V75h3.51v.57h-3.51v1.17Z" transform="translate(-97 -43.62)"/><rect class="cls-4" x="100" y="23.38" width="40" height="18" rx="3"/><path class="cls-3" d="M208.75,76.08v.64h-3.54l-.37-.49V72.35h3.38v.5h-2.74V74h2.74v.74h-2.74V76Zm-3.83,1.54h6.74v3h-6.35l-.29-.28Zm.76.66V80H211V78.28ZM211,71.84V77h-.7V71.82Z" transform="translate(-97 -43.62)"/><path class="cls-3" d="M215.15,71.64l.28.57a4.15,4.15,0,0,0-1.15.74,3.25,3.25,0,0,0-.7.93,3.88,3.88,0,0,0-.37,1.12,8.63,8.63,0,0,0-.1,1.28,5.45,5.45,0,0,0,.12,1.19,3,3,0,0,0,.4,1,2.46,2.46,0,0,0,.74.73,3.79,3.79,0,0,0,1.11.49l0,.57a4.34,4.34,0,0,1-1.22-.46,3.41,3.41,0,0,1-.93-.75,3.25,3.25,0,0,1-.61-1,3.55,3.55,0,0,1-.21-1.24c0-.1,0-.19,0-.29v-.28a7.14,7.14,0,0,1,.13-1.42,4.6,4.6,0,0,1,.46-1.24,4.09,4.09,0,0,1,.83-1A5.51,5.51,0,0,1,215.15,71.64Z" transform="translate(-97 -43.62)"/><path class="cls-3" d="M217.85,75.65l-.1-.53a1.67,1.67,0,0,0,.63-.27,2.59,2.59,0,0,0,.5-.53.51.51,0,0,0,.09-.18.88.88,0,0,0,0-.24,1.26,1.26,0,0,0-.06-.38,1.2,1.2,0,0,0-.21-.34,1.08,1.08,0,0,0-.37-.24,1.32,1.32,0,0,0-.55-.1,1.91,1.91,0,0,0-.47.07,1.2,1.2,0,0,0-.42.22,1.26,1.26,0,0,0-.3.38,1.35,1.35,0,0,0-.11.55v.09a.28.28,0,0,0,0,.09l-.51,0a2.8,2.8,0,0,1,0-.4,1.55,1.55,0,0,1,.17-.76,1.49,1.49,0,0,1,.44-.49,1.73,1.73,0,0,1,.57-.26,2.55,2.55,0,0,1,.59-.07,2.24,2.24,0,0,1,.93.17,1.63,1.63,0,0,1,.55.42,1.2,1.2,0,0,1,.26.5,1.52,1.52,0,0,1,.07.43,1.47,1.47,0,0,1-.27.93,1.69,1.69,0,0,1-.58.53,2.38,2.38,0,0,1,.69.2,2.11,2.11,0,0,1,.58.41,1.82,1.82,0,0,1,.4.58,1.78,1.78,0,0,1,.15.74,1.78,1.78,0,0,1-.62,1.42,2.06,2.06,0,0,1-.7.38,3.26,3.26,0,0,1-.9.12,2.62,2.62,0,0,1-1.37-.36,2.05,2.05,0,0,1-.87-1.21l.55-.33a.4.4,0,0,0,.08.22,2.2,2.2,0,0,0,.18.28,1.39,1.39,0,0,0,.21.27l.17.19a1,1,0,0,0,.43.23,2,2,0,0,0,.55.07,2,2,0,0,0,1.21-.34,1.15,1.15,0,0,0,.45-1,1.34,1.34,0,0,0-.23-.77,1.83,1.83,0,0,0-.53-.51,1.38,1.38,0,0,0-.59-.2A7,7,0,0,0,217.85,75.65Z" transform="translate(-97 -43.62)"/><path class="cls-3" d="M221.32,74.46a2.61,2.61,0,0,1,.11-.75,1.83,1.83,0,0,1,.32-.64,1.64,1.64,0,0,1,.56-.44,1.8,1.8,0,0,1,.81-.17,1.75,1.75,0,0,1,.87.25,1.78,1.78,0,0,1,.53.53,1.81,1.81,0,0,1,.28.64,2.84,2.84,0,0,1,.08.58,3.93,3.93,0,0,1-.07.61,2,2,0,0,1-.27.65,1.61,1.61,0,0,1-.54.53,1.65,1.65,0,0,1-.9.22,1.61,1.61,0,0,1-.82-.2,1.63,1.63,0,0,1-.55-.49,2.22,2.22,0,0,1-.31-.66A2.71,2.71,0,0,1,221.32,74.46Zm.63,0a.11.11,0,0,1,0,.05v0a1.35,1.35,0,0,0,.11.55,1,1,0,0,0,.28.39,1.58,1.58,0,0,0,.39.24,1.19,1.19,0,0,0,.41.08,1,1,0,0,0,.44-.1,1,1,0,0,0,.34-.29,1.49,1.49,0,0,0,.24-.43,1.61,1.61,0,0,0,.08-.54,1.55,1.55,0,0,0-.09-.53,1.27,1.27,0,0,0-.23-.43,1.09,1.09,0,0,0-.35-.29,1,1,0,0,0-1.27.25A1.62,1.62,0,0,0,222,74.46Zm1.58,5.68V77.78h.67v2h3.53l0,.62h-4Zm3.83-8.3v6.09h-.7V71.82Z" transform="translate(-97 -43.62)"/><path class="cls-3" d="M228.9,72.21l.28-.57a5.83,5.83,0,0,1,1.29.88,4,4,0,0,1,.83,1.08,4.52,4.52,0,0,1,.45,1.28,7.48,7.48,0,0,1,.13,1.46,6.69,6.69,0,0,1,0,.8,3.83,3.83,0,0,1-.13.69,3.05,3.05,0,0,1-.27.61A3.55,3.55,0,0,1,231,79a4.14,4.14,0,0,1-2.15,1.21l0-.57a3.74,3.74,0,0,0,1.12-.49,2.53,2.53,0,0,0,.72-.74,2.75,2.75,0,0,0,.4-1,5.54,5.54,0,0,0,.12-1.2,7.47,7.47,0,0,0-.11-1.29,3.45,3.45,0,0,0-.36-1.11A3.17,3.17,0,0,0,230,73,4.18,4.18,0,0,0,228.9,72.21Z" transform="translate(-97 -43.62)"/><rect class="cls-5" x="145" y="23.38" width="30" height="18" rx="3"/><path class="cls-3" d="M253.84,80V78.21h-2.5l-.27-.24.53-4.82.6.06-.45,4.35h2.1V73.29h.62v4.33h1.13v.61h-1.14V80Z" transform="translate(-97 -43.62)"/><path class="cls-3" d="M259.72,78h-3.26v-.7h6.87v.74H260.4v2.4h-.68Zm-2.25-2.17,2.07-1.75V73h-1.91v-.6h4.43v.58h-1.77v1.2l1.95,1.66-.39.48-2-1.56L258,76.37Z" transform="translate(-97 -43.62)"/><rect class="cls-6" y="45.38" width="40" height="18" rx="3"/><path class="cls-3" d="M105.21,97.46v3.94h-.86V93.92l.56-.52.54-.06.55,0a6.26,6.26,0,0,1,1.23.12,4,4,0,0,1,1.06.39,2.26,2.26,0,0,1,.76.67,1.73,1.73,0,0,1,.29,1,1.8,1.8,0,0,1-.69,1.5,2.21,2.21,0,0,1-.72.36,4.42,4.42,0,0,1-.82.17l1.85,3-.61.42-2.06-3.32-.55,0A1.61,1.61,0,0,1,105.21,97.46Zm.05-.71a3.72,3.72,0,0,0,1,.13,5.35,5.35,0,0,0,.79-.06,2.75,2.75,0,0,0,.72-.22,1.47,1.47,0,0,0,.52-.43,1.11,1.11,0,0,0,.2-.67,1.07,1.07,0,0,0-.18-.61,1.31,1.31,0,0,0-.48-.45,2.85,2.85,0,0,0-.73-.28,3.62,3.62,0,0,0-.89-.1l-.45,0-.46.07c0,.42-.06.85-.07,1.32S105.26,96.36,105.26,96.75Z" transform="translate(-97 -43.62)"/><path class="cls-3" d="M110.16,98.28a2.73,2.73,0,0,1,.19-1.09,2,2,0,0,1,.47-.7,1.65,1.65,0,0,1,.64-.37,2.08,2.08,0,0,1,.68-.12,2.47,2.47,0,0,1,.84.14,1.57,1.57,0,0,1,.64.44,2.08,2.08,0,0,1,.4.83,4.6,4.6,0,0,1,.15,1.27l-3.26.31a1.18,1.18,0,0,0,.55.93,1.68,1.68,0,0,0,.48.2,2.33,2.33,0,0,0,.53.06,3,3,0,0,0,.85-.13,1.5,1.5,0,0,0,.61-.32l.21.56a.91.91,0,0,1-.24.24,1.78,1.78,0,0,1-.39.2,2.44,2.44,0,0,1-.5.14,2.62,2.62,0,0,1-.57.06,3,3,0,0,1-.82-.13,1.94,1.94,0,0,1-.74-.44,2.18,2.18,0,0,1-.52-.81A3.35,3.35,0,0,1,110.16,98.28Zm.68,0,2.58-.28a1.36,1.36,0,0,0-.31-.92,1.24,1.24,0,0,0-1-.35,1.26,1.26,0,0,0-.57.15,1.3,1.3,0,0,0-.41.32,1.18,1.18,0,0,0-.24.44,1.42,1.42,0,0,0-.08.5A.53.53,0,0,0,110.84,98.3Z" transform="translate(-97 -43.62)"/><path class="cls-3" d="M119.11,97.22l.75,3.19-.7.26-.42-2a3.62,3.62,0,0,1-.26.68,2.94,2.94,0,0,1-.42.64,2.09,2.09,0,0,1-.6.46,1.66,1.66,0,0,1-.77.19,1.43,1.43,0,0,1-1.18-.5,2.12,2.12,0,0,1-.41-1.38,3.57,3.57,0,0,1,.16-1,3.42,3.42,0,0,1,.45-1,2.72,2.72,0,0,1,.77-.74,2,2,0,0,1,1.08-.29,1.19,1.19,0,0,1,.64.16,1.49,1.49,0,0,1,.47.39,2.1,2.1,0,0,1,.29.5A2.79,2.79,0,0,1,119.11,97.22Zm-1.43-.68-.16,0h-.16a1.1,1.1,0,0,0-.65.21,2,2,0,0,0-.48.55,2.94,2.94,0,0,0-.29.71,2.76,2.76,0,0,0-.1.72,1.48,1.48,0,0,0,.22.83.82.82,0,0,0,.71.32,1,1,0,0,0,.61-.22,2.29,2.29,0,0,0,.48-.54,3.21,3.21,0,0,0,.31-.73,2.81,2.81,0,0,0,.11-.73,1.4,1.4,0,0,0-.15-.66A.92.92,0,0,0,117.68,96.54Z" transform="translate(-97 -43.62)"/><path class="cls-3" d="M124.71,96.4l-.21.75a2.45,2.45,0,0,0-.73-.45,2,2,0,0,0-.76-.14,1.52,1.52,0,0,0-.6.11,1.29,1.29,0,0,0-.5.33,1.58,1.58,0,0,0-.33.55,2.18,2.18,0,0,0-.13.75,2.32,2.32,0,0,0,.14.85,1.55,1.55,0,0,0,.36.55,1.32,1.32,0,0,0,.51.3,2,2,0,0,0,.59.09,1.4,1.4,0,0,0,.53-.11,1.44,1.44,0,0,0,.48-.28,1.65,1.65,0,0,0,.35-.43,1.35,1.35,0,0,0,.16-.57l.66.33a2,2,0,0,1-.22.82,1.85,1.85,0,0,1-.49.58,2.06,2.06,0,0,1-.69.36,3,3,0,0,1-.79.11,2.55,2.55,0,0,1-.86-.15,2.29,2.29,0,0,1-.75-.48,2.43,2.43,0,0,1-.53-.8,3.09,3.09,0,0,1-.2-1.14,3,3,0,0,1,.17-1,2.43,2.43,0,0,1,.46-.8A2.1,2.1,0,0,1,122,96a2.18,2.18,0,0,1,.89-.18,2.71,2.71,0,0,1,.86.14A4.69,4.69,0,0,1,124.71,96.4Z" transform="translate(-97 -43.62)"/><path class="cls-3" d="M126.85,100.43V96.88h-1.2l.07-.85H127V93.64h.8v2.44h1.92v.84h-2v3l1.77-.33.12.79-2.34.5Z" transform="translate(-97 -43.62)"/><rect class="cls-6" x="45.5" y="45.38" width="75" height="18" rx="3"/><path class="cls-3" d="M149.21,97.46v3.94h-.86V93.92l.56-.52.54-.06.55,0a6.26,6.26,0,0,1,1.23.12,4,4,0,0,1,1.06.39,2.26,2.26,0,0,1,.76.67,1.73,1.73,0,0,1,.29,1,1.8,1.8,0,0,1-.69,1.5,2.21,2.21,0,0,1-.72.36,4.42,4.42,0,0,1-.82.17l1.85,3-.61.42-2.06-3.32-.55,0A1.61,1.61,0,0,1,149.21,97.46Zm0-.71a3.72,3.72,0,0,0,1.05.13,5.35,5.35,0,0,0,.79-.06,2.75,2.75,0,0,0,.72-.22,1.47,1.47,0,0,0,.52-.43,1.11,1.11,0,0,0,.2-.67,1.07,1.07,0,0,0-.18-.61,1.31,1.31,0,0,0-.48-.45,2.85,2.85,0,0,0-.73-.28,3.62,3.62,0,0,0-.89-.1l-.45,0-.46.07c0,.42-.06.85-.07,1.32S149.26,96.36,149.26,96.75Z" transform="translate(-97 -43.62)"/><path class="cls-3" d="M154.16,98.28a2.73,2.73,0,0,1,.19-1.09,2,2,0,0,1,.47-.7,1.65,1.65,0,0,1,.64-.37,2.08,2.08,0,0,1,.68-.12,2.47,2.47,0,0,1,.84.14,1.57,1.57,0,0,1,.64.44,2.08,2.08,0,0,1,.4.83,4.6,4.6,0,0,1,.15,1.27l-3.26.31a1.18,1.18,0,0,0,.55.93,1.68,1.68,0,0,0,.48.2,2.33,2.33,0,0,0,.53.06,3,3,0,0,0,.85-.13,1.5,1.5,0,0,0,.61-.32l.21.56a.91.91,0,0,1-.24.24,1.78,1.78,0,0,1-.39.2,2.44,2.44,0,0,1-.5.14,2.62,2.62,0,0,1-.57.06,3,3,0,0,1-.82-.13,1.94,1.94,0,0,1-.74-.44,2.18,2.18,0,0,1-.52-.81A3.35,3.35,0,0,1,154.16,98.28Zm.68,0,2.58-.28a1.36,1.36,0,0,0-.31-.92,1.24,1.24,0,0,0-1-.35,1.26,1.26,0,0,0-.57.15,1.3,1.3,0,0,0-.41.32,1.18,1.18,0,0,0-.24.44,1.42,1.42,0,0,0-.08.5A.53.53,0,0,0,154.84,98.3Z" transform="translate(-97 -43.62)"/><path class="cls-3" d="M163.11,97.22l.75,3.19-.7.26-.42-2a3.62,3.62,0,0,1-.26.68,2.94,2.94,0,0,1-.42.64,2.09,2.09,0,0,1-.6.46,1.66,1.66,0,0,1-.77.19,1.43,1.43,0,0,1-1.18-.5,2.12,2.12,0,0,1-.41-1.38,3.57,3.57,0,0,1,.16-1,3.42,3.42,0,0,1,.45-1,2.72,2.72,0,0,1,.77-.74,2,2,0,0,1,1.08-.29,1.19,1.19,0,0,1,.64.16,1.49,1.49,0,0,1,.47.39,2.1,2.1,0,0,1,.29.5A2.79,2.79,0,0,1,163.11,97.22Zm-1.43-.68-.16,0h-.16a1.1,1.1,0,0,0-.65.21,2,2,0,0,0-.48.55,2.94,2.94,0,0,0-.29.71,2.76,2.76,0,0,0-.1.72,1.48,1.48,0,0,0,.22.83.82.82,0,0,0,.71.32,1,1,0,0,0,.61-.22,2.29,2.29,0,0,0,.48-.54,3.21,3.21,0,0,0,.31-.73,2.81,2.81,0,0,0,.11-.73,1.4,1.4,0,0,0-.15-.66A.92.92,0,0,0,161.68,96.54Z" transform="translate(-97 -43.62)"/><path class="cls-3" d="M168.71,96.4l-.21.75a2.45,2.45,0,0,0-.73-.45,2,2,0,0,0-.76-.14,1.52,1.52,0,0,0-.6.11,1.29,1.29,0,0,0-.5.33,1.58,1.58,0,0,0-.33.55,2.18,2.18,0,0,0-.13.75,2.32,2.32,0,0,0,.14.85,1.55,1.55,0,0,0,.36.55,1.32,1.32,0,0,0,.51.3,2,2,0,0,0,.59.09,1.4,1.4,0,0,0,.53-.11,1.44,1.44,0,0,0,.48-.28,1.65,1.65,0,0,0,.35-.43,1.35,1.35,0,0,0,.16-.57l.66.33a2,2,0,0,1-.22.82,1.85,1.85,0,0,1-.49.58,2.06,2.06,0,0,1-.69.36,3,3,0,0,1-.79.11,2.55,2.55,0,0,1-.86-.15,2.29,2.29,0,0,1-.75-.48,2.43,2.43,0,0,1-.53-.8,3.09,3.09,0,0,1-.2-1.14,3,3,0,0,1,.17-1,2.43,2.43,0,0,1,.46-.8A2.1,2.1,0,0,1,166,96a2.18,2.18,0,0,1,.89-.18,2.71,2.71,0,0,1,.86.14A4.69,4.69,0,0,1,168.71,96.4Z" transform="translate(-97 -43.62)"/><path class="cls-3" d="M170.85,100.43V96.88h-1.2l.07-.85H171V93.64h.8v2.44h1.92v.84h-2v3l1.77-.33.12.79-2.34.5Z" transform="translate(-97 -43.62)"/><path class="cls-3" d="M183.43,97.48h-6.05l.05-.63h6Z" transform="translate(-97 -43.62)"/><path class="cls-3" d="M191.68,96.36V93.19h.68v7.48h-.51V97.06h-3.47v3.61h-1V93.22h1.1v3.14Z" transform="translate(-97 -43.62)"/><path class="cls-3" d="M195.62,95.77a2.13,2.13,0,0,1,1,.21,1.8,1.8,0,0,1,.67.58,2.59,2.59,0,0,1,.38.86,4.34,4.34,0,0,1,.11,1,3.21,3.21,0,0,1-.2,1.09,2.33,2.33,0,0,1-.47.77,2,2,0,0,1-1.43.6,1.88,1.88,0,0,1-1.58-.78,2.51,2.51,0,0,1-.4-.82,3.51,3.51,0,0,1-.13-1,3.42,3.42,0,0,1,.14-1,2.86,2.86,0,0,1,.41-.82,1.88,1.88,0,0,1,.65-.54A1.84,1.84,0,0,1,195.62,95.77Zm.07.8a1.28,1.28,0,0,0-1,.4,1.8,1.8,0,0,0-.37,1.27,2.65,2.65,0,0,0,.09.68,2,2,0,0,0,.27.6,1.61,1.61,0,0,0,.42.44,1,1,0,0,0,.55.17,1.17,1.17,0,0,0,.58-.15,1.36,1.36,0,0,0,.43-.4,1.92,1.92,0,0,0,.28-.53,2.05,2.05,0,0,0,.09-.58,2.33,2.33,0,0,0-.36-1.47A1.21,1.21,0,0,0,195.69,96.57Z" transform="translate(-97 -43.62)"/><path class="cls-3" d="M200.26,95.77a2.2,2.2,0,0,1,1,.21,1.85,1.85,0,0,1,.66.58,2.4,2.4,0,0,1,.38.86,4.32,4.32,0,0,1,.12,1,3.46,3.46,0,0,1-.21,1.09,2.33,2.33,0,0,1-.47.77,2,2,0,0,1-1.43.6,1.88,1.88,0,0,1-1.58-.78,2.51,2.51,0,0,1-.4-.82,3.51,3.51,0,0,1-.13-1,3.77,3.77,0,0,1,.14-1,2.86,2.86,0,0,1,.41-.82,1.88,1.88,0,0,1,.65-.54A1.84,1.84,0,0,1,200.26,95.77Zm.07.8a1.28,1.28,0,0,0-1,.4,1.8,1.8,0,0,0-.37,1.27,2.65,2.65,0,0,0,.09.68,2,2,0,0,0,.27.6,1.61,1.61,0,0,0,.42.44,1,1,0,0,0,.55.17,1.14,1.14,0,0,0,.58-.15,1.36,1.36,0,0,0,.43-.4,1.92,1.92,0,0,0,.28-.53,2.08,2.08,0,0,0,.1-.58A2.32,2.32,0,0,0,201.3,97,1.21,1.21,0,0,0,200.33,96.57Z" transform="translate(-97 -43.62)"/><path class="cls-3" d="M203.82,98.13l2.88-2.59.52.68-1.55,1.47,2.16,2.56-.47.65-2.3-2.63-1,.91v1.58l-.7.1V93.1l.42-.14Z" transform="translate(-97 -43.62)"/><path class="cls-3" d="M211.72,96.22l-.16.7a1.79,1.79,0,0,0-.26-.1,2.47,2.47,0,0,0-.35-.1l-.41-.08-.4,0a1.58,1.58,0,0,0-.61.11.39.39,0,0,0-.25.37.39.39,0,0,0,.21.34,1.79,1.79,0,0,0,.5.24,3.83,3.83,0,0,0,.58.16l.45.1a1.89,1.89,0,0,1,.57.27,1.94,1.94,0,0,1,.34.37,1.42,1.42,0,0,1,.17.4,2,2,0,0,1,0,.41,1.23,1.23,0,0,1-.19.71,1.57,1.57,0,0,1-.49.47,2.17,2.17,0,0,1-.67.26,3.08,3.08,0,0,1-.73.08,3.81,3.81,0,0,1-1.08-.15,2.15,2.15,0,0,1-.8-.41l.28-.8a2.22,2.22,0,0,0,.34.22,2.65,2.65,0,0,0,.42.18,2.61,2.61,0,0,0,.5.11,2.89,2.89,0,0,0,.5,0,1.65,1.65,0,0,0,.75-.16.74.74,0,0,0,.4-.57,1.76,1.76,0,0,0,0-.19.6.6,0,0,0-.08-.21.63.63,0,0,0-.2-.2.89.89,0,0,0-.38-.13,6.94,6.94,0,0,1-.89-.19,2.75,2.75,0,0,1-.69-.29,1.5,1.5,0,0,1-.47-.43,1,1,0,0,1-.17-.59,1.07,1.07,0,0,1,.44-.95,2.33,2.33,0,0,1,1.28-.29,4.12,4.12,0,0,1,.86.09A2.36,2.36,0,0,1,211.72,96.22Z" transform="translate(-97 -43.62)"/><rect class="cls-7" x="125.5" y="45.38" width="92" height="18" rx="3"/><path class="cls-3" d="M231.56,96.22l-.17.7a1.28,1.28,0,0,0-.25-.1l-.35-.1-.41-.08-.41,0a1.57,1.57,0,0,0-.6.11.37.37,0,0,0-.25.37.39.39,0,0,0,.21.34,1.79,1.79,0,0,0,.5.24,4,4,0,0,0,.57.16l.45.1a1.68,1.68,0,0,1,.57.27,1.45,1.45,0,0,1,.34.37,1.18,1.18,0,0,1,.17.4,2,2,0,0,1,0,.41,1.24,1.24,0,0,1-.2.71,1.47,1.47,0,0,1-.49.47,2.08,2.08,0,0,1-.67.26,3,3,0,0,1-.73.08,3.79,3.79,0,0,1-1.07-.15,2.07,2.07,0,0,1-.8-.41l.28-.8a1.72,1.72,0,0,0,.33.22,2.41,2.41,0,0,0,.43.18,2.68,2.68,0,0,0,.49.11,2.92,2.92,0,0,0,.51,0,1.65,1.65,0,0,0,.75-.16.73.73,0,0,0,.39-.57,1.42,1.42,0,0,0,0-.19.48.48,0,0,0-.09-.21.59.59,0,0,0-.19-.2.89.89,0,0,0-.39-.13,6.77,6.77,0,0,1-.88-.19,3,3,0,0,1-.7-.29,1.47,1.47,0,0,1-.46-.43,1,1,0,0,1-.17-.59,1.06,1.06,0,0,1,.43-.95,2.35,2.35,0,0,1,1.28-.29,4,4,0,0,1,.86.09A2.44,2.44,0,0,1,231.56,96.22Z" transform="translate(-97 -43.62)"/><path class="cls-3" d="M233.5,100.43V96.88h-1.19l.07-.85h1.29V93.64h.79v2.44h1.92v.84h-2v3l1.77-.33.12.79-2.35.5Z" transform="translate(-97 -43.62)"/><path class="cls-3" d="M238.75,100l-2-3.54.64-.5L239.07,99l1.13-3.36.66.35-2.3,6.75-.63-.4Z" transform="translate(-97 -43.62)"/><path class="cls-3" d="M241.56,100.06V93l.78,0v6.82l.77.19-.07.85-1.29-.26Z" transform="translate(-97 -43.62)"/><path class="cls-3" d="M243.86,98.28a2.73,2.73,0,0,1,.19-1.09,2,2,0,0,1,.47-.7,1.73,1.73,0,0,1,.64-.37,2.12,2.12,0,0,1,.68-.12,2.52,2.52,0,0,1,.85.14,1.47,1.47,0,0,1,.63.44,2.22,2.22,0,0,1,.41.83,5.07,5.07,0,0,1,.14,1.27l-3.26.31a1.18,1.18,0,0,0,.55.93,1.68,1.68,0,0,0,.48.2,2.33,2.33,0,0,0,.53.06,3,3,0,0,0,.85-.13,1.5,1.5,0,0,0,.61-.32l.22.56a1.16,1.16,0,0,1-.25.24,1.78,1.78,0,0,1-.39.2,2.27,2.27,0,0,1-.5.14,2.6,2.6,0,0,1-.56.06,2.87,2.87,0,0,1-.82-.13,1.87,1.87,0,0,1-.74-.44,2.08,2.08,0,0,1-.53-.81A3.56,3.56,0,0,1,243.86,98.28Zm.68,0,2.58-.28a1.31,1.31,0,0,0-.31-.92,1.24,1.24,0,0,0-1-.35,1.33,1.33,0,0,0-1,.47,1.36,1.36,0,0,0-.25.44,1.69,1.69,0,0,0-.08.5A.53.53,0,0,0,244.54,98.3Z" transform="translate(-97 -43.62)"/><path class="cls-3" d="M252.7,92.7v7.55l-.31.37a6.13,6.13,0,0,1-.72.17,5,5,0,0,1-.65,0,2.83,2.83,0,0,1-1.2-.22A2.16,2.16,0,0,1,249,100a2.33,2.33,0,0,1-.44-.8,3.14,3.14,0,0,1-.14-.91,2.72,2.72,0,0,1,.2-1.09,2.31,2.31,0,0,1,.53-.75,2,2,0,0,1,.72-.42,2.63,2.63,0,0,1,.83-.14,2.46,2.46,0,0,1,1.24.31l0-3.54Zm-.78,4.55a1.73,1.73,0,0,0-.58-.37,1.84,1.84,0,0,0-.65-.13,1.66,1.66,0,0,0-.54.1,1.31,1.31,0,0,0-.46.3,1.37,1.37,0,0,0-.33.48,1.71,1.71,0,0,0-.12.67,1.75,1.75,0,0,0,.15.76,1.42,1.42,0,0,0,.41.52,1.77,1.77,0,0,0,.58.3,2.69,2.69,0,0,0,.7.1,1.92,1.92,0,0,0,.84-.18Z" transform="translate(-97 -43.62)"/><path class="cls-3" d="M259.68,97.48h-6.05l.05-.63h6.05Z" transform="translate(-97 -43.62)"/><path class="cls-3" d="M264.46,96.4l-.21.75a2.4,2.4,0,0,0-.72-.45,2.13,2.13,0,0,0-.77-.14,1.52,1.52,0,0,0-.6.11,1.29,1.29,0,0,0-.5.33,1.58,1.58,0,0,0-.33.55,2.19,2.19,0,0,0-.12.75,2.34,2.34,0,0,0,.13.85,1.55,1.55,0,0,0,.36.55,1.32,1.32,0,0,0,.51.3,2,2,0,0,0,.59.09,1.4,1.4,0,0,0,.53-.11,1.44,1.44,0,0,0,.48-.28,1.65,1.65,0,0,0,.35-.43,1.35,1.35,0,0,0,.16-.57L265,99a2,2,0,0,1-.22.82,1.85,1.85,0,0,1-.49.58,2.06,2.06,0,0,1-.69.36,3,3,0,0,1-.79.11,2.55,2.55,0,0,1-.86-.15,2.29,2.29,0,0,1-.75-.48,2.43,2.43,0,0,1-.53-.8,3.1,3.1,0,0,1-.19-1.14,3,3,0,0,1,.16-1,2.43,2.43,0,0,1,.46-.8,2.1,2.1,0,0,1,.69-.52,2.18,2.18,0,0,1,.89-.18,2.71,2.71,0,0,1,.86.14A4.69,4.69,0,0,1,264.46,96.4Z" transform="translate(-97 -43.62)"/><path class="cls-3" d="M267.53,95.77a2.17,2.17,0,0,1,1,.21,1.88,1.88,0,0,1,.67.58,2.58,2.58,0,0,1,.37.86,4.32,4.32,0,0,1,.12,1,3.2,3.2,0,0,1-.21,1.09,2.18,2.18,0,0,1-.47.77,2,2,0,0,1-1.43.6,1.92,1.92,0,0,1-.92-.21,2,2,0,0,1-.66-.57,2.7,2.7,0,0,1-.39-.82,3.52,3.52,0,0,1-.14-1,3.42,3.42,0,0,1,.15-1,2.43,2.43,0,0,1,.41-.82,1.85,1.85,0,0,1,.64-.54A1.87,1.87,0,0,1,267.53,95.77Zm.07.8a1.3,1.3,0,0,0-1,.4,1.8,1.8,0,0,0-.37,1.27,2.65,2.65,0,0,0,.09.68,2.74,2.74,0,0,0,.27.6,1.51,1.51,0,0,0,.43.44.94.94,0,0,0,.55.17,1.1,1.1,0,0,0,.57-.15,1.27,1.27,0,0,0,.43-.4,1.92,1.92,0,0,0,.28-.53,1.77,1.77,0,0,0,.1-.58,2.26,2.26,0,0,0-.37-1.47A1.21,1.21,0,0,0,267.6,96.57Z" transform="translate(-97 -43.62)"/><path class="cls-3" d="M270.28,95.77l.72-.16.06.51h4.3l.54.61v3.66l-.49.07v-3.1l-.47-.63h-1.2v3.82h-.68V96.83h-1.92l.4,3.84-.75.09Z" transform="translate(-97 -43.62)"/><path class="cls-3" d="M281.06,97.9v.25a2.75,2.75,0,0,1-.2,1.11,2,2,0,0,1-.5.71,1.67,1.67,0,0,1-.66.37,2.53,2.53,0,0,1-.69.11,2.24,2.24,0,0,1-.7-.1,1.32,1.32,0,0,1-.49-.22l.1,2.62-.73.08V96.45l.07-.54a7.05,7.05,0,0,1,1.5-.2,2.32,2.32,0,0,1,1.67.55A2.27,2.27,0,0,1,281.06,97.9Zm-3.35-1.17,0,2.32a.27.27,0,0,0,.13.14,1.11,1.11,0,0,0,.29.16,3.14,3.14,0,0,0,.4.13,2.31,2.31,0,0,0,.46,0,1.41,1.41,0,0,0,.45-.07,1,1,0,0,0,.41-.27,1.41,1.41,0,0,0,.3-.5,2.23,2.23,0,0,0,.12-.79,1.47,1.47,0,0,0-.14-.64,1.33,1.33,0,0,0-.36-.45,1.61,1.61,0,0,0-.52-.27,2,2,0,0,0-.59-.09,1.93,1.93,0,0,0-.53.07A1.75,1.75,0,0,0,277.71,96.73Z" transform="translate(-97 -43.62)"/><path class="cls-3" d="M283.59,95.77a2.13,2.13,0,0,1,1,.21,1.8,1.8,0,0,1,.67.58,2.59,2.59,0,0,1,.38.86,4.34,4.34,0,0,1,.11,1,3.21,3.21,0,0,1-.2,1.09,2.2,2.2,0,0,1-.48.77,1.85,1.85,0,0,1-.66.45,2,2,0,0,1-.77.15,2,2,0,0,1-.92-.21,1.88,1.88,0,0,1-.65-.57,2.51,2.51,0,0,1-.4-.82,3.51,3.51,0,0,1-.13-1,3.42,3.42,0,0,1,.14-1,2.86,2.86,0,0,1,.41-.82,1.88,1.88,0,0,1,.65-.54A1.84,1.84,0,0,1,283.59,95.77Zm.07.8a1.32,1.32,0,0,0-1,.4,1.85,1.85,0,0,0-.36,1.27,2.65,2.65,0,0,0,.09.68,2,2,0,0,0,.27.6,1.61,1.61,0,0,0,.42.44,1,1,0,0,0,.55.17,1.17,1.17,0,0,0,.58-.15,1.36,1.36,0,0,0,.43-.4,1.66,1.66,0,0,0,.27-.53,1.77,1.77,0,0,0,.1-.58,2.33,2.33,0,0,0-.36-1.47A1.21,1.21,0,0,0,283.66,96.57Z" transform="translate(-97 -43.62)"/><path class="cls-3" d="M289.54,96.87h-2.27v3.75l-.59.07v-5l.56-.11v.58L290,96l.35.7.36,3.82-.75.21Z" transform="translate(-97 -43.62)"/><path class="cls-3" d="M291.3,98.28a2.73,2.73,0,0,1,.19-1.09,2,2,0,0,1,.47-.7,1.73,1.73,0,0,1,.64-.37,2.08,2.08,0,0,1,.68-.12,2.47,2.47,0,0,1,.84.14,1.5,1.5,0,0,1,.64.44,2.22,2.22,0,0,1,.41.83,5.07,5.07,0,0,1,.14,1.27l-3.26.31a1.18,1.18,0,0,0,.55.93,1.68,1.68,0,0,0,.48.2,2.33,2.33,0,0,0,.53.06,3,3,0,0,0,.85-.13,1.5,1.5,0,0,0,.61-.32l.21.56a.91.91,0,0,1-.24.24,1.78,1.78,0,0,1-.39.2,2.27,2.27,0,0,1-.5.14,2.62,2.62,0,0,1-.57.06,3,3,0,0,1-.82-.13,1.84,1.84,0,0,1-.73-.44,2.08,2.08,0,0,1-.53-.81A3.56,3.56,0,0,1,291.3,98.28Zm.68,0,2.58-.28a1.31,1.31,0,0,0-.31-.92,1.24,1.24,0,0,0-1-.35,1.26,1.26,0,0,0-.57.15,1.3,1.3,0,0,0-.41.32,1.34,1.34,0,0,0-.24.44,1.42,1.42,0,0,0-.08.5A.53.53,0,0,0,292,98.3Z" transform="translate(-97 -43.62)"/><path class="cls-3" d="M299.24,96.87H297v3.75l-.59.07v-5l.57-.11v.58l2.72-.16.35.7.35,3.82-.75.21Z" transform="translate(-97 -43.62)"/><path class="cls-3" d="M302,100.43V96.88h-1.19l.07-.85h1.29V93.64h.79v2.44h1.93v.84h-2v3l1.77-.33.12.79-2.35.5Z" transform="translate(-97 -43.62)"/><path class="cls-3" d="M308.71,96.22l-.16.7-.25-.1-.35-.1-.41-.08-.41,0a1.57,1.57,0,0,0-.6.11.37.37,0,0,0-.25.37.39.39,0,0,0,.21.34,1.72,1.72,0,0,0,.49.24,4.6,4.6,0,0,0,.58.16l.45.1a1.89,1.89,0,0,1,.57.27,1.66,1.66,0,0,1,.34.37,1.18,1.18,0,0,1,.17.4,2,2,0,0,1,0,.41,1.23,1.23,0,0,1-.19.71,1.57,1.57,0,0,1-.49.47,2.08,2.08,0,0,1-.67.26,3,3,0,0,1-.73.08,3.74,3.74,0,0,1-1.07-.15,2.2,2.2,0,0,1-.81-.41l.29-.8a1.72,1.72,0,0,0,.33.22,2.41,2.41,0,0,0,.43.18,2.5,2.5,0,0,0,.49.11,2.89,2.89,0,0,0,.5,0,1.65,1.65,0,0,0,.75-.16.74.74,0,0,0,.4-.57.72.72,0,0,0,0-.19.6.6,0,0,0-.08-.21.63.63,0,0,0-.2-.2.84.84,0,0,0-.38-.13,6.77,6.77,0,0,1-.88-.19,2.84,2.84,0,0,1-.7-.29,1.37,1.37,0,0,1-.46-.43,1,1,0,0,1-.17-.59,1.06,1.06,0,0,1,.43-.95,2.35,2.35,0,0,1,1.28-.29A4.12,4.12,0,0,1,308,96,2.25,2.25,0,0,1,308.71,96.22Z" transform="translate(-97 -43.62)"/><path class="cls-8" d="M98.37,122.35l0-.58c.15,0,.38,0,.66,0h1l.18-1.42.59.14-.17,1.29h1.69l.18-1.73.61.08-.17,1.64h.75l.63,0v.6l-.66,0-.79,0-.19,2h.89l.75,0V125l-.77,0-.94,0-.23,2.17-.6-.08.21-2.08h-1.79l-.28,2.13-.56,0v-.16l.26-2-.71,0-.55-.06,0-.6.53,0h.77l.25-2-.91,0A5.1,5.1,0,0,1,98.37,122.35Zm3.9.1-.43,0h-1.28l-.26,2h1.77Z" transform="translate(-97 -43.62)"/><path class="cls-8" d="M107.45,123a3.17,3.17,0,0,1,.09-.73,2.6,2.6,0,0,1,.3-.7,1.68,1.68,0,0,1,.54-.52,1.57,1.57,0,0,1,.81-.2,1.41,1.41,0,0,1,.77.21,2.11,2.11,0,0,1,.54.49h1.7v-1.19h.68v5.73h-.64v-1.94H110.7a2,2,0,0,1-.58.74,1.55,1.55,0,0,1-.93.28,1.47,1.47,0,0,1-.8-.21,1.68,1.68,0,0,1-.54-.52,2.28,2.28,0,0,1-.31-.69A3.33,3.33,0,0,1,107.45,123Zm.65,0a1.91,1.91,0,0,0,.09.61,1.54,1.54,0,0,0,.24.48,1.24,1.24,0,0,0,.34.31.87.87,0,0,0,.42.1,1,1,0,0,0,.78-.4,1.71,1.71,0,0,0,.31-1.1,2.64,2.64,0,0,0-.06-.55,1.63,1.63,0,0,0-.2-.49,1.06,1.06,0,0,0-.35-.35.94.94,0,0,0-.51-.13.85.85,0,0,0-.46.12,1,1,0,0,0-.34.33,1.78,1.78,0,0,0-.2.48A2.74,2.74,0,0,0,108.1,123Zm2.71-.78c0,.13.06.26.08.4a1.76,1.76,0,0,1,0,.38c0,.08,0,.17,0,.25a1.94,1.94,0,0,0,0,.24h1.34V122.2Zm3.09-2.09h.66v6.21h-.66Z" transform="translate(-97 -43.62)"/><path class="cls-8" d="M115.62,120.26h.66l.18,1.94h2l-.16-2H119l.34,4.7h-3l-.39-.13Zm3,4.07-.13-1.62h-2.06l.14,1.73Zm2.62,1.81v-6.68h.8v6.68Z" transform="translate(-97 -43.62)"/><path class="cls-8" d="M129.48,120.71l-1.46,5-.67-.13L128.7,121h-2.56l.06-.76h3Zm3.05-.72.66.24v6h-.66v-3.12h-1.11v3.06h-.71V120h.71v2.4h1.11Z" transform="translate(-97 -43.62)"/><path class="cls-8" d="M134.56,123.78l-.33-4.34.64-.07.18,1.75h1.66l-.14-1.75.65-.06.35,4.61-2.7.17Zm.65-.43h1.69l-.13-1.7-1.7.14Zm1.62,1.74v-.65h3.45l.18,2.21-3.42.24v1h4.43l0,.59h-4.92l-.33-.2.14-2h3.36v-1.17Zm2.57-5.78h.67v2h1.52V122h-1.54v1.94h-.68Z" transform="translate(-97 -43.62)"/><path class="cls-8" d="M145.91,121.69h-1.37v1.54l2,2.37-.39.48-2-2.14-1.56,2.26-.49-.51,1.7-2.44v-1.56h-1.56v-.62h3.63Zm2.09,5.64-.72,0v-7h.8v3h1.48v.63H148Z" transform="translate(-97 -43.62)"/><path class="cls-8" d="M157.39,124h-6.87l0-.55h6.81Zm-5.6.91h4.65v2.17H152.1v.86H157v.51h-5.23l-.33-.2v-1.79h4.31v-1h-4Zm.27-5.91H156v2.09h-3.73V122h4.12v.57h-4.32l-.47-.35v-1.7h3.77v-.92h-3.3Z" transform="translate(-97 -43.62)"/><path class="cls-8" d="M161.08,125.15v-.53h5.22v.45h-2.38v2.19h-.67v-2.11Zm3.89-3.09a2.08,2.08,0,0,1-.15.75,1.55,1.55,0,0,1-.38.55,1.69,1.69,0,0,1-.53.33,2,2,0,0,1-.64.11,1.63,1.63,0,0,1-.84-.19,1.53,1.53,0,0,1-.52-.45,1.47,1.47,0,0,1-.26-.57,2.27,2.27,0,0,1-.08-.53,2,2,0,0,1,.09-.53,1.71,1.71,0,0,1,.82-1,1.73,1.73,0,0,1,.83-.19,1.69,1.69,0,0,1,.68.14,1.61,1.61,0,0,1,.53.36,1.57,1.57,0,0,1,.33.56A2,2,0,0,1,165,122.06Zm-2.75,0v.07a1.08,1.08,0,0,0,.27.77,1,1,0,0,0,.78.29,1.07,1.07,0,0,0,.43-.09.94.94,0,0,0,.34-.25,1.13,1.13,0,0,0,.24-.36,1.07,1.07,0,0,0,.09-.43,1.14,1.14,0,0,0-.09-.46,1.25,1.25,0,0,0-.22-.37,1.08,1.08,0,0,0-.32-.24,1.06,1.06,0,0,0-.4-.08,1.07,1.07,0,0,0-.49.1,1.17,1.17,0,0,0-.35.27,1.07,1.07,0,0,0-.21.36A1.54,1.54,0,0,0,162.22,122.06Zm4.76,5v-7.17h.53V127Z" transform="translate(-97 -43.62)"/><path class="cls-8" d="M169.29,122.78a1.74,1.74,0,0,1,.11-.57,1.13,1.13,0,0,1,.34-.48l-1.1-.12.1-.6,2.09.21.12-1.33.64.06-.1,1.35,1.78.18-.06.62-1-.08a1.14,1.14,0,0,1,.21.46,2.34,2.34,0,0,1,.06.5,1.54,1.54,0,0,1-.17.61,1.77,1.77,0,0,1-.34.5,1.58,1.58,0,0,1-.48.33,1.4,1.4,0,0,1-.53.11,1.76,1.76,0,0,1-.89-.19,1.7,1.7,0,0,1-.52-.47,1.44,1.44,0,0,1-.23-.58A2.67,2.67,0,0,1,169.29,122.78Zm.62,0s0,0,0,.09a1,1,0,0,0,.07.34,1.5,1.5,0,0,0,.19.32,1.22,1.22,0,0,0,.3.24.91.91,0,0,0,.41.09,1,1,0,0,0,.43-.09,1,1,0,0,0,.31-.23.78.78,0,0,0,.19-.33,1.34,1.34,0,0,0,.07-.4.91.91,0,0,0-.28-.69,1,1,0,0,0-.71-.26.9.9,0,0,0-.67.26A1,1,0,0,0,169.91,122.78ZM171.2,128v-2.4h.68v2h3.36v.6h-3.77Zm2.93-7.87.66.08v2.26h1.57v.67h-1.57V126l-.7-.06Z" transform="translate(-97 -43.62)"/><path class="cls-8" d="M181.32,120h3.87v2.4h-3.52v1.37h3.91v.53h-2v1.89h3.06v.73h-6.83v-.81h3.14v-1.74h-1.46L181,124v-2.21h3.53v-1.17h-3.2Z" transform="translate(-97 -43.62)"/><path class="cls-8" d="M194.62,127h-6.8v-.64h6.8Zm-5.22-2.44-.41-.37v-3h4.3v.65h-3.67V124h3.87v.66Z" transform="translate(-97 -43.62)"/><path class="cls-8" d="M195.79,120.3H199v4h-2.88l-.31-.37Zm2.52.65h-1.87v2.62h1.83Zm-.6,4.57h.6v.82h3.59v-.84l.63,0v2.91h-4.41l-.41-.2Zm4.25,2.26v-.93h-3.65v1Zm0-8h.67v5H202v-2.38h-1.11v2.13h-.7v-4.78h.7v2H202Z" transform="translate(-97 -43.62)"/><path class="cls-8" d="M208.54,124.23v1.23h-.64v-1.23h-1.76v-.57h4v.51Zm1.06-2.79a1.67,1.67,0,0,1-.12.65,1.59,1.59,0,0,1-.32.5,1.54,1.54,0,0,1-.47.33,1.3,1.3,0,0,1-.55.12,1.71,1.71,0,0,1-.76-.16,1.55,1.55,0,0,1-.5-.4,1.36,1.36,0,0,1-.25-.53,2,2,0,0,1-.08-.51,2.06,2.06,0,0,1,.08-.52,1.59,1.59,0,0,1,.26-.52,1.62,1.62,0,0,1,.48-.42,1.49,1.49,0,0,1,.73-.16,1.36,1.36,0,0,1,.56.11,1.63,1.63,0,0,1,.49.33,1.5,1.5,0,0,1,.33.51A1.81,1.81,0,0,1,209.6,121.44Zm-2.44,0a1.1,1.1,0,0,0,.23.69.87.87,0,0,0,.73.3.85.85,0,0,0,.35-.08,1,1,0,0,0,.28-.22,1,1,0,0,0,.2-.32,1.15,1.15,0,0,0,.06-.37,1.09,1.09,0,0,0-.07-.4,1.27,1.27,0,0,0-.2-.34,1,1,0,0,0-.3-.23.74.74,0,0,0-.36-.09.84.84,0,0,0-.4.09,1.16,1.16,0,0,0-.29.25,1,1,0,0,0-.17.34A1.26,1.26,0,0,0,207.16,121.44Zm1.25,4.27h.6v.73h3.6v-.75l.62,0v2.71h-4.41l-.41-.2Zm4.26,2.07v-.84H209v.9Zm-.63-2.69h-.68v-3.34H210v-.63h1.27v-1.48H212Zm.72-5.49h.67v5.53h-.67Z" transform="translate(-97 -43.62)"/><path class="cls-8" d="M217,126l-.47-.47,1.68-2.42.14-2.13H219v2.11l1.88,2.34-.35.47-2-2.15Zm5.53,1.34-.72,0v-7h.8v3h1.48v.63h-1.56Z" transform="translate(-97 -43.62)"/><path class="cls-8" d="M225.11,122.75a4,4,0,0,1,.08-.74,2.64,2.64,0,0,1,.28-.74,1.76,1.76,0,0,1,.55-.57,1.5,1.5,0,0,1,.86-.22,1.46,1.46,0,0,1,.84.22,1.79,1.79,0,0,1,.56.57,2.16,2.16,0,0,1,.29.74,3.13,3.13,0,0,1,0,1.49,2,2,0,0,1-.29.73,1.84,1.84,0,0,1-.56.55,1.54,1.54,0,0,1-.84.21,1.59,1.59,0,0,1-.84-.21,1.92,1.92,0,0,1-.55-.55,2,2,0,0,1-.29-.73A3.33,3.33,0,0,1,225.11,122.75Zm.64,0a3.37,3.37,0,0,0,.05.52,1.58,1.58,0,0,0,.18.53,1.23,1.23,0,0,0,.34.41,1,1,0,0,0,.56.16,1,1,0,0,0,.56-.16,1.39,1.39,0,0,0,.35-.41,1.58,1.58,0,0,0,.18-.53,3.37,3.37,0,0,0,.05-.52,2.53,2.53,0,0,0-.06-.53,1.58,1.58,0,0,0-.18-.53,1.1,1.1,0,0,0-.34-.4.91.91,0,0,0-.56-.17.94.94,0,0,0-.57.17,1.1,1.1,0,0,0-.34.4,1.57,1.57,0,0,0-.17.53A3.38,3.38,0,0,0,225.75,122.75Zm4.79,3.39v-6.68h.8v6.68Z" transform="translate(-97 -43.62)"/><path class="cls-8" d="M239.93,127h-6.8v-.64h6.8Zm-1.15-2.81v.64h-4.12l-.37-.48v-3.6h4v.51h-3.32v1.11h3.52V123h-3.52v1.17Z" transform="translate(-97 -43.62)"/><path class="cls-8" d="M98.45,137.76l0-.59a5.31,5.31,0,0,0,.67,0h1l.19-1.41.59.13-.17,1.29h1.69l.18-1.73.6.08-.17,1.64h.75a5.78,5.78,0,0,0,.63,0v.61l-.65,0-.79,0-.2,2h.89l.75,0v.63l-.76,0c-.3,0-.62,0-1,0l-.22,2.17-.61-.08.22-2.08-.64,0H100.3L100,142.6l-.57,0v-.15l.26-2c-.26,0-.49,0-.71,0l-.55-.05,0-.61.53,0h.77l.26-1.95c-.34,0-.64,0-.91,0A5.49,5.49,0,0,1,98.45,137.76Zm3.9.1-.43,0h-1.28l-.25,1.94h1.77Z" transform="translate(-97 -43.62)"/><path class="cls-8" d="M114.67,142.45h-6.8v-.65h6.8Zm-.67-2.58.06.6h-5.41v-.78h.8l.27-2.77-.91-.08.07-.64h4.87v.89H113v2.72ZM110.41,137l-.24,2.85h2V137Z" transform="translate(-97 -43.62)"/><path class="cls-8" d="M117.28,134.58h4.08v2.34h-3.67V138h4.07v.57h-2l.08,1.11h2.89v.69h-6.83v-.75h3.24l-.07-1h-1.63l-.47-.41v-1.88h3.75v-1.17H117.3Zm.3,8.94-.28-.33-.17-2.21h.62v1.88l4.44.09v.48s0,.07,0,.09v.06Z" transform="translate(-97 -43.62)"/><path class="cls-8" d="M130.76,142.45H124v-.65h6.8Zm-1.15-2.82v.65h-4.12l-.38-.49V136.2h4v.5h-3.32v1.12h3.51v.56h-3.51v1.18Z" transform="translate(-97 -43.62)"/><path class="cls-8" d="M131.77,137.7c0-.06,0-.15,0-.28a2.45,2.45,0,0,1,.09-.42,3.36,3.36,0,0,1,.17-.47,1.9,1.9,0,0,1,.31-.45,1.4,1.4,0,0,1,.46-.32,1.45,1.45,0,0,1,.65-.13,1.51,1.51,0,0,1,1.19.54,1.75,1.75,0,0,1,.3.48,2.7,2.7,0,0,1,.16.48l1.44,0v-1.62h.64V141h-.62v-3.24l-1.39,0a3.75,3.75,0,0,1-.09.54,2.45,2.45,0,0,1-.26.66,1.72,1.72,0,0,1-.51.57,1.41,1.41,0,0,1-.86.24,1.45,1.45,0,0,1-.87-.24,1.71,1.71,0,0,1-.52-.59,2.21,2.21,0,0,1-.24-.68A3.88,3.88,0,0,1,131.77,137.7Zm.63,0a2.68,2.68,0,0,0,0,.46,2,2,0,0,0,.18.48,1.2,1.2,0,0,0,.34.37.75.75,0,0,0,.5.16A.85.85,0,0,0,134,139a1.2,1.2,0,0,0,.34-.37,1.5,1.5,0,0,0,.19-.47,1.95,1.95,0,0,0,0-1,1.46,1.46,0,0,0-.19-.48,1,1,0,0,0-.35-.36.89.89,0,0,0-.53-.14.73.73,0,0,0-.46.15,1.31,1.31,0,0,0-.33.37,2.53,2.53,0,0,0-.19.48A2,2,0,0,0,132.4,137.7Zm1.43,5.53v-2.6h.68v2.25H139v.6H134.1Zm4.29-7.83h.67V141h-.67Z" transform="translate(-97 -43.62)"/><path class="cls-8" d="M146.85,142.45h-6.79v-.65h6.79ZM141.64,140l-.41-.37v-3h4.29v.64h-3.67v2.13h3.87V140Z" transform="translate(-97 -43.62)"/><path class="cls-8" d="M151,139.42l-.45-.35v-3.46H154v.66h-2.77v2.5h3v.67Zm-.07,1.46h6.73v3h-6.34l-.3-.27Zm.76.67v1.72H157v-1.72Zm3.92-6.53h.67v2.09h1.52v.67h-1.52v2.44h-.71Z" transform="translate(-97 -43.62)"/><path class="cls-8" d="M159,139.42l-.45-.35v-3.46H162v.66h-2.77v2.5h3v.67Zm1.47,2.81a1.38,1.38,0,0,1,.12-.56,1.24,1.24,0,0,1,.37-.46,1.85,1.85,0,0,1,.61-.31,3.3,3.3,0,0,1,1.69,0,1.8,1.8,0,0,1,.62.31,1.34,1.34,0,0,1,.37.46,1.38,1.38,0,0,1,.12.56,1.4,1.4,0,0,1-.12.58,1.34,1.34,0,0,1-.37.46,1.8,1.8,0,0,1-.62.31,3,3,0,0,1-1.69,0,1.85,1.85,0,0,1-.61-.31,1.24,1.24,0,0,1-.37-.46A1.4,1.4,0,0,1,160.49,142.23Zm3.22,0a.73.73,0,0,0-.34-.61,1.87,1.87,0,0,0-1.87,0,.75.75,0,0,0-.33.61.77.77,0,0,0,.33.63,1.87,1.87,0,0,0,1.87,0A.75.75,0,0,0,163.71,142.23Zm-.08-7.21h.66v2.09h1.53v.67h-1.53v2.44h-.7Z" transform="translate(-97 -43.62)"/><path class="cls-8" d="M167.42,140.36l.8.78L167,143.05l-.49-.37.86-1.37-.43-.47Z" transform="translate(-97 -43.62)"/><path class="cls-8" d="M175.23,135.61v.63h-1.35v1l1.94,2-.39.51L173.55,138,172,140l-.49-.51,1.66-2.15v-1H171.6v-.65Zm2.74,8.16h-.71v-2.2h-4.8v-.65h5.15l.36.41ZM176.81,135h.67v2.09H179v.67h-1.52v2.44h-.71Z" transform="translate(-97 -43.62)"/><path class="cls-8" d="M179.84,137.8a2.55,2.55,0,0,1,.1-.74,1.65,1.65,0,0,1,.31-.62,1.55,1.55,0,0,1,.55-.42,1.93,1.93,0,0,1,.8-.16,1.72,1.72,0,0,1,.63.13,1.66,1.66,0,0,1,.46.3,2,2,0,0,1,.31.41,3.26,3.26,0,0,1,.2.43l2.29,0v-2h.66v5.12h-.63v-2.46h-2.2v0a2.92,2.92,0,0,1-.08.6,1.72,1.72,0,0,1-.26.63,1.62,1.62,0,0,1-.53.51,1.6,1.6,0,0,1-.87.21,1.73,1.73,0,0,1-.83-.18,1.64,1.64,0,0,1-.53-.48,1.81,1.81,0,0,1-.29-.63A2.61,2.61,0,0,1,179.84,137.8Zm.63,0a1.82,1.82,0,0,0,.08.55,1.09,1.09,0,0,0,.25.4,1.14,1.14,0,0,0,.35.27,1.3,1.3,0,0,0,.43.11,1,1,0,0,0,.79-.38,1.65,1.65,0,0,0,.3-1,1.33,1.33,0,0,0-.07-.45,1.26,1.26,0,0,0-.23-.39,1.11,1.11,0,0,0-.79-.4.94.94,0,0,0-.45.11,1.12,1.12,0,0,0-.35.3,1.36,1.36,0,0,0-.23.41A1.75,1.75,0,0,0,180.47,137.8Zm1.05,3.12h.61v.84h3.59v-.86l.63,0v2.91h-4.42l-.41-.19Zm4.26,2.27v-.92h-3.65v1Z" transform="translate(-97 -43.62)"/><path class="cls-8" d="M194.1,136.37l-1.47,5-.66-.14,1.35-4.62h-2.76l.06-.77h3.17Zm1.85,5.18v-6.68h.81v6.68Z" transform="translate(-97 -43.62)"/><path class="cls-8" d="M198.4,138.87a3.19,3.19,0,0,1,.08-.73,2.4,2.4,0,0,1,.28-.73,1.92,1.92,0,0,1,.54-.56,1.56,1.56,0,0,1,.87-.22,1.47,1.47,0,0,1,.86.23,1.83,1.83,0,0,1,.55.56l2.89,0v-1.53h.61v6.66h-.53V140.1l-2.84,0a2,2,0,0,1-.57.72,1.5,1.5,0,0,1-1,.3,1.51,1.51,0,0,1-.85-.22,1.64,1.64,0,0,1-.54-.54,2.29,2.29,0,0,1-.3-.72A4,4,0,0,1,198.4,138.87Zm.64,0a3.38,3.38,0,0,0,.05.53,1.66,1.66,0,0,0,.18.53,1.19,1.19,0,0,0,.34.4.93.93,0,0,0,.56.16.89.89,0,0,0,.56-.16,1.12,1.12,0,0,0,.35-.4,2,2,0,0,0,.18-.53,3.38,3.38,0,0,0,.05-.53,2.61,2.61,0,0,0-.06-.53,1.61,1.61,0,0,0-.18-.52,1.14,1.14,0,0,0-.34-.41.93.93,0,0,0-.56-.16.94.94,0,0,0-.57.16,1.14,1.14,0,0,0-.34.41,1.61,1.61,0,0,0-.18.52C199.06,138.53,199,138.71,199,138.87Zm2.8-.84a3.67,3.67,0,0,1,.09.43c0,.15,0,.28,0,.41s0,.2,0,.3,0,.19,0,.29l2.59,0v-1.39Z" transform="translate(-97 -43.62)"/><path class="cls-8" d="M208.18,139.33l-.41-.38v-3h4.3v.65H208.4v2.13h3.86v.66h-1.88v2h3.06v.7H206.6v-.76h3.14v-2Z" transform="translate(-97 -43.62)"/><path class="cls-8" d="M219.41,138.93a2.83,2.83,0,0,1,.7.21,2.33,2.33,0,0,1,.59.36,2,2,0,0,1,.4.51,1.32,1.32,0,0,1,.15.62,1.49,1.49,0,0,1-.2.79,1.61,1.61,0,0,1-.52.52,2.34,2.34,0,0,1-.71.28,3.63,3.63,0,0,1-.8.09,5,5,0,0,1-.76-.06,2.32,2.32,0,0,1-.7-.24,1.4,1.4,0,0,1-.52-.48,1.36,1.36,0,0,1-.21-.79,1.47,1.47,0,0,1,.14-.64,2,2,0,0,1,.35-.51,2.29,2.29,0,0,1,.49-.38,2.79,2.79,0,0,1,.53-.24,1.72,1.72,0,0,1-.52-.23,2.56,2.56,0,0,1-.42-.39,1.94,1.94,0,0,1-.28-.48,1.25,1.25,0,0,1-.11-.52,1.39,1.39,0,0,1,.13-.63,1.52,1.52,0,0,1,.35-.47,1.58,1.58,0,0,1,.52-.3,1.88,1.88,0,0,1,.62-.11,2.94,2.94,0,0,1,.74.09,1.76,1.76,0,0,1,.62.28,1.52,1.52,0,0,1,.43.48,1.34,1.34,0,0,1,.16.68,1.25,1.25,0,0,1-.13.59,2,2,0,0,1-.32.47,1.85,1.85,0,0,1-.38.32A1.42,1.42,0,0,1,219.41,138.93Zm1.19,1.6a.8.8,0,0,0-.19-.41,2.41,2.41,0,0,0-1-.66,1.55,1.55,0,0,0-.54-.1,1.05,1.05,0,0,0-.46.12,2.11,2.11,0,0,0-.48.32,1.55,1.55,0,0,0-.36.45,1,1,0,0,0-.15.53.9.9,0,0,0,.07.37.74.74,0,0,0,.26.3,1.59,1.59,0,0,0,.47.19,3.92,3.92,0,0,0,.75.06,2.24,2.24,0,0,0,1.18-.31.89.89,0,0,0,.42-.78Zm-1.81-4.1a1.69,1.69,0,0,0-.55.1,1.21,1.21,0,0,0-.37.22.8.8,0,0,0-.2.29.92.92,0,0,0-.07.32.82.82,0,0,0,.16.45,2.57,2.57,0,0,0,.35.39,3.13,3.13,0,0,0,.41.29,1.44,1.44,0,0,0,.33.15,2.49,2.49,0,0,0,.43-.22,1.72,1.72,0,0,0,.37-.28,1.35,1.35,0,0,0,.26-.33.94.94,0,0,0,.1-.39.92.92,0,0,0-.3-.72,1.18,1.18,0,0,0-.83-.27Z" transform="translate(-97 -43.62)"/><path class="cls-8" d="M221.66,139.09a4.49,4.49,0,0,1,0-.62,3.92,3.92,0,0,1,.15-.66,3.42,3.42,0,0,1,.27-.62,2.11,2.11,0,0,1,.4-.53,1.87,1.87,0,0,1,.57-.37,2,2,0,0,1,.76-.13,1.8,1.8,0,0,1,1.05.29,2.28,2.28,0,0,1,.69.73,3.54,3.54,0,0,1,.37.95,4.88,4.88,0,0,1,.11,1,3.9,3.9,0,0,1-.11.92,3,3,0,0,1-.36.93,2.07,2.07,0,0,1-.68.7,1.92,1.92,0,0,1-1.07.28,2,2,0,0,1-1.07-.28,2.27,2.27,0,0,1-.67-.71,3.3,3.3,0,0,1-.35-.92A4.45,4.45,0,0,1,221.66,139.09Zm.62,0a3.66,3.66,0,0,0,.08.69,2.7,2.7,0,0,0,.26.72,1.73,1.73,0,0,0,.48.56,1.16,1.16,0,0,0,.75.23,1.18,1.18,0,0,0,.75-.23,1.64,1.64,0,0,0,.49-.56,2.7,2.7,0,0,0,.26-.72,3.66,3.66,0,0,0,.08-.69,3.39,3.39,0,0,0-.09-.74,2.51,2.51,0,0,0-.28-.72,1.67,1.67,0,0,0-.49-.56,1.17,1.17,0,0,0-.72-.23,1.22,1.22,0,0,0-.75.23,1.54,1.54,0,0,0-.48.56,2.54,2.54,0,0,0-.26.73A4,4,0,0,0,222.28,139.09Z" transform="translate(-97 -43.62)"/><path class="cls-8" d="M228.4,137.76l-.63.72-.72-.84.55-.68Zm-1.14,4.53.06,0,3.44-5.82.55.37-3.54,5.86Zm4.32-1.15-.53.72-.82-.84.55-.68Z" transform="translate(-97 -43.62)"/><path class="cls-8" d="M98.45,152.76l0-.59a5.31,5.31,0,0,0,.67,0h1l.19-1.41.59.13-.17,1.29h1.69l.18-1.73.6.08-.17,1.64h.75a5.78,5.78,0,0,0,.63,0v.61l-.65,0-.79,0-.2,2h.89l.75,0v.63l-.76,0c-.3,0-.62,0-1,0l-.22,2.17-.61-.08.22-2.08-.64,0H100.3L100,157.6l-.57,0v-.15l.26-2c-.26,0-.49,0-.71,0l-.55-.05,0-.61.53,0h.77l.26-1.95c-.34,0-.64,0-.91,0A5.49,5.49,0,0,1,98.45,152.76Zm3.9.1-.43,0h-1.28l-.25,1.94h1.77Z" transform="translate(-97 -43.62)"/><path class="cls-8" d="M111.11,155.63h-3.26v-.7h6.87v.74h-2.93v2.4h-.68Zm-2.25-2.17,2.08-1.76v-1.15H109V150h4.43v.58h-1.77v1.19l1.95,1.66-.39.49-1.95-1.56L109.35,154Z" transform="translate(-97 -43.62)"/><path class="cls-8" d="M117.22,152.7s0,0,0-.08v-.08a1.65,1.65,0,0,1,.14-.68,1.31,1.31,0,0,1,.4-.53,1.72,1.72,0,0,1,.61-.34,2.24,2.24,0,0,1,.8-.13,2.88,2.88,0,0,1,1,.15,1.9,1.9,0,0,1,.69.38,1.42,1.42,0,0,1,.4.55,1.69,1.69,0,0,1,.13.66,1.52,1.52,0,0,1-.19.79,1.71,1.71,0,0,1-.51.56l.06,2.47h2v.67h-6.83v-.76h2.2l-.06-2.35a1.81,1.81,0,0,1-.57-.5A1.4,1.4,0,0,1,117.22,152.7Zm2.07-1.23a1.81,1.81,0,0,0-.52.07,1.17,1.17,0,0,0-.45.21,1,1,0,0,0-.3.35,1.21,1.21,0,0,0-.11.52.89.89,0,0,0,.12.47,1,1,0,0,0,.34.32,1.46,1.46,0,0,0,.48.19,2.67,2.67,0,0,0,.56.06,1.42,1.42,0,0,0,.57-.1,1.22,1.22,0,0,0,.4-.24,1,1,0,0,0,.23-.35,1,1,0,0,0,.08-.41.9.9,0,0,0-.38-.79A1.72,1.72,0,0,0,119.29,151.47Zm.7,2.77a2.61,2.61,0,0,1-.6.08,2.83,2.83,0,0,1-.63-.07l0,2.14H120Z" transform="translate(-97 -43.62)"/><path class="cls-8" d="M129.86,150.61v.63h-1.35v1l1.94,2-.39.51L128.18,153l-1.56,2-.49-.51,1.66-2.15v-1h-1.56v-.65Zm2.74,8.16h-.71v-2.2h-4.8v-.65h5.15l.36.41ZM131.44,150h.67v2.09h1.52v.67h-1.52v2.44h-.71Z" transform="translate(-97 -43.62)"/><path class="cls-8" d="M134.47,152.8a2.55,2.55,0,0,1,.1-.74,1.65,1.65,0,0,1,.31-.62,1.55,1.55,0,0,1,.55-.42,1.93,1.93,0,0,1,.8-.16,1.72,1.72,0,0,1,.63.13,1.66,1.66,0,0,1,.46.3,2,2,0,0,1,.31.41,3.26,3.26,0,0,1,.2.43l2.28,0v-2h.67v5.12h-.63v-2.46H138v0a2.92,2.92,0,0,1-.08.6,1.91,1.91,0,0,1-.26.63,1.62,1.62,0,0,1-.53.51,1.6,1.6,0,0,1-.87.21,1.73,1.73,0,0,1-.83-.18,1.64,1.64,0,0,1-.53-.48,1.81,1.81,0,0,1-.29-.63A2.61,2.61,0,0,1,134.47,152.8Zm.63,0a1.55,1.55,0,0,0,.08.55,1.09,1.09,0,0,0,.25.4,1.14,1.14,0,0,0,.35.27,1.3,1.3,0,0,0,.43.11,1,1,0,0,0,.79-.38,1.65,1.65,0,0,0,.3-1,1.12,1.12,0,0,0-.08-.45,1.07,1.07,0,0,0-.22-.39,1.11,1.11,0,0,0-.79-.4,1,1,0,0,0-.46.11,1.21,1.21,0,0,0-.34.3,1.36,1.36,0,0,0-.23.41A1.75,1.75,0,0,0,135.1,152.8Zm1.05,3.12h.61v.84h3.59v-.86l.62,0v2.91h-4.41l-.41-.19Zm4.26,2.27v-.92h-3.65v1Z" transform="translate(-97 -43.62)"/><path class="cls-8" d="M148.61,154.18v.65h-3.53l-.3-.43v-4.06h.65v3.75Zm2.64-4.18h.66v6.61h-.66v-3.87h-1.12v3.81h-.7V150h.7v2.06h1.12Z" transform="translate(-97 -43.62)"/><path class="cls-8" d="M153.1,152.8a2.94,2.94,0,0,1,.1-.74,1.81,1.81,0,0,1,.31-.62,1.65,1.65,0,0,1,.55-.42,1.93,1.93,0,0,1,.8-.16,1.41,1.41,0,0,1,.79.21,2.06,2.06,0,0,1,.53.48l2.57,0V150.1h.66v5.12h-.62v-1.29l-2.49,0a1.75,1.75,0,0,1-.55.57,1.63,1.63,0,0,1-.91.23,1.73,1.73,0,0,1-.83-.18,1.64,1.64,0,0,1-.53-.48,2,2,0,0,1-.29-.63A2.61,2.61,0,0,1,153.1,152.8Zm.63,0a1.55,1.55,0,0,0,.09.55,1.19,1.19,0,0,0,.6.67,1.19,1.19,0,0,0,.42.11,1,1,0,0,0,.79-.38,1.65,1.65,0,0,0,.31-1,1.33,1.33,0,0,0-.08-.45,1.26,1.26,0,0,0-.23-.39,1.13,1.13,0,0,0-.34-.28,1.16,1.16,0,0,0-.45-.12.94.94,0,0,0-.45.11,1.12,1.12,0,0,0-.35.3,1.16,1.16,0,0,0-.22.41A1.48,1.48,0,0,0,153.73,152.8Zm6,6H159v-2.2h-4.8v-.65h5.15l.35.41Zm-3.22-6.58c0,.12.06.23.08.33s0,.2,0,.28a1.93,1.93,0,0,1,0,.24c0,.09,0,.17,0,.27l2.23,0v-1.12Z" transform="translate(-97 -43.62)"/><path class="cls-8" d="M168.53,154.42h-5l0-.53h5Z" transform="translate(-97 -43.62)"/><path class="cls-8" d="M178.65,157.25h-6.41v-.64h6.41Zm-1.29-1.56h-.66v-3.58h-3.81l.08-.82h4l.41.59Z" transform="translate(-97 -43.62)"/><path class="cls-8" d="M180.35,151.55v-.61h3.24l.2,2.42-2.95.34v1.54h3.4l0,.6h-3.82l-.37-.19v-2.56l3-.29-.09-1.23Zm5.19,5v-6.68h.81v6.68Z" transform="translate(-97 -43.62)"/><path class="cls-8" d="M194.94,157.45h-6.8v-.65h6.8ZM189.72,155l-.41-.37v-3h4.3v.64h-3.67v2.13h3.87V155Z" transform="translate(-97 -43.62)"/><path class="cls-8" d="M203,154.38h-6.87l0-.55H203Zm-5.6.92h4.65v2.17h-4.34v.86h4.92v.5h-5.23l-.33-.19v-1.8h4.31v-1h-4Zm.27-5.92h3.95v2.09h-3.73v.92H202V153h-4.32l-.47-.35v-1.7H201V150h-3.3Z" transform="translate(-97 -43.62)"/><path class="cls-8" d="M207.44,151.68a1.38,1.38,0,0,1,.11-.5,1,1,0,0,1,.34-.47l-.8-.1.08-.55,1.69.2.14-1.06.65.1-.12,1.06,1.44.15,0,.53-.75-.08a1.73,1.73,0,0,1,.16.37,1.51,1.51,0,0,1-.25,1.34,1.31,1.31,0,0,1-.83.47l0,1h1.8v.66h-4.26v-.7h1.8l0-1a1.55,1.55,0,0,1-.63-.21,1.4,1.4,0,0,1-.36-.37,1.31,1.31,0,0,1-.16-.43A3.22,3.22,0,0,1,207.44,151.68Zm.82,4.2v-.6h4.24l.17,1.93h-4.23v1.1h5.41l0,.58H208l-.33-.19.14-1.84H212v-1Zm-.2-4.2v.07a.85.85,0,0,0,.22.58.82.82,0,0,0,.64.23.83.83,0,0,0,.69-.27,1,1,0,0,0,.21-.67.71.71,0,0,0-.26-.6,1,1,0,0,0-.63-.2.91.91,0,0,0-.59.21A.88.88,0,0,0,208.06,151.68Zm3.75,3.07v-4.67h.63v2h1.39v.64h-1.37v2.07Z" transform="translate(-97 -43.62)"/><path class="cls-8" d="M216.29,151.86a1.44,1.44,0,0,1,.15-.67,1.53,1.53,0,0,1,.41-.5,1.81,1.81,0,0,1,.61-.29,2.55,2.55,0,0,1,.74-.1,2.33,2.33,0,0,1,.76.12,1.88,1.88,0,0,1,.61.33,1.61,1.61,0,0,1,.4.5,1.25,1.25,0,0,1,.14.61,1.39,1.39,0,0,1-.14.66,1.28,1.28,0,0,1-.37.45l.08,1.66h2v.65h-6.84v-.74h2.07V153h0a1.46,1.46,0,0,1-.41-.48A1.51,1.51,0,0,1,216.29,151.86Zm.13,5.47a1.21,1.21,0,0,1,.13-.56,1.24,1.24,0,0,1,.37-.46,1.75,1.75,0,0,1,.61-.31,3,3,0,0,1,1.69,0,1.8,1.8,0,0,1,.62.31,1.26,1.26,0,0,1,.49,1,1.4,1.4,0,0,1-.12.58,1.34,1.34,0,0,1-.37.46,1.8,1.8,0,0,1-.62.31,3.3,3.3,0,0,1-1.69,0,1.75,1.75,0,0,1-.61-.31,1.24,1.24,0,0,1-.37-.46A1.27,1.27,0,0,1,216.42,157.33Zm3.07-5.47a.76.76,0,0,0-.09-.35,1.07,1.07,0,0,0-.25-.32,1.09,1.09,0,0,0-.38-.22,1.26,1.26,0,0,0-.49-.09,1.82,1.82,0,0,0-.61.09,1.24,1.24,0,0,0-.43.22,1,1,0,0,0-.25.3.8.8,0,0,0-.08.33.87.87,0,0,0,.11.44.83.83,0,0,0,.29.3,1.33,1.33,0,0,0,.42.18,2.1,2.1,0,0,0,.51.06,1.85,1.85,0,0,0,.47-.08,1.64,1.64,0,0,0,.4-.19,1,1,0,0,0,.28-.29A.72.72,0,0,0,219.49,151.86Zm.16,5.47a.75.75,0,0,0-.34-.61,1.89,1.89,0,0,0-1.88,0,.75.75,0,0,0,0,1.23,1.83,1.83,0,0,0,1.88,0A.75.75,0,0,0,219.65,157.33Zm-.7-4a2,2,0,0,1-.37.07,2.48,2.48,0,0,1-.38,0,2.17,2.17,0,0,1-.36,0,1.4,1.4,0,0,1-.32-.06l.06,1.27H219Z" transform="translate(-97 -43.62)"/><path class="cls-8" d="M223,153.19a1.8,1.8,0,0,1,.11-.58,1.13,1.13,0,0,1,.34-.48l-1.1-.11.1-.61,2.09.22.12-1.33.64.06-.1,1.34,1.78.18-.06.62-1-.07a1,1,0,0,1,.21.46,2.25,2.25,0,0,1,.06.49,1.78,1.78,0,0,1-.17.62,1.72,1.72,0,0,1-.34.49,1.58,1.58,0,0,1-.48.33,1.24,1.24,0,0,1-.53.12,1.73,1.73,0,0,1-.89-.2,1.49,1.49,0,0,1-.52-.47,1.58,1.58,0,0,1-.24-.57A3.76,3.76,0,0,1,223,153.19Zm.62,0a.22.22,0,0,0,0,.09.78.78,0,0,0,.07.33,1.29,1.29,0,0,0,.19.32.89.89,0,0,0,.3.24.91.91,0,0,0,.41.09,1,1,0,0,0,.43-.09.87.87,0,0,0,.5-.56,1.27,1.27,0,0,0,.06-.39.91.91,0,0,0-.27-.7,1,1,0,0,0-.71-.26.94.94,0,0,0-.67.26A1,1,0,0,0,223.59,153.19Zm1.29,5.23V156h.68v2h3.36v.61h-3.77Zm2.93-7.87.66.08v2.27H230v.66h-1.57v2.79l-.7-.06Z" transform="translate(-97 -43.62)"/><path class="cls-8" d="M235,150.38h3.86v2.4h-3.51v1.37h3.91v.52h-2v1.9h3.06v.72h-6.84v-.8h3.15v-1.75h-1.47l-.46-.38v-2.21h3.53V151H235Z" transform="translate(-97 -43.62)"/><path class="cls-8" d="M248.3,157.45h-6.8v-.65h6.8ZM243.08,155l-.41-.37v-3H247v.64H243.3v2.13h3.87V155Z" transform="translate(-97 -43.62)"/><path class="cls-8" d="M249.47,150.71h3.16v4h-2.87l-.31-.37Zm2.52.64h-1.88V154H252Zm-.61,4.57H252v.82h3.59v-.84l.63,0v2.91h-4.42l-.41-.19Zm4.26,2.27v-.94H252v1Zm0-8h.67v5.06h-.67v-2.38h-1.11V155h-.7v-4.78h.7v2h1.11Z" transform="translate(-97 -43.62)"/><path class="cls-8" d="M260.58,152.9a1.5,1.5,0,0,1,0-.29,1.68,1.68,0,0,1,.09-.32,1.4,1.4,0,0,1,.15-.3.9.9,0,0,1,.2-.23l-.92-.11.1-.65,1.88.2.11-1.37.69.06-.1,1.44,1.6.2-.08.6-.78-.07a1,1,0,0,1,.17.4,2.28,2.28,0,0,1,0,.44,2.07,2.07,0,0,1-.35,1.19,1.28,1.28,0,0,1-.88.52l.06,1.25h1.77v.71H259.8v-.78h2.11l0-1.18a1.47,1.47,0,0,1-.64-.21,1.3,1.3,0,0,1-.4-.37,1.42,1.42,0,0,1-.21-.47,2,2,0,0,1-.06-.48V153S260.58,152.93,260.58,152.9Zm.69,0a.25.25,0,0,0,0,.08v.08a.86.86,0,0,0,.26.7,1.06,1.06,0,0,0,.73.23.71.71,0,0,0,.62-.3,1.39,1.39,0,0,0,.21-.79,1.06,1.06,0,0,0-.23-.76.83.83,0,0,0-.65-.26.94.94,0,0,0-.63.23A1.18,1.18,0,0,0,261.27,152.9Zm3.94,4.25v-6.87H266v3h1.22v.64h-1.25v3.24Z" transform="translate(-97 -43.62)"/><path class="cls-8" d="M268.49,150.79h3.07v.62h2.21V150h.64v6.12h-.6v-2.37h-2.3v1h-2.72l-.32-.37Zm2.43.64h-1.78v2.62h1.74Zm-.14,6.8v-2.4h.68v2h3.36v.6h-3.77Zm.76-6.21v1.15h2.24V152Z" transform="translate(-97 -43.62)"/><path class="cls-8" d="M278.4,154.13l1.64-2.66v-1.58l.58,0,.1,1.52,2,2.11-.35.51-1.95-2-1.53,2.44Zm3,1.36v-.6h3.46l.18,2.17-3.46.23v1h4.28l0,.58h-4.73l-.33-.19.13-2h3.36v-1.21Zm3.75-5.84v4.83l-.62-.16v-2.56H282v-.64h2.54v-1.45Z" transform="translate(-97 -43.62)"/><path class="cls-8" d="M288.3,156.39l-.61-.15,1.35-4.71H286.6v-.74h2.91l.25.6-.15.55h1.62v-1.11h.68v5.54h-.64v-1.83h-2.42Zm1.11-3.79-.37,1.27h2.23V152.6Zm3.52-2h.66v6h-.66Z" transform="translate(-97 -43.62)"/><path class="cls-8" d="M295.54,155.36l.81.78-1.2,1.91-.48-.37.86-1.37-.43-.47Z" transform="translate(-97 -43.62)"/><path class="cls-8" d="M304.18,154.87l.06.6h-4.57v-.78h.8l.33-3.59h-1l.08-.68,3.83.23,0,.64h-.76v3.52Zm-2.76-3.69-.23,3.63h1v-3.57Zm2,2v-.67H305v-2.28h.68v6.09l-.64,0v-3.18Zm3-3.19H307v6.59h-.66Z" transform="translate(-97 -43.62)"/><path class="cls-8" d="M308.06,153.15a3.39,3.39,0,0,1,.09-.74,2.46,2.46,0,0,1,.28-.74,1.8,1.8,0,0,1,.54-.56,1.56,1.56,0,0,1,.87-.23,1.51,1.51,0,0,1,.84.23,1.83,1.83,0,0,1,.55.56,2.5,2.5,0,0,1,.3.74,3.39,3.39,0,0,1,.09.74,3.49,3.49,0,0,1-.09.76,2.29,2.29,0,0,1-.3.72,1.61,1.61,0,0,1-.55.55,1.71,1.71,0,0,1-1.68,0,1.61,1.61,0,0,1-.55-.55,2.29,2.29,0,0,1-.3-.72A3.49,3.49,0,0,1,308.06,153.15Zm.65,0a3.49,3.49,0,0,0,.05.53,1.77,1.77,0,0,0,.17.52,1.16,1.16,0,0,0,.35.41.91.91,0,0,0,.56.16.88.88,0,0,0,.55-.16,1.19,1.19,0,0,0,.36-.41,2.13,2.13,0,0,0,.18-.52,3.4,3.4,0,0,0,0-.53,2.55,2.55,0,0,0-.05-.53,2,2,0,0,0-.18-.53,1.12,1.12,0,0,0-.35-.4.88.88,0,0,0-.55-.16.94.94,0,0,0-.57.16,1.22,1.22,0,0,0-.35.4,1.93,1.93,0,0,0-.17.53A3.4,3.4,0,0,0,308.71,153.15Zm4.78,3.4v-6.68h.8v6.68Z" transform="translate(-97 -43.62)"/><path class="cls-8" d="M319.88,152.29h-1.37v1.54l2,2.37-.39.48-2-2.14-1.56,2.26-.49-.51,1.7-2.44v-1.56h-1.56v-.62h3.63Zm2.11,5.25v-6.68h.8v6.68Z" transform="translate(-97 -43.62)"/><path class="cls-8" d="M326.7,153.15a3.34,3.34,0,0,1,.08-.74,2.76,2.76,0,0,1,.28-.74,1.83,1.83,0,0,1,.55-.56,1.51,1.51,0,0,1,.86-.23,1.46,1.46,0,0,1,.84.23,1.87,1.87,0,0,1,.56.56,2.24,2.24,0,0,1,.29.74,3.39,3.39,0,0,1,.09.74,3.49,3.49,0,0,1-.09.76,2.06,2.06,0,0,1-.29.72,1.64,1.64,0,0,1-.56.55,1.54,1.54,0,0,1-.84.22,1.59,1.59,0,0,1-.84-.22,1.7,1.7,0,0,1-.55-.55,2.06,2.06,0,0,1-.29-.72A3.49,3.49,0,0,1,326.7,153.15Zm.64,0a3.49,3.49,0,0,0,.05.53,1.53,1.53,0,0,0,.18.52,1.14,1.14,0,0,0,.34.41.93.93,0,0,0,.56.16.91.91,0,0,0,.56-.16,1.27,1.27,0,0,0,.35-.41,1.53,1.53,0,0,0,.18-.52,3.49,3.49,0,0,0,.05-.53,2.61,2.61,0,0,0-.06-.53,1.66,1.66,0,0,0-.18-.53,1.19,1.19,0,0,0-.34-.4.91.91,0,0,0-.56-.16.94.94,0,0,0-.57.16,1.19,1.19,0,0,0-.34.4,1.64,1.64,0,0,0-.17.53A3.49,3.49,0,0,0,327.34,153.15Zm4.79,3.4v-6.68h.8v6.68Z" transform="translate(-97 -43.62)"/><path class="cls-8" d="M336.52,153.48l-.41-.37v-2.85H340v.64h-3.28v1.94h3.47v.66h-1.7v1.09h3.05v.69h-6.84v-.74h3.15v-1Zm-.19,3.85a1.34,1.34,0,0,1,.12-.56,1.24,1.24,0,0,1,.37-.46,1.85,1.85,0,0,1,.61-.31,3,3,0,0,1,1.69,0,1.8,1.8,0,0,1,.62.31,1.24,1.24,0,0,1,.37.46,1.34,1.34,0,0,1,.12.56,1.4,1.4,0,0,1-.12.58,1.24,1.24,0,0,1-.37.46,1.8,1.8,0,0,1-.62.31,3.3,3.3,0,0,1-1.69,0,1.85,1.85,0,0,1-.61-.31,1.24,1.24,0,0,1-.37-.46A1.4,1.4,0,0,1,336.33,157.33Zm3.22,0a.72.72,0,0,0-.34-.61,1.87,1.87,0,0,0-1.87,0,.74.74,0,0,0,0,1.23,1.81,1.81,0,0,0,1.87,0A.73.73,0,0,0,339.55,157.33Z" transform="translate(-97 -43.62)"/><path class="cls-8" d="M348.69,155v.64h-3.42l-.29-.37v-4h3.28V152h-2.6v2.93Zm2.73-4.16h.67v5.82h-.67v-2.89h-1v2.83h-.71v-5.74h.71v2.24h1Z" transform="translate(-97 -43.62)"/><path class="cls-8" d="M353.18,154.91l1.64-2.66v-1.78l.59,0v1.72l2.15,2.11-.35.51-2-1.89-1.52,2.38Zm2.4,3.49V156h.67v2h3.53l0,.63h-4Zm3.83-8.3v6.1h-.7v-6.12Z" transform="translate(-97 -43.62)"/><path class="cls-8" d="M369.31,154.2h-1.59v2.19h3.06v.7h-6.84v-.76h3.15V154.2h-1.51l-.39-.35v-3h4.09Zm-3.41-2.65v2h2.77v-2Z" transform="translate(-97 -43.62)"/><path class="cls-8" d="M372.26,154.22l-.45-.35v-3.06h3.25v.66h-2.68l.14,2.11h2.73v.66Zm2.19,1.27v-.6h3.46l.17,2.17-3.45.23v1h4.47l0,.58h-4.92l-.34-.19.14-2h3.36v-1.21Zm2.48-5.78h.67v2h1.52v.67h-1.54v1.93h-.69Z" transform="translate(-97 -43.62)"/><path class="cls-8" d="M383.81,152h-1.64v.64l1.85,1.56-.39.43-1.76-1.36-1.4,1.79-.49-.47,1.52-1.93V152h-1.58v-.63h1.58v-1.35h.67v1.37h1.62Zm-2,5.19a1.39,1.39,0,0,1,.13-.56,1.24,1.24,0,0,1,.37-.46,1.75,1.75,0,0,1,.61-.31,3.3,3.3,0,0,1,1.69,0,1.8,1.8,0,0,1,.62.31,1.34,1.34,0,0,1,.37.46,1.38,1.38,0,0,1,.12.56,1.4,1.4,0,0,1-.12.58,1.34,1.34,0,0,1-.37.46,1.8,1.8,0,0,1-.62.31,3,3,0,0,1-1.69,0,1.75,1.75,0,0,1-.61-.31,1.24,1.24,0,0,1-.37-.46A1.41,1.41,0,0,1,381.83,157.23Zm3.23,0a.76.76,0,0,0-.34-.61,1.58,1.58,0,0,0-.93-.25,1.6,1.6,0,0,0-1,.25.76.76,0,0,0-.32.61.79.79,0,0,0,.32.63,1.54,1.54,0,0,0,1,.25,1.51,1.51,0,0,0,.93-.25A.78.78,0,0,0,385.06,157.23Zm.11-7.21h.67v2.37h1.42v.66h-1.42v2.17h-.71Z" transform="translate(-97 -43.62)"/><path class="cls-8" d="M394.06,150.42V151H392.6v1.17l2,2-.39.51-1.88-1.83-1.56,2-.49-.51,1.66-2.21V151h-1.56v-.64Zm3.09,8.35h-1l.27-2.2h-4.82v-.65h5.15l.36.41Zm-.3-8.69v5.14h-.62v-2.85h-2.35v-.63h2.31V150.1Z" transform="translate(-97 -43.62)"/><path class="cls-8" d="M405.51,155h-6.88l0-.55h6.82Zm-.71,3.82h-.7V156.7h-4.61V156h5l.35.41Zm-.82-5.33h-.62V150.9H400.1l.07-.74h3.42l.41.51Z" transform="translate(-97 -43.62)"/><path class="cls-8" d="M409.92,151.68a1.62,1.62,0,0,1,.11-.5,1,1,0,0,1,.34-.47l-.8-.1.08-.55,1.7.2.13-1.06.65.1-.12,1.06,1.45.15,0,.53-.75-.08a1.73,1.73,0,0,1,.16.37,1.51,1.51,0,0,1-.25,1.34,1.31,1.31,0,0,1-.83.47l0,1h1.8v.66h-4.26v-.7h1.8l0-1a1.61,1.61,0,0,1-.63-.21,1.22,1.22,0,0,1-.35-.37,1.14,1.14,0,0,1-.17-.43A3.22,3.22,0,0,1,409.92,151.68Zm.82,4.2v-.6H415l.17,1.93h-4.23v1.1h5.41l0,.58h-5.86l-.34-.19.14-1.84h4.14v-1Zm-.2-4.2v.07a.85.85,0,0,0,.22.58.82.82,0,0,0,.64.23.83.83,0,0,0,.69-.27,1,1,0,0,0,.21-.67.71.71,0,0,0-.26-.6,1,1,0,0,0-.63-.2.91.91,0,0,0-.59.21A.88.88,0,0,0,410.54,151.68Zm3.75,3.07v-4.67h.63v2h1.39v.64h-1.37v2.07Z" transform="translate(-97 -43.62)"/><path class="cls-8" d="M418.77,151.86a1.44,1.44,0,0,1,.15-.67,1.53,1.53,0,0,1,.41-.5,1.81,1.81,0,0,1,.61-.29,2.59,2.59,0,0,1,.74-.1,2.29,2.29,0,0,1,.76.12,1.88,1.88,0,0,1,.61.33,1.61,1.61,0,0,1,.4.5,1.25,1.25,0,0,1,.15.61,1.4,1.4,0,0,1-.15.66,1.28,1.28,0,0,1-.37.45l.08,1.66h2v.65H417.3v-.74h2.07V153h-.05a1.46,1.46,0,0,1-.41-.48A1.51,1.51,0,0,1,418.77,151.86Zm.13,5.47a1.35,1.35,0,0,1,.13-.56,1.24,1.24,0,0,1,.37-.46A1.75,1.75,0,0,1,420,156a3,3,0,0,1,1.69,0,1.8,1.8,0,0,1,.62.31,1.26,1.26,0,0,1,.49,1,1.4,1.4,0,0,1-.12.58,1.34,1.34,0,0,1-.37.46,1.8,1.8,0,0,1-.62.31,3.3,3.3,0,0,1-1.69,0,1.75,1.75,0,0,1-.61-.31,1.24,1.24,0,0,1-.37-.46A1.41,1.41,0,0,1,418.9,157.33Zm3.07-5.47a.76.76,0,0,0-.09-.35,1.07,1.07,0,0,0-.25-.32,1.09,1.09,0,0,0-.38-.22,1.26,1.26,0,0,0-.49-.09,1.87,1.87,0,0,0-.61.09,1.24,1.24,0,0,0-.43.22.84.84,0,0,0-.24.3.68.68,0,0,0-.09.33.87.87,0,0,0,.11.44.83.83,0,0,0,.29.3,1.33,1.33,0,0,0,.42.18,2.16,2.16,0,0,0,.51.06,1.85,1.85,0,0,0,.47-.08,1.64,1.64,0,0,0,.4-.19,1,1,0,0,0,.28-.29A.72.72,0,0,0,422,151.86Zm.16,5.47a.75.75,0,0,0-.34-.61,1.51,1.51,0,0,0-.93-.25,1.48,1.48,0,0,0-.94.25.74.74,0,0,0,0,1.23,1.48,1.48,0,0,0,.94.26,1.51,1.51,0,0,0,.93-.26A.75.75,0,0,0,422.13,157.33Zm-.7-4a2,2,0,0,1-.37.07,2.42,2.42,0,0,1-.38,0,2.17,2.17,0,0,1-.36,0,1.52,1.52,0,0,1-.32-.06l.06,1.27h1.41Z" transform="translate(-97 -43.62)"/><path class="cls-8" d="M427.79,149.91l.27.56a4.51,4.51,0,0,0-1.14.75,3.49,3.49,0,0,0-.71.93,4,4,0,0,0-.36,1.11,7.5,7.5,0,0,0-.1,1.29,5.51,5.51,0,0,0,.12,1.19,3,3,0,0,0,.4,1,2.81,2.81,0,0,0,.73.73,4.29,4.29,0,0,0,1.12.49l0,.56a4.72,4.72,0,0,1-1.21-.45,3.83,3.83,0,0,1-.93-.75,3.11,3.11,0,0,1-.61-1,3.51,3.51,0,0,1-.21-1.24,2.64,2.64,0,0,1,0-.28v-.28a7.17,7.17,0,0,1,.13-1.43,4.05,4.05,0,0,1,.46-1.23,4.31,4.31,0,0,1,.83-1.05A5.49,5.49,0,0,1,427.79,149.91Z" transform="translate(-97 -43.62)"/><path class="cls-8" d="M428.81,151.55v-.61h3.24l.19,2.42-2.95.34v1.54h3.4l0,.6H428.9l-.37-.19v-2.56l3-.29-.1-1.23Zm5.76,5.39h-.72v-6.68h.76v3h1.58v.64h-1.62Z" transform="translate(-97 -43.62)"/><path class="cls-8" d="M437,153.15a4.07,4.07,0,0,1,.08-.74,2.48,2.48,0,0,1,.29-.74,1.7,1.7,0,0,1,.54-.56,1.56,1.56,0,0,1,.87-.23,1.51,1.51,0,0,1,.84.23,2,2,0,0,1,.55.56,2.5,2.5,0,0,1,.3.74,3.34,3.34,0,0,1,.08.74,3.45,3.45,0,0,1-.08.76,2.29,2.29,0,0,1-.3.72,1.7,1.7,0,0,1-.55.55,1.59,1.59,0,0,1-.84.22,1.56,1.56,0,0,1-.84-.22,1.61,1.61,0,0,1-.55-.55,2.29,2.29,0,0,1-.3-.72A3.49,3.49,0,0,1,437,153.15Zm.64,0a3.49,3.49,0,0,0,.05.53,1.78,1.78,0,0,0,.18.52,1.07,1.07,0,0,0,.35.41,1,1,0,0,0,1.11,0,1.16,1.16,0,0,0,.35-.41,1.53,1.53,0,0,0,.18-.52,2.83,2.83,0,0,0,0-1.06,2.37,2.37,0,0,0-.18-.53,1.22,1.22,0,0,0-.35-.4,1.06,1.06,0,0,0-1.12,0,1.12,1.12,0,0,0-.35.4,1.64,1.64,0,0,0-.17.53A3.49,3.49,0,0,0,437.65,153.15Zm4.79,3.4v-6.68h.8v6.68Z" transform="translate(-97 -43.62)"/><path class="cls-8" d="M451.64,157.25h-6.41v-.64h6.41Zm-5.55-6.09v-.08h.65l.11,1.54h2.86l-.1-1.56.64,0v4h-3.49l-.43-.21Zm3.71,3.24v-1.27h-2.93l.1,1.41Z" transform="translate(-97 -43.62)"/><path class="cls-8" d="M453.24,151.55v-.61h3.13l.19,2.42-2.83.34v1.54H457l0,.6h-3.71l-.37-.19v-2.56l2.91-.29-.1-1.23Zm6.52,5.19h-.52v-3.63h-2.19v-.59h2.11v-2.44h.6Z" transform="translate(-97 -43.62)"/><path class="cls-8" d="M461.38,151.55v-.61h3.25l.19,2.42-2.95.34v1.54h3.4l0,.6h-3.83l-.37-.19v-2.56l3-.29-.1-1.23Zm5.2,5v-6.68h.8v6.68Z" transform="translate(-97 -43.62)"/><path class="cls-8" d="M468.73,156.72l1.38-1.66-1.3-1.72.45-.39,1.24,1.64,1.26-1.52.45.47-1.32,1.58,1.24,1.64-.45.39-1.18-1.56-1.34,1.6Z" transform="translate(-97 -43.62)"/><path class="cls-8" d="M472.73,150.47l.28-.56a5.51,5.51,0,0,1,1.29.88,3.72,3.72,0,0,1,.83,1.08,4.46,4.46,0,0,1,.45,1.27,7.55,7.55,0,0,1,.13,1.46,6.58,6.58,0,0,1,0,.8,3.67,3.67,0,0,1-.13.69,3.14,3.14,0,0,1-.27.62,3.48,3.48,0,0,1-.41.56,4,4,0,0,1-.95.76,3.92,3.92,0,0,1-1.2.45l0-.56a3.75,3.75,0,0,0,1.12-.5,2.5,2.5,0,0,0,.72-.73,2.75,2.75,0,0,0,.4-1,5.54,5.54,0,0,0,.12-1.2,7.5,7.5,0,0,0-.11-1.3,3.31,3.31,0,0,0-.36-1.1,3.21,3.21,0,0,0-.7-.92A4.42,4.42,0,0,0,472.73,150.47Z" transform="translate(-97 -43.62)"/><path class="cls-8" d="M477.42,155.36l.8.78L477,158.05l-.49-.37.86-1.37-.43-.47Z" transform="translate(-97 -43.62)"/><path class="cls-8" d="M99.57,164.74l-.69.19-.62-1.48.68-.18Zm-.9,4.37v-3.57h.68v3.61Z" transform="translate(-97 -43.62)"/><path class="cls-8" d="M102.87,165.91H101V169l-.48.05V164.9l.46-.1v.49l2.27-.14.29.59.3,3.18-.63.17Z" transform="translate(-97 -43.62)"/><path class="cls-8" d="M107.81,166.77V167a2.22,2.22,0,0,1-.17.92,1.55,1.55,0,0,1-.41.59,1.44,1.44,0,0,1-.55.31,2.05,2.05,0,0,1-.58.09,2.14,2.14,0,0,1-.58-.08,1.32,1.32,0,0,1-.41-.18l.08,2.18-.6.06v-5.31l.06-.45a5.7,5.7,0,0,1,1.25-.17,2,2,0,0,1,1.39.46A1.93,1.93,0,0,1,107.81,166.77Zm-2.79-1,0,1.94s0,.07.1.11a1.27,1.27,0,0,0,.24.14,2.75,2.75,0,0,0,.34.1,1.58,1.58,0,0,0,.38,0,1.06,1.06,0,0,0,.38-.07.8.8,0,0,0,.34-.22,1.2,1.2,0,0,0,.25-.42,2,2,0,0,0,.1-.65,1.12,1.12,0,0,0-.12-.53,1,1,0,0,0-.3-.38,1.37,1.37,0,0,0-.43-.23,1.7,1.7,0,0,0-.93,0A1.39,1.39,0,0,0,105,165.79Z" transform="translate(-97 -43.62)"/><path class="cls-8" d="M108.47,165l.55.14c-.06.33-.1.65-.14,1a6.48,6.48,0,0,0,0,.86,4.41,4.41,0,0,0,0,.66,1.8,1.8,0,0,0,.15.51.85.85,0,0,0,.29.33.88.88,0,0,0,.45.11.75.75,0,0,0,.36-.1,1,1,0,0,0,.31-.34,2,2,0,0,0,.23-.62,5.68,5.68,0,0,0,.12-1l0-1.39.54,0V169l-.48.05,0-.74a1.21,1.21,0,0,1-.46.68,1.34,1.34,0,0,1-.77.23,1.18,1.18,0,0,1-.63-.16,1.39,1.39,0,0,1-.43-.44,2.16,2.16,0,0,1-.26-.69,4.71,4.71,0,0,1-.08-.88,8.51,8.51,0,0,1,.06-1Q108.37,165.61,108.47,165Z" transform="translate(-97 -43.62)"/><path class="cls-8" d="M112.91,168.88v-3h-1l.06-.71H113v-2h.67v2h1.6v.7h-1.67v2.54l1.47-.27.1.66-1.95.41Z" transform="translate(-97 -43.62)"/><path class="cls-8" d="M122.2,166.34H120v2.58h-.58v-2.61h-1.19v-.69l1.14,0c0-.08,0-.16,0-.23v-.21a5.91,5.91,0,0,1,0-.79,3.32,3.32,0,0,1,.09-.55,2,2,0,0,1,.13-.37,2.52,2.52,0,0,1,.15-.24,1.31,1.31,0,0,1,1-.51,1.6,1.6,0,0,1,.57.11,1.91,1.91,0,0,1,.52.33,2,2,0,0,1,.38.49,1.67,1.67,0,0,1,.2.62l-.49.33a1.67,1.67,0,0,0-.17-.52,2,2,0,0,0-.28-.39,1.56,1.56,0,0,0-.35-.24,1,1,0,0,0-.37-.08.74.74,0,0,0-.34.08.59.59,0,0,0-.27.32,2.56,2.56,0,0,0-.17.68,9.32,9.32,0,0,0-.06,1.19l2.22,0Z" transform="translate(-97 -43.62)"/><path class="cls-8" d="M124.55,165a1.78,1.78,0,0,1,.83.18,1.63,1.63,0,0,1,.56.48,2.34,2.34,0,0,1,.31.72,3.92,3.92,0,0,1,.1.87,2.72,2.72,0,0,1-.18.91,1.92,1.92,0,0,1-.39.64,1.56,1.56,0,0,1-.55.38,1.77,1.77,0,0,1-.64.12,1.6,1.6,0,0,1-1.32-.65,2.53,2.53,0,0,1-.33-.68,3.12,3.12,0,0,1-.11-.82,2.91,2.91,0,0,1,.12-.85,2.22,2.22,0,0,1,.34-.69,1.53,1.53,0,0,1,1.26-.61Zm.06.67a1.11,1.11,0,0,0-.85.33,1.56,1.56,0,0,0-.31,1.06,2.24,2.24,0,0,0,.08.57,1.75,1.75,0,0,0,.23.5,1.1,1.1,0,0,0,.35.36.77.77,0,0,0,.46.15,1,1,0,0,0,.48-.13,1.42,1.42,0,0,0,.36-.33,1.59,1.59,0,0,0,.23-.45,1.61,1.61,0,0,0,.08-.48,1.86,1.86,0,0,0-.31-1.22A1,1,0,0,0,124.61,165.66Z" transform="translate(-97 -43.62)"/><path class="cls-8" d="M127.32,169.31,127,165l.61-.08.13,1.9,2.09-1.41.28.55-2.27,1.64v1.64Z" transform="translate(-97 -43.62)"/><path class="cls-8" d="M130.52,165l.61-.13.05.43h3.58l.45.5v3.05l-.41.06v-2.58l-.39-.53h-1V169h-.57v-3.11h-1.6l.33,3.21-.63.07Z" transform="translate(-97 -43.62)"/><path class="cls-8" d="M140.49,166.48H143v.64h-4.49v-.68h1.29v-2h.61Zm2.07-.63h-.67V163.2h-2.95l.08-.82h3.15l.41.58Zm-2.62,4.57V168h.68v2H145v.61h-4.75Zm4-2.18v-6.16h.63v2.37h1.39v.64h-1.37v3.16Z" transform="translate(-97 -43.62)"/><path class="cls-8" d="M147,163.16v-.61h3.11l.19,2.31-2.81.33v1.07h3.26l0,.61h-3.69l-.37-.2v-2.09l2.89-.29-.1-1.11Zm2.54,7.07v-2.4h.68v2h3.36v.6H149.8Zm3.83-8.15v6.12h-.63v-2.45h-2v-.62h2v-1h-1.92v-.62h1.91V162.1Z" transform="translate(-97 -43.62)"/><path class="cls-8" d="M161.09,167v.64h-3.61l-.29-.37v-4h3.37V164h-2.69v2.93Zm1.95,2h-.72v-6.68h.76v3h1.68v.64H163Z" transform="translate(-97 -43.62)"/><path class="cls-8" d="M165.29,164.68a2.55,2.55,0,0,1,.1-.74,1.65,1.65,0,0,1,.31-.62,1.68,1.68,0,0,1,.55-.42,1.94,1.94,0,0,1,.8-.15,1.44,1.44,0,0,1,.82.22,1.75,1.75,0,0,1,.53.52,2.12,2.12,0,0,1,.28.64,2.29,2.29,0,0,1,.09.55,2.76,2.76,0,0,1-.08.6,1.7,1.7,0,0,1-.26.64,1.58,1.58,0,0,1-1.4.71,1.73,1.73,0,0,1-.83-.18,1.54,1.54,0,0,1-.53-.48,1.81,1.81,0,0,1-.29-.63A2.61,2.61,0,0,1,165.29,164.68Zm.63,0a1.55,1.55,0,0,0,.08.55,1.13,1.13,0,0,0,.25.41,1.14,1.14,0,0,0,.78.37,1,1,0,0,0,.79-.38,1.65,1.65,0,0,0,.3-1,1.19,1.19,0,0,0-.08-.45,1.07,1.07,0,0,0-.22-.39,1.11,1.11,0,0,0-.79-.4,1,1,0,0,0-.46.11,1.38,1.38,0,0,0-.34.3,1.42,1.42,0,0,0-.23.42A1.64,1.64,0,0,0,165.92,164.68Zm1.44,4.55a1.38,1.38,0,0,1,.12-.56,1.34,1.34,0,0,1,.37-.46,1.85,1.85,0,0,1,.61-.31,3.34,3.34,0,0,1,1.7,0,1.75,1.75,0,0,1,.61.31,1.23,1.23,0,0,1,.5,1,1.4,1.4,0,0,1-.12.58,1.38,1.38,0,0,1-.38.46,1.75,1.75,0,0,1-.61.31,3.07,3.07,0,0,1-1.7,0,1.85,1.85,0,0,1-.61-.31,1.34,1.34,0,0,1-.37-.46A1.4,1.4,0,0,1,167.36,169.23Zm3.22,0a.75.75,0,0,0-.33-.61,1.61,1.61,0,0,0-.94-.25,1.57,1.57,0,0,0-.94.25.75.75,0,0,0-.33.61.77.77,0,0,0,.33.63,1.5,1.5,0,0,0,.94.25,1.54,1.54,0,0,0,.94-.25A.77.77,0,0,0,170.58,169.23Zm-.07-7.21h.66v1.2h1.52v.66h-1.52v1.29h1.52v.66h-1.54v1.39h-.68Z" transform="translate(-97 -43.62)"/><path class="cls-8" d="M173.71,165.19a1.58,1.58,0,0,1,.12-.58,1,1,0,0,1,.33-.48l-1.1-.11.1-.61,2.09.22.12-1.33.64.06-.09,1.34,1.77.18-.06.62-1-.07a1,1,0,0,1,.21.46,2.25,2.25,0,0,1,.06.49,1.77,1.77,0,0,1-.16.62,2,2,0,0,1-.35.49,1.58,1.58,0,0,1-.48.33,1.24,1.24,0,0,1-.53.12,1.75,1.75,0,0,1-.89-.2,1.45,1.45,0,0,1-.51-.47,1.58,1.58,0,0,1-.24-.57A2.76,2.76,0,0,1,173.71,165.19Zm.62,0s0,.05,0,.09a1,1,0,0,0,.07.33,1.29,1.29,0,0,0,.19.32.83.83,0,0,0,.31.24.87.87,0,0,0,.4.09,1,1,0,0,0,.43-.09.87.87,0,0,0,.5-.56,1,1,0,0,0,.07-.39.88.88,0,0,0-.28-.7,1,1,0,0,0-.71-.26.94.94,0,0,0-.67.26A1,1,0,0,0,174.33,165.19Zm1.29,5.23V168h.69v2h3.36v.61H175.9Zm2.93-7.87.67.08v2.27h1.56v.66h-1.56v2.79l-.71-.06Z" transform="translate(-97 -43.62)"/><path class="cls-8" d="M185.66,163.86a1.41,1.41,0,0,1,.57-1.17,1.72,1.72,0,0,1,.61-.29,2.55,2.55,0,0,1,.74-.1,2.37,2.37,0,0,1,.76.12,1.93,1.93,0,0,1,.6.33,1.48,1.48,0,0,1,.4.5,1.25,1.25,0,0,1,.15.61,1.38,1.38,0,0,1-.13.62,1.41,1.41,0,0,1-.34.45,1.54,1.54,0,0,1-.49.3,2.12,2.12,0,0,1-.55.14l.06,1.22h3v.69H184.2v-.74h3.14l-.05-1.15a1.94,1.94,0,0,1-1.18-.47A1.38,1.38,0,0,1,185.66,163.86Zm-.47,3.91v0h.63l.08,1.05h3.69l-.1-1.07.61,0,.23,3.1H185.8l-.41-.19Zm4.5,2.48-.06-1H186v1Zm-.83-6.39a.74.74,0,0,0-.08-.35,1.07,1.07,0,0,0-.25-.32,1.37,1.37,0,0,0-.88-.31,1.91,1.91,0,0,0-.61.09,1.19,1.19,0,0,0-.42.22.87.87,0,0,0-.25.3.67.67,0,0,0-.08.33.87.87,0,0,0,.1.44.93.93,0,0,0,.29.3,1.3,1.3,0,0,0,.43.18,2.07,2.07,0,0,0,.5.06,1.78,1.78,0,0,0,.47-.08,1.48,1.48,0,0,0,.4-.19,1,1,0,0,0,.28-.29A.72.72,0,0,0,188.86,163.86Z" transform="translate(-97 -43.62)"/><path class="cls-8" d="M191.87,166.81l1.64-2.66v-1.77l.59,0v1.72l2.15,2.11-.35.5-2-1.89-1.52,2.38Zm3,3.42v-2.4h.68v2h3.36v.6h-3.77Zm3.63-8.15v6.12h-.62v-2.95H195.9v-.63h1.92v-.84H195.9v-.62h1.91V162.1Z" transform="translate(-97 -43.62)"/><path class="cls-8" d="M206.42,163.37l-1.46,5-.67-.14,1.35-4.62h-2.75l.06-.77h3.16Zm1.86,5.18v-6.68h.8v6.68Z" transform="translate(-97 -43.62)"/><path class="cls-8" d="M217.71,167h-6.87l0-.55h6.81Zm-4.94-1.53-.47-.41v-2.85H213v2.64h3.34v.6Zm-.29,3.89a1.26,1.26,0,0,1,.49-1,1.85,1.85,0,0,1,.61-.31,2.72,2.72,0,0,1,.85-.12,2.77,2.77,0,0,1,.85.12,1.75,1.75,0,0,1,.61.31,1.24,1.24,0,0,1,.37.46,1.34,1.34,0,0,1,.12.56,1.4,1.4,0,0,1-.12.58,1.24,1.24,0,0,1-.37.46,1.75,1.75,0,0,1-.61.31,2.78,2.78,0,0,1-.85.11,2.74,2.74,0,0,1-.85-.11,1.85,1.85,0,0,1-.61-.31,1.34,1.34,0,0,1-.37-.46A1.4,1.4,0,0,1,212.48,169.33Zm3.22,0a.72.72,0,0,0-.34-.61,1.87,1.87,0,0,0-1.87,0,.74.74,0,0,0,0,1.23,1.81,1.81,0,0,0,1.87,0A.73.73,0,0,0,215.7,169.33Z" transform="translate(-97 -43.62)"/><path class="cls-8" d="M224.7,167.63h-3.26v-.7h6.88v.74h-2.93v2.4h-.69Zm2.07-1.6h-.66v-2.72h-3.36l.08-.82h3.55l.41.59Z" transform="translate(-97 -43.62)"/><path class="cls-8" d="M229.57,164.9a2.14,2.14,0,0,1,.1-.56,1.19,1.19,0,0,1,.35-.56l-.84-.11.08-.53,1.85.21.12-1.44.6.06-.09,1.42,1.58.18,0,.54-.82-.07a1.47,1.47,0,0,1,.24.51,3,3,0,0,1,.05.54,1.57,1.57,0,0,1-.14.67,1.45,1.45,0,0,1-.37.5,1.94,1.94,0,0,1-.52.31,1.74,1.74,0,0,1-.59.1,1.8,1.8,0,0,1-.76-.2,1.65,1.65,0,0,1-.48-.42,1.49,1.49,0,0,1-.26-.52,1.88,1.88,0,0,1-.07-.5A.42.42,0,0,1,229.57,164.9Zm.6,0s0,0,0,.07V165a.94.94,0,0,0,.07.37,1,1,0,0,0,.18.34,1.22,1.22,0,0,0,.3.24.87.87,0,0,0,.4.09,1.18,1.18,0,0,0,.43-.08,1.33,1.33,0,0,0,.34-.22,1,1,0,0,0,.21-.31.91.91,0,0,0,.08-.37,1.15,1.15,0,0,0-.3-.87,1.08,1.08,0,0,0-.79-.28.82.82,0,0,0-.61.24A1.23,1.23,0,0,0,230.17,164.86Zm1.94,5.37v-2.4h.68v2h3.36v.6h-3.77Zm3.86-8.15v6.12h-.62v-2.13h-1.74v-.63h1.71v-.84h-1.73V164h1.72V162.1Z" transform="translate(-97 -43.62)"/><path class="cls-8" d="M238.24,167.36l.8.78-1.19,1.91-.49-.37.86-1.37-.43-.47Z" transform="translate(-97 -43.62)"/><path class="cls-8" d="M242.65,162.61l.69.1a3.44,3.44,0,0,0-.1.52c0,.21-.06.45-.09.71s-.05.55-.07.85,0,.6,0,.9a10.23,10.23,0,0,0,.06,1.12,4.35,4.35,0,0,0,.21,1,1.82,1.82,0,0,0,.41.68.85.85,0,0,0,.65.26,1.24,1.24,0,0,0,.94-.35,2.28,2.28,0,0,0,.56-.92,5.68,5.68,0,0,0,.27-1.27,13,13,0,0,0,.07-1.4c0-.37,0-.72,0-1s0-.57,0-.77l.66,0c0,.24,0,.49,0,.74s0,.52,0,.79,0,.82,0,1.23a10.09,10.09,0,0,1-.13,1.15,5.82,5.82,0,0,1-.28,1,2.54,2.54,0,0,1-.45.81,2.08,2.08,0,0,1-.65.53,1.92,1.92,0,0,1-.89.2,1.48,1.48,0,0,1-1-.35,2.37,2.37,0,0,1-.62-.9,5.08,5.08,0,0,1-.31-1.25,10.93,10.93,0,0,1-.09-1.39c0-.29,0-.58,0-.86s0-.56.07-.81.05-.49.08-.7S242.62,162.77,242.65,162.61Z" transform="translate(-97 -43.62)"/><path class="cls-8" d="M250.11,168.88h-2.32v-.55h.76v-4.88h-1.09v-.53l2.15-.13v.56l-.71.06v4.88h1.21Z" transform="translate(-97 -43.62)"/><path class="cls-8" d="M257.07,162.61v.63h-1.35v1l1.93,2-.39.51L255.39,165l-1.56,2-.49-.51,1.66-2.15v-1h-1.56v-.65Zm2.73,8.16h-.7v-2.2h-4.81v-.65h5.16l.35.41ZM258.65,162h.66v2.09h1.53v.67h-1.53v2.44h-.7Z" transform="translate(-97 -43.62)"/><path class="cls-8" d="M261.68,164.8a2.55,2.55,0,0,1,.1-.74,1.56,1.56,0,0,1,.85-1,2,2,0,0,1,.81-.16,1.62,1.62,0,0,1,.62.13,1.53,1.53,0,0,1,.46.3,2.06,2.06,0,0,1,.32.41c.08.15.14.29.2.43l2.28,0v-2H268v5.12h-.63v-2.46h-2.21v0a2.84,2.84,0,0,1-.07.6,2.15,2.15,0,0,1-.26.63,1.73,1.73,0,0,1-.53.51,1.65,1.65,0,0,1-.87.21,1.7,1.7,0,0,1-.83-.18,1.68,1.68,0,0,1-.54-.48,1.79,1.79,0,0,1-.28-.63A2.61,2.61,0,0,1,261.68,164.8Zm.62,0a1.55,1.55,0,0,0,.09.55,1.22,1.22,0,0,0,.24.4,1.31,1.31,0,0,0,.36.27,1.24,1.24,0,0,0,.43.11,1,1,0,0,0,.79-.38,1.65,1.65,0,0,0,.3-1,1.33,1.33,0,0,0-.08-.45,1.24,1.24,0,0,0-.22-.39,1.17,1.17,0,0,0-.35-.28,1.07,1.07,0,0,0-.44-.12,1,1,0,0,0-.46.11,1.08,1.08,0,0,0-.34.3,1.18,1.18,0,0,0-.23.41A2.18,2.18,0,0,0,262.3,164.8Zm1.06,3.12h.6v.84h3.6v-.86l.62,0v2.91h-4.41l-.41-.19Zm4.26,2.27v-.92H264v1Z" transform="translate(-97 -43.62)"/><path class="cls-8" d="M272.3,164.15a2.59,2.59,0,0,1,.1-.74,1.72,1.72,0,0,1,.29-.61,1.41,1.41,0,0,1,.54-.42,1.71,1.71,0,0,1,.79-.16,1.62,1.62,0,0,1,.83.2,1.65,1.65,0,0,1,.51.51,1.94,1.94,0,0,1,.27.63,2.68,2.68,0,0,1,.07.59,5.6,5.6,0,0,1-.1.59,1.89,1.89,0,0,1-.25.63,1.46,1.46,0,0,1-1.35.72,1.65,1.65,0,0,1-.81-.18,1.51,1.51,0,0,1-.53-.47,1.8,1.8,0,0,1-.27-.62A2.63,2.63,0,0,1,272.3,164.15Zm.63,0a1.37,1.37,0,0,0,.31,1,1.07,1.07,0,0,0,.76.37.81.81,0,0,0,.44-.12,1,1,0,0,0,.33-.3,1.63,1.63,0,0,0,.21-.44,1.82,1.82,0,0,0,.08-.52,1.38,1.38,0,0,0-.08-.45,1.44,1.44,0,0,0-.21-.41,1,1,0,0,0-.33-.29.81.81,0,0,0-.44-.12.84.84,0,0,0-.45.11.94.94,0,0,0-.33.3,1.38,1.38,0,0,0-.21.42A1.62,1.62,0,0,0,272.93,164.15Zm1.87,3.34v-.6h3.46l.18,2.17-3.46.23v1h4.47l0,.58h-4.92l-.33-.19.13-2h3.36v-1.21Zm3.73-5.56v4.39h-.7V162Z" transform="translate(-97 -43.62)"/><path class="cls-8" d="M283.92,164.15h-1.54v1.27l2,2.07-.39.43-2-1.89-1.64,2-.49-.47,1.8-2.11v-1.29H280v-.62h1.66v-1.45h.66v1.47h1.56Zm-.7,1.41v-.66h1.84v-2.17h.68v6.13l-.64,0v-3.34Zm3.48-3.07h.66v6.62h-.66Z" transform="translate(-97 -43.62)"/><path class="cls-8" d="M297.81,167h-6.87l0-.55h6.82Zm-5-1.63-.41-.37v-2.65h3.91V163H293v1.74h3.47v.66Zm-.19,4a1.34,1.34,0,0,1,.12-.56,1.24,1.24,0,0,1,.37-.46,1.85,1.85,0,0,1,.61-.31,3,3,0,0,1,1.69,0,1.8,1.8,0,0,1,.62.31,1.24,1.24,0,0,1,.37.46,1.34,1.34,0,0,1,.12.56,1.4,1.4,0,0,1-.12.58,1.24,1.24,0,0,1-.37.46,1.8,1.8,0,0,1-.62.31,3.3,3.3,0,0,1-1.69,0,1.85,1.85,0,0,1-.61-.31,1.24,1.24,0,0,1-.37-.46A1.4,1.4,0,0,1,292.58,169.33Zm3.22,0a.72.72,0,0,0-.34-.61,1.87,1.87,0,0,0-1.87,0,.74.74,0,0,0,0,1.23,1.81,1.81,0,0,0,1.87,0A.73.73,0,0,0,295.8,169.33Z" transform="translate(-97 -43.62)"/><rect class="cls-2" x="223" y="45.38" width="33" height="18" rx="3"/><path class="cls-3" d="M330.47,97.22l.75,3.19-.7.26-.42-2a3.62,3.62,0,0,1-.26.68,2.94,2.94,0,0,1-.42.64,2.09,2.09,0,0,1-.6.46,1.67,1.67,0,0,1-.78.19,1.43,1.43,0,0,1-1.17-.5,2.12,2.12,0,0,1-.41-1.38,3.57,3.57,0,0,1,.16-1,3.42,3.42,0,0,1,.45-1,2.72,2.72,0,0,1,.77-.74,2,2,0,0,1,1.08-.29,1.19,1.19,0,0,1,.64.16,1.49,1.49,0,0,1,.47.39,2.1,2.1,0,0,1,.29.5A2.79,2.79,0,0,1,330.47,97.22ZM329,96.54l-.16,0h-.16a1.1,1.1,0,0,0-.65.21,2,2,0,0,0-.48.55,2.94,2.94,0,0,0-.29.71,2.76,2.76,0,0,0-.1.72,1.48,1.48,0,0,0,.22.83.82.82,0,0,0,.71.32,1,1,0,0,0,.61-.22,2.29,2.29,0,0,0,.48-.54,3.21,3.21,0,0,0,.31-.73,2.81,2.81,0,0,0,.11-.73,1.4,1.4,0,0,0-.15-.66A.92.92,0,0,0,329,96.54Z" transform="translate(-97 -43.62)"/><path class="cls-3" d="M331.92,100.25l1.66-2L332,96.19l.54-.47,1.48,2,1.52-1.83.54.57-1.59,1.9,1.49,2-.54.47L334,98.89l-1.6,1.92Z" transform="translate(-97 -43.62)"/><path class="cls-3" d="M338.28,95.47l-.82.23-.75-1.78.82-.21Zm-1.08,5.25V96.43H338v4.33Z" transform="translate(-97 -43.62)"/><path class="cls-3" d="M340.92,95.77a2.17,2.17,0,0,1,1,.21,1.88,1.88,0,0,1,.67.58,2.58,2.58,0,0,1,.37.86,4.32,4.32,0,0,1,.12,1,3.47,3.47,0,0,1-.2,1.09,2.35,2.35,0,0,1-.48.77,1.94,1.94,0,0,1-.66.45,2,2,0,0,1-.77.15,1.92,1.92,0,0,1-.92-.21,2,2,0,0,1-.66-.57,2.7,2.7,0,0,1-.39-.82,3.52,3.52,0,0,1-.14-1,3.42,3.42,0,0,1,.15-1,2.63,2.63,0,0,1,.41-.82,1.85,1.85,0,0,1,.64-.54A1.87,1.87,0,0,1,340.92,95.77Zm.07.8a1.3,1.3,0,0,0-1,.4,1.8,1.8,0,0,0-.37,1.27,2.29,2.29,0,0,0,.1.68,2.32,2.32,0,0,0,.26.6,1.51,1.51,0,0,0,.43.44.94.94,0,0,0,.55.17,1.1,1.1,0,0,0,.57-.15,1.4,1.4,0,0,0,.44-.4,2.2,2.2,0,0,0,.27-.53,1.77,1.77,0,0,0,.1-.58A2.26,2.26,0,0,0,342,97,1.21,1.21,0,0,0,341,96.57Z" transform="translate(-97 -43.62)"/><path class="cls-3" d="M347,96.22l-.16.7a1.79,1.79,0,0,0-.26-.1,2.47,2.47,0,0,0-.35-.1l-.41-.08-.4,0a1.5,1.5,0,0,0-.6.11.38.38,0,0,0-.26.37.39.39,0,0,0,.21.34,1.79,1.79,0,0,0,.5.24,4.18,4.18,0,0,0,.58.16l.45.1a1.89,1.89,0,0,1,.57.27,1.94,1.94,0,0,1,.34.37,1.42,1.42,0,0,1,.17.4,2,2,0,0,1,0,.41,1.23,1.23,0,0,1-.19.71,1.57,1.57,0,0,1-.49.47,2.08,2.08,0,0,1-.67.26,3.08,3.08,0,0,1-.73.08,3.81,3.81,0,0,1-1.08-.15,2.15,2.15,0,0,1-.8-.41l.28-.8a2.22,2.22,0,0,0,.34.22,2.65,2.65,0,0,0,.42.18,2.61,2.61,0,0,0,.5.11,2.89,2.89,0,0,0,.5,0,1.65,1.65,0,0,0,.75-.16.74.74,0,0,0,.4-.57,1.76,1.76,0,0,0,0-.19.6.6,0,0,0-.08-.21.63.63,0,0,0-.2-.2.89.89,0,0,0-.38-.13,6.94,6.94,0,0,1-.89-.19,2.92,2.92,0,0,1-.69-.29,1.5,1.5,0,0,1-.47-.43,1,1,0,0,1-.17-.59,1.07,1.07,0,0,1,.44-.95,2.33,2.33,0,0,1,1.28-.29,4.12,4.12,0,0,1,.86.09A2.36,2.36,0,0,1,347,96.22Z" transform="translate(-97 -43.62)"/></svg>