<svg id="레이어_1" data-name="레이어 1" xmlns="http://www.w3.org/2000/svg" viewBox="0 0 314.85 127.43"><defs><style>.cls-1{fill:#5a5858;}.cls-2{fill:#6f6f6f;}.cls-2,.cls-4,.cls-5,.cls-7{opacity:0.6;}.cls-3{fill:#fcf6f5;}.cls-4{fill:#f08d9d;}.cls-5{fill:#89abe2;}.cls-6{fill:#97e9ff;opacity:0.8;}.cls-7{fill:#343434;}</style></defs><title>works_hobbystagram&amp;apos;</title><path class="cls-1" d="M58.51,47.87V35.62H62v5.25h5.25V35.62h3.5V47.87h-3.5V42.62H62v5.25Z" transform="translate(-57 -35.62)"/><path class="cls-1" d="M74.26,47.87V46.12H72.51V40.87h1.75V39.12H83v1.75h1.75v5.25H83v1.75ZM76,46.12h5.25V40.87H76Z" transform="translate(-57 -35.62)"/><path class="cls-1" d="M88.26,47.87V46.12H86.51V35.62H90v3.5h7v1.75h1.75v5.25H97v1.75ZM90,46.12h5.25V40.87H90Z" transform="translate(-57 -35.62)"/><path class="cls-1" d="M102.26,47.87V46.12h-1.75V35.62H104v3.5h7v1.75h1.75v5.25H111v1.75ZM104,46.12h5.25V40.87H104Z" transform="translate(-57 -35.62)"/><path class="cls-1" d="M116.26,49.62V47.87h7V46.12h-7V44.37h-1.75V39.12H118v5.25h5.25V39.12h3.5v8.75H125v1.75Z" transform="translate(-57 -35.62)"/><path class="cls-1" d="M128.51,47.87V46.12h8.75V44.37h-7V42.62h-1.75V40.87h1.75V39.12H139v1.75h-7v1.75h7v1.75h1.75v1.75H139v1.75Z" transform="translate(-57 -35.62)"/><path class="cls-1" d="M147.76,47.87v-7h-3.5V39.12h3.5v-3.5h3.5v3.5h3.5v1.75h-3.5v7Z" transform="translate(-57 -35.62)"/><path class="cls-1" d="M158.26,47.87V46.12h-1.75V44.37h1.75V42.62h7V40.87h-7V39.12H167v1.75h1.75v7ZM160,46.12h5.25V44.37H160Z" transform="translate(-57 -35.62)"/><path class="cls-1" d="M172.26,49.62V47.87h7V46.12h-7V44.37h-1.75v-3.5h1.75V39.12h10.5v8.75H181v1.75ZM174,44.37h5.25v-3.5H174Z" transform="translate(-57 -35.62)"/><path class="cls-1" d="M189.76,40.87h1.75v1.75h-1.75v5.25h-3.5V39.12h3.5Zm7-1.75v1.75h-5.25V39.12Z" transform="translate(-57 -35.62)"/><path class="cls-1" d="M200.26,47.87V46.12h-1.75V44.37h1.75V42.62h7V40.87h-7V39.12H209v1.75h1.75v7ZM202,46.12h5.25V44.37H202Z" transform="translate(-57 -35.62)"/><path class="cls-1" d="M212.51,47.87V39.12H223v1.75h1.75v7h-3.5v-7h-1.75v7H216v-7h-1.75v7Z" transform="translate(-57 -35.62)"/><rect class="cls-2" y="23.38" width="95" height="18" rx="3"/><path class="cls-3" d="M66.08,70.34h3.38v.74H63.6v-.8h1.92V67.7h.56Zm2.74-5v4H68V67.06H64.21v-.78H68.1v-.67H64.27v-.84h4.31Z" transform="translate(-57 -35.62)"/><path class="cls-3" d="M78.25,71.67h-6.8V71h6.8ZM73,69.23l-.41-.37v-3h4.29v.64H73.25v2.13h3.87v.67Z" transform="translate(-57 -35.62)"/><path class="cls-3" d="M86.1,71.47H79.7v-.64h6.4Zm-5.58-2.55,2-2.23V65.15h.7v1.54l2.07,1.89-.35.51-2-1.8L81,69.38Z" transform="translate(-57 -35.62)"/><path class="cls-3" d="M90.93,69.48v.65H87.7l-.37-.49V65.36H90.4v.51H88v1.35h2v.64H88V69.4ZM92.2,67.9H90.52v-.65h1.64V65.13h.64v5.43l-.6,0Zm1.46,2.95V64.91h.67v5.88Z" transform="translate(-57 -35.62)"/><path class="cls-3" d="M95.61,67.37a3.39,3.39,0,0,1,.09-.74A2.4,2.4,0,0,1,96,65.9a1.63,1.63,0,0,1,.54-.57,1.56,1.56,0,0,1,.87-.22,1.5,1.5,0,0,1,.84.22,1.76,1.76,0,0,1,.55.57,2.45,2.45,0,0,1,.3.73,3.17,3.17,0,0,1,0,1.5,2.34,2.34,0,0,1-.3.73,1.67,1.67,0,0,1-.55.54,1.71,1.71,0,0,1-1.68,0,1.67,1.67,0,0,1-.55-.54,2.34,2.34,0,0,1-.3-.73A3.42,3.42,0,0,1,95.61,67.37Zm.65,0a3.49,3.49,0,0,0,0,.53,1.93,1.93,0,0,0,.17.53,1.22,1.22,0,0,0,.35.4.91.91,0,0,0,.56.16.88.88,0,0,0,.55-.16,1.25,1.25,0,0,0,.36-.4,2.37,2.37,0,0,0,.18-.53,3.4,3.4,0,0,0,0-.53,2.55,2.55,0,0,0,0-.53,1.61,1.61,0,0,0-.18-.52,1.07,1.07,0,0,0-.35-.41.88.88,0,0,0-.55-.16.94.94,0,0,0-.57.16,1.16,1.16,0,0,0-.35.41,1.87,1.87,0,0,0-.17.52A3.4,3.4,0,0,0,96.26,67.37Zm4.78,3.4V64.09h.81v6.68Z" transform="translate(-57 -35.62)"/><path class="cls-3" d="M110.24,71.47h-6.4v-.64h6.4Zm-1-5.09h-1.94v.93l2.21,1.88-.43.43L107,67.92l-2,1.7-.49-.47,2.09-1.82v-1h-1.88v-.63h1.84V64.31h.66v1.44h2Z" transform="translate(-57 -35.62)"/><path class="cls-3" d="M121,71.67h-6.79V71H121Zm-.66-2.58.06.61H115v-.78h.8l.27-2.78-.91-.08.07-.64h4.87v.9h-.78V69Zm-3.59-2.91L116.53,69h2V66.26Z" transform="translate(-57 -35.62)"/><path class="cls-3" d="M123.82,64.6h3.87V67h-3.52v1.37h3.91v.53h-2v1.89h3.06v.72h-6.84v-.8h3.15V69H124l-.46-.38v-2.2H127V65.2h-3.2Z" transform="translate(-57 -35.62)"/><path class="cls-3" d="M133.74,64.93v.63h-1.35v1.23l1.94,2-.41.45-1.86-1.86L130.5,69.4,130,69l1.66-2.14V65.56h-1.56v-.65ZM137,73h-.6V70.93h-4.71v-.67h5l.35.41Zm-1.29-8.32v4.74h-.62V67h-1.76v-.62h1.74V64.72Zm.69-.08.66.1v4.74h-.66Z" transform="translate(-57 -35.62)"/><path class="cls-3" d="M145.17,71.67h-6.8V71h6.8ZM144,68.86v.64h-4.12l-.37-.49V65.42h4v.51h-3.32V67h3.51v.57h-3.51v1.17Z" transform="translate(-57 -35.62)"/><rect class="cls-4" x="100" y="23.38" width="40" height="18" rx="3"/><path class="cls-3" d="M168.75,68.08v.64h-3.54l-.37-.49V64.35h3.38v.5h-2.74V66h2.74v.74h-2.74V68Zm-3.83,1.54h6.74v3h-6.35l-.29-.28Zm.76.66V72H171V70.28ZM171,63.84V69h-.7V63.82Z" transform="translate(-57 -35.62)"/><path class="cls-3" d="M175.15,63.64l.28.57a4.15,4.15,0,0,0-1.15.74,3.25,3.25,0,0,0-.7.93,3.88,3.88,0,0,0-.37,1.12,8.63,8.63,0,0,0-.1,1.28,5.45,5.45,0,0,0,.12,1.19,3,3,0,0,0,.4,1,2.46,2.46,0,0,0,.74.73,3.79,3.79,0,0,0,1.11.49l0,.57a4.34,4.34,0,0,1-1.22-.46,3.41,3.41,0,0,1-.93-.75,3.25,3.25,0,0,1-.61-1,3.55,3.55,0,0,1-.21-1.24c0-.1,0-.19,0-.29v-.28a7.14,7.14,0,0,1,.13-1.42,4.6,4.6,0,0,1,.46-1.24,4.09,4.09,0,0,1,.83-1A5.51,5.51,0,0,1,175.15,63.64Z" transform="translate(-57 -35.62)"/><path class="cls-3" d="M178.94,71.36V69.54h-2.5l-.27-.23.53-4.83.6.06-.45,4.36H179V64.62h.62V69h1.13v.6h-1.14v1.8Z" transform="translate(-57 -35.62)"/><path class="cls-3" d="M181.6,66.46a2.61,2.61,0,0,1,.1-.75,2,2,0,0,1,.32-.64,1.64,1.64,0,0,1,.56-.44,1.83,1.83,0,0,1,.81-.17,1.72,1.72,0,0,1,.87.25,2,2,0,0,1,.54.53,2,2,0,0,1,.27.64,2.28,2.28,0,0,1,.08.58,3,3,0,0,1-.07.61,2,2,0,0,1-.27.65,1.76,1.76,0,0,1-2.26.55,1.73,1.73,0,0,1-.55-.49,2,2,0,0,1-.3-.66A2.3,2.3,0,0,1,181.6,66.46Zm.62,0v.05a.11.11,0,0,0,0,0,1.35,1.35,0,0,0,.11.55,1.15,1.15,0,0,0,.28.39,1.58,1.58,0,0,0,.39.24,1.24,1.24,0,0,0,.41.08.92.92,0,0,0,.44-.1,1.07,1.07,0,0,0,.35-.29,1.76,1.76,0,0,0,.23-.43,1.61,1.61,0,0,0,.09-.54,2.26,2.26,0,0,0-.09-.53,1.76,1.76,0,0,0-.23-.43,1.12,1.12,0,0,0-.36-.29,1,1,0,0,0-.45-.12,1,1,0,0,0-.82.37A1.69,1.69,0,0,0,182.22,66.46Zm1.58,5.68V69.78h.67v2H188l0,.62h-4Zm3.83-8.3v6.09h-.7V63.82Z" transform="translate(-57 -35.62)"/><path class="cls-3" d="M189.18,64.21l.27-.57a5.6,5.6,0,0,1,1.29.88,4.26,4.26,0,0,1,.84,1.08,4.51,4.51,0,0,1,.44,1.28,7.48,7.48,0,0,1,.13,1.46c0,.29,0,.55,0,.8a5,5,0,0,1-.14.69,2.57,2.57,0,0,1-.27.61,3,3,0,0,1-.41.57,3.88,3.88,0,0,1-.94.75,4.15,4.15,0,0,1-1.2.46l0-.57a3.79,3.79,0,0,0,1.11-.49,2.7,2.7,0,0,0,.73-.74,2.73,2.73,0,0,0,.39-1,5.54,5.54,0,0,0,.12-1.2,7.5,7.5,0,0,0-.1-1.29,4,4,0,0,0-.36-1.11,3.4,3.4,0,0,0-.71-.91A4.11,4.11,0,0,0,189.18,64.21Z" transform="translate(-57 -35.62)"/><rect class="cls-5" x="145" y="23.38" width="30" height="18" rx="3"/><path class="cls-3" d="M212.45,70.81h2.09v.55l-1,0c-.35,0-.7,0-1,0l-.46,0-.43,0-.12-.41a3.09,3.09,0,0,1,.36-.46l.53-.55q.28-.3.57-.63a5.76,5.76,0,0,0,.53-.69,3.9,3.9,0,0,0,.39-.76,2.18,2.18,0,0,0,.15-.8,2.34,2.34,0,0,0-.06-.5,1.63,1.63,0,0,0-.2-.49,1.12,1.12,0,0,0-.38-.37,1.1,1.1,0,0,0-.59-.15,2.27,2.27,0,0,0-.5.06,1.52,1.52,0,0,0-.48.23,1.23,1.23,0,0,0-.37.46,1.6,1.6,0,0,0-.15.74,1.78,1.78,0,0,0,.16.75l-.57.17a2.85,2.85,0,0,1-.16-1,2.29,2.29,0,0,1,.16-.9,1.76,1.76,0,0,1,.45-.64,1.7,1.7,0,0,1,.66-.39,2.26,2.26,0,0,1,.79-.14,1.78,1.78,0,0,1,.71.15,1.87,1.87,0,0,1,.59.42,1.9,1.9,0,0,1,.41.64,2.24,2.24,0,0,1,.15.84,2.62,2.62,0,0,1-.13.83,4.28,4.28,0,0,1-.34.79,5.41,5.41,0,0,1-.45.72c-.17.23-.33.43-.49.62l-.45.5C212.63,70.6,212.53,70.72,212.45,70.81Z" transform="translate(-57 -35.62)"/><path class="cls-3" d="M218.92,70h-3.26v-.7h6.87v.74H219.6v2.4h-.68Zm-2.25-2.17,2.07-1.75V65h-1.91v-.6h4.43v.58h-1.77v1.2l1.95,1.66-.39.48-2-1.56-1.94,1.66Z" transform="translate(-57 -35.62)"/><rect class="cls-6" y="45.38" width="40" height="18" rx="3"/><path class="cls-3" d="M65.21,89.46V93.4h-.86V85.92l.56-.52.54-.06.55,0a6.26,6.26,0,0,1,1.23.12,4,4,0,0,1,1.06.39,2.26,2.26,0,0,1,.76.67,1.73,1.73,0,0,1,.29,1,1.8,1.8,0,0,1-.69,1.5,2.21,2.21,0,0,1-.72.36,4.42,4.42,0,0,1-.82.17l1.85,3-.61.42-2.06-3.32-.55,0A1.61,1.61,0,0,1,65.21,89.46Zm.05-.71a3.72,3.72,0,0,0,1,.13,5.35,5.35,0,0,0,.79-.06,2.75,2.75,0,0,0,.72-.22,1.47,1.47,0,0,0,.52-.43,1.11,1.11,0,0,0,.2-.67,1.07,1.07,0,0,0-.18-.61,1.31,1.31,0,0,0-.48-.45,2.85,2.85,0,0,0-.73-.28,3.62,3.62,0,0,0-.89-.1l-.45,0-.46.07c0,.42-.06.85-.07,1.32S65.26,88.36,65.26,88.75Z" transform="translate(-57 -35.62)"/><path class="cls-3" d="M70.16,90.28a2.73,2.73,0,0,1,.19-1.09,2,2,0,0,1,.47-.7,1.65,1.65,0,0,1,.64-.37,2.08,2.08,0,0,1,.68-.12,2.47,2.47,0,0,1,.84.14,1.57,1.57,0,0,1,.64.44,2.08,2.08,0,0,1,.4.83,4.6,4.6,0,0,1,.15,1.27L70.91,91a1.18,1.18,0,0,0,.55.93,1.68,1.68,0,0,0,.48.2,2.33,2.33,0,0,0,.53.06,3,3,0,0,0,.85-.13,1.5,1.5,0,0,0,.61-.32l.21.56a.91.91,0,0,1-.24.24,1.78,1.78,0,0,1-.39.2,2.44,2.44,0,0,1-.5.14,2.62,2.62,0,0,1-.57.06,3,3,0,0,1-.82-.13,1.94,1.94,0,0,1-.74-.44,2.18,2.18,0,0,1-.52-.81A3.35,3.35,0,0,1,70.16,90.28Zm.68,0L73.42,90a1.36,1.36,0,0,0-.31-.92,1.24,1.24,0,0,0-1-.35,1.26,1.26,0,0,0-.57.15,1.3,1.3,0,0,0-.41.32,1.18,1.18,0,0,0-.24.44,1.42,1.42,0,0,0-.08.5A.53.53,0,0,0,70.84,90.3Z" transform="translate(-57 -35.62)"/><path class="cls-3" d="M79.11,89.22l.75,3.19-.7.26-.42-2a3.62,3.62,0,0,1-.26.68,2.94,2.94,0,0,1-.42.64,2.09,2.09,0,0,1-.6.46,1.66,1.66,0,0,1-.77.19,1.43,1.43,0,0,1-1.18-.5,2.12,2.12,0,0,1-.41-1.38,3.57,3.57,0,0,1,.16-1,3.42,3.42,0,0,1,.45-1,2.72,2.72,0,0,1,.77-.74,2,2,0,0,1,1.08-.29,1.19,1.19,0,0,1,.64.16,1.49,1.49,0,0,1,.47.39,2.1,2.1,0,0,1,.29.5A2.79,2.79,0,0,1,79.11,89.22Zm-1.43-.68-.16,0h-.16a1.1,1.1,0,0,0-.65.21,2,2,0,0,0-.48.55,2.94,2.94,0,0,0-.29.71,2.76,2.76,0,0,0-.1.72,1.48,1.48,0,0,0,.22.83.82.82,0,0,0,.71.32,1,1,0,0,0,.61-.22,2.29,2.29,0,0,0,.48-.54,3.21,3.21,0,0,0,.31-.73,2.81,2.81,0,0,0,.11-.73,1.4,1.4,0,0,0-.15-.66A.92.92,0,0,0,77.68,88.54Z" transform="translate(-57 -35.62)"/><path class="cls-3" d="M84.71,88.4l-.21.75a2.45,2.45,0,0,0-.73-.45,2,2,0,0,0-.76-.14,1.52,1.52,0,0,0-.6.11,1.29,1.29,0,0,0-.5.33,1.58,1.58,0,0,0-.33.55,2.18,2.18,0,0,0-.13.75,2.32,2.32,0,0,0,.14.85,1.55,1.55,0,0,0,.36.55,1.32,1.32,0,0,0,.51.3,2,2,0,0,0,.59.09,1.4,1.4,0,0,0,.53-.11,1.44,1.44,0,0,0,.48-.28,1.65,1.65,0,0,0,.35-.43,1.35,1.35,0,0,0,.16-.57l.66.33a2,2,0,0,1-.22.82,1.85,1.85,0,0,1-.49.58,2.06,2.06,0,0,1-.69.36,3,3,0,0,1-.79.11,2.55,2.55,0,0,1-.86-.15,2.29,2.29,0,0,1-.75-.48,2.43,2.43,0,0,1-.53-.8,3.09,3.09,0,0,1-.2-1.14,3,3,0,0,1,.17-1,2.43,2.43,0,0,1,.46-.8A2.1,2.1,0,0,1,82,88a2.18,2.18,0,0,1,.89-.18,2.71,2.71,0,0,1,.86.14A4.69,4.69,0,0,1,84.71,88.4Z" transform="translate(-57 -35.62)"/><path class="cls-3" d="M86.85,92.43V88.88h-1.2l.07-.85H87V85.64h.8v2.44h1.92v.84h-2v3l1.77-.33.12.79-2.34.5Z" transform="translate(-57 -35.62)"/><rect class="cls-6" x="45.5" y="45.38" width="75" height="18" rx="3"/><path class="cls-3" d="M109.21,89.46V93.4h-.86V85.92l.56-.52.54-.06.55,0a6.26,6.26,0,0,1,1.23.12,4,4,0,0,1,1.06.39,2.26,2.26,0,0,1,.76.67,1.73,1.73,0,0,1,.29,1,1.8,1.8,0,0,1-.69,1.5,2.21,2.21,0,0,1-.72.36,4.42,4.42,0,0,1-.82.17l1.85,3-.61.42-2.06-3.32-.55,0A1.61,1.61,0,0,1,109.21,89.46Zm.05-.71a3.72,3.72,0,0,0,1,.13,5.35,5.35,0,0,0,.79-.06,2.75,2.75,0,0,0,.72-.22,1.47,1.47,0,0,0,.52-.43,1.11,1.11,0,0,0,.2-.67,1.07,1.07,0,0,0-.18-.61,1.31,1.31,0,0,0-.48-.45,2.85,2.85,0,0,0-.73-.28,3.62,3.62,0,0,0-.89-.1l-.45,0-.46.07c0,.42-.06.85-.07,1.32S109.26,88.36,109.26,88.75Z" transform="translate(-57 -35.62)"/><path class="cls-3" d="M114.16,90.28a2.73,2.73,0,0,1,.19-1.09,2,2,0,0,1,.47-.7,1.65,1.65,0,0,1,.64-.37,2.08,2.08,0,0,1,.68-.12,2.47,2.47,0,0,1,.84.14,1.57,1.57,0,0,1,.64.44,2.08,2.08,0,0,1,.4.83,4.6,4.6,0,0,1,.15,1.27l-3.26.31a1.18,1.18,0,0,0,.55.93,1.68,1.68,0,0,0,.48.2,2.33,2.33,0,0,0,.53.06,3,3,0,0,0,.85-.13,1.5,1.5,0,0,0,.61-.32l.21.56a.91.91,0,0,1-.24.24,1.78,1.78,0,0,1-.39.2,2.44,2.44,0,0,1-.5.14,2.62,2.62,0,0,1-.57.06,3,3,0,0,1-.82-.13,1.94,1.94,0,0,1-.74-.44,2.18,2.18,0,0,1-.52-.81A3.35,3.35,0,0,1,114.16,90.28Zm.68,0,2.58-.28a1.36,1.36,0,0,0-.31-.92,1.24,1.24,0,0,0-1-.35,1.26,1.26,0,0,0-.57.15,1.3,1.3,0,0,0-.41.32,1.18,1.18,0,0,0-.24.44,1.42,1.42,0,0,0-.08.5A.53.53,0,0,0,114.84,90.3Z" transform="translate(-57 -35.62)"/><path class="cls-3" d="M123.11,89.22l.75,3.19-.7.26-.42-2a3.62,3.62,0,0,1-.26.68,2.94,2.94,0,0,1-.42.64,2.09,2.09,0,0,1-.6.46,1.66,1.66,0,0,1-.77.19,1.43,1.43,0,0,1-1.18-.5,2.12,2.12,0,0,1-.41-1.38,3.57,3.57,0,0,1,.16-1,3.42,3.42,0,0,1,.45-1,2.72,2.72,0,0,1,.77-.74,2,2,0,0,1,1.08-.29,1.19,1.19,0,0,1,.64.16,1.49,1.49,0,0,1,.47.39,2.1,2.1,0,0,1,.29.5A2.79,2.79,0,0,1,123.11,89.22Zm-1.43-.68-.16,0h-.16a1.1,1.1,0,0,0-.65.21,2,2,0,0,0-.48.55,2.94,2.94,0,0,0-.29.71,2.76,2.76,0,0,0-.1.72,1.48,1.48,0,0,0,.22.83.82.82,0,0,0,.71.32,1,1,0,0,0,.61-.22,2.29,2.29,0,0,0,.48-.54,3.21,3.21,0,0,0,.31-.73,2.81,2.81,0,0,0,.11-.73,1.4,1.4,0,0,0-.15-.66A.92.92,0,0,0,121.68,88.54Z" transform="translate(-57 -35.62)"/><path class="cls-3" d="M128.71,88.4l-.21.75a2.45,2.45,0,0,0-.73-.45,2,2,0,0,0-.76-.14,1.52,1.52,0,0,0-.6.11,1.29,1.29,0,0,0-.5.33,1.58,1.58,0,0,0-.33.55,2.18,2.18,0,0,0-.13.75,2.32,2.32,0,0,0,.14.85,1.55,1.55,0,0,0,.36.55,1.32,1.32,0,0,0,.51.3,2,2,0,0,0,.59.09,1.4,1.4,0,0,0,.53-.11,1.44,1.44,0,0,0,.48-.28,1.65,1.65,0,0,0,.35-.43,1.35,1.35,0,0,0,.16-.57l.66.33a2,2,0,0,1-.22.82,1.85,1.85,0,0,1-.49.58,2.06,2.06,0,0,1-.69.36,3,3,0,0,1-.79.11,2.55,2.55,0,0,1-.86-.15,2.29,2.29,0,0,1-.75-.48,2.43,2.43,0,0,1-.53-.8,3.09,3.09,0,0,1-.2-1.14,3,3,0,0,1,.17-1,2.43,2.43,0,0,1,.46-.8A2.1,2.1,0,0,1,126,88a2.18,2.18,0,0,1,.89-.18,2.71,2.71,0,0,1,.86.14A4.69,4.69,0,0,1,128.71,88.4Z" transform="translate(-57 -35.62)"/><path class="cls-3" d="M130.85,92.43V88.88h-1.2l.07-.85H131V85.64h.8v2.44h1.92v.84h-2v3l1.77-.33.12.79-2.34.5Z" transform="translate(-57 -35.62)"/><path class="cls-3" d="M143.43,89.48h-6.05l.05-.63h6Z" transform="translate(-57 -35.62)"/><path class="cls-3" d="M151.68,88.36V85.19h.68v7.48h-.51V89.06h-3.47v3.61h-1V85.22h1.1v3.14Z" transform="translate(-57 -35.62)"/><path class="cls-3" d="M155.62,87.77a2.13,2.13,0,0,1,1,.21,1.8,1.8,0,0,1,.67.58,2.59,2.59,0,0,1,.38.86,4.34,4.34,0,0,1,.11,1,3.21,3.21,0,0,1-.2,1.09,2.33,2.33,0,0,1-.47.77,2,2,0,0,1-1.43.6,1.88,1.88,0,0,1-1.58-.78,2.51,2.51,0,0,1-.4-.82,3.51,3.51,0,0,1-.13-1,3.42,3.42,0,0,1,.14-1,2.86,2.86,0,0,1,.41-.82,1.88,1.88,0,0,1,.65-.54A1.84,1.84,0,0,1,155.62,87.77Zm.07.8a1.28,1.28,0,0,0-1,.4,1.8,1.8,0,0,0-.37,1.27,2.65,2.65,0,0,0,.09.68,2,2,0,0,0,.27.6,1.61,1.61,0,0,0,.42.44,1,1,0,0,0,.55.17,1.17,1.17,0,0,0,.58-.15,1.36,1.36,0,0,0,.43-.4,1.92,1.92,0,0,0,.28-.53,2.05,2.05,0,0,0,.09-.58,2.33,2.33,0,0,0-.36-1.47A1.21,1.21,0,0,0,155.69,88.57Z" transform="translate(-57 -35.62)"/><path class="cls-3" d="M160.26,87.77a2.2,2.2,0,0,1,1,.21,1.85,1.85,0,0,1,.66.58,2.4,2.4,0,0,1,.38.86,4.32,4.32,0,0,1,.12,1,3.46,3.46,0,0,1-.21,1.09,2.33,2.33,0,0,1-.47.77,2,2,0,0,1-1.43.6,1.88,1.88,0,0,1-1.58-.78,2.51,2.51,0,0,1-.4-.82,3.51,3.51,0,0,1-.13-1,3.77,3.77,0,0,1,.14-1,2.86,2.86,0,0,1,.41-.82,1.88,1.88,0,0,1,.65-.54A1.84,1.84,0,0,1,160.26,87.77Zm.07.8a1.28,1.28,0,0,0-1,.4,1.8,1.8,0,0,0-.37,1.27,2.65,2.65,0,0,0,.09.68,2,2,0,0,0,.27.6,1.61,1.61,0,0,0,.42.44,1,1,0,0,0,.55.17,1.14,1.14,0,0,0,.58-.15,1.36,1.36,0,0,0,.43-.4,1.92,1.92,0,0,0,.28-.53,2.08,2.08,0,0,0,.1-.58A2.32,2.32,0,0,0,161.3,89,1.21,1.21,0,0,0,160.33,88.57Z" transform="translate(-57 -35.62)"/><path class="cls-3" d="M163.82,90.13l2.88-2.59.52.68-1.55,1.47,2.16,2.56-.47.65-2.3-2.63-1,.91v1.58l-.7.1V85.1l.42-.14Z" transform="translate(-57 -35.62)"/><path class="cls-3" d="M171.72,88.22l-.16.7a1.79,1.79,0,0,0-.26-.1,2.47,2.47,0,0,0-.35-.1l-.41-.08-.4,0a1.58,1.58,0,0,0-.61.11.39.39,0,0,0-.25.37.39.39,0,0,0,.21.34,1.79,1.79,0,0,0,.5.24,3.83,3.83,0,0,0,.58.16l.45.1a1.89,1.89,0,0,1,.57.27,1.94,1.94,0,0,1,.34.37,1.42,1.42,0,0,1,.17.4,2,2,0,0,1,0,.41,1.23,1.23,0,0,1-.19.71,1.57,1.57,0,0,1-.49.47,2.17,2.17,0,0,1-.67.26,3.08,3.08,0,0,1-.73.08,3.81,3.81,0,0,1-1.08-.15,2.15,2.15,0,0,1-.8-.41l.28-.8a2.22,2.22,0,0,0,.34.22,2.65,2.65,0,0,0,.42.18,2.61,2.61,0,0,0,.5.11,2.89,2.89,0,0,0,.5,0,1.65,1.65,0,0,0,.75-.16.74.74,0,0,0,.4-.57,1.76,1.76,0,0,0,0-.19.6.6,0,0,0-.08-.21.63.63,0,0,0-.2-.2.89.89,0,0,0-.38-.13,6.94,6.94,0,0,1-.89-.19,2.75,2.75,0,0,1-.69-.29,1.5,1.5,0,0,1-.47-.43,1,1,0,0,1-.17-.59,1.07,1.07,0,0,1,.44-.95,2.33,2.33,0,0,1,1.28-.29,4.12,4.12,0,0,1,.86.09A2.36,2.36,0,0,1,171.72,88.22Z" transform="translate(-57 -35.62)"/><path class="cls-7" d="M58.37,114.35l0-.58c.15,0,.38,0,.66,0h1l.18-1.42.59.14-.17,1.29h1.69l.18-1.73.61.08L63,113.81h.75l.63,0v.6l-.66,0-.79,0-.19,2h.89l.75,0V117l-.77,0-.94,0-.23,2.17-.6-.08.21-2.08H60.21l-.28,2.13-.56,0v-.16l.26-2-.71,0-.55-.06,0-.6.53,0h.77l.25-2-.91,0A5.1,5.1,0,0,1,58.37,114.35Zm3.9.1-.43,0H60.56l-.26,2h1.77Z" transform="translate(-57 -35.62)"/><path class="cls-7" d="M71.87,113H70.24v.78l1.88,1.74-.43.45L70,114.32l-1.76,1.58-.49-.49,1.86-1.66V113H67.76v-.63h1.82v-1.38h.64v1.4h1.65Zm-1.35,4.39v1.72h-.65v-1.72H67.78v-.52h4.46v.41Zm2.85-5.47h.49v6.66h-.49Z" transform="translate(-57 -35.62)"/><path class="cls-7" d="M75.77,112.38h3.07v4.4H76.06l-.31-.37Zm2.4.67H76.44v3h1.69Zm3.11,5.09v-6.68h.8v6.68Z" transform="translate(-57 -35.62)"/><path class="cls-7" d="M90,113l-1.47,5-.66-.14,1.35-4.63H86.47l.06-.76H89.7Zm1.86,5.17v-6.68h.8v6.68Z" transform="translate(-57 -35.62)"/><path class="cls-7" d="M94.56,116.37l-.33-4.54.64-.07.18,1.91h1.68l-.16-1.91.65-.06.35,4.8-2.7.18Zm.65-.43H96.9l-.13-1.74-1.7.13ZM96.47,120v-2.4h.69v2h3.36v.6H96.75Zm2.93-8.4h.67v2.09h1.52v.66h-1.52v3h-.7Z" transform="translate(-57 -35.62)"/><path class="cls-7" d="M105,118l-.47-.47,1.68-2.42.14-2.13H107v2.11l1.88,2.34-.35.47-2-2.15Zm5.53,1.34-.73,0v-7h.81v3h1.48v.63h-1.56Z" transform="translate(-57 -35.62)"/><path class="cls-7" d="M116.65,112.4V113H115.3v1.23l1.94,1.77-.39.51L115,115l-1.56,1.78-.49-.51,1.66-2V113H113v-.65Zm-1.33,7.6v-2.36H116v2h3.53l0,.62h-4Zm3.83-8.3v6.09h-.7v-6.11Z" transform="translate(-57 -35.62)"/><path class="cls-7" d="M126.71,116.19h3.81v.68h-6.84v-.74H126v-1.81h.59Zm2.28-.74h-.62v-2.56h-3.26l.08-.74h3.41l.41.51Zm-3.71,3.47a1.17,1.17,0,0,1,.13-.55,1.27,1.27,0,0,1,.37-.47,1.94,1.94,0,0,1,.61-.31,3.3,3.3,0,0,1,1.69,0,2,2,0,0,1,.62.31,1.38,1.38,0,0,1,.37.47,1.3,1.3,0,0,1,.12.55,1.37,1.37,0,0,1-.12.58,1.26,1.26,0,0,1-.37.46,1.82,1.82,0,0,1-.62.32,3.3,3.3,0,0,1-1.69,0,1.76,1.76,0,0,1-.61-.32,1.16,1.16,0,0,1-.37-.46A1.24,1.24,0,0,1,125.28,118.92Zm3.23,0a.76.76,0,0,0-.34-.61,2,2,0,0,0-1.88,0,.76.76,0,0,0-.32.61.79.79,0,0,0,.32.63,1.89,1.89,0,0,0,1.88,0A.78.78,0,0,0,128.51,118.92Z" transform="translate(-57 -35.62)"/><path class="cls-7" d="M133.8,117.21h-2.09v-.69h6.87v.74h-2v2.43H136v-2.46h-1.47v2.42h-.68Zm-.72-3.11s0,0,0-.06V114a1.51,1.51,0,0,1,.13-.63,1.55,1.55,0,0,1,.39-.53,1.7,1.7,0,0,1,.6-.35,2.18,2.18,0,0,1,.79-.14,3,3,0,0,1,1,.14,2.11,2.11,0,0,1,.68.38,1.58,1.58,0,0,1,.41.53,1.67,1.67,0,0,1,.13.61,1.49,1.49,0,0,1-.18.75,1.63,1.63,0,0,1-.46.52,2,2,0,0,1-.65.31,2.64,2.64,0,0,1-.74.1,2.59,2.59,0,0,1-.66-.08,2.14,2.14,0,0,1-.65-.25,1.63,1.63,0,0,1-.5-.48A1.45,1.45,0,0,1,133.08,114.1Zm2-1.17a2.24,2.24,0,0,0-.52.06,1.42,1.42,0,0,0-.43.2,1,1,0,0,0-.31.34,1.07,1.07,0,0,0-.11.49,1,1,0,0,0,.13.48,1,1,0,0,0,.31.31,1.38,1.38,0,0,0,.47.17,2.47,2.47,0,0,0,.56.06,1.59,1.59,0,0,0,.55-.09,1.4,1.4,0,0,0,.4-.23,1,1,0,0,0,.24-.35.92.92,0,0,0,.08-.4.87.87,0,0,0-.37-.76A1.85,1.85,0,0,0,135.11,112.93Z" transform="translate(-57 -35.62)"/><path class="cls-7" d="M145.62,112.79l-.28.59a.46.46,0,0,0-.18-.13,2,2,0,0,0-.33-.14l-.42-.1a2.18,2.18,0,0,0-.44,0,1.75,1.75,0,0,0-.4,0,1.16,1.16,0,0,0-.34.14.75.75,0,0,0-.23.27,1,1,0,0,0-.08.4,1,1,0,0,0,.24.62,1.59,1.59,0,0,0,.74.48,4.24,4.24,0,0,1,1,.54,2.54,2.54,0,0,1,.54.56,1.55,1.55,0,0,1,.23.56,2.32,2.32,0,0,1,0,.51,1.7,1.7,0,0,1-.52,1.26,2,2,0,0,1-1.44.45,4.39,4.39,0,0,1-.85-.09,8.34,8.34,0,0,1-1-.25l.22-.69a5.15,5.15,0,0,0,.76.22,3.94,3.94,0,0,0,.9.1,2.67,2.67,0,0,0,.5,0,1.36,1.36,0,0,0,.41-.17.86.86,0,0,0,.28-.29,1.08,1.08,0,0,0,.1-.46,1.28,1.28,0,0,0-.22-.75,1.79,1.79,0,0,0-.52-.47,3.89,3.89,0,0,0-.68-.33,3.91,3.91,0,0,1-.67-.36,1.9,1.9,0,0,1-.51-.51,1.48,1.48,0,0,1-.2-.83,1.94,1.94,0,0,1,.12-.72,1.31,1.31,0,0,1,.36-.47,1.36,1.36,0,0,1,.54-.26,2.31,2.31,0,0,1,.67-.09,3.37,3.37,0,0,1,.9.12A3.16,3.16,0,0,1,145.62,112.79Z" transform="translate(-57 -35.62)"/><path class="cls-7" d="M147.16,113.91v4.8h-.76v-6l.68-.1,3,5.27v-5.51l.88.1v6.11l-1.1.18Z" transform="translate(-57 -35.62)"/><path class="cls-7" d="M155.21,112.79l-.28.59a.46.46,0,0,0-.18-.13,2,2,0,0,0-.33-.14L154,113a2.18,2.18,0,0,0-.44,0,1.75,1.75,0,0,0-.4,0,1.16,1.16,0,0,0-.34.14.75.75,0,0,0-.23.27,1,1,0,0,0-.08.4,1,1,0,0,0,.24.62,1.59,1.59,0,0,0,.74.48,4.24,4.24,0,0,1,1,.54,2.54,2.54,0,0,1,.54.56,1.55,1.55,0,0,1,.23.56,2.32,2.32,0,0,1,0,.51,1.7,1.7,0,0,1-.52,1.26,2,2,0,0,1-1.44.45,4.58,4.58,0,0,1-.86-.09,8.69,8.69,0,0,1-1-.25l.22-.69a5.15,5.15,0,0,0,.76.22,3.94,3.94,0,0,0,.9.1,2.74,2.74,0,0,0,.5,0,1.36,1.36,0,0,0,.41-.17.86.86,0,0,0,.28-.29,1.08,1.08,0,0,0,.1-.46,1.28,1.28,0,0,0-.22-.75,1.79,1.79,0,0,0-.52-.47,3.89,3.89,0,0,0-.68-.33,3.91,3.91,0,0,1-.67-.36,1.9,1.9,0,0,1-.51-.51,1.48,1.48,0,0,1-.2-.83,1.94,1.94,0,0,1,.12-.72,1.31,1.31,0,0,1,.36-.47,1.36,1.36,0,0,1,.54-.26,2.29,2.29,0,0,1,.66-.09,3.39,3.39,0,0,1,.91.12A3.16,3.16,0,0,1,155.21,112.79Z" transform="translate(-57 -35.62)"/><path class="cls-7" d="M160.85,116.23v1.23h-.64v-1.23h-1.76v-.57h4v.51Zm1.05-2.79a1.67,1.67,0,0,1-.12.65,1.59,1.59,0,0,1-.32.5,1.5,1.5,0,0,1-.46.33,1.33,1.33,0,0,1-.55.12,1.76,1.76,0,0,1-.77-.16,1.51,1.51,0,0,1-.49-.4,1.54,1.54,0,0,1-.26-.53,2,2,0,0,1-.07-.51,1.69,1.69,0,0,1,.08-.52,1.59,1.59,0,0,1,.26-.52,1.4,1.4,0,0,1,.48-.42,1.62,1.62,0,0,1,1.29,0,1.58,1.58,0,0,1,.48.33,1.5,1.5,0,0,1,.33.51A1.81,1.81,0,0,1,161.9,113.44Zm-2.44,0a1.05,1.05,0,0,0,.24.69.84.84,0,0,0,.72.3.85.85,0,0,0,.35-.08,1.06,1.06,0,0,0,.29-.22,1.13,1.13,0,0,0,.19-.32.94.94,0,0,0,.07-.37,1.34,1.34,0,0,0-.07-.4,1.08,1.08,0,0,0-.21-.34,1.09,1.09,0,0,0-.29-.23.85.85,0,0,0-.76,0,1,1,0,0,0-.47.59A1.26,1.26,0,0,0,159.46,113.44Zm1.25,4.27h.61v.73h3.59v-.75l.63,0v2.71h-4.42l-.41-.2Zm4.26,2.07v-.84h-3.65v.9Zm-.62-2.69h-.69v-3.34h-1.33v-.63h1.27v-1.48h.69Zm.72-5.49h.66v5.53h-.66Z" transform="translate(-57 -35.62)"/><path class="cls-7" d="M169.31,118l-.47-.47,1.68-2.42.13-2.13h.63v2.11l1.87,2.34-.35.47-2-2.15Zm5.52,1.34-.72,0v-7h.8v3h1.49v.63h-1.57Z" transform="translate(-57 -35.62)"/><path class="cls-7" d="M177.41,114.75a3.32,3.32,0,0,1,.09-.74,2.36,2.36,0,0,1,.28-.74,1.63,1.63,0,0,1,.54-.57,1.56,1.56,0,0,1,.87-.22,1.5,1.5,0,0,1,.84.22,1.76,1.76,0,0,1,.55.57,2.4,2.4,0,0,1,.3.74,3.13,3.13,0,0,1,0,1.49,2.25,2.25,0,0,1-.3.73,1.8,1.8,0,0,1-.55.55,1.78,1.78,0,0,1-1.68,0,1.8,1.8,0,0,1-.55-.55,2.25,2.25,0,0,1-.3-.73A3.33,3.33,0,0,1,177.41,114.75Zm.65,0a2.46,2.46,0,0,0,.05.52,1.83,1.83,0,0,0,.17.53,1.25,1.25,0,0,0,.35.41,1,1,0,0,0,.56.16,1,1,0,0,0,.55-.16,1.25,1.25,0,0,0,.35-.41,1.58,1.58,0,0,0,.18-.53,2.46,2.46,0,0,0,0-.52,3.38,3.38,0,0,0,0-.53,2.21,2.21,0,0,0-.18-.53,1.13,1.13,0,0,0-.35-.4.9.9,0,0,0-.55-.17.92.92,0,0,0-.57.17,1.13,1.13,0,0,0-.35.4,1.83,1.83,0,0,0-.17.53A3.32,3.32,0,0,0,178.06,114.75Zm4.78,3.39v-6.68h.8v6.68Z" transform="translate(-57 -35.62)"/><path class="cls-7" d="M192.24,119h-6.8v-.64h6.8Zm-1.16-2.81v.64H187l-.37-.48v-3.6h4v.51h-3.32v1.11h3.51V115h-3.51v1.17Z" transform="translate(-57 -35.62)"/><path class="cls-7" d="M58.45,129.76l0-.59a5.31,5.31,0,0,0,.67,0h1l.19-1.41.59.13-.17,1.29h1.69l.18-1.73.6.08L63,129.21h.75a5.78,5.78,0,0,0,.63,0v.61l-.65,0-.79,0-.2,2h.89l.75,0v.63l-.76,0c-.3,0-.62,0-.95,0l-.22,2.17-.61-.08.22-2.08-.64,0H60.3L60,134.6l-.57,0v-.15l.26-2c-.26,0-.49,0-.71,0l-.55-.05,0-.61.53,0h.77l.26-1.95c-.34,0-.64,0-.91,0A5.49,5.49,0,0,1,58.45,129.76Zm3.9.1-.43,0H60.64l-.25,1.94h1.77Z" transform="translate(-57 -35.62)"/><path class="cls-7" d="M74.67,134.45h-6.8v-.65h6.8ZM74,131.87l.06.6H68.65v-.78h.8l.27-2.77-.91-.08.07-.64h4.87v.89H73v2.72ZM70.41,129l-.24,2.85h2V129Z" transform="translate(-57 -35.62)"/><path class="cls-7" d="M77.28,126.58h4.08v2.34H77.69V130h4.07v.57h-2l.08,1.11h2.89v.69H75.92v-.75h3.24l-.07-1H77.46l-.47-.41v-1.88h3.75v-1.17H77.3Zm.3,8.94-.28-.33L77.13,133h.62v1.88l4.44.09v.48s0,.07,0,.09v.06Z" transform="translate(-57 -35.62)"/><path class="cls-7" d="M90.76,134.45H84v-.65h6.8Zm-1.15-2.82v.65H85.49l-.38-.49V128.2h4v.5H85.76v1.12h3.51v.56H85.76v1.18Z" transform="translate(-57 -35.62)"/><path class="cls-7" d="M91.77,129.7c0-.06,0-.15,0-.28a2.45,2.45,0,0,1,.09-.42,3.36,3.36,0,0,1,.17-.47,1.9,1.9,0,0,1,.31-.45,1.4,1.4,0,0,1,.46-.32,1.45,1.45,0,0,1,.65-.13,1.51,1.51,0,0,1,1.19.54,1.75,1.75,0,0,1,.3.48,2.7,2.7,0,0,1,.16.48l1.44,0v-1.62h.64V133h-.62v-3.24l-1.39,0a3.75,3.75,0,0,1-.09.54,2.45,2.45,0,0,1-.26.66,1.72,1.72,0,0,1-.51.57,1.41,1.41,0,0,1-.86.24,1.45,1.45,0,0,1-.87-.24,1.71,1.71,0,0,1-.52-.59,2.21,2.21,0,0,1-.24-.68A3.88,3.88,0,0,1,91.77,129.7Zm.63,0a2.68,2.68,0,0,0,0,.46,2,2,0,0,0,.18.48A1.2,1.2,0,0,0,93,131a.75.75,0,0,0,.5.16A.85.85,0,0,0,94,131a1.2,1.2,0,0,0,.34-.37,1.5,1.5,0,0,0,.19-.47,1.95,1.95,0,0,0,0-1,1.46,1.46,0,0,0-.19-.48,1,1,0,0,0-.35-.36.89.89,0,0,0-.53-.14.73.73,0,0,0-.46.15,1.31,1.31,0,0,0-.33.37,2.53,2.53,0,0,0-.19.48A2,2,0,0,0,92.4,129.7Zm1.43,5.53v-2.6h.68v2.25H99v.6H94.1Zm4.29-7.83h.67V133h-.67Z" transform="translate(-57 -35.62)"/><path class="cls-7" d="M106.85,134.45h-6.79v-.65h6.79ZM101.64,132l-.41-.37v-3h4.29v.64h-3.67v2.13h3.87V132Z" transform="translate(-57 -35.62)"/><path class="cls-7" d="M111,131.42l-.45-.35v-3.46H114v.66h-2.77v2.5h3v.67Zm-.07,1.46h6.73v3h-6.34l-.3-.27Zm.76.67v1.72H117v-1.72Zm3.92-6.53h.67v2.09h1.52v.67h-1.52v2.44h-.71Z" transform="translate(-57 -35.62)"/><path class="cls-7" d="M119,131.42l-.45-.35v-3.46H122v.66h-2.77v2.5h3v.67Zm1.47,2.81a1.38,1.38,0,0,1,.12-.56,1.24,1.24,0,0,1,.37-.46,1.85,1.85,0,0,1,.61-.31,3.3,3.3,0,0,1,1.69,0,1.8,1.8,0,0,1,.62.31,1.34,1.34,0,0,1,.37.46,1.38,1.38,0,0,1,.12.56,1.4,1.4,0,0,1-.12.58,1.34,1.34,0,0,1-.37.46,1.8,1.8,0,0,1-.62.31,3,3,0,0,1-1.69,0,1.85,1.85,0,0,1-.61-.31,1.24,1.24,0,0,1-.37-.46A1.4,1.4,0,0,1,120.49,134.23Zm3.22,0a.73.73,0,0,0-.34-.61,1.87,1.87,0,0,0-1.87,0,.75.75,0,0,0-.33.61.77.77,0,0,0,.33.63,1.87,1.87,0,0,0,1.87,0A.75.75,0,0,0,123.71,134.23Zm-.08-7.21h.66v2.09h1.53v.67h-1.53v2.44h-.7Z" transform="translate(-57 -35.62)"/><path class="cls-7" d="M58.45,144.76l0-.59a5.31,5.31,0,0,0,.67,0h1l.19-1.41.59.13-.17,1.29h1.69l.18-1.73.6.08L63,144.21h.75a5.78,5.78,0,0,0,.63,0v.61l-.65,0-.79,0-.2,2h.89l.75,0v.63l-.76,0c-.3,0-.62,0-.95,0l-.22,2.17-.61-.08.22-2.08-.64,0H60.3L60,149.6l-.57,0v-.15l.26-2c-.26,0-.49,0-.71,0l-.55-.05,0-.61.53,0h.77l.26-1.95c-.34,0-.64,0-.91,0A5.49,5.49,0,0,1,58.45,144.76Zm3.9.1-.43,0H60.64l-.25,1.94h1.77Z" transform="translate(-57 -35.62)"/><path class="cls-7" d="M71.11,147.63H67.85v-.7h6.87v.74H71.79v2.4h-.68Zm-2.25-2.17,2.08-1.76v-1.15H69V142h4.43v.58H71.68v1.19l1.95,1.66-.39.49-1.95-1.56L69.35,146Z" transform="translate(-57 -35.62)"/><path class="cls-7" d="M77.22,144.7s0,0,0-.08v-.08a1.65,1.65,0,0,1,.14-.68,1.31,1.31,0,0,1,.4-.53,1.72,1.72,0,0,1,.61-.34,2.24,2.24,0,0,1,.8-.13,2.88,2.88,0,0,1,1,.15,1.9,1.9,0,0,1,.69.38,1.42,1.42,0,0,1,.4.55,1.69,1.69,0,0,1,.13.66,1.52,1.52,0,0,1-.19.79,1.71,1.71,0,0,1-.51.56l.06,2.47h2v.67H75.92v-.76h2.2L78.06,146a1.81,1.81,0,0,1-.57-.5A1.4,1.4,0,0,1,77.22,144.7Zm2.07-1.23a1.81,1.81,0,0,0-.52.07,1.17,1.17,0,0,0-.45.21,1,1,0,0,0-.3.35,1.21,1.21,0,0,0-.11.52.89.89,0,0,0,.12.47,1,1,0,0,0,.34.32,1.46,1.46,0,0,0,.48.19,2.67,2.67,0,0,0,.56.06,1.42,1.42,0,0,0,.57-.1,1.22,1.22,0,0,0,.4-.24,1,1,0,0,0,.23-.35,1,1,0,0,0,.08-.41.9.9,0,0,0-.38-.79A1.72,1.72,0,0,0,79.29,143.47Zm.7,2.77a2.61,2.61,0,0,1-.6.08,2.83,2.83,0,0,1-.63-.07l0,2.14H80Z" transform="translate(-57 -35.62)"/><path class="cls-7" d="M89.86,142.61v.63H88.51v1l1.94,2-.39.51L88.18,145l-1.56,2-.49-.51,1.66-2.15v-1H86.23v-.65Zm2.74,8.16h-.71v-2.2h-4.8v-.65h5.15l.36.41ZM91.44,142h.67v2.09h1.52v.67H92.11v2.44H91.4Z" transform="translate(-57 -35.62)"/><path class="cls-7" d="M94.47,144.8a2.55,2.55,0,0,1,.1-.74,1.65,1.65,0,0,1,.31-.62,1.55,1.55,0,0,1,.55-.42,1.93,1.93,0,0,1,.8-.16,1.72,1.72,0,0,1,.63.13,1.66,1.66,0,0,1,.46.3,2,2,0,0,1,.31.41,3.26,3.26,0,0,1,.2.43l2.28,0v-2h.67v5.12h-.63v-2.46H98v0a2.92,2.92,0,0,1-.08.6,1.91,1.91,0,0,1-.26.63,1.62,1.62,0,0,1-.53.51,1.6,1.6,0,0,1-.87.21,1.73,1.73,0,0,1-.83-.18,1.64,1.64,0,0,1-.53-.48,1.81,1.81,0,0,1-.29-.63A2.61,2.61,0,0,1,94.47,144.8Zm.63,0a1.55,1.55,0,0,0,.08.55,1.09,1.09,0,0,0,.25.4,1.14,1.14,0,0,0,.35.27,1.3,1.3,0,0,0,.43.11,1,1,0,0,0,.79-.38,1.65,1.65,0,0,0,.3-1,1.12,1.12,0,0,0-.08-.45,1.07,1.07,0,0,0-.22-.39,1.11,1.11,0,0,0-.79-.4,1,1,0,0,0-.46.11,1.21,1.21,0,0,0-.34.3,1.36,1.36,0,0,0-.23.41A1.75,1.75,0,0,0,95.1,144.8Zm1.05,3.12h.61v.84h3.59v-.86l.62,0v2.91H96.56l-.41-.19Zm4.26,2.27v-.92H96.76v1Z" transform="translate(-57 -35.62)"/><path class="cls-7" d="M108.61,146.18v.65h-3.53l-.3-.43v-4.06h.65v3.75Zm2.64-4.18h.66v6.61h-.66v-3.87h-1.12v3.81h-.7V142h.7v2.06h1.12Z" transform="translate(-57 -35.62)"/><path class="cls-7" d="M113.1,144.8a2.94,2.94,0,0,1,.1-.74,1.81,1.81,0,0,1,.31-.62,1.65,1.65,0,0,1,.55-.42,1.93,1.93,0,0,1,.8-.16,1.41,1.41,0,0,1,.79.21,2.06,2.06,0,0,1,.53.48l2.57,0V142.1h.66v5.12h-.62v-1.29l-2.49,0a1.75,1.75,0,0,1-.55.57,1.63,1.63,0,0,1-.91.23,1.73,1.73,0,0,1-.83-.18,1.64,1.64,0,0,1-.53-.48,2,2,0,0,1-.29-.63A2.61,2.61,0,0,1,113.1,144.8Zm.63,0a1.55,1.55,0,0,0,.09.55,1.19,1.19,0,0,0,.6.67,1.19,1.19,0,0,0,.42.11,1,1,0,0,0,.79-.38,1.65,1.65,0,0,0,.31-1,1.33,1.33,0,0,0-.08-.45,1.26,1.26,0,0,0-.23-.39,1.13,1.13,0,0,0-.34-.28,1.16,1.16,0,0,0-.45-.12.94.94,0,0,0-.45.11,1.12,1.12,0,0,0-.35.3,1.16,1.16,0,0,0-.22.41A1.48,1.48,0,0,0,113.73,144.8Zm6,6H119v-2.2h-4.8v-.65h5.15l.35.41Zm-3.22-6.58c0,.12.06.23.08.33s0,.2,0,.28a1.93,1.93,0,0,1,0,.24c0,.09,0,.17,0,.27l2.23,0v-1.12Z" transform="translate(-57 -35.62)"/><path class="cls-7" d="M128.53,146.42h-5l0-.53h5Z" transform="translate(-57 -35.62)"/><path class="cls-7" d="M135.08,146.59h3.8v.69h-6.83v-.74h2.36v-1.82H135Zm-1.37,3.93-.43-.33V148h.6v1.88l4.44.09v.31a1.23,1.23,0,0,1,0,.17v.09a.13.13,0,0,1,0,.06Zm3.73-7.77v3.14h-.68v-1.68h-3.32v-.58h3.32v-.69h-3.32v-.58H137Z" transform="translate(-57 -35.62)"/><path class="cls-7" d="M143.49,146.34V147h-3.24l-.37-.49v-3.89H143v.51h-2.45v1.15h2.13v.55h-2.13v1.44Zm-1.58,3.89v-2.6h.69v2.25h4.53v.6h-4.94Zm3.58-7.95V148h-.63v-3.24h-1.68v-.63h1.66V142.3Zm.72-.08.66.1V148h-.66Z" transform="translate(-57 -35.62)"/><path class="cls-7" d="M154.74,149.25h-6.4v-.64h6.4Zm-1-5.1h-1.94v.94L154,147l-.43.43-2.07-1.7-2,1.7-.49-.47,2.09-1.82v-1h-1.88v-.62h1.84v-1.45h.66v1.45h2Z" transform="translate(-57 -35.62)"/><path class="cls-7" d="M162.91,146.87l.06.6H158.4v-.78h.8l.33-3.59h-1l.08-.68,3.83.23,0,.64h-.76v3.52Zm-2.76-3.69-.23,3.63h1v-3.57Zm2,2v-.67h1.64v-2.28h.68v6.09l-.64,0v-3.18Zm3-3.19h.66v6.59h-.66Z" transform="translate(-57 -35.62)"/><path class="cls-7" d="M166.79,145.15a3.39,3.39,0,0,1,.09-.74,2.46,2.46,0,0,1,.28-.74,1.7,1.7,0,0,1,.54-.56,1.56,1.56,0,0,1,.87-.23,1.51,1.51,0,0,1,.84.23,1.83,1.83,0,0,1,.55.56,2.5,2.5,0,0,1,.3.74,3.39,3.39,0,0,1,.09.74,3.49,3.49,0,0,1-.09.76,2.29,2.29,0,0,1-.3.72,1.61,1.61,0,0,1-.55.55,1.71,1.71,0,0,1-1.68,0,1.61,1.61,0,0,1-.55-.55,2.29,2.29,0,0,1-.3-.72A3.49,3.49,0,0,1,166.79,145.15Zm.65,0a3.49,3.49,0,0,0,.05.53,1.77,1.77,0,0,0,.17.52,1.16,1.16,0,0,0,.35.41.91.91,0,0,0,.56.16.88.88,0,0,0,.55-.16,1.19,1.19,0,0,0,.36-.41,2.13,2.13,0,0,0,.18-.52,3.4,3.4,0,0,0,0-.53,2.55,2.55,0,0,0,0-.53,2,2,0,0,0-.18-.53,1.12,1.12,0,0,0-.35-.4.88.88,0,0,0-.55-.16.94.94,0,0,0-.57.16,1.22,1.22,0,0,0-.35.4,1.93,1.93,0,0,0-.17.53A3.4,3.4,0,0,0,167.44,145.15Zm4.78,3.4v-6.68h.8v6.68Z" transform="translate(-57 -35.62)"/><path class="cls-7" d="M178.61,144.29h-1.37v1.54l2,2.37-.39.48-2-2.14-1.56,2.26-.49-.51,1.7-2.44v-1.56H175v-.62h3.63Zm2.11,5.25v-6.68h.8v6.68Z" transform="translate(-57 -35.62)"/><path class="cls-7" d="M185.31,141.91l.27.56a4.51,4.51,0,0,0-1.14.75,3.49,3.49,0,0,0-.71.93,4,4,0,0,0-.36,1.11,7.5,7.5,0,0,0-.1,1.29,5.51,5.51,0,0,0,.12,1.19,3,3,0,0,0,.4,1,2.81,2.81,0,0,0,.73.73,4.29,4.29,0,0,0,1.12.49l0,.56a4.72,4.72,0,0,1-1.21-.45,3.88,3.88,0,0,1-.94-.75,3.27,3.27,0,0,1-.6-1,3.51,3.51,0,0,1-.22-1.24c0-.09,0-.19,0-.28s0-.19,0-.28a7.15,7.15,0,0,1,.14-1.43,4.05,4.05,0,0,1,.46-1.23,4.31,4.31,0,0,1,.83-1.05A5.49,5.49,0,0,1,185.31,141.91Z" transform="translate(-57 -35.62)"/><path class="cls-7" d="M189.7,147.63h-3.26v-.7h6.88v.74h-2.93v2.4h-.69Zm-2.24-2.17,2.07-1.76v-1.15h-1.92V142h4.44v.58h-1.78v1.19l1.95,1.66-.39.49-2-1.56L188,146Z" transform="translate(-57 -35.62)"/><path class="cls-7" d="M201.23,146.87l.06.6h-4.57v-.78h.8l.33-3.59h-1l.08-.68,3.83.23,0,.64H200v3.52Zm-2.76-3.69-.23,3.63h1v-3.57Zm2,2v-.67h1.64v-2.28h.68v6.09l-.64,0v-3.18Zm3-3.19h.66v6.59h-.66Z" transform="translate(-57 -35.62)"/><path class="cls-7" d="M205.11,145.15a3.39,3.39,0,0,1,.09-.74,2.46,2.46,0,0,1,.28-.74,1.7,1.7,0,0,1,.54-.56,1.56,1.56,0,0,1,.87-.23,1.51,1.51,0,0,1,.84.23,1.83,1.83,0,0,1,.55.56,2.5,2.5,0,0,1,.3.74,3.39,3.39,0,0,1,.09.74,3.49,3.49,0,0,1-.09.76,2.29,2.29,0,0,1-.3.72,1.61,1.61,0,0,1-.55.55,1.71,1.71,0,0,1-1.68,0,1.61,1.61,0,0,1-.55-.55,2.29,2.29,0,0,1-.3-.72A3.49,3.49,0,0,1,205.11,145.15Zm.65,0a3.49,3.49,0,0,0,.05.53,1.77,1.77,0,0,0,.17.52,1.16,1.16,0,0,0,.35.41.91.91,0,0,0,.56.16.88.88,0,0,0,.55-.16,1.19,1.19,0,0,0,.36-.41,2.13,2.13,0,0,0,.18-.52,3.4,3.4,0,0,0,0-.53,2.55,2.55,0,0,0-.05-.53,1.66,1.66,0,0,0-.18-.53,1.12,1.12,0,0,0-.35-.4.88.88,0,0,0-.55-.16.94.94,0,0,0-.57.16,1.22,1.22,0,0,0-.35.4,1.93,1.93,0,0,0-.17.53A3.4,3.4,0,0,0,205.76,145.15Zm4.78,3.4v-6.68h.81v6.68Z" transform="translate(-57 -35.62)"/><path class="cls-7" d="M216.93,144.29h-1.37v1.54l2,2.37-.39.48-2-2.14-1.56,2.26-.49-.51,1.7-2.44v-1.56h-1.56v-.62h3.63Zm2.11,5.25v-6.68h.8v6.68Z" transform="translate(-57 -35.62)"/><path class="cls-7" d="M220.74,142.47l.27-.56a5.38,5.38,0,0,1,1.3.88,3.9,3.9,0,0,1,.83,1.08,4.46,4.46,0,0,1,.45,1.27,8.43,8.43,0,0,1,.13,1.46,6.58,6.58,0,0,1,0,.8,3.66,3.66,0,0,1-.14.69,2.62,2.62,0,0,1-.26.62,3.48,3.48,0,0,1-.41.56,4,4,0,0,1-1,.76,3.92,3.92,0,0,1-1.2.45l0-.56a3.68,3.68,0,0,0,1.11-.5,2.54,2.54,0,0,0,.73-.73,2.75,2.75,0,0,0,.4-1,5.57,5.57,0,0,0,.11-1.2,7.54,7.54,0,0,0-.1-1.3,3.84,3.84,0,0,0-.36-1.1,3.4,3.4,0,0,0-.7-.92A4.42,4.42,0,0,0,220.74,142.47Z" transform="translate(-57 -35.62)"/><path class="cls-7" d="M226.07,144.43l-.51.68-.78-.82.53-.64Zm0,3.79-.76.68-.53-.82.53-.65Z" transform="translate(-57 -35.62)"/><path class="cls-7" d="M62.17,154.42V155H60.7v1.17l2,2-.39.51-1.87-1.83-1.56,2-.49-.51L60,156.23V155H58.45v-.64Zm-.84,7.81v-2.4H62v2h3.36v.6H61.6ZM65,154.08v6.12h-.63v-3.83H62v-.63h2.3V154.1Z" transform="translate(-57 -35.62)"/><path class="cls-7" d="M70.31,156.15H68.77v1.27l2,2.07-.39.43-2-1.89-1.65,2-.48-.47,1.79-2.11v-1.29H66.42v-.62h1.66v-1.45h.67v1.47h1.56Zm-.7,1.41v-.66h1.83v-2.17h.69v6.13l-.65,0v-3.34Zm3.47-3.07h.67v6.62h-.67Z" transform="translate(-57 -35.62)"/><path class="cls-7" d="M79.43,159.61H77.34v-.68h6.88v.74h-2v2.42h-.68v-2.46H80.11v2.42h-.68Zm-.72-3.11a.11.11,0,0,0,0-.05v-.07a1.45,1.45,0,0,1,.14-.64,1.62,1.62,0,0,1,.38-.52,2,2,0,0,1,.6-.36,2.22,2.22,0,0,1,.79-.13,3,3,0,0,1,1,.14,1.94,1.94,0,0,1,.68.38,1.38,1.38,0,0,1,.41.53,1.46,1.46,0,0,1,.13.61,1.47,1.47,0,0,1-.18.74,1.61,1.61,0,0,1-.45.52,1.86,1.86,0,0,1-.65.31,2.78,2.78,0,0,1-.75.11,3.13,3.13,0,0,1-.66-.08,2,2,0,0,1-.64-.26,1.66,1.66,0,0,1-.51-.48A1.55,1.55,0,0,1,78.71,156.5Zm2-1.17a1.7,1.7,0,0,0-.51.07,1.18,1.18,0,0,0-.44.19,1,1,0,0,0-.31.34,1.12,1.12,0,0,0-.11.5,1,1,0,0,0,.13.47.87.87,0,0,0,.32.31,1.47,1.47,0,0,0,.46.18,3.33,3.33,0,0,0,.56.05,1.55,1.55,0,0,0,.55-.09,1.05,1.05,0,0,0,.4-.23.88.88,0,0,0,.24-.34,1,1,0,0,0,.09-.4.87.87,0,0,0-.38-.76A1.82,1.82,0,0,0,80.74,155.33Z" transform="translate(-57 -35.62)"/><path class="cls-7" d="M89,156H87.63v1.54l2,2.36-.39.49-2-2.15-1.56,2.27-.49-.51,1.7-2.44V156H85.35v-.63H89Zm3,5.29H91.5v-3.59H88.73v-.65h2.69v-2.42H92Z" transform="translate(-57 -35.62)"/><path class="cls-7" d="M96,160.39l-.46-.47,1.68-2.42.13-2.13h.63v2.11l1.87,2.35-.35.46-2-2.14Zm5.53,1.35-.72-.06v-7h.8v3H103v.62h-1.56Z" transform="translate(-57 -35.62)"/><path class="cls-7" d="M107.6,154.81v.62h-1.35v1.23l1.93,1.78-.39.51-1.87-1.59-1.57,1.78-.49-.51,1.66-1.95v-1.25H104v-.64Zm-1.33,7.59V160h.66v2h3.54l0,.63h-4Zm3.83-8.3v6.1h-.71v-6.12Z" transform="translate(-57 -35.62)"/><path class="cls-7" d="M115.68,154.86v-.07h.65l.11,1.54h2.85l-.09-1.56.64,0v4h-1.42v1.82h3v.7h-6.83v-.76h3.14v-1.66h-1.42l-.43-.31Zm3.71,3.31v-1.33h-2.93l.1,1.33Z" transform="translate(-57 -35.62)"/><path class="cls-7" d="M126.27,155.37l-1.47,5-.66-.14,1.35-4.62h-2.76l.06-.77H126Zm1.85,5.18v-6.68h.8v6.68Z" transform="translate(-57 -35.62)"/><path class="cls-7" d="M131.4,159.36l.8.78L131,162.05l-.49-.37.86-1.37-.43-.47Z" transform="translate(-57 -35.62)"/><path class="cls-7" d="M139.27,154.73,137.93,159l-.67-.14,1.21-3.85h-2.85l.06-.76H139Zm2.68,8h-.7v-2.2h-4.81v-.65h5.16l.35.41ZM140.8,154h.66v2.09H143v.67h-1.53v2.44h-.7Z" transform="translate(-57 -35.62)"/><path class="cls-7" d="M146.4,160.39l-.46-.47,1.67-2.42.14-2.13h.63v2.11l1.87,2.35-.35.46-2-2.14Zm5.53,1.35-.72-.06v-7h.8v3h1.48v.62h-1.56Z" transform="translate(-57 -35.62)"/><path class="cls-7" d="M158,154.81v.62H156.7v1.23l1.93,1.78-.39.51-1.88-1.59-1.56,1.78-.49-.51,1.66-1.95v-1.25h-1.56v-.64Zm-1.32,7.59V160h.66v2h3.54l0,.63h-4Zm3.82-8.3v6.1h-.7v-6.12Z" transform="translate(-57 -35.62)"/><path class="cls-7" d="M171.91,158.18H165l0-.54h6.81Zm-5.6.94H171v2.15h-4.33v.86h4.92v.51h-5.23l-.34-.2v-1.79h4.32v-1h-4Zm4.16-5.08V157h-.69v-1h-3.32v-.59h3.32v-1.11h-3.32v-.59h3.6Z" transform="translate(-57 -35.62)"/><path class="cls-7" d="M173.38,155.16v-.61h3.1l.2,2.31-2.82.33v1.07h3.27l0,.61h-3.7l-.37-.2v-2.09l2.89-.29-.09-1.11Zm6.21,7.61h-1l.29-2.2h-4.82v-.65h5.16l.35.41Zm-.28-8.67v5.12h-.7v-5.14Z" transform="translate(-57 -35.62)"/><path class="cls-7" d="M180.92,160.1l2.07-2.42.13-2.13h.67v2.11l1.89,2.36-.39.49-1.95-2.15-1.94,2.25Zm6.15,1.44v-6.68h.8v6.68Z" transform="translate(-57 -35.62)"/><path class="cls-7" d="M197.13,158.2h-1.6v2.19h3.06v.7h-6.83v-.76h3.14V158.2h-1.5l-.39-.35v-3h4.08Zm-3.42-2.65v2h2.77v-2Z" transform="translate(-57 -35.62)"/><path class="cls-7" d="M200.08,158.22l-.45-.35v-3.06h3.24v.66h-2.68l.14,2.11h2.73v.66Zm2.18,1.27v-.6h3.46l.18,2.17-3.46.23v1h4.47l0,.58H202l-.33-.19.13-2h3.36v-1.21Zm2.48-5.78h.67v2h1.52v.67h-1.54v1.93h-.69Z" transform="translate(-57 -35.62)"/><path class="cls-7" d="M213.86,158.18v.65h-3.53l-.29-.43v-4.06h.64v3.75ZM216.5,154h.67v6.61h-.67v-3.87h-1.11v3.81h-.7V154h.7v2.06h1.11Z" transform="translate(-57 -35.62)"/><path class="cls-7" d="M224.82,157.83h3v.69H221v-.75h3.15v-1.56h.62Zm-2.69-1.4,1.91-1.7.06-.78h-1.84v-.59h4.16V154h-1.64l-.06.8,1.9,1.56-.39.49-1.84-1.53-1.79,1.63Zm4.53,4h-4.1v-.7h1.79l.1-.9h.68l-.09,1h1.62Zm-2.13.29a2.53,2.53,0,0,1,1.31.28.91.91,0,0,1,.45.82,1,1,0,0,1-.15.55,1.12,1.12,0,0,1-.38.37,1.77,1.77,0,0,1-.53.2,2.32,2.32,0,0,1-.59.07A2.61,2.61,0,0,1,224,163a2,2,0,0,1-.51-.22,1,1,0,0,1-.34-.34A.85.85,0,0,1,223,162a1,1,0,0,1,.41-.85A1.78,1.78,0,0,1,224.53,160.76Zm1.15,1a.45.45,0,0,0-.3-.35,1.54,1.54,0,0,0-.63-.12,2.69,2.69,0,0,0-.4,0,1.51,1.51,0,0,0-.34.11.69.69,0,0,0-.25.19.4.4,0,0,0-.09.27.41.41,0,0,0,.08.25.73.73,0,0,0,.22.16,1.23,1.23,0,0,0,.29.09l.33,0a1.79,1.79,0,0,0,.77-.15.49.49,0,0,0,.32-.45Z" transform="translate(-57 -35.62)"/><path class="cls-7" d="M228.63,157.38a4,4,0,0,1,.08-.73,2.38,2.38,0,0,1,.29-.74,1.63,1.63,0,0,1,.54-.57,1.56,1.56,0,0,1,.87-.22,1.5,1.5,0,0,1,.84.22,1.87,1.87,0,0,1,.55.57,2.4,2.4,0,0,1,.3.74,3.3,3.3,0,0,1,.09.73,3.35,3.35,0,0,1-.09.76,2.34,2.34,0,0,1-.3.73,1.92,1.92,0,0,1-.55.55,1.78,1.78,0,0,1-1.68,0,1.8,1.8,0,0,1-.55-.55,2.34,2.34,0,0,1-.3-.73A3.35,3.35,0,0,1,228.63,157.38Zm.64,0a3.38,3.38,0,0,0,0,.53,2.21,2.21,0,0,0,.18.53,1,1,0,0,0,.35.4,1,1,0,0,0,1.11,0,1.13,1.13,0,0,0,.35-.4,1.58,1.58,0,0,0,.18-.53,3.38,3.38,0,0,0,0-.53,3.26,3.26,0,0,0,0-.52,2.21,2.21,0,0,0-.18-.53,1.25,1.25,0,0,0-.35-.41,1.06,1.06,0,0,0-1.12,0,1.15,1.15,0,0,0-.35.41,1.83,1.83,0,0,0-.17.53A3.26,3.26,0,0,0,229.27,157.38Zm4.56,3.58v-6.68h.76v3h1.68v.64h-1.72V161Z" transform="translate(-57 -35.62)"/><path class="cls-7" d="M238.38,156.7a.22.22,0,0,1,0-.08v-.08a1.65,1.65,0,0,1,.13-.68,1.41,1.41,0,0,1,.4-.53,1.82,1.82,0,0,1,.61-.34,2.28,2.28,0,0,1,.8-.13,2.84,2.84,0,0,1,1,.15,1.9,1.9,0,0,1,.69.38,1.56,1.56,0,0,1,.41.55,1.89,1.89,0,0,1,.13.66,1.52,1.52,0,0,1-.2.79,1.71,1.71,0,0,1-.51.56l.06,2.47h2v.67h-6.83v-.76h2.21l-.06-2.35a1.7,1.7,0,0,1-.57-.5A1.4,1.4,0,0,1,238.38,156.7Zm2.07-1.23a1.83,1.83,0,0,0-.53.07,1.06,1.06,0,0,0-.44.21,1,1,0,0,0-.31.35,1.21,1.21,0,0,0-.11.52.81.81,0,0,0,.13.47.92.92,0,0,0,.33.32,1.52,1.52,0,0,0,.49.19,2.57,2.57,0,0,0,.55.06,1.42,1.42,0,0,0,.57-.1,1.12,1.12,0,0,0,.4-.24,1,1,0,0,0,.24-.35,1.14,1.14,0,0,0,.07-.41.92.92,0,0,0-.37-.79A1.72,1.72,0,0,0,240.45,155.47Zm.69,2.77a2.61,2.61,0,0,1-.6.08,2.83,2.83,0,0,1-.63-.07l.05,2.14h1.23Z" transform="translate(-57 -35.62)"/><path class="cls-7" d="M248,154.2h3.26v4h-3l-.31-.37Zm2.61.64h-2v2.62h1.93Zm3.56,5.59h-1.72V161l1.66,1.23-.37.47-1.62-1.18-1.62,1.16-.45-.49,1.74-1.17v-.55h-1.84v-.61h1.86v-1.15h.66v1.15h1.7Zm-.29-6.5v4.39h-.71V154Z" transform="translate(-57 -35.62)"/><path class="cls-7" d="M258.38,158.42l-.45-.35v-3.46h3.24v.66h-2.58v2.5h2.78v.67Zm2.58,3.69,1.64-1.31.13-1.35h.67l-.12,1.33,1.74,1.37-.39.49L263,161.39l-1.51,1.23Zm3.39-7.91H265v5.06h-.67v-2.38h-1.11V159h-.7v-4.78h.7v2h1.11Z" transform="translate(-57 -35.62)"/><path class="cls-7" d="M273.12,158.18h-6.87l0-.54h6.81Zm-5.6.94h4.65v2.15h-4.34v.86h4.92v.51h-5.23l-.33-.2v-1.79h4.31v-1h-4Zm4-2.07h-.62v-2.52h-3.21l.08-.82h3.36l.41.59Z" transform="translate(-57 -35.62)"/><path class="cls-7" d="M280.47,155.37l-1.47,5-.66-.14,1.35-4.62h-2.76l.06-.77h3.16Zm1.85,5.18v-6.68h.8v6.68Z" transform="translate(-57 -35.62)"/><path class="cls-7" d="M291.76,159h-6.88l0-.55h6.82Zm-4.95-1.53-.46-.41v-2.85H287v2.64h3.34v.6Zm-.29,3.89a1.26,1.26,0,0,1,.49-1,1.8,1.8,0,0,1,.62-.31,2.66,2.66,0,0,1,.84-.12,2.72,2.72,0,0,1,.85.12,1.75,1.75,0,0,1,.61.31,1.38,1.38,0,0,1,.38.46,1.34,1.34,0,0,1,.12.56,1.4,1.4,0,0,1-.12.58,1.38,1.38,0,0,1-.38.46,1.75,1.75,0,0,1-.61.31,2.74,2.74,0,0,1-.85.11,2.67,2.67,0,0,1-.84-.11,1.8,1.8,0,0,1-.62-.31,1.34,1.34,0,0,1-.37-.46A1.4,1.4,0,0,1,286.52,161.33Zm3.22,0a.73.73,0,0,0-.33-.61,1.54,1.54,0,0,0-.94-.25,1.5,1.5,0,0,0-.94.25.75.75,0,0,0,0,1.23,1.5,1.5,0,0,0,.94.26,1.54,1.54,0,0,0,.94-.26A.74.74,0,0,0,289.74,161.33Z" transform="translate(-57 -35.62)"/><path class="cls-7" d="M298.75,159.63h-3.26v-.7h6.87v.74h-2.93v2.4h-.68Zm2.07-1.6h-.67v-2.72h-3.36l.08-.82h3.56l.41.59Z" transform="translate(-57 -35.62)"/><path class="cls-7" d="M303.61,156.9a2.66,2.66,0,0,1,.1-.56,1.27,1.27,0,0,1,.35-.56l-.84-.11.08-.53,1.85.21.12-1.44.61.06-.1,1.42,1.58.18,0,.54-.82-.07a1.18,1.18,0,0,1,.24.51,2.31,2.31,0,0,1,.05.54,1.44,1.44,0,0,1-.14.67,1.34,1.34,0,0,1-.37.5,1.79,1.79,0,0,1-.52.31,1.74,1.74,0,0,1-.59.1,1.84,1.84,0,0,1-.76-.2,1.65,1.65,0,0,1-.48-.42,1.69,1.69,0,0,1-.26-.52,2.4,2.4,0,0,1-.07-.5A.42.42,0,0,1,303.61,156.9Zm.61,0a.17.17,0,0,0,0,.07V157a1.15,1.15,0,0,0,.06.37,1,1,0,0,0,.19.34,1.37,1.37,0,0,0,.29.24.87.87,0,0,0,.4.09,1.09,1.09,0,0,0,.77-.3.84.84,0,0,0,.22-.31,1.11,1.11,0,0,0,.07-.37,1.18,1.18,0,0,0-.29-.87,1.09,1.09,0,0,0-.79-.28.84.84,0,0,0-.62.24A1.29,1.29,0,0,0,304.22,156.86Zm1.93,5.37v-2.4h.68v2h3.36v.6h-3.77Zm3.87-8.15v6.12h-.63v-2.13h-1.74v-.63h1.71v-.84h-1.73V156h1.72V154.1Z" transform="translate(-57 -35.62)"/><path class="cls-7" d="M312.28,159.36l.8.78-1.19,1.91-.49-.37.86-1.37-.43-.47Z" transform="translate(-57 -35.62)"/><path class="cls-7" d="M316.7,154.61l.68.1c0,.13-.06.3-.1.52s-.06.45-.08.71-.05.55-.07.85,0,.6,0,.9a10.23,10.23,0,0,0,.06,1.12,4.35,4.35,0,0,0,.21,1,1.8,1.8,0,0,0,.4.68.86.86,0,0,0,.66.26,1.26,1.26,0,0,0,.94-.35,2.26,2.26,0,0,0,.55-.92,4.75,4.75,0,0,0,.27-1.27,13,13,0,0,0,.07-1.4c0-.37,0-.72,0-1s0-.57,0-.77l.67,0c0,.24,0,.49,0,.74s0,.52,0,.79,0,.82,0,1.23a10,10,0,0,1-.14,1.15,5.83,5.83,0,0,1-.27,1,3,3,0,0,1-.45.81,2,2,0,0,1-.66.53,1.92,1.92,0,0,1-.89.2,1.49,1.49,0,0,1-1-.35,2.37,2.37,0,0,1-.62-.9,5.08,5.08,0,0,1-.31-1.25,10.93,10.93,0,0,1-.09-1.39c0-.29,0-.58,0-.86s0-.56.06-.81.06-.49.08-.7S316.67,154.77,316.7,154.61Z" transform="translate(-57 -35.62)"/><path class="cls-7" d="M324.16,160.88h-2.33v-.55h.77v-4.88h-1.1v-.53l2.15-.13v.56l-.7.06v4.88h1.21Z" transform="translate(-57 -35.62)"/><path class="cls-7" d="M331.11,154.61v.63h-1.35v1l1.94,2-.39.51L329.43,157l-1.56,2-.49-.51,1.66-2.15v-1h-1.56v-.65Zm2.74,8.16h-.71v-2.2h-4.8v-.65h5.15l.36.41ZM332.69,154h.67v2.09h1.52v.67h-1.52v2.44h-.71Z" transform="translate(-57 -35.62)"/><path class="cls-7" d="M335.72,156.8a2.55,2.55,0,0,1,.1-.74,1.65,1.65,0,0,1,.31-.62,1.55,1.55,0,0,1,.55-.42,1.93,1.93,0,0,1,.8-.16,1.72,1.72,0,0,1,.63.13,1.66,1.66,0,0,1,.46.3,2,2,0,0,1,.31.41,3.26,3.26,0,0,1,.2.43l2.29,0v-2H342v5.12h-.63v-2.46h-2.2v0a2.92,2.92,0,0,1-.08.6,1.72,1.72,0,0,1-.26.63,1.62,1.62,0,0,1-.53.51,1.6,1.6,0,0,1-.87.21,1.73,1.73,0,0,1-.83-.18,1.64,1.64,0,0,1-.53-.48,1.81,1.81,0,0,1-.29-.63A2.61,2.61,0,0,1,335.72,156.8Zm.63,0a1.82,1.82,0,0,0,.08.55,1.09,1.09,0,0,0,.25.4,1.14,1.14,0,0,0,.35.27,1.3,1.3,0,0,0,.43.11,1,1,0,0,0,.79-.38,1.65,1.65,0,0,0,.3-1,1.12,1.12,0,0,0-.08-.45,1.07,1.07,0,0,0-.22-.39,1.11,1.11,0,0,0-.79-.4,1,1,0,0,0-.46.11,1.21,1.21,0,0,0-.34.3,1.36,1.36,0,0,0-.23.41A1.75,1.75,0,0,0,336.35,156.8Zm1,3.12H338v.84h3.59v-.86l.62,0v2.91h-4.41l-.41-.19Zm4.26,2.27v-.92H338v1Z" transform="translate(-57 -35.62)"/><path class="cls-7" d="M346.35,156.15a3,3,0,0,1,.09-.74,1.59,1.59,0,0,1,.3-.61,1.31,1.31,0,0,1,.53-.42,1.74,1.74,0,0,1,.79-.16,1.59,1.59,0,0,1,.83.2,1.69,1.69,0,0,1,.52.51,2.15,2.15,0,0,1,.26.63,2.68,2.68,0,0,1,.07.59c0,.17-.05.37-.09.59a2.13,2.13,0,0,1-.25.63,1.55,1.55,0,0,1-.51.51,1.51,1.51,0,0,1-.85.21,1.67,1.67,0,0,1-.81-.18,1.48,1.48,0,0,1-.52-.47,1.83,1.83,0,0,1-.28-.62A2.61,2.61,0,0,1,346.35,156.15Zm.62,0a1.37,1.37,0,0,0,.31,1,1.07,1.07,0,0,0,.76.37.81.81,0,0,0,.44-.12,1.08,1.08,0,0,0,.34-.3,1.63,1.63,0,0,0,.21-.44,1.81,1.81,0,0,0,.07-.52,1.37,1.37,0,0,0-.07-.45,1.44,1.44,0,0,0-.21-.41,1.05,1.05,0,0,0-.34-.29.81.81,0,0,0-.44-.12.82.82,0,0,0-.44.11,1,1,0,0,0-.34.3,1.38,1.38,0,0,0-.21.42A2,2,0,0,0,347,156.15Zm1.88,3.34v-.6h3.45l.18,2.17-3.46.23v1h4.47l0,.58h-4.92l-.33-.19.14-2h3.36v-1.21Zm3.73-5.56v4.39h-.71V154Z" transform="translate(-57 -35.62)"/><path class="cls-7" d="M358,156.15h-1.55v1.27l2,2.07-.4.43-2-1.89-1.64,2-.49-.47,1.8-2.11v-1.29h-1.68v-.62h1.66v-1.45h.66v1.47H358Zm-.71,1.41v-.66h1.84v-2.17h.68v6.13l-.64,0v-3.34Zm3.48-3.07h.66v6.62h-.66Z" transform="translate(-57 -35.62)"/><path class="cls-7" d="M371.85,159H365l0-.55h6.81Zm-5-1.63-.41-.37v-2.65h3.91V155H367v1.74h3.48v.66Zm-.19,4a1.26,1.26,0,0,1,.49-1,1.85,1.85,0,0,1,.61-.31,2.72,2.72,0,0,1,.85-.12,2.77,2.77,0,0,1,.85.12,1.75,1.75,0,0,1,.61.31,1.24,1.24,0,0,1,.37.46,1.35,1.35,0,0,1,.13.56,1.41,1.41,0,0,1-.13.58,1.24,1.24,0,0,1-.37.46,1.75,1.75,0,0,1-.61.31,2.78,2.78,0,0,1-.85.11,2.74,2.74,0,0,1-.85-.11,1.85,1.85,0,0,1-.61-.31,1.34,1.34,0,0,1-.37-.46A1.4,1.4,0,0,1,366.62,161.33Zm3.22,0a.72.72,0,0,0-.34-.61,1.87,1.87,0,0,0-1.87,0,.74.74,0,0,0,0,1.23,1.81,1.81,0,0,0,1.87,0A.73.73,0,0,0,369.84,161.33Z" transform="translate(-57 -35.62)"/><rect class="cls-2" x="127" y="45.38" width="33" height="18" rx="3"/><path class="cls-3" d="M194.47,89.22l.75,3.19-.7.26-.42-2a3.62,3.62,0,0,1-.26.68,2.94,2.94,0,0,1-.42.64,2.09,2.09,0,0,1-.6.46,1.67,1.67,0,0,1-.78.19,1.43,1.43,0,0,1-1.17-.5,2.12,2.12,0,0,1-.41-1.38,3.92,3.92,0,0,1,.15-1,3.74,3.74,0,0,1,.46-1,2.59,2.59,0,0,1,.77-.74,2,2,0,0,1,1.08-.29,1.19,1.19,0,0,1,.64.16,1.35,1.35,0,0,1,.46.39,1.85,1.85,0,0,1,.3.5A2.79,2.79,0,0,1,194.47,89.22ZM193,88.54l-.16,0h-.16a1.1,1.1,0,0,0-.65.21,2,2,0,0,0-.48.55,2.94,2.94,0,0,0-.29.71,2.76,2.76,0,0,0-.1.72,1.4,1.4,0,0,0,.22.83.82.82,0,0,0,.71.32,1,1,0,0,0,.61-.22,2.29,2.29,0,0,0,.48-.54,3.21,3.21,0,0,0,.31-.73,2.81,2.81,0,0,0,.11-.73,1.4,1.4,0,0,0-.15-.66A.92.92,0,0,0,193,88.54Z" transform="translate(-57 -35.62)"/><path class="cls-3" d="M195.92,92.25l1.66-2L196,88.19l.54-.47,1.48,2,1.52-1.83.54.57-1.59,1.9,1.49,2-.54.47L198,90.89l-1.6,1.92Z" transform="translate(-57 -35.62)"/><path class="cls-3" d="M202.27,87.47l-.82.23-.75-1.78.82-.21Zm-1.07,5.25V88.43H202v4.33Z" transform="translate(-57 -35.62)"/><path class="cls-3" d="M204.92,87.77a2.17,2.17,0,0,1,1,.21,1.88,1.88,0,0,1,.67.58,2.58,2.58,0,0,1,.37.86,4.32,4.32,0,0,1,.12,1,3.2,3.2,0,0,1-.21,1.09,2.18,2.18,0,0,1-.47.77,2,2,0,0,1-1.43.6,1.92,1.92,0,0,1-.92-.21,2,2,0,0,1-.66-.57,2.7,2.7,0,0,1-.39-.82,3.52,3.52,0,0,1-.14-1,3.42,3.42,0,0,1,.15-1,2.43,2.43,0,0,1,.41-.82,1.85,1.85,0,0,1,.64-.54A1.87,1.87,0,0,1,204.92,87.77Zm.07.8a1.3,1.3,0,0,0-1,.4,1.8,1.8,0,0,0-.37,1.27,2.65,2.65,0,0,0,.09.68,2.74,2.74,0,0,0,.27.6,1.51,1.51,0,0,0,.43.44.94.94,0,0,0,.55.17,1.1,1.1,0,0,0,.57-.15,1.27,1.27,0,0,0,.43-.4,1.92,1.92,0,0,0,.28-.53,1.77,1.77,0,0,0,.1-.58A2.26,2.26,0,0,0,206,89,1.21,1.21,0,0,0,205,88.57Z" transform="translate(-57 -35.62)"/><path class="cls-3" d="M211,88.22l-.16.7a1.79,1.79,0,0,0-.26-.1,2.47,2.47,0,0,0-.35-.1l-.41-.08-.4,0a1.58,1.58,0,0,0-.61.11.39.39,0,0,0-.25.37.39.39,0,0,0,.21.34,1.79,1.79,0,0,0,.5.24,3.83,3.83,0,0,0,.58.16l.45.1a1.89,1.89,0,0,1,.57.27,1.94,1.94,0,0,1,.34.37,1.42,1.42,0,0,1,.17.4,2,2,0,0,1,0,.41,1.23,1.23,0,0,1-.19.71,1.57,1.57,0,0,1-.49.47,2.17,2.17,0,0,1-.67.26,3.08,3.08,0,0,1-.73.08,3.81,3.81,0,0,1-1.08-.15,2.15,2.15,0,0,1-.8-.41l.28-.8a2.22,2.22,0,0,0,.34.22,2.65,2.65,0,0,0,.42.18,2.61,2.61,0,0,0,.5.11,2.89,2.89,0,0,0,.5,0,1.65,1.65,0,0,0,.75-.16.74.74,0,0,0,.4-.57,1.76,1.76,0,0,0,0-.19.6.6,0,0,0-.08-.21.63.63,0,0,0-.2-.2.89.89,0,0,0-.38-.13,6.94,6.94,0,0,1-.89-.19,2.75,2.75,0,0,1-.69-.29,1.5,1.5,0,0,1-.47-.43,1,1,0,0,1-.17-.59,1.07,1.07,0,0,1,.44-.95,2.33,2.33,0,0,1,1.28-.29,4.12,4.12,0,0,1,.86.09A2.36,2.36,0,0,1,211,88.22Z" transform="translate(-57 -35.62)"/></svg>