<svg id="레이어_1" data-name="레이어 1" xmlns="http://www.w3.org/2000/svg" viewBox="0 0 58.5 10.5"><defs><style>.cls-1{fill:#fcf6f5;}</style></defs><title>ABOUT</title><path class="cls-1" d="M165.86,89.33v-7.5h1.5v-1.5h1.5v-1.5h4.5v1.5h1.5v1.5h1.5v7.5h-3v-3h-4.5v3Zm3-4.5h4.5v-3h-1.5v-1.5h-1.5v1.5h-1.5Z" transform="translate(-165.86 -78.83)"/><path class="cls-1" d="M177.86,89.33V78.83h9v1.5h1.5v3h-1.5v1.5h1.5v3h-1.5v1.5Zm3-6h4.5v-3h-4.5Zm0,4.5h4.5v-3h-4.5Z" transform="translate(-165.86 -78.83)"/><path class="cls-1" d="M191.36,89.33v-1.5h-1.5v-7.5h1.5v-1.5h7.5v1.5h1.5v7.5h-1.5v1.5Zm1.5-1.5h4.5v-7.5h-4.5Z" transform="translate(-165.86 -78.83)"/><path class="cls-1" d="M203.36,89.33v-1.5h-1.5v-9h3v9h4.5v-9h3v9h-1.5v1.5Z" transform="translate(-165.86 -78.83)"/><path class="cls-1" d="M218.36,89.33v-9h-3v-1.5h9v1.5h-3v9Z" transform="translate(-165.86 -78.83)"/></svg>