<svg id="레이어_1" data-name="레이어 1" xmlns="http://www.w3.org/2000/svg" viewBox="0 0 55.5 19.5"><defs><style>.cls-1{fill:#606060;}.cls-2{fill:#fff;}</style></defs><title>clickToCopy</title><rect class="cls-1" width="55.5" height="13.5" rx="3"/><polygon class="cls-1" points="21.75 12 27.75 19.5 33.75 12 21.75 12"/><path class="cls-2" d="M5.9,14.74H4.65c-.79,0-1.19-.35-1.19-1.06v-1.5c0-.71.4-1.07,1.19-1.07H5.9c.79,0,1.19.36,1.19,1.07v.37H5.89v-.24a.21.21,0,0,0-.24-.24H4.9a.21.21,0,0,0-.24.24v1.23a.21.21,0,0,0,.24.24h.75a.21.21,0,0,0,.24-.24v-.23h1.2v.37C7.09,14.39,6.69,14.74,5.9,14.74Z" transform="translate(2.75 -6)"/><path class="cls-2" d="M8.79,9.87v4.87H7.56V9.87Z" transform="translate(2.75 -6)"/><path class="cls-2" d="M10.45,9.87v.88H9.22V9.87Zm0,1.24v3.63H9.22V11.11Z" transform="translate(2.75 -6)"/><path class="cls-2" d="M13.33,14.74H12.08c-.79,0-1.19-.35-1.19-1.06v-1.5c0-.71.4-1.07,1.19-1.07h1.25c.79,0,1.19.36,1.19,1.07v.37h-1.2v-.24a.21.21,0,0,0-.24-.24h-.75a.21.21,0,0,0-.24.24v1.23a.21.21,0,0,0,.24.24h.75a.21.21,0,0,0,.24-.24v-.23h1.2v.37C14.52,14.39,14.12,14.74,13.33,14.74Z" transform="translate(2.75 -6)"/><path class="cls-2" d="M16.21,9.87v2.56l1.34-1.32H19.1l-1.75,1.74,1.75,1.89H17.51l-1.3-1.42v1.42H15V9.87Z" transform="translate(2.75 -6)"/><path class="cls-2" d="M21.12,12.13v-1h.6V9.87H23v1.24h.64v1H23v1.35a.21.21,0,0,0,.24.24h.4v1h-.68c-.79,0-1.19-.35-1.19-1.06V12.13Z" transform="translate(2.75 -6)"/><path class="cls-2" d="M27.6,12.15v1.56c0,.71-.4,1.06-1.19,1.06H25.16c-.79,0-1.19-.35-1.19-1.06V12.15c0-.71.4-1.07,1.19-1.07h1.25C27.2,11.08,27.6,11.44,27.6,12.15Zm-1.2,1.42V12.28a.21.21,0,0,0-.24-.24h-.75a.21.21,0,0,0-.24.24v1.29a.21.21,0,0,0,.24.24h.75A.21.21,0,0,0,26.4,13.57Z" transform="translate(2.75 -6)"/><path class="cls-2" d="M32.3,14.74H31.05c-.79,0-1.19-.35-1.19-1.06v-1.5c0-.71.4-1.07,1.19-1.07H32.3c.79,0,1.19.36,1.19,1.07v.37h-1.2v-.24a.21.21,0,0,0-.24-.24H31.3a.21.21,0,0,0-.24.24v1.23a.21.21,0,0,0,.24.24h.75a.21.21,0,0,0,.24-.24v-.23h1.2v.37C33.49,14.39,33.09,14.74,32.3,14.74Z" transform="translate(2.75 -6)"/><path class="cls-2" d="M37.58,12.15v1.56c0,.71-.4,1.06-1.19,1.06H35.14c-.79,0-1.18-.35-1.18-1.06V12.15c0-.71.39-1.07,1.18-1.07h1.25C37.18,11.08,37.58,11.44,37.58,12.15Zm-1.2,1.42V12.28a.21.21,0,0,0-.24-.24H35.4a.21.21,0,0,0-.24.24v1.29a.21.21,0,0,0,.24.24h.74A.21.21,0,0,0,36.38,13.57Z" transform="translate(2.75 -6)"/><path class="cls-2" d="M38.05,16.06V11.11h1.14v.14a1.16,1.16,0,0,1,.6-.14h.69c.8,0,1.19.36,1.19,1.07v1.5c0,.71-.39,1.06-1.19,1.06h-.69a1.27,1.27,0,0,1-.54-.1v1.42Zm1.2-2.49q0,.25.24.24h.74a.21.21,0,0,0,.24-.24V12.28a.21.21,0,0,0-.24-.24h-.74c-.16,0-.24.09-.24.23Z" transform="translate(2.75 -6)"/><path class="cls-2" d="M44.36,16.06H43.11l.59-1.45L42,11.11h1.26l1,2.13.88-2.13h1.25Z" transform="translate(2.75 -6)"/><path class="cls-2" d="M48,9.81v3.48H46.74V9.81ZM48,15H46.74V13.71H48Z" transform="translate(2.75 -6)"/></svg>