<svg id="레이어_1" data-name="레이어 1" xmlns="http://www.w3.org/2000/svg" viewBox="0 0 89.38 11.38"><defs><style>.cls-1{fill:#fbffd3;}</style></defs><title>CONTACT_hover</title><path class="cls-1" d="M169.11,89.2V87.58h-1.62V86h-1.63V81.08h1.63V79.45h1.62V77.83h6.5v1.62h1.63v1.63H174V79.45h-3.25v1.63h-1.63V86h1.63v1.63H174V86h3.25v1.63h-1.63V89.2Z" transform="translate(-165.86 -77.83)"/><path class="cls-1" d="M180.49,89.2V87.58h-1.63V79.45h1.63V77.83h8.12v1.62h1.63v8.13h-1.63V89.2Zm1.62-1.62H187V79.45h-4.88Z" transform="translate(-165.86 -77.83)"/><path class="cls-1" d="M191.86,89.2V77.83h3.25v1.62h1.63v1.63h1.62V82.7H200V77.83h3.25V89.2H200V86h-1.63V84.33h-1.62V82.7h-1.63v6.5Z" transform="translate(-165.86 -77.83)"/><path class="cls-1" d="M209.74,89.2V79.45h-3.25V77.83h9.75v1.62H213V89.2Z" transform="translate(-165.86 -77.83)"/><path class="cls-1" d="M217.86,89.2V81.08h1.63V79.45h1.62V77.83H226v1.62h1.62v1.63h1.63V89.2H226V86h-4.88V89.2Zm3.25-4.87H226V81.08h-1.63V79.45h-1.62v1.63h-1.63Z" transform="translate(-165.86 -77.83)"/><path class="cls-1" d="M234.11,89.2V87.58h-1.62V86h-1.63V81.08h1.63V79.45h1.62V77.83h6.5v1.62h1.63v1.63H239V79.45h-3.25v1.63h-1.63V86h1.63v1.63H239V86h3.25v1.63h-1.63V89.2Z" transform="translate(-165.86 -77.83)"/><path class="cls-1" d="M248.74,89.2V79.45h-3.25V77.83h9.75v1.62H252V89.2Z" transform="translate(-165.86 -77.83)"/></svg>