<svg id="레이어_1" data-name="레이어 1" xmlns="http://www.w3.org/2000/svg" viewBox="0 0 187.8 61.05"><defs><style>.cls-1{fill:#606060;opacity:0.3;}.cls-2{fill:#0e4572;}.cls-3{fill:#fcf6f5;stroke:#fcf6f5;stroke-miterlimit:10;}.cls-4{fill:#ffda67;}</style></defs><title>darkMode_hover</title><rect class="cls-1" x="7.8" y="6.05" width="180" height="55" rx="13.37"/><rect class="cls-2" width="183.6" height="56.1" rx="13.64"/><path class="cls-3" d="M51.42,110.48l-.81-1q-.16-3.81-.22-7.44c0-2.42-.11-4.9-.19-7.44l.76-.91c.31,0,.61-.06.9-.08l.88,0A11.21,11.21,0,0,1,56,94a6.56,6.56,0,0,1,2.55,1.45A6.74,6.74,0,0,1,60.22,98a10.48,10.48,0,0,1,.59,3.7,9,9,0,0,1-.69,3.55A8.6,8.6,0,0,1,58.2,108a9,9,0,0,1-2.86,1.8,9.48,9.48,0,0,1-3.51.64Zm.35-15.23.51,13.56a8.79,8.79,0,0,0,2.74-.72,7.43,7.43,0,0,0,2.2-1.49,6.59,6.59,0,0,0,1.45-2.14,7,7,0,0,0,.52-2.68A9.38,9.38,0,0,0,58.82,99,5,5,0,0,0,57.65,97a5.13,5.13,0,0,0-2.07-1.28,9.12,9.12,0,0,0-3-.44h-.77Z" transform="translate(9.8 -73.95)"/><path class="cls-3" d="M71.43,102.41l1.62,6.91-1.52.56-.92-4.32a7.56,7.56,0,0,1-.54,1.47,6.21,6.21,0,0,1-.92,1.39,4.42,4.42,0,0,1-1.29,1,3.6,3.6,0,0,1-1.69.39,3.1,3.1,0,0,1-2.55-1.07,4.65,4.65,0,0,1-.88-3,8.48,8.48,0,0,1,.33-2.27,7.28,7.28,0,0,1,1-2.15,5.8,5.8,0,0,1,1.67-1.6,4.32,4.32,0,0,1,2.35-.63,2.72,2.72,0,0,1,1.38.34,3.45,3.45,0,0,1,1,.85,4.59,4.59,0,0,1,.64,1.08A7.5,7.5,0,0,1,71.43,102.41Zm-3.1-1.47a2.37,2.37,0,0,0-.34-.08l-.35,0a2.26,2.26,0,0,0-1.41.47,4,4,0,0,0-1,1.18,5.73,5.73,0,0,0-.63,1.55,5.89,5.89,0,0,0-.22,1.54,3,3,0,0,0,.49,1.81,1.73,1.73,0,0,0,1.52.68,2.09,2.09,0,0,0,1.32-.47,4.11,4.11,0,0,0,1-1.18,6.07,6.07,0,0,0,.67-1.56,5.85,5.85,0,0,0,.24-1.59,3.1,3.1,0,0,0-.31-1.43A1.91,1.91,0,0,0,68.33,100.94Z" transform="translate(9.8 -73.95)"/><path class="cls-3" d="M76.2,110.48l-.86-11.17,1.57-.2.36,4.93,5.43-3.66.71,1.42-5.89,4.27v4.26Z" transform="translate(9.8 -73.95)"/><path class="cls-3" d="M86.31,104.37l6.24-5.62,1.12,1.48-3.35,3.2L95,109l-1,1.42-5-5.71-2.08,2v3.43l-1.53.2V93.47l.92-.3Z" transform="translate(9.8 -73.95)"/><path class="cls-3" d="M105,96.77v13.16h-2v-16l2.44-.36,3.91,10.16,4.57-9.85,1.93.15,1.22,16.3h-1.73L114.44,97l-4.62,9.44-1.12-.15Z" transform="translate(9.8 -73.95)"/><path class="cls-3" d="M122.82,99.26a4.65,4.65,0,0,1,2.16.46,3.81,3.81,0,0,1,1.44,1.26,5.47,5.47,0,0,1,.82,1.85,10.18,10.18,0,0,1,.25,2.27,7,7,0,0,1-.45,2.38,5.07,5.07,0,0,1-1,1.66,4.19,4.19,0,0,1-1.44,1,4.49,4.49,0,0,1-1.66.31,4.17,4.17,0,0,1-2-.45,4.36,4.36,0,0,1-1.43-1.23,5.55,5.55,0,0,1-.86-1.78,7.75,7.75,0,0,1-.29-2.12,7.18,7.18,0,0,1,.32-2.22,5.59,5.59,0,0,1,.88-1.78,4.14,4.14,0,0,1,1.4-1.17A4.05,4.05,0,0,1,122.82,99.26ZM123,101a2.88,2.88,0,0,0-2.2.86,4,4,0,0,0-.8,2.77,5.21,5.21,0,0,0,.21,1.46,4.71,4.71,0,0,0,.58,1.31,3.44,3.44,0,0,0,.91,1,2.13,2.13,0,0,0,1.2.37,2.37,2.37,0,0,0,1.24-.33,3.19,3.19,0,0,0,.94-.85,4.31,4.31,0,0,0,.6-1.17,4.06,4.06,0,0,0,.21-1.26,4.85,4.85,0,0,0-.8-3.17A2.6,2.6,0,0,0,123,101Z" transform="translate(9.8 -73.95)"/><path class="cls-3" d="M137.65,92.61V109l-.66.81a10.68,10.68,0,0,1-1.58.36,9.81,9.81,0,0,1-1.4.1,6.26,6.26,0,0,1-2.6-.48,4.78,4.78,0,0,1-2.66-3,6.62,6.62,0,0,1-.3-2,5.8,5.8,0,0,1,.44-2.37,4.53,4.53,0,0,1,1.13-1.61,4.2,4.2,0,0,1,1.57-.93,5.76,5.76,0,0,1,4.48.37l0-7.67ZM136,102.46a4.18,4.18,0,0,0-1.27-.8,3.79,3.79,0,0,0-1.4-.27,3.43,3.43,0,0,0-1.18.22,2.85,2.85,0,0,0-1,.64,3.12,3.12,0,0,0-.7,1,3.63,3.63,0,0,0-.26,1.46,3.79,3.79,0,0,0,.33,1.65,3.12,3.12,0,0,0,.87,1.11,3.73,3.73,0,0,0,1.27.65,5.06,5.06,0,0,0,1.51.22A4.31,4.31,0,0,0,136,108Z" transform="translate(9.8 -73.95)"/><path class="cls-3" d="M139.58,104.7a6,6,0,0,1,.4-2.35,4.33,4.33,0,0,1,1-1.53,3.67,3.67,0,0,1,1.38-.81,4.92,4.92,0,0,1,1.48-.24,5.47,5.47,0,0,1,1.82.29,3.22,3.22,0,0,1,1.39,1,4.54,4.54,0,0,1,.87,1.79,10.24,10.24,0,0,1,.31,2.74l-7.06.68a2.75,2.75,0,0,0,.39,1.21,2.65,2.65,0,0,0,.8.8,3.27,3.27,0,0,0,1,.43,5,5,0,0,0,1.15.13,6,6,0,0,0,1.85-.28,3.38,3.38,0,0,0,1.32-.69l.46,1.22a2.23,2.23,0,0,1-.54.51,3.81,3.81,0,0,1-.83.45,7,7,0,0,1-1.08.3,6.25,6.25,0,0,1-1.23.11,5.75,5.75,0,0,1-1.78-.28,4,4,0,0,1-1.6-.94,4.52,4.52,0,0,1-1.14-1.76A7.56,7.56,0,0,1,139.58,104.7Zm1.47,0,5.58-.61a2.92,2.92,0,0,0-.66-2,2.7,2.7,0,0,0-2.13-.75,2.79,2.79,0,0,0-1.23.31,3.06,3.06,0,0,0-.88.7,3,3,0,0,0-.53.95,3.41,3.41,0,0,0-.18,1.09A1.19,1.19,0,0,0,141.05,104.75Z" transform="translate(9.8 -73.95)"/><path class="cls-4" d="M34.54,85.22a58.61,58.61,0,0,0-5.72,2.92,12.9,12.9,0,0,0-5.08,15.4A24.86,24.86,0,0,0,30.5,113.6a17,17,0,0,0,6.15,3.19,3,3,0,0,1,1,.46c-1,.13-2.06.28-3.1.39-5.62.62-10.9-.4-15.39-3.91-3-2.36-5.53-5.28-6.37-9.2-1.22-5.62.66-10.18,5.1-13.72a25.29,25.29,0,0,1,13.92-5.58C32.87,85.15,33.89,85.22,34.54,85.22Z" transform="translate(9.8 -73.95)"/></svg>