<svg id="레이어_1" data-name="레이어 1" xmlns="http://www.w3.org/2000/svg" viewBox="0 0 92 42"><defs><style>.cls-1{fill:none;stroke:#606060;stroke-miterlimit:10;stroke-width:2px;}.cls-2{fill:#606060;}</style></defs><title>ENG</title><rect class="cls-1" x="1" y="1" width="90" height="40" rx="12"/><path class="cls-2" d="M81.11,60.55,81.05,65h1.12l2,0,2,0h1.43a6.32,6.32,0,0,1,.65.1l.61.16a2,2,0,0,1,.79.5,1.33,1.33,0,0,1,.28.81v.32a.84.84,0,0,1-.06.33,1,1,0,0,1-.36.56A.89.89,0,0,1,89,68a3.66,3.66,0,0,1-.72.14,4.23,4.23,0,0,1-.79.08H86.18l-5.18,0-.06,5.49,5.57,0h1.74a2,2,0,0,1,.36,0,2.35,2.35,0,0,0,.41.07,1.36,1.36,0,0,1,.35.07,1.59,1.59,0,0,1,.56.31,1.2,1.2,0,0,1,.36.59,1.35,1.35,0,0,1,0,.29,1.16,1.16,0,0,1,0,.32,1.27,1.27,0,0,1-.28.81,1.52,1.52,0,0,1-.78.51,3.23,3.23,0,0,1-1.29.25c-.21,0-.42,0-.65,0s-.43,0-.64,0h-.17c-1.45,0-3,0-4.53,0l-.9,0H79.2a1.64,1.64,0,0,1-1.06-.23,1.28,1.28,0,0,1-.47-.53.22.22,0,0,1-.09-.17l-.06-.08,0-.08a1.71,1.71,0,0,1-.09-.3c0-.1,0-.2,0-.29s0-.19,0-.28a1.26,1.26,0,0,0,0-.28v-.45a1.64,1.64,0,0,1,0-.22,1.77,1.77,0,0,0,0-.23V71.78l.06-4V64c0-.67,0-1.27,0-1.79s0-1.09,0-1.71v-.14c0-.2,0-.39,0-.57s0-.36,0-.55a2.56,2.56,0,0,1,.31-1.09,2.36,2.36,0,0,1,.23-.39,1.08,1.08,0,0,1,.35-.28,1.67,1.67,0,0,1,.87-.25l.34,0v0H81l.63,0h.93l2.13,0,2.07,0h.11c.2,0,.42,0,.64,0l.65,0a3.17,3.17,0,0,1,.61.07,4.89,4.89,0,0,1,.62.19,1.63,1.63,0,0,1,.78.47,1.42,1.42,0,0,1,.25.79v.32a.71.71,0,0,1-.05.29A1,1,0,0,1,90,60l-.24.14a1.12,1.12,0,0,1-.29.14,1.36,1.36,0,0,1-.35.07l-.35,0a1.55,1.55,0,0,1-.4.06H86.71l-5.6,0Z" transform="translate(-54.5 -46.5)"/><path class="cls-2" d="M107.88,74.89a7.63,7.63,0,0,1-.13,1,1.35,1.35,0,0,1-.54.87,1.5,1.5,0,0,1-.76.34,2.56,2.56,0,0,1-.83,0,3.19,3.19,0,0,1-.77-.31,1.72,1.72,0,0,1-.58-.52,25.12,25.12,0,0,1-1.75-2.42c-.54-.83-1.07-1.67-1.62-2.51l-2.35-3.55c-.31-.51-.65-1.07-1-1.7s-.71-1.21-1.09-1.75L96.37,75v.25a2.44,2.44,0,0,1-.16.88,1.65,1.65,0,0,1-.51.74,1.57,1.57,0,0,1-.73.31,1.76,1.76,0,0,1-1.16-.08,1.85,1.85,0,0,1-.73-.62,2.39,2.39,0,0,1-.37-.91,3.88,3.88,0,0,1,0-1v-.48l.06-2.18,0-4.06c0-.6,0-1.21,0-1.83V64.08c0-.8,0-1.65,0-2.55s.06-1.74.1-2.52a2.54,2.54,0,0,1,.31-1.09,1.16,1.16,0,0,1,.58-.67,1.93,1.93,0,0,1,.8-.26,2.9,2.9,0,0,1,.85,0l.29.13.27.15a3.23,3.23,0,0,1,.27.23,1.93,1.93,0,0,1,.24.25,2.26,2.26,0,0,1,.25.29l.22.3.17.3a1.79,1.79,0,0,0,.2.28l.31.45,6.47,10.19V67.75c0-.6,0-1.21,0-1.84s0-1.27,0-1.94,0-1.63,0-2.52,0-1.74.07-2.52a2.83,2.83,0,0,1,.28-1.1,1.29,1.29,0,0,1,.48-.58,1.91,1.91,0,0,1,.76-.31,1.94,1.94,0,0,1,.83,0,1.58,1.58,0,0,1,.73.33,1.63,1.63,0,0,1,.17.2,1,1,0,0,1,.14.25,2.73,2.73,0,0,1,.17.65,3.07,3.07,0,0,1,.08.7q0,3.49,0,7.14t0,7.14c0,.26,0,.51,0,.77S107.89,74.62,107.88,74.89Z" transform="translate(-54.5 -46.5)"/><path class="cls-2" d="M124.87,72a8.42,8.42,0,0,1-.33,1.66,5.5,5.5,0,0,1-.76,1.51,4.59,4.59,0,0,1-1.37,1.24,4,4,0,0,1-1,.47,10.52,10.52,0,0,1-1.2.3,8.93,8.93,0,0,1-1.25.17,11.12,11.12,0,0,1-1.14,0,7.28,7.28,0,0,1-4.08-1.22,7.69,7.69,0,0,1-2.38-2.82,11.27,11.27,0,0,1-1.06-3.65,19.25,19.25,0,0,1-.1-3.77,15,15,0,0,1,.38-2.29,10.31,10.31,0,0,1,.87-2.38,8.54,8.54,0,0,1,1.42-2.07,5.48,5.48,0,0,1,2-1.4,8.61,8.61,0,0,1,2.4-.58,9.6,9.6,0,0,1,2.57.1,8,8,0,0,1,2.38.81A4.6,4.6,0,0,1,124,59.71a5.88,5.88,0,0,1,.7,1.76,4.82,4.82,0,0,1,.09,2,1.71,1.71,0,0,1-.59,1.16,1.33,1.33,0,0,1-1,.26,2.16,2.16,0,0,1-1-.45,1.81,1.81,0,0,1-.66-1,7,7,0,0,0-.48-1.19,2.26,2.26,0,0,0-.86-.91,3,3,0,0,0-1.42-.47,3.63,3.63,0,0,0-1.43.16,4.35,4.35,0,0,0-1.28.7,4.52,4.52,0,0,0-1,1.1,5.47,5.47,0,0,0-.73,1.52,10.59,10.59,0,0,0-.36,1.71,10.41,10.41,0,0,0-.07,1.76,11.45,11.45,0,0,0,.21,1.7,10.28,10.28,0,0,0,.95,2.57,2.75,2.75,0,0,0,.69.8,3.55,3.55,0,0,0,1,.56,4.26,4.26,0,0,0,1.12.27,3,3,0,0,0,1.12-.09,4.1,4.1,0,0,0,1.24-.51,2.74,2.74,0,0,0,.75-.77,2.86,2.86,0,0,0,.38-1,5.83,5.83,0,0,0,.1-1.12v0l-.65,0h-.42a3.31,3.31,0,0,1-1.2-.22,1.45,1.45,0,0,1-.76-.54,1.09,1.09,0,0,1-.28-.75c0-.11,0-.22,0-.32s0-.21,0-.33a2.52,2.52,0,0,1,.36-.56,1.46,1.46,0,0,1,.54-.22l.33-.1a3.45,3.45,0,0,1,.39-.07,2.22,2.22,0,0,1,.37,0h2.94a2.7,2.7,0,0,1,.71.07,1.54,1.54,0,0,1,.63.3l.17.22a1.23,1.23,0,0,1,.14.25,2.77,2.77,0,0,1,.14.62c0,.11,0,.23,0,.35s0,.23,0,.32v1.15A16.09,16.09,0,0,1,124.87,72Z" transform="translate(-54.5 -46.5)"/></svg>