<svg id="레이어_1" data-name="레이어 1" xmlns="http://www.w3.org/2000/svg" viewBox="0 0 175 130"><defs><style>.cls-1{fill:#d9b48f;}.cls-2{fill:#606060;}</style></defs><title>html_bubble</title><polygon class="cls-1" points="78.3 32 86 130 86 32 78.3 32"/><polygon class="cls-1" points="93.7 32 86 130 86 32 93.7 32"/><rect class="cls-1" width="175" height="70" rx="3.59"/><path class="cls-2" d="M24.22,42.12V40h.45v5h-.34v-2.4H22V45h-.64V40h.73v2.1Z" transform="translate(-13 -27)"/><path class="cls-2" d="M27.23,40.59h-1.7v-.46h3.95v.39H27.72l.42,4.5-.5,0Z" transform="translate(-13 -27)"/><path class="cls-2" d="M30.7,41v4h-.61V40.09l.75-.11,1.21,3.12,1.4-3,.6,0,.37,5h-.53L33.61,41l-1.42,2.91-.35,0Z" transform="translate(-13 -27)"/><path class="cls-2" d="M35.17,44.6V40h.55v4.42h2.81V45H35.48Z" transform="translate(-13 -27)"/><path class="cls-2" d="M44.5,43.29V44.9H44V43.29H41.23l0-.44h5.45v.38Zm-1.91,2.86-.34-.27V44.13h.48v1.49l3.55.08a1.63,1.63,0,0,0,0,.24v.21a.07.07,0,0,1,0,.05Zm3-4.19H42.75l-.31-.28V39.34h3.11ZM43,39.84v1.64h2.06V39.91Z" transform="translate(-13 -27)"/><path class="cls-2" d="M47.94,43.34l-.27-3.63.52-.06.14,1.53h1.34l-.12-1.53.51,0,.1,1.44h2V39.41h.53v4.1h-.5v-2h-2l.14,1.91-2.15.14Zm.51-.35h1.36L49.7,41.6l-1.36.11Zm.68,1.08h.48v.69h2.87v-.71l.5,0v2.33H49.45l-.32-.15Zm3.4,1.81v-.72H49.61v.77Z" transform="translate(-13 -27)"/><path class="cls-2" d="M59.61,42.68h-5.5l0-.44h5.45Zm-4.48.75h3.71v1.72H55.38v.69h3.93v.4H55.13l-.27-.15V44.65h3.45v-.77H55.13Zm.21-3a1.14,1.14,0,0,1,.12-.52,1.2,1.2,0,0,1,.34-.37,1.54,1.54,0,0,1,.48-.24,2.2,2.2,0,0,1,.58-.07,1.79,1.79,0,0,1,.57.09,1.57,1.57,0,0,1,.48.25,1.44,1.44,0,0,1,.32.38,1.13,1.13,0,0,1,.11.48,1.1,1.1,0,0,1-.13.56,1.24,1.24,0,0,1-.34.38,1.3,1.3,0,0,1-.48.21,1.93,1.93,0,0,1-.53.07,2.35,2.35,0,0,1-.6-.08,1.57,1.57,0,0,1-.48-.25,1.18,1.18,0,0,1-.32-.38A1.07,1.07,0,0,1,55.34,40.43Zm2.5,0a.54.54,0,0,0-.07-.27.79.79,0,0,0-.21-.24,1,1,0,0,0-.31-.17,1.1,1.1,0,0,0-.41-.07,1.5,1.5,0,0,0-.46.09.73.73,0,0,0-.31.18.6.6,0,0,0-.17.23.61.61,0,0,0-.06.25.59.59,0,0,0,.09.34.72.72,0,0,0,.23.23,1.22,1.22,0,0,0,.33.14,1.5,1.5,0,0,0,.37,0,1.15,1.15,0,0,0,.37-.06,1,1,0,0,0,.31-.16.83.83,0,0,0,.22-.24A.51.51,0,0,0,57.84,40.43Z" transform="translate(-13 -27)"/><path class="cls-2" d="M65.3,39.57v.5H64.22v.83l1.55,1.58-.32.4L64,41.41,62.69,43l-.38-.36,1.33-1.72v-.84H62.39v-.52Zm-.72,4.16v-.49h2.76L67.48,45l-2.76.18V46H68.3l0,.46H64.39l-.26-.15.1-1.56h2.69v-1Zm2-4.63h.53v1.61h1.22v.53H67.08v1.55h-.55Z" transform="translate(-13 -27)"/><path class="cls-2" d="M71.09,41.85a3.25,3.25,0,0,1,.07-.59,1.77,1.77,0,0,1,.23-.59,1.32,1.32,0,0,1,.43-.45,1.39,1.39,0,0,1,1.37,0,1.45,1.45,0,0,1,.44.45,2,2,0,0,1,.24.59,3.25,3.25,0,0,1,.07.59,3.36,3.36,0,0,1-.07.61,2,2,0,0,1-.24.58,1.42,1.42,0,0,1-.44.44,1.43,1.43,0,0,1-1.35,0A1.42,1.42,0,0,1,71.4,43a2,2,0,0,1-.24-.58A3.36,3.36,0,0,1,71.09,41.85Zm.52,0a2.12,2.12,0,0,0,0,.42,1.28,1.28,0,0,0,.14.43,1,1,0,0,0,.28.32.69.69,0,0,0,.45.13A.72.72,0,0,0,73,43a1.08,1.08,0,0,0,.28-.32,1.28,1.28,0,0,0,.14-.43,2.22,2.22,0,0,0,0-.84,1.5,1.5,0,0,0-.15-.42,1,1,0,0,0-.27-.33.79.79,0,0,0-.44-.13.81.81,0,0,0-.46.13,1,1,0,0,0-.28.33,1.48,1.48,0,0,0-.14.42A3.19,3.19,0,0,0,71.61,41.85Zm3.83,2.72V39.23h.64v5.34Z" transform="translate(-13 -27)"/><path class="cls-2" d="M80.59,41.38l0,.49-3.39-.25v-.5l1.42.09V39.87h.54v1.4ZM80,43.76a1.41,1.41,0,0,1-.39.87,1.2,1.2,0,0,1-1.36.19,1,1,0,0,1-.37-.33,1.4,1.4,0,0,1-.22-.44,2,2,0,0,1-.06-.47,1.85,1.85,0,0,1,.06-.44,1.69,1.69,0,0,1,.2-.46,1.41,1.41,0,0,1,.37-.36,1.06,1.06,0,0,1,.58-.15,1.13,1.13,0,0,1,.89.37,1.44,1.44,0,0,1,.32,1v.13S80,43.72,80,43.76Zm-1.89-.33a.31.31,0,0,0,0,.1v.1a.84.84,0,0,0,0,.31.82.82,0,0,0,.14.26.79.79,0,0,0,.22.18.62.62,0,0,0,.55,0,.63.63,0,0,0,.25-.16.85.85,0,0,0,.17-.3,1.18,1.18,0,0,0,.07-.45,1,1,0,0,0-.17-.57.74.74,0,0,0-1,0A1.32,1.32,0,0,0,78.09,43.43Zm4.6-3h.53v5.2h-.53V43.15h-.86v2.39h-.6V40.41h.6V42.6h.86Z" transform="translate(-13 -27)"/><path class="cls-2" d="M87.08,41.27l0,.47-3.39-.26V41l1.44.1V39.73l.53,0v1.39Zm-.56,2.41a1.63,1.63,0,0,1-.16.5,1.49,1.49,0,0,1-.28.38,1.15,1.15,0,0,1-.85.35,1.36,1.36,0,0,1-.6-.13,1.2,1.2,0,0,1-.4-.33A1.24,1.24,0,0,1,84,44a1.51,1.51,0,0,1-.07-.46A1.92,1.92,0,0,1,84,43a1.36,1.36,0,0,1,.25-.46,1.13,1.13,0,0,1,.4-.32,1.29,1.29,0,0,1,.57-.12,1.23,1.23,0,0,1,.94.38,1.4,1.4,0,0,1,.35,1v.19Zm-2-.39a.9.9,0,0,0,0,.25,1,1,0,0,0,0,.29.79.79,0,0,0,.13.28.83.83,0,0,0,.24.21.8.8,0,0,0,.36.08.68.68,0,0,0,.31-.08.75.75,0,0,0,.26-.21.87.87,0,0,0,.17-.3.86.86,0,0,0,.07-.36,1,1,0,0,0-.2-.6.73.73,0,0,0-.58-.25.76.76,0,0,0-.51.19A1,1,0,0,0,84.47,43.29Zm3.87,2.23-.57,0V39.87h.64v2.4h1.18v.5H88.34Z" transform="translate(-13 -27)"/><path class="cls-2" d="M92.53,44.23h2.7v.59H90.55v-.64h1.53V42.12h.45Zm2.11-.74h-.53V40.63h-3l.07-.65h3.2l.33.47Z" transform="translate(-13 -27)"/><path class="cls-2" d="M98.91,41.51a2.35,2.35,0,0,1,.07-.6,1.62,1.62,0,0,1,.25-.49,1.31,1.31,0,0,1,.44-.33,1.41,1.41,0,0,1,.64-.13,1.2,1.2,0,0,1,.66.17,1.27,1.27,0,0,1,.42.41,1.46,1.46,0,0,1,.23.51,1.66,1.66,0,0,1,.07.46,2.23,2.23,0,0,1-.06.47,1.62,1.62,0,0,1-.21.51,1.24,1.24,0,0,1-.42.4,1.34,1.34,0,0,1-.7.16,1.36,1.36,0,0,1-.67-.14,1.29,1.29,0,0,1-.42-.38A1.34,1.34,0,0,1,99,42,2,2,0,0,1,98.91,41.51Zm.5,0a1.23,1.23,0,0,0,.07.44.78.78,0,0,0,.19.32.86.86,0,0,0,.29.21.67.67,0,0,0,.34.09.86.86,0,0,0,.36-.08.75.75,0,0,0,.27-.23,1,1,0,0,0,.18-.33,1.42,1.42,0,0,0,.06-.42,1.29,1.29,0,0,0-.24-.75.78.78,0,0,0-.63-.31.75.75,0,0,0-.37.09.85.85,0,0,0-.27.23,1,1,0,0,0-.18.34A1.05,1.05,0,0,0,99.41,41.51Zm.48,4.73-.34-.39,1.22-1.25v-.86h.53v.83l1,.7.48-.54.07-.89h.5v.87L104.53,46l-.34.35L103,45.15l-1.17,1.3-.33-.36.39-.44-.84-.61Zm3.92-6.83v4.1h-.56V39.4Z" transform="translate(-13 -27)"/><path class="cls-2" d="M110.58,45.13h-5.13v-.51h5.13ZM106.38,42v-.09a1.61,1.61,0,0,1,.09-.54,1.34,1.34,0,0,1,.29-.45,1.47,1.47,0,0,1,.48-.31,1.9,1.9,0,0,1,.66-.11,2.24,2.24,0,0,1,.77.11,1.56,1.56,0,0,1,.54.31,1.14,1.14,0,0,1,.31.45,1.44,1.44,0,0,1,0,1.15,1.45,1.45,0,0,1-.87.71,2,2,0,0,1-.61.09,2,2,0,0,1-.57-.08,1.59,1.59,0,0,1-.52-.26,1.38,1.38,0,0,1-.39-.41A1,1,0,0,1,106.38,42ZM108,41h-.07a1,1,0,0,0-.76.27.92.92,0,0,0-.26.68.8.8,0,0,0,.09.39.77.77,0,0,0,.26.28,1.4,1.4,0,0,0,.37.17,1.64,1.64,0,0,0,.45,0,1.16,1.16,0,0,0,.42-.07,1.13,1.13,0,0,0,.32-.19.87.87,0,0,0,.22-.26.77.77,0,0,0,.07-.29,1,1,0,0,0-.29-.74A1.24,1.24,0,0,0,108,41Z" transform="translate(-13 -27)"/><path class="cls-2" d="M111.91,40.74h2.45v.52h2.11V40H117v5.33h-.42V43.41h-2.21v.85h-2.18l-.25-.3Zm1.9.52h-1.39v2.4h1.39Zm.53.5V42.9h2.14V41.77Z" transform="translate(-13 -27)"/><path class="cls-2" d="M24.48,50.28l-.34.22a1.07,1.07,0,0,0-.37-.32,1,1,0,0,0-.54-.14,1.15,1.15,0,0,0-.6.16,1.49,1.49,0,0,0-.49.45,2.65,2.65,0,0,0-.32.72,3.23,3.23,0,0,0-.12.91,2.22,2.22,0,0,0,.16.79,2.1,2.1,0,0,0,.4.6,1.63,1.63,0,0,0,.54.37,1.42,1.42,0,0,0,.59.14,1.35,1.35,0,0,0,.7-.18,1.68,1.68,0,0,0,.57-.56l.31.45a2.39,2.39,0,0,1-.76.62,2,2,0,0,1-.86.19,1.77,1.77,0,0,1-.8-.19,2.21,2.21,0,0,1-.7-.52,2.88,2.88,0,0,1-.49-.82,3,3,0,0,1-.18-1.07,3.48,3.48,0,0,1,.12-.9,2.88,2.88,0,0,1,.36-.82,2.12,2.12,0,0,1,.63-.6,1.83,1.83,0,0,1,.93-.23,1.8,1.8,0,0,1,.76.17A1,1,0,0,1,24.48,50.28Z" transform="translate(-13 -27)"/><path class="cls-2" d="M28.3,49.89l-.22.47a.73.73,0,0,0-.15-.11,1.28,1.28,0,0,0-.26-.1l-.33-.09A2.19,2.19,0,0,0,27,50a1.66,1.66,0,0,0-.32,0,1.11,1.11,0,0,0-.27.12.46.46,0,0,0-.18.21.63.63,0,0,0-.07.32.8.8,0,0,0,.19.5,1.29,1.29,0,0,0,.59.38,3.32,3.32,0,0,1,.81.43,1.85,1.85,0,0,1,.44.45,1.29,1.29,0,0,1,.18.45,2,2,0,0,1,0,.41,1.34,1.34,0,0,1-.41,1,1.66,1.66,0,0,1-1.16.36,4.18,4.18,0,0,1-.68-.06,8.13,8.13,0,0,1-.81-.21l.17-.55a3.81,3.81,0,0,0,.61.18,3.53,3.53,0,0,0,.72.08,1.75,1.75,0,0,0,.4,0,.83.83,0,0,0,.32-.13.66.66,0,0,0,.23-.24.77.77,0,0,0,.08-.36,1,1,0,0,0-.18-.6,1.35,1.35,0,0,0-.41-.38,3.36,3.36,0,0,0-.54-.26,3.09,3.09,0,0,1-.54-.29,1.46,1.46,0,0,1-.41-.41,1.2,1.2,0,0,1-.16-.66,1.35,1.35,0,0,1,.1-.57.92.92,0,0,1,.28-.38,1.15,1.15,0,0,1,.43-.21,1.9,1.9,0,0,1,.54-.07,2.57,2.57,0,0,1,.73.1A2.05,2.05,0,0,1,28.3,49.89Z" transform="translate(-13 -27)"/><path class="cls-2" d="M31.75,49.89l-.22.47a.52.52,0,0,0-.15-.11,1.28,1.28,0,0,0-.26-.1l-.33-.09-.35,0a1.69,1.69,0,0,0-.33,0,1.11,1.11,0,0,0-.27.12.53.53,0,0,0-.18.21.76.76,0,0,0-.07.32.82.82,0,0,0,.2.5,1.19,1.19,0,0,0,.59.38,3.42,3.42,0,0,1,.8.43,1.85,1.85,0,0,1,.44.45,1.12,1.12,0,0,1,.18.45,2,2,0,0,1,0,.41,1.34,1.34,0,0,1-.41,1,1.66,1.66,0,0,1-1.16.36,4.37,4.37,0,0,1-.68-.06,8.13,8.13,0,0,1-.81-.21l.17-.55a4.16,4.16,0,0,0,.61.18,3.53,3.53,0,0,0,.72.08,1.75,1.75,0,0,0,.4,0A1,1,0,0,0,31,54a.64.64,0,0,0,.22-.24.66.66,0,0,0,.08-.36,1,1,0,0,0-.17-.6,1.38,1.38,0,0,0-.42-.38,3.36,3.36,0,0,0-.54-.26,3.5,3.5,0,0,1-.54-.29,1.46,1.46,0,0,1-.41-.41,1.29,1.29,0,0,1-.16-.66,1.35,1.35,0,0,1,.1-.57.86.86,0,0,1,.29-.38,1,1,0,0,1,.43-.21,1.79,1.79,0,0,1,.53-.07,2.57,2.57,0,0,1,.73.1A2.05,2.05,0,0,1,31.75,49.89Z" transform="translate(-13 -27)"/><path class="cls-2" d="M34.52,48.86l.21.45a3.49,3.49,0,0,0-.91.59,2.87,2.87,0,0,0-.57.75,3.57,3.57,0,0,0-.29.89,6.63,6.63,0,0,0-.08,1,4.54,4.54,0,0,0,.1,1,2.41,2.41,0,0,0,.32.77,1.92,1.92,0,0,0,.59.58,2.92,2.92,0,0,0,.89.39l0,.46a3.42,3.42,0,0,1-1-.37,2.76,2.76,0,0,1-.75-.6,2.45,2.45,0,0,1-.48-.81,2.64,2.64,0,0,1-.17-1c0-.08,0-.15,0-.23V52.5a5.8,5.8,0,0,1,.11-1.14,3.25,3.25,0,0,1,.36-1,3.3,3.3,0,0,1,.67-.84A4.4,4.4,0,0,1,34.52,48.86Z" transform="translate(-13 -27)"/><path class="cls-2" d="M37.39,51.62l-.11.47L37.11,52,36.88,52l-.27-.05-.27,0a1,1,0,0,0-.41.07.25.25,0,0,0-.16.25.27.27,0,0,0,.14.23,1.69,1.69,0,0,0,.33.16l.38.1.3.06a1.13,1.13,0,0,1,.38.19.87.87,0,0,1,.23.24,1,1,0,0,1,.11.27,1.24,1.24,0,0,1,0,.27.82.82,0,0,1-.13.48,1,1,0,0,1-.33.31,1.3,1.3,0,0,1-.44.17,2.05,2.05,0,0,1-.49.06,2.71,2.71,0,0,1-.71-.1,1.37,1.37,0,0,1-.54-.28l.19-.53.22.15a2,2,0,0,0,.29.11,1.67,1.67,0,0,0,.32.08l.34,0a1.12,1.12,0,0,0,.5-.11.48.48,0,0,0,.27-.38.74.74,0,0,0,0-.12.3.3,0,0,0,0-.15.4.4,0,0,0-.13-.13.71.71,0,0,0-.26-.09,4.72,4.72,0,0,1-.59-.12,1.77,1.77,0,0,1-.46-.2,1.05,1.05,0,0,1-.31-.28.81.81,0,0,1,.18-1,1.5,1.5,0,0,1,.85-.2,2.12,2.12,0,0,1,.57.07A1.68,1.68,0,0,1,37.39,51.62Z" transform="translate(-13 -27)"/><path class="cls-2" d="M38.69,54.44V52.07h-.8l0-.57h.86V49.9h.53v1.63h1.28v.56H39.27v2l1.18-.22.08.54L39,54.76Z" transform="translate(-13 -27)"/><path class="cls-2" d="M42.19,54.12l-1.36-2.36.42-.32,1.15,2.07.76-2.25.43.24L42.06,56l-.42-.27Z" transform="translate(-13 -27)"/><path class="cls-2" d="M44.06,54.19V49.47l.52,0V54l.51.13,0,.56-.86-.17Z" transform="translate(-13 -27)"/><path class="cls-2" d="M45.59,53a1.85,1.85,0,0,1,.13-.72,1.18,1.18,0,0,1,.32-.47,1,1,0,0,1,.42-.25,1.53,1.53,0,0,1,.45-.08,1.7,1.7,0,0,1,.57.09,1,1,0,0,1,.42.3,1.35,1.35,0,0,1,.27.55,3.33,3.33,0,0,1,.1.84l-2.18.21a1.06,1.06,0,0,0,.12.38.82.82,0,0,0,.25.24,1,1,0,0,0,.32.13,1.39,1.39,0,0,0,.35,0,1.79,1.79,0,0,0,.57-.08,1.11,1.11,0,0,0,.41-.21l.14.37a.8.8,0,0,1-.16.16,1.05,1.05,0,0,1-.26.13,1.59,1.59,0,0,1-.33.1,2.43,2.43,0,0,1-.38,0,1.7,1.7,0,0,1-.55-.08,1.36,1.36,0,0,1-.49-.29,1.49,1.49,0,0,1-.35-.54A2.32,2.32,0,0,1,45.59,53Zm.46,0,1.72-.18a.9.9,0,0,0-.21-.62.83.83,0,0,0-.65-.23.85.85,0,0,0-.38.1.82.82,0,0,0-.27.21.85.85,0,0,0-.17.29,1.33,1.33,0,0,0-.05.34A.22.22,0,0,0,46.05,53Z" transform="translate(-13 -27)"/><path class="cls-2" d="M51.48,49.28v5l-.2.25a3.26,3.26,0,0,1-.48.11l-.43,0a1.87,1.87,0,0,1-.8-.15,1.44,1.44,0,0,1-.53-.39,1.42,1.42,0,0,1-.29-.54,2.08,2.08,0,0,1-.09-.6,1.8,1.8,0,0,1,.13-.73,1.41,1.41,0,0,1,.35-.5,1.44,1.44,0,0,1,.48-.28,1.71,1.71,0,0,1,.55-.09,1.76,1.76,0,0,1,.83.2l0-2.36Zm-.51,3a1.36,1.36,0,0,0-.39-.25,1.31,1.31,0,0,0-.43-.08.86.86,0,0,0-.36.07.89.89,0,0,0-.31.19,1.21,1.21,0,0,0-.22.32,1.25,1.25,0,0,0-.08.45,1.13,1.13,0,0,0,.1.51,1.06,1.06,0,0,0,.27.35,1.18,1.18,0,0,0,.39.19,1.49,1.49,0,0,0,.47.07A1.31,1.31,0,0,0,51,54Z" transform="translate(-13 -27)"/><path class="cls-2" d="M56.14,52.47h-4l0-.43h4Z" transform="translate(-13 -27)"/><path class="cls-2" d="M59.33,51.75l-.14.5a1.33,1.33,0,0,0-.49-.3,1.31,1.31,0,0,0-.5-.1,1.1,1.1,0,0,0-.41.07.94.94,0,0,0-.33.23,1.09,1.09,0,0,0-.22.36,1.35,1.35,0,0,0-.08.5,1.59,1.59,0,0,0,.09.57,1.06,1.06,0,0,0,.23.36,1,1,0,0,0,.34.21,1.34,1.34,0,0,0,.4.06,1.05,1.05,0,0,0,.35-.08.92.92,0,0,0,.32-.18,1.37,1.37,0,0,0,.24-.29.93.93,0,0,0,.1-.38l.44.22a1.26,1.26,0,0,1-.14.54,1.44,1.44,0,0,1-.33.4,1.42,1.42,0,0,1-.46.23,1.89,1.89,0,0,1-.53.08,1.65,1.65,0,0,1-.57-.11,1.45,1.45,0,0,1-.5-.31,1.63,1.63,0,0,1-.35-.54,2,2,0,0,1-.13-.76,1.87,1.87,0,0,1,.11-.68,1.62,1.62,0,0,1,.3-.53,1.48,1.48,0,0,1,.47-.35,1.38,1.38,0,0,1,.59-.12,1.71,1.71,0,0,1,.57.1A2.55,2.55,0,0,1,59.33,51.75Z" transform="translate(-13 -27)"/><path class="cls-2" d="M61.38,51.33a1.34,1.34,0,0,1,.66.14,1.16,1.16,0,0,1,.44.38,1.63,1.63,0,0,1,.25.57,2.64,2.64,0,0,1,.08.7,2.22,2.22,0,0,1-.13.73,1.77,1.77,0,0,1-.32.52,1.43,1.43,0,0,1-.44.3,1.52,1.52,0,0,1-.51.09,1.23,1.23,0,0,1-.62-.14,1.21,1.21,0,0,1-.43-.38,1.71,1.71,0,0,1-.27-.54A2.39,2.39,0,0,1,60,53a2.15,2.15,0,0,1,.1-.68,1.66,1.66,0,0,1,.27-.55,1.25,1.25,0,0,1,1-.48Zm0,.53a.89.89,0,0,0-.67.26,1.2,1.2,0,0,0-.25.85,1.63,1.63,0,0,0,.06.45,1.38,1.38,0,0,0,.18.41,1.11,1.11,0,0,0,.28.29.67.67,0,0,0,.37.11.7.7,0,0,0,.38-.1.91.91,0,0,0,.29-.26,1.55,1.55,0,0,0,.19-.36,1.32,1.32,0,0,0,.06-.39,1.53,1.53,0,0,0-.24-1A.8.8,0,0,0,61.42,51.86Z" transform="translate(-13 -27)"/><path class="cls-2" d="M63.2,51.33l.49-.11,0,.34h2.86L67,52V54.4l-.32.05V52.39L66.31,52h-.79v2.54h-.46V52H63.78l.27,2.56-.5.06Z" transform="translate(-13 -27)"/><path class="cls-2" d="M70.39,52.75v.16a1.75,1.75,0,0,1-.13.74,1.46,1.46,0,0,1-.33.48,1.16,1.16,0,0,1-.45.24,1.51,1.51,0,0,1-.46.07,1.7,1.7,0,0,1-.46-.06,1,1,0,0,1-.33-.15L68.3,56l-.49.05V51.78l0-.36a4.49,4.49,0,0,1,1-.13,1.58,1.58,0,0,1,1.11.36A1.52,1.52,0,0,1,70.39,52.75ZM68.16,52l0,1.54s0,.06.08.1a1.09,1.09,0,0,0,.19.1,1.43,1.43,0,0,0,.27.09,1.55,1.55,0,0,0,.31,0,.79.79,0,0,0,.3,0,.65.65,0,0,0,.27-.17,1,1,0,0,0,.2-.34,1.54,1.54,0,0,0,.08-.52,1,1,0,0,0-.09-.43.89.89,0,0,0-.24-.3,1.06,1.06,0,0,0-.35-.18,1.23,1.23,0,0,0-.39-.06,1,1,0,0,0-.35,0A.8.8,0,0,0,68.16,52Z" transform="translate(-13 -27)"/><path class="cls-2" d="M72.08,51.33a1.34,1.34,0,0,1,.66.14,1.27,1.27,0,0,1,.45.38,1.83,1.83,0,0,1,.25.57,3.13,3.13,0,0,1,.08.7,2.49,2.49,0,0,1-.14.73,1.58,1.58,0,0,1-.32.52,1.32,1.32,0,0,1-.44.3,1.44,1.44,0,0,1-.51.09,1.2,1.2,0,0,1-.61-.14,1.24,1.24,0,0,1-.44-.38,1.71,1.71,0,0,1-.27-.54A2.39,2.39,0,0,1,70.7,53a2.48,2.48,0,0,1,.1-.68,2.17,2.17,0,0,1,.27-.55,1.25,1.25,0,0,1,1-.48Zm0,.53a.9.9,0,0,0-.68.26,1.25,1.25,0,0,0-.25.85,1.33,1.33,0,0,0,.07.45,1.38,1.38,0,0,0,.18.41,1,1,0,0,0,.28.29.66.66,0,0,0,.36.11.76.76,0,0,0,.39-.1,1,1,0,0,0,.29-.26,1.52,1.52,0,0,0,.18-.36,1.34,1.34,0,0,0,.07-.39,1.53,1.53,0,0,0-.25-1A.78.78,0,0,0,72.13,51.86Z" transform="translate(-13 -27)"/><path class="cls-2" d="M76.05,52.06H74.53v2.5l-.39,0V51.25l.38-.08v.39l1.81-.11.23.47.24,2.55-.5.14Z" transform="translate(-13 -27)"/><path class="cls-2" d="M77.22,53a1.87,1.87,0,0,1,.12-.72,1.3,1.3,0,0,1,.32-.47,1.1,1.1,0,0,1,.43-.25,1.42,1.42,0,0,1,.45-.08,1.64,1.64,0,0,1,.56.09,1,1,0,0,1,.43.3,1.66,1.66,0,0,1,.27.55,3.37,3.37,0,0,1,.09.84l-2.17.21a.78.78,0,0,0,.12.38.82.82,0,0,0,.25.24.83.83,0,0,0,.32.13,1.34,1.34,0,0,0,.35,0,1.79,1.79,0,0,0,.57-.08,1.05,1.05,0,0,0,.4-.21l.15.37a.88.88,0,0,1-.17.16.9.9,0,0,1-.26.13,1.59,1.59,0,0,1-.33.1,2.34,2.34,0,0,1-.38,0,1.68,1.68,0,0,1-.54-.08,1.4,1.4,0,0,1-.5-.29,1.63,1.63,0,0,1-.35-.54A2.34,2.34,0,0,1,77.22,53Zm.45,0,1.72-.18a.94.94,0,0,0-.2-.62.87.87,0,0,0-.66-.23.93.93,0,0,0-.38.1,1.09,1.09,0,0,0-.27.21.83.83,0,0,0-.16.29,1,1,0,0,0-.06.34S77.67,53,77.67,53Z" transform="translate(-13 -27)"/><path class="cls-2" d="M82.52,52.06H81v2.5l-.39,0V51.25l.37-.08v.39l1.82-.11.23.47.24,2.55-.5.14Z" transform="translate(-13 -27)"/><path class="cls-2" d="M84.33,54.44V52.07h-.8l0-.57h.86V49.9H85v1.63h1.28v.56H84.91v2l1.18-.22.08.54-1.56.32Z" transform="translate(-13 -27)"/><path class="cls-2" d="M88.83,51.62l-.11.47L88.55,52,88.32,52,88,51.91l-.27,0a1,1,0,0,0-.4.07.26.26,0,0,0-.17.25.29.29,0,0,0,.14.23,2.16,2.16,0,0,0,.34.16l.38.1.3.06a1.13,1.13,0,0,1,.38.19.83.83,0,0,1,.22.24.8.8,0,0,1,.12.27,1.24,1.24,0,0,1,0,.27.82.82,0,0,1-.13.48,1.09,1.09,0,0,1-.33.31,1.3,1.3,0,0,1-.44.17,2.12,2.12,0,0,1-.49.06,2.84,2.84,0,0,1-.72-.1,1.4,1.4,0,0,1-.53-.28l.19-.53a1.39,1.39,0,0,0,.22.15l.28.11a2,2,0,0,0,.33.08l.34,0a1.15,1.15,0,0,0,.5-.11.49.49,0,0,0,.26-.38.57.57,0,0,0,0-.12.35.35,0,0,0-.19-.28.66.66,0,0,0-.25-.09,4.72,4.72,0,0,1-.59-.12,1.77,1.77,0,0,1-.46-.2.94.94,0,0,1-.31-.28.7.7,0,0,1-.12-.4A.71.71,0,0,1,87,51.6a1.55,1.55,0,0,1,.85-.2,2.25,2.25,0,0,1,.58.07A2,2,0,0,1,88.83,51.62Z" transform="translate(-13 -27)"/><path class="cls-2" d="M89.38,49.31l.21-.45a4.6,4.6,0,0,1,1,.7,3.39,3.39,0,0,1,.67.86,4,4,0,0,1,.35,1,6.31,6.31,0,0,1,.11,1.18,6.19,6.19,0,0,1,0,.63,3.27,3.27,0,0,1-.11.56,2.13,2.13,0,0,1-.21.49,3.22,3.22,0,0,1-.33.45,3.47,3.47,0,0,1-.76.6,3.36,3.36,0,0,1-1,.37l0-.46a2.92,2.92,0,0,0,.89-.39,2,2,0,0,0,.58-.59,2.32,2.32,0,0,0,.32-.77,4.61,4.61,0,0,0,.09-1,6.63,6.63,0,0,0-.08-1,3.21,3.21,0,0,0-.29-.89,3,3,0,0,0-.56-.73A3.6,3.6,0,0,0,89.38,49.31Z" transform="translate(-13 -27)"/><path class="cls-2" d="M95.42,51a1.7,1.7,0,0,1-.08.51,1.27,1.27,0,0,1-.23.41,1.36,1.36,0,0,1-.33.3,1.24,1.24,0,0,1-.4.16l0,1.21h1.49v.57h-3.6v-.63h1.57l0-1.15a1.1,1.1,0,0,1-.53-.21,1.42,1.42,0,0,1-.33-.36,1.32,1.32,0,0,1-.17-.41,1.51,1.51,0,0,1,0-.4,1.76,1.76,0,0,1,.06-.42,1.62,1.62,0,0,1,.22-.46,1.45,1.45,0,0,1,.41-.37,1.23,1.23,0,0,1,.63-.16,1.26,1.26,0,0,1,.51.11,1.1,1.1,0,0,1,.42.29,1.35,1.35,0,0,1,.29.44A1.32,1.32,0,0,1,95.42,51Zm-2.14,0a1,1,0,0,0,.06.34.71.71,0,0,0,.16.28.86.86,0,0,0,.26.2.87.87,0,0,0,.37.07.71.71,0,0,0,.32-.07,1,1,0,0,0,.25-.2.9.9,0,0,0,.16-.29.88.88,0,0,0,.06-.33,1,1,0,0,0-.06-.34,1.19,1.19,0,0,0-.18-.29.86.86,0,0,0-.26-.2.73.73,0,0,0-.33-.08.69.69,0,0,0-.34.09.72.72,0,0,0-.25.21.75.75,0,0,0-.16.29A.87.87,0,0,0,93.28,51Zm3.22,3.7V49.34h.61v2.2h1.11v.52H97.08v2.59Z" transform="translate(-13 -27)"/><path class="cls-2" d="M102.33,52.51h2V53h-3.59v-.55h1V50.9h.48ZM104,52h-.53V49.89h-2.36l.07-.66h2.51l.33.47Zm-2.09,3.66V53.75h.55v1.64h3.47v.48h-3.8Zm3.19-1.75V49h.5v1.89h1.11v.51h-1.1v2.54Z" transform="translate(-13 -27)"/><path class="cls-2" d="M107.53,49.86v-.49H110l.15,1.85-2.25.26v.86h2.61l0,.49h-3l-.3-.16V51l2.32-.24-.08-.89Zm2,5.65V53.59h.55v1.64h2.69v.49h-3ZM112.63,49v4.89h-.5v-2h-1.6v-.5h1.57v-.77h-1.54v-.5h1.53V49Z" transform="translate(-13 -27)"/><path class="cls-2" d="M119,52.37V53h1.63v1.8h-3.47v.76h3.94V56h-4.19l-.27-.16V54.33h3.46v-.85h-3.19V53h1.53v-.61h-2.55l0-.48h5.46v.43Zm1.36-1.72v.52h-3l-.29-.31V48.62h3V49h-2.45v.64h2.49v.45h-2.49v.55Z" transform="translate(-13 -27)"/><path class="cls-2" d="M127.86,52.44h-5.5l0-.44h5.45Zm-4.48.59h3.71v1.72h-3.46v.69h3.93v.4h-4.18l-.27-.15V54.25h3.45v-.77h-3.18Zm.45-1.83-.33-.3V48.84h3v.52H124v1.33h2.63v.53Z" transform="translate(-13 -27)"/><path class="cls-2" d="M134.3,52.28h-5.5l0-.44h5.45Zm-4.49.75h3.72v1.72h-3.47v.69H134v.4h-4.19l-.26-.15V54.25H133v-.77h-3.19Zm.22-3a1.14,1.14,0,0,1,.12-.52,1.19,1.19,0,0,1,.33-.38,2,2,0,0,1,.49-.23,2.15,2.15,0,0,1,.58-.07,1.79,1.79,0,0,1,.57.09,1.41,1.41,0,0,1,.47.25,1.14,1.14,0,0,1,.32.38A1,1,0,0,1,133,50a1.1,1.1,0,0,1-.13.56,1.16,1.16,0,0,1-.35.38,1.33,1.33,0,0,1-.47.21,2,2,0,0,1-.53.07,2.23,2.23,0,0,1-.6-.08,1.37,1.37,0,0,1-.48-.25A1.1,1.1,0,0,1,130,50Zm2.5,0a.52.52,0,0,0-.07-.27.79.79,0,0,0-.21-.24,1,1,0,0,0-.32-.17,1,1,0,0,0-.4-.07,1.44,1.44,0,0,0-.46.09.83.83,0,0,0-.31.17.71.71,0,0,0-.17.24.61.61,0,0,0-.06.25.59.59,0,0,0,.09.34.72.72,0,0,0,.23.23,1.1,1.1,0,0,0,.33.14,2.21,2.21,0,0,0,.37,0,1.15,1.15,0,0,0,.37-.06,1,1,0,0,0,.31-.16,1,1,0,0,0,.22-.24A.6.6,0,0,0,132.53,50Z" transform="translate(-13 -27)"/><path class="cls-2" d="M140.16,52.89v.51h-2.89l-.24-.29V49.92h2.7v.58h-2.15v2.34Zm1.56,1.59h-.58V49.14h.61v2.4h1.34v.52h-1.37Z" transform="translate(-13 -27)"/><path class="cls-2" d="M146.63,51.36H145.3v.93L146.84,54l-.31.34-1.48-1.51-1.25,1.59-.41-.37,1.39-1.69v-1H143.5v-.5h1.27V49.7h.51v1.17h1.35ZM148.91,50h.53v5.2h-.53V52.75h-.86v2.39h-.6V50h.6V52.2h.86Z" transform="translate(-13 -27)"/><path class="cls-2" d="M151.27,48.59h3.26v1.88h-2.94v.87h3.25v.45h-1.57l.06.9h2.31v.54h-5.47v-.59h2.6l-.06-.8h-1.3l-.38-.33V50h3v-.93h-2.75ZM151,53.7l.61-.05,0,.71h3l-.08-.71.48,0,.19,2.33h-3.62l-.33-.16Zm3.6,1.78,0-.73h-2.94v.78Z" transform="translate(-13 -27)"/><path class="cls-2" d="M157.8,54l-.49-.12,1.08-3.77h-1.95v-.59h2.33l.2.48-.35,1.21h1.52V49.42h.52V54l-.49,0V51.78h-1.7Zm3.7.19v-5H162v4.94Z" transform="translate(-13 -27)"/><path class="cls-2" d="M26.08,62H24.55v1.61H27v.56H21.53V63.6h2.52V62H22.59l-.23-.26V59.13h3.53v.58h-1.3v1.83h1.49Zm-2-2.38H22.91V61.5H24Z" transform="translate(-13 -27)"/><path class="cls-2" d="M28.05,61.08a1.34,1.34,0,0,1,.09-.46.83.83,0,0,1,.27-.38l-.88-.09.08-.49,1.67.17.1-1.06.51,0-.08,1.08,1.42.14,0,.5-.78-.07a.9.9,0,0,1,.17.37,2.08,2.08,0,0,1,.05.4,1.32,1.32,0,0,1-.14.49,1.38,1.38,0,0,1-.28.4,1.18,1.18,0,0,1-.37.26,1.11,1.11,0,0,1-.43.09,1.41,1.41,0,0,1-.71-.15,1.16,1.16,0,0,1-.41-.38,1.43,1.43,0,0,1-.2-.46A2.25,2.25,0,0,1,28.05,61.08Zm.5,0a.15.15,0,0,0,0,.07.86.86,0,0,0,.05.27,1,1,0,0,0,.16.26.78.78,0,0,0,.24.19.66.66,0,0,0,.32.07.78.78,0,0,0,.35-.07.88.88,0,0,0,.25-.18,1.17,1.17,0,0,0,.15-.27,1.06,1.06,0,0,0,.05-.31.72.72,0,0,0-.22-.56.79.79,0,0,0-.57-.21.72.72,0,0,0-.53.21A.73.73,0,0,0,28.55,61.08Zm1,4.19V63.35h.55V65h2.68v.48h-3ZM31.92,59l.53.07v1.81H33.7v.53H32.45v2.23l-.56,0Z" transform="translate(-13 -27)"/><path class="cls-2" d="M37.67,61.33a1.32,1.32,0,0,1,.08-.44.93.93,0,0,1,.26-.36,1.37,1.37,0,0,1,.45-.24,2.62,2.62,0,0,1,.67-.08,1.81,1.81,0,0,1,.65.1,1.27,1.27,0,0,1,.44.27.93.93,0,0,1,.26.37,1,1,0,0,1,.08.4,1.08,1.08,0,0,1-.33.78l0,1.7h1.65v.53H36.44v-.64H38.3l0-1.43a1,1,0,0,1-.45-.43A1.2,1.2,0,0,1,37.67,61.33Zm3.25-1.73,0,.48H37.33v-.67h1.58v-.92l.56,0v1Zm-.87,1.75a.64.64,0,0,0-.23-.47,1,1,0,0,0-.69-.2,1.21,1.21,0,0,0-.72.18.54.54,0,0,0-.24.45.66.66,0,0,0,.14.37.81.81,0,0,0,.43.28h.06v0A.33.33,0,0,0,39,62h.18a1,1,0,0,0,.68-.19A.66.66,0,0,0,40.05,61.35Zm-.32,1.08a2.35,2.35,0,0,1-.6.07H39l-.15,0,0,1.31h.87Z" transform="translate(-13 -27)"/><path class="cls-2" d="M44.66,62.63v-.8H42.84l0-.47h5.45v.44H46.67v.83h.91v1.8H44.11v.76h3.94v.41H43.86l-.27-.16V63.93h3.46v-.85H43.86v-.45Zm-.58-3.14A1.14,1.14,0,0,1,44.2,59a1.19,1.19,0,0,1,.33-.38,1.71,1.71,0,0,1,.49-.23,2.12,2.12,0,0,1,.57-.07,1.81,1.81,0,0,1,.58.09,1.51,1.51,0,0,1,.47.25A1.27,1.27,0,0,1,47,59a1,1,0,0,1,.12.48,1.22,1.22,0,0,1-.13.56,1.27,1.27,0,0,1-.35.38,1.33,1.33,0,0,1-.47.21,2,2,0,0,1-.54.07,2.21,2.21,0,0,1-.59-.08,1.37,1.37,0,0,1-.48-.25A1,1,0,0,1,44.2,60,1.07,1.07,0,0,1,44.08,59.49Zm2.5,0a.53.53,0,0,0-.08-.27.76.76,0,0,0-.2-.24,1.09,1.09,0,0,0-.32-.17,1.05,1.05,0,0,0-.4-.07,1.57,1.57,0,0,0-.47.09.92.92,0,0,0-.31.17,1.18,1.18,0,0,0-.17.24.79.79,0,0,0-.05.25.59.59,0,0,0,.09.34.63.63,0,0,0,.23.23,1,1,0,0,0,.32.14,2.33,2.33,0,0,0,.37,0,1.1,1.1,0,0,0,.37-.06,1.07,1.07,0,0,0,.32-.16,1,1,0,0,0,.22-.24A.6.6,0,0,0,46.58,59.49Zm-1.41,2.36v.78h1v-.8Z" transform="translate(-13 -27)"/><path class="cls-2" d="M52.06,58.86v.5H50.89v.94l1.58,1.63-.31.4-1.5-1.47-1.25,1.63L49,62.08l1.32-1.76v-1H49.09v-.51Zm2.47,6.69h-.76L54,63.79H50.13v-.52h4.12l.28.33ZM54.3,58.6v4.11h-.5V60.43H51.92v-.5h1.85V58.61Z" transform="translate(-13 -27)"/><path class="cls-2" d="M61,64.33H55.91v-.51H61Zm-4.2-3.15v-.09a1.4,1.4,0,0,1,.1-.54,1.31,1.31,0,0,1,.28-.45,1.47,1.47,0,0,1,.48-.31,1.9,1.9,0,0,1,.66-.11,2.3,2.3,0,0,1,.78.11,1.61,1.61,0,0,1,.53.31,1.28,1.28,0,0,1,.32.45,1.68,1.68,0,0,1,.1.55,1.32,1.32,0,0,1-.13.6,1.36,1.36,0,0,1-.35.44,1.56,1.56,0,0,1-.51.27,2.1,2.1,0,0,1-.61.09,1.87,1.87,0,0,1-.57-.08,1.85,1.85,0,0,1-.53-.25,1.42,1.42,0,0,1-.39-.42A1.06,1.06,0,0,1,56.83,61.18Zm1.62-1h-.07a1,1,0,0,0-.76.27,1,1,0,0,0-.26.68.8.8,0,0,0,.09.39.87.87,0,0,0,.26.28,1.46,1.46,0,0,0,.38.17,1.61,1.61,0,0,0,.44,0,1.16,1.16,0,0,0,.42-.07,1.06,1.06,0,0,0,.33-.19,1,1,0,0,0,.21-.26.62.62,0,0,0,.07-.29,1,1,0,0,0-.28-.74A1.27,1.27,0,0,0,58.45,60.16Z" transform="translate(-13 -27)"/><path class="cls-2" d="M63.42,58.83h3.1v1.92H63.7v1.1h3.13v.42H65.21v1.52h2.45v.57H62.19v-.64H64.7V62.33H63.53L63.16,62V60.25H66v-.93H63.42Z" transform="translate(-13 -27)"/><path class="cls-2" d="M71.19,59.88a1.41,1.41,0,0,1,.08-.4.78.78,0,0,1,.28-.38L70.91,59l.06-.44,1.36.16.11-.84L73,58l-.09.85,1.16.12,0,.42-.59-.06a2.71,2.71,0,0,1,.13.3,1.15,1.15,0,0,1,0,.33,1.17,1.17,0,0,1-.24.74,1,1,0,0,1-.67.37l0,.79h1.44v.53H70.72V61.8h1.44l0-.77a1.22,1.22,0,0,1-.5-.17.92.92,0,0,1-.42-.64C71.2,60.1,71.19,60,71.19,59.88Zm.65,3.36v-.49h3.39l.15,1.55H72v.88h4.33l0,.47H71.66l-.27-.16L71.5,64h3.31v-.78Zm-.15-3.36v0a.61.61,0,0,0,.69.65.65.65,0,0,0,.54-.21.83.83,0,0,0,.17-.54.6.6,0,0,0-.2-.48.8.8,0,0,0-.51-.17.67.67,0,0,0-.47.18A.67.67,0,0,0,71.69,59.88Zm3,2.45V58.6h.5v1.58H76.3v.51H75.2v1.66Z" transform="translate(-13 -27)"/><path class="cls-2" d="M78.27,60a1.19,1.19,0,0,1,.12-.54,1.13,1.13,0,0,1,.33-.39,1.32,1.32,0,0,1,.49-.24,2.21,2.21,0,0,1,.59-.08,1.74,1.74,0,0,1,.61.1,1.59,1.59,0,0,1,.48.26,1.35,1.35,0,0,1,.32.4,1,1,0,0,1,.12.49,1.12,1.12,0,0,1-.12.53,1.07,1.07,0,0,1-.3.36L81,62.24h1.58v.51H77.09v-.59h1.66V60.93h0a1.23,1.23,0,0,1-.33-.39A1.1,1.1,0,0,1,78.27,60Zm.11,4.38a1.13,1.13,0,0,1,.09-.45,1.17,1.17,0,0,1,.3-.37,1.42,1.42,0,0,1,.49-.25,2.29,2.29,0,0,1,.68-.09,2.26,2.26,0,0,1,.67.09,1.47,1.47,0,0,1,.5.25,1,1,0,0,1,.29.37,1,1,0,0,1,.1.45,1,1,0,0,1-.1.46,1,1,0,0,1-.29.37,1.67,1.67,0,0,1-.5.25,2.26,2.26,0,0,1-.67.09,2.29,2.29,0,0,1-.68-.09,1.61,1.61,0,0,1-.49-.25,1.17,1.17,0,0,1-.3-.37A1.18,1.18,0,0,1,78.38,64.4ZM80.83,60a.72.72,0,0,0-.07-.28,1,1,0,0,0-.2-.25.87.87,0,0,0-.31-.18,1,1,0,0,0-.39-.07,1.45,1.45,0,0,0-.49.07,1,1,0,0,0-.34.17.76.76,0,0,0-.2.24.66.66,0,0,0-.06.27.65.65,0,0,0,.08.35.76.76,0,0,0,.23.24.94.94,0,0,0,.34.14,1.84,1.84,0,0,0,.41.05,1.51,1.51,0,0,0,.37-.06,1.35,1.35,0,0,0,.32-.15.87.87,0,0,0,.23-.24A.61.61,0,0,0,80.83,60ZM81,64.4a.58.58,0,0,0-.27-.49,1.18,1.18,0,0,0-.74-.2,1.21,1.21,0,0,0-.76.2.59.59,0,0,0-.26.49.64.64,0,0,0,.26.5,1.27,1.27,0,0,0,.76.2,1.25,1.25,0,0,0,.74-.2A.62.62,0,0,0,81,64.4Zm-.55-3.22a1.45,1.45,0,0,1-.3.06h-.59a1,1,0,0,1-.26-.06l0,1h1.13Z" transform="translate(-13 -27)"/><path class="cls-2" d="M86.66,60.47l0,.47-3.39-.26v-.49l1.44.1V58.93l.53,0v1.39Zm-.57,2.41a1.39,1.39,0,0,1-.15.5,1.49,1.49,0,0,1-.28.38,1.16,1.16,0,0,1-.39.26,1.18,1.18,0,0,1-.46.09,1.33,1.33,0,0,1-.6-.13,1.35,1.35,0,0,1-.41-.33,1.4,1.4,0,0,1-.22-.44,1.51,1.51,0,0,1-.07-.46,1.92,1.92,0,0,1,.08-.55,1.21,1.21,0,0,1,.25-.46,1.13,1.13,0,0,1,.4-.32,1.37,1.37,0,0,1,1.51.26,1.44,1.44,0,0,1,.35,1v.1A.28.28,0,0,1,86.09,62.88Zm-2-.39a.9.9,0,0,0,0,.25,1.5,1.5,0,0,0,0,.29,1,1,0,0,0,.14.28.83.83,0,0,0,.24.21.8.8,0,0,0,.36.08.68.68,0,0,0,.31-.08.75.75,0,0,0,.26-.21.87.87,0,0,0,.17-.3,1,1,0,0,0,.06-.36.91.91,0,0,0-.2-.6.67.67,0,0,0-.57-.25.76.76,0,0,0-.51.19A1,1,0,0,0,84.05,62.49Zm3.87,2.23-.58,0V59.07H88v2.4h1.19V62H87.92Z" transform="translate(-13 -27)"/><path class="cls-2" d="M89.84,61.63a3.25,3.25,0,0,1,.07-.59,1.8,1.8,0,0,1,.23-.58,1.32,1.32,0,0,1,.43-.45,1.23,1.23,0,0,1,.7-.18A1.16,1.16,0,0,1,92,60a1.45,1.45,0,0,1,.44.45l2.31,0V59.22h.49v5.33h-.42V62.61H92.49a1.54,1.54,0,0,1-.45.57,1.2,1.2,0,0,1-.77.24,1.26,1.26,0,0,1-1.12-.6,2,2,0,0,1-.24-.58A3.26,3.26,0,0,1,89.84,61.63Zm.52,0a2.12,2.12,0,0,0,0,.42,1.23,1.23,0,0,0,.14.42,1,1,0,0,0,.28.33.75.75,0,0,0,.45.13.74.74,0,0,0,.44-.13,1,1,0,0,0,.28-.33,1.23,1.23,0,0,0,.14-.42,2.23,2.23,0,0,0,0-.84,1.5,1.5,0,0,0-.15-.42,1,1,0,0,0-.27-.33.79.79,0,0,0-.44-.13.81.81,0,0,0-.46.13,1,1,0,0,0-.28.33,1.48,1.48,0,0,0-.14.42A3.19,3.19,0,0,0,90.36,61.63ZM92.6,61a2.05,2.05,0,0,1,.07.34c0,.12,0,.23,0,.33s0,.16,0,.23l0,.24,2.07,0V61Z" transform="translate(-13 -27)"/><path class="cls-2" d="M97,62.82l.64.62-1,1.53-.39-.29.69-1.1-.35-.37Z" transform="translate(-13 -27)"/><path class="cls-2" d="M22.38,68.82v-.06h.51L23,70h2.29l-.08-1.25.51,0V72H24.56V73.4H27V74H21.53v-.61h2.52V72H22.91l-.35-.25Zm3,2.64V70.4H23l.08,1.06Z" transform="translate(-13 -27)"/><path class="cls-2" d="M30.84,69.23l-1.17,4-.53-.11,1.08-3.7H28l0-.61h2.53Zm1.49,4.14V68H33v5.34Z" transform="translate(-13 -27)"/><path class="cls-2" d="M39.52,71.2h2.39v.55H36.44v-.6H39V69.9h.5Zm-2.16-1.13,1.53-1.36,0-.62H37.47v-.47H40.8v.47H39.48l0,.64L41,70l-.31.39-1.47-1.22-1.44,1.3ZM41,73.31H37.7v-.56h1.44l.08-.72h.55l-.08.78H41Zm-1.7.23a2.08,2.08,0,0,1,1,.22.73.73,0,0,1,.36.66.78.78,0,0,1-.12.44,1.07,1.07,0,0,1-.3.3,1.47,1.47,0,0,1-.43.16,2.42,2.42,0,0,1-.47.05,2,2,0,0,1-.51-.06,1.28,1.28,0,0,1-.41-.18.77.77,0,0,1-.27-.27.65.65,0,0,1-.1-.36.81.81,0,0,1,.32-.68A1.38,1.38,0,0,1,39.28,73.54Zm.92.83a.35.35,0,0,0-.24-.28,1.28,1.28,0,0,0-.5-.09,1.72,1.72,0,0,0-.32,0,1.15,1.15,0,0,0-.28.09.58.58,0,0,0-.19.15.33.33,0,0,0-.08.22.29.29,0,0,0,.07.19.37.37,0,0,0,.17.13.85.85,0,0,0,.24.08l.26,0a1.46,1.46,0,0,0,.62-.12.4.4,0,0,0,.25-.36Z" transform="translate(-13 -27)"/><path class="cls-2" d="M45,73h2.7v.59H43V73h1.53V70.92H45Zm2.11-.74h-.54V69.43h-3l.06-.65h3.2l.33.47Z" transform="translate(-13 -27)"/><path class="cls-2" d="M49.86,72.42l.64.62-1,1.53-.39-.29.68-1.1-.34-.37Z" transform="translate(-13 -27)"/><path class="cls-2" d="M55.45,72.23l-.39-.34.57-.68-.44-.57-1.52,1.57-.39-.4,1.66-1.71.11-1.23h.53l-.1,1.25.52.7.5-.7.11-1.23h.53l-.09,1.25,1.61,1.62-.32.39L56.8,70.64Zm3.25,1.55H53.42v-.52H58.7Z" transform="translate(-13 -27)"/><path class="cls-2" d="M62.73,69.23l-1.17,4L61,73.15l1.08-3.7h-2.2l0-.61h2.53Zm1.49,4.14V68h.64v5.34Z" transform="translate(-13 -27)"/><path class="cls-2" d="M71.41,71.2H73.8v.55H68.33v-.6h2.51V69.9h.5Zm-2.16-1.13,1.53-1.36,0-.62H69.36v-.47h3.33v.47H71.38l0,.64L72.84,70l-.31.39-1.47-1.22-1.43,1.3Zm3.63,3.24H69.59v-.56H71l.08-.72h.55l-.08.78h1.3Zm-1.71.23a2.05,2.05,0,0,1,1,.22.73.73,0,0,1,.36.66.78.78,0,0,1-.12.44,1.07,1.07,0,0,1-.3.3,1.47,1.47,0,0,1-.43.16,2.42,2.42,0,0,1-.47.05,2.1,2.1,0,0,1-.51-.06,1.28,1.28,0,0,1-.41-.18.77.77,0,0,1-.27-.27.65.65,0,0,1-.1-.36.84.84,0,0,1,.32-.68A1.38,1.38,0,0,1,71.17,73.54Zm.92.83a.35.35,0,0,0-.23-.28,1.36,1.36,0,0,0-.51-.09A1.72,1.72,0,0,0,71,74a1.15,1.15,0,0,0-.28.09.58.58,0,0,0-.19.15.33.33,0,0,0-.08.22.29.29,0,0,0,.07.19.37.37,0,0,0,.17.13.85.85,0,0,0,.24.08l.26,0a1.46,1.46,0,0,0,.62-.12.4.4,0,0,0,.25-.36Z" transform="translate(-13 -27)"/><path class="cls-2" d="M80.23,72.1h-5.5l0-.43h5.45ZM76.09,75l-.34-.27V72.92h.48v1.5l3.55.08a1.63,1.63,0,0,0,0,.24V75a.07.07,0,0,1,0,0Zm-.15-5.33a1.19,1.19,0,0,1,.12-.54,1,1,0,0,1,.33-.39,1.32,1.32,0,0,1,.49-.24,2.21,2.21,0,0,1,.59-.08,1.74,1.74,0,0,1,.61.1,1.38,1.38,0,0,1,.48.26,1.35,1.35,0,0,1,.32.4,1,1,0,0,1,.12.49,1.15,1.15,0,0,1-.14.57,1.16,1.16,0,0,1-.35.38,1.67,1.67,0,0,1-.49.22,2.64,2.64,0,0,1-.55.06,2,2,0,0,1-.61-.08,1.51,1.51,0,0,1-.49-.25,1,1,0,0,1-.32-.39A1.19,1.19,0,0,1,75.94,69.62Zm2.56,0a.58.58,0,0,0-.07-.28,1,1,0,0,0-.2-.26,1.11,1.11,0,0,0-.3-.17,1,1,0,0,0-.4-.07,1.45,1.45,0,0,0-.49.07,1.08,1.08,0,0,0-.34.17.76.76,0,0,0-.2.24.66.66,0,0,0-.06.27.78.78,0,0,0,.08.35.76.76,0,0,0,.23.24.94.94,0,0,0,.34.14,1.84,1.84,0,0,0,.41.05,1.67,1.67,0,0,0,.38-.06,1.57,1.57,0,0,0,.32-.15,1,1,0,0,0,.22-.24A.61.61,0,0,0,78.5,69.62Z" transform="translate(-13 -27)"/><path class="cls-2" d="M84.91,71.84v1h-.52v-1H83v-.45h3.18v.4Zm.84-2.24a1.29,1.29,0,0,1-.1.53,1.2,1.2,0,0,1-.26.4,1.17,1.17,0,0,1-.8.36,1.42,1.42,0,0,1-.62-.13,1.39,1.39,0,0,1-.39-.32,1.19,1.19,0,0,1-.21-.42,1.64,1.64,0,0,1-.06-.42,1.31,1.31,0,0,1,.07-.41,1.38,1.38,0,0,1,.21-.42,1.12,1.12,0,0,1,.38-.33,1.16,1.16,0,0,1,.58-.13,1.2,1.2,0,0,1,.45.09,1.27,1.27,0,0,1,.39.26,1.25,1.25,0,0,1,.26.41A1.32,1.32,0,0,1,85.75,69.6Zm-2,0a.89.89,0,0,0,.18.56.7.7,0,0,0,.58.24.55.55,0,0,0,.28-.07.66.66,0,0,0,.23-.17.82.82,0,0,0,.16-.25,1.06,1.06,0,0,0,0-.31.85.85,0,0,0-.06-.31.92.92,0,0,0-.16-.27.65.65,0,0,0-.24-.19.57.57,0,0,0-.29-.07.83.83,0,0,0-.32.07A.87.87,0,0,0,84,69a1.15,1.15,0,0,0-.14.27A1.13,1.13,0,0,0,83.8,69.6Zm1,3.43h.48v.57h2.88V73l.5,0v2.17H85.13L84.8,75Zm3.4,1.65V74H85.28v.72Zm-.5-2.15h-.54V69.85H86.09v-.5h1V68.17h.55Zm.58-4.39h.53v4.42h-.53Z" transform="translate(-13 -27)"/><path class="cls-2" d="M95.05,72l0,.48H91.44v-.62h.64L92.34,69h-.78l.07-.55,3.06.19,0,.52h-.61V72Zm-2.21-3L92.66,72h.81V69.12Zm1.58,1.61v-.53h1.31V68.32h.55V73.2l-.51,0V70.68Zm2.36-2.54h.53V73.4h-.53Z" transform="translate(-13 -27)"/><path class="cls-2" d="M98.16,70.65a3.19,3.19,0,0,1,.06-.59,2,2,0,0,1,.23-.59,1.42,1.42,0,0,1,.43-.45,1.28,1.28,0,0,1,.7-.18,1.2,1.2,0,0,1,.67.18,1.45,1.45,0,0,1,.44.45,2,2,0,0,1,.24.59,2.55,2.55,0,0,1,.07.59,2.66,2.66,0,0,1-.07.61,2,2,0,0,1-.24.58,1.42,1.42,0,0,1-.44.44,1.28,1.28,0,0,1-.67.17,1.26,1.26,0,0,1-.67-.17,1.45,1.45,0,0,1-.45-.44,1.72,1.72,0,0,1-.23-.58A2.66,2.66,0,0,1,98.16,70.65Zm.51,0a2.12,2.12,0,0,0,0,.42,1.55,1.55,0,0,0,.14.43,1,1,0,0,0,.28.32.73.73,0,0,0,.45.13.72.72,0,0,0,.44-.13,1,1,0,0,0,.28-.32,1.57,1.57,0,0,0,.15-.43,3.19,3.19,0,0,0,0-.42,2.12,2.12,0,0,0,0-.42,1.88,1.88,0,0,0-.14-.42,1,1,0,0,0-.28-.33.79.79,0,0,0-.44-.13.81.81,0,0,0-.46.13,1,1,0,0,0-.28.33,1.47,1.47,0,0,0-.13.42A2.12,2.12,0,0,0,98.67,70.65Zm3.83,2.72V68h.64v5.34Z" transform="translate(-13 -27)"/><path class="cls-2" d="M107.61,70h-1.09V71.2l1.57,1.89-.31.39-1.56-1.72L105,73.57l-.39-.4,1.36-2V70h-1.25v-.5h2.9Zm1.69,4.21V68.82h.64v5.35Z" transform="translate(-13 -27)"/><path class="cls-2" d="M116.48,71.64H111l0-.44h5.45Zm-4.48.73h3.72V74.1h-3.47v.69h3.94v.41H112l-.27-.16V73.6h3.46v-.76H112Zm.22-4.73h3.16v1.67h-3V70h3.3v.46h-3.46l-.37-.29V68.85h3v-.73h-2.65Z" transform="translate(-13 -27)"/><path class="cls-2" d="M122.2,69.65h-1.09v1.24l1.58,1.89-.31.39-1.54-1.74-1.14,1.82-.45-.3,1.28-2V69.65h-1.11v-.5h2.77ZM121.75,71v-.53h1.47V68.71h.55v4.91l-.52,0V71Zm2.78-2.45h.53v5.29h-.53Z" transform="translate(-13 -27)"/><path class="cls-2" d="M128.61,68.62v.5h-1.08V70l1.55,1.58-.31.4-1.5-1.42L126,72.09l-.39-.41L127,70v-.84H125.7V68.6Zm2.19,6.53h-.57V73.39h-3.84v-.52h4.13l.28.33Zm-.92-7h.53v1.67h1.22v.53h-1.22v2h-.57Z" transform="translate(-13 -27)"/><path class="cls-2" d="M135.48,70.07l0,.47-3.39-.26v-.49l1.43.1V68.53l.54,0V70Zm-.56,2.41a1.62,1.62,0,0,1-.15.5,1.78,1.78,0,0,1-.28.38,1.16,1.16,0,0,1-.39.26,1.18,1.18,0,0,1-.46.09,1.33,1.33,0,0,1-.6-.13,1.35,1.35,0,0,1-.41-.33,1.22,1.22,0,0,1-.22-.44,1.51,1.51,0,0,1-.07-.46,1.63,1.63,0,0,1,.08-.55,1.31,1.31,0,0,1,.24-.47,1.27,1.27,0,0,1,.41-.31,1.37,1.37,0,0,1,1.51.26,1.44,1.44,0,0,1,.35,1v.1A.28.28,0,0,1,134.92,72.48Zm-2-.39a.62.62,0,0,0,0,.25,1.55,1.55,0,0,0,0,.29.82.82,0,0,0,.38.49.8.8,0,0,0,.36.08.68.68,0,0,0,.31-.08.86.86,0,0,0,.26-.21.87.87,0,0,0,.17-.3,1,1,0,0,0,.06-.36.91.91,0,0,0-.2-.6.67.67,0,0,0-.57-.25.72.72,0,0,0-.51.19A.9.9,0,0,0,132.88,72.09Zm3.87,2.23-.58,0V68.67h.64v2.4H138v.5h-1.25Z" transform="translate(-13 -27)"/><path class="cls-2" d="M144.27,72.1h-5.5l0-.43h5.45ZM140.13,75l-.35-.27V72.92h.49v1.5l3.54.08a1.63,1.63,0,0,0,0,.24V75a.07.07,0,0,1,0,0Zm.18-4.06-.37-.33V68.28h.53v2.11h2.67v.48Z" transform="translate(-13 -27)"/><path class="cls-2" d="M148.08,72.09v.51h-2.74l-.23-.29V69.12h2.62v.58h-2.07V72Zm-1-1.67h1.75V68.67h.55V72.6h-.52V70.92h-1.78Zm3-1.82h.53V73h-.53Z" transform="translate(-13 -27)"/><path class="cls-2" d="M151.41,70.84a2.49,2.49,0,0,1,.07-.59,1.86,1.86,0,0,1,.24-.56,1.41,1.41,0,0,1,.43-.41,1.21,1.21,0,0,1,.65-.16,1.42,1.42,0,0,1,.53.12,1.35,1.35,0,0,1,.4.3A1.73,1.73,0,0,1,154,70a2.13,2.13,0,0,1,.15.49h1V68.7h.52v4.5l-.49,0V71h-1a2.36,2.36,0,0,1-.11.61,1.56,1.56,0,0,1-.27.51,1.31,1.31,0,0,1-.42.35,1.25,1.25,0,0,1-.59.13,1.17,1.17,0,0,1-.64-.16,1.45,1.45,0,0,1-.44-.41,1.86,1.86,0,0,1-.24-.56A2.58,2.58,0,0,1,151.41,70.84Zm.51,0a1.48,1.48,0,0,0,.08.49,1.35,1.35,0,0,0,.19.38.91.91,0,0,0,.27.25.81.81,0,0,0,.34.08.74.74,0,0,0,.62-.32,1.38,1.38,0,0,0,.25-.88,1.65,1.65,0,0,0,0-.44,1.23,1.23,0,0,0-.16-.39.83.83,0,0,0-.28-.28.76.76,0,0,0-.41-.11.66.66,0,0,0-.37.1.81.81,0,0,0-.26.26,1.14,1.14,0,0,0-.16.39A1.73,1.73,0,0,0,151.92,70.84Zm4.64,2.59v-4.9h.53v4.86Z" transform="translate(-13 -27)"/><path class="cls-2" d="M21.48,79.5a2.35,2.35,0,0,1,.08-.6,1.38,1.38,0,0,1,.25-.5,1.37,1.37,0,0,1,.44-.34,1.62,1.62,0,0,1,.66-.12,1.14,1.14,0,0,1,.63.16,1.69,1.69,0,0,1,.42.37H26v-1h.5v3.72H26v-.81H24.07a1.43,1.43,0,0,1-.43.49,1.3,1.3,0,0,1-.75.2,1.38,1.38,0,0,1-.67-.15,1.24,1.24,0,0,1-.43-.39,1.7,1.7,0,0,1-.24-.51A2.58,2.58,0,0,1,21.48,79.5Zm.5,0a1.15,1.15,0,0,0,.08.44,1.05,1.05,0,0,0,.2.34.86.86,0,0,0,.29.21.69.69,0,0,0,.34.09.74.74,0,0,0,.36-.09.92.92,0,0,0,.28-.24,1,1,0,0,0,.18-.34,1.14,1.14,0,0,0,.07-.41,1.11,1.11,0,0,0-.06-.34,1.16,1.16,0,0,0-.18-.35,1.24,1.24,0,0,0-.28-.28.67.67,0,0,0-.37-.11.75.75,0,0,0-.37.09.83.83,0,0,0-.28.25,1,1,0,0,0-.18.34A1.42,1.42,0,0,0,22,79.5Zm1.69,2.63v-.49h2.77l.14,1.74-2.77.18v.79h3.42l0,.46H23.48l-.26-.15.11-1.56H26v-1ZM24.22,79a1.57,1.57,0,0,1,.06.28,2,2,0,0,1,0,.22s0,.11,0,.17l0,.19H26V79Z" transform="translate(-13 -27)"/><path class="cls-2" d="M30.72,78.06v.5H29.55v.94l1.58,1.63-.32.4-1.5-1.47-1.25,1.63-.39-.41L29,79.52v-1H27.75v-.51Zm-.89,5.46a1,1,0,0,1,.1-.45,1,1,0,0,1,.29-.37,1.51,1.51,0,0,1,.49-.25,2.29,2.29,0,0,1,.68-.09,2.33,2.33,0,0,1,.68.09,1.42,1.42,0,0,1,.49.25,1.17,1.17,0,0,1,.3.37,1.13,1.13,0,0,1,.09.45,1.18,1.18,0,0,1-.09.46,1.17,1.17,0,0,1-.3.37,1.42,1.42,0,0,1-.49.25,2.33,2.33,0,0,1-.68.09,2.29,2.29,0,0,1-.68-.09,1.51,1.51,0,0,1-.49-.25,1,1,0,0,1-.29-.37A1,1,0,0,1,29.83,83.52Zm2.58,0a.59.59,0,0,0-.27-.49,1.26,1.26,0,0,0-.75-.2,1.22,1.22,0,0,0-.75.2.58.58,0,0,0-.26.49.6.6,0,0,0,.26.5,1.22,1.22,0,0,0,.75.2,1.26,1.26,0,0,0,.75-.2A.61.61,0,0,0,32.41,83.52ZM33,77.8v4.11h-.5V79.63H30.58v-.5h1.84V77.81Z" transform="translate(-13 -27)"/><path class="cls-2" d="M39.88,81.08h-5.5l0-.44h5.45Zm-4.49.75h3.72v1.72H35.64v.69h3.94v.4H35.39l-.26-.15V83.05h3.45v-.77H35.39Zm.22-3a1.14,1.14,0,0,1,.12-.52,1.06,1.06,0,0,1,.33-.37,1.31,1.31,0,0,1,.49-.23,1.81,1.81,0,0,1,.58-.08,1.79,1.79,0,0,1,.57.09,1.41,1.41,0,0,1,.47.25,1.27,1.27,0,0,1,.32.38,1,1,0,0,1,.12.48,1.08,1.08,0,0,1-.13.56,1.27,1.27,0,0,1-.35.38,1.33,1.33,0,0,1-.47.21,2,2,0,0,1-.53.07,2.23,2.23,0,0,1-.6-.08,1.37,1.37,0,0,1-.48-.25,1,1,0,0,1-.32-.38A1.07,1.07,0,0,1,35.61,78.83Zm2.5,0a.68.68,0,0,0-.07-.27.79.79,0,0,0-.21-.24,1.09,1.09,0,0,0-.32-.17,1.05,1.05,0,0,0-.4-.07,1.57,1.57,0,0,0-.47.09.69.69,0,0,0-.3.18.76.76,0,0,0-.18.23.79.79,0,0,0,0,.25.59.59,0,0,0,.09.34.72.72,0,0,0,.23.23,1,1,0,0,0,.32.14,1.64,1.64,0,0,0,.38,0,1.19,1.19,0,0,0,.37-.06,1.14,1.14,0,0,0,.31-.16,1,1,0,0,0,.22-.24A.6.6,0,0,0,38.11,78.83Z" transform="translate(-13 -27)"/><path class="cls-2" d="M45.48,78.63l-1.17,4-.53-.11,1.08-3.7h-2.2l0-.61h2.53Zm1.24,4.67V78h.61v2.39h1.34v.51H47.3V83.3Z" transform="translate(-13 -27)"/><path class="cls-2" d="M52.34,79.56H51.25V80.8l1.58,1.89-.31.39L51,81.36,49.7,83.17l-.39-.4,1.36-2V79.56H49.42v-.5h2.91ZM54,83.77V78.42h.64v5.35Z" transform="translate(-13 -27)"/><path class="cls-2" d="M57.89,82.63h2.7v.59H55.91v-.64h1.53V80.52h.45ZM60,81.89h-.53V79h-3l.06-.65h3.21l.33.47Z" transform="translate(-13 -27)"/><path class="cls-2" d="M66.81,82.38H64.2v-.57h5.5v.6H67.36v1.78h-.55Zm-.45-1.47h-.53V79H64.3l.06-.57h1.7l.33.39Zm2.27,0h-.54v-2h-1.5l.07-.58h1.65l.33.4Z" transform="translate(-13 -27)"/><path class="cls-2" d="M73.89,81.69V83.3h-.5V81.69H70.63l0-.44h5.45v.38Zm-2.37-1.61,1.59-1.36,0-.62H71.63v-.47h3.45v.47H73.7l0,.64L75.23,80l-.31.39-1.53-1.22-1.5,1.3ZM72,84.55l-.34-.27V82.53h.49V84l3.54.08a1.63,1.63,0,0,0,0,.24v.21a.07.07,0,0,1,0,0Z" transform="translate(-13 -27)"/><path class="cls-2" d="M80.39,79.83v.47L77,80v-.48l1.43.09V78.28l.53,0v1.39Zm-.47,2.31a1.54,1.54,0,0,1-.15.5,1.62,1.62,0,0,1-.28.39,1.3,1.3,0,0,1-.39.25,1.18,1.18,0,0,1-.46.09,1.21,1.21,0,0,1-.6-.13,1.35,1.35,0,0,1-.41-.33,1.22,1.22,0,0,1-.22-.44,1.47,1.47,0,0,1-.07-.46,1.67,1.67,0,0,1,.08-.55,1.19,1.19,0,0,1,.24-.46,1.3,1.3,0,0,1,.41-.32,1.37,1.37,0,0,1,1.51.26,1.47,1.47,0,0,1,.35,1v.09A.28.28,0,0,1,79.92,82.14Zm-2-.39a.62.62,0,0,0,0,.25,1.45,1.45,0,0,0,0,.29.82.82,0,0,0,.38.49.8.8,0,0,0,.36.08.68.68,0,0,0,.31-.08,1,1,0,0,0,.26-.2,1.11,1.11,0,0,0,.17-.3,1.13,1.13,0,0,0,.06-.36.92.92,0,0,0-.2-.61.7.7,0,0,0-.57-.25.73.73,0,0,0-.51.2A.84.84,0,0,0,77.88,81.75Zm3.93,2V78.42h.64v5.35Z" transform="translate(-13 -27)"/><path class="cls-2" d="M88,81.41h3V82H85.56v-.6h1.89V79.91h.47Zm1.83-.6h-.5v-2H86.7l.07-.6H89.5l.33.41Zm-3,2.79a1.14,1.14,0,0,1,.1-.45,1.17,1.17,0,0,1,.3-.37,1.33,1.33,0,0,1,.49-.25,2.29,2.29,0,0,1,.68-.09,2.26,2.26,0,0,1,.67.09,1.33,1.33,0,0,1,.49.25,1,1,0,0,1,.3.37,1,1,0,0,1,.1.45,1,1,0,0,1-.1.46,1,1,0,0,1-.3.37,1.5,1.5,0,0,1-.49.25,2.26,2.26,0,0,1-.67.09,2.29,2.29,0,0,1-.68-.09,1.5,1.5,0,0,1-.49-.25,1.17,1.17,0,0,1-.3-.37A1.19,1.19,0,0,1,86.84,83.6Zm2.58,0a.58.58,0,0,0-.27-.49,1.18,1.18,0,0,0-.74-.2,1.21,1.21,0,0,0-.76.2.59.59,0,0,0-.26.49.64.64,0,0,0,.26.5,1.27,1.27,0,0,0,.76.2,1.25,1.25,0,0,0,.74-.2A.62.62,0,0,0,89.42,83.6Z" transform="translate(-13 -27)"/><path class="cls-2" d="M94.59,82.38H92v-.57h5.5v.6H95.14v1.78h-.55ZM92.88,77.8v-.06h.51L93.48,79h2.21l-.08-1.25.52,0v3.23H93.41l-.35-.17Zm2.89,2.59v-1H93.5l.08,1.06Z" transform="translate(-13 -27)"/><path class="cls-2" d="M101.56,79.67l0,.47-3.39-.26v-.49l1.43.1V78.13l.53,0v1.39ZM101,82.08a1.94,1.94,0,0,1-.15.5,1.78,1.78,0,0,1-.28.38,1.27,1.27,0,0,1-.39.26,1.22,1.22,0,0,1-.46.09,1.41,1.41,0,0,1-.61-.13,1.44,1.44,0,0,1-.4-.33,1.42,1.42,0,0,1-.23-.44,1.9,1.9,0,0,1-.07-.46,1.63,1.63,0,0,1,.09-.55,1.19,1.19,0,0,1,.24-.46,1.17,1.17,0,0,1,.41-.32,1.37,1.37,0,0,1,1.51.26,1.44,1.44,0,0,1,.35,1V82S101,82.05,101,82.08Zm-2-.39a.9.9,0,0,0,0,.25,1,1,0,0,0,.17.57,1,1,0,0,0,.25.21.74.74,0,0,0,.36.08.71.71,0,0,0,.31-.08.86.86,0,0,0,.26-.21.87.87,0,0,0,.17-.3,1,1,0,0,0,.06-.36,1,1,0,0,0-.2-.6.67.67,0,0,0-.57-.25.73.73,0,0,0-.51.19A1,1,0,0,0,99,81.69Zm3.88,2.23-.58,0V78.27h.64v2.4h1.19v.5h-1.25Z" transform="translate(-13 -27)"/><path class="cls-2" d="M107,82.63h2.7v.59H105v-.64h1.53V80.52H107Zm2.11-.74h-.54V79h-3l.06-.65h3.2l.33.47Z" transform="translate(-13 -27)"/><path class="cls-2" d="M113.39,79.91a2.35,2.35,0,0,1,.08-.6,1.27,1.27,0,0,1,.25-.49,1.14,1.14,0,0,1,.44-.33,1.38,1.38,0,0,1,.64-.13,1.24,1.24,0,0,1,.66.17,1.49,1.49,0,0,1,.42.41,1.67,1.67,0,0,1,.23.51,2.08,2.08,0,0,1,.06.46,2.23,2.23,0,0,1-.06.47,1.62,1.62,0,0,1-.21.51,1.24,1.24,0,0,1-.42.4,1.36,1.36,0,0,1-1.79-.36,1.52,1.52,0,0,1-.23-.5A1.91,1.91,0,0,1,113.39,79.91Zm.5,0a1.2,1.2,0,0,0,.07.44.87.87,0,0,0,.2.32.83.83,0,0,0,.28.21.69.69,0,0,0,.34.09.86.86,0,0,0,.36-.08.89.89,0,0,0,.28-.23,1.14,1.14,0,0,0,.17-.33,1.16,1.16,0,0,0,.07-.42,1.23,1.23,0,0,0-.25-.75.78.78,0,0,0-.63-.31.71.71,0,0,0-.36.09.89.89,0,0,0-.28.23,1,1,0,0,0-.18.34A1.67,1.67,0,0,0,113.89,79.91Zm.49,4.73-.35-.39L115.25,83v-.86h.53V83l1,.7.49-.54.06-.89h.5v.87L119,84.35l-.35.36-1.19-1.16-1.17,1.3-.33-.36.4-.44-.85-.61Zm3.92-6.83v4.1h-.57V77.8Z" transform="translate(-13 -27)"/><path class="cls-2" d="M125.25,81.71h-5.5l0-.44h5.45Zm-4.67.64v0h.5l.06.85h3L124,82.3l.48,0,.19,2.48h-3.63l-.33-.15Zm.15-2.24,1.49-1.69V77.36h.53v1.06l1.63,1.47-.3.41-1.56-1.42-1.39,1.58Zm3.44,4.22,0-.78h-2.94v.78Z" transform="translate(-13 -27)"/><path class="cls-2" d="M129.59,81.38v.5H126.5l-.22-.33v-3.2h.53v3Zm1,1.59V77.63h.64V83Z" transform="translate(-13 -27)"/><path class="cls-2" d="M135.52,81.69v.52h-2.89l-.24-.3V78.72h2.7v.58h-2.15v2.34Zm1.56,1.59h-.58V77.94h.61v2.41h1.34v.51h-1.37Z" transform="translate(-13 -27)"/><path class="cls-2" d="M139.86,82.64l-.42.58-.66-.67.44-.53Z" transform="translate(-13 -27)"/></svg>