<svg id="레이어_1" data-name="레이어 1" xmlns="http://www.w3.org/2000/svg" viewBox="0 0 207.67 97.84"><defs><style>.cls-1{fill:#606060;}</style></defs><title>introduce</title><path class="cls-1" d="M-60-49.44a2.64,2.64,0,0,1,0,.38v1.53l-.18,15v.28a2.11,2.11,0,0,1-.08.52,2.12,2.12,0,0,1-.09.31q-.06.15-.12.33a1.07,1.07,0,0,1-.4.52,1.45,1.45,0,0,1-.76.32,2.24,2.24,0,0,1-1.48-.15,1.26,1.26,0,0,1-.53-.57,1.18,1.18,0,0,1-.11-.18.43.43,0,0,0-.06-.17,1.71,1.71,0,0,1-.09-.3l-.06-.34c0-.09,0-.19,0-.29a2.7,2.7,0,0,0,0-.28.69.69,0,0,1-.06-.25V-33a1,1,0,0,0,.06-.43l0-2.28,0-3.65h-1.57l-5.9,0-.06,6.83v.28a2.11,2.11,0,0,1-.08.52,2.12,2.12,0,0,1-.09.31q-.06.15-.12.33a1.07,1.07,0,0,1-.4.52,1.45,1.45,0,0,1-.76.32,2.24,2.24,0,0,1-1.48-.15A1.59,1.59,0,0,1-75-31a.46.46,0,0,1-.06-.18l-.09-.17a1.71,1.71,0,0,1-.09-.3l-.06-.34c0-.09,0-.19,0-.29l-.06-.28a2.09,2.09,0,0,1,0-.5v-.43l0-2.28,0-4.25c0-.62,0-1.26,0-1.91v-2c0-.69,0-1.31,0-1.85s0-1.14.07-1.82v-.11a5.88,5.88,0,0,0,0-.6c0-.2,0-.41,0-.62a3.45,3.45,0,0,1,.1-.56,3.16,3.16,0,0,1,.22-.57,1.49,1.49,0,0,1,.23-.39,3.63,3.63,0,0,1,.35-.3,2.13,2.13,0,0,1,.93-.23h.41l.35.05a1.11,1.11,0,0,1,.67.34,1.13,1.13,0,0,1,.32.47,2.92,2.92,0,0,1,.17.66,2.64,2.64,0,0,1,0,.38v1.53l-.06,4.77h.54l.71,0c1,0,2,0,3,0s2,0,3.16,0h0c0-.87,0-1.7,0-2.49s0-1.62.07-2.48c0-.2,0-.39,0-.6s0-.41,0-.62a3.45,3.45,0,0,1,.1-.56,3.16,3.16,0,0,1,.22-.57.84.84,0,0,1,.22-.39,2.64,2.64,0,0,1,.39-.3A1.83,1.83,0,0,1-62-51h.42l.34.05a1.11,1.11,0,0,1,.67.34.78.78,0,0,1,.32.47c0,.11.07.22.1.33S-60.09-49.55-60-49.44Z" transform="translate(75.41 52.42)"/><path class="cls-1" d="M-47.64-34.35a5.68,5.68,0,0,1,.72-.11,1.65,1.65,0,0,1,.67.08,1.12,1.12,0,0,1,.5.39,1.26,1.26,0,0,1,.21.77,1.38,1.38,0,0,1-.18.67,2.37,2.37,0,0,1-.43.57,2.74,2.74,0,0,1-.58.45,4.48,4.48,0,0,1-.62.31,8.28,8.28,0,0,1-1.93.57,9.33,9.33,0,0,1-2.25.15,9.29,9.29,0,0,1-3-.62A4.54,4.54,0,0,1-56.79-33a6.65,6.65,0,0,1-.91-2.83,10.24,10.24,0,0,1,.15-3,6.68,6.68,0,0,1,1.09-2.73,6,6,0,0,1,1.85-1.69A6,6,0,0,1-51.68-44a7.19,7.19,0,0,1,3.11.63,6.39,6.39,0,0,1,1.78,1.17,4.85,4.85,0,0,1,1.19,1.78,2.88,2.88,0,0,1,.19.64,6.31,6.31,0,0,1,.1.79,5.75,5.75,0,0,1,0,.83,2.55,2.55,0,0,1-.15.72,2.2,2.2,0,0,1-.43.81,1.62,1.62,0,0,1-.67.43,3.71,3.71,0,0,1-1,.19c-.38,0-.83,0-1.36.07l-1.3,0h-1.25l-1.33,0-1.52,0a1.44,1.44,0,0,0,.16,1,2.06,2.06,0,0,0,.68.7,3.69,3.69,0,0,0,1,.42,5.94,5.94,0,0,0,1.07.17,6.54,6.54,0,0,0,1.89-.16C-48.9-34-48.28-34.15-47.64-34.35ZM-48.89-40A3.49,3.49,0,0,0-50-40.88a2.16,2.16,0,0,0-1-.19,3.53,3.53,0,0,0-1,.16,2.68,2.68,0,0,0-1.42.87,2.6,2.6,0,0,0-.21.27l-.27.45a2,2,0,0,0-.19.43q-.06.21.06.21h5.7a2.07,2.07,0,0,0-.15-.68A2.14,2.14,0,0,0-48.89-40Z" transform="translate(75.41 52.42)"/><path class="cls-1" d="M-38.48-32.7c0,.1,0,.19,0,.28a2.13,2.13,0,0,0,0,.27l-.17.61a.85.85,0,0,1-.09.14l-.08.18a1.21,1.21,0,0,1-.53.52,2.15,2.15,0,0,1-1.48.17,1.61,1.61,0,0,1-.79-.29,1,1,0,0,1-.4-.49,3.22,3.22,0,0,1-.18-.58,1.74,1.74,0,0,1-.08-.52V-48.6c0-.13,0-.26,0-.36a2.91,2.91,0,0,1,0-.31,2.14,2.14,0,0,1,.08-.34,2.85,2.85,0,0,1,.1-.32.84.84,0,0,1,.32-.46,1.26,1.26,0,0,1,.67-.29,1.84,1.84,0,0,1,.37-.07l.41,0a2.43,2.43,0,0,1,.93.23,1.33,1.33,0,0,1,.58.64,2.3,2.3,0,0,1,.29,1.07c0,.19,0,.48,0,.87s0,.67,0,.86V-47c0,.62.06,1.21.06,1.78s0,1.19,0,1.86,0,1.29,0,1.9,0,1.21,0,1.8v6.07a1.5,1.5,0,0,0,0,.22,1.55,1.55,0,0,1,0,.22A2.31,2.31,0,0,1-38.48-32.7Z" transform="translate(75.41 52.42)"/><path class="cls-1" d="M-31-32.7c0,.1,0,.19,0,.28a2.13,2.13,0,0,0,0,.27l-.17.61a.85.85,0,0,1-.09.14l-.08.18a1.21,1.21,0,0,1-.53.52,2.15,2.15,0,0,1-1.48.17,1.61,1.61,0,0,1-.79-.29,1.11,1.11,0,0,1-.4-.49,3.22,3.22,0,0,1-.18-.58,2.13,2.13,0,0,1-.08-.52V-48.6c0-.13,0-.26,0-.36a2.91,2.91,0,0,1,0-.31,2.14,2.14,0,0,1,.08-.34l.1-.32a.84.84,0,0,1,.32-.46,1.26,1.26,0,0,1,.67-.29,1.8,1.8,0,0,1,.38-.07l.4,0a2.43,2.43,0,0,1,.93.23,1.33,1.33,0,0,1,.58.64A2.3,2.3,0,0,1-31-48.83c0,.19,0,.48.05.87s0,.67,0,.86V-47c0,.62.06,1.21.06,1.78s0,1.19,0,1.86,0,1.29,0,1.9,0,1.21,0,1.8v6.07a1.5,1.5,0,0,0,0,.22,1.55,1.55,0,0,1,0,.22A2.31,2.31,0,0,1-31-32.7Z" transform="translate(75.41 52.42)"/><path class="cls-1" d="M-24.84-43.45a8.41,8.41,0,0,1,2-.67,7.28,7.28,0,0,1,2.08-.09,6.83,6.83,0,0,1,2,.55A6.39,6.39,0,0,1-17-42.44a6.72,6.72,0,0,1,1.16,1.6A8.91,8.91,0,0,1-15.07-39a6.25,6.25,0,0,1,.14,3.21,9.56,9.56,0,0,1-1.19,3,5.2,5.2,0,0,1-1,1.15,6,6,0,0,1-1.27.82,6.8,6.8,0,0,1-1.89.56,8.24,8.24,0,0,1-2,.08A6.6,6.6,0,0,1-25.32-31a6.36,6.36,0,0,1-2.12-2,6.73,6.73,0,0,1-1-2.76A7.41,7.41,0,0,1-28.3-39a7.41,7.41,0,0,1,1.35-2.82A5.94,5.94,0,0,1-24.84-43.45Zm.87,3.87a2.75,2.75,0,0,0-.67,1,5,5,0,0,0-.29,1.26,4.09,4.09,0,0,0,.1,1.3,3.85,3.85,0,0,0,.51,1.17,2.07,2.07,0,0,0,1.05.72,5.19,5.19,0,0,0,1.57.35,2.3,2.3,0,0,0,1.63-.5A3.81,3.81,0,0,0-19-35.68a4.22,4.22,0,0,0,.33-1.82,3.59,3.59,0,0,0-.52-1.79,2,2,0,0,0-1-.85,3.24,3.24,0,0,0-1.3-.29,4.23,4.23,0,0,0-1.36.2A2.94,2.94,0,0,0-24-39.58Z" transform="translate(75.41 52.42)"/><path class="cls-1" d="M-11.15-51.69a1.37,1.37,0,0,1,.64-.55,1.93,1.93,0,0,1,.79-.18l.62,0a4.09,4.09,0,0,1,.6.07,1.31,1.31,0,0,1,.87.77A4.24,4.24,0,0,1-7.3-50.2a9.54,9.54,0,0,1,0,1.51c0,.5,0,.91,0,1.22v9.68a3.11,3.11,0,0,1-.2,1.1,1.32,1.32,0,0,1-.76.72,2.72,2.72,0,0,1-1.16.22A3.12,3.12,0,0,1-10.6-36a1.38,1.38,0,0,1-.75-.71,3.09,3.09,0,0,1-.13-.65c0-.26-.06-.49-.08-.71s0-.67,0-1,0-.72,0-1.09v-9.68a5.88,5.88,0,0,1,.09-.9A2.63,2.63,0,0,1-11.15-51.69ZM-7.8-33.1c0,.09.11.18.15.27a1.8,1.8,0,0,1,.14.31,4.54,4.54,0,0,1,.11.66,1.94,1.94,0,0,1-.06.68,1.67,1.67,0,0,1-.29.62,1.18,1.18,0,0,1-.55.43,2.07,2.07,0,0,1-.76.18A2.93,2.93,0,0,1-9.9-30a2.08,2.08,0,0,1-.75-.32,1.2,1.2,0,0,1-.5-.61,2.91,2.91,0,0,1-.16-.93,2.71,2.71,0,0,1,.13-.94,1.05,1.05,0,0,1,.55-.6,2.26,2.26,0,0,1,.82-.16,7.9,7.9,0,0,1,1.09,0A1.53,1.53,0,0,1-7.8-33.1Z" transform="translate(75.41 52.42)"/><path class="cls-1" d="M-62,2.11a1.17,1.17,0,0,1,.06.42V3a1,1,0,0,1-.09.43,1.48,1.48,0,0,1-.23.38,1.64,1.64,0,0,1-.76.52,4.25,4.25,0,0,1-1.3.23c-.22,0-.44,0-.67,0a4,4,0,0,0-.7.06h-.12q-2.23,0-4.62,0a11.59,11.59,0,0,0-1.31,0,8.38,8.38,0,0,1-1.42,0,3.67,3.67,0,0,1-1.27-.35,1.54,1.54,0,0,1-.8-.88,1.43,1.43,0,0,1-.09-.27,2.46,2.46,0,0,1,0-.28A12.59,12.59,0,0,1-75.4.9c0-.64,0-1.27,0-1.88l.06-4.19V-9c0-.69,0-1.31,0-1.85s0-1.14,0-1.79v-.15c0-.19,0-.38.05-.57s0-.39,0-.58a2.84,2.84,0,0,1,.32-1.13,1.41,1.41,0,0,1,.61-.69,1.49,1.49,0,0,1,.9-.26h.4l.36,0a.93.93,0,0,1,.33.12,2,2,0,0,1,.34.23,3.2,3.2,0,0,1,.32.49,2.45,2.45,0,0,1,.14.64c0,.13,0,.26.06.37a2.07,2.07,0,0,1,0,.35,1.07,1.07,0,0,0-.06.35v.84L-71.56,1l5.75.06h1.37l.38,0,.4,0,.41.06.35.08a1.2,1.2,0,0,1,.52.29A1.36,1.36,0,0,1-62,2.11Z" transform="translate(75.41 52.42)"/><path class="cls-1" d="M-51.1.35a4.33,4.33,0,0,1,.72-.12,1.5,1.5,0,0,1,.67.09,1.12,1.12,0,0,1,.5.39,1.23,1.23,0,0,1,.21.76,1.32,1.32,0,0,1-.18.67,2.64,2.64,0,0,1-.43.58,3.6,3.6,0,0,1-.58.45,6.79,6.79,0,0,1-.61.3,9,9,0,0,1-1.94.58A9.84,9.84,0,0,1-55,4.19a9,9,0,0,1-3-.62,4.52,4.52,0,0,1-2.25-1.86,6.55,6.55,0,0,1-.9-2.84A9.91,9.91,0,0,1-61-4.08a6.8,6.8,0,0,1,1.09-2.73A6.07,6.07,0,0,1-58.07-8.5a6,6,0,0,1,2.93-.78A7.05,7.05,0,0,1-52-8.64a6.39,6.39,0,0,1,1.78,1.17A4.81,4.81,0,0,1-49.06-5.7a3,3,0,0,1,.19.64,6.47,6.47,0,0,1,.1.8,5.61,5.61,0,0,1,0,.82,3,3,0,0,1-.14.72,2.36,2.36,0,0,1-.44.81,1.63,1.63,0,0,1-.67.44,3.73,3.73,0,0,1-1,.18c-.38,0-.83.06-1.36.08s-.9,0-1.3,0H-54.9l-1.33,0-1.52,0a1.45,1.45,0,0,0,.16,1,2,2,0,0,0,.68.69,3.69,3.69,0,0,0,1,.42A5.28,5.28,0,0,0-54.85,1,6.2,6.2,0,0,0-53,.85C-52.36.71-51.73.54-51.1.35Zm-1.25-5.61a3.53,3.53,0,0,0-1.16-.93,2.29,2.29,0,0,0-1-.18,3.93,3.93,0,0,0-1,.15,2.75,2.75,0,0,0-1.42.87,1.59,1.59,0,0,0-.2.28c-.1.14-.19.29-.28.44a2,2,0,0,0-.19.44c0,.13,0,.2.06.2h5.7a2.07,2.07,0,0,0-.15-.68A2.11,2.11,0,0,0-52.35-5.26Z" transform="translate(75.41 52.42)"/><path class="cls-1" d="M-35.16-8.44a1.78,1.78,0,0,1,0,1.21,1.2,1.2,0,0,1-.68.87,3,3,0,0,1-.7.19l-.94.13c-.34,0-.68.07-1,.08l-.84,0c0,.58,0,1.17.06,1.78s0,1.2.06,1.78,0,1.13,0,1.66,0,1,0,1.43v1a7.41,7.41,0,0,1-.08,1.08,4.29,4.29,0,0,1-.22.92.78.78,0,0,1-.43.5,2.8,2.8,0,0,1-1.64.22,1.67,1.67,0,0,1-1.07-.62,2.88,2.88,0,0,1-.34-.88,6,6,0,0,1-.16-1,9.1,9.1,0,0,1,0-1c0-.33,0-.63,0-.88,0-.81,0-1.73,0-2.76s0-2.07,0-3.11h-1.32A9.83,9.83,0,0,1-45.47-6a7.07,7.07,0,0,1-1-.2,1.27,1.27,0,0,1-.67-.39,1.61,1.61,0,0,1-.39-.81,1.78,1.78,0,0,1,.05-.83A1.78,1.78,0,0,1-47-8.92a1.32,1.32,0,0,1,.66-.39,6.12,6.12,0,0,1,1.49-.16c.64,0,1.24,0,1.8,0a5.59,5.59,0,0,1,0-.57,4.58,4.58,0,0,0,0-.53c0-.23,0-.53,0-.88a7.59,7.59,0,0,1,.08-1.07,4.75,4.75,0,0,1,.24-1,1.64,1.64,0,0,1,.5-.73,1.68,1.68,0,0,1,.88-.39,1.63,1.63,0,0,1,.85.13A1.82,1.82,0,0,1-40-14a2.11,2.11,0,0,1,.39.74,6.93,6.93,0,0,1,.14.82c0,.32.07.65.08,1s0,.7,0,1v1h.29l1,0a7.33,7.33,0,0,1,1.15,0,3.06,3.06,0,0,1,1,.27A1.45,1.45,0,0,1-35.16-8.44Z" transform="translate(75.41 52.42)"/><path class="cls-1" d="M-9.66-2.43c0,.62.05,1.2.05,1.75s0,1.13-.05,1.75v.78a5.73,5.73,0,0,1-.06.84,3,3,0,0,1-.21.75,1.24,1.24,0,0,1-.43.55,2,2,0,0,1-.79.3,1.69,1.69,0,0,1-.81,0,1.49,1.49,0,0,1-.66-.43,1.49,1.49,0,0,1-.3-.9C-13,2-13,1.15-13,.26c0-.44,0-.87,0-1.27s0-1,0-1.71A10.32,10.32,0,0,0-13.1-4a1.43,1.43,0,0,0-.43-1,1.09,1.09,0,0,0-.58-.28,1.24,1.24,0,0,0-.63.08,1.22,1.22,0,0,0-.54.41A1.93,1.93,0,0,0-15.6-4c0,.25,0,.51,0,.77a5.84,5.84,0,0,0,0,.73c0,.62,0,1.2,0,1.75s0,1.14,0,1.75a7.17,7.17,0,0,0,0,.81,7.91,7.91,0,0,1,0,.85,2.63,2.63,0,0,1-.15.77,1.12,1.12,0,0,1-.46.55,1.59,1.59,0,0,1-.74.27,1.34,1.34,0,0,1-.72-.11,1.58,1.58,0,0,1-.59-.51,1.76,1.76,0,0,1-.27-.92c0-.45-.06-.85-.07-1.23s0-.78,0-1.2,0-.9,0-1.37a10.48,10.48,0,0,0,0-1.38c0-.13,0-.29,0-.47l0-.57a5,5,0,0,0-.06-.56,1.61,1.61,0,0,0-.13-.45A1.16,1.16,0,0,0-19.71-5a1.49,1.49,0,0,0-1,.09,1.44,1.44,0,0,0-.61.52,1.91,1.91,0,0,0-.29.69,3.44,3.44,0,0,0-.09.8v.79c0,1.25,0,2.34,0,3.25A6.26,6.26,0,0,1-22,3.33a1.17,1.17,0,0,1-.6.66,2.12,2.12,0,0,1-1,.23A2,2,0,0,1-24.49,4a1.14,1.14,0,0,1-.58-.72,5.49,5.49,0,0,1-.16-.91c-.05-.4-.09-.84-.11-1.32s0-1,0-1.46V-5.93q0-.66,0-1.44a4,4,0,0,1,.23-1.42,1.11,1.11,0,0,1,.64-.71,2.29,2.29,0,0,1,.9-.13,1.18,1.18,0,0,1,.83.28,1.69,1.69,0,0,1,.45.66,2.92,2.92,0,0,1,.17.87c0,.32,0,.62.06.91a4.2,4.2,0,0,1,.77-1.2A2.24,2.24,0,0,1-20-8.73a3.38,3.38,0,0,1,3.43,1.1,4.41,4.41,0,0,1,1.48-1,3.86,3.86,0,0,1,1.42-.24,3.94,3.94,0,0,1,1.38.27,4.17,4.17,0,0,1,1.2.75,3.64,3.64,0,0,1,.85,1.19,5.29,5.29,0,0,1,.5,2.05C-9.74-3.82-9.7-3.1-9.66-2.43Z" transform="translate(75.41 52.42)"/><path class="cls-1" d="M2.78.35A4.21,4.21,0,0,1,3.49.23a1.48,1.48,0,0,1,.67.09,1.21,1.21,0,0,1,.51.39,1.29,1.29,0,0,1,.2.76,1.42,1.42,0,0,1-.17.67,2.69,2.69,0,0,1-.44.58,3.21,3.21,0,0,1-.58.45,5.69,5.69,0,0,1-.61.3,9,9,0,0,1-1.93.58,9.92,9.92,0,0,1-2.26.14,9.08,9.08,0,0,1-3-.62A4.52,4.52,0,0,1-6.38,1.71a6.82,6.82,0,0,1-.9-2.84,9.91,9.91,0,0,1,.14-2.95A6.94,6.94,0,0,1-6-6.81,6.19,6.19,0,0,1-4.2-8.5a6,6,0,0,1,2.94-.78,7.11,7.11,0,0,1,3.11.64A6.19,6.19,0,0,1,3.62-7.47,4.69,4.69,0,0,1,4.81-5.7,3,3,0,0,1,5-5.06a5,5,0,0,1,.1.8,5.61,5.61,0,0,1,0,.82A2.25,2.25,0,0,1,5-2.72a2.2,2.2,0,0,1-.44.81,1.51,1.51,0,0,1-.67.44,3.65,3.65,0,0,1-1,.18c-.38,0-.83.06-1.35.08s-.9,0-1.31,0H-1l-1.32,0-1.53,0a1.51,1.51,0,0,0,.16,1A2,2,0,0,0-3,.42,3.69,3.69,0,0,0-2,.84,5.26,5.26,0,0,0-1,1,6.2,6.2,0,0,0,.92.85C1.52.71,2.14.54,2.78.35ZM1.53-5.26A3.74,3.74,0,0,0,.37-6.19a2.34,2.34,0,0,0-1-.18,3.85,3.85,0,0,0-1,.15A2.77,2.77,0,0,0-3-5.35a2.42,2.42,0,0,0-.2.28c-.1.14-.19.29-.28.44a2.66,2.66,0,0,0-.19.44c0,.13,0,.2.06.2h5.7a2.39,2.39,0,0,0-.14-.68A2.34,2.34,0,0,0,1.53-5.26Z" transform="translate(75.41 52.42)"/><path class="cls-1" d="M18.39-6.65c0,.54,0,1.15,0,1.82s0,1.38,0,2.1V-.59q0,1,0,2c0,.29-.05.6-.09.94a3.16,3.16,0,0,1-.23.94,1.57,1.57,0,0,1-.54.71,1.45,1.45,0,0,1-1,.24,1.47,1.47,0,0,1-1.29-.78,4.6,4.6,0,0,1-.46-2c0-.45,0-1,0-1.53s0-1.17,0-1.77,0-1.18,0-1.75V-5.2c0-.27,0-.6,0-1s0-.78,0-1.18a7.2,7.2,0,0,1,.14-1.17,2.61,2.61,0,0,1,.38-.94,1.25,1.25,0,0,1,.58-.36,2.36,2.36,0,0,1,.8-.13,2.32,2.32,0,0,1,.82.14,1.07,1.07,0,0,1,.56.41,1.2,1.2,0,0,1,.18.49c0,.21.07.44.1.7s.05.54.06.81S18.39-6.88,18.39-6.65Zm-1.1-5.84a1.73,1.73,0,0,1-1.5-.19,1.81,1.81,0,0,1-.74-1.26A1.77,1.77,0,0,1,15.13-15a1.49,1.49,0,0,1,.62-.71,1.53,1.53,0,0,1,.93-.22,2,2,0,0,1,1,.4,2.27,2.27,0,0,1,.72.81,1.53,1.53,0,0,1,.14.9,1.67,1.67,0,0,1-.39.8A1.91,1.91,0,0,1,17.29-12.49Z" transform="translate(75.41 52.42)"/><path class="cls-1" d="M21.3-6c0-.45,0-.92,0-1.42a3.33,3.33,0,0,1,.25-1.36,1.49,1.49,0,0,1,.77-.79,1.52,1.52,0,0,1,1.06-.11,1.88,1.88,0,0,1,.82.32,1.53,1.53,0,0,1,.42.54,2.06,2.06,0,0,1,.16.69l.06.77a2.47,2.47,0,0,1,.72-.84,4.56,4.56,0,0,1,.9-.52A4.38,4.38,0,0,1,27.33-9,3.37,3.37,0,0,1,28-9.11a5.43,5.43,0,0,1,2.2.48A5,5,0,0,1,32-7.29a4.12,4.12,0,0,1,.62,1.09A5.05,5.05,0,0,1,32.94-5a9.85,9.85,0,0,1,.13,1.23q0,.61.06,1.26a22.49,22.49,0,0,1,0,3.67q0,.38,0,.87A6.11,6.11,0,0,1,33,3a2.86,2.86,0,0,1-.26.84.88.88,0,0,1-.63.45,2.39,2.39,0,0,1-1,.07,1.4,1.4,0,0,1-.63-.27,1.24,1.24,0,0,1-.34-.52A5.36,5.36,0,0,1,30,2.8c0-.21-.07-.45-.1-.73s-.05-.57-.06-.86l0-.85c0-.28,0-.53,0-.76s0-.78,0-1.22,0-.86,0-1.24A2.81,2.81,0,0,0,29-4.93a2.3,2.3,0,0,0-1.94-.59,2.88,2.88,0,0,0-1.62.74,1.94,1.94,0,0,0-.67,1.6v.69c0,.22,0,.43,0,.64s0,.44,0,.69V1.69a4.83,4.83,0,0,1-.26,1.72,1.58,1.58,0,0,1-.79,1,1.44,1.44,0,0,1-1.31-.15,1.3,1.3,0,0,1-.51-.48,2.74,2.74,0,0,1-.29-.65,4.11,4.11,0,0,1-.13-.7c0-.25,0-.47-.06-.68-.05-.64-.09-1.23-.1-1.78s0-1.14,0-1.78Z" transform="translate(75.41 52.42)"/><path class="cls-1" d="M46.8-8.44a1.78,1.78,0,0,1,0,1.21,1.2,1.2,0,0,1-.68.87,3,3,0,0,1-.7.19c-.29,0-.61.09-1,.13s-.67.07-1,.08l-.84,0c0,.58,0,1.17.06,1.78s0,1.2.05,1.78,0,1.13,0,1.66,0,1,0,1.43v1a7.44,7.44,0,0,1-.07,1.08,4.29,4.29,0,0,1-.22.92.78.78,0,0,1-.43.5,2.8,2.8,0,0,1-1.64.22,1.67,1.67,0,0,1-1.07-.62A3.17,3.17,0,0,1,39,2.94a8.84,8.84,0,0,1-.16-1c0-.35,0-.7,0-1s0-.63,0-.88c0-.81,0-1.73,0-2.76s0-2.07,0-3.11H37.57A9.83,9.83,0,0,1,36.49-6a7.07,7.07,0,0,1-1-.2,1.27,1.27,0,0,1-.67-.39,1.53,1.53,0,0,1-.39-.81,1.78,1.78,0,0,1,0-.83,1.78,1.78,0,0,1,.43-.69,1.32,1.32,0,0,1,.66-.39,6.12,6.12,0,0,1,1.49-.16c.64,0,1.24,0,1.8,0a5.59,5.59,0,0,1,0-.57,4.58,4.58,0,0,0,0-.53c0-.23,0-.53,0-.88a9.45,9.45,0,0,1,.07-1.07,5.43,5.43,0,0,1,.25-1,1.64,1.64,0,0,1,.5-.73,1.68,1.68,0,0,1,.88-.39,1.64,1.64,0,0,1,.85.13A1.71,1.71,0,0,1,42-14a2,2,0,0,1,.4.74,6.93,6.93,0,0,1,.14.82c0,.32.06.65.07,1s0,.7,0,1v1h.29l1,0a7.33,7.33,0,0,1,1.15,0,3.13,3.13,0,0,1,1,.27A1.45,1.45,0,0,1,46.8-8.44Z" transform="translate(75.41 52.42)"/><path class="cls-1" d="M49.3-5.93v-.79q0-.45,0-.93a7,7,0,0,1,.1-.92,3.44,3.44,0,0,1,.22-.8,1.29,1.29,0,0,1,.72-.71,2.72,2.72,0,0,1,1.08-.15,1.88,1.88,0,0,1,1,.2,1.32,1.32,0,0,1,.52.53,2,2,0,0,1,.22.75,8.45,8.45,0,0,1,0,.89,2.18,2.18,0,0,1,.72-.76,5.19,5.19,0,0,1,.91-.46,5,5,0,0,1,.84-.24l.44-.08a11.92,11.92,0,0,1,1.32,0,4.72,4.72,0,0,1,1.33.26,5.29,5.29,0,0,1,1,.47,4.29,4.29,0,0,1,.87.71,2.14,2.14,0,0,1,.51.88,1.43,1.43,0,0,1-.13,1c-.28.48-.58.72-.91.71A4.87,4.87,0,0,1,59-5.55a3.43,3.43,0,0,1-.76-.26,3.06,3.06,0,0,0-.75-.26,3.46,3.46,0,0,0-1.75.14,6,6,0,0,0-1.31.7,5.61,5.61,0,0,0-1.1,1.13V.06c0,.52,0,1.06,0,1.62a5.16,5.16,0,0,1-.23,1.52,2.25,2.25,0,0,1-.73,1.09,2.05,2.05,0,0,1-1.46.37,1.3,1.3,0,0,1-.93-.51,2,2,0,0,1-.5-.94c0-.29-.07-.64-.09-1s0-.83,0-1.27,0-.89,0-1.35V-5.93Z" transform="translate(75.41 52.42)"/><path class="cls-1" d="M66-8.76a7.7,7.7,0,0,1,2-.66A6.63,6.63,0,0,1,70-9.51a6.83,6.83,0,0,1,2,.55,6.17,6.17,0,0,1,1.78,1.21A6.54,6.54,0,0,1,75-6.14a8.25,8.25,0,0,1,.72,1.83,6.25,6.25,0,0,1,.15,3.21,9.71,9.71,0,0,1-1.19,3,5.17,5.17,0,0,1-1,1.14,5.34,5.34,0,0,1-1.26.82,7.17,7.17,0,0,1-1.89.57,8.28,8.28,0,0,1-2,.07,6.59,6.59,0,0,1-3.06-.87,6.37,6.37,0,0,1-2.13-2,6.92,6.92,0,0,1-1-2.76,7.45,7.45,0,0,1,.19-3.17A7.49,7.49,0,0,1,63.85-7.1,6.06,6.06,0,0,1,66-8.76Zm.87,3.87a2.6,2.6,0,0,0-.67,1,4.46,4.46,0,0,0-.29,1.25A3.87,3.87,0,0,0,66-1.31a3.85,3.85,0,0,0,.51,1.17,2.07,2.07,0,0,0,1,.72A5.51,5.51,0,0,0,69.1.93,2.27,2.27,0,0,0,70.72.42,3.7,3.7,0,0,0,71.79-1a4.24,4.24,0,0,0,.33-1.82,3.6,3.6,0,0,0-.52-1.8,2.14,2.14,0,0,0-1-.85,3.43,3.43,0,0,0-1.31-.29,4.21,4.21,0,0,0-1.35.2A3.22,3.22,0,0,0,66.83-4.89Z" transform="translate(75.41 52.42)"/><path class="cls-1" d="M87.41-15.9a2,2,0,0,1,1,0,1.42,1.42,0,0,1,.72.39,1.81,1.81,0,0,1,.47.72,2.67,2.67,0,0,1,.16.95c0,1,0,1.72,0,2.26s0,1,0,1.41V1.27A11,11,0,0,1,89.64,3a2.17,2.17,0,0,1-.35,1,1.38,1.38,0,0,1-.74.45,5.1,5.1,0,0,1-1.3.13h-2A7.69,7.69,0,0,1,80.3,3a6,6,0,0,1-1.93-4.69,6.74,6.74,0,0,1,.35-2.54,5.26,5.26,0,0,1,1.21-2,5.24,5.24,0,0,1,2-1.27,7.11,7.11,0,0,1,2.69-.42h1.6v-6.09a3.73,3.73,0,0,1,.09-.84,1.48,1.48,0,0,1,.35-.68A1.61,1.61,0,0,1,87.41-15.9ZM82.35.15a2.81,2.81,0,0,0,2.21.92,4.2,4.2,0,0,0,.61,0A2.13,2.13,0,0,0,85.7,1l.49-.08V-4.42a15.45,15.45,0,0,0-1.84-.22A2.47,2.47,0,0,0,82.7-4a2.35,2.35,0,0,0-.67.88A3.38,3.38,0,0,0,81.77-2a3.82,3.82,0,0,0,.12,1.17A3,3,0,0,0,82.35.15Z" transform="translate(75.41 52.42)"/><path class="cls-1" d="M104-2.57c0,.63-.08,1.27-.11,1.92a8.61,8.61,0,0,1-.31,1.86,5,5,0,0,1-.76,1.62A3.4,3.4,0,0,1,101.43,4a6.18,6.18,0,0,1-1.75.56,9,9,0,0,1-1.86.13A7.67,7.67,0,0,1,96,4.41a5.87,5.87,0,0,1-1.57-.68A3.52,3.52,0,0,1,93.31,2.6a6,6,0,0,1-.68-1.5A8.47,8.47,0,0,1,92.3-.58q-.09-.87-.12-1.62a32.21,32.21,0,0,1,0-3.93V-7a5.86,5.86,0,0,1,.07-.94,3.23,3.23,0,0,1,.25-.85,1.25,1.25,0,0,1,.58-.6,1.6,1.6,0,0,1,1.61-.05,2,2,0,0,1,.89,1.67,9.86,9.86,0,0,1,.07,1.48,13.49,13.49,0,0,0,0,1.47c0,.66,0,1.36.06,2.13a6.9,6.9,0,0,0,.33,2,2.43,2.43,0,0,0,1,1.35,2.68,2.68,0,0,0,2.14,0,1.3,1.3,0,0,0,.88-1,9.63,9.63,0,0,0,.22-2.4q0-.69,0-1.53c0-.56,0-1.12,0-1.66s0-1.06,0-1.54a4.68,4.68,0,0,1,.17-1.08,1.17,1.17,0,0,1,.61-.78,2.17,2.17,0,0,1,1-.28,2.11,2.11,0,0,1,1,.22,1.26,1.26,0,0,1,.64.75A4.67,4.67,0,0,1,104-7.39c0,.48.08,1,.1,1.54s0,1.1,0,1.67S104.06-3.07,104-2.57Z" transform="translate(75.41 52.42)"/><path class="cls-1" d="M117.24-6.82a1.78,1.78,0,0,1,.25.86,1.57,1.57,0,0,1-.22.87,1.35,1.35,0,0,1-.74.71,1.65,1.65,0,0,1-1.06,0,1.24,1.24,0,0,1-.47-.2l-.42-.3a3.76,3.76,0,0,0-.49-.31,2.41,2.41,0,0,0-.71-.2,3.77,3.77,0,0,0-.95,0,3.65,3.65,0,0,0-.92.23,2.48,2.48,0,0,0-1,1,4.15,4.15,0,0,0-.5,1.39,3.94,3.94,0,0,0,0,1.49A2.66,2.66,0,0,0,110.67,0a2.71,2.71,0,0,0,.92.67,3.6,3.6,0,0,0,1.09.31,3.65,3.65,0,0,0,1,0,6.09,6.09,0,0,0,1-.22,5.64,5.64,0,0,0,.78-.39,2.51,2.51,0,0,1,.84-.3,1.18,1.18,0,0,1,.82.27,1.49,1.49,0,0,1,.4.67,1.73,1.73,0,0,1,0,.82,1.52,1.52,0,0,1-.34.75,3.78,3.78,0,0,1-1,.83A5.08,5.08,0,0,1,115,4a5.29,5.29,0,0,1-1.55.26,10.49,10.49,0,0,1-1.61-.06,6.68,6.68,0,0,1-.73-.14l-.73-.2a5.87,5.87,0,0,1-2.14-1.32,6,6,0,0,1-1.3-1.92,6.71,6.71,0,0,1-.51-2.29,7.19,7.19,0,0,1,.29-2.39,7.37,7.37,0,0,1,.8-1.91,4.9,4.9,0,0,1,1.13-1.29,5.53,5.53,0,0,1,1.47-.81,14.33,14.33,0,0,1,1.8-.53,5.55,5.55,0,0,1,2.15,0,5.66,5.66,0,0,1,2,.75A3.2,3.2,0,0,1,117.24-6.82Z" transform="translate(75.41 52.42)"/><path class="cls-1" d="M129.92.35a4.21,4.21,0,0,1,.71-.12,1.48,1.48,0,0,1,.67.09,1.21,1.21,0,0,1,.51.39,1.29,1.29,0,0,1,.2.76,1.42,1.42,0,0,1-.17.67,2.69,2.69,0,0,1-.44.58,3.21,3.21,0,0,1-.58.45,5.69,5.69,0,0,1-.61.3,9,9,0,0,1-1.93.58,9.92,9.92,0,0,1-2.26.14,9.08,9.08,0,0,1-3-.62,4.52,4.52,0,0,1-2.25-1.86,6.68,6.68,0,0,1-.9-2.84A9.91,9.91,0,0,1,120-4.08a6.94,6.94,0,0,1,1.09-2.73,6.19,6.19,0,0,1,1.85-1.69,6,6,0,0,1,2.94-.78,7.11,7.11,0,0,1,3.11.64,6.19,6.19,0,0,1,1.77,1.17A4.81,4.81,0,0,1,132-5.7a3,3,0,0,1,.19.64,6.47,6.47,0,0,1,.1.8,5.61,5.61,0,0,1,0,.82,2.56,2.56,0,0,1-.14.72,2.2,2.2,0,0,1-.44.81,1.57,1.57,0,0,1-.67.44,3.65,3.65,0,0,1-1,.18c-.38,0-.83.06-1.35.08s-.9,0-1.31,0h-1.25l-1.32,0-1.53,0a1.45,1.45,0,0,0,.16,1,2,2,0,0,0,.68.69,3.69,3.69,0,0,0,1,.42,5.26,5.26,0,0,0,1.08.17,6.2,6.2,0,0,0,1.89-.16C128.66.71,129.28.54,129.92.35Zm-1.25-5.61a3.66,3.66,0,0,0-1.17-.93,2.29,2.29,0,0,0-1-.18,3.85,3.85,0,0,0-1,.15,2.74,2.74,0,0,0-1.43.87,2.42,2.42,0,0,0-.2.28c-.1.14-.19.29-.28.44a2.66,2.66,0,0,0-.19.44c0,.13,0,.2.06.2h5.7a2.39,2.39,0,0,0-.14-.68A2.34,2.34,0,0,0,128.67-5.26Z" transform="translate(75.41 52.42)"/><path class="cls-1" d="M-57.7,36.92a6.34,6.34,0,0,1-.08.72,2.59,2.59,0,0,1-.21.7,1.22,1.22,0,0,1-.37.52,1.27,1.27,0,0,1-.76.32,1.63,1.63,0,0,1-.78.08,2.48,2.48,0,0,1-.7-.2,1.69,1.69,0,0,1-.6-.62,3,3,0,0,1-.28-.77,4.6,4.6,0,0,1-.08-.84V33.77l0-4.42v-1.2c0-.15,0-.31,0-.5s0-.44,0-.79c0-.06,0-.16,0-.3s0-.54,0-1.18c-.76,1.26-1.38,2.26-1.87,3s-.92,1.34-1.25,1.76a3.86,3.86,0,0,1-.89.84,1.91,1.91,0,0,1-.79.24.84.84,0,0,1-.46-.08,2.66,2.66,0,0,1-.45-.29c-.15-.12-.28-.24-.41-.36a2.19,2.19,0,0,1-.3-.36c-.47-.58-1-1.28-1.58-2.09a26.77,26.77,0,0,1-1.8-2.95s0,.34,0,1,0,1.38,0,2.3,0,1.9,0,2.95,0,2,0,2.93,0,1.66,0,2.27a5.19,5.19,0,0,1-.06.91,1.89,1.89,0,0,1-.23.91,2,2,0,0,1-.63.68,1.85,1.85,0,0,1-.92.29A2.23,2.23,0,0,1-74.53,39a1.42,1.42,0,0,1-.57-.66,3.64,3.64,0,0,1-.24-.81c0-.27,0-.53,0-.78s0-.51,0-.78l0-2.26,0-4.45V25.41c0-1.67,0-3.32.17-4.94a2.22,2.22,0,0,1,.07-.59,4.93,4.93,0,0,1,.19-.54,1.66,1.66,0,0,1,.61-.69,1.72,1.72,0,0,1,.93-.26h.4l.36.05a1.59,1.59,0,0,1,1,.68c.28.37.55.69.8,1a8,8,0,0,1,.5.64c.17.25.35.51.52.78s.34.53.49.78.29.47.41.67c.5.81,1,1.55,1.35,2.22s.77,1.26,1.12,1.74a2.08,2.08,0,0,0,.21-.25c.07-.1.16-.22.24-.35a3.75,3.75,0,0,0,.24-.36l.16-.29c.19-.3.38-.61.58-.91l.62-1c.22-.34.46-.71.7-1.11s.53-.87.86-1.39c.13-.23.31-.51.52-.84a7.28,7.28,0,0,1,.73-.95,5,5,0,0,1,.86-.8,1.52,1.52,0,0,1,.91-.33h.41l.35.05a1.17,1.17,0,0,1,.67.31,1.59,1.59,0,0,1,.34.5,3.48,3.48,0,0,1,.15.63c0,.14,0,.26,0,.38s0,.23,0,.34q0,1.62,0,3.21t0,3.21c0,1.31,0,2.66,0,4s0,2.74,0,4.05c0,.27,0,.56,0,.87A7.06,7.06,0,0,1-57.7,36.92Z" transform="translate(75.41 52.42)"/><path class="cls-1" d="M-42,26.11a1.36,1.36,0,0,1,.24.86A2.61,2.61,0,0,1-42,28.13a4.11,4.11,0,0,1-.16.38l-.2.49c-.07.17-.14.34-.22.49l-.17.35-.06.14-.78,1.74c-.26.56-.54,1.15-.85,1.79s-.6,1.22-.88,1.81-.56,1.16-.83,1.72c-.08.15-.15.3-.21.44a1.92,1.92,0,0,1-.23.45l-1.39,3c-.26.5-.49,1-.72,1.47s-.47,1-.74,1.45l-.16.27a2.39,2.39,0,0,0-.13.28,2.47,2.47,0,0,1-.6.68,1.4,1.4,0,0,1-.82.36A1.8,1.8,0,0,1-52.52,45a1.46,1.46,0,0,1-.55-.58,1.61,1.61,0,0,1-.12-.67c0-.11,0-.22,0-.33a2.68,2.68,0,0,1,0-.3,1.61,1.61,0,0,0,.09-.29.48.48,0,0,1,.08-.23c.06-.16.11-.23.15-.23l2.12-4.57c-.1-.21-.19-.43-.29-.65s-.18-.42-.26-.59l-.8-1.9c-.28-.66-.57-1.33-.86-2s-.59-1.32-.9-2-.62-1.25-.93-1.83a5.15,5.15,0,0,1-.32-.62,3.46,3.46,0,0,1-.23-.66,1.94,1.94,0,0,1-.06-.68,1.47,1.47,0,0,1,.26-.7,1.46,1.46,0,0,1,.61-.62,1.7,1.7,0,0,1,.8-.17,2,2,0,0,1,.8.19,1.59,1.59,0,0,1,.61.46,4.33,4.33,0,0,1,.79,1.16c.19.42.37.85.55,1.3.37.77.74,1.58,1.13,2.43l1.16,2.48,1.52-3.18.42-.89q.18-.44.39-.84c.16-.33.31-.67.45-1a6.21,6.21,0,0,1,.51-1,1.76,1.76,0,0,1,.12-.2c0-.06.07-.13.11-.2a5,5,0,0,1,.47-.55,2.77,2.77,0,0,1,.25-.19.58.58,0,0,1,.24-.1,2,2,0,0,1,.39-.07,1.51,1.51,0,0,1,.37,0,7.38,7.38,0,0,1,.7.26A1.27,1.27,0,0,1-42,26.11Z" transform="translate(75.41 52.42)"/><path class="cls-1" d="M-33,33.91a5.18,5.18,0,0,0-1.24-.55c-.45-.13-.92-.26-1.39-.37s-.94-.25-1.38-.39A4.25,4.25,0,0,1-38.27,32a3.27,3.27,0,0,1-1.38-2.22,4.07,4.07,0,0,1,.56-2.64A3.46,3.46,0,0,1-38,26a5.54,5.54,0,0,1,1.47-.7A6.47,6.47,0,0,1-34.9,25a8.35,8.35,0,0,1,1.6.09,9,9,0,0,1,1,.24,5.65,5.65,0,0,1,1,.42,3.66,3.66,0,0,1,.87.65,2.29,2.29,0,0,1,.57,1,1.48,1.48,0,0,1,0,.72,1.23,1.23,0,0,1-.29.58,1.48,1.48,0,0,1-.55.35,1.57,1.57,0,0,1-.72,0,3.48,3.48,0,0,1-.81-.25l-.76-.38a5.89,5.89,0,0,0-.77-.35,2.49,2.49,0,0,0-.83-.14,2,2,0,0,0-1.1.23,1.41,1.41,0,0,0-.6.64,1,1,0,0,0,0,.8,1.74,1.74,0,0,0,.8.76,6.3,6.3,0,0,0,1.22.46l1.33.35c.43.11.86.25,1.28.4a3.7,3.7,0,0,1,1.11.64,3.12,3.12,0,0,1,1.18,1.82,3.77,3.77,0,0,1-.13,2,4.24,4.24,0,0,1-1.2,1.79,4.38,4.38,0,0,1-2,1,8.61,8.61,0,0,1-1.81.18,9.48,9.48,0,0,1-1.92-.2,7.57,7.57,0,0,1-1.8-.64,4.59,4.59,0,0,1-1.44-1.1,1.57,1.57,0,0,1-.42-1,2,2,0,0,1,.23-1.05,1.35,1.35,0,0,1,.71-.62,1.19,1.19,0,0,1,1.05.21,9,9,0,0,0,1.1.62,7.35,7.35,0,0,0,1.28.47,4.59,4.59,0,0,0,1.24.18,2,2,0,0,0,1-.26,1.25,1.25,0,0,0,.67-.94A.9.9,0,0,0-33,33.91Z" transform="translate(75.41 52.42)"/><path class="cls-1" d="M-16.73,35a4.2,4.2,0,0,1,.71-.11,1.63,1.63,0,0,1,.67.08,1.21,1.21,0,0,1,.51.39,1.26,1.26,0,0,1,.2.77,1.3,1.3,0,0,1-.17.66,2.28,2.28,0,0,1-.44.58,3.21,3.21,0,0,1-.58.45,3.42,3.42,0,0,1-.61.3,8.42,8.42,0,0,1-1.93.58,9.92,9.92,0,0,1-2.26.15,9.09,9.09,0,0,1-3-.63,4.51,4.51,0,0,1-2.25-1.86,6.78,6.78,0,0,1-.9-2.83,9.56,9.56,0,0,1,.15-2.95,6.54,6.54,0,0,1,1.09-2.73,6.07,6.07,0,0,1,1.84-1.7,6,6,0,0,1,2.94-.78,7.26,7.26,0,0,1,3.11.64,6.19,6.19,0,0,1,1.77,1.17A4.79,4.79,0,0,1-14.69,29a2.81,2.81,0,0,1,.18.63,6.7,6.7,0,0,1,.11.8,5.61,5.61,0,0,1,0,.82,2.7,2.7,0,0,1-.15.73,2.38,2.38,0,0,1-.44.81,1.61,1.61,0,0,1-.66.43,3.79,3.79,0,0,1-1,.19c-.38,0-.83.05-1.35.07l-1.31,0-1.25,0-1.32,0-1.53,0a1.5,1.5,0,0,0,.16,1,2,2,0,0,0,.69.69,3.19,3.19,0,0,0,1,.42,5.3,5.3,0,0,0,1.08.18,6.54,6.54,0,0,0,1.89-.16Q-17.69,35.33-16.73,35ZM-18,29.43a3.7,3.7,0,0,0-1.16-.92,2.2,2.2,0,0,0-1-.19,3.46,3.46,0,0,0-1,.16,2.65,2.65,0,0,0-1.43.87s-.1.13-.2.27a4.92,4.92,0,0,0-.28.45,1.89,1.89,0,0,0-.18.43c0,.14,0,.2.05.2h5.7a2.31,2.31,0,0,0-.14-.67A2.21,2.21,0,0,0-18,29.43Z" transform="translate(75.41 52.42)"/><path class="cls-1" d="M-7.57,36.69c0,.1,0,.19,0,.27a2.53,2.53,0,0,0,0,.28l-.17.61a.85.85,0,0,1-.09.14l-.09.17a1.09,1.09,0,0,1-.52.52,2.18,2.18,0,0,1-1.49.18,1.57,1.57,0,0,1-.78-.29,1.19,1.19,0,0,1-.41-.49,4.69,4.69,0,0,1-.17-.58,1.78,1.78,0,0,1-.09-.52V20.79a3.53,3.53,0,0,1,0-.36,1.55,1.55,0,0,1,0-.31,2.24,2.24,0,0,1,.07-.34c0-.1.06-.21.1-.32a.9.9,0,0,1,.32-.46,1.33,1.33,0,0,1,.67-.29,2,2,0,0,1,.38-.08h.41a2.43,2.43,0,0,1,.93.23,1.33,1.33,0,0,1,.58.64,2.43,2.43,0,0,1,.29,1.07c0,.19,0,.48,0,.86s0,.68,0,.87v.12c0,.61.06,1.21.06,1.77s0,1.2,0,1.87,0,1.29,0,1.89,0,1.21,0,1.81v6.07a1.55,1.55,0,0,0,0,.22,1.5,1.5,0,0,1,0,.22A2.31,2.31,0,0,1-7.57,36.69Z" transform="translate(75.41 52.42)"/><path class="cls-1" d="M3.16,26.77a.91.91,0,0,1,.64.54,1.73,1.73,0,0,1,.08.82,1.26,1.26,0,0,1-1,1.1,3.73,3.73,0,0,1-.94.12l-1,0v6.68a11.4,11.4,0,0,1-.09,1.42A1.2,1.2,0,0,1,.74,38a1.51,1.51,0,0,1-.08.17.46.46,0,0,1-.06.18,1.56,1.56,0,0,1-.47.52,1.83,1.83,0,0,1-1.36.17,1.39,1.39,0,0,1-.67-.29,1.13,1.13,0,0,1-.38-.49A1.61,1.61,0,0,1-2.37,38a1.61,1.61,0,0,0-.09-.29c0-.1,0-.19,0-.27a1.86,1.86,0,0,1,0-.22V35.53c0-1,0-2,0-3.12s0-2.12,0-3.12l-1.39-.05a1.49,1.49,0,0,1-1-.33.88.88,0,0,1-.23-.45,2.09,2.09,0,0,1,0-.56,1.78,1.78,0,0,1,.1-.53A.78.78,0,0,1-4.84,27a1.38,1.38,0,0,1,.68-.39c.21,0,.46-.05.77-.07H-3l.42,0,.06-2a10.93,10.93,0,0,1,.19-1.81,5,5,0,0,1,.49-1.45,2.2,2.2,0,0,1,1-.94,5.88,5.88,0,0,1,1.92-.46,4.27,4.27,0,0,1,1.95.26,2.06,2.06,0,0,1,.8.58,1.28,1.28,0,0,1,.36.95,3.21,3.21,0,0,1-.2,1,1,1,0,0,1-.76.58,2.37,2.37,0,0,1-.54,0H2.17a1.81,1.81,0,0,0-.54.07.85.85,0,0,0-.42.27.92.92,0,0,0-.19.46c0,.2-.05.4-.07.61a4.33,4.33,0,0,0,0,.62c0,.21,0,.37,0,.51v.72l1.23.09A3.83,3.83,0,0,1,3.16,26.77Z" transform="translate(75.41 52.42)"/><path class="cls-1" d="M36.82,27a1,1,0,0,1,0,.93,2.1,2.1,0,0,1-.5.6c-.23.2-.54.44-.95.73L30.2,32.9l-1.33.88c-.4.26-.73.46-1,.6-.06,0-.12-.13-.18-.32a6.14,6.14,0,0,1-.15-.71,7.82,7.82,0,0,1-.11-.91,7.52,7.52,0,0,1,0-.95.85.85,0,0,1,.44-.71l.84-.51L31,29H16.88a1.88,1.88,0,0,1-1-.25,2.58,2.58,0,0,1-.7-.62c-.23-.31-.42-.59-.58-.84s-.3-.51-.43-.78a1.81,1.81,0,0,1,.68-.63,2.12,2.12,0,0,1,1-.29h3.64l3,0,3.27,0,3.09,0h2.52l-2.73-1.6a6.76,6.76,0,0,1-.83-.5,1,1,0,0,1-.45-.74,7.61,7.61,0,0,1,0-1.43,1.91,1.91,0,0,1,.33-1,.5.5,0,0,1,.37-.1,1.58,1.58,0,0,1,.54.15,5.2,5.2,0,0,1,.61.32c.21.12.41.25.61.39l5.52,3.81c.45.31.78.54,1,.7a1.24,1.24,0,0,1,.46.63A1.42,1.42,0,0,1,36.82,27Z" transform="translate(75.41 52.42)"/></svg>