<svg id="레이어_1" data-name="레이어 1" xmlns="http://www.w3.org/2000/svg" viewBox="0 0 175 80.3"><defs><style>.cls-1{fill:#b3c7d6;}.cls-2{fill:#606060;}</style></defs><title>js_bubble</title><polygon class="cls-1" points="76.8 68 84.3 80.3 91.2 68 76.8 68"/><rect class="cls-1" width="175" height="70" rx="3.59"/><path class="cls-2" d="M23.2,39v1h-.51V39H21.28v-.45h3.17V39Zm.85-2.24a1.47,1.47,0,0,1-.1.53,1.38,1.38,0,0,1-.26.4,1.18,1.18,0,0,1-.37.26,1.13,1.13,0,0,1-.44.1,1.38,1.38,0,0,1-.61-.13,1.26,1.26,0,0,1-.39-.32,1.19,1.19,0,0,1-.21-.42,1.47,1.47,0,0,1,0-.83,1.38,1.38,0,0,1,.21-.42,1.27,1.27,0,0,1,.39-.33,1.09,1.09,0,0,1,.57-.13,1.15,1.15,0,0,1,.84.35,1.27,1.27,0,0,1,.27.41A1.56,1.56,0,0,1,24.05,36.8Zm-2,0a.9.9,0,0,0,.19.56.7.7,0,0,0,.58.24.67.67,0,0,0,.28-.06.84.84,0,0,0,.23-.18.64.64,0,0,0,.15-.25.81.81,0,0,0,.06-.31.85.85,0,0,0-.06-.31.92.92,0,0,0-.16-.27.88.88,0,0,0-.24-.19.59.59,0,0,0-.29-.07.66.66,0,0,0-.32.08.6.6,0,0,0-.23.19.87.87,0,0,0-.14.27A1.17,1.17,0,0,0,22.09,36.8Zm1,3.43h.49v.57h2.87v-.59l.5,0v2.17H23.42l-.33-.15Zm3.41,1.65v-.67H23.58v.72ZM26,39.73h-.55V37.05H24.39v-.5h1V35.37H26Zm.58-4.39h.53v4.42h-.53Z" transform="translate(-13 -27)"/><path class="cls-2" d="M32.17,39.7v.64H28V39.7Zm-.84-2.22a1.9,1.9,0,0,1-.11.66,1.37,1.37,0,0,1-.28.47,1.17,1.17,0,0,1-.42.27A1.35,1.35,0,0,1,30,39a1.73,1.73,0,0,1-.63-.11,1.34,1.34,0,0,1-.45-.31,1.31,1.31,0,0,1-.26-.44,1.61,1.61,0,0,1-.09-.54,2.79,2.79,0,0,1,.05-.47,1.59,1.59,0,0,1,.22-.5,1.4,1.4,0,0,1,.44-.39,1.42,1.42,0,0,1,.7-.16,1.44,1.44,0,0,1,.5.1,1.34,1.34,0,0,1,.42.28,1.39,1.39,0,0,1,.29.45A1.78,1.78,0,0,1,31.33,37.48Zm-2.22,0v.08a.92.92,0,0,0,.26.71.89.89,0,0,0,.61.23.78.78,0,0,0,.61-.25,1.06,1.06,0,0,0,.22-.74,1.33,1.33,0,0,0,0-.34,1.08,1.08,0,0,0-.16-.3.82.82,0,0,0-.63-.3.74.74,0,0,0-.34.08.82.82,0,0,0-.27.21.88.88,0,0,0-.18.29A1,1,0,0,0,29.11,37.46Zm4.17-1.64v5.39h-.64V35.82Z" transform="translate(-13 -27)"/><path class="cls-2" d="M39,39.84H36.42v-.57h5.5v.6H39.58v1.92H39Zm1.66-1.29h-.53V36.38H37.47l.06-.65h2.85l.32.47Z" transform="translate(-13 -27)"/><path class="cls-2" d="M45.89,40.6h2.45v.56H42.88v-.61h2.51V39l.5,0ZM43.67,39l1.66-1.41v-.94H43.8v-.47h3.54v.47H45.92v1l1.56,1.32-.31.39-1.56-1.25-1.55,1.33Z" transform="translate(-13 -27)"/><path class="cls-2" d="M52.16,37.35a1.44,1.44,0,0,1-.09.51,1.47,1.47,0,0,1-.22.41,1.38,1.38,0,0,1-.34.3,1.24,1.24,0,0,1-.4.16l0,1.22h1.48v.56H49.05v-.63h1.56l0-1.15a1.06,1.06,0,0,1-.53-.21,1.13,1.13,0,0,1-.33-.36,1.14,1.14,0,0,1-.18-.41,2.08,2.08,0,0,1,0-.4,1.41,1.41,0,0,1,.07-.42,1.26,1.26,0,0,1,1.26-1,1.32,1.32,0,0,1,.51.1,1.1,1.1,0,0,1,.42.29,1.53,1.53,0,0,1,.29.44A1.48,1.48,0,0,1,52.16,37.35Zm-2.14,0a1,1,0,0,0,0,.34.85.85,0,0,0,.16.28.8.8,0,0,0,.63.27.71.71,0,0,0,.32-.07.82.82,0,0,0,.25-.2.92.92,0,0,0,.17-.29.88.88,0,0,0,.06-.33,1,1,0,0,0-.07-.34.79.79,0,0,0-.18-.29.86.86,0,0,0-.26-.2.71.71,0,0,0-.32-.07.63.63,0,0,0-.34.08.75.75,0,0,0-.26.21.9.9,0,0,0-.16.29A.86.86,0,0,0,50,37.35Zm3.21,3.7V35.74h.61V38H55v.51H53.81v2.59Z" transform="translate(-13 -27)"/><path class="cls-2" d="M60.47,35.82v.5H59.39v.83l1.55,1.58-.31.4-1.5-1.42-1.25,1.58-.4-.41,1.33-1.72v-.84H57.56V35.8Zm2.19,6.53h-.57V40.59H58.25v-.52h4.13l.28.33Zm-.93-7h.54V37h1.21v.53H62.27v2H61.7Z" transform="translate(-13 -27)"/><path class="cls-2" d="M65.66,38.12l-.33-.3V35.54h3.12v.51H65.83V37.6h2.78v.53H67.25V39h2.44v.54H64.22V39h2.51v-.83ZM65.5,41.2a1,1,0,0,1,.1-.45,1,1,0,0,1,.29-.37,1.51,1.51,0,0,1,.49-.25,2.61,2.61,0,0,1,1.36,0,1.42,1.42,0,0,1,.49.25,1.17,1.17,0,0,1,.3.37,1.14,1.14,0,0,1,.1.45,1.19,1.19,0,0,1-.1.46,1.17,1.17,0,0,1-.3.37,1.61,1.61,0,0,1-.49.25,2.61,2.61,0,0,1-1.36,0,1.74,1.74,0,0,1-.49-.25,1,1,0,0,1-.29-.37A1,1,0,0,1,65.5,41.2Zm2.58,0a.58.58,0,0,0-.27-.49,1.19,1.19,0,0,0-.75-.2,1.16,1.16,0,0,0-.75.2.57.57,0,0,0-.26.49.61.61,0,0,0,.26.5,1.22,1.22,0,0,0,.75.2,1.26,1.26,0,0,0,.75-.2A.62.62,0,0,0,68.08,41.2Z" transform="translate(-13 -27)"/><path class="cls-2" d="M72.77,39.15l-.27-3.63.52-.06L73.16,37H74.5l-.12-1.53.51-.05.28,3.85L73,39.4Zm.51-.35h1.36l-.11-1.39-1.36.11Zm.92,2.33a1.13,1.13,0,0,1,.1-.44,1,1,0,0,1,.3-.37,1.33,1.33,0,0,1,.49-.25,2.24,2.24,0,0,1,.68-.09,2.26,2.26,0,0,1,.67.09,1.33,1.33,0,0,1,.49.25.88.88,0,0,1,.3.37,1,1,0,0,1,.1.44,1,1,0,0,1-.1.46.88.88,0,0,1-.3.37,1.2,1.2,0,0,1-.49.25,2.26,2.26,0,0,1-.67.09,2.24,2.24,0,0,1-.68-.09A1.2,1.2,0,0,1,74.6,42a1,1,0,0,1-.3-.37A1.15,1.15,0,0,1,74.2,41.13Zm2.58,0a.61.61,0,0,0-.27-.49,1.25,1.25,0,0,0-.74-.19,1.28,1.28,0,0,0-.76.19.62.62,0,0,0-.26.49.61.61,0,0,0,.26.5,1.21,1.21,0,0,0,.76.21,1.18,1.18,0,0,0,.74-.21A.6.6,0,0,0,76.78,41.13Zm0-5.78h.53V37H78.5v.53H77.28v2h-.56Z" transform="translate(-13 -27)"/><path class="cls-2" d="M79,39.26l1.32-2.13V35.71l.47,0v1.37l1.71,1.69-.28.41-1.56-1.52-1.22,1.91Zm5.21,3.09h-.67l.12-1.76H79.78v-.52h4.13l.28.33Zm-.11-6.94v4.13h-.56V35.4Z" transform="translate(-13 -27)"/><path class="cls-2" d="M91,38.68h-5.5l0-.44H91Zm-4.48.75h3.72v1.72H86.8v.69h3.93v.4H86.55l-.27-.15V40.65h3.45v-.77H86.55Zm.22-3a1.14,1.14,0,0,1,.12-.52,1.06,1.06,0,0,1,.33-.37,1.54,1.54,0,0,1,.48-.24,2.25,2.25,0,0,1,.58-.07,1.85,1.85,0,0,1,.58.09,1.51,1.51,0,0,1,.47.25,1.44,1.44,0,0,1,.32.38,1,1,0,0,1,.12.48,1.11,1.11,0,0,1-.14.56,1.24,1.24,0,0,1-.34.38,1.3,1.3,0,0,1-.48.21,1.88,1.88,0,0,1-.53.07,2.35,2.35,0,0,1-.6-.08,1.57,1.57,0,0,1-.48-.25,1.18,1.18,0,0,1-.32-.38A1.06,1.06,0,0,1,86.77,36.43Zm2.5,0a.56.56,0,0,0-.08-.27.79.79,0,0,0-.21-.24.92.92,0,0,0-.31-.17,1.05,1.05,0,0,0-.4-.07,1.51,1.51,0,0,0-.47.09.8.8,0,0,0-.48.41.59.59,0,0,0,0,.25.59.59,0,0,0,.09.34.63.63,0,0,0,.23.23,1,1,0,0,0,.32.14,1.55,1.55,0,0,0,.37,0,1.1,1.1,0,0,0,.37-.06A1,1,0,0,0,89,37a.71.71,0,0,0,.22-.24A.52.52,0,0,0,89.27,36.43Z" transform="translate(-13 -27)"/><path class="cls-2" d="M24.58,45.65,23.5,49.06,23,49l1-3.08H21.66l0-.61h2.63Zm2.25,5.88V52H22.44v-.62h.79L23.42,50h-1l.07-.53h4.15v.69H26v1.37Zm-2.89-1.47-.16,1.42h1.6V50.06ZM26.48,45v4.1h-.56V45Z" transform="translate(-13 -27)"/><path class="cls-2" d="M28,47.45a3.25,3.25,0,0,1,.07-.59,1.77,1.77,0,0,1,.23-.59,1.32,1.32,0,0,1,.43-.45,1.25,1.25,0,0,1,.7-.18,1.2,1.2,0,0,1,.67.18,1.45,1.45,0,0,1,.44.45,2,2,0,0,1,.24.59,3.25,3.25,0,0,1,.07.59,3.36,3.36,0,0,1-.07.61,2,2,0,0,1-.24.58,1.42,1.42,0,0,1-.44.44,1.28,1.28,0,0,1-.67.17,1.32,1.32,0,0,1-.68-.17,1.54,1.54,0,0,1-.44-.44,2,2,0,0,1-.24-.58A3.36,3.36,0,0,1,28,47.45Zm.52,0a2.12,2.12,0,0,0,0,.42,1.39,1.39,0,0,0,.14.42,1,1,0,0,0,.28.33.69.69,0,0,0,.45.13.72.72,0,0,0,.44-.13,1.12,1.12,0,0,0,.28-.33,1.16,1.16,0,0,0,.14-.42,2.23,2.23,0,0,0,0-.84,1.88,1.88,0,0,0-.14-.42,1.12,1.12,0,0,0-.28-.33.79.79,0,0,0-.44-.13.81.81,0,0,0-.46.13,1,1,0,0,0-.28.33,1.21,1.21,0,0,0-.13.42A2.12,2.12,0,0,0,28.5,47.45Zm3.83,2.72V44.83H33v5.34Z" transform="translate(-13 -27)"/><path class="cls-2" d="M34.45,47.11a2.35,2.35,0,0,1,.08-.6,1.42,1.42,0,0,1,.25-.49,1.22,1.22,0,0,1,.44-.33,1.41,1.41,0,0,1,.64-.13,1.22,1.22,0,0,1,.66.17,1.49,1.49,0,0,1,.42.41,1.67,1.67,0,0,1,.23.51,2.08,2.08,0,0,1,.06.46,3,3,0,0,1,0,.47,1.44,1.44,0,0,1-.22.51,1.24,1.24,0,0,1-.42.4,1.32,1.32,0,0,1-.7.16,1.46,1.46,0,0,1-.66-.14,1.32,1.32,0,0,1-.43-.38,1.75,1.75,0,0,1-.23-.5A2.49,2.49,0,0,1,34.45,47.11Zm.5,0a1.5,1.5,0,0,0,.07.44,1,1,0,0,0,.2.32.94.94,0,0,0,.28.21.69.69,0,0,0,.34.09.86.86,0,0,0,.36-.08.79.79,0,0,0,.28-.23,1.32,1.32,0,0,0,.18-.33,1.42,1.42,0,0,0,.06-.42,1.29,1.29,0,0,0-.24-.75.83.83,0,0,0-.64-.32.87.87,0,0,0-.36.09.92.92,0,0,0-.28.24,1.56,1.56,0,0,0-.18.34A1.67,1.67,0,0,0,35,47.11Zm.49,4.73-.35-.39,1.22-1.25v-.86h.53v.83l1,.7.48-.54.06-.89h.5v.87l1.24,1.23-.35.36-1.18-1.15L37.38,52l-.33-.35.39-.44-.85-.61ZM39.36,45v4.1H38.8V45Z" transform="translate(-13 -27)"/><path class="cls-2" d="M42,50l-.48-.12,1.08-3.77h-2v-.59H43l.2.48-.35,1.21h1.53V45.42h.51V50l-.48,0V47.78H42.7Zm3.7.19v-5h.54v4.94Z" transform="translate(-13 -27)"/><path class="cls-2" d="M49.33,47.45a3.19,3.19,0,0,1,.06-.59,2,2,0,0,1,.23-.59,1.42,1.42,0,0,1,.43-.45,1.28,1.28,0,0,1,.7-.18,1.17,1.17,0,0,1,.67.18,1.45,1.45,0,0,1,.44.45,1.79,1.79,0,0,1,.24.59,2.55,2.55,0,0,1,.07.59,2.66,2.66,0,0,1-.07.61,1.74,1.74,0,0,1-.24.58,1.42,1.42,0,0,1-.44.44,1.41,1.41,0,0,1-1.34,0,1.42,1.42,0,0,1-.44-.44,1.74,1.74,0,0,1-.24-.58A2.66,2.66,0,0,1,49.33,47.45Zm.51,0a3.29,3.29,0,0,0,0,.42,1.73,1.73,0,0,0,.14.42,1,1,0,0,0,.28.33.73.73,0,0,0,.45.13.7.7,0,0,0,.44-.13,1,1,0,0,0,.28-.33,1.4,1.4,0,0,0,.15-.42,3.29,3.29,0,0,0,0-.42,2.18,2.18,0,0,0,0-.42,1.48,1.48,0,0,0-.14-.42,1,1,0,0,0-.28-.33.76.76,0,0,0-.44-.13.81.81,0,0,0-.46.13,1,1,0,0,0-.27.33,1.23,1.23,0,0,0-.14.42A3.29,3.29,0,0,0,49.84,47.45Zm3.83,2.72V44.83h.64v5.34Z" transform="translate(-13 -27)"/><path class="cls-2" d="M58.83,47l0,.49-3.39-.25v-.5l1.42.09V45.47h.53v1.4Zm-.61,2.38a1.42,1.42,0,0,1-.4.87,1.07,1.07,0,0,1-.8.32,1.1,1.1,0,0,1-.56-.13,1.06,1.06,0,0,1-.37-.33,1.19,1.19,0,0,1-.21-.44,1.58,1.58,0,0,1-.07-.47,1.48,1.48,0,0,1,.07-.44,1.43,1.43,0,0,1,.2-.46,1.27,1.27,0,0,1,.37-.36,1,1,0,0,1,.57-.15,1.13,1.13,0,0,1,.89.37,1.39,1.39,0,0,1,.32,1v.13S58.22,49.32,58.22,49.36ZM56.33,49a.3.3,0,0,0,0,.1v.09a1.13,1.13,0,0,0,0,.32,1.08,1.08,0,0,0,.14.26,1,1,0,0,0,.22.18A.73.73,0,0,0,57,50a.63.63,0,0,0,.26,0,.54.54,0,0,0,.24-.16,1,1,0,0,0,.18-.3,1.42,1.42,0,0,0,.07-.45.92.92,0,0,0-.18-.57.74.74,0,0,0-1,0A1.32,1.32,0,0,0,56.33,49Zm4.59-3h.53v5.2h-.53V48.75h-.86v2.39h-.59V46h.59V48.2h.86Z" transform="translate(-13 -27)"/><path class="cls-2" d="M65.31,46.87l0,.47-3.39-.26v-.49l1.43.1V45.33l.53,0v1.39Zm-.56,2.41a1.94,1.94,0,0,1-.15.5,1.78,1.78,0,0,1-.28.38,1.27,1.27,0,0,1-.39.26,1.22,1.22,0,0,1-.46.09,1.41,1.41,0,0,1-.61-.13,1.44,1.44,0,0,1-.4-.33,1.42,1.42,0,0,1-.23-.44,1.9,1.9,0,0,1-.07-.46,1.63,1.63,0,0,1,.09-.55,1.31,1.31,0,0,1,.24-.47,1.27,1.27,0,0,1,.41-.31,1.37,1.37,0,0,1,1.51.26,1.44,1.44,0,0,1,.35,1v.1S64.75,49.25,64.75,49.28Zm-2-.39a.9.9,0,0,0,0,.25,1,1,0,0,0,.17.57,1,1,0,0,0,.25.21.74.74,0,0,0,.36.08.71.71,0,0,0,.31-.08.86.86,0,0,0,.26-.21.87.87,0,0,0,.17-.3,1,1,0,0,0,.06-.36,1,1,0,0,0-.2-.6.67.67,0,0,0-.57-.25.69.69,0,0,0-.51.19A1,1,0,0,0,62.7,48.89Zm3.88,2.23-.58,0V45.47h.64v2.4h1.19v.5H66.58Z" transform="translate(-13 -27)"/><path class="cls-2" d="M71.5,46l-1.17,4L69.8,50l1.08-3.7H68.67l0-.61h2.53ZM73,50.17V44.83h.65v5.34Z" transform="translate(-13 -27)"/><path class="cls-2" d="M77.05,49.37V49h4.17v.36H79.31v1.75h-.53V49.37Zm3.11-2.47a1.89,1.89,0,0,1-.12.61,1.35,1.35,0,0,1-.31.43,1.12,1.12,0,0,1-.43.27,1.69,1.69,0,0,1-.5.08,1.37,1.37,0,0,1-.68-.14,1.23,1.23,0,0,1-.41-.37,1.32,1.32,0,0,1-.21-.45,1.84,1.84,0,0,1-.06-.43,1.76,1.76,0,0,1,.06-.42,1.53,1.53,0,0,1,.23-.46,1.42,1.42,0,0,1,.43-.37,1.36,1.36,0,0,1,.67-.15,1.33,1.33,0,0,1,.54.1,1.08,1.08,0,0,1,.42.3,1.16,1.16,0,0,1,.27.44A1.47,1.47,0,0,1,80.16,46.9ZM78,46.9V47a.87.87,0,0,0,.22.62.82.82,0,0,0,.63.23.8.8,0,0,0,.34-.07.9.9,0,0,0,.27-.2,1.12,1.12,0,0,0,.19-.29.84.84,0,0,0,.07-.35,1.15,1.15,0,0,0-.06-.37,1.19,1.19,0,0,0-.18-.29.7.7,0,0,0-.26-.19.68.68,0,0,0-.32-.07.93.93,0,0,0-.39.08,1,1,0,0,0-.28.22.75.75,0,0,0-.16.29A1.3,1.3,0,0,0,78,46.9Zm3.82,4V45.15h.42v5.72Z" transform="translate(-13 -27)"/><path class="cls-2" d="M86.61,47l0,.49-3.39-.25v-.5l1.42.09V45.47h.53v1.4ZM86,49.36a1.42,1.42,0,0,1-.4.87,1.19,1.19,0,0,1-1.35.19,1,1,0,0,1-.38-.33,1.19,1.19,0,0,1-.21-.44,2,2,0,0,1-.07-.47,1.48,1.48,0,0,1,.07-.44,1.69,1.69,0,0,1,.2-.46,1.27,1.27,0,0,1,.37-.36,1,1,0,0,1,.57-.15,1.17,1.17,0,0,1,.9.37,1.44,1.44,0,0,1,.32,1s0,.08,0,.13S86,49.32,86,49.36ZM84.11,49a.3.3,0,0,0,0,.1v.09a1.13,1.13,0,0,0,0,.32,1.1,1.1,0,0,0,.15.26.74.74,0,0,0,.21.18.73.73,0,0,0,.3.06.63.63,0,0,0,.26,0,.54.54,0,0,0,.24-.16,1,1,0,0,0,.18-.3,1.42,1.42,0,0,0,.07-.45,1,1,0,0,0-.17-.57.65.65,0,0,0-.54-.23.61.61,0,0,0-.5.2A1.21,1.21,0,0,0,84.11,49Zm4.59-3h.53v5.2H88.7V48.75h-.86v2.39h-.59V46h.59V48.2h.86Z" transform="translate(-13 -27)"/><path class="cls-2" d="M94.59,49.58H92V49h5.5v.6H95.14v1.78h-.55Zm-.45-1.47h-.53V46.23H92.08l.06-.58h1.7l.33.39Zm2.27,0h-.53v-2h-1.5l.06-.58h1.65l.33.39Z" transform="translate(-13 -27)"/><path class="cls-2" d="M101.67,48.89V50.5h-.5V48.89H98.41l0-.44h5.45v.38ZM99.3,47.28l1.59-1.36,0-.63H99.41v-.46h3.45v.46h-1.38l0,.65L103,47.19l-.32.39-1.53-1.22-1.5,1.29Zm.47,4.47-.35-.27V49.73h.49v1.49l3.54.07a1.7,1.7,0,0,0,0,.25v.21a.06.06,0,0,1,0,0Z" transform="translate(-13 -27)"/><path class="cls-2" d="M108.17,47v.47l-3.4-.27v-.48l1.42.09V45.48l.53.05v1.39Zm-.47,2.31a1.39,1.39,0,0,1-.15.5,1.21,1.21,0,0,1-.28.38,1.16,1.16,0,0,1-.39.26,1.18,1.18,0,0,1-.46.09,1.21,1.21,0,0,1-.6-.13,1.35,1.35,0,0,1-.41-.33,1.22,1.22,0,0,1-.22-.44,1.51,1.51,0,0,1-.07-.46,1.67,1.67,0,0,1,.08-.55,1.21,1.21,0,0,1,.25-.46,1.05,1.05,0,0,1,.4-.32,1.37,1.37,0,0,1,1.51.26,1.46,1.46,0,0,1,.35,1v.1A.28.28,0,0,1,107.7,49.34Zm-2-.39a.9.9,0,0,0,0,.25,1.5,1.5,0,0,0,0,.29A.82.82,0,0,0,106,50a.8.8,0,0,0,.36.08.68.68,0,0,0,.31-.08.86.86,0,0,0,.26-.2,1.07,1.07,0,0,0,.23-.66.92.92,0,0,0-.2-.61.7.7,0,0,0-.57-.25.73.73,0,0,0-.51.2A.9.9,0,0,0,105.66,49Zm3.93,2V45.62h.64V51Z" transform="translate(-13 -27)"/><path class="cls-2" d="M115.77,48.61h3v.54h-5.47v-.59h1.89V47.11h.47Zm1.82-.6h-.5V46h-2.61l.07-.6h2.73l.33.41Zm-3,2.78a1.12,1.12,0,0,1,.09-.44A1.07,1.07,0,0,1,115,50a1.42,1.42,0,0,1,.49-.25,2.29,2.29,0,0,1,.68-.09,2.26,2.26,0,0,1,.67.09,1.47,1.47,0,0,1,.5.25.94.94,0,0,1,.29.37,1,1,0,0,1,.1.44,1,1,0,0,1-.1.47,1,1,0,0,1-.29.37,1.67,1.67,0,0,1-.5.25,2.26,2.26,0,0,1-.67.09,2.29,2.29,0,0,1-.68-.09,1.61,1.61,0,0,1-.49-.25,1.17,1.17,0,0,1-.3-.37A1.19,1.19,0,0,1,114.63,50.79Zm2.57,0a.58.58,0,0,0-.27-.48,1.18,1.18,0,0,0-.74-.2,1.21,1.21,0,0,0-.76.2.59.59,0,0,0-.26.48.61.61,0,0,0,.26.5,1.21,1.21,0,0,0,.76.21,1.18,1.18,0,0,0,.74-.21A.6.6,0,0,0,117.2,50.79Z" transform="translate(-13 -27)"/><path class="cls-2" d="M122.38,49.58h-2.61V49h5.5v.6h-2.35v1.78h-.54ZM120.66,45v-.06h.51l.1,1.23h2.2l-.08-1.25.52,0v3.23h-2.72l-.35-.17Zm2.89,2.59v-1h-2.27l.08,1.06Z" transform="translate(-13 -27)"/><path class="cls-2" d="M129.34,46.87l0,.47-3.39-.26v-.49l1.43.1V45.33l.54,0v1.39Zm-.56,2.41a1.94,1.94,0,0,1-.15.5,1.78,1.78,0,0,1-.28.38,1.16,1.16,0,0,1-.39.26,1.18,1.18,0,0,1-.46.09,1.41,1.41,0,0,1-.61-.13,1.44,1.44,0,0,1-.4-.33,1.22,1.22,0,0,1-.22-.44,1.51,1.51,0,0,1-.07-.46,1.63,1.63,0,0,1,.08-.55,1.31,1.31,0,0,1,.24-.47,1.27,1.27,0,0,1,.41-.31,1.37,1.37,0,0,1,1.51.26,1.44,1.44,0,0,1,.35,1v.1A.28.28,0,0,1,128.78,49.28Zm-2-.39a.9.9,0,0,0,0,.25,1.55,1.55,0,0,0,0,.29.82.82,0,0,0,.38.49.8.8,0,0,0,.36.08.68.68,0,0,0,.31-.08.86.86,0,0,0,.26-.21.87.87,0,0,0,.17-.3,1,1,0,0,0,.06-.36,1,1,0,0,0-.2-.6.67.67,0,0,0-.57-.25.7.7,0,0,0-.51.19A1,1,0,0,0,126.73,48.89Zm3.88,2.23-.58,0V45.47h.64v2.4h1.19v.5h-1.25Z" transform="translate(-13 -27)"/><path class="cls-2" d="M134.8,49.83h2.7v.59h-4.69v-.64h1.53V47.72h.46Zm2.11-.74h-.53V46.23h-3l.06-.65h3.2l.33.46Z" transform="translate(-13 -27)"/><path class="cls-2" d="M141.17,47.11a2.35,2.35,0,0,1,.08-.6,1.42,1.42,0,0,1,.25-.49,1.14,1.14,0,0,1,.44-.33,1.38,1.38,0,0,1,.64-.13,1.24,1.24,0,0,1,.66.17,1.49,1.49,0,0,1,.42.41,1.67,1.67,0,0,1,.23.51,2.08,2.08,0,0,1,.06.46,2.23,2.23,0,0,1-.06.47,1.26,1.26,0,0,1-.21.51,1.24,1.24,0,0,1-.42.4,1.32,1.32,0,0,1-.7.16,1.46,1.46,0,0,1-.66-.14,1.32,1.32,0,0,1-.43-.38,1.75,1.75,0,0,1-.23-.5A2.49,2.49,0,0,1,141.17,47.11Zm.5,0a1.5,1.5,0,0,0,.07.44.87.87,0,0,0,.2.32.94.94,0,0,0,.28.21.69.69,0,0,0,.34.09.86.86,0,0,0,.36-.08.89.89,0,0,0,.28-.23,1.74,1.74,0,0,0,.18-.33,1.42,1.42,0,0,0,.06-.42,1.29,1.29,0,0,0-.24-.75.85.85,0,0,0-.64-.32.87.87,0,0,0-.36.09.92.92,0,0,0-.28.24,1,1,0,0,0-.18.34A1.67,1.67,0,0,0,141.67,47.11Zm.49,4.73-.35-.39L143,50.2v-.86h.53v.83l1,.7.48-.54.06-.89h.5v.87l1.24,1.23-.35.36-1.18-1.15L144.09,52l-.32-.35.39-.44-.85-.61ZM146.08,45v4.1h-.56V45Z" transform="translate(-13 -27)"/><path class="cls-2" d="M152.84,50.73h-5.12v-.51h5.12Zm-4.2-3.15v-.09a1.4,1.4,0,0,1,.1-.54,1.2,1.2,0,0,1,.29-.45,1.43,1.43,0,0,1,.47-.31,1.9,1.9,0,0,1,.66-.11,2.3,2.3,0,0,1,.78.11,1.42,1.42,0,0,1,.54.31,1.25,1.25,0,0,1,.31.45,1.45,1.45,0,0,1,.1.55,1.32,1.32,0,0,1-.13.6,1.24,1.24,0,0,1-.35.44,1.56,1.56,0,0,1-.51.27,2,2,0,0,1-.61.09,1.87,1.87,0,0,1-.57-.08,1.74,1.74,0,0,1-.53-.26,1.38,1.38,0,0,1-.39-.41A1.18,1.18,0,0,1,148.64,47.58Zm1.63-1h-.07a1,1,0,0,0-.77.27,1,1,0,0,0-.26.68.71.71,0,0,0,.1.39.83.83,0,0,0,.25.28,1.46,1.46,0,0,0,.38.17,2.12,2.12,0,0,0,.44,0,1.12,1.12,0,0,0,.42-.07,1.06,1.06,0,0,0,.33-.19,1,1,0,0,0,.21-.26.63.63,0,0,0,.08-.29,1,1,0,0,0-.29-.74A1.24,1.24,0,0,0,150.27,46.56Z" transform="translate(-13 -27)"/><path class="cls-2" d="M154.17,46.34h2.46v.52h2.1V45.62h.49V51h-.42V49h-2.21v.85h-2.18l-.25-.3Zm1.91.52h-1.39v2.4h1.39Zm.53.5V48.5h2.14V47.37Z" transform="translate(-13 -27)"/><path class="cls-2" d="M161,49.22l.65.62-1,1.53-.39-.29L161,50l-.34-.37Z" transform="translate(-13 -27)"/><path class="cls-2" d="M24.25,56.21H23.16v1.23l1.57,1.89-.31.39L22.86,58l-1.25,1.82-.39-.41,1.36-1.95V56.21H21.33v-.5h2.9Zm1.67,4.51-.58,0V55.07H26v2.4h1.19V58H25.92Z" transform="translate(-13 -27)"/><path class="cls-2" d="M27.64,55.22h.53l.14,1.55h1.63l-.13-1.56h.53L30.61,59H28.22l-.31-.11Zm2.44,3.25L30,57.18H28.33l.11,1.39Zm1.73,1.63V54.75h.61v2.4h1.35v.51H32.39V60.1Z" transform="translate(-13 -27)"/><path class="cls-2" d="M39.69,60.33H34.56v-.51h5.13Zm-4.47-2,1.56-1.79V55.27h.56V56.5L39,58l-.28.41L37.09,57l-1.46,1.67Z" transform="translate(-13 -27)"/><path class="cls-2" d="M46.13,60.33H41v-.51h5.13Zm-1-4.54V59h-.62V57.91H41.48v-.62h3.11V56H41.53v-.68H45Z" transform="translate(-13 -27)"/><path class="cls-2" d="M47.48,55.46V55H50l.16,1.85-2.25.26v.86h2.6l0,.49h-3l-.29-.16V56.6l2.31-.24-.08-.89Zm1,3.84v0H49v.66h2.91v-.68l.5,0v2.33H48.86l-.33-.15Zm3.47,1.83v-.8H49v.8Zm.29-6.52v4.1h-.56V54.6Z" transform="translate(-13 -27)"/><path class="cls-2" d="M59.16,60.49H53.72V60h5.44Zm-.93-2.25v.51H54.94l-.3-.39V55.49h3.17v.41H55.16v.89H58v.45H55.16v.94Z" transform="translate(-13 -27)"/><path class="cls-2" d="M62.11,54.46l.22.45a3.56,3.56,0,0,0-.92.59,2.82,2.82,0,0,0-.56.75,2.91,2.91,0,0,0-.29.89,5.59,5.59,0,0,0-.08,1,4.58,4.58,0,0,0,.09.95,2.55,2.55,0,0,0,.32.77,2,2,0,0,0,.59.58,2.87,2.87,0,0,0,.9.39l0,.46a3.36,3.36,0,0,1-1-.37,2.48,2.48,0,0,1-.75-.6,2.38,2.38,0,0,1-.49-.81,2.86,2.86,0,0,1-.17-1,1.77,1.77,0,0,1,0-.23,1.62,1.62,0,0,1,0-.22A5.8,5.8,0,0,1,60.06,57a3.55,3.55,0,0,1,.37-1,3.44,3.44,0,0,1,.66-.84A4.62,4.62,0,0,1,62.11,54.46Z" transform="translate(-13 -27)"/><path class="cls-2" d="M66.2,59.66v.55h-3L63,59.83V55.71l.32-.46h2.51v.46H63.5v1.75h2.44v.42H63.47v1.78Z" transform="translate(-13 -27)"/><path class="cls-2" d="M69.61,55.49l-.22.47a.52.52,0,0,0-.15-.11,1.28,1.28,0,0,0-.26-.1l-.33-.08a1.45,1.45,0,0,0-.35,0,1.15,1.15,0,0,0-.33,0,.81.81,0,0,0-.27.11.53.53,0,0,0-.18.21.76.76,0,0,0-.07.32.87.87,0,0,0,.19.5,1.29,1.29,0,0,0,.59.38,3.32,3.32,0,0,1,.81.43,1.71,1.71,0,0,1,.44.46,1.08,1.08,0,0,1,.18.44,2,2,0,0,1,0,.41,1.32,1.32,0,0,1-.41,1,1.66,1.66,0,0,1-1.16.36,4.27,4.27,0,0,1-.68-.06,8.13,8.13,0,0,1-.81-.21l.17-.55a4.16,4.16,0,0,0,.61.18,3.53,3.53,0,0,0,.72.08,1.75,1.75,0,0,0,.4,0,1,1,0,0,0,.33-.13.69.69,0,0,0,.22-.23.84.84,0,0,0,.08-.37,1,1,0,0,0-.17-.6,1.53,1.53,0,0,0-.42-.38,3.36,3.36,0,0,0-.54-.26,3.5,3.5,0,0,1-.54-.29,1.34,1.34,0,0,1-.41-.41,1.2,1.2,0,0,1-.16-.66,1.35,1.35,0,0,1,.1-.57.86.86,0,0,1,.29-.38,1,1,0,0,1,.43-.21,1.79,1.79,0,0,1,.53-.07,2.57,2.57,0,0,1,.73.1A2.05,2.05,0,0,1,69.61,55.49Z" transform="translate(-13 -27)"/><path class="cls-2" d="M72.81,55.25v.46h-.09a2,2,0,0,0-.91.21,2.3,2.3,0,0,0-.69.54,2.4,2.4,0,0,0-.45.73,2.3,2.3,0,0,0-.15.79v.1s0,.07,0,.1a.74.74,0,0,1,.17-.33,1.23,1.23,0,0,1,.31-.24,1.66,1.66,0,0,1,.39-.15,2.18,2.18,0,0,1,.43-.05,1.69,1.69,0,0,1,.56.1,1.28,1.28,0,0,1,.43.28,1.34,1.34,0,0,1,.28.42,1.51,1.51,0,0,1,.1.53,1.39,1.39,0,0,1-.12.57,1.54,1.54,0,0,1-.33.47,1.71,1.71,0,0,1-.5.32,1.72,1.72,0,0,1-1.4-.06,1.44,1.44,0,0,1-.49-.49,2.07,2.07,0,0,1-.23-.66,3.68,3.68,0,0,1-.07-.73,3.57,3.57,0,0,1,.17-1.07,3,3,0,0,1,.48-.94,2.61,2.61,0,0,1,.78-.66,2.08,2.08,0,0,1,1-.25h.28Zm-.14,3.1a.68.68,0,0,0-.34-.33,1.26,1.26,0,0,0-.51-.11,1.52,1.52,0,0,0-.42.06,1.43,1.43,0,0,0-.37.19.94.94,0,0,0-.27.29.67.67,0,0,0-.1.38.86.86,0,0,0,0,.3.77.77,0,0,0,.17.27.81.81,0,0,0,.29.21,1.09,1.09,0,0,0,.42.07,1.45,1.45,0,0,0,.41-.06,1,1,0,0,0,.37-.19.9.9,0,0,0,.26-.32.87.87,0,0,0,.1-.44A.73.73,0,0,0,72.67,58.35Z" transform="translate(-13 -27)"/><path class="cls-2" d="M75.39,60.11v-2H73.7l0-.51h1.56V56.33l.44,0v1.33h1.91l.06.48H75.8v2Z" transform="translate(-13 -27)"/><path class="cls-2" d="M78.09,54.91l.22-.45a4.6,4.6,0,0,1,1,.7A3.39,3.39,0,0,1,80,56a4,4,0,0,1,.35,1,6.31,6.31,0,0,1,.11,1.18,6.05,6.05,0,0,1,0,.63,4.63,4.63,0,0,1-.11.56,3.61,3.61,0,0,1-.21.49A2.84,2.84,0,0,1,79,61a3.36,3.36,0,0,1-1,.37l0-.46a2.92,2.92,0,0,0,.89-.39,2,2,0,0,0,.58-.59,2.32,2.32,0,0,0,.32-.77,4.61,4.61,0,0,0,.09-1,6.63,6.63,0,0,0-.08-1,3,3,0,0,0-.29-.88A2.83,2.83,0,0,0,79,55.5,3.49,3.49,0,0,0,78.09,54.91Z" transform="translate(-13 -27)"/><path class="cls-2" d="M86.77,58h-5.5l0-.44h5.45Zm-4.49.73H86V60.5H82.53v.69h3.94v.41H82.28L82,61.44V60h3.45v-.76H82.28ZM82.5,54h3.16v1.67h-3v.73H86v.46H82.52l-.38-.29V55.25h3v-.73H82.52Z" transform="translate(-13 -27)"/><path class="cls-2" d="M89.78,57.05a2.55,2.55,0,0,1,.07-.59,2,2,0,0,1,.22-.59,1.45,1.45,0,0,1,.44-.45,1.39,1.39,0,0,1,1.37,0,1.57,1.57,0,0,1,.44.45,1.77,1.77,0,0,1,.23.59,2.6,2.6,0,0,1,.08.59,2.69,2.69,0,0,1-.08.61,1.72,1.72,0,0,1-.23.58,1.54,1.54,0,0,1-.44.44,1.32,1.32,0,0,1-.68.17,1.28,1.28,0,0,1-.67-.17,1.42,1.42,0,0,1-.44-.44,2,2,0,0,1-.24-.58A2.66,2.66,0,0,1,89.78,57.05Zm.52,0a2.12,2.12,0,0,0,0,.42,1.21,1.21,0,0,0,.14.43.92.92,0,0,0,.27.32.73.73,0,0,0,.45.13.68.68,0,0,0,.44-.13,1,1,0,0,0,.29-.32,1.45,1.45,0,0,0,.14-.43,2.12,2.12,0,0,0,0-.42,3.29,3.29,0,0,0,0-.42,1.5,1.5,0,0,0-.15-.42,1,1,0,0,0-.28-.33.74.74,0,0,0-.44-.13.77.77,0,0,0-.45.13,1,1,0,0,0-.28.33,1.48,1.48,0,0,0-.14.42A3.19,3.19,0,0,0,90.3,57.05Zm3.83,2.72V54.43h.64v5.34Z" transform="translate(-13 -27)"/><path class="cls-2" d="M97.38,56a1.19,1.19,0,0,1,.12-.54,1.13,1.13,0,0,1,.33-.39,1.32,1.32,0,0,1,.49-.24,2.21,2.21,0,0,1,.59-.08,1.74,1.74,0,0,1,.61.1,1.59,1.59,0,0,1,.48.26,1.35,1.35,0,0,1,.32.4,1,1,0,0,1,.12.49,1.12,1.12,0,0,1-.12.53,1.07,1.07,0,0,1-.3.36l.07,1.33h1.58v.51H96.2v-.59h1.66V56.93h0a1.23,1.23,0,0,1-.33-.39A1.1,1.1,0,0,1,97.38,56Zm.1,4.38a1.14,1.14,0,0,1,.1-.45,1.17,1.17,0,0,1,.3-.37,1.33,1.33,0,0,1,.49-.25,2.29,2.29,0,0,1,.68-.09,2.26,2.26,0,0,1,.67.09,1.33,1.33,0,0,1,.49.25,1,1,0,0,1,.3.37,1,1,0,0,1,.1.45,1,1,0,0,1-.1.46,1,1,0,0,1-.3.37,1.5,1.5,0,0,1-.49.25,2.26,2.26,0,0,1-.67.09,2.29,2.29,0,0,1-.68-.09,1.5,1.5,0,0,1-.49-.25,1.17,1.17,0,0,1-.3-.37A1.19,1.19,0,0,1,97.48,60.4ZM99.94,56a.72.72,0,0,0-.07-.28,1,1,0,0,0-.2-.25.87.87,0,0,0-.31-.18,1,1,0,0,0-.39-.07,1.45,1.45,0,0,0-.49.07,1,1,0,0,0-.34.17.76.76,0,0,0-.2.24.66.66,0,0,0-.06.27.65.65,0,0,0,.08.35.66.66,0,0,0,.23.24.94.94,0,0,0,.34.14,1.84,1.84,0,0,0,.41.05,1.51,1.51,0,0,0,.37-.06,1.35,1.35,0,0,0,.32-.15.87.87,0,0,0,.23-.24A.61.61,0,0,0,99.94,56Zm.12,4.38a.58.58,0,0,0-.27-.49,1.18,1.18,0,0,0-.74-.2,1.21,1.21,0,0,0-.76.2.59.59,0,0,0-.26.49.64.64,0,0,0,.26.5,1.27,1.27,0,0,0,.76.2,1.25,1.25,0,0,0,.74-.2A.62.62,0,0,0,100.06,60.4Zm-.55-3.22a1.45,1.45,0,0,1-.3.06h-.59a1,1,0,0,1-.26-.06l0,1h1.13Z" transform="translate(-13 -27)"/><path class="cls-2" d="M105.77,56.47l0,.47-3.39-.26v-.49l1.44.1V54.93l.53,0v1.39Zm-.57,2.41a1.39,1.39,0,0,1-.15.5,1.49,1.49,0,0,1-.28.38,1.16,1.16,0,0,1-.39.26,1.18,1.18,0,0,1-.46.09,1.33,1.33,0,0,1-.6-.13,1.35,1.35,0,0,1-.41-.33,1.22,1.22,0,0,1-.22-.44,1.51,1.51,0,0,1-.07-.46,1.63,1.63,0,0,1,.08-.55,1.21,1.21,0,0,1,.25-.46,1.05,1.05,0,0,1,.4-.32,1.37,1.37,0,0,1,1.51.26,1.44,1.44,0,0,1,.35,1v.1A.28.28,0,0,1,105.2,58.88Zm-2-.39a.9.9,0,0,0,0,.25,1.5,1.5,0,0,0,0,.29.82.82,0,0,0,.38.49.8.8,0,0,0,.36.08.68.68,0,0,0,.31-.08.75.75,0,0,0,.26-.21.87.87,0,0,0,.17-.3,1,1,0,0,0,.06-.36.91.91,0,0,0-.2-.6.67.67,0,0,0-.57-.25.76.76,0,0,0-.51.19A1,1,0,0,0,103.16,58.49ZM107,60.72l-.58,0V55.07h.64v2.4h1.19V58H107Z" transform="translate(-13 -27)"/><path class="cls-2" d="M109,57.63A3.25,3.25,0,0,1,109,57a1.8,1.8,0,0,1,.23-.58,1.32,1.32,0,0,1,.43-.45,1.23,1.23,0,0,1,.7-.18,1.16,1.16,0,0,1,.68.19,1.45,1.45,0,0,1,.44.45l2.31,0V55.22h.49v5.33h-.42V58.61H111.6a1.54,1.54,0,0,1-.45.57,1.2,1.2,0,0,1-.77.24,1.27,1.27,0,0,1-.68-.17,1.29,1.29,0,0,1-.44-.43,2,2,0,0,1-.24-.58A3.26,3.26,0,0,1,109,57.63Zm.52,0a2.12,2.12,0,0,0,0,.42,1.23,1.23,0,0,0,.14.42,1,1,0,0,0,.28.33.75.75,0,0,0,.45.13.74.74,0,0,0,.44-.13,1,1,0,0,0,.28-.33,1.23,1.23,0,0,0,.14-.42,2.23,2.23,0,0,0,0-.84,1.5,1.5,0,0,0-.15-.42,1,1,0,0,0-.27-.33.79.79,0,0,0-.44-.13.81.81,0,0,0-.46.13,1,1,0,0,0-.28.33,1.48,1.48,0,0,0-.14.42A3.19,3.19,0,0,0,109.47,57.63Zm2.24-.67c0,.11.05.23.07.34s0,.23,0,.33,0,.16,0,.23l0,.24,2.07,0V57Z" transform="translate(-13 -27)"/><path class="cls-2" d="M24.28,64.46V65H23.11v.94l1.58,1.63-.31.4-1.5-1.47-1.25,1.63-.4-.41,1.33-1.76V65H21.31v-.51Zm-.89,5.46a1,1,0,0,1,.1-.45,1,1,0,0,1,.3-.37,1.37,1.37,0,0,1,.48-.25,2.61,2.61,0,0,1,1.36,0,1.42,1.42,0,0,1,.49.25,1.17,1.17,0,0,1,.3.37,1.14,1.14,0,0,1,.1.45,1.19,1.19,0,0,1-.1.46,1.17,1.17,0,0,1-.3.37,1.42,1.42,0,0,1-.49.25,2.61,2.61,0,0,1-1.36,0,1.37,1.37,0,0,1-.48-.25,1,1,0,0,1-.3-.37A1,1,0,0,1,23.39,69.92Zm2.58,0a.58.58,0,0,0-.27-.49,1.26,1.26,0,0,0-.75-.2,1.24,1.24,0,0,0-.75.2.57.57,0,0,0-.26.49.6.6,0,0,0,.26.5,1.24,1.24,0,0,0,.75.2,1.26,1.26,0,0,0,.75-.2A.61.61,0,0,0,26,69.92Zm.55-5.72v4.11H26V66H24.14v-.5H26V64.21Z" transform="translate(-13 -27)"/><path class="cls-2" d="M30.72,64.46V65H29.55v.94l1.58,1.63-.32.4-1.5-1.47-1.25,1.63-.39-.41L29,65.92V65H27.75v-.51Zm2.47,6.69h-.77l.22-1.76H28.78v-.52h4.13l.28.33Zm-.24-7v4.11h-.5V66H30.58v-.5h1.84V64.21Z" transform="translate(-13 -27)"/><path class="cls-2" d="M36.8,66.45a.93.93,0,0,1,0-.23,2.5,2.5,0,0,1,.07-.26.9.9,0,0,1,.12-.24.69.69,0,0,1,.16-.18l-.73-.09.08-.52,1.5.16L38.11,64l.55,0-.08,1.16,1.28.15-.06.49-.63-.06a.83.83,0,0,1,.13.32,1.45,1.45,0,0,1,0,.35,1.71,1.71,0,0,1-.27,1,1,1,0,0,1-.71.41l0,1h1.42v.57H36.17v-.63h1.69l0-.94a1.27,1.27,0,0,1-.52-.16,1.06,1.06,0,0,1-.32-.31,1,1,0,0,1-.16-.37,1.28,1.28,0,0,1-.05-.38v-.08A.17.17,0,0,1,36.8,66.45Zm.54,0v.13a.73.73,0,0,0,.2.56.89.89,0,0,0,.59.18.58.58,0,0,0,.5-.24,1.09,1.09,0,0,0,.17-.63.86.86,0,0,0-.19-.61.67.67,0,0,0-.52-.2.73.73,0,0,0-.5.18A1,1,0,0,0,37.34,66.45Zm3.16,3.4v-5.5h.61v2.4h1v.51h-1v2.59Z" transform="translate(-13 -27)"/><path class="cls-2" d="M43.13,64.76h2.45v.5h1.76V64.17h.52v4.89h-.48V67.17H45.54V68H43.36l-.25-.29Zm1.93.52H43.64v2.09H45ZM45,70.71V68.79h.55v1.64h2.69v.49h-3Zm.61-5v.92h1.79v-.94Z" transform="translate(-13 -27)"/><path class="cls-2" d="M54.78,67.48h-5.5l0-.44h5.46Zm-4.48.75H54V70H50.55v.69h3.93V71H50.3L50,70.89V69.45h3.45v-.77H50.3Zm.22-3a1.14,1.14,0,0,1,.12-.52,1.19,1.19,0,0,1,.33-.38,1.78,1.78,0,0,1,.48-.23A2.25,2.25,0,0,1,52,64a1.85,1.85,0,0,1,.58.09,1.51,1.51,0,0,1,.47.25,1.44,1.44,0,0,1,.32.38,1,1,0,0,1,.12.48,1.11,1.11,0,0,1-.14.56,1.24,1.24,0,0,1-.34.38,1.3,1.3,0,0,1-.48.21,1.88,1.88,0,0,1-.53.07,2.35,2.35,0,0,1-.6-.08,1.57,1.57,0,0,1-.48-.25,1.18,1.18,0,0,1-.32-.38A1.06,1.06,0,0,1,50.52,65.23Zm2.5,0a.53.53,0,0,0-.08-.27.79.79,0,0,0-.21-.24.92.92,0,0,0-.31-.17,1.05,1.05,0,0,0-.4-.07,1.51,1.51,0,0,0-.47.09.8.8,0,0,0-.48.41.59.59,0,0,0,0,.25.59.59,0,0,0,.09.34.63.63,0,0,0,.23.23,1,1,0,0,0,.32.14A2.33,2.33,0,0,0,52,66a1.1,1.1,0,0,0,.37-.06,1,1,0,0,0,.31-.16.71.71,0,0,0,.22-.24A.52.52,0,0,0,53,65.23Z" transform="translate(-13 -27)"/><path class="cls-2" d="M59.22,66.92l-.33-.3V64.34H62v.51H59.39V66.4h2.78v.53H60.81v.88h2.44v.54H57.78v-.59H60.3v-.84ZM59.06,70a1,1,0,0,1,.1-.45,1,1,0,0,1,.3-.37,1.33,1.33,0,0,1,.49-.25,2.24,2.24,0,0,1,.68-.09,2.26,2.26,0,0,1,.67.09,1.33,1.33,0,0,1,.49.25,1,1,0,0,1,.3.37,1,1,0,0,1,.1.45,1,1,0,0,1-.1.46,1,1,0,0,1-.3.37,1.5,1.5,0,0,1-.49.25,2.26,2.26,0,0,1-.67.09,2.24,2.24,0,0,1-.68-.09,1.5,1.5,0,0,1-.49-.25,1,1,0,0,1-.3-.37A1,1,0,0,1,59.06,70Zm2.58,0a.58.58,0,0,0-.27-.49,1.18,1.18,0,0,0-.74-.2,1.21,1.21,0,0,0-.76.2.59.59,0,0,0-.26.49.64.64,0,0,0,.26.5,1.27,1.27,0,0,0,.76.2,1.25,1.25,0,0,0,.74-.2A.62.62,0,0,0,61.64,70Z" transform="translate(-13 -27)"/><path class="cls-2" d="M67,64.46V65H65.8v.94l1.58,1.63-.32.4-1.5-1.47-1.25,1.63-.39-.41,1.33-1.76V65H64v-.51Zm2.47,6.69h-.77l.22-1.76H65v-.52h4.13l.28.33Zm-.24-7v4.11h-.5V66H66.83v-.5h1.84V64.21Z" transform="translate(-13 -27)"/><path class="cls-2" d="M75.94,69.93H70.81v-.51h5.13Zm-4.21-3.15v-.09a1.62,1.62,0,0,1,.1-.54,1.34,1.34,0,0,1,.29-.45,1.47,1.47,0,0,1,.48-.31,1.9,1.9,0,0,1,.66-.11,2.27,2.27,0,0,1,.77.11,1.42,1.42,0,0,1,.54.31,1.14,1.14,0,0,1,.31.45,1.56,1.56,0,0,1,0,1.15,1.39,1.39,0,0,1-.36.44A1.47,1.47,0,0,1,74,68a2,2,0,0,1-.61.09,1.91,1.91,0,0,1-.57-.08,1.59,1.59,0,0,1-.52-.26,1.56,1.56,0,0,1-.4-.41A1.15,1.15,0,0,1,71.73,66.78Zm1.63-1h-.07a1,1,0,0,0-.76.27.92.92,0,0,0-.26.68.8.8,0,0,0,.09.39.86.86,0,0,0,.26.28,1.4,1.4,0,0,0,.37.17,2.14,2.14,0,0,0,.45,0,1.16,1.16,0,0,0,.42-.07,1.13,1.13,0,0,0,.32-.19,1,1,0,0,0,.21-.26.63.63,0,0,0,.08-.29,1,1,0,0,0-.29-.74A1.24,1.24,0,0,0,73.36,65.76Z" transform="translate(-13 -27)"/><path class="cls-2" d="M78.33,64.43h3.09v1.92H78.61v1.1h3.12v.42H80.12v1.52h2.44V70H77.09v-.64h2.52v-1.4H78.44l-.38-.3V65.85h2.83v-.93H78.33Z" transform="translate(-13 -27)"/><path class="cls-2" d="M88.16,68.64H85.55v-.57h5.5v.6H88.7v1.92h-.54Zm1.65-1.29h-.53V65.18H86.59l.07-.65H89.5l.33.47Z" transform="translate(-13 -27)"/><path class="cls-2" d="M92.05,66.45a1.65,1.65,0,0,1,.08-.45.9.9,0,0,1,.28-.44l-.68-.1L91.8,65l1.48.17.1-1.15.48,0-.08,1.15,1.27.14,0,.43-.66-.06a1.15,1.15,0,0,1,.19.41,2,2,0,0,1,0,.43,1.13,1.13,0,0,1-.11.54,1.08,1.08,0,0,1-.3.4,1.3,1.3,0,0,1-.41.24,1.35,1.35,0,0,1-.47.09,1.47,1.47,0,0,1-.61-.16,1.45,1.45,0,0,1-.39-.34,1.2,1.2,0,0,1-.2-.41,1.55,1.55,0,0,1-.06-.4A.31.31,0,0,1,92.05,66.45Zm.48,0s0,0,0,.06v0a1,1,0,0,0,0,.29,1.17,1.17,0,0,0,.15.27.88.88,0,0,0,.24.19.66.66,0,0,0,.32.07,1,1,0,0,0,.35-.06,1,1,0,0,0,.26-.17.73.73,0,0,0,.24-.55.9.9,0,0,0-.24-.69.89.89,0,0,0-.63-.23.66.66,0,0,0-.49.2A.94.94,0,0,0,92.53,66.42Zm1.55,4.29V68.79h.55v1.64h2.68v.49h-3Zm3.09-6.51v4.89h-.5v-1.7H95.28v-.5h1.37v-.68H95.27v-.5h1.37v-1.5Z" transform="translate(-13 -27)"/><path class="cls-2" d="M101.56,66.07l0,.47-3.39-.26v-.49l1.43.1V64.53l.53,0V66ZM101,68.48a1.94,1.94,0,0,1-.15.5,1.78,1.78,0,0,1-.28.38,1.27,1.27,0,0,1-.39.26,1.22,1.22,0,0,1-.46.09,1.41,1.41,0,0,1-.61-.13,1.44,1.44,0,0,1-.4-.33,1.42,1.42,0,0,1-.23-.44,1.9,1.9,0,0,1-.07-.46,1.63,1.63,0,0,1,.09-.55,1.31,1.31,0,0,1,.24-.47,1.27,1.27,0,0,1,.41-.31,1.37,1.37,0,0,1,1.51.26,1.44,1.44,0,0,1,.35,1v.1S101,68.45,101,68.48Zm-2-.39a.9.9,0,0,0,0,.25,1,1,0,0,0,.17.57,1,1,0,0,0,.25.21.74.74,0,0,0,.36.08.71.71,0,0,0,.31-.08.86.86,0,0,0,.26-.21.87.87,0,0,0,.17-.3,1,1,0,0,0,.06-.36,1,1,0,0,0-.2-.6.67.67,0,0,0-.57-.25.69.69,0,0,0-.51.19A1,1,0,0,0,99,68.09Zm3.88,2.23-.58,0V64.67h.64v2.4h1.19v.5h-1.25Z" transform="translate(-13 -27)"/><path class="cls-2" d="M110.34,68.1h-5.5l0-.43h5.45ZM106.2,71l-.34-.27V68.92h.48v1.5l3.55.08v.24a.82.82,0,0,1,0,.14V71a.07.07,0,0,1,0,0Zm.19-4.06-.37-.33V64.28h.53v2.11h2.67v.48Z" transform="translate(-13 -27)"/><path class="cls-2" d="M114.16,68.09v.51h-2.74l-.23-.29V65.12h2.62v.58h-2.08V68Zm-1-1.67h1.75V64.67h.54V68.6H115V66.92h-1.78Zm3-1.82h.53V69h-.53Z" transform="translate(-13 -27)"/><path class="cls-2" d="M123.23,66.75l0,.48h-3.61V66.6h.63l.26-2h-.76l.06-.54H123v.7h-.61V66.7Zm-2.17-2.08-.18,2h.93v-2Zm.72,3.86V68h2.77l.14,1.74-2.77.18v.79h3.64l0,.46h-4l-.26-.15.11-1.56h2.69v-1Zm3-4.46v3.52h-.56v-3.5Z" transform="translate(-13 -27)"/><path class="cls-2" d="M127.27,66.29a.13.13,0,0,1,0-.06v-.06a1.2,1.2,0,0,1,.11-.55,1.22,1.22,0,0,1,.31-.43,1.83,1.83,0,0,1,.5-.27,2.08,2.08,0,0,1,.63-.1,2.34,2.34,0,0,1,.79.12,1.53,1.53,0,0,1,.55.3,1.28,1.28,0,0,1,.32.45,1.35,1.35,0,0,1,.11.52,1.19,1.19,0,0,1-.16.64,1.53,1.53,0,0,1-.4.44l0,2h1.63v.54h-5.47V69.2H128l0-1.88a1.6,1.6,0,0,1-.46-.4A1.08,1.08,0,0,1,127.27,66.29Zm1.65-1a2,2,0,0,0-.42,0,1.33,1.33,0,0,0-.36.17.85.85,0,0,0-.33.7.7.7,0,0,0,.1.37.84.84,0,0,0,.27.26,1.22,1.22,0,0,0,.39.15,2.22,2.22,0,0,0,.45,0,1.25,1.25,0,0,0,.45-.08.91.91,0,0,0,.32-.19,1.07,1.07,0,0,0,.19-.28,1,1,0,0,0,.06-.33.73.73,0,0,0-.3-.63A1.4,1.4,0,0,0,128.92,65.31Zm.56,2.22a2.1,2.1,0,0,1-.48.06,2.35,2.35,0,0,1-.51-.06l0,1.72h1Z" transform="translate(-13 -27)"/><path class="cls-2" d="M132.73,66.68a1.66,1.66,0,0,1,.1-.46.81.81,0,0,1,.26-.38l-.87-.09.08-.49,1.67.17.09-1.06.52,0-.08,1.08,1.42.14,0,.5-.79-.07a.86.86,0,0,1,.18.37,2,2,0,0,1,0,.4,1.32,1.32,0,0,1-.13.49,1.6,1.6,0,0,1-.28.4,1.42,1.42,0,0,1-.38.26,1.07,1.07,0,0,1-.43.09,1.36,1.36,0,0,1-.71-.16,1.23,1.23,0,0,1-.41-.37,1.4,1.4,0,0,1-.19-.46A2.38,2.38,0,0,1,132.73,66.68Zm.5,0v.07a.86.86,0,0,0,.05.27,1.35,1.35,0,0,0,.15.26,1,1,0,0,0,.25.19.66.66,0,0,0,.32.07.71.71,0,0,0,.34-.07.8.8,0,0,0,.25-.18.92.92,0,0,0,.16-.27,1.06,1.06,0,0,0,.05-.31.75.75,0,0,0-.22-.56.8.8,0,0,0-.57-.21.75.75,0,0,0-.54.21A.82.82,0,0,0,133.23,66.68Zm1,4.19V69h.54v1.64h2.69v.48h-3Zm2.34-6.3.53.07v1.81h1.25V67h-1.25v2.23l-.56,0Z" transform="translate(-13 -27)"/><path class="cls-2" d="M24.39,77.69v.52H21.5l-.23-.3V74.72H24v.58H21.81v2.34ZM26,79.28h-.57V73.94H26v2.41h1.35v.51H26Z" transform="translate(-13 -27)"/><path class="cls-2" d="M27.75,75.88a2.35,2.35,0,0,1,.08-.6,1.27,1.27,0,0,1,.25-.49,1.14,1.14,0,0,1,.44-.33,1.38,1.38,0,0,1,.64-.13,1.11,1.11,0,0,1,.65.18,1.33,1.33,0,0,1,.43.42,2,2,0,0,1,.29.95,2.24,2.24,0,0,1-.06.48,1.62,1.62,0,0,1-.21.51,1.35,1.35,0,0,1-.42.4,1.53,1.53,0,0,1-1.36,0,1.22,1.22,0,0,1-.43-.38,1.48,1.48,0,0,1-.23-.51A2,2,0,0,1,27.75,75.88Zm.5,0a1.23,1.23,0,0,0,.07.44.87.87,0,0,0,.2.32.92.92,0,0,0,.62.3.75.75,0,0,0,.63-.31,1.27,1.27,0,0,0,.25-.82.94.94,0,0,0-.07-.37,1,1,0,0,0-.45-.53.88.88,0,0,0-.36-.1.69.69,0,0,0-.36.09.92.92,0,0,0-.28.24,1.06,1.06,0,0,0-.18.33A1.41,1.41,0,0,0,28.25,75.88Zm1.16,3.64a1.13,1.13,0,0,1,.09-.45,1.17,1.17,0,0,1,.3-.37,1.42,1.42,0,0,1,.49-.25,2.29,2.29,0,0,1,.68-.09,2.26,2.26,0,0,1,.67.09,1.47,1.47,0,0,1,.5.25,1,1,0,0,1,.29.37,1,1,0,0,1,.1.45,1,1,0,0,1-.1.46,1,1,0,0,1-.29.37,1.47,1.47,0,0,1-.5.25,2.26,2.26,0,0,1-.67.09,2.29,2.29,0,0,1-.68-.09,1.42,1.42,0,0,1-.49-.25,1.17,1.17,0,0,1-.3-.37A1.18,1.18,0,0,1,29.41,79.52Zm2.57,0a.59.59,0,0,0-.27-.49,1.21,1.21,0,0,0-.74-.2,1.27,1.27,0,0,0-.76.2.61.61,0,0,0-.26.49.63.63,0,0,0,.26.5,1.27,1.27,0,0,0,.76.2,1.21,1.21,0,0,0,.74-.2A.61.61,0,0,0,32,79.52Zm-.06-5.77h.53v1h1.22v.53H32.45v1h1.22v.53H32.44v1.11h-.55Z" transform="translate(-13 -27)"/><path class="cls-2" d="M34.48,76.28a1.66,1.66,0,0,1,.1-.46.81.81,0,0,1,.26-.38L34,75.35l.08-.49,1.67.17L35.81,74l.52,0-.08,1.08,1.42.14,0,.5-.79-.07A.91.91,0,0,1,37,76a2,2,0,0,1,0,.4,1.32,1.32,0,0,1-.13.49,1.6,1.6,0,0,1-.28.4,1.22,1.22,0,0,1-.38.26,1.07,1.07,0,0,1-.43.09,1.47,1.47,0,0,1-.71-.15,1.37,1.37,0,0,1-.41-.38,1.4,1.4,0,0,1-.19-.46A2.38,2.38,0,0,1,34.48,76.28Zm.5,0v.07a.86.86,0,0,0,.05.27,1.35,1.35,0,0,0,.15.26.79.79,0,0,0,.25.19.66.66,0,0,0,.32.07.71.71,0,0,0,.34-.07.67.67,0,0,0,.25-.18.92.92,0,0,0,.16-.27,1.06,1.06,0,0,0,0-.31.75.75,0,0,0-.22-.56.8.8,0,0,0-.57-.21.75.75,0,0,0-.54.21A.82.82,0,0,0,35,76.28Zm1,4.19V78.55h.54v1.64h2.69v.48h-3Zm2.34-6.3.53.07v1.81h1.25v.53H38.89v2.23l-.56,0Z" transform="translate(-13 -27)"/><path class="cls-2" d="M44.11,74H47.2V76H44.39v1.09h3.13v.42H45.9V79h2.44v.57H42.88v-.64h2.51V77.53H44.22l-.38-.31V75.46h2.83v-.94H44.11Z" transform="translate(-13 -27)"/><path class="cls-2" d="M52.16,74.38v.5H51.08v1l1.55,1.42-.32.41-1.5-1.27-1.25,1.43-.39-.41,1.33-1.56v-1H49.25v-.52Zm2.22,6.37H53.7L53.83,79H50v-.52h4.12l.29.33Zm-.11-6.94v4.1H53.7V73.8Z" transform="translate(-13 -27)"/><path class="cls-2" d="M61.22,77.08h-5.5l0-.44H61.2Zm-4.49.75h3.72v1.72H57v.69h3.94v.4H56.73l-.26-.15V79.05h3.45v-.77H56.73Zm.22-3a1.14,1.14,0,0,1,.12-.52,1.2,1.2,0,0,1,.34-.37,1.34,1.34,0,0,1,.48-.23,1.85,1.85,0,0,1,.58-.08,1.79,1.79,0,0,1,.57.09,1.57,1.57,0,0,1,.48.25,1.44,1.44,0,0,1,.32.38,1.13,1.13,0,0,1,.11.48,1.08,1.08,0,0,1-.13.56,1.24,1.24,0,0,1-.34.38A1.3,1.3,0,0,1,59,76a1.93,1.93,0,0,1-.53.07,2.29,2.29,0,0,1-.6-.08,1.57,1.57,0,0,1-.48-.25,1.1,1.1,0,0,1-.44-.89Zm2.5,0a.54.54,0,0,0-.07-.27.79.79,0,0,0-.21-.24,1,1,0,0,0-.31-.17,1.1,1.1,0,0,0-.41-.07,1.5,1.5,0,0,0-.46.09.73.73,0,0,0-.31.18.6.6,0,0,0-.17.23.61.61,0,0,0-.06.25.59.59,0,0,0,.09.34.72.72,0,0,0,.23.23,1.22,1.22,0,0,0,.33.14,1.5,1.5,0,0,0,.37,0,1.15,1.15,0,0,0,.37-.06,1,1,0,0,0,.31-.16.83.83,0,0,0,.22-.24A.51.51,0,0,0,59.45,74.83Z" transform="translate(-13 -27)"/><path class="cls-2" d="M63.92,77l1.31-2.12V73.64l.47,0,.08,1.22,1.64,1.69-.28.4-1.56-1.56-1.22,2Zm2.44,1.1v-.49h2.77l.14,1.74-2.77.18v.79h3.42l0,.46H66.17l-.26-.15L66,79.1H68.7v-1Zm3-4.67v3.85l-.5-.12v-2h-2v-.51h2V73.47Z" transform="translate(-13 -27)"/><path class="cls-2" d="M71.84,78.85l-.48-.13L72.44,75h-2v-.6h2.33l.21.49-.13.43h1.3v-.89h.54v4.44h-.51V77.36H72.28Zm.89-3-.29,1h1.78v-1Zm2.82-1.6h.53V79h-.53Z" transform="translate(-13 -27)"/><path class="cls-2" d="M77.2,75.74a1.59,1.59,0,0,1,.1-.46.77.77,0,0,1,.26-.39l-.87-.09.08-.49,1.67.18.09-1.07.52,0L79,74.55l1.42.14,0,.5-.78-.06a.75.75,0,0,1,.17.36,1.51,1.51,0,0,1,0,.4,1.42,1.42,0,0,1-.41.89A1.22,1.22,0,0,1,79,77a1.07,1.07,0,0,1-.43.09,1.47,1.47,0,0,1-.71-.15,1.26,1.26,0,0,1-.41-.38,1.15,1.15,0,0,1-.19-.46A2.28,2.28,0,0,1,77.2,75.74Zm.5,0v.07a.65.65,0,0,0,0,.27,1.28,1.28,0,0,0,.15.25.88.88,0,0,0,.24.19.73.73,0,0,0,.33.08.89.89,0,0,0,.34-.07.69.69,0,0,0,.25-.19.61.61,0,0,0,.15-.26.91.91,0,0,0,.06-.32.77.77,0,0,0-.22-.56.8.8,0,0,0-.57-.21.73.73,0,0,0-.54.21A.84.84,0,0,0,77.7,75.74ZM79,78.13v-.52h2.77l.14,1.77-2.73.18v.79H82.7l0,.46H78.8l-.27-.15.11-1.6h2.69v-.93Zm2.07-4.32h.53v1.3H82.8v.53H81.56v1.55H81Z" transform="translate(-13 -27)"/><path class="cls-2" d="M88.16,78.24H85.55v-.57h5.5v.6H88.7v1.92h-.54ZM86.39,76.5,88,74.72V73.49h.57v1.23l1.65,1.52-.28.4-1.62-1.43L86.8,76.88Z" transform="translate(-13 -27)"/><path class="cls-2" d="M94.08,75.91a2,2,0,0,1,.08-.6,1.27,1.27,0,0,1,.25-.49,1.18,1.18,0,0,1,.43-.33,1.41,1.41,0,0,1,.64-.13,1.2,1.2,0,0,1,.66.17,1.41,1.41,0,0,1,.43.41,1.64,1.64,0,0,1,.22.51,1.66,1.66,0,0,1,.07.46,2.23,2.23,0,0,1-.06.47,1.62,1.62,0,0,1-.21.51,1.24,1.24,0,0,1-.42.4,1.55,1.55,0,0,1-1.37,0,1.4,1.4,0,0,1-.42-.38,1.52,1.52,0,0,1-.23-.5A1.91,1.91,0,0,1,94.08,75.91Zm.5,0a1.2,1.2,0,0,0,.07.44,1,1,0,0,0,.19.32,1,1,0,0,0,.29.21.69.69,0,0,0,.34.09.86.86,0,0,0,.36-.08.89.89,0,0,0,.28-.23,1.14,1.14,0,0,0,.17-.33,1.42,1.42,0,0,0,.06-.42,1.29,1.29,0,0,0-.24-.75.78.78,0,0,0-.63-.31.69.69,0,0,0-.36.09.89.89,0,0,0-.28.23,1,1,0,0,0-.18.34A1.29,1.29,0,0,0,94.58,75.91Zm.48,4.73-.34-.39L95.94,79v-.86h.53V79l1,.7.49-.54.06-.89h.5v.87l1.23,1.24-.34.36-1.19-1.16L97,80.85l-.33-.36.39-.44-.84-.61ZM99,73.81v4.1h-.56V73.8Z" transform="translate(-13 -27)"/><path class="cls-2" d="M105.94,77.71h-5.5l0-.44h5.45Zm-4.67.64v0h.5l.06.85h3l-.08-.86.49,0,.19,2.48h-3.63l-.33-.15Zm.15-2.24,1.49-1.69V73.36h.53v1.06l1.62,1.47-.29.41-1.57-1.42-1.39,1.58Zm3.44,4.22,0-.78h-2.93v.78Z" transform="translate(-13 -27)"/><path class="cls-2" d="M110.28,77.38v.5h-3.09l-.22-.33v-3.2h.53v3Zm1,1.59V73.63h.64V79Z" transform="translate(-13 -27)"/><path class="cls-2" d="M116.2,77.69v.52h-2.89l-.23-.3V74.72h2.7v.58h-2.15v2.34Zm1.57,1.59h-.58V73.94h.61v2.41h1.34v.51h-1.37Z" transform="translate(-13 -27)"/><path class="cls-2" d="M120.55,78.64l-.42.58-.66-.67.44-.53Z" transform="translate(-13 -27)"/><path class="cls-2" d="M23.06,88.91v-2H21.38l0-.51H23V85.13l.45,0v1.33h1.9l.07.48H23.47v2Z" transform="translate(-13 -27)"/><path class="cls-2" d="M29.56,84.59h-1.7v-.46h3.95v.39H30.05l.42,4.5-.5,0Z" transform="translate(-13 -27)"/><path class="cls-2" d="M33.58,88.52l-1.36-2.36.42-.32,1.15,2.07.76-2.25.43.24-1.53,4.5L33,90.13Z" transform="translate(-13 -27)"/><path class="cls-2" d="M38.16,87.15v.16a1.74,1.74,0,0,1-.14.74,1.46,1.46,0,0,1-.33.48,1.12,1.12,0,0,1-.44.24,1.56,1.56,0,0,1-.46.07,1.78,1.78,0,0,1-.47-.06.87.87,0,0,1-.32-.15l.06,1.75-.48.05V86.18l.05-.36a4.36,4.36,0,0,1,1-.13,1.58,1.58,0,0,1,1.11.36A1.52,1.52,0,0,1,38.16,87.15Zm-2.24-.78,0,1.54A.26.26,0,0,0,36,88a.82.82,0,0,0,.19.1,1.07,1.07,0,0,0,.27.09,1.53,1.53,0,0,0,.3,0,.87.87,0,0,0,.31,0,.65.65,0,0,0,.27-.17,1,1,0,0,0,.2-.34,1.54,1.54,0,0,0,.08-.52,1,1,0,0,0-.09-.43.81.81,0,0,0-.25-.3,1,1,0,0,0-.34-.18,1.32,1.32,0,0,0-.39-.06,1.49,1.49,0,0,0-.36,0A1,1,0,0,0,35.92,86.37Z" transform="translate(-13 -27)"/><path class="cls-2" d="M38.58,87.4a1.87,1.87,0,0,1,.12-.72,1.3,1.3,0,0,1,.32-.47,1.1,1.1,0,0,1,.43-.25,1.42,1.42,0,0,1,.45-.08,1.64,1.64,0,0,1,.56.09,1,1,0,0,1,.43.3,1.66,1.66,0,0,1,.27.55,3.37,3.37,0,0,1,.09.84l-2.17.22a.77.77,0,0,0,.12.37.72.72,0,0,0,.25.24,1,1,0,0,0,.32.14,2,2,0,0,0,.35,0,1.83,1.83,0,0,0,.57-.08,1.14,1.14,0,0,0,.4-.21l.14.37a.6.6,0,0,1-.16.16,1.26,1.26,0,0,1-.26.14,2.62,2.62,0,0,1-.33.09,2.34,2.34,0,0,1-.38,0,1.79,1.79,0,0,1-.55-.08,1.44,1.44,0,0,1-.49-.29,1.63,1.63,0,0,1-.35-.54A2.34,2.34,0,0,1,38.58,87.4Zm.45,0,1.72-.18a.94.94,0,0,0-.2-.62.87.87,0,0,0-.66-.23.93.93,0,0,0-.38.1,1.09,1.09,0,0,0-.27.21.92.92,0,0,0-.16.29,1,1,0,0,0-.06.34S39,87.39,39,87.41Z" transform="translate(-13 -27)"/><path class="cls-2" d="M44.63,84.29l-.22.47a.73.73,0,0,0-.15-.11l-.26-.1-.34-.09a2.07,2.07,0,0,0-.35,0,1.66,1.66,0,0,0-.32,0,1.11,1.11,0,0,0-.27.12.46.46,0,0,0-.18.21.63.63,0,0,0-.07.32.8.8,0,0,0,.19.5,1.24,1.24,0,0,0,.59.38,3.74,3.74,0,0,1,.81.43,1.88,1.88,0,0,1,.44.46,1.37,1.37,0,0,1,.18.44,2,2,0,0,1,0,.41,1.33,1.33,0,0,1-.42,1,1.63,1.63,0,0,1-1.15.36,4.39,4.39,0,0,1-.69-.06c-.24,0-.51-.12-.8-.21l.17-.55a4,4,0,0,0,.6.18,3.71,3.71,0,0,0,.73.08,1.61,1.61,0,0,0,.39,0,.82.82,0,0,0,.33-.13.72.72,0,0,0,.23-.23.84.84,0,0,0,.08-.37,1.07,1.07,0,0,0-.18-.6,1.28,1.28,0,0,0-.42-.38,2.7,2.7,0,0,0-.54-.26,3,3,0,0,1-.53-.29,1.34,1.34,0,0,1-.41-.41,1.2,1.2,0,0,1-.16-.66,1.35,1.35,0,0,1,.1-.57.84.84,0,0,1,.28-.38,1.08,1.08,0,0,1,.43-.21,1.86,1.86,0,0,1,.54-.07A2.46,2.46,0,0,1,44,84,2,2,0,0,1,44.63,84.29Z" transform="translate(-13 -27)"/><path class="cls-2" d="M47.84,86.15l-.14.5a1.37,1.37,0,0,0-.48-.3,1.32,1.32,0,0,0-.51-.1,1.09,1.09,0,0,0-.4.07.86.86,0,0,0-.33.23,1.11,1.11,0,0,0-.23.36,1.59,1.59,0,0,0-.08.5,1.55,1.55,0,0,0,.09.57,1,1,0,0,0,.24.36.92.92,0,0,0,.34.21,1.32,1.32,0,0,0,.39.06,1.53,1.53,0,0,0,.36-.07,1.29,1.29,0,0,0,.32-.19,1.09,1.09,0,0,0,.23-.29.94.94,0,0,0,.11-.38l.44.22a1.21,1.21,0,0,1-.15.55,1.23,1.23,0,0,1-.33.39,1.37,1.37,0,0,1-.45.23,1.89,1.89,0,0,1-.53.08,1.56,1.56,0,0,1-.57-.11,1.36,1.36,0,0,1-.5-.31,1.5,1.5,0,0,1-.36-.54,2.15,2.15,0,0,1-.13-.76,2.11,2.11,0,0,1,.11-.68,1.65,1.65,0,0,1,.31-.53,1.28,1.28,0,0,1,.46-.34,1.31,1.31,0,0,1,.59-.13,1.71,1.71,0,0,1,.57.1A2.26,2.26,0,0,1,47.84,86.15Z" transform="translate(-13 -27)"/><path class="cls-2" d="M49,89.18l-.27-3.44.48-.06.11,1.52L51,86.07l.21.44-1.81,1.31v1.31Z" transform="translate(-13 -27)"/><path class="cls-2" d="M52.5,85.52l-.55.16-.5-1.19.55-.14ZM51.78,89V86.16h.55v2.89Z" transform="translate(-13 -27)"/><path class="cls-2" d="M55.78,87.15v.16a1.75,1.75,0,0,1-.13.74,1.46,1.46,0,0,1-.33.48,1.19,1.19,0,0,1-.44.24,1.62,1.62,0,0,1-.47.07,1.7,1.7,0,0,1-.46-.06.87.87,0,0,1-.32-.15l.06,1.75-.49.05V86.18l0-.36a4.49,4.49,0,0,1,1-.13,1.56,1.56,0,0,1,1.11.36A1.52,1.52,0,0,1,55.78,87.15Zm-2.23-.78,0,1.54s0,.06.08.1a.92.92,0,0,0,.2.1,1.07,1.07,0,0,0,.27.09,1.45,1.45,0,0,0,.3,0,.79.79,0,0,0,.3,0A.65.65,0,0,0,55,88a1,1,0,0,0,.2-.34,1.54,1.54,0,0,0,.08-.52,1,1,0,0,0-.09-.43.89.89,0,0,0-.24-.3,1.11,1.11,0,0,0-.34-.18,1.31,1.31,0,0,0-.75,0A.87.87,0,0,0,53.55,86.37Z" transform="translate(-13 -27)"/><path class="cls-2" d="M56.84,88.84V86.47h-.79l0-.57H57V84.3h.53v1.63h1.29v.56H57.43v2l1.18-.22.08.54-1.56.32Z" transform="translate(-13 -27)"/><path class="cls-2" d="M64.86,86.84h-5.5l0-.44h5.45Zm-4.48.73h3.71V89.3H60.63V90h3.93v.41H60.38l-.27-.16V88.8h3.45V88H60.38Zm.21-4.73h3.16v1.67h-3v.73h3.29v.46H60.61l-.38-.29V84.05h3v-.73H60.61Z" transform="translate(-13 -27)"/><path class="cls-2" d="M70.28,87h3v.54H67.86V87h1.89V85.51h.47Zm1.83-.6h-.5v-2H69l.06-.6H71.8l.33.41Zm-3,2.79a1,1,0,0,1,.1-.45,1,1,0,0,1,.3-.37,1.37,1.37,0,0,1,.48-.25,2.61,2.61,0,0,1,1.36,0,1.42,1.42,0,0,1,.49.25,1.17,1.17,0,0,1,.3.37,1.14,1.14,0,0,1,.1.45,1.19,1.19,0,0,1-.1.46,1.17,1.17,0,0,1-.3.37,1.61,1.61,0,0,1-.49.25,2.61,2.61,0,0,1-1.36,0,1.55,1.55,0,0,1-.48-.25,1,1,0,0,1-.3-.37A1,1,0,0,1,69.14,89.2Zm2.58,0a.58.58,0,0,0-.27-.49,1.19,1.19,0,0,0-.75-.2,1.18,1.18,0,0,0-.75.2.57.57,0,0,0-.26.49.61.61,0,0,0,.26.5,1.24,1.24,0,0,0,.75.2,1.26,1.26,0,0,0,.75-.2A.62.62,0,0,0,71.72,89.2Z" transform="translate(-13 -27)"/><path class="cls-2" d="M76.89,88H74.28v-.57h5.5V88H77.44v1.78h-.55ZM75.17,83.4v-.06h.52l.09,1.23H78l-.07-1.25.51,0v3.23H75.7l-.34-.17ZM78.06,86V85H75.8L75.88,86Z" transform="translate(-13 -27)"/><path class="cls-2" d="M85.84,87.13v1a1.61,1.61,0,0,1,1,.39,1,1,0,0,1,.34.76,1.15,1.15,0,0,1-.1.46,1.07,1.07,0,0,1-.3.37,1.42,1.42,0,0,1-.49.25,2.61,2.61,0,0,1-1.36,0,1.37,1.37,0,0,1-.48-.25.88.88,0,0,1-.3-.37,1,1,0,0,1-.1-.46,1,1,0,0,1,.31-.74,1.49,1.49,0,0,1,.94-.4v-1H82.73l0-.5h5.45v.44Zm-2.21-1.45,1.59-1.36,0-.62H83.73v-.47h3.46v.47H85.81l0,.64,1.57,1.25L87,86,85.5,84.76,84,86.05Zm3,3.56a.61.61,0,0,0-.27-.49,1.26,1.26,0,0,0-.75-.2,1.24,1.24,0,0,0-.75.2.62.62,0,0,0-.26.49.61.61,0,0,0,.26.5,1.18,1.18,0,0,0,.75.21,1.19,1.19,0,0,0,.75-.21A.6.6,0,0,0,86.61,89.24Z" transform="translate(-13 -27)"/><path class="cls-2" d="M89.25,85.51a2.35,2.35,0,0,1,.08-.6,1.27,1.27,0,0,1,.25-.49,1.14,1.14,0,0,1,.44-.33,1.38,1.38,0,0,1,.64-.13,1.24,1.24,0,0,1,.66.17,1.49,1.49,0,0,1,.42.41,1.64,1.64,0,0,1,.22.51,1.66,1.66,0,0,1,.07.46A2.23,2.23,0,0,1,92,86a1.62,1.62,0,0,1-.21.51,1.24,1.24,0,0,1-.42.4,1.32,1.32,0,0,1-.7.16,1.43,1.43,0,0,1-.66-.14,1.32,1.32,0,0,1-.43-.38,1.52,1.52,0,0,1-.23-.5A2,2,0,0,1,89.25,85.51Zm.5,0a1.23,1.23,0,0,0,.07.44.87.87,0,0,0,.2.32.83.83,0,0,0,.28.21.69.69,0,0,0,.34.09.86.86,0,0,0,.36-.08.89.89,0,0,0,.28-.23,1.14,1.14,0,0,0,.17-.33,1.16,1.16,0,0,0,.07-.42,1.37,1.37,0,0,0-.25-.75.78.78,0,0,0-.63-.31.69.69,0,0,0-.36.09.77.77,0,0,0-.28.23,1,1,0,0,0-.18.34A1.29,1.29,0,0,0,89.75,85.51Zm.45,2.59v0h.52v.66h2.91v-.68l.5,0v2.33H90.59l-.32-.15Zm3.47,1.83v-.8H90.75v.8Zm.49-6.52v4.1h-.57V83.4Z" transform="translate(-13 -27)"/><path class="cls-2" d="M99,87v.5h-3.1l-.22-.33V84h.53v3Zm1,1.59V83.23h.64v5.34Z" transform="translate(-13 -27)"/><path class="cls-2" d="M104.94,87.29v.51h-2.89l-.24-.29V84.32h2.71v.58h-2.16v2.34Zm1.56,1.59h-.58V83.54h.61V86h1.35v.51H106.5Z" transform="translate(-13 -27)"/><path class="cls-2" d="M109.28,88.24l-.42.58-.66-.67.44-.53Z" transform="translate(-13 -27)"/></svg>