<svg id="레이어_1" data-name="레이어 1" xmlns="http://www.w3.org/2000/svg" viewBox="0 0 92 42"><defs><style>.cls-1{fill:none;stroke:#606060;stroke-miterlimit:10;stroke-width:2px;}.cls-2{fill:#606060;}</style></defs><title>KOR</title><rect class="cls-1" x="1" y="1" width="90" height="40" rx="12"/><path class="cls-2" d="M90.82,127a.89.89,0,0,1,0,.84,1.19,1.19,0,0,1-.47.67l-.31.24a1.11,1.11,0,0,1-.31.15A1.16,1.16,0,0,1,89,129a.81.81,0,0,1-.31,0l-.28-.14-.29-.18-.29-.21-.31-.26a1.18,1.18,0,0,1-.25-.25,3.32,3.32,0,0,1-.26-.28,1.79,1.79,0,0,0-.22-.25l-.34-.36-5.37-5.63.08,5.63v.25a2.32,2.32,0,0,1,0,.24l-.06.26a4.56,4.56,0,0,1-.2.65.84.84,0,0,1-.15.28l-.21.22a1.17,1.17,0,0,1-.73.31,2,2,0,0,1-.77.1,2.48,2.48,0,0,1-.71-.21,1.56,1.56,0,0,1-.51-.56.31.31,0,0,0-.08-.14,1,1,0,0,0-.06-.2,1.1,1.1,0,0,1-.17-.56c0-.11,0-.21,0-.31s0-.19,0-.31a.83.83,0,0,1,0-.22v-.22a1.29,1.29,0,0,0,0-.24v-.24l0-2.21,0-4.12c0-1.19,0-2.48-.08-3.86,0-.67,0-1.27,0-1.79s0-1.11,0-1.77v-.11a3.21,3.21,0,0,0,.06-.6c0-.2,0-.39,0-.58a2.73,2.73,0,0,1,.26-1.12,1.34,1.34,0,0,1,.58-.67,1.46,1.46,0,0,1,.44-.18l.46-.1a2.34,2.34,0,0,1,.38,0l.35.06a1.36,1.36,0,0,1,.67.3,1,1,0,0,1,.15.2,1.22,1.22,0,0,1,.13.28,1.72,1.72,0,0,1,.2.64c0,.12,0,.23,0,.34s0,.23,0,.36v1.15l0,3.42c.3-.26.59-.53.88-.81s.58-.58.86-.9l1.49-1.53,1.5-1.47.09-.08.46-.43.46-.41a2.26,2.26,0,0,1,1-.67,1.36,1.36,0,0,1,.92-.2,2.07,2.07,0,0,1,.46.11,1.86,1.86,0,0,1,.41.23,3,3,0,0,0,.28.24.69.69,0,0,1,.22.23.89.89,0,0,1,.28.59,1.27,1.27,0,0,1-.11.56l-.17.28a1.73,1.73,0,0,1-.19.28l-.26.31a2.1,2.1,0,0,1-.25.28,1.42,1.42,0,0,1-.24.25,2.73,2.73,0,0,0-.23.25l-.37.37-5.23,5.35.88.88.88.89.78.82.62.63c.5.52,1,1,1.46,1.55s.92,1,1.37,1.55l.08.09a6,6,0,0,1,.42.46c.13.16.26.31.37.46A2.77,2.77,0,0,1,90.82,127Z" transform="translate(-54.5 -98.5)"/><path class="cls-2" d="M96.76,109.86a8.52,8.52,0,0,1,3.4-.61,6,6,0,0,1,2.73.77,6.42,6.42,0,0,1,2.06,1.83,10.46,10.46,0,0,1,1.39,2.58,12.33,12.33,0,0,1,.64,2.24,15.56,15.56,0,0,1,.27,2.33,15.78,15.78,0,0,1-.09,2.29,12.66,12.66,0,0,1-.4,2.07,11.44,11.44,0,0,1-.39,1.17,10.73,10.73,0,0,1-.54,1.07,6,6,0,0,1-1.8,2,7.14,7.14,0,0,1-2.43,1.06,7,7,0,0,1-1.84.21,8,8,0,0,1-1.88-.25,7.75,7.75,0,0,1-1.78-.7,7,7,0,0,1-1.55-1.16,7.12,7.12,0,0,1-1.43-2,11.54,11.54,0,0,1-.87-2.32,14.7,14.7,0,0,1-.39-2.45,15.35,15.35,0,0,1,0-2.35,12.21,12.21,0,0,1,.41-2.22,9.62,9.62,0,0,1,.93-2.26,9.06,9.06,0,0,1,1.5-2A5.85,5.85,0,0,1,96.76,109.86Zm6.55,12a10.28,10.28,0,0,0,.28-3,11.19,11.19,0,0,0-.53-3.11,6.45,6.45,0,0,0-.77-1.58,3.29,3.29,0,0,0-1.09-1,2.92,2.92,0,0,0-1.47-.37,4.33,4.33,0,0,0-1.88.51,3.05,3.05,0,0,0-1,.84,4.45,4.45,0,0,0-.7,1.2,9.43,9.43,0,0,0-.42,1.4,9,9,0,0,0-.18,1.4,12.85,12.85,0,0,0,0,1.53,10.75,10.75,0,0,0,.18,1.59,8.94,8.94,0,0,0,.44,1.52,4.48,4.48,0,0,0,.75,1.27,3.79,3.79,0,0,0,1.7,1.16,3.38,3.38,0,0,0,4.27-1.94A5.26,5.26,0,0,0,103.31,121.85Z" transform="translate(-54.5 -98.5)"/><path class="cls-2" d="M124,127.78a1.31,1.31,0,0,1-.06.53.82.82,0,0,1-.15.28,2.66,2.66,0,0,1-.24.23,4,4,0,0,1-.62.31l-.43.09a.94.94,0,0,1-.44,0,1.23,1.23,0,0,1-.78-.34,3.69,3.69,0,0,1-.78-.86c-.1-.15-.2-.32-.31-.51a5.49,5.49,0,0,1-.31-.59l-3.11-5.9h-.45l-.44,0a7,7,0,0,1-1.11,0,9.73,9.73,0,0,0-1.08,0h-.53v5.07c0,.15,0,.29,0,.42s0,.27,0,.42,0,.21,0,.36,0,.29,0,.42a1.87,1.87,0,0,1-.26.63,1.63,1.63,0,0,1-.53.55,1.89,1.89,0,0,1-1.43.19,2.44,2.44,0,0,1-.7-.28.65.65,0,0,1-.19-.21,1.3,1.3,0,0,1-.14-.26,2.64,2.64,0,0,1-.1-.3,2.47,2.47,0,0,0-.1-.29,2.07,2.07,0,0,1-.08-.53V111.37c0-.11,0-.22,0-.35s0-.23,0-.32a1.62,1.62,0,0,1,.2-.61.8.8,0,0,1,.28-.48,1.32,1.32,0,0,1,.52-.29,2.64,2.64,0,0,1,1-.1l2.49,0c.82,0,1.64,0,2.47,0,.54,0,1.11.1,1.72.18a7.48,7.48,0,0,1,1.69.44q.51.19.93.39a5.45,5.45,0,0,1,.84.59,5.87,5.87,0,0,1,1.48,2.15,6.73,6.73,0,0,1,.5,2.55,5.47,5.47,0,0,1-.71,2.77,4.35,4.35,0,0,1-2.28,1.88.26.26,0,0,1-.16.07l-.15,0,2.58,5.18.25.45c0,.07.08.16.14.25l.14.28a3,3,0,0,1,.15.31,3,3,0,0,0,.16.31C123.89,127.4,123.94,127.61,124,127.78Zm-7-10a2.64,2.64,0,0,0,1-.18,2.94,2.94,0,0,0,.84-.49,2.85,2.85,0,0,0,.63-.71,1.86,1.86,0,0,0,.28-.88,2.27,2.27,0,0,0-.73-2.09,3.61,3.61,0,0,0-2.21-.74c-.54,0-1.13-.06-1.78-.06h-1.83c0,.77,0,1.55,0,2.34s0,1.73,0,2.81Z" transform="translate(-54.5 -98.5)"/></svg>