<svg id="레이어_1" data-name="레이어 1" xmlns="http://www.w3.org/2000/svg" viewBox="0 0 180 55"><defs><style>.cls-1{fill:#9cc3d5;}.cls-2{fill:#fcf6f5;stroke:#fcf6f5;stroke-miterlimit:10;}.cls-3{fill:#ffda67;}</style></defs><title>lightMode</title><rect class="cls-1" width="180" height="55" rx="13.37"/><path class="cls-2" d="M68.91,175.11v-15h1.78V174.5h9.14v1.82h-9.9Z" transform="translate(-10 -140)"/><path class="cls-2" d="M84.3,165.1l-1.78.51-1.62-3.86,1.77-.46ZM82,176.48v-9.3h1.78v9.4Z" transform="translate(-10 -140)"/><path class="cls-2" d="M93.36,181.2H85.54v-2h6.91l1.06-.92-.1-4.51a4.3,4.3,0,0,1-1.83,1.41,6,6,0,0,1-2.38.49,3.55,3.55,0,0,1-2.6-1,3.91,3.91,0,0,1-1-2.94,4.63,4.63,0,0,1,.52-2.17,5.61,5.61,0,0,1,1.38-1.72,6.72,6.72,0,0,1,1.94-1.13,6.29,6.29,0,0,1,2.23-.41,4.09,4.09,0,0,1,2.19.6,3,3,0,0,1,1.31,1.89v10.46Zm-6-8.68a1.73,1.73,0,0,0,.68,1.11,2.06,2.06,0,0,0,1.15.33,3.77,3.77,0,0,0,1.46-.33,6,6,0,0,0,1.43-.87,5.52,5.52,0,0,0,1.11-1.26,2.77,2.77,0,0,0,.44-1.47A2.16,2.16,0,0,0,93,168.5a1.91,1.91,0,0,0-1.44-.61,4.32,4.32,0,0,0-1.44.35,5.35,5.35,0,0,0-1.41.85,4.88,4.88,0,0,0-1.08,1.23,2.81,2.81,0,0,0-.43,1.51A2.17,2.17,0,0,0,87.32,172.52Z" transform="translate(-10 -140)"/><path class="cls-2" d="M103.85,168.25H99v8.18l-1.57.15v-16H99v6h5.23l1.17.55,1,9.25-1.63.1Z" transform="translate(-10 -140)"/><path class="cls-2" d="M109.89,175.87v-7.7H107.3l.15-1.85h2.8v-5.18H112v5.28h4.17v1.83H111.8v6.6l3.83-.71.25,1.73-5.07,1.06Z" transform="translate(-10 -140)"/><path class="cls-2" d="M126.09,163.27v13.16h-2v-16l2.44-.36,3.91,10.16,4.57-9.85,1.93.15,1.22,16.3h-1.73l-.91-13.35-4.62,9.44-1.12-.15Z" transform="translate(-10 -140)"/><path class="cls-2" d="M143.92,165.76a4.58,4.58,0,0,1,2.15.46,3.77,3.77,0,0,1,1.45,1.26,5.45,5.45,0,0,1,.81,1.85,9.62,9.62,0,0,1,.26,2.27,7.2,7.2,0,0,1-.45,2.38,4.93,4.93,0,0,1-1,1.66,4.16,4.16,0,0,1-1.43,1,4.49,4.49,0,0,1-1.66.31,4.22,4.22,0,0,1-2-.45,4.42,4.42,0,0,1-1.42-1.23,5.55,5.55,0,0,1-.86-1.78,7.39,7.39,0,0,1-.29-2.12,7.49,7.49,0,0,1,.31-2.22,5.82,5.82,0,0,1,.89-1.78,4,4,0,0,1,3.27-1.59Zm.15,1.73a2.87,2.87,0,0,0-2.2.86,4,4,0,0,0-.8,2.77,5.59,5.59,0,0,0,.2,1.46,4.73,4.73,0,0,0,.59,1.31,3.44,3.44,0,0,0,.91,1,2.13,2.13,0,0,0,1.2.37,2.4,2.4,0,0,0,1.24-.33,3.19,3.19,0,0,0,.94-.85,4.62,4.62,0,0,0,.6-1.17,4.06,4.06,0,0,0,.21-1.26,4.85,4.85,0,0,0-.8-3.17A2.6,2.6,0,0,0,144.07,167.49Z" transform="translate(-10 -140)"/><path class="cls-2" d="M158.74,159.11v16.35l-.66.81a10.57,10.57,0,0,1-1.57.36,9.91,9.91,0,0,1-1.4.1,6.26,6.26,0,0,1-2.6-.48A4.85,4.85,0,0,1,150.8,175a5,5,0,0,1-1-1.75,6.94,6.94,0,0,1-.29-2,6,6,0,0,1,.43-2.37,4.8,4.8,0,0,1,1.13-1.61,4.24,4.24,0,0,1,1.58-.93,5.76,5.76,0,0,1,4.48.37l0-7.67ZM157.07,169a4.3,4.3,0,0,0-1.27-.8,3.79,3.79,0,0,0-1.4-.27,3.43,3.43,0,0,0-1.18.22,2.85,2.85,0,0,0-1,.64,3.12,3.12,0,0,0-.7,1,3.62,3.62,0,0,0-.27,1.46,3.79,3.79,0,0,0,.33,1.65,3,3,0,0,0,.88,1.11,3.64,3.64,0,0,0,1.27.65,5,5,0,0,0,1.51.22,4.31,4.31,0,0,0,1.83-.38Z" transform="translate(-10 -140)"/><path class="cls-2" d="M160.67,171.2a6,6,0,0,1,.41-2.35,4.33,4.33,0,0,1,1-1.53,3.6,3.6,0,0,1,1.38-.81,4.91,4.91,0,0,1,1.47-.24,5.49,5.49,0,0,1,1.83.29,3.35,3.35,0,0,1,1.39,1,4.54,4.54,0,0,1,.87,1.79,10.66,10.66,0,0,1,.31,2.74l-7.06.68a2.75,2.75,0,0,0,.39,1.21,2.55,2.55,0,0,0,.8.8,3.27,3.27,0,0,0,1,.43,4.86,4.86,0,0,0,1.14.13,6,6,0,0,0,1.86-.28,3.38,3.38,0,0,0,1.32-.69l.46,1.22a2.23,2.23,0,0,1-.54.51,3.67,3.67,0,0,1-.84.45,7.17,7.17,0,0,1-1.07.3,6.29,6.29,0,0,1-1.24.11,5.74,5.74,0,0,1-1.77-.28,3.9,3.9,0,0,1-1.6-.94A4.53,4.53,0,0,1,161.1,174,7.78,7.78,0,0,1,160.67,171.2Zm1.48.05,5.58-.61a2.92,2.92,0,0,0-.66-2,3.07,3.07,0,0,0-3.36-.44,3.06,3.06,0,0,0-.88.7,2.77,2.77,0,0,0-.53.95,3.41,3.41,0,0,0-.18,1.09A1.19,1.19,0,0,0,162.15,171.25Z" transform="translate(-10 -140)"/><path class="cls-3" d="M51.38,168.73a9.64,9.64,0,0,1-9.69,9.62A9.66,9.66,0,1,1,41.75,159,9.7,9.7,0,0,1,51.38,168.73Z" transform="translate(-10 -140)"/><path class="cls-3" d="M52.55,180.8a.76.76,0,0,1-.36.61.55.55,0,0,1-.74-.11c-.82-1-1.64-1.93-2.44-2.91a.55.55,0,0,1,.09-.79.51.51,0,0,1,.78-.06,30.46,30.46,0,0,1,2.59,3.07A1.08,1.08,0,0,1,52.55,180.8Z" transform="translate(-10 -140)"/><path class="cls-3" d="M53.79,167.23a.65.65,0,0,1-.69-.55.58.58,0,0,1,.47-.72c1.22-.24,2.44-.44,3.66-.64a.59.59,0,0,1,.7.5.55.55,0,0,1-.44.72C56.25,166.79,55,167,53.79,167.23Z" transform="translate(-10 -140)"/><path class="cls-3" d="M26.31,165.34c1.07.18,2.3.38,3.51.62a.59.59,0,0,1,.49.71.62.62,0,0,1-.74.55c-1.2-.2-2.39-.41-3.58-.64a.62.62,0,0,1-.54-.68C25.5,165.53,25.74,165.28,26.31,165.34Z" transform="translate(-10 -140)"/><path class="cls-3" d="M31.58,181.49c-.53,0-.89-.54-.61-.92a29.11,29.11,0,0,1,2.53-3,.51.51,0,0,1,.73,0c.26.2.4.52.2.77-.83,1-1.71,2.06-2.58,3.08C31.78,181.46,31.63,181.47,31.58,181.49Z" transform="translate(-10 -140)"/><path class="cls-3" d="M26.42,172.05c-.61.09-.88-.11-1-.49a.6.6,0,0,1,.53-.74c1.19-.24,2.39-.45,3.58-.64a.62.62,0,0,1,.73.57.6.6,0,0,1-.5.7C28.61,171.68,27.42,171.87,26.42,172.05Z" transform="translate(-10 -140)"/><path class="cls-3" d="M57,172.05c-1-.17-2.19-.36-3.38-.6a.59.59,0,0,1-.5-.76.63.63,0,0,1,.77-.51c1.17.2,2.34.41,3.5.63a.62.62,0,0,1,.56.73C57.87,171.92,57.61,172.14,57,172.05Z" transform="translate(-10 -140)"/><path class="cls-3" d="M52.56,156.61a3.41,3.41,0,0,1-.28.47c-.71.86-1.44,1.71-2.16,2.57-.29.35-.63.51-1,.17s-.25-.68.05-1c.73-.85,1.44-1.72,2.16-2.58a.64.64,0,0,1,.77-.27A.78.78,0,0,1,52.56,156.61Z" transform="translate(-10 -140)"/><path class="cls-3" d="M34.5,159.35a.68.68,0,0,1-.38.58.48.48,0,0,1-.61-.07,30.27,30.27,0,0,1-2.57-3.07c-.2-.27,0-.52.16-.71a.5.5,0,0,1,.73-.06,34.16,34.16,0,0,1,2.63,3.12C34.5,159.19,34.49,159.28,34.5,159.35Z" transform="translate(-10 -140)"/><path class="cls-3" d="M37.46,179.56a.61.61,0,0,1,.66.83c-.39,1.15-.82,2.28-1.25,3.41a.59.59,0,0,1-.75.42.58.58,0,0,1-.43-.8c.4-1.19.84-2.37,1.28-3.55A.5.5,0,0,1,37.46,179.56Z" transform="translate(-10 -140)"/><path class="cls-3" d="M28,177.28a.67.67,0,0,1-.65-.43.53.53,0,0,1,.22-.71c1.1-.67,2.23-1.31,3.35-1.95.26-.14.47,0,.65.2a.55.55,0,0,1,.06.74A26,26,0,0,1,28,177.28Z" transform="translate(-10 -140)"/><path class="cls-3" d="M47.78,183.51a.69.69,0,0,1-.47.7.57.57,0,0,1-.76-.37c-.45-1.16-.87-2.32-1.29-3.48a.56.56,0,0,1,.32-.73c.3-.14.68-.14.83.21C46.89,181.06,47.33,182.29,47.78,183.51Z" transform="translate(-10 -140)"/><path class="cls-3" d="M28.15,160.18a2.92,2.92,0,0,1,.31.14l2.79,1.6c.43.24.65.58.39,1s-.63.35-1,.12c-.94-.56-1.9-1.1-2.84-1.66-.31-.18-.57-.42-.42-.83S27.72,160.12,28.15,160.18Z" transform="translate(-10 -140)"/><path class="cls-3" d="M47.74,153.72a2.75,2.75,0,0,1-.28,1c-.31.86-.62,1.73-.92,2.6a.65.65,0,0,1-.91.47c-.39-.15-.47-.48-.31-.9.41-1.07.78-2.14,1.17-3.21.13-.35.37-.59.77-.5A.53.53,0,0,1,47.74,153.72Z" transform="translate(-10 -140)"/><path class="cls-3" d="M35.59,153.85a.72.72,0,0,1,.55-.68.54.54,0,0,1,.67.31c.47,1.22.92,2.45,1.34,3.69a.52.52,0,0,1-.38.63c-.25.09-.6.11-.72-.17C36.54,156.38,36.08,155.11,35.59,153.85Z" transform="translate(-10 -140)"/><path class="cls-3" d="M55.19,177.19a.68.68,0,0,1-.23-.1c-.93-.53-1.86-1.08-2.79-1.6-.43-.24-.67-.57-.42-1s.67-.35,1.07-.11c.94.56,1.91,1.1,2.85,1.66.29.17.51.41.38.78S55.72,177.29,55.19,177.19Z" transform="translate(-10 -140)"/><path class="cls-3" d="M55.45,160.16a.56.56,0,0,1,.57.38.52.52,0,0,1-.19.71c-1.11.67-2.23,1.31-3.35,1.95-.3.17-.54,0-.7-.23a.55.55,0,0,1,0-.8,27.27,27.27,0,0,1,3.48-2A.33.33,0,0,1,55.45,160.16Z" transform="translate(-10 -140)"/><path class="cls-3" d="M42.31,154.67v1.68c0,.41-.09.74-.59.75s-.63-.27-.63-.7c0-1.15,0-2.3,0-3.45,0-.42.15-.72.63-.71s.61.33.61.74v1.69Z" transform="translate(-10 -140)"/><path class="cls-3" d="M42.32,182.79v1.69c0,.38-.15.67-.59.68s-.64-.27-.65-.69c0-1.18,0-2.35,0-3.52,0-.41.18-.65.61-.65s.61.25.61.66v1.83Z" transform="translate(-10 -140)"/></svg>