<svg id="레이어_1" data-name="레이어 1" xmlns="http://www.w3.org/2000/svg" viewBox="0 0 175 162"><defs><style>.cls-1{fill:#d9b48f;}.cls-2{fill:#606060;}</style></defs><title>node_bubble</title><polygon class="cls-1" points="24.24 64 15 162 15 64 24.24 64"/><rect class="cls-1" width="175" height="70" rx="3.59"/><path class="cls-2" d="M23.42,47.46H21.91V50l-.39,0V46.65l.37-.08V47l1.81-.11.24.47.23,2.55-.5.14Z" transform="translate(-13 -27)"/><path class="cls-2" d="M25.86,46.73a1.34,1.34,0,0,1,.66.14,1.19,1.19,0,0,1,.45.38,1.83,1.83,0,0,1,.25.57,3.13,3.13,0,0,1,.08.7,2.2,2.2,0,0,1-.14.73,1.58,1.58,0,0,1-.32.52,1.32,1.32,0,0,1-.44.3,1.44,1.44,0,0,1-.51.09,1.2,1.2,0,0,1-.61-.14,1.24,1.24,0,0,1-.44-.38,1.61,1.61,0,0,1-.27-.54,2.37,2.37,0,0,1-.09-.65,2.5,2.5,0,0,1,.1-.69,1.9,1.9,0,0,1,.28-.55,1.13,1.13,0,0,1,.43-.35A1.17,1.17,0,0,1,25.86,46.73Zm.05.53a.9.9,0,0,0-.68.26,1.26,1.26,0,0,0-.25.86,1.31,1.31,0,0,0,.07.44,1.38,1.38,0,0,0,.18.41,1,1,0,0,0,.28.29.6.6,0,0,0,.37.11.72.72,0,0,0,.38-.1,1,1,0,0,0,.29-.26,1.22,1.22,0,0,0,.18-.36,1.34,1.34,0,0,0,.07-.39,1.53,1.53,0,0,0-.25-1A.78.78,0,0,0,25.91,47.26Z" transform="translate(-13 -27)"/><path class="cls-2" d="M30.42,44.68v5l-.2.25a3.11,3.11,0,0,1-.49.11l-.43,0a1.94,1.94,0,0,1-.8-.15,1.48,1.48,0,0,1-.52-.39,1.44,1.44,0,0,1-.3-.54,2,2,0,0,1-.09-.6,1.79,1.79,0,0,1,.14-.73,1.48,1.48,0,0,1,.34-.49,1.44,1.44,0,0,1,.49-.29,1.71,1.71,0,0,1,.55-.09,1.76,1.76,0,0,1,.83.2l0-2.36Zm-.51,3a1.36,1.36,0,0,0-.39-.25,1.31,1.31,0,0,0-.43-.08,1.16,1.16,0,0,0-.37.07,1,1,0,0,0-.31.19,1.18,1.18,0,0,0-.21.32,1.06,1.06,0,0,0-.08.45,1.13,1.13,0,0,0,.1.51,1.06,1.06,0,0,0,.27.35,1.18,1.18,0,0,0,.39.19,1.43,1.43,0,0,0,.46.07,1.32,1.32,0,0,0,.57-.12Z" transform="translate(-13 -27)"/><path class="cls-2" d="M31,48.4a1.87,1.87,0,0,1,.12-.72,1.18,1.18,0,0,1,.32-.47,1.07,1.07,0,0,1,.42-.25,1.54,1.54,0,0,1,.46-.08,1.69,1.69,0,0,1,.56.09.91.91,0,0,1,.42.3,1.35,1.35,0,0,1,.27.55,2.93,2.93,0,0,1,.1.84l-2.17.22a.77.77,0,0,0,.12.37.69.69,0,0,0,.24.24,1.3,1.3,0,0,0,.32.14,2.07,2.07,0,0,0,.35,0,1.89,1.89,0,0,0,.58-.08,1.14,1.14,0,0,0,.4-.21l.14.37a.6.6,0,0,1-.16.16,1.59,1.59,0,0,1-.26.14,2.62,2.62,0,0,1-.33.09,2.34,2.34,0,0,1-.38,0,1.75,1.75,0,0,1-.55-.08,1.44,1.44,0,0,1-.49-.29,1.49,1.49,0,0,1-.35-.54A2.34,2.34,0,0,1,31,48.4Zm.45,0,1.72-.18a.9.9,0,0,0-.21-.62.83.83,0,0,0-.65-.23.89.89,0,0,0-.38.1.82.82,0,0,0-.27.21.92.92,0,0,0-.16.29,1,1,0,0,0-.06.34A.22.22,0,0,0,31.47,48.41Z" transform="translate(-13 -27)"/><path class="cls-2" d="M35.19,49.24l-.42.58-.66-.67.44-.53Z" transform="translate(-13 -27)"/><path class="cls-2" d="M35.58,50.82l.17-.62,1.25.32V47.13h.56V51l-.29.27Zm2.06-4.31-.37.14-.68-1.17.55-.14Z" transform="translate(-13 -27)"/><path class="cls-2" d="M40.55,47l-.11.47-.17-.06L40,47.36l-.28,0-.27,0a1,1,0,0,0-.4.07.26.26,0,0,0-.17.25.29.29,0,0,0,.14.23,2.53,2.53,0,0,0,.33.16,2.79,2.79,0,0,0,.39.1l.3.06a1.23,1.23,0,0,1,.38.19.83.83,0,0,1,.22.24.8.8,0,0,1,.12.27,1.24,1.24,0,0,1,0,.27.82.82,0,0,1-.13.48,1.22,1.22,0,0,1-.33.31,1.3,1.3,0,0,1-.44.17,2.12,2.12,0,0,1-.49.06,2.84,2.84,0,0,1-.72-.1,1.4,1.4,0,0,1-.53-.28l.19-.53a1.39,1.39,0,0,0,.22.15l.28.11a2,2,0,0,0,.33.08l.34,0a1.18,1.18,0,0,0,.5-.11.49.49,0,0,0,.26-.38.57.57,0,0,0,0-.12.88.88,0,0,0,0-.15.44.44,0,0,0-.14-.13.66.66,0,0,0-.25-.09,4.72,4.72,0,0,1-.59-.12,1.85,1.85,0,0,1-.47-.2.9.9,0,0,1-.3-.28.68.68,0,0,1-.12-.4.71.71,0,0,1,.29-.63,1.52,1.52,0,0,1,.85-.2,2.79,2.79,0,0,1,.58.07A2,2,0,0,1,40.55,47Z" transform="translate(-13 -27)"/><path class="cls-2" d="M43.84,46.29a1,1,0,0,1,0-.23,1.25,1.25,0,0,1,.07-.26,1.75,1.75,0,0,1,.11-.24,1,1,0,0,1,.17-.18l-.74-.09.08-.52,1.5.16.1-1.09.54,0L45.63,45l1.28.16-.07.48-.62-.06a.83.83,0,0,1,.13.32,1.45,1.45,0,0,1,0,.35,1.61,1.61,0,0,1-.28,1,1,1,0,0,1-.71.41l0,.66h1.69v.52H43.2v-.55h1.68l0-.63a1.23,1.23,0,0,1-.5-.17,1.08,1.08,0,0,1-.31-.29,1,1,0,0,1-.17-.37,1.69,1.69,0,0,1,0-.38v-.16Zm.55,0s0,.06,0,.12a.8.8,0,0,0,.15.5.64.64,0,0,0,.43.24l.42,0a.54.54,0,0,0,.34-.29,1.15,1.15,0,0,0,.12-.55.91.91,0,0,0-.18-.61.69.69,0,0,0-.53-.2.71.71,0,0,0-.49.18A1,1,0,0,0,44.39,46.29Zm.13,4.94v-2l.54.12V51h3.47v.48h-3.8Zm3.09-2V43.93h.5v2.2h1.11v.52H48.13V49.2Z" transform="translate(-13 -27)"/><path class="cls-2" d="M52.81,45.05l-.15.49h1.73V44.37h.52v4.09h-.49V47.32H52.09l-.36,1.14-.53-.11,1-3.08H49.89l0-.61h2.62Zm-1,5.07a1,1,0,0,1,.1-.45,1,1,0,0,1,.3-.37,1.37,1.37,0,0,1,.48-.25,2.61,2.61,0,0,1,1.36,0,1.42,1.42,0,0,1,.49.25,1.17,1.17,0,0,1,.3.37,1.14,1.14,0,0,1,.1.45,1.19,1.19,0,0,1-.1.46,1.17,1.17,0,0,1-.3.37,1.42,1.42,0,0,1-.49.25,2.61,2.61,0,0,1-1.36,0,1.37,1.37,0,0,1-.48-.25,1,1,0,0,1-.3-.37A1,1,0,0,1,51.78,50.12Zm.73-4.1-.25.8h2.15V46Zm1.85,4.1a.58.58,0,0,0-.27-.49,1.26,1.26,0,0,0-.75-.2,1.24,1.24,0,0,0-.75.2.59.59,0,0,0-.26.49.63.63,0,0,0,.26.5,1.24,1.24,0,0,0,.75.2,1.26,1.26,0,0,0,.75-.2A.61.61,0,0,0,54.36,50.12Z" transform="translate(-13 -27)"/><path class="cls-2" d="M60.56,48.7v.64h-4.2V48.7Zm-.84-2.22a1.9,1.9,0,0,1-.11.66,1.37,1.37,0,0,1-.28.47,1.17,1.17,0,0,1-.42.27,1.35,1.35,0,0,1-.5.09,1.73,1.73,0,0,1-.63-.11,1.34,1.34,0,0,1-.45-.31,1.31,1.31,0,0,1-.26-.44,1.61,1.61,0,0,1-.09-.54A2.09,2.09,0,0,1,57,46.1a1.37,1.37,0,0,1,.21-.5,1.4,1.4,0,0,1,.44-.39,1.42,1.42,0,0,1,.7-.16,1.44,1.44,0,0,1,.5.1,1.34,1.34,0,0,1,.42.28,1.39,1.39,0,0,1,.29.45A1.78,1.78,0,0,1,59.72,46.48Zm-2.22,0v.08a.92.92,0,0,0,.26.71.89.89,0,0,0,.61.23.78.78,0,0,0,.61-.25,1.06,1.06,0,0,0,.22-.74,1.33,1.33,0,0,0-.05-.34,1.08,1.08,0,0,0-.16-.3.82.82,0,0,0-.63-.3.74.74,0,0,0-.34.08.82.82,0,0,0-.27.21.88.88,0,0,0-.18.29A1,1,0,0,0,57.5,46.46Zm4.17-1.64v5.39H61V44.82Z" transform="translate(-13 -27)"/><path class="cls-2" d="M70.3,48.3H64.8l0-.43h5.45Zm-.57,3.07h-.56V49.7H65.48v-.54h4l.28.33Zm-.45-4.77v.52h-3l-.3-.33V44.35h3v.41H66.52v.69H69v.45h-2.5v.7Z" transform="translate(-13 -27)"/><path class="cls-2" d="M74.11,45v.5H73v1l1.55,1.42-.31.41L72.77,47l-1.25,1.43L71.13,48l1.32-1.56v-1H71.2V45Zm-1,5.14a1.13,1.13,0,0,1,.09-.45,1.17,1.17,0,0,1,.3-.37,1.42,1.42,0,0,1,.49-.25,2.29,2.29,0,0,1,.68-.09,2.26,2.26,0,0,1,.67.09,1.47,1.47,0,0,1,.5.25,1,1,0,0,1,.29.37,1,1,0,0,1,.1.45,1,1,0,0,1-.1.46,1,1,0,0,1-.29.37,1.47,1.47,0,0,1-.5.25,2.26,2.26,0,0,1-.67.09A2.29,2.29,0,0,1,74,51.2a1.42,1.42,0,0,1-.49-.25,1.17,1.17,0,0,1-.3-.37A1.18,1.18,0,0,1,73.13,50.12Zm2.57,0a.58.58,0,0,0-.27-.49,1.25,1.25,0,0,0-.74-.2,1.27,1.27,0,0,0-.76.2.59.59,0,0,0-.26.49.63.63,0,0,0,.26.5,1.27,1.27,0,0,0,.76.2,1.25,1.25,0,0,0,.74-.2A.61.61,0,0,0,75.7,50.12Zm.52-5.71v4.1h-.56V44.4Z" transform="translate(-13 -27)"/><path class="cls-2" d="M83.17,47.68h-5.5l0-.44h5.46Zm-4.48.75h3.72v1.72H78.94v.69h3.94v.4H78.69l-.27-.15V49.65h3.46v-.77H78.69Zm.22-3a1.14,1.14,0,0,1,.12-.52,1.06,1.06,0,0,1,.33-.37,1.54,1.54,0,0,1,.48-.24,2.25,2.25,0,0,1,.58-.07,1.81,1.81,0,0,1,.58.09,1.51,1.51,0,0,1,.47.25,1.44,1.44,0,0,1,.32.38,1,1,0,0,1,.12.48,1.11,1.11,0,0,1-.14.56,1.24,1.24,0,0,1-.34.38,1.3,1.3,0,0,1-.48.21,1.88,1.88,0,0,1-.53.07,2.35,2.35,0,0,1-.6-.08,1.57,1.57,0,0,1-.48-.25,1.18,1.18,0,0,1-.32-.38A1.19,1.19,0,0,1,78.91,45.43Zm2.5,0a.56.56,0,0,0-.08-.27.91.91,0,0,0-.2-.24,1.09,1.09,0,0,0-.32-.17,1.05,1.05,0,0,0-.4-.07,1.51,1.51,0,0,0-.47.09.8.8,0,0,0-.48.41.59.59,0,0,0,0,.25.59.59,0,0,0,.09.34.63.63,0,0,0,.23.23,1,1,0,0,0,.32.14,1.55,1.55,0,0,0,.37,0,1.1,1.1,0,0,0,.37-.06,1.2,1.2,0,0,0,.32-.16.79.79,0,0,0,.21-.24A.52.52,0,0,0,81.41,45.43Z" transform="translate(-13 -27)"/><path class="cls-2" d="M86.19,46.85a3.19,3.19,0,0,1,.06-.59,2,2,0,0,1,.23-.59,1.42,1.42,0,0,1,.43-.45,1.28,1.28,0,0,1,.7-.18,1.17,1.17,0,0,1,.67.18,1.45,1.45,0,0,1,.44.45,2,2,0,0,1,.24.59,2.55,2.55,0,0,1,.07.59,2.66,2.66,0,0,1-.07.61,2,2,0,0,1-.24.58,1.42,1.42,0,0,1-.44.44,1.41,1.41,0,0,1-1.34,0A1.32,1.32,0,0,1,86.5,48a1.55,1.55,0,0,1-.24-.58A2.66,2.66,0,0,1,86.19,46.85Zm.51,0a3.29,3.29,0,0,0,0,.42,2,2,0,0,0,.14.43,1,1,0,0,0,.28.32.73.73,0,0,0,.45.13.7.7,0,0,0,.44-.13,1,1,0,0,0,.28-.32,1.57,1.57,0,0,0,.15-.43,3.29,3.29,0,0,0,0-.42,2.18,2.18,0,0,0,0-.42,1.48,1.48,0,0,0-.14-.42,1,1,0,0,0-.28-.33.76.76,0,0,0-.44-.13.81.81,0,0,0-.46.13,1,1,0,0,0-.27.33,1.23,1.23,0,0,0-.14.42A2.12,2.12,0,0,0,86.7,46.85Zm3.83,2.72V44.23h.64v5.34Z" transform="translate(-13 -27)"/><path class="cls-2" d="M95.69,46.38l0,.49-3.39-.25v-.5l1.42.09V44.87h.53v1.4Zm-.61,2.38a1.42,1.42,0,0,1-.4.87,1.07,1.07,0,0,1-.8.32,1.1,1.1,0,0,1-.56-.13,1.06,1.06,0,0,1-.37-.33,1.19,1.19,0,0,1-.21-.44,1.58,1.58,0,0,1-.07-.47,1.85,1.85,0,0,1,.06-.44,1.73,1.73,0,0,1,.21-.46,1.27,1.27,0,0,1,.37-.36,1,1,0,0,1,.57-.15,1.13,1.13,0,0,1,.89.37,1.39,1.39,0,0,1,.32,1v.13S95.08,48.72,95.08,48.76Zm-1.89-.33a.3.3,0,0,0,0,.1v.1a1.12,1.12,0,0,0,0,.31,1.08,1.08,0,0,0,.14.26,1,1,0,0,0,.22.18.73.73,0,0,0,.3.07.65.65,0,0,0,.26-.06.54.54,0,0,0,.24-.16.72.72,0,0,0,.17-.3,1.17,1.17,0,0,0,.08-.45.92.92,0,0,0-.18-.57.74.74,0,0,0-1,0A1.2,1.2,0,0,0,93.19,48.43Zm4.59-3h.53v5.2h-.53V48.15h-.86v2.39h-.59V45.41h.59V47.6h.86Z" transform="translate(-13 -27)"/><path class="cls-2" d="M102.17,46.27l0,.47-3.4-.26V46l1.44.1V44.73l.53,0v1.39Zm-.56,2.41a1.94,1.94,0,0,1-.15.5,1.78,1.78,0,0,1-.28.38,1.4,1.4,0,0,1-.39.26,1.22,1.22,0,0,1-.46.09,1.41,1.41,0,0,1-.61-.13,1.31,1.31,0,0,1-.4-.33,1.42,1.42,0,0,1-.23-.44,1.9,1.9,0,0,1-.07-.46,1.63,1.63,0,0,1,.09-.55,1.19,1.19,0,0,1,.24-.46,1.17,1.17,0,0,1,.41-.32,1.37,1.37,0,0,1,1.51.26,1.44,1.44,0,0,1,.35,1v.1S101.61,48.65,101.61,48.68Zm-2-.39a.9.9,0,0,0,0,.25,1,1,0,0,0,.17.57,1,1,0,0,0,.25.21.74.74,0,0,0,.67,0,.86.86,0,0,0,.26-.21,1.07,1.07,0,0,0,.17-.3,1,1,0,0,0,.06-.36,1,1,0,0,0-.2-.6.7.7,0,0,0-.57-.25.73.73,0,0,0-.51.19A.91.91,0,0,0,99.56,48.29Zm3.88,2.23-.58,0V44.87h.64v2.4h1.19v.5h-1.25Z" transform="translate(-13 -27)"/><path class="cls-2" d="M105.66,45.74h2.45v.52h2.11V45h.48v5.33h-.42V48.41h-2.21v.85h-2.18l-.25-.3Zm1.9.52h-1.39v2.4h1.39Zm.53.5V47.9h2.14V46.77Z" transform="translate(-13 -27)"/><path class="cls-2" d="M21.5,56.44a1.8,1.8,0,0,1,0-.22,1.12,1.12,0,0,1,.06-.23,2.4,2.4,0,0,1,.11-.23.65.65,0,0,1,.15-.18l-.75-.1.07-.45,1.56.17.09-1.06.46,0-.08,1.08,1.34.14-.05.47-.73-.07a1,1,0,0,1,.23.65,1.61,1.61,0,0,1-.1.57,1.43,1.43,0,0,1-.27.43,1.22,1.22,0,0,1-.38.26,1.13,1.13,0,0,1-.45.09,1.27,1.27,0,0,1-.62-.13,1.18,1.18,0,0,1-.4-.32,1.14,1.14,0,0,1-.21-.41,1.42,1.42,0,0,1-.06-.38S21.5,56.46,21.5,56.44Zm.52,0a.31.31,0,0,0,0,.1.76.76,0,0,0,.19.52.76.76,0,0,0,1.08,0,.91.91,0,0,0,.19-.59.7.7,0,0,0-.23-.58.84.84,0,0,0-.54-.18.65.65,0,0,0-.46.18A.88.88,0,0,0,22,56.42ZM26.91,61h-.49V59.19H22.5v-.52h4.13l.28.33Zm-.49-6.55H27v3.74h-.53V56.45h-.89v1.49H25V54.42h.56v1.52h.89Z" transform="translate(-13 -27)"/><path class="cls-2" d="M27.83,57.86l1.31-2.13V54.31l.47,0v1.37l1.72,1.69-.28.41-1.57-1.52-1.21,1.91Zm.34.78h5.39V61H28.48l-.23-.22Zm.61.53v1.37h4.28V59.17ZM32.92,54v4.13h-.56V54Z" transform="translate(-13 -27)"/><path class="cls-2" d="M38.89,54.83l-1.17,4-.53-.11L38.27,55H36.22l.05-.6h2.37Zm2.44-.58.53.19v4.78h-.53v-2.5h-.89v2.45h-.56V54.26h.56v1.93h.89Z" transform="translate(-13 -27)"/><path class="cls-2" d="M46,57.25v.51H43.3l-.24-.34V54.51h.55v2.66Zm-2.84,1.4h5.34V61H43.39l-.23-.22Zm.6.52v1.37H48V59.17ZM47.86,54v4.11h-.5V56.54H45.17V56h2.17v-.68H45.17v-.5h2.16V54Z" transform="translate(-13 -27)"/><path class="cls-2" d="M54.78,57.44h-5.5l0-.44h5.46ZM50.3,58H54v1.72H50.55v.69h3.93v.4H50.3L50,60.69V59.25h3.45v-.77H50.3Zm.45-1.83-.33-.3V53.84h3v.52H50.92v1.33h2.63v.53Z" transform="translate(-13 -27)"/><path class="cls-2" d="M55.48,56.64a2.53,2.53,0,0,1,.08-.59,1.86,1.86,0,0,1,.24-.56,1.41,1.41,0,0,1,.43-.41,1.18,1.18,0,0,1,.65-.16,1.25,1.25,0,0,1,.53.12,1.5,1.5,0,0,1,.4.3,1.73,1.73,0,0,1,.27.43,2.13,2.13,0,0,1,.15.49h1.05V54.5h.52V59l-.49,0V56.78h-1a2.87,2.87,0,0,1-.11.61,2.06,2.06,0,0,1-.27.51,1.35,1.35,0,0,1-.43.35,1.18,1.18,0,0,1-.58.13,1.23,1.23,0,0,1-.65-.16,1.44,1.44,0,0,1-.43-.42,1.7,1.7,0,0,1-.24-.55A2.61,2.61,0,0,1,55.48,56.64Zm.52,0a1.49,1.49,0,0,0,.07.49,1.37,1.37,0,0,0,.2.38.72.72,0,0,0,.27.25.76.76,0,0,0,1-.24,1.38,1.38,0,0,0,.25-.88,2.2,2.2,0,0,0,0-.44,1.23,1.23,0,0,0-.16-.39.83.83,0,0,0-.28-.28.78.78,0,0,0-.41-.11.66.66,0,0,0-.37.1.83.83,0,0,0-.27.26,1.38,1.38,0,0,0-.16.39A2.26,2.26,0,0,0,56,56.64Zm4.64,2.59v-4.9h.53v4.86Z" transform="translate(-13 -27)"/><path class="cls-2" d="M66.92,57.89v.51H64.19L64,58.11V54.92h2.63v.58H64.5v2.34Zm2.19-3.33h.53v4.66h-.53V56.9h-.8v2.27h-.56V54.58h.56v1.79h.8Z" transform="translate(-13 -27)"/><path class="cls-2" d="M73.73,56l0,.49-3.39-.25v-.5l1.42.09V54.47h.54v1.4Zm-.6,2.38a1.42,1.42,0,0,1-.4.87,1.2,1.2,0,0,1-1.36.19,1,1,0,0,1-.37-.33,1.19,1.19,0,0,1-.21-.44,1.58,1.58,0,0,1-.07-.47,1.85,1.85,0,0,1,.06-.44,1.69,1.69,0,0,1,.2-.46,1.31,1.31,0,0,1,.38-.36,1,1,0,0,1,.57-.15,1.13,1.13,0,0,1,.89.37,1.44,1.44,0,0,1,.32,1v.13A.57.57,0,0,0,73.13,58.36ZM71.23,58a.31.31,0,0,0,0,.1v.09a1.13,1.13,0,0,0,0,.32.82.82,0,0,0,.14.26.79.79,0,0,0,.22.18.65.65,0,0,0,.29.06.63.63,0,0,0,.26,0,.56.56,0,0,0,.25-.16,1,1,0,0,0,.17-.3,1.18,1.18,0,0,0,.07-.45,1,1,0,0,0-.17-.57.74.74,0,0,0-1,0A1.32,1.32,0,0,0,71.23,58Zm4.6-3h.53v5.2h-.53V57.75H75v2.39h-.59V55H75V57.2h.86Z" transform="translate(-13 -27)"/><path class="cls-2" d="M82.17,54.65l-1.08,3.41L80.56,58l1-3.08H79.25l0-.61h2.62Zm2.25,5.88V61H80v-.62h.8L81,59h-1l.06-.53h4.16v.69h-.72v1.37Zm-2.89-1.47-.15,1.42H83V59.06ZM84.08,54v4.1h-.56V54Z" transform="translate(-13 -27)"/><path class="cls-2" d="M85.58,56.45a3.19,3.19,0,0,1,.06-.59,2,2,0,0,1,.23-.59,1.42,1.42,0,0,1,.43-.45,1.28,1.28,0,0,1,.7-.18,1.17,1.17,0,0,1,.67.18,1.45,1.45,0,0,1,.44.45,1.79,1.79,0,0,1,.24.59,2.55,2.55,0,0,1,.07.59,2.66,2.66,0,0,1-.07.61,1.74,1.74,0,0,1-.24.58,1.42,1.42,0,0,1-.44.44,1.41,1.41,0,0,1-1.34,0,1.42,1.42,0,0,1-.44-.44,1.74,1.74,0,0,1-.24-.58A2.66,2.66,0,0,1,85.58,56.45Zm.51,0a3.29,3.29,0,0,0,0,.42,1.73,1.73,0,0,0,.14.42,1,1,0,0,0,.28.33.73.73,0,0,0,.45.13.7.7,0,0,0,.44-.13,1,1,0,0,0,.28-.33,1.4,1.4,0,0,0,.15-.42,3.29,3.29,0,0,0,0-.42,2.18,2.18,0,0,0,0-.42,1.48,1.48,0,0,0-.14-.42,1,1,0,0,0-.28-.33.76.76,0,0,0-.44-.13.81.81,0,0,0-.46.13,1,1,0,0,0-.27.33,1.23,1.23,0,0,0-.14.42A3.29,3.29,0,0,0,86.09,56.45Zm3.83,2.72V53.83h.64v5.34Z" transform="translate(-13 -27)"/><path class="cls-2" d="M92.05,56.11a2,2,0,0,1,.08-.6,1.27,1.27,0,0,1,.25-.49,1.18,1.18,0,0,1,.43-.33,1.41,1.41,0,0,1,.64-.13,1.2,1.2,0,0,1,.66.17,1.41,1.41,0,0,1,.43.41,1.64,1.64,0,0,1,.22.51,1.66,1.66,0,0,1,.07.46,2.23,2.23,0,0,1-.06.47,1.62,1.62,0,0,1-.21.51,1.24,1.24,0,0,1-.42.4,1.34,1.34,0,0,1-.7.16,1.48,1.48,0,0,1-.67-.14,1.29,1.29,0,0,1-.42-.38,1.34,1.34,0,0,1-.23-.5A2,2,0,0,1,92.05,56.11Zm.5,0a1.23,1.23,0,0,0,.07.44.85.85,0,0,0,.19.32,1,1,0,0,0,.29.21.67.67,0,0,0,.34.09.86.86,0,0,0,.36-.08.75.75,0,0,0,.27-.23,1.06,1.06,0,0,0,.18-.33,1.42,1.42,0,0,0,.06-.42,1.29,1.29,0,0,0-.24-.75.81.81,0,0,0-.63-.32.88.88,0,0,0-.37.09,1,1,0,0,0-.45.58A1.29,1.29,0,0,0,92.55,56.11ZM93,60.84l-.34-.39,1.22-1.25v-.86h.53v.83l1,.7.49-.54.06-.89h.5v.87l1.23,1.23-.34.36-1.19-1.15L95,61l-.33-.35.39-.44-.84-.61ZM97,54v4.1h-.56V54Z" transform="translate(-13 -27)"/><path class="cls-2" d="M99.63,59l-.49-.12,1.08-3.77h-2v-.59h2.32l.21.48-.35,1.21H102V54.42h.51V59L102,59V56.78h-1.7Zm3.7.19v-5h.53v4.94Z" transform="translate(-13 -27)"/><path class="cls-2" d="M109.33,57.61h3v.54h-5.47v-.59h1.89V56.11h.47Zm1.83-.6h-.5V55h-2.61l.06-.6h2.73l.33.41Zm-3,2.78a1,1,0,0,1,.1-.44.94.94,0,0,1,.29-.37,1.42,1.42,0,0,1,.49-.25,2.29,2.29,0,0,1,.68-.09,2.38,2.38,0,0,1,.68.09,1.42,1.42,0,0,1,.49.25.94.94,0,0,1,.29.37,1,1,0,0,1,.1.44,1,1,0,0,1-.1.47,1,1,0,0,1-.29.37,1.61,1.61,0,0,1-.49.25,2.38,2.38,0,0,1-.68.09,2.29,2.29,0,0,1-.68-.09,1.61,1.61,0,0,1-.49-.25,1,1,0,0,1-.29-.37A1,1,0,0,1,108.19,59.79Zm2.58,0a.58.58,0,0,0-.27-.48,1.19,1.19,0,0,0-.75-.2,1.16,1.16,0,0,0-.75.2.58.58,0,0,0-.27.48.6.6,0,0,0,.27.5,1.16,1.16,0,0,0,.75.21,1.19,1.19,0,0,0,.75-.21A.6.6,0,0,0,110.77,59.79Z" transform="translate(-13 -27)"/><path class="cls-2" d="M115.94,58.58h-2.61V58h5.5v.6h-2.35v1.78h-.54ZM114.22,54v-.06h.51l.1,1.23H117L117,53.92l.52,0v3.23h-2.72l-.34-.17Zm2.89,2.59v-1h-2.27l.08,1.06Z" transform="translate(-13 -27)"/><path class="cls-2" d="M122.86,56l0,.49-3.39-.25v-.5l1.42.09V54.47h.53v1.4Zm-.61,2.38a1.42,1.42,0,0,1-.4.87,1.19,1.19,0,0,1-1.35.19,1,1,0,0,1-.38-.33,1.19,1.19,0,0,1-.21-.44,2,2,0,0,1-.07-.47,1.48,1.48,0,0,1,.07-.44,1.69,1.69,0,0,1,.2-.46,1.27,1.27,0,0,1,.37-.36,1,1,0,0,1,.57-.15,1.17,1.17,0,0,1,.9.37,1.44,1.44,0,0,1,.32,1s0,.08,0,.13S122.25,58.32,122.25,58.36ZM120.36,58a.3.3,0,0,0,0,.1v.09a1.13,1.13,0,0,0,0,.32,1.1,1.1,0,0,0,.15.26.74.74,0,0,0,.21.18.73.73,0,0,0,.3.06.63.63,0,0,0,.26,0,.54.54,0,0,0,.24-.16,1,1,0,0,0,.18-.3,1.42,1.42,0,0,0,.07-.45,1,1,0,0,0-.17-.57.65.65,0,0,0-.54-.23.61.61,0,0,0-.5.2A1.21,1.21,0,0,0,120.36,58ZM125,55h.53v5.2H125V57.75h-.86v2.39h-.59V55h.59V57.2H125Z" transform="translate(-13 -27)"/><path class="cls-2" d="M131,55.19a1.34,1.34,0,0,1-.25.8,1.16,1.16,0,0,1-.62.45l0,1h1.37V58H128v-.55h1.67l0-.94a1,1,0,0,1-.52-.18,1.18,1.18,0,0,1-.33-.34,1.27,1.27,0,0,1-.17-.4,1.35,1.35,0,0,1,0-.37,1.55,1.55,0,0,1,.06-.4,1.72,1.72,0,0,1,.21-.43,1.42,1.42,0,0,1,.38-.35,1.16,1.16,0,0,1,.58-.14,1.28,1.28,0,0,1,.47.1,1.51,1.51,0,0,1,.39.27,1.17,1.17,0,0,1,.27.41A1.37,1.37,0,0,1,131,55.19Zm-2,5.57-.34-.39,1.22-1.12v-.78h.53v.75l.79.57.49-.54.06-.66h.5l-.05.64,1.29,1.24-.35.36L132,59.67,130.81,61l-.33-.36.4-.44-.69-.48Zm0-5.57a.8.8,0,0,0,.2.56.75.75,0,0,0,.6.22.66.66,0,0,0,.5-.23.87.87,0,0,0,.14-.87.76.76,0,0,0-.16-.26.53.53,0,0,0-.24-.17.57.57,0,0,0-.29-.07.88.88,0,0,0-.33.07.71.71,0,0,0-.23.19.77.77,0,0,0-.14.25A1.06,1.06,0,0,0,129,55.19Zm3.25,3V54h.5v1.58h1.11v.51H132.8v2.06Z" transform="translate(-13 -27)"/><path class="cls-2" d="M140.16,57.9h-5.5l0-.43h5.45Zm-4.68.64v0h.5l.07.85H139l-.08-.86.49,0,.18,2.48H136l-.33-.16Zm.16-2.23,1.49-1.69V53.56h.53v1.06l1.62,1.47-.3.41-1.56-1.42L136,56.65Zm3.44,4.22-.05-.78h-2.94v.78Z" transform="translate(-13 -27)"/><path class="cls-2" d="M144.5,57.58v.5h-3.09l-.22-.33V54.54h.53v3Zm1,1.59V53.83h.65v5.34Z" transform="translate(-13 -27)"/><path class="cls-2" d="M150.42,57.89v.51h-2.89l-.23-.29V54.92H150v.58h-2.16v2.34ZM152,59.48h-.57V54.14H152v2.4h1.34v.52H152Z" transform="translate(-13 -27)"/><path class="cls-2" d="M154.77,58.84l-.43.58-.65-.67.44-.53Z" transform="translate(-13 -27)"/><path class="cls-2" d="M21.28,67.6a1.69,1.69,0,0,1,.13-.72,1.17,1.17,0,0,1,.31-.47,1.1,1.1,0,0,1,.43-.25,1.47,1.47,0,0,1,.45-.08,1.6,1.6,0,0,1,.56.09,1,1,0,0,1,.43.3,1.35,1.35,0,0,1,.27.55,3.37,3.37,0,0,1,.09.84l-2.17.22a1.07,1.07,0,0,0,.12.37.82.82,0,0,0,.25.24,1.15,1.15,0,0,0,.32.14,2,2,0,0,0,.35,0,1.79,1.79,0,0,0,.57-.08,1.2,1.2,0,0,0,.41-.21l.14.37a.66.66,0,0,1-.17.16,1.48,1.48,0,0,1-.25.14,2.37,2.37,0,0,1-.34.09,2.34,2.34,0,0,1-.38,0,1.68,1.68,0,0,1-.54-.08,1.23,1.23,0,0,1-.49-.29,1.5,1.5,0,0,1-.36-.54A2.58,2.58,0,0,1,21.28,67.6Zm.45,0,1.72-.18a.89.89,0,0,0-.2-.62.85.85,0,0,0-.66-.23.93.93,0,0,0-.38.1.89.89,0,0,0-.26.21,1,1,0,0,0-.17.29,1.33,1.33,0,0,0-.05.34Z" transform="translate(-13 -27)"/><path class="cls-2" d="M24.33,68.91l1.1-1.33-1-1.37.36-.31,1,1.31,1-1.22.36.37-1.06,1.27,1,1.31-.36.31-1-1.25-1.07,1.29Z" transform="translate(-13 -27)"/><path class="cls-2" d="M30.42,67.35v.16a1.75,1.75,0,0,1-.13.74,1.46,1.46,0,0,1-.33.48,1.19,1.19,0,0,1-.44.24,1.62,1.62,0,0,1-.47.07,1.7,1.7,0,0,1-.46-.06.87.87,0,0,1-.32-.15l.06,1.75-.49,0V66.38l.05-.36a4.49,4.49,0,0,1,1-.13,1.54,1.54,0,0,1,1.11.36A1.52,1.52,0,0,1,30.42,67.35Zm-2.23-.78,0,1.54s0,.06.08.1a1.23,1.23,0,0,0,.2.1,1.07,1.07,0,0,0,.27.09,1.45,1.45,0,0,0,.3,0,.79.79,0,0,0,.3-.05.65.65,0,0,0,.27-.17.81.81,0,0,0,.2-.34,1.32,1.32,0,0,0,.08-.52,1,1,0,0,0-.09-.43.89.89,0,0,0-.24-.3,1.11,1.11,0,0,0-.34-.18,1.31,1.31,0,0,0-.75,0A.87.87,0,0,0,28.19,66.57Z" transform="translate(-13 -27)"/><path class="cls-2" d="M31.23,69.38,31,65.94l.48-.06.11,1.52,1.67-1.13.22.44L31.64,68v1.31Z" transform="translate(-13 -27)"/><path class="cls-2" d="M33.8,67.6a1.87,1.87,0,0,1,.12-.72,1.18,1.18,0,0,1,.32-.47,1.14,1.14,0,0,1,.42-.25,1.54,1.54,0,0,1,.46-.08,1.64,1.64,0,0,1,.56.09,1,1,0,0,1,.43.3,1.66,1.66,0,0,1,.27.55,3.37,3.37,0,0,1,.09.84l-2.17.22a.77.77,0,0,0,.12.37.78.78,0,0,0,.24.24,1.3,1.3,0,0,0,.32.14,2.19,2.19,0,0,0,.36,0,1.87,1.87,0,0,0,.57-.08,1.14,1.14,0,0,0,.4-.21l.14.37a.6.6,0,0,1-.16.16,1.26,1.26,0,0,1-.26.14,2.62,2.62,0,0,1-.33.09,2.34,2.34,0,0,1-.38,0,1.79,1.79,0,0,1-.55-.08,1.3,1.3,0,0,1-.49-.29,1.63,1.63,0,0,1-.35-.54A2.34,2.34,0,0,1,33.8,67.6Zm.45,0L36,67.43a.94.94,0,0,0-.2-.62.87.87,0,0,0-.66-.23.89.89,0,0,0-.38.1.82.82,0,0,0-.27.21.92.92,0,0,0-.16.29,1,1,0,0,0-.06.34S34.25,67.59,34.25,67.61Z" transform="translate(-13 -27)"/><path class="cls-2" d="M39.16,66.22l-.11.47-.17-.06-.24-.07-.27,0-.27,0a1,1,0,0,0-.4.07.26.26,0,0,0-.17.25.29.29,0,0,0,.14.23,2.53,2.53,0,0,0,.33.16,2.79,2.79,0,0,0,.39.1l.3.06a1.23,1.23,0,0,1,.38.19.83.83,0,0,1,.22.24.8.8,0,0,1,.12.27,1.24,1.24,0,0,1,0,.27.9.9,0,0,1-.13.48,1.22,1.22,0,0,1-.33.31,1.3,1.3,0,0,1-.44.17,2.12,2.12,0,0,1-.49.06,2.84,2.84,0,0,1-.72-.1A1.4,1.4,0,0,1,36.8,69l.18-.53.23.15.28.11a2,2,0,0,0,.33.08,2,2,0,0,0,.34,0,1.18,1.18,0,0,0,.5-.11.49.49,0,0,0,.26-.38.57.57,0,0,0,0-.12.88.88,0,0,0,0-.15.44.44,0,0,0-.14-.13.66.66,0,0,0-.25-.09,4.38,4.38,0,0,1-.59-.12,1.85,1.85,0,0,1-.47-.2.9.9,0,0,1-.3-.28.68.68,0,0,1-.12-.4.71.71,0,0,1,.29-.63,1.52,1.52,0,0,1,.85-.2,2.79,2.79,0,0,1,.58.07A2,2,0,0,1,39.16,66.22Z" transform="translate(-13 -27)"/><path class="cls-2" d="M42,66.22l-.11.47-.17-.06-.24-.07-.27,0-.27,0a1,1,0,0,0-.4.07.26.26,0,0,0-.17.25.29.29,0,0,0,.14.23,2.53,2.53,0,0,0,.33.16,2.79,2.79,0,0,0,.39.1l.3.06a1.23,1.23,0,0,1,.38.19.83.83,0,0,1,.22.24.8.8,0,0,1,.12.27,1.24,1.24,0,0,1,0,.27.9.9,0,0,1-.13.48,1.22,1.22,0,0,1-.33.31,1.28,1.28,0,0,1-.45.17,2,2,0,0,1-.48.06,2.84,2.84,0,0,1-.72-.1,1.33,1.33,0,0,1-.53-.28l.18-.53.23.15.28.11a2,2,0,0,0,.33.08,2,2,0,0,0,.34,0,1.18,1.18,0,0,0,.5-.11.49.49,0,0,0,.26-.38.57.57,0,0,0,0-.12.47.47,0,0,0-.06-.15.32.32,0,0,0-.13-.13.66.66,0,0,0-.25-.09,4.38,4.38,0,0,1-.59-.12,1.85,1.85,0,0,1-.47-.2,1.05,1.05,0,0,1-.31-.28.75.75,0,0,1-.11-.4.71.71,0,0,1,.29-.63A1.52,1.52,0,0,1,41,66a2.79,2.79,0,0,1,.58.07A2,2,0,0,1,42,66.22Z" transform="translate(-13 -27)"/><path class="cls-2" d="M48.39,67h-5.5l0-.44h5.46Zm-4.48.73h3.72V69.5H44.16v.69h3.93v.41H43.91l-.27-.16V69h3.45v-.76H43.91ZM44.13,63h3.15v1.67h-3v.73h3.29v.46H44.14l-.37-.29V64.25h3v-.73H44.14Z" transform="translate(-13 -27)"/><path class="cls-2" d="M51.92,64.88a1.17,1.17,0,0,1,.09-.4.83.83,0,0,1,.27-.38L51.64,64l.06-.44,1.36.16.11-.84.52.07-.1.85,1.16.12,0,.42-.59-.06a1.57,1.57,0,0,1,.12.3,1.14,1.14,0,0,1,0,.33,1.18,1.18,0,0,1-.25.74,1,1,0,0,1-.67.37l0,.79h1.44v.53H51.45V66.8h1.44l0-.77a1.27,1.27,0,0,1-.51-.17,1.09,1.09,0,0,1-.28-.29.93.93,0,0,1-.13-.35A2,2,0,0,1,51.92,64.88Zm.66,3.36v-.49H56l.14,1.55H52.72v.88h4.33l0,.47H52.39l-.26-.16.1-1.47h3.32v-.78Zm-.16-3.36v.05a.66.66,0,0,0,.18.47.82.82,0,0,0,1.06,0,.89.89,0,0,0,.17-.54.57.57,0,0,0-.21-.48.78.78,0,0,0-.5-.17.7.7,0,0,0-.48.18A.67.67,0,0,0,52.42,64.88Zm3,2.45V63.6h.5v1.58H57v.51H55.94v1.66Z" transform="translate(-13 -27)"/><path class="cls-2" d="M59,65a1.19,1.19,0,0,1,.12-.54,1.13,1.13,0,0,1,.33-.39,1.4,1.4,0,0,1,.49-.24,2.27,2.27,0,0,1,.59-.08,1.74,1.74,0,0,1,.61.1,1.32,1.32,0,0,1,.81.66,1.14,1.14,0,0,1,.11.49,1.25,1.25,0,0,1-.11.53,1.07,1.07,0,0,1-.3.36l.06,1.33H63.3v.51H57.83v-.59h1.65V65.93h0A1.11,1.11,0,0,1,59,65Zm.11,4.38a1,1,0,0,1,.1-.45,1,1,0,0,1,.29-.37,1.51,1.51,0,0,1,.49-.25,2.29,2.29,0,0,1,.68-.09,2.33,2.33,0,0,1,.68.09,1.42,1.42,0,0,1,.49.25,1.17,1.17,0,0,1,.3.37,1.13,1.13,0,0,1,.09.45,1.18,1.18,0,0,1-.09.46,1.17,1.17,0,0,1-.3.37,1.61,1.61,0,0,1-.49.25,2.33,2.33,0,0,1-.68.09,2.29,2.29,0,0,1-.68-.09,1.74,1.74,0,0,1-.49-.25,1,1,0,0,1-.29-.37A1,1,0,0,1,59.11,69.4ZM61.56,65a.58.58,0,0,0-.07-.28.67.67,0,0,0-.2-.25.75.75,0,0,0-.3-.18,1,1,0,0,0-.4-.07,1.39,1.39,0,0,0-.48.07.9.9,0,0,0-.34.17.64.64,0,0,0-.2.24.54.54,0,0,0-.07.27.65.65,0,0,0,.09.35.59.59,0,0,0,.23.24.87.87,0,0,0,.34.14,1.75,1.75,0,0,0,.4,0,1.59,1.59,0,0,0,.38-.06,1.57,1.57,0,0,0,.32-.15.83.83,0,0,0,.22-.24A.52.52,0,0,0,61.56,65Zm.13,4.38a.58.58,0,0,0-.27-.49,1.19,1.19,0,0,0-.75-.2,1.16,1.16,0,0,0-.75.2.57.57,0,0,0-.26.49.61.61,0,0,0,.26.5,1.22,1.22,0,0,0,.75.2,1.26,1.26,0,0,0,.75-.2A.62.62,0,0,0,61.69,69.4Zm-.56-3.22a1.36,1.36,0,0,1-.29.06h-.6a1.1,1.1,0,0,1-.26-.06l.05,1h1.13Z" transform="translate(-13 -27)"/><path class="cls-2" d="M67.34,65.58l0,.49-3.39-.25v-.5l1.42.09V64.07h.54v1.4ZM66.73,68a1.41,1.41,0,0,1-.39.87A1.2,1.2,0,0,1,65,69a1,1,0,0,1-.37-.33,1.4,1.4,0,0,1-.22-.44,2,2,0,0,1-.06-.47,1.85,1.85,0,0,1,.06-.44,1.69,1.69,0,0,1,.2-.46,1.41,1.41,0,0,1,.37-.36,1.06,1.06,0,0,1,.58-.15,1.13,1.13,0,0,1,.89.37,1.44,1.44,0,0,1,.32,1v.13S66.74,67.92,66.73,68Zm-1.89-.33a.31.31,0,0,0,0,.1v.1a.84.84,0,0,0,0,.31.82.82,0,0,0,.14.26.65.65,0,0,0,.22.18.62.62,0,0,0,.55,0,.63.63,0,0,0,.25-.16.85.85,0,0,0,.17-.3,1.18,1.18,0,0,0,.07-.45,1,1,0,0,0-.17-.57.74.74,0,0,0-1,0A1.32,1.32,0,0,0,64.84,67.63Zm4.6-3H70v5.2h-.53V67.35h-.86v2.39H68V64.61h.6V66.8h.86Z" transform="translate(-13 -27)"/><path class="cls-2" d="M73.58,64.22v-.06h.51l.1,1.24h2.28l-.08-1.25.52,0v3.24H75.77V68.8H78.2v.56H72.73v-.61h2.52V67.43H74.11l-.34-.25Zm3,2.64V65.8H74.2l.08,1.06Z" transform="translate(-13 -27)"/><path class="cls-2" d="M82,67.49V68H79.14l-.23-.29V64.52h2.7v.58H79.45v2.34Zm1.56,1.59H83V63.74h.61v2.41H85v.51H83.59Z" transform="translate(-13 -27)"/><path class="cls-2" d="M89.69,67V68h-.52V67H87.61V66.5h3.48v.41Zm-1.6-.89-.39-.38L88.86,64V63h.56V64L91,65.43l-.29.4L89.17,64.5Zm.77,2.36h.48V69h2.88v-.59l.5,0v2.17H89.19l-.33-.15Zm3.41,1.65v-.67H89.34v.72Zm0-2.23V63h.42v4.83Z" transform="translate(-13 -27)"/><path class="cls-2" d="M95.27,68.65l-.49-.13,1.08-3.77h-2v-.59h2.32l.21.49-.35,1.2h1.52V64h.52V68.6l-.49,0V66.38h-1.7Zm3.7.18v-5h.53v4.94Z" transform="translate(-13 -27)"/><path class="cls-2" d="M102.72,69.29l-.53-.13,1.61-5.09h.34L106,69.19l-.5.14-.73-2.12h-1.47Zm.73-2.57h1.21L104,65Z" transform="translate(-13 -27)"/><path class="cls-2" d="M107.25,67.1l.19,2.53-.5,0-.38-5,.25-.29.53,0,.53,0a4.38,4.38,0,0,1,.75.06,1.69,1.69,0,0,1,.61.2,1.18,1.18,0,0,1,.4.43,1.43,1.43,0,0,1,.15.7,1.17,1.17,0,0,1-.24.78,1.62,1.62,0,0,1-.63.42,3,3,0,0,1-.82.19Zm-.17-2.3.15,1.81c.2,0,.41,0,.65,0a2.84,2.84,0,0,0,.67-.13,1.48,1.48,0,0,0,.52-.3.67.67,0,0,0,.22-.54.78.78,0,0,0-.12-.44.74.74,0,0,0-.31-.27,1.51,1.51,0,0,0-.44-.14,2.92,2.92,0,0,0-.51,0l-.46,0Z" transform="translate(-13 -27)"/><path class="cls-2" d="M112.22,69h-1.86V68.6H111V64.69h-.88v-.42l1.72-.11v.45l-.56,0v3.91h1Z" transform="translate(-13 -27)"/><path class="cls-2" d="M118.53,67H113l0-.44h5.46Zm-4.48.73h3.72V69.5H114.3v.69h3.93v.41h-4.18l-.27-.16V69h3.45v-.76h-3.18Zm.22-4.73h3.15v1.67h-3v.73h3.29v.46h-3.45l-.37-.29V64.25h3v-.73h-2.64Z" transform="translate(-13 -27)"/><path class="cls-2" d="M124.22,64v.5h-1.08v.83l1.55,1.58-.31.4-1.5-1.42-1.25,1.58-.4-.41,1.33-1.72v-.84h-1.25V64Zm2.19,6.53h-.57V68.79H122v-.52h4.13l.28.33Zm-.93-7H126v1.67h1.21v.53H126v2h-.57Z" transform="translate(-13 -27)"/><path class="cls-2" d="M127.67,67.38,129,65.25V63.83l.47,0v1.38l1.72,1.68-.28.41-1.56-1.52-1.22,1.91Zm2.16,1.94a1,1,0,0,1,.1-.45,1,1,0,0,1,.29-.37,1.51,1.51,0,0,1,.49-.25,2.29,2.29,0,0,1,.68-.09,2.33,2.33,0,0,1,.68.09,1.42,1.42,0,0,1,.49.25,1.17,1.17,0,0,1,.3.37,1.13,1.13,0,0,1,.09.45,1.18,1.18,0,0,1-.09.46,1.17,1.17,0,0,1-.3.37,1.42,1.42,0,0,1-.49.25,2.33,2.33,0,0,1-.68.09,2.29,2.29,0,0,1-.68-.09,1.51,1.51,0,0,1-.49-.25,1,1,0,0,1-.29-.37A1,1,0,0,1,129.83,69.32Zm2.58,0a.59.59,0,0,0-.27-.49,1.26,1.26,0,0,0-.75-.2,1.22,1.22,0,0,0-.75.2.58.58,0,0,0-.26.49.6.6,0,0,0,.26.5,1.22,1.22,0,0,0,.75.2,1.26,1.26,0,0,0,.75-.2A.61.61,0,0,0,132.41,69.32ZM133,63.6v4.06l-.5,0V65.43h-1.87v-.5h1.84V63.61Z" transform="translate(-13 -27)"/><path class="cls-2" d="M137.53,65.47l-.05.47-3.39-.26v-.49l1.44.1V63.93l.53,0v1.39ZM137,67.88a1.94,1.94,0,0,1-.15.5,1.78,1.78,0,0,1-.28.38,1.4,1.4,0,0,1-.39.26,1.22,1.22,0,0,1-.46.09,1.41,1.41,0,0,1-.61-.13,1.31,1.31,0,0,1-.4-.33,1.42,1.42,0,0,1-.23-.44,1.9,1.9,0,0,1-.07-.46,1.92,1.92,0,0,1,.08-.55,1.36,1.36,0,0,1,.25-.46,1.17,1.17,0,0,1,.41-.32,1.37,1.37,0,0,1,1.51.26,1.44,1.44,0,0,1,.35,1v.1S137,67.85,137,67.88Zm-2.05-.39a.9.9,0,0,0,0,.25,1,1,0,0,0,.17.57,1.21,1.21,0,0,0,.24.21.8.8,0,0,0,.36.08.73.73,0,0,0,.57-.29.89.89,0,0,0,.18-.3,1,1,0,0,0,.06-.36,1,1,0,0,0-.2-.6.67.67,0,0,0-.57-.25.73.73,0,0,0-.51.19A.91.91,0,0,0,134.92,67.49Zm3.88,2.23-.58,0V64.07h.64v2.4h1.19V67H138.8Z" transform="translate(-13 -27)"/><path class="cls-2" d="M140.72,66.63a2.55,2.55,0,0,1,.07-.59,2,2,0,0,1,.22-.58,1.35,1.35,0,0,1,.44-.45,1.22,1.22,0,0,1,.69-.18,1.14,1.14,0,0,1,.68.19,1.38,1.38,0,0,1,.45.45l2.31,0V64.22h.48v5.33h-.42V67.61h-2.27a1.68,1.68,0,0,1-.46.57,1.16,1.16,0,0,1-.77.24,1.29,1.29,0,0,1-.68-.17,1.39,1.39,0,0,1-.44-.43,2,2,0,0,1-.23-.58A2.58,2.58,0,0,1,140.72,66.63Zm.51,0a3.29,3.29,0,0,0,0,.42,1.88,1.88,0,0,0,.14.42,1,1,0,0,0,.28.33.84.84,0,0,0,.9,0,1,1,0,0,0,.28-.33,1.88,1.88,0,0,0,.14-.42,3.29,3.29,0,0,0,0-.42,2.18,2.18,0,0,0-.05-.42,1.23,1.23,0,0,0-.14-.42,1,1,0,0,0-.28-.33.76.76,0,0,0-.44-.13.81.81,0,0,0-.46.13,1,1,0,0,0-.27.33,1.23,1.23,0,0,0-.14.42A3.29,3.29,0,0,0,141.23,66.63Zm2.25-.67a2,2,0,0,1,.06.34,1.94,1.94,0,0,1,0,.33,1.69,1.69,0,0,1,0,.23l0,.24,2.07,0V66Z" transform="translate(-13 -27)"/><path class="cls-2" d="M27,76.48H21.5l0-.44H27Zm-4.48.75h3.71V79H22.77v.69H26.7V80H22.52l-.27-.15V78.45H25.7v-.77H22.52Zm3.32-4.06v2.34H25.3v-.83H22.64v-.47H25.3v-.89H22.64v-.47h2.88Z" transform="translate(-13 -27)"/><path class="cls-2" d="M27.86,74.37v-.48h2.59l.16,1.93-2.36.27v1.23H31l0,.49H27.94l-.3-.16V75.6l2.42-.23-.08-1Zm4.61,4.31h-.58V73.34h.61v2.41h1.27v.51h-1.3Z" transform="translate(-13 -27)"/><path class="cls-2" d="M34.42,75.65a2.55,2.55,0,0,1,.07-.59,2,2,0,0,1,.22-.59,1.45,1.45,0,0,1,.44-.45,1.39,1.39,0,0,1,1.37,0,1.57,1.57,0,0,1,.44.45,2,2,0,0,1,.24.59,3.25,3.25,0,0,1,.07.59,3.36,3.36,0,0,1-.07.61,2,2,0,0,1-.24.58,1.54,1.54,0,0,1-.44.44,1.32,1.32,0,0,1-.68.17,1.28,1.28,0,0,1-.67-.17,1.42,1.42,0,0,1-.44-.44,2,2,0,0,1-.24-.58A3.36,3.36,0,0,1,34.42,75.65Zm.52,0a2.12,2.12,0,0,0,0,.42,1.28,1.28,0,0,0,.14.43.92.92,0,0,0,.27.32.84.84,0,0,0,.9,0,1.08,1.08,0,0,0,.28-.32,1.55,1.55,0,0,0,.14-.43,2.23,2.23,0,0,0,0-.84,1.5,1.5,0,0,0-.15-.42,1,1,0,0,0-.27-.33.8.8,0,0,0-.45-.13.77.77,0,0,0-.45.13,1,1,0,0,0-.28.33,1.48,1.48,0,0,0-.14.42A3.19,3.19,0,0,0,34.94,75.65Zm3.83,2.72V73h.64v5.34Z" transform="translate(-13 -27)"/><path class="cls-2" d="M40.78,75.37a2.21,2.21,0,0,1,.08-.59,1.38,1.38,0,0,1,.25-.5,1.14,1.14,0,0,1,.44-.33,1.52,1.52,0,0,1,.64-.13,1.48,1.48,0,0,1,.5.1,1.61,1.61,0,0,1,.36.24,1.31,1.31,0,0,1,.25.33,2.81,2.81,0,0,1,.17.35l1.84,0V73.17h.52v4.89h-.49V75.31H43.56v.06a2.24,2.24,0,0,1-.06.48,1.62,1.62,0,0,1-.21.51,1.26,1.26,0,0,1-1.12.57,1.32,1.32,0,0,1-.66-.15,1.19,1.19,0,0,1-.43-.37,2,2,0,0,1-.23-.51A2,2,0,0,1,40.78,75.37Zm.5,0a1.2,1.2,0,0,0,.07.44.91.91,0,0,0,.2.33,1.46,1.46,0,0,0,.28.21.81.81,0,0,0,.34.08.77.77,0,0,0,.63-.3,1.26,1.26,0,0,0,.25-.83.86.86,0,0,0-.07-.36.92.92,0,0,0-.18-.32,1,1,0,0,0-.27-.22.77.77,0,0,0-.72,0,1,1,0,0,0-.28.23,1,1,0,0,0-.18.34A1.76,1.76,0,0,0,41.28,75.37Zm1.64,4.34V77.79h.55v1.64h2.69v.49h-3Z" transform="translate(-13 -27)"/><path class="cls-2" d="M52.72,79.09H47.28v-.52h5.44Zm-.92-2.25v.51H48.5L48.2,77V74.09h3.18v.41H48.72v.89h2.81v.45H48.72v.94Z" transform="translate(-13 -27)"/><path class="cls-2" d="M56.56,75.15a1.44,1.44,0,0,1-.08.51,1.27,1.27,0,0,1-.23.41,1.18,1.18,0,0,1-.33.3,1.24,1.24,0,0,1-.4.16l0,1.22h1.49v.56h-3.6v-.63H55l0-1.15a1.1,1.1,0,0,1-.53-.21,1.42,1.42,0,0,1-.33-.36,1.32,1.32,0,0,1-.17-.41,1.51,1.51,0,0,1-.05-.4,1.76,1.76,0,0,1,.06-.42,1.42,1.42,0,0,1,.23-.46,1.23,1.23,0,0,1,.41-.37,1.16,1.16,0,0,1,.62-.15,1.25,1.25,0,0,1,.51.1,1.1,1.1,0,0,1,.42.29,1.35,1.35,0,0,1,.29.44A1.32,1.32,0,0,1,56.56,75.15Zm-2.14,0a1,1,0,0,0,.06.34.71.71,0,0,0,.16.28.86.86,0,0,0,.26.2.87.87,0,0,0,.37.07.71.71,0,0,0,.32-.07,1,1,0,0,0,.25-.2.9.9,0,0,0,.16-.29.88.88,0,0,0,.06-.33,1,1,0,0,0-.06-.34,1.19,1.19,0,0,0-.18-.29.86.86,0,0,0-.26-.2.72.72,0,0,0-.33-.07.68.68,0,0,0-.34.08.72.72,0,0,0-.25.21.75.75,0,0,0-.16.29A.87.87,0,0,0,54.42,75.15Zm3.22,3.7V73.54h.61v2.21h1.11v.51H58.22v2.59Z" transform="translate(-13 -27)"/><path class="cls-2" d="M65.06,74.23l-1.17,4-.53-.11,1.08-3.7H62.23l.05-.61h2.53Zm1.49,4.14V73h.64v5.34Z" transform="translate(-13 -27)"/><path class="cls-2" d="M69.69,73.12h.51l.1,1h1.89l-.08-1,.52,0L72.8,76H71.66v1h2.43v.54H68.63v-.59h2.51V76h-.92l-.34-.27ZM70,80l-.34-.27V77.92h.48v1.5l3.55.08v.24a.82.82,0,0,1,0,.14V80a.07.07,0,0,1,0,0Zm2.3-4.52V74.6H70.31l.08.88Z" transform="translate(-13 -27)"/><path class="cls-2" d="M77.81,73.46V74H76.64v.94l1.58,1.63-.31.4-1.5-1.47-1.25,1.63-.39-.41,1.32-1.76V74H74.84v-.51Zm2.47,6.69h-.76l.21-1.76H75.88v-.52H80l.28.33Zm-.23-7v4.11h-.5V75H77.67v-.5h1.85V73.21Z" transform="translate(-13 -27)"/><path class="cls-2" d="M81.52,75.31a2,2,0,0,1,.08-.6,1.37,1.37,0,0,1,.26-.51,1.18,1.18,0,0,1,.44-.35,1.45,1.45,0,0,1,.65-.14,1.31,1.31,0,0,1,.69.2,1.44,1.44,0,0,1,.43.42,1.84,1.84,0,0,1,.23.52,2.15,2.15,0,0,1,.06.46,2.41,2.41,0,0,1-.06.49,1.67,1.67,0,0,1-.21.52,1.39,1.39,0,0,1-.44.43,1.36,1.36,0,0,1-.71.17,1.24,1.24,0,0,1-.66-.16,1.28,1.28,0,0,1-.44-.39,2,2,0,0,1-.25-.53A2.09,2.09,0,0,1,81.52,75.31Zm.5,0v.08a1.15,1.15,0,0,0,.08.44.93.93,0,0,0,.23.31.84.84,0,0,0,.31.19.78.78,0,0,0,.33.07.82.82,0,0,0,.35-.08.89.89,0,0,0,.28-.23,1.28,1.28,0,0,0,.18-.35,1.21,1.21,0,0,0,.07-.43,1.42,1.42,0,0,0-.07-.42,1.1,1.1,0,0,0-.18-.34,1,1,0,0,0-.29-.24.84.84,0,0,0-.36-.1.81.81,0,0,0-.65.3A1.24,1.24,0,0,0,82,75.31Zm1.26,4.54V78h.53v1.6h2.83l0,.5H83.5Zm3.06-6.64v4.88h-.56V73.2Z" transform="translate(-13 -27)"/><path class="cls-2" d="M93,78.4h2.46V79H90v-.61h2.51V76.78l.5,0Zm-2.23-1.9,1.56-1.79V73.48h.57v1.23l1.65,1.52-.28.41L92.63,75.2l-1.47,1.67Z" transform="translate(-13 -27)"/><path class="cls-2" d="M100.86,75.57v.52H99.45v.83h2.43v.54H96.41v-.59h2.51v-.82h-1l-.3-.35V73.26h3v.41H98.09v.68h2.5v.46h-2.5v.7ZM97.69,79a1,1,0,0,1,.1-.45,1,1,0,0,1,.29-.37,1.42,1.42,0,0,1,.49-.25,2.29,2.29,0,0,1,.68-.09,2.38,2.38,0,0,1,.68.09,1.42,1.42,0,0,1,.49.25,1,1,0,0,1,.29.37,1,1,0,0,1,.1.45,1,1,0,0,1-.1.46,1,1,0,0,1-.29.37,1.61,1.61,0,0,1-.49.25,2.38,2.38,0,0,1-.68.09,2.29,2.29,0,0,1-.68-.09,1.61,1.61,0,0,1-.49-.25,1,1,0,0,1-.29-.37A1,1,0,0,1,97.69,79Zm2.58,0a.58.58,0,0,0-.27-.49,1.19,1.19,0,0,0-.75-.2,1.16,1.16,0,0,0-.75.2.58.58,0,0,0-.27.49.62.62,0,0,0,.27.5,1.22,1.22,0,0,0,.75.2,1.26,1.26,0,0,0,.75-.2A.62.62,0,0,0,100.27,79Z" transform="translate(-13 -27)"/><path class="cls-2" d="M102.86,75.65a2.55,2.55,0,0,1,.07-.59,2,2,0,0,1,.22-.59,1.35,1.35,0,0,1,.44-.45,1.22,1.22,0,0,1,.69-.18A1.17,1.17,0,0,1,105,74a1.35,1.35,0,0,1,.44.45,1.6,1.6,0,0,1,.24.59,2.55,2.55,0,0,1,.07.59,2.66,2.66,0,0,1-.07.61,1.55,1.55,0,0,1-.24.58,1.32,1.32,0,0,1-.44.44,1.26,1.26,0,0,1-.67.17,1.28,1.28,0,0,1-.67-.17,1.42,1.42,0,0,1-.44-.44,2,2,0,0,1-.24-.58A2.66,2.66,0,0,1,102.86,75.65Zm.52,0a3.19,3.19,0,0,0,0,.42,2,2,0,0,0,.14.43,1,1,0,0,0,.28.32.73.73,0,0,0,.45.13.68.68,0,0,0,.44-.13,1,1,0,0,0,.28-.32,1.57,1.57,0,0,0,.15-.43,3.29,3.29,0,0,0,0-.42,2.18,2.18,0,0,0,0-.42,1.23,1.23,0,0,0-.14-.42,1,1,0,0,0-.28-.33.74.74,0,0,0-.44-.13.81.81,0,0,0-.46.13,1,1,0,0,0-.27.33,1.23,1.23,0,0,0-.14.42A3.19,3.19,0,0,0,103.38,75.65Zm3.82,2.72V73h.64v5.34Z" transform="translate(-13 -27)"/><path class="cls-2" d="M113.92,74l-1.17,4-.53-.11,1.08-3.7h-2.21l0-.61h2.53Zm1.24,4.67V73.35h.61v2.4h1.34v.51h-1.38V78.7Z" transform="translate(-13 -27)"/><path class="cls-2" d="M123.22,77.1h-5.5l0-.43h5.45Zm-4-1.21-.38-.33V73.28h.53v2.11h2.67v.48ZM119,79a1,1,0,0,1,.1-.45,1,1,0,0,1,.3-.37,1.37,1.37,0,0,1,.48-.25,2.61,2.61,0,0,1,1.36,0,1.42,1.42,0,0,1,.49.25,1.17,1.17,0,0,1,.3.37,1.14,1.14,0,0,1,.1.45,1.19,1.19,0,0,1-.1.46,1.17,1.17,0,0,1-.3.37,1.61,1.61,0,0,1-.49.25,2.61,2.61,0,0,1-1.36,0,1.55,1.55,0,0,1-.48-.25,1,1,0,0,1-.3-.37A1,1,0,0,1,119,79Zm2.58,0a.58.58,0,0,0-.27-.49,1.19,1.19,0,0,0-.75-.2,1.18,1.18,0,0,0-.75.2.59.59,0,0,0-.26.49.64.64,0,0,0,.26.5,1.24,1.24,0,0,0,.75.2,1.26,1.26,0,0,0,.75-.2A.62.62,0,0,0,121.61,79Z" transform="translate(-13 -27)"/><path class="cls-2" d="M127.31,75.07l0,.47-3.39-.26v-.49l1.43.1V73.53l.53,0V75Zm-.56,2.41a1.94,1.94,0,0,1-.15.5,1.78,1.78,0,0,1-.28.38,1.27,1.27,0,0,1-.39.26,1.22,1.22,0,0,1-.46.09,1.41,1.41,0,0,1-.61-.13,1.44,1.44,0,0,1-.4-.33,1.42,1.42,0,0,1-.23-.44,1.9,1.9,0,0,1-.07-.46,1.63,1.63,0,0,1,.09-.55,1.31,1.31,0,0,1,.24-.47,1.27,1.27,0,0,1,.41-.31,1.37,1.37,0,0,1,1.51.26,1.44,1.44,0,0,1,.35,1v.1S126.75,77.45,126.75,77.48Zm-2-.39a.9.9,0,0,0,0,.25,1,1,0,0,0,.17.57,1,1,0,0,0,.25.21.74.74,0,0,0,.36.08.71.71,0,0,0,.31-.08.86.86,0,0,0,.26-.21.87.87,0,0,0,.17-.3,1,1,0,0,0,.06-.36,1,1,0,0,0-.2-.6.67.67,0,0,0-.57-.25.69.69,0,0,0-.51.19A1,1,0,0,0,124.7,77.09Zm3.88,2.23-.58,0V73.67h.64v2.4h1.19v.5h-1.25Z" transform="translate(-13 -27)"/><path class="cls-2" d="M131.81,78.25l-.48-.13,1.08-3.77h-2v-.59h2.33l.2.49-.35,1.2h1.53V73.62h.51V78.2l-.48,0V76h-1.71Zm3.71.18v-5h.53v4.94Z" transform="translate(-13 -27)"/><path class="cls-2" d="M139.2,75.14a1.72,1.72,0,0,1,.1-.47.79.79,0,0,1,.26-.38l-.87-.09.08-.49,1.67.18.09-1.07.52.05L141,74l1.42.14,0,.5-.78-.06a.75.75,0,0,1,.17.36,1.51,1.51,0,0,1,.05.4,1.42,1.42,0,0,1-.41.89,1.22,1.22,0,0,1-.38.26,1.07,1.07,0,0,1-.43.09,1.47,1.47,0,0,1-.71-.15,1.26,1.26,0,0,1-.41-.38,1.15,1.15,0,0,1-.19-.46A2.28,2.28,0,0,1,139.2,75.14Zm.5,0v.07a.71.71,0,0,0,.05.27,1.28,1.28,0,0,0,.15.25.88.88,0,0,0,.24.19.73.73,0,0,0,.33.08.74.74,0,0,0,.34-.08.58.58,0,0,0,.25-.18.61.61,0,0,0,.15-.26.91.91,0,0,0,.06-.32.75.75,0,0,0-.22-.56.8.8,0,0,0-.57-.21.73.73,0,0,0-.54.21A.84.84,0,0,0,139.7,75.14ZM141,77.53V77h2.77l.14,1.77-2.73.18v.79h3.54l0,.46H140.8l-.27-.15.11-1.6h2.69v-.93Zm2.07-4.32h.53v1.3h1.22V75h-1.24v1.55H143Z" transform="translate(-13 -27)"/><path class="cls-2" d="M150.16,77.64h-2.61v-.57h5.5v.6H150.7v1.92h-.54Zm-1.77-1.74L150,74.12V72.89h.57v1.23l1.65,1.52-.28.4-1.62-1.44-1.47,1.68Z" transform="translate(-13 -27)"/><path class="cls-2" d="M156.08,75.31a2,2,0,0,1,.08-.6,1.27,1.27,0,0,1,.25-.49,1.18,1.18,0,0,1,.43-.33,1.41,1.41,0,0,1,.64-.13,1.2,1.2,0,0,1,.66.17,1.41,1.41,0,0,1,.43.41,1.64,1.64,0,0,1,.22.51,1.66,1.66,0,0,1,.07.46,2.23,2.23,0,0,1-.06.47,1.62,1.62,0,0,1-.21.51,1.24,1.24,0,0,1-.42.4,1.34,1.34,0,0,1-.7.16,1.48,1.48,0,0,1-.67-.14,1.4,1.4,0,0,1-.42-.38,1.52,1.52,0,0,1-.23-.5A2,2,0,0,1,156.08,75.31Zm.5,0a1.23,1.23,0,0,0,.07.44,1,1,0,0,0,.19.32,1,1,0,0,0,.29.21.69.69,0,0,0,.34.09.86.86,0,0,0,.36-.08.89.89,0,0,0,.28-.23,1.29,1.29,0,0,0,.17-.33,1.42,1.42,0,0,0,.06-.42,1.29,1.29,0,0,0-.24-.75.78.78,0,0,0-.63-.31.8.8,0,0,0-.36.08.92.92,0,0,0-.28.24,1,1,0,0,0-.18.34A1.29,1.29,0,0,0,156.58,75.31Zm.48,4.73-.34-.39,1.22-1.25v-.86h.53v.83l.95.7.49-.54.06-.89h.5v.87l1.23,1.24-.34.35L160.17,79,159,80.25l-.33-.36.39-.44-.84-.61ZM161,73.21v4.1h-.56V73.2Z" transform="translate(-13 -27)"/><path class="cls-2" d="M167.94,77.1h-5.5l0-.43h5.45Zm-4.67.65v0h.5l.06.85h2.95l-.08-.86.49,0,.19,2.48h-3.63l-.33-.15Zm.15-2.24,1.49-1.69V72.76h.53v1.06l1.62,1.47-.29.41-1.57-1.42-1.39,1.57Zm3.44,4.22-.05-.78h-2.93v.78Z" transform="translate(-13 -27)"/><path class="cls-2" d="M172.28,76.78v.5h-3.09L169,77v-3.2h.53v3Zm1,1.59V73h.64v5.34Z" transform="translate(-13 -27)"/><path class="cls-2" d="M178.2,77.09v.51h-2.89l-.23-.29V74.12h2.7v.58h-2.15V77Zm1.57,1.59h-.58V73.34h.61v2.41h1.34v.51h-1.37Z" transform="translate(-13 -27)"/><path class="cls-2" d="M182.55,78l-.42.58-.66-.67.44-.53Z" transform="translate(-13 -27)"/></svg>