<svg id="레이어_1" data-name="레이어 1" xmlns="http://www.w3.org/2000/svg" viewBox="0 0 70.5 10.5"><defs><style>.cls-1{fill:#fcf6f5;}</style></defs><title>SKILLS</title><path class="cls-1" d="M167.36,89.33v-1.5h-1.5v-1.5h3v1.5h4.5v-3h-6v-1.5h-1.5v-3h1.5v-1.5h7.5v1.5h1.5v1.5h-3v-1.5h-4.5v3h6v1.5h1.5v3h-1.5v1.5Z" transform="translate(-165.86 -78.83)"/><path class="cls-1" d="M177.86,89.33V78.83h3v4.5h1.5v-1.5h1.5v-1.5h1.5v-1.5h3v1.5h-1.5v1.5h-1.5v1.5h-1.5v1.5h1.5v1.5h1.5v1.5h1.5v1.5h-4.5v-1.5h-1.5v-1.5h-1.5v3Z" transform="translate(-165.86 -78.83)"/><path class="cls-1" d="M191.36,89.33v-1.5h3v-7.5h-3v-1.5h9v1.5h-3v7.5h3v1.5Z" transform="translate(-165.86 -78.83)"/><path class="cls-1" d="M203.36,89.33V78.83h3v9h6v1.5Z" transform="translate(-165.86 -78.83)"/><path class="cls-1" d="M215.36,89.33V78.83h3v9h6v1.5Z" transform="translate(-165.86 -78.83)"/><path class="cls-1" d="M227.36,89.33v-1.5h-1.5v-1.5h3v1.5h4.5v-3h-6v-1.5h-1.5v-3h1.5v-1.5h7.5v1.5h1.5v1.5h-3v-1.5h-4.5v3h6v1.5h1.5v3h-1.5v1.5Z" transform="translate(-165.86 -78.83)"/></svg>