<svg id="레이어_1" data-name="레이어 1" xmlns="http://www.w3.org/2000/svg" viewBox="0 0 66 18"><defs><style>.cls-1{fill:#fcf6f5;}.cls-2{fill:none;stroke:#f10058;stroke-miterlimit:10;}</style></defs><title>stop</title><path class="cls-1" d="M3.2,39.36v-1.5H1.7v-1.5h3v1.5H9.2v-3h-6v-1.5H1.7v-3H3.2v-1.5h7.5v1.5h1.5v1.5h-3v-1.5H4.7v3h6v1.5h1.5v3H10.7v1.5Z" transform="translate(8 -25)"/><path class="cls-1" d="M18.2,39.36v-9h-3v-1.5h9v1.5h-3v9Z" transform="translate(8 -25)"/><path class="cls-1" d="M27.2,39.36v-1.5H25.7v-7.5h1.5v-1.5h7.5v1.5h1.5v7.5H34.7v1.5Zm1.5-1.5h4.5v-7.5H28.7Z" transform="translate(8 -25)"/><path class="cls-1" d="M37.7,39.36V28.86h9v1.5h1.5v4.5H46.7v1.5h-6v3Zm3-4.5h4.5v-4.5H40.7Z" transform="translate(8 -25)"/><rect class="cls-2" x="0.5" y="0.5" width="65" height="17" rx="4"/></svg>