<svg id="레이어_1" data-name="레이어 1" xmlns="http://www.w3.org/2000/svg" viewBox="0 0 300.3 112.24"><defs><style>.cls-1,.cls-8{fill:#5a5858;}.cls-2{fill:#6f6f6f;}.cls-2,.cls-4,.cls-5,.cls-8,.cls-9{opacity:0.6;}.cls-3{fill:#fcf6f5;}.cls-4{fill:#f08d9d;}.cls-5{fill:#89abe2;}.cls-6{fill:#97e9ff;}.cls-6,.cls-7{opacity:0.8;}.cls-7{fill:#ffcbef;}.cls-9{fill:#343434;}</style></defs><title>works_myspace</title><path class="cls-1" d="M98.51,54.87V42.62H102v1.75h1.75v1.75h1.75V44.37h1.75V42.62h3.5V54.87h-3.5v-7h-1.75v3.5h-1.75v-3.5H102v7Z" transform="translate(-97 -42.62)"/><path class="cls-1" d="M114.26,56.62V54.87h7V53.12h-7V51.37h-1.75V46.12H116v5.25h5.25V46.12h3.5v8.75H123v1.75Z" transform="translate(-97 -42.62)"/><path class="cls-1" d="M142.26,54.87V53.12h-1.75V51.37H144v1.75h5.25v-3.5h-7V47.87h-1.75v-3.5h1.75V42.62H151v1.75h1.75v1.75h-3.5V44.37H144v3.5h7v1.75h1.75v3.5H151v1.75Z" transform="translate(-97 -42.62)"/><path class="cls-1" d="M154.51,56.62V46.12H165v1.75h1.75v3.5H165v1.75h-7v3.5Zm3.5-5.25h5.25v-3.5H158Z" transform="translate(-97 -42.62)"/><path class="cls-1" d="M170.26,54.87V53.12h-1.75V51.37h1.75V49.62h7V47.87h-7V46.12H179v1.75h1.75v7ZM172,53.12h5.25V51.37H172Z" transform="translate(-97 -42.62)"/><path class="cls-1" d="M184.26,54.87V53.12h-1.75V47.87h1.75V46.12h10.5v1.75H186v5.25h8.75v1.75Z" transform="translate(-97 -42.62)"/><path class="cls-1" d="M198.26,54.87V53.12h-1.75V47.87h1.75V46.12H207v1.75h1.75v3.5H200v1.75h7v1.75ZM200,49.62h5.25V47.87H200Z" transform="translate(-97 -42.62)"/><rect class="cls-2" y="23.38" width="80" height="18" rx="3"/><path class="cls-3" d="M110.54,75.5l.06.61h-2.4v1.7h3v.7h-6.83v-.76h3.14V76h-2.36v-.68h.8l.27-2.77-.91-.08.07-.65h4.87v.9h-.78v2.72ZM107,72.67l-.24,2.78h2V72.67Z" transform="translate(-97 -42.62)"/><path class="cls-3" d="M119.25,78.67h-6.8V78h6.8Zm-1.15-2.81v.64H114l-.37-.49V72.42h4v.51h-3.32V74h3.52v.57h-3.52v1.17Z" transform="translate(-97 -42.62)"/><path class="cls-3" d="M126.22,73.53l.06.61h-2v1h3v.69H120.5v-.75h3.15V74h-2.11v-.68h.8l.27-1.74-.84-.08.08-.64h4.34v.89h-.73l-.13,1.68Zm-4.49,3h4.65v2.17H122v.86H127v.51h-5.24l-.33-.2v-1.8h4.32v-1h-4Zm1.56-4.86-.23,1.81h1.6l.14-1.73Z" transform="translate(-97 -42.62)"/><path class="cls-3" d="M128.8,72.77v-.6H132l.2,2.42-3,.33v1.54h3.4l0,.61H128.9l-.37-.2V74.31l3-.29-.1-1.23Zm5.2,5V71.09h.8v6.68Z" transform="translate(-97 -42.62)"/><path class="cls-3" d="M137.9,73.92s0,0,0-.08v-.07a1.67,1.67,0,0,1,.14-.69,1.38,1.38,0,0,1,.4-.53,1.72,1.72,0,0,1,.61-.34,2.49,2.49,0,0,1,.8-.12,2.94,2.94,0,0,1,1,.14,1.9,1.9,0,0,1,.69.38,1.48,1.48,0,0,1,.4.56,1.65,1.65,0,0,1,.13.66,1.56,1.56,0,0,1-.49,1.18,1.66,1.66,0,0,1-.54.34,2,2,0,0,1-.64.17l0,2.09h3v.71H136.6v-.76h3.14l-.05-2a2.79,2.79,0,0,1-.59-.14,2.17,2.17,0,0,1-.56-.3,2,2,0,0,1-.44-.48A1.47,1.47,0,0,1,137.9,73.92ZM140,72.69a2.25,2.25,0,0,0-.52.07A1.55,1.55,0,0,0,139,73a1,1,0,0,0-.3.36,1.13,1.13,0,0,0-.11.51.86.86,0,0,0,.12.47,1.19,1.19,0,0,0,.34.33,1.71,1.71,0,0,0,.48.18,2.67,2.67,0,0,0,.56.06,1.62,1.62,0,0,0,.57-.09,1.24,1.24,0,0,0,.4-.25,1,1,0,0,0,.23-.35,1.14,1.14,0,0,0,.08-.4A.92.92,0,0,0,141,73,1.79,1.79,0,0,0,140,72.69Z" transform="translate(-97 -42.62)"/><path class="cls-3" d="M147.14,77.61l-.47-.46,1.68-2.43.14-2.13h.62V74.7L151,77.05l-.35.47-1.95-2.15ZM152.67,79,152,78.9v-7h.8v3h1.48v.62h-1.56Z" transform="translate(-97 -42.62)"/><path class="cls-3" d="M155.25,74.37a4.07,4.07,0,0,1,.08-.74,2.69,2.69,0,0,1,.28-.73,1.76,1.76,0,0,1,.55-.57,1.5,1.5,0,0,1,.86-.22,1.46,1.46,0,0,1,.84.22,1.79,1.79,0,0,1,.56.57,2.19,2.19,0,0,1,.29.73,3.17,3.17,0,0,1,0,1.5,2.11,2.11,0,0,1-.29.73,1.7,1.7,0,0,1-.56.54,1.69,1.69,0,0,1-1.67,0,1.7,1.7,0,0,1-.56-.54,2.11,2.11,0,0,1-.29-.73A3.42,3.42,0,0,1,155.25,74.37Zm.64,0a3.49,3.49,0,0,0,.05.53,1.66,1.66,0,0,0,.18.53,1.19,1.19,0,0,0,.34.4A.93.93,0,0,0,157,76a.91.91,0,0,0,.56-.16,1.35,1.35,0,0,0,.35-.4,1.66,1.66,0,0,0,.18-.53,3.49,3.49,0,0,0,0-.53,2.61,2.61,0,0,0-.06-.53,1.61,1.61,0,0,0-.18-.52,1.14,1.14,0,0,0-.34-.41.91.91,0,0,0-.56-.16.94.94,0,0,0-.57.16,1.14,1.14,0,0,0-.34.41,1.59,1.59,0,0,0-.17.52A3.49,3.49,0,0,0,155.89,74.37Zm4.79,3.4V71.09h.8v6.68Z" transform="translate(-97 -42.62)"/><path class="cls-3" d="M170.07,78.67h-6.8V78h6.8Zm-1.15-2.81v.64H164.8l-.37-.49V72.42h4v.51h-3.32V74h3.52v.57h-3.52v1.17Z" transform="translate(-97 -42.62)"/><rect class="cls-4" x="85" y="23.38" width="30" height="18" rx="3"/><path class="cls-3" d="M192.73,71.85l-1.46,5-.67-.13L192,72.13h-2.56l.06-.76h3Zm3.05-.72.66.24v6h-.66V74.22h-1.12v3.06H194V71.15h.7v2.4h1.12Z" transform="translate(-97 -42.62)"/><path class="cls-3" d="M197.73,73.46a2.61,2.61,0,0,1,.1-.75,1.86,1.86,0,0,1,.33-.64,1.6,1.6,0,0,1,.55-.44,1.87,1.87,0,0,1,.82-.17,1.68,1.68,0,0,1,.86.25,1.71,1.71,0,0,1,.54.53,2.27,2.27,0,0,1,.28.64,2.84,2.84,0,0,1,.08.58,3.1,3.1,0,0,1-.08.61,2,2,0,0,1-.27.65,1.59,1.59,0,0,1-1.43.75,1.64,1.64,0,0,1-.83-.2,1.7,1.7,0,0,1-.54-.49,2,2,0,0,1-.31-.66A2.3,2.3,0,0,1,197.73,73.46Zm.63,0a.43.43,0,0,0,0,.05v0a1.35,1.35,0,0,0,.1.55,1.05,1.05,0,0,0,.29.39,1.36,1.36,0,0,0,.38.24,1.25,1.25,0,0,0,.42.08.91.91,0,0,0,.43-.1,1.07,1.07,0,0,0,.35-.29,1.47,1.47,0,0,0,.23-.43,1.61,1.61,0,0,0,.09-.54,2.26,2.26,0,0,0-.09-.53,1.47,1.47,0,0,0-.23-.43,1.21,1.21,0,0,0-.35-.29,1,1,0,0,0-1.27.25A1.62,1.62,0,0,0,198.36,73.46Zm1.58,5.68V76.78h.66v2h3.54l0,.62h-4Zm3.83-8.3v6.09h-.71V70.82Z" transform="translate(-97 -42.62)"/><rect class="cls-5" x="120" y="23.38" width="30" height="18" rx="3"/><path class="cls-3" d="M228.45,77.81h2.09v.55l-1,0c-.35,0-.7,0-1,0l-.46,0-.43,0-.12-.41a3.09,3.09,0,0,1,.36-.46l.53-.55q.28-.3.57-.63a5.76,5.76,0,0,0,.53-.69,3.9,3.9,0,0,0,.39-.76,2.18,2.18,0,0,0,.15-.8,2.34,2.34,0,0,0-.06-.5,1.63,1.63,0,0,0-.2-.49,1.12,1.12,0,0,0-.38-.37,1.1,1.1,0,0,0-.59-.15,2.27,2.27,0,0,0-.5.06,1.52,1.52,0,0,0-.48.23,1.23,1.23,0,0,0-.37.46,1.6,1.6,0,0,0-.15.74,1.78,1.78,0,0,0,.16.75l-.57.17a2.85,2.85,0,0,1-.16-1,2.29,2.29,0,0,1,.16-.9,1.76,1.76,0,0,1,.45-.64,1.7,1.7,0,0,1,.66-.39,2.26,2.26,0,0,1,.79-.14,1.78,1.78,0,0,1,.71.15,1.87,1.87,0,0,1,.59.42,1.9,1.9,0,0,1,.41.64,2.24,2.24,0,0,1,.15.84,2.62,2.62,0,0,1-.13.83,4.28,4.28,0,0,1-.34.79,5.41,5.41,0,0,1-.45.72c-.17.23-.33.43-.49.62l-.45.5C228.63,77.6,228.53,77.72,228.45,77.81Z" transform="translate(-97 -42.62)"/><path class="cls-3" d="M234.92,77h-3.26v-.7h6.87v.74H235.6v2.4h-.68Zm-2.25-2.17,2.07-1.75V72h-1.91v-.6h4.43v.58h-1.77v1.2l1.95,1.66-.39.48-2-1.56-1.94,1.66Z" transform="translate(-97 -42.62)"/><rect class="cls-6" y="45.38" width="40" height="18" rx="3"/><path class="cls-3" d="M105.21,96.46v3.94h-.86V92.92l.56-.52.54-.06.55,0a6.26,6.26,0,0,1,1.23.12,4,4,0,0,1,1.06.39,2.26,2.26,0,0,1,.76.67,1.73,1.73,0,0,1,.29,1,1.8,1.8,0,0,1-.69,1.5,2.21,2.21,0,0,1-.72.36,4.42,4.42,0,0,1-.82.17l1.85,3-.61.42-2.06-3.32-.55,0A1.61,1.61,0,0,1,105.21,96.46Zm.05-.71a3.72,3.72,0,0,0,1,.13,5.35,5.35,0,0,0,.79-.06,2.75,2.75,0,0,0,.72-.22,1.47,1.47,0,0,0,.52-.43,1.11,1.11,0,0,0,.2-.67,1.07,1.07,0,0,0-.18-.61,1.31,1.31,0,0,0-.48-.45,2.85,2.85,0,0,0-.73-.28,3.62,3.62,0,0,0-.89-.1l-.45,0-.46.07c0,.42-.06.85-.07,1.32S105.26,95.36,105.26,95.75Z" transform="translate(-97 -42.62)"/><path class="cls-3" d="M110.16,97.28a2.73,2.73,0,0,1,.19-1.09,2,2,0,0,1,.47-.7,1.65,1.65,0,0,1,.64-.37,2.08,2.08,0,0,1,.68-.12,2.47,2.47,0,0,1,.84.14,1.57,1.57,0,0,1,.64.44,2.08,2.08,0,0,1,.4.83,4.6,4.6,0,0,1,.15,1.27l-3.26.31a1.18,1.18,0,0,0,.55.93,1.68,1.68,0,0,0,.48.2,2.33,2.33,0,0,0,.53.06,3,3,0,0,0,.85-.13,1.5,1.5,0,0,0,.61-.32l.21.56a.91.91,0,0,1-.24.24,1.78,1.78,0,0,1-.39.2,2.44,2.44,0,0,1-.5.14,2.62,2.62,0,0,1-.57.06,3,3,0,0,1-.82-.13,1.94,1.94,0,0,1-.74-.44,2.18,2.18,0,0,1-.52-.81A3.35,3.35,0,0,1,110.16,97.28Zm.68,0,2.58-.28a1.36,1.36,0,0,0-.31-.92,1.24,1.24,0,0,0-1-.35,1.26,1.26,0,0,0-.57.15,1.3,1.3,0,0,0-.41.32,1.18,1.18,0,0,0-.24.44,1.42,1.42,0,0,0-.08.5A.53.53,0,0,0,110.84,97.3Z" transform="translate(-97 -42.62)"/><path class="cls-3" d="M119.11,96.22l.75,3.19-.7.26-.42-2a3.62,3.62,0,0,1-.26.68,2.94,2.94,0,0,1-.42.64,2.09,2.09,0,0,1-.6.46,1.66,1.66,0,0,1-.77.19,1.43,1.43,0,0,1-1.18-.5,2.12,2.12,0,0,1-.41-1.38,3.57,3.57,0,0,1,.16-1,3.42,3.42,0,0,1,.45-1,2.72,2.72,0,0,1,.77-.74,2,2,0,0,1,1.08-.29,1.19,1.19,0,0,1,.64.16,1.49,1.49,0,0,1,.47.39,2.1,2.1,0,0,1,.29.5A2.79,2.79,0,0,1,119.11,96.22Zm-1.43-.68-.16,0h-.16a1.1,1.1,0,0,0-.65.21,2,2,0,0,0-.48.55,2.94,2.94,0,0,0-.29.71,2.76,2.76,0,0,0-.1.72,1.48,1.48,0,0,0,.22.83.82.82,0,0,0,.71.32,1,1,0,0,0,.61-.22,2.29,2.29,0,0,0,.48-.54,3.21,3.21,0,0,0,.31-.73,2.81,2.81,0,0,0,.11-.73,1.4,1.4,0,0,0-.15-.66A.92.92,0,0,0,117.68,95.54Z" transform="translate(-97 -42.62)"/><path class="cls-3" d="M124.71,95.4l-.21.75a2.45,2.45,0,0,0-.73-.45,2,2,0,0,0-.76-.14,1.52,1.52,0,0,0-.6.11,1.29,1.29,0,0,0-.5.33,1.58,1.58,0,0,0-.33.55,2.18,2.18,0,0,0-.13.75,2.32,2.32,0,0,0,.14.85,1.55,1.55,0,0,0,.36.55,1.32,1.32,0,0,0,.51.3,2,2,0,0,0,.59.09,1.4,1.4,0,0,0,.53-.11,1.44,1.44,0,0,0,.48-.28,1.65,1.65,0,0,0,.35-.43,1.35,1.35,0,0,0,.16-.57l.66.33a2,2,0,0,1-.22.82,1.85,1.85,0,0,1-.49.58,2.06,2.06,0,0,1-.69.36,3,3,0,0,1-.79.11,2.55,2.55,0,0,1-.86-.15,2.29,2.29,0,0,1-.75-.48,2.43,2.43,0,0,1-.53-.8,3.09,3.09,0,0,1-.2-1.14,3,3,0,0,1,.17-1,2.43,2.43,0,0,1,.46-.8A2.1,2.1,0,0,1,122,95a2.18,2.18,0,0,1,.89-.18,2.71,2.71,0,0,1,.86.14A4.69,4.69,0,0,1,124.71,95.4Z" transform="translate(-97 -42.62)"/><path class="cls-3" d="M126.85,99.43V95.88h-1.2l.07-.85H127V92.64h.8v2.44h1.92v.84h-2v3l1.77-.33.12.79-2.34.5Z" transform="translate(-97 -42.62)"/><rect class="cls-6" x="45.5" y="45.38" width="75" height="18" rx="3"/><path class="cls-3" d="M149.21,96.46v3.94h-.86V92.92l.56-.52.54-.06.55,0a6.26,6.26,0,0,1,1.23.12,4,4,0,0,1,1.06.39,2.26,2.26,0,0,1,.76.67,1.73,1.73,0,0,1,.29,1,1.8,1.8,0,0,1-.69,1.5,2.21,2.21,0,0,1-.72.36,4.42,4.42,0,0,1-.82.17l1.85,3-.61.42-2.06-3.32-.55,0A1.61,1.61,0,0,1,149.21,96.46Zm0-.71a3.72,3.72,0,0,0,1.05.13,5.35,5.35,0,0,0,.79-.06,2.75,2.75,0,0,0,.72-.22,1.47,1.47,0,0,0,.52-.43,1.11,1.11,0,0,0,.2-.67,1.07,1.07,0,0,0-.18-.61,1.31,1.31,0,0,0-.48-.45,2.85,2.85,0,0,0-.73-.28,3.62,3.62,0,0,0-.89-.1l-.45,0-.46.07c0,.42-.06.85-.07,1.32S149.26,95.36,149.26,95.75Z" transform="translate(-97 -42.62)"/><path class="cls-3" d="M154.16,97.28a2.73,2.73,0,0,1,.19-1.09,2,2,0,0,1,.47-.7,1.65,1.65,0,0,1,.64-.37,2.08,2.08,0,0,1,.68-.12,2.47,2.47,0,0,1,.84.14,1.57,1.57,0,0,1,.64.44,2.08,2.08,0,0,1,.4.83,4.6,4.6,0,0,1,.15,1.27l-3.26.31a1.18,1.18,0,0,0,.55.93,1.68,1.68,0,0,0,.48.2,2.33,2.33,0,0,0,.53.06,3,3,0,0,0,.85-.13,1.5,1.5,0,0,0,.61-.32l.21.56a.91.91,0,0,1-.24.24,1.78,1.78,0,0,1-.39.2,2.44,2.44,0,0,1-.5.14,2.62,2.62,0,0,1-.57.06,3,3,0,0,1-.82-.13,1.94,1.94,0,0,1-.74-.44,2.18,2.18,0,0,1-.52-.81A3.35,3.35,0,0,1,154.16,97.28Zm.68,0,2.58-.28a1.36,1.36,0,0,0-.31-.92,1.24,1.24,0,0,0-1-.35,1.26,1.26,0,0,0-.57.15,1.3,1.3,0,0,0-.41.32,1.18,1.18,0,0,0-.24.44,1.42,1.42,0,0,0-.08.5A.53.53,0,0,0,154.84,97.3Z" transform="translate(-97 -42.62)"/><path class="cls-3" d="M163.11,96.22l.75,3.19-.7.26-.42-2a3.62,3.62,0,0,1-.26.68,2.94,2.94,0,0,1-.42.64,2.09,2.09,0,0,1-.6.46,1.66,1.66,0,0,1-.77.19,1.43,1.43,0,0,1-1.18-.5,2.12,2.12,0,0,1-.41-1.38,3.57,3.57,0,0,1,.16-1,3.42,3.42,0,0,1,.45-1,2.72,2.72,0,0,1,.77-.74,2,2,0,0,1,1.08-.29,1.19,1.19,0,0,1,.64.16,1.49,1.49,0,0,1,.47.39,2.1,2.1,0,0,1,.29.5A2.79,2.79,0,0,1,163.11,96.22Zm-1.43-.68-.16,0h-.16a1.1,1.1,0,0,0-.65.21,2,2,0,0,0-.48.55,2.94,2.94,0,0,0-.29.71,2.76,2.76,0,0,0-.1.72,1.48,1.48,0,0,0,.22.83.82.82,0,0,0,.71.32,1,1,0,0,0,.61-.22,2.29,2.29,0,0,0,.48-.54,3.21,3.21,0,0,0,.31-.73,2.81,2.81,0,0,0,.11-.73,1.4,1.4,0,0,0-.15-.66A.92.92,0,0,0,161.68,95.54Z" transform="translate(-97 -42.62)"/><path class="cls-3" d="M168.71,95.4l-.21.75a2.45,2.45,0,0,0-.73-.45,2,2,0,0,0-.76-.14,1.52,1.52,0,0,0-.6.11,1.29,1.29,0,0,0-.5.33,1.58,1.58,0,0,0-.33.55,2.18,2.18,0,0,0-.13.75,2.32,2.32,0,0,0,.14.85,1.55,1.55,0,0,0,.36.55,1.32,1.32,0,0,0,.51.3,2,2,0,0,0,.59.09,1.4,1.4,0,0,0,.53-.11,1.44,1.44,0,0,0,.48-.28,1.65,1.65,0,0,0,.35-.43,1.35,1.35,0,0,0,.16-.57l.66.33a2,2,0,0,1-.22.82,1.85,1.85,0,0,1-.49.58,2.06,2.06,0,0,1-.69.36,3,3,0,0,1-.79.11,2.55,2.55,0,0,1-.86-.15,2.29,2.29,0,0,1-.75-.48,2.43,2.43,0,0,1-.53-.8,3.09,3.09,0,0,1-.2-1.14,3,3,0,0,1,.17-1,2.43,2.43,0,0,1,.46-.8A2.1,2.1,0,0,1,166,95a2.18,2.18,0,0,1,.89-.18,2.71,2.71,0,0,1,.86.14A4.69,4.69,0,0,1,168.71,95.4Z" transform="translate(-97 -42.62)"/><path class="cls-3" d="M170.85,99.43V95.88h-1.2l.07-.85H171V92.64h.8v2.44h1.92v.84h-2v3l1.77-.33.12.79-2.34.5Z" transform="translate(-97 -42.62)"/><path class="cls-3" d="M183.43,96.48h-6.05l.05-.63h6Z" transform="translate(-97 -42.62)"/><path class="cls-3" d="M191.68,95.36V92.19h.68v7.48h-.51V96.06h-3.47v3.61h-1V92.22h1.1v3.14Z" transform="translate(-97 -42.62)"/><path class="cls-3" d="M195.62,94.77a2.13,2.13,0,0,1,1,.21,1.8,1.8,0,0,1,.67.58,2.59,2.59,0,0,1,.38.86,4.34,4.34,0,0,1,.11,1,3.21,3.21,0,0,1-.2,1.09,2.33,2.33,0,0,1-.47.77,2,2,0,0,1-1.43.6,1.88,1.88,0,0,1-1.58-.78,2.51,2.51,0,0,1-.4-.82,3.51,3.51,0,0,1-.13-1,3.42,3.42,0,0,1,.14-1,2.86,2.86,0,0,1,.41-.82,1.88,1.88,0,0,1,.65-.54A1.84,1.84,0,0,1,195.62,94.77Zm.07.8a1.28,1.28,0,0,0-1,.4,1.8,1.8,0,0,0-.37,1.27,2.65,2.65,0,0,0,.09.68,2,2,0,0,0,.27.6,1.61,1.61,0,0,0,.42.44,1,1,0,0,0,.55.17,1.17,1.17,0,0,0,.58-.15,1.36,1.36,0,0,0,.43-.4,1.92,1.92,0,0,0,.28-.53,2.05,2.05,0,0,0,.09-.58,2.33,2.33,0,0,0-.36-1.47A1.21,1.21,0,0,0,195.69,95.57Z" transform="translate(-97 -42.62)"/><path class="cls-3" d="M200.26,94.77a2.2,2.2,0,0,1,1,.21,1.85,1.85,0,0,1,.66.58,2.4,2.4,0,0,1,.38.86,4.32,4.32,0,0,1,.12,1,3.46,3.46,0,0,1-.21,1.09,2.33,2.33,0,0,1-.47.77,2,2,0,0,1-1.43.6,1.88,1.88,0,0,1-1.58-.78,2.51,2.51,0,0,1-.4-.82,3.51,3.51,0,0,1-.13-1,3.77,3.77,0,0,1,.14-1,2.86,2.86,0,0,1,.41-.82,1.88,1.88,0,0,1,.65-.54A1.84,1.84,0,0,1,200.26,94.77Zm.07.8a1.28,1.28,0,0,0-1,.4,1.8,1.8,0,0,0-.37,1.27,2.65,2.65,0,0,0,.09.68,2,2,0,0,0,.27.6,1.61,1.61,0,0,0,.42.44,1,1,0,0,0,.55.17,1.14,1.14,0,0,0,.58-.15,1.36,1.36,0,0,0,.43-.4,1.92,1.92,0,0,0,.28-.53,2.08,2.08,0,0,0,.1-.58A2.32,2.32,0,0,0,201.3,96,1.21,1.21,0,0,0,200.33,95.57Z" transform="translate(-97 -42.62)"/><path class="cls-3" d="M203.82,97.13l2.88-2.59.52.68-1.55,1.47,2.16,2.56-.47.65-2.3-2.63-1,.91v1.58l-.7.1V92.1l.42-.14Z" transform="translate(-97 -42.62)"/><path class="cls-3" d="M211.72,95.22l-.16.7a1.79,1.79,0,0,0-.26-.1,2.47,2.47,0,0,0-.35-.1l-.41-.08-.4,0a1.58,1.58,0,0,0-.61.11.39.39,0,0,0-.25.37.39.39,0,0,0,.21.34,1.79,1.79,0,0,0,.5.24,3.83,3.83,0,0,0,.58.16l.45.1a1.89,1.89,0,0,1,.57.27,1.94,1.94,0,0,1,.34.37,1.42,1.42,0,0,1,.17.4,2,2,0,0,1,0,.41,1.23,1.23,0,0,1-.19.71,1.57,1.57,0,0,1-.49.47,2.17,2.17,0,0,1-.67.26,3.08,3.08,0,0,1-.73.08,3.81,3.81,0,0,1-1.08-.15,2.15,2.15,0,0,1-.8-.41l.28-.8a2.22,2.22,0,0,0,.34.22,2.65,2.65,0,0,0,.42.18,2.61,2.61,0,0,0,.5.11,2.89,2.89,0,0,0,.5,0,1.65,1.65,0,0,0,.75-.16.74.74,0,0,0,.4-.57,1.76,1.76,0,0,0,0-.19.6.6,0,0,0-.08-.21.63.63,0,0,0-.2-.2.89.89,0,0,0-.38-.13,6.94,6.94,0,0,1-.89-.19,2.75,2.75,0,0,1-.69-.29,1.5,1.5,0,0,1-.47-.43,1,1,0,0,1-.17-.59,1.07,1.07,0,0,1,.44-.95,2.33,2.33,0,0,1,1.28-.29,4.12,4.12,0,0,1,.86.09A2.36,2.36,0,0,1,211.72,95.22Z" transform="translate(-97 -42.62)"/><rect class="cls-7" x="125.5" y="45.38" width="92" height="18" rx="3"/><path class="cls-3" d="M231.56,95.22l-.17.7a1.28,1.28,0,0,0-.25-.1l-.35-.1-.41-.08-.41,0a1.57,1.57,0,0,0-.6.11.37.37,0,0,0-.25.37.39.39,0,0,0,.21.34,1.79,1.79,0,0,0,.5.24,4,4,0,0,0,.57.16l.45.1a1.68,1.68,0,0,1,.57.27,1.45,1.45,0,0,1,.34.37,1.18,1.18,0,0,1,.17.4,2,2,0,0,1,0,.41,1.24,1.24,0,0,1-.2.71,1.47,1.47,0,0,1-.49.47,2.08,2.08,0,0,1-.67.26,3,3,0,0,1-.73.08,3.79,3.79,0,0,1-1.07-.15,2.07,2.07,0,0,1-.8-.41l.28-.8a1.72,1.72,0,0,0,.33.22,2.41,2.41,0,0,0,.43.18,2.68,2.68,0,0,0,.49.11,2.92,2.92,0,0,0,.51,0,1.65,1.65,0,0,0,.75-.16.73.73,0,0,0,.39-.57,1.42,1.42,0,0,0,0-.19.48.48,0,0,0-.09-.21.59.59,0,0,0-.19-.2.89.89,0,0,0-.39-.13,6.77,6.77,0,0,1-.88-.19,3,3,0,0,1-.7-.29,1.47,1.47,0,0,1-.46-.43,1,1,0,0,1-.17-.59,1.06,1.06,0,0,1,.43-.95,2.35,2.35,0,0,1,1.28-.29,4,4,0,0,1,.86.09A2.44,2.44,0,0,1,231.56,95.22Z" transform="translate(-97 -42.62)"/><path class="cls-3" d="M233.5,99.43V95.88h-1.19l.07-.85h1.29V92.64h.79v2.44h1.92v.84h-2v3l1.77-.33.12.79-2.35.5Z" transform="translate(-97 -42.62)"/><path class="cls-3" d="M238.75,99l-2-3.54.64-.5L239.07,98l1.13-3.36.66.35-2.3,6.75-.63-.4Z" transform="translate(-97 -42.62)"/><path class="cls-3" d="M241.56,99.06V92l.78,0v6.82l.77.19-.07.85-1.29-.26Z" transform="translate(-97 -42.62)"/><path class="cls-3" d="M243.86,97.28a2.73,2.73,0,0,1,.19-1.09,2,2,0,0,1,.47-.7,1.73,1.73,0,0,1,.64-.37,2.12,2.12,0,0,1,.68-.12,2.52,2.52,0,0,1,.85.14,1.47,1.47,0,0,1,.63.44,2.22,2.22,0,0,1,.41.83,5.07,5.07,0,0,1,.14,1.27l-3.26.31a1.18,1.18,0,0,0,.55.93,1.68,1.68,0,0,0,.48.2,2.33,2.33,0,0,0,.53.06,3,3,0,0,0,.85-.13,1.5,1.5,0,0,0,.61-.32l.22.56a1.16,1.16,0,0,1-.25.24,1.78,1.78,0,0,1-.39.2,2.27,2.27,0,0,1-.5.14,2.6,2.6,0,0,1-.56.06,2.87,2.87,0,0,1-.82-.13,1.87,1.87,0,0,1-.74-.44,2.08,2.08,0,0,1-.53-.81A3.56,3.56,0,0,1,243.86,97.28Zm.68,0,2.58-.28a1.31,1.31,0,0,0-.31-.92,1.24,1.24,0,0,0-1-.35,1.33,1.33,0,0,0-1,.47,1.36,1.36,0,0,0-.25.44,1.69,1.69,0,0,0-.08.5A.53.53,0,0,0,244.54,97.3Z" transform="translate(-97 -42.62)"/><path class="cls-3" d="M252.7,91.7v7.55l-.31.37a6.13,6.13,0,0,1-.72.17,5,5,0,0,1-.65,0,2.83,2.83,0,0,1-1.2-.22A2.16,2.16,0,0,1,249,99a2.33,2.33,0,0,1-.44-.8,3.14,3.14,0,0,1-.14-.91,2.72,2.72,0,0,1,.2-1.09,2.31,2.31,0,0,1,.53-.75,2,2,0,0,1,.72-.42,2.63,2.63,0,0,1,.83-.14,2.46,2.46,0,0,1,1.24.31l0-3.54Zm-.78,4.55a1.73,1.73,0,0,0-.58-.37,1.84,1.84,0,0,0-.65-.13,1.66,1.66,0,0,0-.54.1,1.31,1.31,0,0,0-.46.3,1.37,1.37,0,0,0-.33.48,1.71,1.71,0,0,0-.12.67,1.75,1.75,0,0,0,.15.76,1.42,1.42,0,0,0,.41.52,1.77,1.77,0,0,0,.58.3,2.69,2.69,0,0,0,.7.1,1.92,1.92,0,0,0,.84-.18Z" transform="translate(-97 -42.62)"/><path class="cls-3" d="M259.68,96.48h-6.05l.05-.63h6.05Z" transform="translate(-97 -42.62)"/><path class="cls-3" d="M264.46,95.4l-.21.75a2.4,2.4,0,0,0-.72-.45,2.13,2.13,0,0,0-.77-.14,1.52,1.52,0,0,0-.6.11,1.29,1.29,0,0,0-.5.33,1.58,1.58,0,0,0-.33.55,2.19,2.19,0,0,0-.12.75,2.34,2.34,0,0,0,.13.85,1.55,1.55,0,0,0,.36.55,1.32,1.32,0,0,0,.51.3,2,2,0,0,0,.59.09,1.4,1.4,0,0,0,.53-.11,1.44,1.44,0,0,0,.48-.28,1.65,1.65,0,0,0,.35-.43,1.35,1.35,0,0,0,.16-.57L265,98a2,2,0,0,1-.22.82,1.85,1.85,0,0,1-.49.58,2.06,2.06,0,0,1-.69.36,3,3,0,0,1-.79.11,2.55,2.55,0,0,1-.86-.15,2.29,2.29,0,0,1-.75-.48,2.43,2.43,0,0,1-.53-.8,3.1,3.1,0,0,1-.19-1.14,3,3,0,0,1,.16-1,2.43,2.43,0,0,1,.46-.8,2.1,2.1,0,0,1,.69-.52,2.18,2.18,0,0,1,.89-.18,2.71,2.71,0,0,1,.86.14A4.69,4.69,0,0,1,264.46,95.4Z" transform="translate(-97 -42.62)"/><path class="cls-3" d="M267.53,94.77a2.17,2.17,0,0,1,1,.21,1.88,1.88,0,0,1,.67.58,2.58,2.58,0,0,1,.37.86,4.32,4.32,0,0,1,.12,1,3.2,3.2,0,0,1-.21,1.09,2.18,2.18,0,0,1-.47.77,2,2,0,0,1-1.43.6,1.92,1.92,0,0,1-.92-.21,2,2,0,0,1-.66-.57,2.7,2.7,0,0,1-.39-.82,3.52,3.52,0,0,1-.14-1,3.42,3.42,0,0,1,.15-1,2.43,2.43,0,0,1,.41-.82,1.85,1.85,0,0,1,.64-.54A1.87,1.87,0,0,1,267.53,94.77Zm.07.8a1.3,1.3,0,0,0-1,.4,1.8,1.8,0,0,0-.37,1.27,2.65,2.65,0,0,0,.09.68,2.74,2.74,0,0,0,.27.6A1.51,1.51,0,0,0,267,99a.94.94,0,0,0,.55.17,1.1,1.1,0,0,0,.57-.15,1.27,1.27,0,0,0,.43-.4,1.92,1.92,0,0,0,.28-.53,1.77,1.77,0,0,0,.1-.58,2.26,2.26,0,0,0-.37-1.47A1.21,1.21,0,0,0,267.6,95.57Z" transform="translate(-97 -42.62)"/><path class="cls-3" d="M270.28,94.77l.72-.16.06.51h4.3l.54.61v3.66l-.49.07v-3.1l-.47-.63h-1.2v3.82h-.68V95.83h-1.92l.4,3.84-.75.09Z" transform="translate(-97 -42.62)"/><path class="cls-3" d="M281.06,96.9v.25a2.75,2.75,0,0,1-.2,1.11,2,2,0,0,1-.5.71,1.67,1.67,0,0,1-.66.37,2.53,2.53,0,0,1-.69.11,2.24,2.24,0,0,1-.7-.1,1.32,1.32,0,0,1-.49-.22l.1,2.62-.73.08V95.45l.07-.54a7.05,7.05,0,0,1,1.5-.2,2.32,2.32,0,0,1,1.67.55A2.27,2.27,0,0,1,281.06,96.9Zm-3.35-1.17,0,2.32a.27.27,0,0,0,.13.14,1.11,1.11,0,0,0,.29.16,3.14,3.14,0,0,0,.4.13,2.31,2.31,0,0,0,.46,0,1.41,1.41,0,0,0,.45-.07,1,1,0,0,0,.41-.27,1.41,1.41,0,0,0,.3-.5,2.23,2.23,0,0,0,.12-.79,1.47,1.47,0,0,0-.14-.64,1.33,1.33,0,0,0-.36-.45,1.61,1.61,0,0,0-.52-.27,2,2,0,0,0-.59-.09,1.93,1.93,0,0,0-.53.07A1.75,1.75,0,0,0,277.71,95.73Z" transform="translate(-97 -42.62)"/><path class="cls-3" d="M283.59,94.77a2.13,2.13,0,0,1,1,.21,1.8,1.8,0,0,1,.67.58,2.59,2.59,0,0,1,.38.86,4.34,4.34,0,0,1,.11,1,3.21,3.21,0,0,1-.2,1.09,2.2,2.2,0,0,1-.48.77,1.85,1.85,0,0,1-.66.45,2,2,0,0,1-.77.15,2,2,0,0,1-.92-.21,1.88,1.88,0,0,1-.65-.57,2.51,2.51,0,0,1-.4-.82,3.51,3.51,0,0,1-.13-1,3.42,3.42,0,0,1,.14-1,2.86,2.86,0,0,1,.41-.82,1.88,1.88,0,0,1,.65-.54A1.84,1.84,0,0,1,283.59,94.77Zm.07.8a1.32,1.32,0,0,0-1,.4,1.85,1.85,0,0,0-.36,1.27,2.65,2.65,0,0,0,.09.68,2,2,0,0,0,.27.6,1.61,1.61,0,0,0,.42.44,1,1,0,0,0,.55.17,1.17,1.17,0,0,0,.58-.15,1.36,1.36,0,0,0,.43-.4,1.66,1.66,0,0,0,.27-.53,1.77,1.77,0,0,0,.1-.58,2.33,2.33,0,0,0-.36-1.47A1.21,1.21,0,0,0,283.66,95.57Z" transform="translate(-97 -42.62)"/><path class="cls-3" d="M289.54,95.87h-2.27v3.75l-.59.07v-5l.56-.11v.58L290,95l.35.7.36,3.82-.75.21Z" transform="translate(-97 -42.62)"/><path class="cls-3" d="M291.3,97.28a2.73,2.73,0,0,1,.19-1.09,2,2,0,0,1,.47-.7,1.73,1.73,0,0,1,.64-.37,2.08,2.08,0,0,1,.68-.12,2.47,2.47,0,0,1,.84.14,1.5,1.5,0,0,1,.64.44,2.22,2.22,0,0,1,.41.83,5.07,5.07,0,0,1,.14,1.27l-3.26.31a1.18,1.18,0,0,0,.55.93,1.68,1.68,0,0,0,.48.2,2.33,2.33,0,0,0,.53.06,3,3,0,0,0,.85-.13,1.5,1.5,0,0,0,.61-.32l.21.56a.91.91,0,0,1-.24.24,1.78,1.78,0,0,1-.39.2,2.27,2.27,0,0,1-.5.14,2.62,2.62,0,0,1-.57.06,3,3,0,0,1-.82-.13,1.84,1.84,0,0,1-.73-.44,2.08,2.08,0,0,1-.53-.81A3.56,3.56,0,0,1,291.3,97.28Zm.68,0,2.58-.28a1.31,1.31,0,0,0-.31-.92,1.24,1.24,0,0,0-1-.35,1.26,1.26,0,0,0-.57.15,1.3,1.3,0,0,0-.41.32,1.34,1.34,0,0,0-.24.44,1.42,1.42,0,0,0-.08.5A.53.53,0,0,0,292,97.3Z" transform="translate(-97 -42.62)"/><path class="cls-3" d="M299.24,95.87H297v3.75l-.59.07v-5l.57-.11v.58l2.72-.16.35.7.35,3.82-.75.21Z" transform="translate(-97 -42.62)"/><path class="cls-3" d="M302,99.43V95.88h-1.19l.07-.85h1.29V92.64h.79v2.44h1.93v.84h-2v3l1.77-.33.12.79-2.35.5Z" transform="translate(-97 -42.62)"/><path class="cls-3" d="M308.71,95.22l-.16.7-.25-.1-.35-.1-.41-.08-.41,0a1.57,1.57,0,0,0-.6.11.37.37,0,0,0-.25.37.39.39,0,0,0,.21.34,1.72,1.72,0,0,0,.49.24,4.6,4.6,0,0,0,.58.16l.45.1a1.89,1.89,0,0,1,.57.27,1.66,1.66,0,0,1,.34.37,1.18,1.18,0,0,1,.17.4,2,2,0,0,1,0,.41,1.23,1.23,0,0,1-.19.71,1.57,1.57,0,0,1-.49.47,2.08,2.08,0,0,1-.67.26,3,3,0,0,1-.73.08,3.74,3.74,0,0,1-1.07-.15,2.2,2.2,0,0,1-.81-.41l.29-.8a1.72,1.72,0,0,0,.33.22,2.41,2.41,0,0,0,.43.18,2.5,2.5,0,0,0,.49.11,2.89,2.89,0,0,0,.5,0,1.65,1.65,0,0,0,.75-.16.74.74,0,0,0,.4-.57.72.72,0,0,0,0-.19.6.6,0,0,0-.08-.21.63.63,0,0,0-.2-.2.84.84,0,0,0-.38-.13,6.77,6.77,0,0,1-.88-.19,2.84,2.84,0,0,1-.7-.29,1.37,1.37,0,0,1-.46-.43,1,1,0,0,1-.17-.59,1.06,1.06,0,0,1,.43-.95,2.35,2.35,0,0,1,1.28-.29A4.12,4.12,0,0,1,308,95,2.25,2.25,0,0,1,308.71,95.22Z" transform="translate(-97 -42.62)"/><path class="cls-8" d="M98.37,121.35l0-.58c.15,0,.38,0,.66,0h1l.18-1.42.59.14-.17,1.29h1.69l.18-1.73.61.08-.17,1.64h.75l.63,0v.6l-.66,0-.79,0-.19,2h.89l.75,0V124l-.77,0-.94,0-.23,2.17-.6-.08.21-2.08h-1.79l-.28,2.13-.56,0v-.16l.26-2-.71,0-.55-.06,0-.6.53,0h.77l.25-2-.91,0A5.1,5.1,0,0,1,98.37,121.35Zm3.9.1-.43,0h-1.28l-.26,2h1.77Z" transform="translate(-97 -42.62)"/><path class="cls-8" d="M111.22,119v.63h-1.46v1.17l2,2-.39.51-1.88-1.84-1.56,2-.49-.51,1.66-2.2v-1.19h-1.56V119Zm-.84,7.81v-2.4h.68v2h3.36v.61h-3.77Zm3.63-8.14v6.11h-.62V121H111v-.62h2.31V118.7Z" transform="translate(-97 -42.62)"/><path class="cls-8" d="M119.37,120.75h-1.55V122l2,2.07-.39.43-2-1.9-1.64,2-.49-.47,1.8-2.11v-1.29h-1.68v-.63h1.66v-1.44h.66v1.46h1.57Zm-.71,1.41v-.67h1.84v-2.17h.68v6.14l-.64,0v-3.34Zm3.48-3.07h.66v6.62h-.66Z" transform="translate(-97 -42.62)"/><path class="cls-8" d="M130.6,123.46l.05.61h-4.57v-.78h.8l.34-3.6h-1l.08-.68,3.83.24,0,.64h-.76v3.52Zm-2.76-3.69-.23,3.64h1v-3.58Zm2,2v-.66h1.65v-2.29h.68v6.1l-.65,0v-3.19Zm2.95-3.18h.67v6.58h-.67Z" transform="translate(-97 -42.62)"/><path class="cls-8" d="M134.48,121.75a3.32,3.32,0,0,1,.09-.74,2.36,2.36,0,0,1,.28-.74,1.63,1.63,0,0,1,.54-.57,1.56,1.56,0,0,1,.87-.22,1.5,1.5,0,0,1,.84.22,1.76,1.76,0,0,1,.55.57,2.4,2.4,0,0,1,.3.74,3.13,3.13,0,0,1,0,1.49,2.25,2.25,0,0,1-.3.73,1.8,1.8,0,0,1-.55.55,1.78,1.78,0,0,1-1.68,0,1.8,1.8,0,0,1-.55-.55,2.25,2.25,0,0,1-.3-.73A3.33,3.33,0,0,1,134.48,121.75Zm.65,0a2.46,2.46,0,0,0,.05.52,1.83,1.83,0,0,0,.17.53,1.25,1.25,0,0,0,.35.41,1,1,0,0,0,.56.16.94.94,0,0,0,.55-.16,1.15,1.15,0,0,0,.35-.41,1.58,1.58,0,0,0,.18-.53,2.46,2.46,0,0,0,0-.52,3.38,3.38,0,0,0,0-.53,2.21,2.21,0,0,0-.18-.53,1.13,1.13,0,0,0-.35-.4.88.88,0,0,0-.55-.17.92.92,0,0,0-.57.17,1.13,1.13,0,0,0-.35.4,1.83,1.83,0,0,0-.17.53A3.32,3.32,0,0,0,135.13,121.75Zm4.78,3.39v-6.68h.8v6.68Z" transform="translate(-97 -42.62)"/><path class="cls-8" d="M146.3,120.89h-1.37v1.54l2,2.36-.39.49-1.95-2.15L143,125.4l-.49-.51,1.7-2.44v-1.56h-1.56v-.63h3.63Zm2.11,5.25v-6.68h.8v6.68Z" transform="translate(-97 -42.62)"/><path class="cls-8" d="M152.72,122.72l1.65-2.65v-1.59l.58,0,.1,1.53,2,2.11-.35.5-2-2-1.52,2.44Zm3.05,1.37v-.61h3.46l.17,2.17-3.45.24v1h4.27l0,.59h-4.72l-.33-.2.13-2h3.36v-1.21Zm3.75-5.84v4.82l-.62-.15v-2.56h-2.56v-.65h2.54v-1.44Z" transform="translate(-97 -42.62)"/><path class="cls-8" d="M162.63,125l-.61-.16,1.35-4.71h-2.44v-.74h2.91l.25.61-.15.54h1.62v-1.11h.68V125h-.64v-1.84h-2.43Zm1.11-3.79-.37,1.27h2.23V121.2Zm3.52-2h.66v6h-.66Z" transform="translate(-97 -42.62)"/><path class="cls-8" d="M172,118.8h3.26v4h-3l-.31-.37Zm2.62.64h-2v2.62h1.93Zm3.55,5.59h-1.72v.56l1.66,1.23-.37.47-1.62-1.17-1.62,1.15-.45-.49,1.74-1.17v-.54H174v-.61h1.86v-1.15h.66v1.15h1.7Zm-.29-6.51v4.4h-.7v-4.38Z" transform="translate(-97 -42.62)"/><path class="cls-8" d="M185,124.71h3.38v.75h-5.86v-.8h1.91v-2.58H185Zm2.73-5v4h-.78v-2.23h-3.82v-.78H187V120h-3.83v-.84h4.32Z" transform="translate(-97 -42.62)"/><path class="cls-8" d="M197.16,126h-6.8v-.64h6.8Zm-5.22-2.44-.41-.37v-3h4.3v.65h-3.67V123H196v.66Z" transform="translate(-97 -42.62)"/><path class="cls-8" d="M204.31,119.21v.62H203v1l1.93,2-.39.51-1.87-1.78-1.57,2-.48-.51,1.66-2.14v-1.06h-1.57v-.64Zm2.73,8.16h-.7v-2.21h-4.81v-.64h5.16l.35.41Zm-1.15-8.75h.66v2.09h1.53v.66h-1.53v2.45h-.7Z" transform="translate(-97 -42.62)"/><path class="cls-8" d="M208.62,123.41l1.64-2.66V119l.59,0v1.72l2.15,2.11-.35.51-2-1.9-1.52,2.39Zm2.7,2.42a1.34,1.34,0,0,1,.12-.56,1.26,1.26,0,0,1,.37-.46,1.86,1.86,0,0,1,.61-.32,3.08,3.08,0,0,1,.85-.11,3.13,3.13,0,0,1,.85.11,1.76,1.76,0,0,1,.61.32,1.16,1.16,0,0,1,.37.46,1.34,1.34,0,0,1,.12.56,1.32,1.32,0,0,1-.12.57,1.27,1.27,0,0,1-.37.47,1.75,1.75,0,0,1-.61.31,3.13,3.13,0,0,1-.85.11,3.08,3.08,0,0,1-.85-.11,1.85,1.85,0,0,1-.61-.31,1.38,1.38,0,0,1-.37-.47A1.32,1.32,0,0,1,211.32,125.83Zm3.22,0a.72.72,0,0,0-.34-.61,1.87,1.87,0,0,0-1.87,0,.73.73,0,0,0-.33.61.77.77,0,0,0,.33.62,1.81,1.81,0,0,0,1.87,0A.75.75,0,0,0,214.54,125.83Zm.68-7.15v5.08l-.62.06V121h-2.34v-.62h2.3V118.7Z" transform="translate(-97 -42.62)"/><path class="cls-8" d="M217.72,124l.81.78-1.2,1.92-.48-.37.86-1.37-.43-.47Z" transform="translate(-97 -42.62)"/><path class="cls-8" d="M222.14,119.21l.68.09c0,.13-.06.31-.1.52s-.06.46-.08.72,0,.54-.07.84,0,.6,0,.9a10.42,10.42,0,0,0,.06,1.13,4.48,4.48,0,0,0,.21,1,1.8,1.8,0,0,0,.4.68.9.9,0,0,0,.66.26,1.3,1.3,0,0,0,.94-.35,2.47,2.47,0,0,0,.56-.92,5.28,5.28,0,0,0,.26-1.27,13.31,13.31,0,0,0,.07-1.41c0-.37,0-.71,0-1s0-.57,0-.76l.67,0c0,.24,0,.49,0,.74s0,.51,0,.78c0,.42,0,.83,0,1.23a10.51,10.51,0,0,1-.14,1.16,5.07,5.07,0,0,1-.27,1,2.93,2.93,0,0,1-.45.8,1.87,1.87,0,0,1-1.54.73,1.47,1.47,0,0,1-1-.34,2.3,2.3,0,0,1-.62-.91,5.08,5.08,0,0,1-.32-1.25,10.64,10.64,0,0,1-.08-1.38c0-.3,0-.59,0-.87s0-.55.06-.8.06-.49.09-.71S222.11,119.36,222.14,119.21Z" transform="translate(-97 -42.62)"/><path class="cls-8" d="M229.6,125.48h-2.32v-.55H228v-4.88h-1.1v-.53l2.15-.14V120l-.7.06v4.88h1.21Z" transform="translate(-97 -42.62)"/><path class="cls-8" d="M236.55,119.21v.62h-1.34v1l1.93,2-.39.51-1.88-1.78-1.56,2-.49-.51,1.66-2.14v-1.06h-1.56v-.64Zm2.74,8.16h-.71v-2.21h-4.8v-.64h5.16l.35.41Zm-1.16-8.75h.67v2.09h1.52v.66H238.8v2.45h-.7Z" transform="translate(-97 -42.62)"/><path class="cls-8" d="M241.16,121.39a2.59,2.59,0,0,1,.1-.74,1.6,1.6,0,0,1,.31-.61,1.52,1.52,0,0,1,.55-.42,1.78,1.78,0,0,1,.8-.16,1.72,1.72,0,0,1,.63.13,1.59,1.59,0,0,1,.77.7,3.36,3.36,0,0,1,.2.44l2.29,0v-2h.66v5.12h-.62v-2.47h-2.21v0a3.46,3.46,0,0,1-.07.6,1.9,1.9,0,0,1-.27.64,1.62,1.62,0,0,1-.53.51,1.6,1.6,0,0,1-.87.21,1.62,1.62,0,0,1-.83-.19,1.51,1.51,0,0,1-.53-.47,1.86,1.86,0,0,1-.29-.64A2.61,2.61,0,0,1,241.16,121.39Zm.63,0a1.6,1.6,0,0,0,.09.56,1.07,1.07,0,0,0,.24.4,1,1,0,0,0,.36.26,1,1,0,0,0,.42.11,1,1,0,0,0,.79-.38,1.62,1.62,0,0,0,.3-1,1.43,1.43,0,0,0-.07-.46,1.38,1.38,0,0,0-.23-.39,1.2,1.2,0,0,0-.35-.28.93.93,0,0,0-.44-.11.84.84,0,0,0-.45.11,1.09,1.09,0,0,0-.35.29,1.2,1.2,0,0,0-.22.42A1.43,1.43,0,0,0,241.79,121.39Zm1.05,3.13h.61v.84H247v-.86l.63,0v2.91h-4.42l-.41-.2Zm4.26,2.26v-.91h-3.65v1Z" transform="translate(-97 -42.62)"/><path class="cls-8" d="M258.66,123.56h-6.87l0-.55h6.81Zm-5-1.62-.41-.37v-2.66h3.91v.65h-3.28v1.74h3.47V122Zm-.19,4a1.3,1.3,0,0,1,.12-.55,1.27,1.27,0,0,1,.37-.47,2.06,2.06,0,0,1,.61-.31,3,3,0,0,1,.85-.11,3.13,3.13,0,0,1,.85.11,2.06,2.06,0,0,1,.61.31,1.27,1.27,0,0,1,.37.47,1.3,1.3,0,0,1,.12.55,1.37,1.37,0,0,1-.12.58,1.16,1.16,0,0,1-.37.46,1.86,1.86,0,0,1-.61.32,3.13,3.13,0,0,1-.85.11,3,3,0,0,1-.85-.11,1.86,1.86,0,0,1-.61-.32,1.16,1.16,0,0,1-.37-.46A1.37,1.37,0,0,1,253.43,125.92Zm3.22,0a.73.73,0,0,0-.34-.61,1.94,1.94,0,0,0-1.87,0,.75.75,0,0,0-.33.61.77.77,0,0,0,.33.63,1.87,1.87,0,0,0,1.87,0A.75.75,0,0,0,256.65,125.92Z" transform="translate(-97 -42.62)"/><path class="cls-9" d="M98.45,136.76l0-.59a5.31,5.31,0,0,0,.67,0h1l.19-1.41.59.13-.17,1.29h1.69l.18-1.73.6.08-.17,1.64h.75a5.78,5.78,0,0,0,.63,0v.61l-.65,0-.79,0-.2,2h.89l.75,0v.63l-.76,0c-.3,0-.62,0-1,0l-.22,2.17-.61-.08.22-2.08-.64,0H100.3L100,141.6l-.57,0v-.15l.26-2c-.26,0-.49,0-.71,0l-.55-.05,0-.61.53,0h.77l.26-1.95c-.34,0-.64,0-.91,0A5.49,5.49,0,0,1,98.45,136.76Zm3.9.1-.43,0h-1.28l-.25,1.94h1.77Z" transform="translate(-97 -42.62)"/><path class="cls-9" d="M111.11,139.63h-3.26v-.7h6.87v.74h-2.93v2.4h-.68Zm-2.25-2.17,2.08-1.76v-1.15H109V134h4.43v.58h-1.77v1.19l1.95,1.66-.39.49-1.95-1.56L109.35,138Z" transform="translate(-97 -42.62)"/><path class="cls-9" d="M117.22,136.7s0,0,0-.08v-.08a1.65,1.65,0,0,1,.14-.68,1.31,1.31,0,0,1,.4-.53,1.72,1.72,0,0,1,.61-.34,2.24,2.24,0,0,1,.8-.13,2.88,2.88,0,0,1,1,.15,1.9,1.9,0,0,1,.69.38,1.42,1.42,0,0,1,.4.55,1.69,1.69,0,0,1,.13.66,1.52,1.52,0,0,1-.19.79,1.71,1.71,0,0,1-.51.56l.06,2.47h2v.67h-6.83v-.76h2.2l-.06-2.35a1.81,1.81,0,0,1-.57-.5A1.4,1.4,0,0,1,117.22,136.7Zm2.07-1.23a1.81,1.81,0,0,0-.52.07,1.17,1.17,0,0,0-.45.21,1,1,0,0,0-.3.35,1.21,1.21,0,0,0-.11.52.89.89,0,0,0,.12.47,1,1,0,0,0,.34.32,1.46,1.46,0,0,0,.48.19,2.67,2.67,0,0,0,.56.06,1.42,1.42,0,0,0,.57-.1,1.22,1.22,0,0,0,.4-.24,1,1,0,0,0,.23-.35,1,1,0,0,0,.08-.41.9.9,0,0,0-.38-.79A1.72,1.72,0,0,0,119.29,135.47Zm.7,2.77a2.61,2.61,0,0,1-.6.08,2.83,2.83,0,0,1-.63-.07l0,2.14H120Z" transform="translate(-97 -42.62)"/><path class="cls-9" d="M129.86,134.61v.63h-1.35v1l1.94,2-.39.51L128.18,137l-1.56,2-.49-.51,1.66-2.15v-1h-1.56v-.65Zm2.74,8.16h-.71v-2.2h-4.8v-.65h5.15l.36.41ZM131.44,134h.67v2.09h1.52v.67h-1.52v2.44h-.71Z" transform="translate(-97 -42.62)"/><path class="cls-9" d="M134.47,136.8a2.55,2.55,0,0,1,.1-.74,1.65,1.65,0,0,1,.31-.62,1.55,1.55,0,0,1,.55-.42,1.93,1.93,0,0,1,.8-.16,1.72,1.72,0,0,1,.63.13,1.66,1.66,0,0,1,.46.3,2,2,0,0,1,.31.41,3.26,3.26,0,0,1,.2.43l2.28,0v-2h.67v5.12h-.63v-2.46H138v0a2.92,2.92,0,0,1-.08.6,1.91,1.91,0,0,1-.26.63,1.62,1.62,0,0,1-.53.51,1.6,1.6,0,0,1-.87.21,1.73,1.73,0,0,1-.83-.18,1.64,1.64,0,0,1-.53-.48,1.81,1.81,0,0,1-.29-.63A2.61,2.61,0,0,1,134.47,136.8Zm.63,0a1.55,1.55,0,0,0,.08.55,1.09,1.09,0,0,0,.25.4,1.14,1.14,0,0,0,.35.27,1.3,1.3,0,0,0,.43.11,1,1,0,0,0,.79-.38,1.65,1.65,0,0,0,.3-1,1.12,1.12,0,0,0-.08-.45,1.07,1.07,0,0,0-.22-.39,1.11,1.11,0,0,0-.79-.4,1,1,0,0,0-.46.11,1.21,1.21,0,0,0-.34.3,1.36,1.36,0,0,0-.23.41A1.75,1.75,0,0,0,135.1,136.8Zm1.05,3.12h.61v.84h3.59v-.86l.62,0v2.91h-4.41l-.41-.19Zm4.26,2.27v-.92h-3.65v1Z" transform="translate(-97 -42.62)"/><path class="cls-9" d="M148.61,138.18v.65h-3.53l-.3-.43v-4.06h.65v3.75Zm2.64-4.18h.66v6.61h-.66v-3.87h-1.12v3.81h-.7V134h.7v2.06h1.12Z" transform="translate(-97 -42.62)"/><path class="cls-9" d="M153.1,136.8a2.94,2.94,0,0,1,.1-.74,1.81,1.81,0,0,1,.31-.62,1.65,1.65,0,0,1,.55-.42,1.93,1.93,0,0,1,.8-.16,1.41,1.41,0,0,1,.79.21,2.06,2.06,0,0,1,.53.48l2.57,0V134.1h.66v5.12h-.62v-1.29l-2.49,0a1.75,1.75,0,0,1-.55.57,1.63,1.63,0,0,1-.91.23,1.73,1.73,0,0,1-.83-.18,1.64,1.64,0,0,1-.53-.48,2,2,0,0,1-.29-.63A2.61,2.61,0,0,1,153.1,136.8Zm.63,0a1.55,1.55,0,0,0,.09.55,1.19,1.19,0,0,0,.6.67,1.19,1.19,0,0,0,.42.11,1,1,0,0,0,.79-.38,1.65,1.65,0,0,0,.31-1,1.33,1.33,0,0,0-.08-.45,1.26,1.26,0,0,0-.23-.39,1.13,1.13,0,0,0-.34-.28,1.16,1.16,0,0,0-.45-.12.94.94,0,0,0-.45.11,1.12,1.12,0,0,0-.35.3,1.16,1.16,0,0,0-.22.41A1.48,1.48,0,0,0,153.73,136.8Zm6,6H159v-2.2h-4.8v-.65h5.15l.35.41Zm-3.22-6.58c0,.12.06.23.08.33s0,.2,0,.28a1.93,1.93,0,0,1,0,.24c0,.09,0,.17,0,.27l2.23,0v-1.12Z" transform="translate(-97 -42.62)"/><path class="cls-9" d="M168.53,138.42h-5l0-.53h5Z" transform="translate(-97 -42.62)"/><path class="cls-9" d="M172.15,138.77l-.34-4.53.65-.08.17,1.92h1.68l-.15-1.92.64-.06.35,4.81-2.69.17Zm.64-.43h1.7l-.14-1.74-1.7.14Zm1.27,4.08V140h.68v2h3.36v.61h-3.77ZM177,134h.66v2.09h1.53v.67h-1.53v3H177Z" transform="translate(-97 -42.62)"/><path class="cls-9" d="M186.93,139h-6.87l0-.55h6.81Zm-5.37-3.11a1.41,1.41,0,0,1,.57-1.17,1.72,1.72,0,0,1,.61-.29,2.48,2.48,0,0,1,.73-.1,2.39,2.39,0,0,1,.77.12,1.93,1.93,0,0,1,.6.33,1.61,1.61,0,0,1,.4.5,1.25,1.25,0,0,1,.15.61,1.41,1.41,0,0,1-.17.71,1.38,1.38,0,0,1-.45.48,1.61,1.61,0,0,1-.61.27,3,3,0,0,1-1.45,0,2.19,2.19,0,0,1-.61-.31,1.46,1.46,0,0,1-.4-.49A1.5,1.5,0,0,1,181.56,135.86Zm.14,5.47a1.34,1.34,0,0,1,.12-.56,1.24,1.24,0,0,1,.37-.46,1.85,1.85,0,0,1,.61-.31,3,3,0,0,1,1.69,0,1.8,1.8,0,0,1,.62.31,1.24,1.24,0,0,1,.37.46,1.34,1.34,0,0,1,.12.56,1.4,1.4,0,0,1-.12.58,1.24,1.24,0,0,1-.37.46,1.8,1.8,0,0,1-.62.31,3.3,3.3,0,0,1-1.69,0,1.85,1.85,0,0,1-.61-.31,1.24,1.24,0,0,1-.37-.46A1.4,1.4,0,0,1,181.7,141.33Zm3.06-5.47a.89.89,0,0,0-.08-.35,1.26,1.26,0,0,0-.25-.32,1.3,1.3,0,0,0-.38-.22,1.35,1.35,0,0,0-.5-.09,1.87,1.87,0,0,0-.61.09,1.19,1.19,0,0,0-.42.22.87.87,0,0,0-.25.3.67.67,0,0,0-.08.33.87.87,0,0,0,.1.44.83.83,0,0,0,.29.3,1.3,1.3,0,0,0,.43.18,2.07,2.07,0,0,0,.5.06,1.78,1.78,0,0,0,.47-.08,1.48,1.48,0,0,0,.4-.19,1,1,0,0,0,.28-.29A.72.72,0,0,0,184.76,135.86Zm.16,5.47a.72.72,0,0,0-.34-.61,1.87,1.87,0,0,0-1.87,0,.74.74,0,0,0,0,1.23,1.81,1.81,0,0,0,1.87,0A.73.73,0,0,0,184.92,141.33Z" transform="translate(-97 -42.62)"/><path class="cls-9" d="M188.2,136.9a2.66,2.66,0,0,1,.1-.56,1.27,1.27,0,0,1,.35-.56l-.84-.11.08-.53,1.85.21.12-1.44.61.06-.1,1.42,1.58.18,0,.54-.82-.07a1.47,1.47,0,0,1,.24.51,2.31,2.31,0,0,1,0,.54,1.44,1.44,0,0,1-.14.67,1.45,1.45,0,0,1-.37.5,1.94,1.94,0,0,1-.52.31,1.74,1.74,0,0,1-.59.1,1.84,1.84,0,0,1-.76-.2,1.65,1.65,0,0,1-.48-.42,1.69,1.69,0,0,1-.26-.52,2.4,2.4,0,0,1-.07-.5A.42.42,0,0,1,188.2,136.9Zm.61,0a.17.17,0,0,0,0,.07V137a1.15,1.15,0,0,0,.06.37.88.88,0,0,0,.19.34,1.37,1.37,0,0,0,.29.24.87.87,0,0,0,.4.09,1.09,1.09,0,0,0,.77-.3,1,1,0,0,0,.22-.31,1.11,1.11,0,0,0,.07-.37,1.18,1.18,0,0,0-.29-.87,1.1,1.1,0,0,0-.8-.28.84.84,0,0,0-.61.24A1.22,1.22,0,0,0,188.81,136.86Zm2,4.37a1.38,1.38,0,0,1,.12-.56,1.34,1.34,0,0,1,.37-.46,1.85,1.85,0,0,1,.61-.31,2.74,2.74,0,0,1,.85-.11,2.78,2.78,0,0,1,.85.11,1.75,1.75,0,0,1,.61.31,1.24,1.24,0,0,1,.37.46,1.39,1.39,0,0,1,.13.56,1.41,1.41,0,0,1-.13.58,1.24,1.24,0,0,1-.37.46,1.75,1.75,0,0,1-.61.31,2.77,2.77,0,0,1-.85.12,2.72,2.72,0,0,1-.85-.12,1.85,1.85,0,0,1-.61-.31,1.34,1.34,0,0,1-.37-.46A1.4,1.4,0,0,1,190.78,141.23Zm3.22,0a.73.73,0,0,0-.34-.61,1.87,1.87,0,0,0-1.87,0,.75.75,0,0,0-.33.61.77.77,0,0,0,.33.63,1.87,1.87,0,0,0,1.87,0A.75.75,0,0,0,194,141.23Zm.61-7.15v5.14H194V138h-1.79v-.63H194v-.84h-1.73v-.62h1.72V134.1Z" transform="translate(-97 -42.62)"/><path class="cls-9" d="M200.82,138.63v1.23h-.65v-1.23h-1.75v-.56h4v.51Zm1.05-2.79a1.76,1.76,0,0,1-.12.66,1.71,1.71,0,0,1-.32.5,1.54,1.54,0,0,1-.47.33,1.41,1.41,0,0,1-.54.11,1.63,1.63,0,0,1-.77-.16,1.51,1.51,0,0,1-.49-.4,1.34,1.34,0,0,1-.26-.52,2,2,0,0,1-.07-.52,1.89,1.89,0,0,1,.07-.51,1.66,1.66,0,0,1,.27-.53,1.38,1.38,0,0,1,.48-.41,1.42,1.42,0,0,1,.72-.17,1.46,1.46,0,0,1,.57.12,1.55,1.55,0,0,1,.48.32,1.45,1.45,0,0,1,.33.52A1.76,1.76,0,0,1,201.87,135.84Zm-2.44,0a1.08,1.08,0,0,0,.24.7.84.84,0,0,0,.72.3.73.73,0,0,0,.35-.09.77.77,0,0,0,.29-.22,1.08,1.08,0,0,0,.19-.31,1.22,1.22,0,0,0,.07-.38,1,1,0,0,0-.08-.39,1.05,1.05,0,0,0-.2-.34.8.8,0,0,0-.66-.32.87.87,0,0,0-.4.09.81.81,0,0,0-.28.24,1.11,1.11,0,0,0-.18.34A1.31,1.31,0,0,0,199.43,135.84Zm1.25,4.28h.61v.72h3.59v-.74l.63,0v2.71h-4.42l-.41-.19Zm4.26,2.07v-.84h-3.65v.9Zm-.63-2.7h-.68v-3.34H202.3v-.62h1.27V134h.69ZM205,134h.66v5.53H205Z" transform="translate(-97 -42.62)"/><path class="cls-9" d="M207.46,139.36l.8.78-1.19,1.91-.49-.37.86-1.37-.43-.47Z" transform="translate(-97 -42.62)"/><path class="cls-9" d="M211.5,134.86h.67l.17,1.94,1.84-.12-.16-1.84h.67l.33,4.71h-2.8l-.39-.13Zm2.85,4.07-.13-1.62-1.86.11.14,1.62ZM218,134.4h.67v6.21H218v-3.13h-1.11v3.07h-.7v-6.13h.7v2.4H218Z" transform="translate(-97 -42.62)"/><path class="cls-9" d="M223.57,134.9l-.19.61h2.16V134h.65v5.12h-.61v-1.42h-2.91l-.45,1.42-.66-.14,1.21-3.84h-2.85l.06-.76h3.28Zm-1.29,6.33a1.23,1.23,0,0,1,.5-1,1.75,1.75,0,0,1,.61-.31,3.3,3.3,0,0,1,1.69,0,1.9,1.9,0,0,1,.62.31,1.34,1.34,0,0,1,.37.46,1.38,1.38,0,0,1,.12.56,1.4,1.4,0,0,1-.12.58,1.34,1.34,0,0,1-.37.46,1.9,1.9,0,0,1-.62.31,3,3,0,0,1-1.69,0,1.75,1.75,0,0,1-.61-.31,1.38,1.38,0,0,1-.38-.46A1.4,1.4,0,0,1,222.28,141.23Zm.91-5.12-.31,1h2.68v-1Zm2.32,5.12a.76.76,0,0,0-.34-.61,1.89,1.89,0,0,0-1.88,0,.76.76,0,0,0-.32.61.79.79,0,0,0,.32.63,1.89,1.89,0,0,0,1.88,0A.78.78,0,0,0,225.51,141.23Z" transform="translate(-97 -42.62)"/><path class="cls-9" d="M232.09,137.5a1.45,1.45,0,0,1,.1-.55,1.28,1.28,0,0,1,.32-.45,1.54,1.54,0,0,1,.57-.3,2.81,2.81,0,0,1,.82-.11,2.23,2.23,0,0,1,.82.14,1.8,1.8,0,0,1,.56.33,1.42,1.42,0,0,1,.32.46,1.31,1.31,0,0,1,.1.5,1.19,1.19,0,0,1-.11.52,1.38,1.38,0,0,1-.31.46l0,2.12h2.06v.67h-6.84v-.8h2.33l-.05-1.79a1.33,1.33,0,0,1-.56-.54A1.47,1.47,0,0,1,232.09,137.5Zm4.06-2.17-.06.61h-4.43v-.84h2V134l.7.05v1.25Zm-1.09,2.19a.8.8,0,0,0-.28-.58,1.28,1.28,0,0,0-.88-.26,1.44,1.44,0,0,0-.88.23.64.64,0,0,0-.31.56.82.82,0,0,0,.17.46,1.05,1.05,0,0,0,.55.35h.06v0l.19,0h.22a1.28,1.28,0,0,0,.86-.24A.87.87,0,0,0,235.06,137.52Zm-.4,1.35a3.1,3.1,0,0,1-.76.1h-.2l-.19,0,.06,1.63h1.09Z" transform="translate(-97 -42.62)"/><path class="cls-9" d="M240.21,139.53h2.54v.74h-4.49v-.78h1.31v-2.2h.56Zm2-1h-.66v-2.87h-2.95l.08-.83h3.14l.41.59Zm1.23,2.42v-6.29h.77v2.6h1.38v.64h-1.42V141Z" transform="translate(-97 -42.62)"/><path class="cls-9" d="M247.32,139.36l.8.78-1.19,1.91-.49-.37.86-1.37-.43-.47Z" transform="translate(-97 -42.62)"/><path class="cls-9" d="M251.79,136.72a2.67,2.67,0,0,1,.11-.75,1.57,1.57,0,0,1,.32-.63,1.55,1.55,0,0,1,.56-.45,1.8,1.8,0,0,1,.81-.16,1.65,1.65,0,0,1,.87.24,1.91,1.91,0,0,1,.53.53,1.86,1.86,0,0,1,.28.65,2.67,2.67,0,0,1,.08.57,3.68,3.68,0,0,1-.07.61,2.09,2.09,0,0,1-.27.66,1.65,1.65,0,0,1-.55.53,1.68,1.68,0,0,1-.89.21,1.61,1.61,0,0,1-.82-.19,1.66,1.66,0,0,1-.55-.5,2.17,2.17,0,0,1-.31-.65A2.79,2.79,0,0,1,251.79,136.72Zm.63,0a.13.13,0,0,1,0,.06v.05a1.27,1.27,0,0,0,.11.54,1,1,0,0,0,.28.39,1.15,1.15,0,0,0,.39.24,1,1,0,0,0,.41.09A1,1,0,0,0,254,138a.91.91,0,0,0,.34-.28,1.55,1.55,0,0,0,.24-.44,1.53,1.53,0,0,0,.09-.54,1.78,1.78,0,0,0-.1-.52,1.18,1.18,0,0,0-.23-.43,1.14,1.14,0,0,0-.35-.3,1.16,1.16,0,0,0-.46-.12,1,1,0,0,0-.81.37A1.62,1.62,0,0,0,252.42,136.72ZM254,142.4V140h.67v2h3.53l0,.63h-4Zm3.83-8.3v6.1h-.7v-6.12Z" transform="translate(-97 -42.62)"/><path class="cls-9" d="M266.62,141.45h-6.8v-.65h6.8Zm-1.15-2.82v.65h-4.12l-.38-.49V135.2h4v.5h-3.32v1.12h3.51v.56h-3.51v1.18Z" transform="translate(-97 -42.62)"/><path class="cls-9" d="M269.41,134.38h3.87v2.4h-3.52v1.37h3.91v.52h-2v1.9h3.06v.72h-6.84v-.8H271v-1.75h-1.46l-.47-.38v-2.21h3.54V135h-3.21Z" transform="translate(-97 -42.62)"/><path class="cls-9" d="M282.63,138.87l.06.6h-4.57v-.78h.8l.34-3.59h-1l.08-.68,3.83.23,0,.64h-.77v3.52Zm-2.75-3.69-.23,3.63h1v-3.57Zm2,2v-.67h1.64v-2.28h.69v6.09l-.65,0v-3.18ZM284.8,134h.67v6.59h-.67Z" transform="translate(-97 -42.62)"/><path class="cls-9" d="M286.52,137.15a4.07,4.07,0,0,1,.08-.74,2.48,2.48,0,0,1,.29-.74,1.7,1.7,0,0,1,.54-.56,1.56,1.56,0,0,1,.87-.23,1.51,1.51,0,0,1,.84.23,1.83,1.83,0,0,1,.55.56,2.5,2.5,0,0,1,.3.74,3.39,3.39,0,0,1,.09.74,3.49,3.49,0,0,1-.09.76,2.29,2.29,0,0,1-.3.72,1.61,1.61,0,0,1-.55.55,1.71,1.71,0,0,1-1.68,0,1.61,1.61,0,0,1-.55-.55,2.29,2.29,0,0,1-.3-.72A3.49,3.49,0,0,1,286.52,137.15Zm.65,0a3.4,3.4,0,0,0,0,.53,2.13,2.13,0,0,0,.18.52,1.16,1.16,0,0,0,.35.41,1,1,0,0,0,1.11,0,1.16,1.16,0,0,0,.35-.41,1.53,1.53,0,0,0,.18-.52,2.55,2.55,0,0,0,.05-.53,3.49,3.49,0,0,0-.05-.53,2.37,2.37,0,0,0-.18-.53,1.22,1.22,0,0,0-.35-.4,1.06,1.06,0,0,0-1.12,0,1.22,1.22,0,0,0-.35.4,1.93,1.93,0,0,0-.17.53A3.4,3.4,0,0,0,287.17,137.15Zm4.78,3.4v-6.68h.8v6.68Z" transform="translate(-97 -42.62)"/><path class="cls-9" d="M298.34,136.29H297v1.54l2,2.37-.39.48-1.95-2.14L295,140.8l-.49-.51,1.7-2.44v-1.56h-1.56v-.62h3.63Zm2.11,5.25v-6.68h.8v6.68Z" transform="translate(-97 -42.62)"/><path class="cls-9" d="M311.93,141.45h-6.8v-.65h6.8Zm-1.15-2.82v.65h-4.12l-.37-.49V135.2h4v.5h-3.32v1.12h3.52v.56h-3.52v1.18Z" transform="translate(-97 -42.62)"/><path class="cls-9" d="M313.24,135.16v-.61h2.52l.2,2.31-2.23.33v1.07h2.67l0,.61h-3.1l-.37-.2v-2.09l2.3-.29-.1-1.11Zm1.56,7.07v-2.6h.69v2.25H320v.6h-4.94Zm3.69-7.95V140h-.62v-3.24h-1.56v-.63h1.54V134.3Zm.8-.08.67.1V140h-.67Z" transform="translate(-97 -42.62)"/><path class="cls-9" d="M325,136.29h-1.37v1.54l2,2.37-.39.48-2-2.14-1.56,2.26-.49-.51,1.7-2.44v-1.56h-1.56v-.62H325Zm2.11,5.25v-6.68h.8v6.68Z" transform="translate(-97 -42.62)"/><path class="cls-9" d="M328.9,138.81l1.64-2.66v-1.77l.59,0v1.72l2.15,2.11-.35.5-2-1.89-1.52,2.38Zm3,3.42v-2.4h.69v2h3.36v.6h-3.77Zm3.64-8.15v6.12h-.63v-2.95h-1.95v-.63h1.92v-.84h-1.92v-.62h1.91V134.1Z" transform="translate(-97 -42.62)"/><path class="cls-9" d="M338,139.36l.8.78-1.19,1.91-.49-.37.86-1.37-.43-.47Z" transform="translate(-97 -42.62)"/><path class="cls-9" d="M346,139v.64h-3.61l-.29-.37v-4h3.38V136h-2.7v2.93Zm2,2h-.73v-6.68H348v3h1.68v.64H348Z" transform="translate(-97 -42.62)"/><path class="cls-9" d="M357.11,141.25H350.7v-.64h6.41Zm-1.19-5.68v4h-.79v-1.33h-3.82v-.78h3.88v-1.56h-3.82V135h4.31Z" transform="translate(-97 -42.62)"/><path class="cls-9" d="M366.46,138.2h-1.59v2.19h3.06v.7h-6.84v-.76h3.15V138.2h-1.51l-.39-.35v-3h4.08ZM363,135.55v2h2.78v-2Z" transform="translate(-97 -42.62)"/><path class="cls-9" d="M375.94,141.45h-6.8v-.65h6.8ZM370.72,139l-.41-.37v-3h4.3v.64h-3.67v2.13h3.86V139Z" transform="translate(-97 -42.62)"/><path class="cls-9" d="M381.19,135.86a1.41,1.41,0,0,1,.57-1.17,1.65,1.65,0,0,1,.61-.29,2.48,2.48,0,0,1,.73-.1,2.39,2.39,0,0,1,.77.12,1.93,1.93,0,0,1,.6.33,1.61,1.61,0,0,1,.4.5,1.25,1.25,0,0,1,.15.61,1.52,1.52,0,0,1-.13.62,1.43,1.43,0,0,1-.35.45,1.5,1.5,0,0,1-.48.3,2.19,2.19,0,0,1-.56.14l.07,1.22h3v.69h-6.84v-.74h3.15l-.05-1.15a1.94,1.94,0,0,1-1.18-.47A1.38,1.38,0,0,1,381.19,135.86Zm-.47,3.91v0h.63l.07,1.05h3.7l-.1-1.07.6,0,.24,3.1h-4.53l-.41-.19Zm4.49,2.48-.06-1h-3.67v1Zm-.82-6.39a.76.76,0,0,0-.09-.35,1,1,0,0,0-.24-.32,1.24,1.24,0,0,0-.39-.22,1.26,1.26,0,0,0-.49-.09,1.87,1.87,0,0,0-.61.09,1.19,1.19,0,0,0-.42.22.87.87,0,0,0-.25.3.68.68,0,0,0-.09.33.87.87,0,0,0,.11.44.83.83,0,0,0,.29.3,1.33,1.33,0,0,0,.42.18,2.22,2.22,0,0,0,.51.06,1.78,1.78,0,0,0,.47-.08,1.64,1.64,0,0,0,.4-.19,1,1,0,0,0,.28-.29A.72.72,0,0,0,384.39,135.86Z" transform="translate(-97 -42.62)"/><path class="cls-9" d="M387.4,138.81l1.64-2.66v-1.77l.59,0v1.72l2.15,2.11-.36.5-1.95-1.89L388,139.16Zm3,3.42v-2.4h.68v2h3.36v.6h-3.77Zm3.63-8.15v6.12h-.62v-2.95h-2v-.63h1.93v-.84h-1.93v-.62h1.92V134.1Z" transform="translate(-97 -42.62)"/><path class="cls-9" d="M396.5,139.36l.8.78-1.19,1.91-.49-.37.86-1.37-.43-.47Z" transform="translate(-97 -42.62)"/><path class="cls-9" d="M99,146.2h3.07v1.54h2.18v-2H105v4.71h-.63v-2.07h-2.25v1.85H99.33l-.31-.37Zm2.42.64H99.69v2.62h1.73Zm-.06,4.65v-.6h3.46l.18,2.17-3.46.23v1h4.28l0,.58h-4.73l-.33-.19.13-2h3.36v-1.21Z" transform="translate(-97 -42.62)"/><path class="cls-9" d="M110.76,150.91v.64h-3.54l-.37-.49v-4.27h3.38v.5H107.5v1.35h2.73v.74H107.5v1.45Zm1.46,1.64v-6.68h.8v6.68Z" transform="translate(-97 -42.62)"/><path class="cls-9" d="M121.66,150.38h-6.88l0-.55h6.82Zm-5.61.92h4.65v2.17h-4.34v.86h4.93v.5h-5.24l-.33-.19v-1.8H120v-1h-4Zm4.49-3,.06.61h-4.74v-.79h.8l.27-1.73-.84-.08.08-.65h4.34v.9h-.73l-.13,1.68Zm-2.93-1.87-.23,1.81H119l.14-1.74Z" transform="translate(-97 -42.62)"/><path class="cls-9" d="M131.05,150.17v.72H129.2v1.7h3v.7h-6.83v-.76h3.14v-1.69h-1.62l-.37-.44v-3.59h4v.5H127.2v1.12h3.52V149H127.2v1.18Z" transform="translate(-97 -42.62)"/><path class="cls-9" d="M140.29,150.18h-6.87l0-.54h6.82Zm-5.6.94h4.64v2.15H135v.86h4.92v.51h-5.23l-.34-.2v-1.79h4.32v-1h-4Zm4-2.07h-.63v-2.52h-3.2l.08-.82h3.36l.41.59Z" transform="translate(-97 -42.62)"/><path class="cls-9" d="M145.64,150.48h2.54v.64h-4.49v-.68H145v-2h.6Zm2.07-.63h-.66V147.2h-3l.08-.82h3.14l.41.58Zm-2.61,4.57V152h.68v2h4.33v.61h-4.74Zm4-2.18v-6.16h.62v2.37h1.39v.64h-1.37v3.16Z" transform="translate(-97 -42.62)"/><path class="cls-9" d="M152.34,147.55v-.61h3.24l.2,2.42-2.95.34v1.54h3.4l0,.6h-3.83l-.37-.19v-2.56l3-.29-.1-1.23Zm5.2,5v-6.68h.8v6.68Z" transform="translate(-97 -42.62)"/><path class="cls-9" d="M160.82,151.36l.8.78-1.19,1.91-.49-.37.86-1.37-.43-.47Z" transform="translate(-97 -42.62)"/><path class="cls-9" d="M169,147.68l-.43.28a1.26,1.26,0,0,0-.47-.4,1.28,1.28,0,0,0-.66-.18,1.54,1.54,0,0,0-.76.2,1.91,1.91,0,0,0-.6.57,3.18,3.18,0,0,0-.41.89,4.14,4.14,0,0,0-.14,1.14,2.4,2.4,0,0,0,.2,1,2.44,2.44,0,0,0,.49.75,2.33,2.33,0,0,0,.67.47,1.86,1.86,0,0,0,.75.17,1.81,1.81,0,0,0,.87-.22,2.09,2.09,0,0,0,.71-.71l.39.57a3,3,0,0,1-.95.77,2.49,2.49,0,0,1-1.07.24,2.4,2.4,0,0,1-1-.23,2.91,2.91,0,0,1-.87-.66,3.27,3.27,0,0,1-.61-1,3.75,3.75,0,0,1-.23-1.33,4.31,4.31,0,0,1,.15-1.12,3.54,3.54,0,0,1,.45-1,2.7,2.7,0,0,1,.79-.75,2.27,2.27,0,0,1,1.16-.28,2.19,2.19,0,0,1,1,.2A1.25,1.25,0,0,1,169,147.68Z" transform="translate(-97 -42.62)"/><path class="cls-9" d="M173.73,147.2l-.28.58a.59.59,0,0,0-.18-.13,1.75,1.75,0,0,0-.33-.13l-.41-.1a2.28,2.28,0,0,0-.44,0,1.77,1.77,0,0,0-.41,0,.89.89,0,0,0-.33.14.58.58,0,0,0-.23.26.84.84,0,0,0-.09.4,1,1,0,0,0,.24.62,1.58,1.58,0,0,0,.74.49,3.76,3.76,0,0,1,1,.53,2.42,2.42,0,0,1,.55.57,1.66,1.66,0,0,1,.23.56,3.13,3.13,0,0,1,0,.5,1.74,1.74,0,0,1-.52,1.26,2.08,2.08,0,0,1-1.45.45,5.38,5.38,0,0,1-.85-.08,7.94,7.94,0,0,1-1-.26l.21-.68a7.45,7.45,0,0,0,.76.22,4.59,4.59,0,0,0,.9.1,2.65,2.65,0,0,0,.5-.05,1.25,1.25,0,0,0,.41-.16.81.81,0,0,0,.28-.3.92.92,0,0,0,.1-.46,1.31,1.31,0,0,0-.22-.75,1.81,1.81,0,0,0-.52-.47,6,6,0,0,0-.67-.33,3.83,3.83,0,0,1-.67-.35,1.84,1.84,0,0,1-.52-.52,1.54,1.54,0,0,1-.2-.83,1.67,1.67,0,0,1,.13-.71,1.15,1.15,0,0,1,.35-.48,1.36,1.36,0,0,1,.54-.26,2.8,2.8,0,0,1,.67-.08,3.5,3.5,0,0,1,.91.12A2.58,2.58,0,0,1,173.73,147.2Z" transform="translate(-97 -42.62)"/><path class="cls-9" d="M178,147.2l-.27.58a.59.59,0,0,0-.18-.13,2.06,2.06,0,0,0-.33-.13l-.42-.1a2.2,2.2,0,0,0-.44,0,1.75,1.75,0,0,0-.4,0,.94.94,0,0,0-.34.14.65.65,0,0,0-.23.26,1,1,0,0,0,.16,1,1.53,1.53,0,0,0,.74.49,3.92,3.92,0,0,1,1,.53,2.36,2.36,0,0,1,.54.57,1.48,1.48,0,0,1,.23.56,2.29,2.29,0,0,1,0,.5,1.7,1.7,0,0,1-.52,1.26,2,2,0,0,1-1.44.45,5.5,5.5,0,0,1-.86-.08,8.89,8.89,0,0,1-1-.26l.22-.68a6.76,6.76,0,0,0,.76.22,4.59,4.59,0,0,0,.9.1,2.73,2.73,0,0,0,.5-.05,1.35,1.35,0,0,0,.41-.16.9.9,0,0,0,.28-.3,1,1,0,0,0,.1-.46,1.31,1.31,0,0,0-.22-.75,2,2,0,0,0-.52-.47,6.13,6.13,0,0,0-.68-.33,4.71,4.71,0,0,1-.67-.35,1.94,1.94,0,0,1-.51-.52,1.46,1.46,0,0,1-.21-.83,1.84,1.84,0,0,1,.13-.71,1.27,1.27,0,0,1,.36-.48,1.36,1.36,0,0,1,.54-.26,2.71,2.71,0,0,1,.66-.08,3.39,3.39,0,0,1,.91.12A2.36,2.36,0,0,1,178,147.2Z" transform="translate(-97 -42.62)"/><path class="cls-9" d="M181.31,149.38a3.8,3.8,0,0,1,.07-.72,2.68,2.68,0,0,1,.27-.7,1.55,1.55,0,0,1,.52-.53,1.43,1.43,0,0,1,.81-.21,1.79,1.79,0,0,1,.86.19,1.57,1.57,0,0,1,.56.49,2.11,2.11,0,0,1,.31.7,3.46,3.46,0,0,1,.09.78,3.27,3.27,0,0,1-.09.75,1.91,1.91,0,0,1-.29.69,1.59,1.59,0,0,1-.55.51,1.63,1.63,0,0,1-.84.2,1.46,1.46,0,0,1-.76-.2,1.65,1.65,0,0,1-.54-.51,2.5,2.5,0,0,1-.32-.68A2.89,2.89,0,0,1,181.31,149.38Zm.64,0a2.2,2.2,0,0,0,.06.5,1.73,1.73,0,0,0,.2.48,1.27,1.27,0,0,0,.36.37,1,1,0,0,0,.53.14.87.87,0,0,0,.78-.43,2,2,0,0,0,.28-1.08,1.92,1.92,0,0,0-.28-1.11.94.94,0,0,0-.84-.41.93.93,0,0,0-.82.42A2,2,0,0,0,182,149.4Zm5.76-3h.67v6.21h-.67v-3.13H186.6v3.07h-.7v-6.13h.7v2.4h1.11Z" transform="translate(-97 -42.62)"/><path class="cls-9" d="M193.86,150.56v.62H190l-.28-.41v-4h.67v3.69Zm1.24,2v-6.68h.8v6.68Z" transform="translate(-97 -42.62)"/><path class="cls-9" d="M197.58,147.16h2.91v1.74h1.62v-2.19h.64v5.62l-.6,0v-2.81h-1.69v2h-2.59l-.31-.37Zm2.22.68h-1.54v2.95h1.5Zm4,4.79v-6.14h.66v6.08Z" transform="translate(-97 -42.62)"/><path class="cls-9" d="M205.76,149.15a4.07,4.07,0,0,1,.08-.74,2.48,2.48,0,0,1,.29-.74,1.7,1.7,0,0,1,.54-.56,1.56,1.56,0,0,1,.87-.23,1.51,1.51,0,0,1,.84.23,2,2,0,0,1,.55.56,2.5,2.5,0,0,1,.3.74,4.07,4.07,0,0,1,.08.74,4.18,4.18,0,0,1-.08.76,2.29,2.29,0,0,1-.3.72,1.7,1.7,0,0,1-.55.55,1.59,1.59,0,0,1-.84.22,1.54,1.54,0,0,1-.84-.22,1.61,1.61,0,0,1-.55-.55,2.08,2.08,0,0,1-.3-.72A3.49,3.49,0,0,1,205.76,149.15Zm.64,0a3.49,3.49,0,0,0,0,.53,1.78,1.78,0,0,0,.18.52,1.07,1.07,0,0,0,.35.41,1,1,0,0,0,1.11,0,1.27,1.27,0,0,0,.35-.41,1.53,1.53,0,0,0,.18-.52,2.83,2.83,0,0,0,0-1.06,2.37,2.37,0,0,0-.18-.53,1.35,1.35,0,0,0-.35-.4,1.06,1.06,0,0,0-1.12,0,1.12,1.12,0,0,0-.35.4,1.64,1.64,0,0,0-.17.53A3.49,3.49,0,0,0,206.4,149.15Zm4.79,3.4v-6.68h.8v6.68Z" transform="translate(-97 -42.62)"/><path class="cls-9" d="M213.42,150.81l1.64-2.66v-1.77l.58,0v1.72l2.15,2.11-.35.5-1.95-1.89L214,151.16Zm3,3.42v-2.4h.69v2h3.36v.6h-3.77Zm3.64-8.15v6.12h-.63v-2.95h-1.95v-.63h1.92v-.84h-1.92v-.62h1.91V146.1Z" transform="translate(-97 -42.62)"/><path class="cls-9" d="M231.21,151h-6.88l0-.55h6.82Zm-5-1.63-.41-.37v-2.65h3.91V147h-3.29v1.74h3.48v.66Zm-.2,4a1.21,1.21,0,0,1,.13-.56,1.24,1.24,0,0,1,.37-.46,1.75,1.75,0,0,1,.61-.31,3,3,0,0,1,1.69,0,1.8,1.8,0,0,1,.62.31,1.26,1.26,0,0,1,.49,1,1.4,1.4,0,0,1-.12.58,1.34,1.34,0,0,1-.37.46,1.8,1.8,0,0,1-.62.31,3.3,3.3,0,0,1-1.69,0,1.75,1.75,0,0,1-.61-.31,1.24,1.24,0,0,1-.37-.46A1.27,1.27,0,0,1,226,153.33Zm3.23,0a.75.75,0,0,0-.34-.61,1.51,1.51,0,0,0-.93-.25,1.54,1.54,0,0,0-1,.25.75.75,0,0,0,0,1.23,1.53,1.53,0,0,0,1,.26,1.51,1.51,0,0,0,.93-.26A.75.75,0,0,0,229.2,153.33Z" transform="translate(-97 -42.62)"/></svg>