<svg id="레이어_1" data-name="레이어 1" xmlns="http://www.w3.org/2000/svg" viewBox="0 0 63.38 11.38"><defs><style>.cls-1{fill:#fbffd3;}</style></defs><title>WORKS_hover</title><path class="cls-1" d="M167.49,89.2V87.58h-1.63V77.83h3.25v6.5h1.63v-6.5h1.62v6.5H174v-6.5h3.25v9.75h-1.63V89.2H174V87.58h-1.63V86h-1.62v1.63h-1.63V89.2Z" transform="translate(-165.86 -77.83)"/><path class="cls-1" d="M180.49,89.2V87.58h-1.63V79.45h1.63V77.83h8.12v1.62h1.63v8.13h-1.63V89.2Zm1.62-1.62H187V79.45h-4.88Z" transform="translate(-165.86 -77.83)"/><path class="cls-1" d="M191.86,89.2V77.83h9.75v1.62h1.63v4.88H200V86h1.62v1.63h1.63V89.2h-4.88V87.58h-1.62V86h-1.63V89.2Zm3.25-4.87h3.25V82.7H200V79.45h-4.88Z" transform="translate(-165.86 -77.83)"/><path class="cls-1" d="M204.86,89.2V77.83h3.25V82.7h1.63V81.08h1.62V79.45H213V77.83h3.25v1.62h-1.63v1.63H213V82.7h-1.63v1.63H213V86h1.62v1.63h1.63V89.2h-4.88V87.58h-1.62V86h-1.63V89.2Z" transform="translate(-165.86 -77.83)"/><path class="cls-1" d="M219.49,89.2V87.58h-1.63V86h3.25v1.63H226V84.33h-6.5V82.7h-1.63V79.45h1.63V77.83h8.12v1.62h1.63v1.63H226V79.45h-4.88V82.7h6.5v1.63h1.63v3.25h-1.63V89.2Z" transform="translate(-165.86 -77.83)"/></svg>