<svg id="레이어_1" data-name="레이어 1" xmlns="http://www.w3.org/2000/svg" viewBox="0 0 190.75 14"><defs><style>.cls-1{fill:#5a5858;}</style></defs><title>works_comingsoon</title><path class="cls-1" d="M161.51,108.19v-1.75h-1.75v-1.75H158V99.44h1.75V97.69h1.75V95.94h7v1.75h1.75v1.75h-3.5V97.69h-3.5v1.75h-1.75v5.25h1.75v1.75h3.5v-1.75h3.5v1.75h-1.75v1.75Z" transform="translate(-158.01 -95.94)"/><path class="cls-1" d="M173.76,108.19v-1.75H172v-5.25h1.75V99.44h8.75v1.75h1.75v5.25h-1.75v1.75Zm1.75-1.75h5.25v-5.25h-5.25Z" transform="translate(-158.01 -95.94)"/><path class="cls-1" d="M186,108.19V99.44h10.5v1.75h1.75v7h-3.5v-7H193v7h-3.5v-7h-1.75v7Z" transform="translate(-158.01 -95.94)"/><path class="cls-1" d="M201.76,108.19v-1.75h3.5v-5.25h-1.75V99.44h5.25v7h3.5v1.75Zm3.5-10.5V95.94h3.5v1.75Z" transform="translate(-158.01 -95.94)"/><path class="cls-1" d="M214,108.19V99.44h10.5v1.75h1.75v7h-3.5v-7h-5.25v7Z" transform="translate(-158.01 -95.94)"/><path class="cls-1" d="M229.76,109.94v-1.75h7v-1.75h-7v-1.75H228v-3.5h1.75V99.44h10.5v8.75h-1.75v1.75Zm1.75-5.25h5.25v-3.5h-5.25Z" transform="translate(-158.01 -95.94)"/><path class="cls-1" d="M257.76,108.19v-1.75H256v-1.75h3.5v1.75h5.25v-3.5h-7v-1.75H256v-3.5h1.75V95.94h8.75v1.75h1.75v1.75h-3.5V97.69h-5.25v3.5h7v1.75h1.75v3.5h-1.75v1.75Z" transform="translate(-158.01 -95.94)"/><path class="cls-1" d="M271.76,108.19v-1.75H270v-5.25h1.75V99.44h8.75v1.75h1.75v5.25h-1.75v1.75Zm1.75-1.75h5.25v-5.25h-5.25Z" transform="translate(-158.01 -95.94)"/><path class="cls-1" d="M285.76,108.19v-1.75H284v-5.25h1.75V99.44h8.75v1.75h1.75v5.25h-1.75v1.75Zm1.75-1.75h5.25v-5.25h-5.25Z" transform="translate(-158.01 -95.94)"/><path class="cls-1" d="M298,108.19V99.44h10.5v1.75h1.75v7h-3.5v-7h-5.25v7Z" transform="translate(-158.01 -95.94)"/><path class="cls-1" d="M315.51,108.19v-3.5H319v3.5Z" transform="translate(-158.01 -95.94)"/><path class="cls-1" d="M329.51,108.19v-3.5H333v3.5Z" transform="translate(-158.01 -95.94)"/><path class="cls-1" d="M343.51,104.69V95.94h5.25v5.25H347v3.5Zm0,3.5v-1.75H347v1.75Z" transform="translate(-158.01 -95.94)"/></svg>